<svg id="Capa_1" enable-background="new 0 0 512 512" height="512" viewBox="0 0 512 512" width="512" xmlns="http://www.w3.org/2000/svg"><path d="m489.037 105.038c-3.312-17.874-19.306-30.636-37.469-29.898-36.189 1.47-101.748 12.432-176.683 63.716 18.927 48.477 32.599 110.867 32.599 190.009 0 95.718-45.27 159.433-106.78 177.713 57.487 17.201 127.021-6.14 182.995-76.288 119.018-149.16 115.241-271.813 105.338-325.252z" fill="#994e37"/><path d="m139.025 8.929c13.737-11.905 34.199-11.905 47.936 0 41.071 35.594 120.523 129.112 120.523 319.936 0 114.427-64.691 183.135-144.491 183.135s-144.491-68.708-144.491-183.135c.001-190.824 79.453-284.342 120.523-319.936z" fill="#cc624e"/><path d="m307.484 328.865c0 95.718-45.27 159.433-106.78 177.713 10.165 3.042 20.708 4.809 31.484 5.281 56.028-23.451 95.918-86.089 95.918-176.926 0-87.435-16.324-154.87-38.114-205.957-4.989 3.116-10.026 6.402-15.107 9.88 18.927 48.477 32.599 110.867 32.599 190.009z" fill="#8c4534"/><path d="m186.961 8.929c-9.378-8.128-21.891-10.702-33.258-7.732 5.283 1.38 10.319 3.955 14.678 7.732 41.071 35.594 120.523 129.112 120.523 319.936 0 109.951-59.731 177.677-135.2 182.809 3.073.209 6.169.327 9.29.327 79.8 0 144.491-68.708 144.491-183.135-.001-190.825-79.453-284.343-120.524-319.937z" fill="#bc574a"/><g fill="#994e37"><path d="m199.189 20.266c-4.339-4.289-8.447-8.061-12.228-11.337-4.178-3.621-8.979-6.133-14.022-7.552 10.591 19.477 24.395 51.154 36.138 98.83 15.865 64.414 23.909 141.343 23.909 228.65 0 105.965-26.591 168.014-56.383 182.454 10.856-1.091 21.361-3.491 31.385-7.137 6.329-8.244 12.081-18.354 17.103-30.227 15.294-36.161 23.379-86.332 23.379-145.089 0-88.553-8.195-166.728-24.359-232.353-7.86-31.911-16.674-56.986-24.922-76.239z"/><path d="m93 328.858c0-87.306 8.044-164.235 23.909-228.65 11.743-47.676 25.548-79.354 36.139-98.831-5.044 1.418-9.845 3.931-14.023 7.552-3.781 3.277-7.889 7.048-12.228 11.337-8.248 19.253-17.063 44.327-24.922 76.238-16.163 65.625-24.359 143.8-24.359 232.353 0 58.757 8.085 108.927 23.38 145.089 5.022 11.873 10.773 21.983 17.102 30.227 10.024 3.646 20.529 6.046 31.385 7.138-29.792-14.439-56.383-76.488-56.383-182.453z"/><path d="m170.735 511.779v-510.951c-5.099-1.098-10.385-1.098-15.484 0v510.951c2.564.145 5.145.221 7.742.221 2.598 0 5.178-.077 7.742-.221z"/></g><path d="m295.232 207.101c70.113-68.217 140.579-114.988 172.374-128.967-4.923-2.141-10.375-3.224-16.039-2.994-4.152.169-8.695.464-13.591.93-36.409 20.94-91.027 60.193-146.868 113.496 1.457 5.698 2.832 11.544 4.124 17.535z" fill="#70362b"/><path d="m491.574 121.937c-.727-6.222-1.604-11.868-2.536-16.899-1.019-5.499-3.242-10.511-6.356-14.798-4.464 28.126-16.949 66.306-34.106 103.935-28.581 62.683-69.958 126.438-122.983 189.497-12.223 14.536-24.016 26.667-34.974 36.982-6.593 15.835-14.933 29.806-24.697 41.753 18.807-15.262 44.017-36.06 71.522-68.77 53.928-64.133 96.059-129.08 125.22-193.038 14.727-32.302 23.586-58.781 28.91-78.662z" fill="#70362b"/><path d="m305.924 283.683c.534 7.597.944 15.361 1.205 23.316l174.278-218.414c-3.301-4.038-7.432-7.335-12.103-9.657z" fill="#70362b"/><path d="m311.215 191.917c-5.316 4.934-10.653 10.003-15.979 15.185-1.286-5.868-2.642-11.718-4.129-17.538 5.161-4.934 10.323-9.744 15.453-14.431 1.631 5.45 3.179 11.045 4.655 16.784z" fill="#5e2b25"/><path d="m323.468 386.178c-2.188 11.489-5.12 22.328-8.723 32.495-18.55 18.983-35.324 32.784-48.815 43.726 5.21-6.396 9.905-13.204 14.067-20.325 2.004-3.43 3.897-6.927 5.65-10.492 1.766-3.593 3.297-7.294 4.975-10.927 10.312-9.713 21.378-21.047 32.846-34.477z" fill="#5e2b25"/><path d="m326.1 283.21v.01l-18.962 23.763-.01.01c-.134-3.974-.299-7.907-.495-11.789-.206-3.881-.444-7.721-.712-11.52l.021-.021 18.003-22.565c.834 7.196 1.567 14.566 2.155 22.112z" fill="#5e2b25"/></svg>