<svg width="200" height="200" xmlns="http://www.w3.org/2000/svg"><g transform="translate(-3.943 -2.49)"><path d="M157.513 110.543c0 15.823-10.288 37.685-22.728 49.63-5.516 5.305-11.457 8.651-17.115 8.651-3.574 0-7.141-.574-10.208-1.501a22.183 22.183 0 00-12.876 0 35.98 35.98 0 01-10.21 1.501c-5.925 0-12.169-3.676-17.908-9.429-12.08-12.096-21.935-33.369-21.935-48.852 0-22.841 13.665-36.641 26.513-39.972 6.155-1.596 13.295-.568 19.062.934a43.265 43.265 0 0021.83 0c5.767-1.502 12.905-2.53 19.062-.934 12.85 3.331 26.513 17.131 26.513 39.972z" fill="#f94848"/><path d="M134.785 160.172c-15.265 2.697-27.023 1.95-35.882-.195-14.467-3.504-25.23-15.705-27.022-30.481-4.493-37.009 19.687-47.784 19.687-47.784 7.088 3.22 15.056 1.501 15.056 1.501-5.085-5.082 1.689-10.928 1.689-10.928a43.263 43.263 0 01-18.204-.78c-5.767-1.502-12.908-2.53-19.063-.934-12.848 3.331-26.511 17.131-26.511 39.972 0 22.839 21.441 58.281 39.841 58.281a35.98 35.98 0 0010.21-1.501 22.183 22.183 0 0112.876 0 35.983 35.983 0 0010.208 1.501c5.658 0 11.599-3.346 17.115-8.651v-.001z" fill="#e23d3d"/><path d="M163.052 38.755s-3.173 22.115-19.882 28.552c-15.973 6.155-30.212-10.485-36.052-9.175a2.4 2.4 0 00-.735.285c-.01.004-.012.008-.012.008l.002-.013c.198-.597 6.603-19.675 23.051-20.925 16.709-1.27 25.801 6.344 33.628 1.268z" fill="#c7f492"/><path d="M163.052 38.755s-10.153 12.372-24.429 12.372c-12.553 0-27.967 5.641-31.505 7.005-.425.163-.675.263-.735.285-.01.004-.012.008-.012.008l.002-.013c.198-.597 6.603-19.675 23.05-20.925 16.71-1.27 25.802 6.344 33.629 1.268z" fill="#a3e261"/><ellipse transform="rotate(-95.676 200.177 289.485)" cx="393.878" cy="247.459" rx="11.419" ry="7.389" fill="#fc8181"/><path d="M112.856 80.082c0 2.599-4.08 4.763-9.495 5.254a26.539 26.539 0 01-4.765-.006c-5.365-.51-9.398-2.665-9.398-5.248h23.658z" fill="#e23d3d"/><path d="M110.051 58.145l-8.678 13.178a72.288 72.288 0 011.578 8.759c.2 1.698.342 3.453.41 5.254a26.545 26.545 0 01-4.765-.006 60.638 60.638 0 00-.439-5.248c-1.554-12.317-6.306-21.391-6.364-21.492a2.38 2.38 0 01.988-3.218 2.376 2.376 0 013.216.984c.139.266 1.887 3.607 3.651 8.936l6.43-9.764a2.377 2.377 0 013.294-.676 2.377 2.377 0 01.679 3.293z" fill="#b25719"/></g></svg>