<svg width="200" height="200" xmlns="http://www.w3.org/2000/svg"><path d="M129.085 27.548c-1.386-1.726-3.494-2.439-5.642-1.908-11.387 2.814-22.256 10.87-29.418 23.136 3.936 3.937 6.793 8.564 8.776 13.746 3.078-1.62 6.188-2.862 9.6-3.704 2.027-.503 4.018.17 5.325 1.8 2.2 2.74 3.918 5.612 5.381 8.77 5.11-3.155 10.224-4.915 15.317-5.599 1.752-14.094-1.996-27.093-9.34-36.241z" fill="#3bbc56"/><path d="M101.326 52.13c-.727-.804-.82-2.035-.226-2.976 7.094-11.237 17.379-18.66 28.147-21.4-.054-.068-.107-.139-.162-.207-1.385-1.725-3.494-2.439-5.641-1.907-11.388 2.814-22.257 10.871-29.419 23.136 3.936 3.938 6.793 8.564 8.777 13.746a45.12 45.12 0 014.276-1.982c-1.54-3.045-3.438-5.86-5.752-8.41z" fill="#30aa44"/><path d="M149.993 66.418c-.611-1.74-2.048-2.89-3.845-3.076-7.298-.76-15.466.982-23.179 5.75 3.207 6.917 4.654 14.553 4.436 22.257v.031l.162-.01.024.146a37.256 37.256 0 0121.398 2.103l.151.063.06-.16c3.448-9.111 3.729-18.738.793-27.104z" fill="#3bbc56"/><path d="M130.291 70.322c6.347-3.617 12.944-5.229 19.073-5.124a4.45 4.45 0 00-3.215-1.856c-7.298-.76-15.466.981-23.18 5.75 3.207 6.917 4.655 14.552 4.437 22.256v.032l.162-.01.023.146a37.854 37.854 0 015.806-.67c-.122-6.335-1.38-12.577-3.833-18.357a1.731 1.731 0 01.727-2.167z" fill="#30aa44"/><path d="M88.16 43.733c-1.542-.943-3.382-.9-4.923.112-7.142 4.69-12.9 12.284-15.87 22.187 7.538 2.011 13.72 6.022 18.571 11.504 4.74-6.59 10.509-11.66 17.153-15.166-3.177-8.337-8.57-14.75-14.93-18.637z" fill="#3bbc56"/><path d="M89.084 46.523a4.716 4.716 0 012.01-.753 32.42 32.42 0 00-2.933-2.036c-1.543-.943-3.383-.9-4.925.111-7.141 4.69-12.9 12.284-15.87 22.187a38.142 38.142 0 016.01 2.155c3.013-9.648 8.691-17.057 15.708-21.664z" fill="#30aa44"/><path d="M89.36 179.825C93.933 176.542 106.683 137 106.683 137c-.085-.062-.17-.123-.255-.187l.269-.125.017-.393c-6.762 2.664-22.25 2.017-25.84-3.923l-.224.323.137.262c-.107 0-.21-.004-.316-.006 0 0-19.387 32.319-17.722 37.775 3.518 11.531 17.022 15.981 26.611 9.1z" fill="#3bbc56"/><path d="M68.809 172.776c-1.665-5.457.998-10.977 2.561-16.02l9.303-24.222c-1.695-1.145-3.036-2.8-4.173-4.682l-.225.323c.004.01.133.254.138.262-.108 0-.665-.416-.317-.005 0 0-15.012 36.838-13.347 42.294 2.115 6.932 7.839 11.3 14.15 12.19-3.695-2.076-6.688-5.543-8.09-10.14z" fill="#30aa44"/><g fill="#3bbc56"><path d="M155.37 99.52c-.175-2.04-1.331-3.81-3.092-4.735-7.541-3.963-16.327-5.24-24.74-3.593l-.13.026-.003.136c-.552 19.322-11.58 38.975-30.16 47.297 1.498 1.276 4.87 2.605 6.677 3.215 26.492 8.957 53.94-13.434 51.449-42.345zM86.135 77.262c-5.857-6.614-13.632-10.848-21.931-12.258-1.961-.333-3.955.372-5.332 1.887-9.854 10.832-13.261 26.165-8.89 40.013 6.378 20.212 25.453 26.676 31.341 26.363-9.559-17.597-6.828-39.816 4.812-56.005z"/><path d="M155.37 99.52c-.175-2.04-1.331-3.81-3.092-4.735-7.541-3.963-16.327-5.24-24.74-3.593l-.13.026-.003.136c-.552 19.322-11.58 38.975-30.16 47.297 1.498 1.276 4.87 2.605 6.677 3.215 26.492 8.957 53.94-13.434 51.449-42.345z"/></g><path d="M106.931 142.736c-1.574-.685-1.63-2.952-.1-3.8 16.444-9.112 26.108-27.166 26.624-45.233a.542.542 0 01.431-.516l.11-.021c5.416-1.06 10.584-.827 15.877.472a37.812 37.812 0 00-22.335-2.446l-.13.026-.004.135c-.551 19.323-11.578 38.976-30.16 47.298 1.499 1.276 4.871 2.605 6.677 3.215 1.017.344 2.035.636 3.053.889l-.043-.019zM56.04 108.953c-4.37-13.848-.963-29.18 8.891-40.013 1.378-1.515 3.372-2.22 5.332-1.887.879.15 1.75.337 2.615.55a37.268 37.268 0 00-8.674-2.599c-1.961-.333-3.955.373-5.332 1.887-9.855 10.833-13.261 26.165-8.89 40.013 5.315 16.845 19.448 24.139 27.418 25.922-7.755-3.447-17.224-10.77-21.36-23.873z" fill="#30aa44"/><path d="M117.975 60.403a5.552 5.552 0 00-5.642-1.907c-29.32 7.246-45.99 45.163-32.237 73.127 3.54 7.197 11.939 10.037 19.12 6.465 27.944-13.898 37.633-54.17 18.759-77.685z" fill="#3bbc56"/><path d="M86.157 133.673c-13.713-27.883 2.82-65.656 31.98-73.06-.055-.069-.107-.141-.162-.208a5.546 5.546 0 00-5.641-1.908c-29.321 7.245-45.99 45.163-32.238 73.127 2.293 4.662 6.626 7.493 11.344 7.94-2.185-1.365-4.038-3.356-5.283-5.89z" fill="#30aa44"/></svg>