<svg width="200" height="200" xmlns="http://www.w3.org/2000/svg"><path d="M107.454 176.42c-1.4.386-2.85-.423-3.241-1.807l-17.667-62.675a2.6 2.6 0 011.827-3.206c1.4-.387 2.849.422 3.24 1.807l17.666 62.675a2.596 2.596 0 01-1.825 3.205zm0 0" fill="#cdf5a0"/><path d="M105.325 57.296c-2.167-1.457-5.136-.932-6.937.95l-9.133 9.544c-1.682 1.756-4.668.893-5.127-1.485l-1.36-7.014a12.924 12.924 0 013.368-11.4l5.21-5.444c1.892-1.976 2.177-5.125.38-7.184a5.295 5.295 0 00-7.81-.19l-1.178 1.23c-1.537 1.606-4.268.816-4.689-1.356l-.833-4.298c-1.58-8.16-8.245-13.838-14.283-12.17-6.038 1.666-8.77 9.939-5.855 17.73l1.536 4.104c.776 2.075-1.147 4.147-3.301 3.561L53.93 43.5c-2.525-.689-5.341.384-6.431 2.74-1.39 3.004.293 6.386 3.373 7.224l7.592 2.065c4.084 1.113 7.374 4.1 8.845 8.03l2.506 6.697c.849 2.27-1.253 4.54-3.61 3.898l-12.807-3.486c-2.526-.688-5.34.384-6.431 2.74-1.391 3.004.293 6.386 3.373 7.224l20.803 5.661c3.266.889 5.9 3.28 7.075 6.423l1.326 3.545c.947 2.53-1.397 5.058-4.024 4.343l-3.077-.838c-2.526-.687-5.341.385-6.432 2.742-1.39 3.003.295 6.384 3.374 7.221l8.821 2.726c7.663 2.368 13.59 8.416 15.746 16.066l-.002-.007c-2.156-7.646-.25-15.854 5.06-21.804l5.926-6.638c1.89-1.976 2.178-5.124.379-7.184a5.295 5.295 0 00-7.81-.19l-2.387 2.494c-1.874 1.958-5.201.997-5.715-1.653l-.718-3.713a10.334 10.334 0 012.693-9.12l14.837-15.503c2.198-2.293 1.87-6.048-.89-7.906zm0 0" fill="#96cd82"/><path d="M62.933 18.479c-6.038 1.667-8.77 9.939-5.855 17.73l1.536 4.104c.776 2.075-1.147 4.15-3.301 3.562L53.93 43.5c-2.525-.687-5.341.384-6.431 2.74-1.39 3.006.293 6.386 3.373 7.224l7.592 2.067a13.095 13.095 0 018.845 8.028l2.506 6.698c.849 2.27-1.253 4.538-3.61 3.897l-12.807-3.486c-2.526-.688-5.34.384-6.431 2.74-1.391 3.004.293 6.386 3.373 7.224l20.803 5.661c3.266.89 5.9 3.28 7.075 6.424l1.326 3.544c.947 2.53-1.397 5.058-4.024 4.343l-3.077-.838c-2.526-.686-5.341.385-6.432 2.742-1.39 3.003.295 6.385 3.374 7.222l8.821 2.725c7.658 2.368 13.583 8.41 15.742 16.057zm0 0" fill="#7dbe81"/><path d="M97.156 130.205l-2.726 9.7 3.503 12.428c.979-1.9 2.374-3.526 4.124-4.741zm0 0" fill="#b4e6a0"/><path d="M90.774 182.065a2.6 2.6 0 01-1.83-3.205l17.614-62.69c.39-1.384 1.84-2.196 3.24-1.812 1.398.386 2.218 1.82 1.829 3.205l-17.615 62.69c-.39 1.386-1.838 2.196-3.238 1.812zm0 0" fill="#cdf5a0"/><path d="M151.175 79.002c-1.093-2.356-3.908-3.425-6.434-2.735l-12.803 3.494c-2.358.645-4.463-1.622-3.616-3.891l2.5-6.7c1.468-3.93 4.758-6.922 8.838-8.037l7.304-1.994c2.652-.725 4.541-3.273 4.078-5.956-.533-3.087-3.612-4.973-6.587-4.159l-1.65.451c-2.154.59-4.08-1.484-3.305-3.56l1.532-4.105c2.908-7.794.17-16.063-5.87-17.726-6.04-1.66-12.7 4.022-14.274 12.183l-.829 4.298c-.419 2.173-3.147 2.965-4.687 1.36l-.985-1.027c-1.803-1.881-4.773-2.404-6.938-.944a5.176 5.176 0 00-.885 7.908l5.42 5.654a12.918 12.918 0 013.377 11.397l-1.353 7.017c-.458 2.378-3.443 3.244-5.126 1.487l-9.141-9.535c-1.804-1.88-4.774-2.403-6.939-.943a5.176 5.176 0 00-.884 7.909l14.85 15.489a10.34 10.34 0 012.702 9.118l-.716 3.713c-.513 2.65-3.839 3.615-5.714 1.657l-2.196-2.291c-1.804-1.88-4.773-2.402-6.938-.945a5.178 5.178 0 00-.885 7.91l6.127 6.847c5.322 5.946 7.238 14.155 5.088 21.809v-.008c2.15-7.649 8.067-13.7 15.722-16.075l8.54-2.652c2.652-.723 4.542-3.272 4.078-5.956-.534-3.087-3.613-4.97-6.588-4.156l-3.345.913c-2.628.718-4.973-1.809-4.03-4.338l1.325-3.547a10.47 10.47 0 017.07-6.43l20.798-5.677c3.08-.841 4.76-4.223 3.369-7.227zm0 0" fill="#96cd82"/><path d="M135.162 24.086c-6.04-1.663-12.7 4.02-14.274 12.18l-.829 4.3c-.419 2.173-3.147 2.965-4.687 1.36l-.985-1.028c-1.803-1.88-4.773-2.404-6.938-.943a5.176 5.176 0 00-.884 7.91l5.42 5.652a12.918 12.918 0 013.376 11.397l-1.353 7.016c-.457 2.378-3.442 3.244-5.126 1.488l-9.141-9.536c-1.804-1.88-4.774-2.403-6.938-.943a5.176 5.176 0 00-.885 7.909l14.85 15.489a10.34 10.34 0 012.702 9.118l-.716 3.714c-.511 2.648-3.839 3.614-5.714 1.657l-2.196-2.29c-1.804-1.882-4.773-2.404-6.937-.945-2.759 1.861-3.084 5.616-.885 7.908l6.126 6.848c5.32 5.943 7.236 14.147 5.09 21.797zm0 0" fill="#7dbe81"/></svg>