<svg height="512" viewBox="0 0 497 497" width="512" xmlns="http://www.w3.org/2000/svg"><path d="M186.812 215.413c19.63-18.33 29.183-11.78 48.814-30.111 19.63-18.33 12.04-26.011 31.67-44.341 19.63-18.33 27.219-10.65 46.848-28.978 19.628-18.33 12.04-26.01 31.669-44.341l30.002 30.365.886 20.977 25.593 5.822 30.002 30.364c-19.629 18.33-12.04 26.01-31.67 44.34-19.628 18.33-27.217 10.65-46.847 28.979-19.63 18.33-12.04 26.01-31.67 44.34-17.16 16.024-25.118 12.173-39.96 23.19l-65.747-5.898z" fill="#d82e3d"/><path d="M402.294 124.805l-.087-.02 18.687 18.913c-19.629 18.33-12.04 26.01-31.67 44.34-19.628 18.33-27.217 10.65-46.847 28.979-19.63 18.33-12.04 26.011-31.67 44.341-17.159 16.024-25.118 12.172-39.96 23.19l-58.635-5.261 4.291 10.833 65.746 5.9c14.842-11.02 22.802-7.168 39.96-23.19 19.63-18.33 12.04-26.012 31.67-44.342 19.63-18.33 27.219-10.649 46.848-28.978 19.63-18.33 12.04-26.01 31.67-44.34z" fill="#c10a54"/><path d="M225.145 239.25c15.18-11.504 23.124-7.373 40.484-23.583 19.63-18.33 12.04-26.012 31.67-44.342 19.63-18.329 27.218-10.648 46.848-28.978 19.629-18.33 12.04-26.01 31.669-44.34l26.479 26.798c-19.63 18.33-12.04 26.01-31.67 44.34-19.63 18.33-27.218 10.65-46.847 28.979-19.63 18.33-12.04 26.011-31.67 44.341-19.631 18.33-27.22 10.65-46.851 28.981h-28.854z" fill="#fedca9"/><path d="M328.154 350.862c-19.63-18.33-12.04-26.012-31.672-44.343s-27.22-10.65-46.85-28.98c-19.63-18.33-12.04-26.012-31.67-44.342-19.63-18.33-27.219-10.649-46.848-28.978-19.63-18.33-12.04-26.01-31.67-44.34l-30.002 30.364-5.093 24.11-21.386 2.69-30.001 30.364c19.629 18.33 12.04 26.01 31.67 44.34 19.628 18.33 27.217 10.65 46.847 28.979 19.63 18.33 12.04 26.011 31.67 44.341 19.63 18.33 27.22 10.65 46.85 28.981s12.041 26.012 31.672 44.343l30.003-30.365 7.083-21.48 19.395-5.318z" fill="#e5646e"/><path d="M296.482 306.52c-19.63-18.331-27.22-10.65-46.85-28.982-19.63-18.33-12.04-26.01-31.67-44.34-19.63-18.33-27.219-10.65-46.848-28.979-19.63-18.33-12.04-26.01-31.67-44.34l-12.817 12.971c19.33 18.17 11.89 25.865 31.44 44.12 19.63 18.33 27.218 10.65 46.848 28.979 19.63 18.33 12.04 26.011 31.67 44.341 19.63 18.33 27.22 10.65 46.85 28.981s12.041 26.012 31.672 44.343l-17.569 17.782.614-.169 30.002-30.365c-19.63-18.331-12.04-26.012-31.672-44.343z" fill="#cf5668"/><path d="M298.152 381.227c-19.631-18.33-12.041-26.012-31.672-44.343s-27.22-10.65-46.85-28.98c-19.63-18.33-12.04-26.012-31.67-44.342-19.63-18.33-27.22-10.649-46.848-28.978-19.63-18.33-12.04-26.01-31.67-44.34l-26.479 26.798c19.63 18.33 12.04 26.01 31.67 44.34 19.63 18.33 27.218 10.649 46.847 28.978 19.63 18.33 12.04 26.011 31.67 44.342 19.631 18.33 27.22 10.65 46.851 28.98s12.041 26.013 31.672 44.343z" fill="#fedca9"/></svg>