<svg viewBox="0 0 512 512" xmlns="http://www.w3.org/2000/svg"><path d="M252.878 68.855c-108.199 0-195.93 86.296-195.93 192.75 0 106.453 87.731 192.748 195.93 192.748 108.211 0 195.93-86.295 195.93-192.748 0-106.454-87.719-192.75-195.93-192.75zm0 267.968c-42.224 0-76.46-33.68-76.46-75.218 0-41.543 34.236-75.219 76.46-75.219 42.234 0 76.46 33.68 76.46 75.219 0 41.538-34.226 75.218-76.46 75.218zm0 0" fill="#f0b173"/><path d="M252.878 68.855c-4.943 0-9.843.185-14.692.538 101.346 7.395 181.231 90.621 181.231 192.212 0 101.589-79.885 184.816-181.231 192.211 4.849.352 9.749.537 14.692.537 108.211 0 195.93-86.295 195.93-192.748 0-106.454-87.719-192.75-195.93-192.75zm0 0" fill="#db9b5c"/></svg>