<svg width="200" height="200" xmlns="http://www.w3.org/2000/svg"><path d="M180.91 125.607a5.764 5.764 0 00-3.766-7.52 1017.73 1017.73 0 01-3.472-1.033 26.989 26.989 0 00-10.219-1.007c-16.794 1.568-37.73 1.015-57.809-6.375-43.429-15.98-39.36-60.332-37.69-71.057l-10.779 5.593c.083 4.56-.552 9.198-2.74 12.6-10.839 16.863-15.972 61.185 40.5 81.965 22.219 8.175 54.078 13.367 84.151-10.619a5.866 5.866 0 001.824-2.547zm0 0" fill="#ffe17d"/><path d="M180.91 125.607a5.737 5.737 0 00-.31-4.66c-13.518 9.705-27.298 13.78-40.326 14.57-18.393 1.119-36.563-4.738-51.477-15.56a98.58 98.58 0 01-1.634-1.21c-7.78-5.893-29.843-26.28-19.92-61.543-.602-8.267.176-15.164.71-18.588l-10.779 5.593c.084 4.558-.551 9.197-2.738 12.6-10.84 16.862-15.973 61.184 40.498 81.964 7.636 2.81 16.419 5.236 25.869 6.263 0 .004.004.008.006.011 18.046 1.99 38.538-1.15 58.277-16.893a5.866 5.866 0 001.824-2.547zm0 0" fill="#ffd164"/><path d="M177.144 118.088c-.587-.173-1.205-.358-1.84-.546l1.723 12.204a92.714 92.714 0 002.059-1.592 5.866 5.866 0 001.824-2.547 5.764 5.764 0 00-3.766-7.52zm0 0" fill="#c48d66"/><path d="M152.682 152.864c-.97-.64-2.03-1.343-3.141-2.08a28.023 28.023 0 00-9.865-4.098c-17.186-3.531-37.853-10.427-55.598-23.867-38.373-29.066-20.883-71.971-15.97-82.139a10.315 10.315 0 001.032-4.89l-.326-8.344a2.555 2.555 0 00-2.903-2.43l-5.794.8a2.54 2.54 0 00-2.202 2.406c-.233 5.509-1.534 20.32-8.773 26.464-15.9 13.499-34.44 56.05 15.46 93.846 19.633 14.872 49.765 29.695 86.963 14.938a6.079 6.079 0 002.587-1.98 5.997 5.997 0 00-1.47-8.626zm0 0" fill="#ffe17d"/><path d="M155.257 156.758c-35.214 11.945-63.805-2.31-82.696-16.62C29.52 107.537 37.275 71.47 50.413 53.456c-.403.44-.824.854-1.271 1.232-15.9 13.498-34.44 56.049 15.46 93.845 19.633 14.872 49.764 29.695 86.962 14.938a6.08 6.08 0 002.589-1.981 5.966 5.966 0 001.104-4.73zm0 0" fill="#ffd164"/><path d="M68.978 37.944c.123-.708.19-1.43.163-2.155l-.327-8.343a2.556 2.556 0 00-2.903-2.432l-5.795.8a2.54 2.54 0 00-2.201 2.408c-.095 2.265-.38 6.106-1.176 10.267zm0 0" fill="#d29b6e"/><path d="M152.681 152.864l-1.662-1.101-1.984 12.668c.84-.307 1.68-.624 2.53-.96a6.087 6.087 0 002.586-1.98 5.997 5.997 0 00-1.47-8.627zm0 0" fill="#c48d66"/></svg>