<svg id="Capa_1" enable-background="new 0 0 512 512" height="512" viewBox="0 0 512 512" width="512" xmlns="http://www.w3.org/2000/svg"><g><path d="m507.008 50.545h-58.548c-59.724 0-108.406 47.279-110.659 106.452l84.102-58.988c5.823-4.081 13.852-2.674 17.937 3.148s2.675 13.853-3.148 17.937l-76.547 53.689h41.114c61.16 0 110.74-49.58 110.74-110.74v-6.506c.001-2.758-2.234-4.992-4.991-4.992z" fill="#78d0b1"/><path d="m507.008 50.545h-36.585c-3.501 43.016-31.586 79.079-70.184 94.117l-40.094 28.121h41.114c61.16 0 110.74-49.58 110.74-110.74v-6.506c.001-2.758-2.234-4.992-4.991-4.992z" fill="#66b49d"/><path d="m236.61 213.981-55.751-39.103c-5.823-4.084-7.232-12.115-3.148-17.937 4.082-5.823 12.116-7.231 17.937-3.148l63.102 44.259c-3.582-43.977-40.407-78.55-85.307-78.55h-44.119c-2.757 0-4.991 2.235-4.991 4.992v3.895c0 47.272 38.321 85.593 85.593 85.593h26.684z" fill="#78d0b1"/><path d="m216.294 168.273 42.456 29.778c-3.139-38.538-31.807-69.854-69.066-77.011 13.477 12.21 23.046 28.654 26.61 47.233z" fill="#66b49d"/><path d="m168.718 193.377c-5.553 0-10.982-.529-16.24-1.539 15.188 13.76 35.339 22.142 57.448 22.142h26.685l-29.376-20.604h-38.517z" fill="#66b49d"/><path d="m439.84 101.157c-4.085-5.822-12.114-7.23-17.937-3.148l-100.798 70.699c-17.955 12.593-30.254 31.453-34.77 52.488-5.338-6.238-11.486-11.851-18.353-16.668l-72.335-50.735c-5.821-4.083-13.854-2.675-17.937 3.148-4.085 5.822-2.675 13.853 3.148 17.937l72.335 50.735c19.552 13.713 31.225 36.159 31.225 60.041v24.006c0 36.867-29.994 66.861-66.861 66.861h-.851c.561 3.53-25.166 7.14-25.166 10.811 0 5.117 25.454 10.115 24.378 14.944h1.64c49.375 0 89.849-38.837 92.479-87.567.089-.612.136-1.238.136-1.875v-73.585c0-19.672 9.615-38.16 25.72-49.456l100.798-70.699c5.824-4.084 7.234-12.115 3.149-17.937z" fill="#d3f1e7"/><path d="m190.428 442.662c16.74-13.588 27.131-33.362 27.131-55.331 0-31.429-21.266-58.366-51.966-69.125-28.797 7.116-86.784 18.8-108.538 39.587 13.96 8.618 115.915 75.263 133.373 84.869z" fill="#c8ea73"/><path d="m142.45 406.624-15.308-15.308c-11.79-11.79-24.819-22.057-38.78-30.674-.938.896-57.705 35.765-76.557 54.463 23.601 27.176 78.265 46.35 123.929 46.35 21.214 0 40.301-7.11 54.694-18.793-17.458-9.606-33.635-21.695-47.978-36.038z" fill="#d8f1a0"/><path d="m135.734 313.207c10.589 0 20.648 1.772 29.859 4.999-30.039 7.423-57.773 22.915-80.017 45.159l-12.294 12.294c-17.586 17.586-38.602 30.952-61.477 39.446-7.45-8.577-11.805-17.952-11.805-27.774 0-40.937 75.656-74.124 135.734-74.124z" fill="#e2f4b4"/></g></svg>