<svg height="512" viewBox="0 0 58 58" width="512" xmlns="http://www.w3.org/2000/svg"><path d="M26.238 20.51c-4.234.474-7.475 3.877-7.546 7.922-.008.317.003.633.037.948 0 .936-.166 1.867-.49 2.756-.496 1.28-1.424 2.692-4.572 3.418-.228.035-.446.113-.664.181-3.926 1.234-6.377 4.978-5.79 8.84.031.208.063.414.12.617.965 4.05 5.054 6.665 9.39 6.006l.676-.103c15.25-3.543 18.502-16 18.109-22.777-.04-.272-.034-.545-.063-.803-.223-2.105-1.32-4.026-3.046-5.34-1.727-1.314-3.943-1.913-6.161-1.666z" fill="#2d2d2d"/><path d="M35.508 28.317c.394 6.777-2.86 19.235-18.118 22.78l-.676.102c-4.33.653-8.41-1.957-9.379-5.996a5.244 5.244 0 01-.122-.628c.042.281 1.129 5.854 10.176 4 8.934-1.86 14.763-7.789 18.12-20.258z"/><path d="M21.98 29.809a10.268 10.268 0 01-.564 3.675c-.57 1.599-1.814 3.805-5.944 4.79l-.176.027a2.127 2.127 0 01-1.908-.669 1.906 1.906 0 01-.381-1.902c.218-.069.439-.128.664-.182 3.148-.725 4.077-2.132 4.574-3.418a8.078 8.078 0 00.479-2.75 7.088 7.088 0 01-.038-.946 2.197 2.197 0 012.075-.212 1.967 1.967 0 011.218 1.587z" fill="#f9eab0"/><path d="M34.254 5.557c-4.256-.167-7.972 2.711-8.65 6.7a6.77 6.77 0 00-.105.942 8.074 8.074 0 01-.9 2.651c-.682 1.192-1.812 2.448-5.033 2.692-.232 0-.458.045-.684.08-4.066.63-7.052 3.962-7.052 7.87 0 .21 0 .42.026.63.346 4.147 3.995 7.346 8.382 7.346h.683c15.608-1.212 20.695-13.04 21.326-19.799 0-.274.047-.543.058-.802.095-2.115-.7-4.179-2.21-5.738-1.51-1.558-3.611-2.484-5.841-2.572z" fill="#aaba4f"/><path d="M42.247 14.67c-.631 6.758-5.718 18.586-21.336 19.798h-.683c-4.38-.005-8.022-3.197-8.372-7.338-.026-.209-.026-.418-.026-.638 0 .285.236 5.957 9.459 5.483 9.113-.498 15.766-5.483 20.958-17.306z" fill="#97ae24"/><path d="M28.647 14.111a10.268 10.268 0 01-1.11 3.55c-.803 1.494-2.364 3.488-6.595 3.842h-.178a2.131 2.131 0 01-1.786-.947 1.905 1.905 0 01-.09-1.939c.226-.035.452-.06.683-.08 3.22-.244 4.35-1.495 5.034-2.692.45-.829.75-1.723.888-2.646.014-.316.049-.63.106-.942a2.2 2.2 0 012.082.101 1.97 1.97 0 01.966 1.753z" fill="#f9eab0"/><g fill="none"><path d="M40.095 17.799c-4.115 1.102-6.81 4.952-6.275 8.962a6.8 6.8 0 00.179.931c.14.926.115 1.872-.072 2.8-.3 1.34-1.006 2.874-4.01 4.063-.221.068-.424.178-.63.278-3.696 1.808-5.56 5.876-4.401 9.608.062.2.124.4.211.592 1.56 3.86 5.994 5.832 10.184 4.532l.652-.203c14.547-5.784 15.899-18.589 14.497-25.23-.081-.263-.116-.534-.183-.785-.536-2.048-1.907-3.783-3.811-4.824-1.905-1.04-4.186-1.301-6.341-.724z" fill="#4fba6f"/><path d="M50.43 24.131c1.402 6.642.05 19.447-14.507 25.234l-.652.203c-4.184 1.294-8.609-.675-10.17-4.525a5.102 5.102 0 01-.215-.602c.084.271 1.992 5.619 10.66 2.432 8.555-3.178 13.43-9.91 14.884-22.742z" fill="#24ae5f"/><path d="M37.275 27.63a10.242 10.242 0 01-.006 3.718c-.325 1.667-1.224 4.034-5.16 5.626l-.17.053a2.13 2.13 0 01-1.986-.375 1.905 1.905 0 01-.662-1.825c.206-.1.414-.191.63-.279 3.003-1.188 3.711-2.718 4.01-4.063a8.065 8.065 0 00.063-2.791 6.992 6.992 0 01-.18-.931 2.2 2.2 0 012.02-.52c.71.178 1.259.706 1.441 1.387z" fill="#f9eab0"/></g></svg>