<svg width="200" height="200" xmlns="http://www.w3.org/2000/svg"><path d="M102.304 44.131a34.894 34.894 0 00-1.743 2.517C93.76 57.47 82.624 65.744 69.348 69.83L58.46 73.183c-13.277 4.088-24.413 12.36-31.213 23.184-7.17 11.413-8.693 24.146-5.388 35.718 8.287 15.441 22.374 27.73 39.592 35.042 24.183 6.189 50.667-.547 67.731-17.082a60.004 60.004 0 009.082-11.17l18.971-30.2 6.565-10.45 9.028-14.37c11.33-18.036 3.991-40.437-16.39-50.031l-2.78-1.31c-17.865-8.411-40.157-3.16-51.354 11.617zm0 0" fill="#af6060"/><path d="M102.304 44.13a35.19 35.19 0 00-1.742 2.519c-6.8 10.823-17.939 19.095-31.215 23.183l-10.886 3.351c-13.277 4.088-24.412 12.36-31.213 23.184-7.17 11.414-8.693 24.148-5.388 35.72 6.775 12.619 17.423 23.134 30.487 30.545 22.18 5.36 46.164-.069 62.968-13.895 5.026-4.133 9.411-9.016 12.911-14.588l18.972-30.198 6.564-10.451 9.027-14.37C173.425 62.197 167.61 41.421 150 31c-17.156-6.147-37.25-.654-47.695 13.13zm0 0" fill="#ffbeb5"/><path d="M31.75 97.862c-12.272 19.532-4.297 43.878 17.777 54.27 26.767 12.6 60.646 3.582 75.525-20.102l34.563-55.02c8.598-13.686 3.01-30.744-12.457-38.026l-2.777-1.307c-13.934-6.561-31.572-1.865-39.317 10.465-8.052 12.817-21.147 22.544-36.87 27.383l-10.885 3.352c-10.9 3.357-19.977 10.097-25.56 18.985zm0 0" fill="#f9a29b"/><path d="M71.788 74.314a74.948 74.948 0 01-3.594 1.213l-10.885 3.35c-10.9 3.356-19.977 10.099-25.559 18.985-10.861 17.288-5.86 38.342 10.735 50.16 12.57 1.694 35.877-5.506 36.367-23.208.363-13.134 17.87-15.443 19.855-20.688.452-1.195 4.375-11.822 9.72-9.322 4.546 2.124 2.55-7.867-2.08-8.812-14.377-2.936-10.418-18.99-17.982-15.798-3.135 1.323-12.147 4.784-16.577 4.12zm67.249-5.355c.521-1.658-2.123-4.769-3.76-7.186-2.506-3.698-1.609-9.462.309-11.68 4.137-4.786 6.525-8.989 5.086-13.97l6.486 2.862c15.467 7.281 21.054 24.338 12.457 38.025l-6.167 9.683c-1.102-.539-1.97-4.817-5.493-6.86-9.077-5.266-10.127-7.024-8.918-10.874zm-2.38-33.73c4.994 7.962-4.05 12.81-4.42 16.332-2.559 24.374-21.172 17.691-21.52 24.32-.98 18.816-21.497-3.682-13.716-17.571a60.155 60.155 0 008.063-10.168c6.365-10.133 19.412-15.104 31.593-12.914zm-53.11 88.566c2.283-9.284 16.434-21.642 22.526-7.745 1.803 4.116 3.12 8.05 12.535 8.527 3.602.184 5.328 2.545 5.802 6.151.51 3.887-3.193 5.727-3.232 6.64-15.686 18.874-44.639 25.824-68.753 16.03 11.711-4.182 25.84-8.122 31.122-29.603zm30.396-38.199c.65-6.394 8.996-9.951 17.816-10.528 8.568-.561 16.216 7.4 19.374 15.444l-23.805 37.839c.41-1.904-.722-7.312-11.779-7.12-6.328.11-13.873-16.623-10.342-21.66 2.731-3.893 6.777.532 9.16-3.835 3.229-5.917-1.018-4.3-.424-10.14z" fill="#d75e72"/><path d="M116.655 67.926c-4.533 7.215-4.241 14.93.651 17.234 4.89 2.303 12.53-1.679 17.063-8.893 4.531-7.215 4.242-14.93-.651-17.234-4.892-2.304-12.53 1.679-17.063 8.893zm0 0" fill="#fbf1d1"/></svg>