<svg width="200" height="200" xmlns="http://www.w3.org/2000/svg"><path d="M145.395 36.261s-18.4-2.786-21.75 14.827c0 0-14.759 9.1-9.903 25.562 0 0 6.203 6.456 16.417 2.686 0 0 17.312 7.66 23.812-10.768 3.916-11.098 12.848-14.998 19.332-16.347 3.622-.753 5.048-5.069 2.633-7.824-5.362-6.116-15.303-13.183-30.541-8.136z" fill="#3bbc56"/><path d="M120.452 77.645c-5.066-17.168 10.328-26.658 10.328-26.658 1.834-9.643 7.993-13.423 13.43-14.839-4.117-.261-17.73.035-20.564 14.94 0 0-14.76 9.1-9.904 25.562 0 0 4.124 4.288 11.183 3.832-2.889-1.19-4.473-2.837-4.473-2.837z" fill="#30aa44"/><path d="M59.792 20.86s21.649.26 22.058 21.095c0 0 15.157 13.212 6.377 31.178 0 0-8.373 6.246-19.354 0 0 0-21.354 5.536-25.219-16.825-2.326-13.468-11.81-19.62-18.986-22.383-4.011-1.545-4.803-6.764-1.496-9.471 7.343-6.008 20.125-12.247 36.62-3.594z" fill="#3bbc56"/><path d="M50.843 55.888c-2.378-13.759-12.067-20.043-19.395-22.866-4.099-1.577-4.908-6.91-1.527-9.677 3.146-2.571 7.268-5.187 12.24-6.704-8.074.438-14.533 4.167-18.989 7.813-3.307 2.707-2.515 7.926 1.496 9.471 7.175 2.763 16.66 8.915 18.987 22.383 3.22 18.63 18.575 17.897 23.612 17.134-6.439-.93-14.22-4.794-16.424-17.554z" fill="#30aa44"/><g fill="#83cc8e"><path d="M103.62 94.245c-1.267-.59-1.808-2.076-1.207-3.32.163-.337 4.073-8.359 11.864-17.65 7.226-8.62 19.288-19.962 35.715-25.054 1.338-.415 2.765.314 3.188 1.627.422 1.314-.32 2.715-1.658 3.13-15.192 4.71-26.458 15.304-33.235 23.363-7.424 8.829-11.246 16.644-11.283 16.722-.602 1.242-2.116 1.773-3.384 1.182zm-9.758-1.357c-.048-.161-2.955-9.869-9.79-21.43C77.8 60.85 66.834 46.45 50.2 38.07a2.472 2.472 0 01-1.1-3.357c.64-1.226 2.171-1.71 3.42-1.08 17.778 8.954 29.4 24.215 36.018 35.441 7.14 12.113 10.085 22.018 10.207 22.434.388 1.323-.39 2.705-1.739 3.086-1.344.38-2.755-.38-3.144-1.707z"/><path d="M99.534 94.83c-1.4-.093-2.459-1.282-2.364-2.657 1.812-26.415 6.248-50.099 13.183-70.393.446-1.306 1.887-2.01 3.217-1.572 1.33.438 2.047 1.852 1.6 3.158-6.797 19.89-11.147 43.153-12.93 69.142-.093 1.35-1.275 2.41-2.706 2.321z"/></g><path d="M136.57 130.078c0-22.466-19.094-40.557-42.218-39.486-20.728.962-37.477 17.55-38.285 37.907-.691 17.452 10.15 32.505 25.641 38.42 4.806 1.834 8.766 5.32 11.072 9.846l2.18 4.28c.554 1.087 2.132 1.087 2.685 0 2.703-5.308 4.824-10.984 12.942-14.009 15.187-5.658 25.982-20.066 25.982-36.958z" fill="#c4356f"/><path d="M99.556 176.765c-2.305-4.525-6.268-8.012-11.072-9.846-15.493-5.915-26.334-20.968-25.641-38.42.788-19.887 16.793-36.176 36.86-37.812a41.84 41.84 0 00-5.35-.095c-20.729.962-37.478 17.55-38.285 37.907-.692 17.452 10.148 32.505 25.641 38.42 4.805 1.834 8.765 5.32 11.073 9.846l2.178 4.28c.554 1.087 2.132 1.087 2.685 0 .68-1.336 1.324-2.695 2.037-4.03l-.126-.25z" fill="#af2b67"/></svg>