<svg viewBox="0 0 500 500" xmlns="http://www.w3.org/2000/svg"><path d="M297.44 318.459c0-4.12.85-13.09-1.003-16.252-2.666-4.55-8.015-1.057-10.243-7.836-1.343-4.086 3.135-4.764 2.256-8.02-.7-2.597-5.45-1.307-5.943-5.975-.535-5.047 3.106-6.695 2.391-11.49-.276-1.87-3.606-3.022-4.65-3.988-1.366-1.267-1.769-5.657-1.449-7.836.902-6.144 6.927-2.344 7.91-6.805.353-1.599.809-4.448.274-6.027-.963-2.845-7.703-7.134-2.383-10.097.606-.338 1.335-.786 1.997-.903 1.2-.21 2.797.306 3.944-.207 7.252-3.244.675-13.903 4.374-18.688 3.175-4.102 9.953.182 12.233-3.767 4.652-8.06 1.796-13.975 3.556-22.308.949-4.491 6.31-2.326 8.702-2.326.207 0 2.675-.35 2.814-.727.74-2 .728-3.957 1.93-5.52.428-.557-.1-4.09-.1-4.934 0-2.873.857-5.716 2.643-7.543 2.736-2.797 6.366 1.105 8.742-1.346 3.142-3.242 1.274-10.633 4.038-14.208 3.01-3.892 6.323.14 9.305-1.142 3.6-1.549 2.854-6.287 4.313-9.66 1.957-4.527 5.85-9.174 9.864-10.476 3.53-1.147 4.775 5.864 8.379 4.706 2.382-.766 4.044-3.984 6.336-4.728 1.418-.46 3.646-1.77 5.146-1.288 2.137.684 2.552 3.012 5.41 2.243 6.949-1.868 13.466-6.08 20.992-4.654 3.655.692-1.006 8.667.126 9.618 1.014.852 2.663.278 3.79.421 3.297.424 8.186 1.914 9.836 6.145.693 1.775-5.06 2.943-6.07 3.9-1.245 1.179 1.577 2.647 1.868 2.77 2.6 1.109 5.578-1.084 7.414 2.053 3.33 5.692-3.875 8.94-3.016 13.344.457 2.344 5.234 2.407 5.943 3.906 1.762 3.721-.2 12.828-2.112 15.729-1.428 2.168-4.542 3.575-5.044 6.644-.523 3.194 4.798 8.256 2.322 12.448-2.36 3.998-7.458 1.745-9.832 4.622-1.759 2.131-.03 8.238-1.113 10.99-1.227 3.117-5.769.74-7.445 3.434-3.758 6.04-2.47 13.712-6.779 19.777-2.182 3.072-4.78 6.194-8.102 6.823-1.267.24-5.485-2.235-6.27-1.244-2.032 2.566-.918 7.848-1.305 10.488-.259 1.76-1.482 3.516-2.34 4.897-1.78 2.858-4.69-1.22-6.515-.06-2.879 1.833-3.374 8.122-6.53 10.137-1.158.738-2.796 2.044-4.196 1.482-.508-.204-2.275-1.994-2.944-1.149-.605.762-2.55 3.277-2.766 4.37-.085.427-.504 3.343-.771 3.532-1.186.844-5.555.066-6.842-.761-.92-.593-1.675-2.671-2.994-1.838-2.998 1.893-4.931 6.191-5.46 10.219-.183 1.376.107 5.133-.652 6.202-2.757 3.888-8.11-1.074-10.564.476-3.708 2.34-1.183 9.753-4.002 12.6-2.46 2.488-5.746-1.08-8.536-.193-3.938 1.254-2.778 7.917-5.829 9.77-4.084 2.481-11.112.25-15.048.25z" fill="#064700"/><path d="M274.306 295.002c2.548-2.962 7.586-9.963 10.653-11.028 4.412-1.533 5.46 4.465 10.987 1.044 3.333-2.061 1.067-5.467 3.608-7.236 2.026-1.41 4.077 2.614 7.259-.42 3.443-3.279 2.278-6.837 5.672-9.818 1.322-1.163 4.031.179 5.254.164 1.604-.02 4.56-2.913 5.716-4.687 3.26-5.005-2.704-6.2-.535-10.048.778-1.379 2.267-3.724 3.564-4.51 2.337-1.419 9.03-.108 7.673-5.706-.154-.637-.315-1.434-.64-1.95-.588-.933-1.865-1.604-2.236-2.72-2.341-7.06 8.194-10.434 8.935-16.284.634-5.018-6.08-6.358-5.005-10.683 2.196-8.826 7.567-11.216 11.664-18.353 2.21-3.847-2.345-5.786-3.779-7.345-.124-.135-1.386-1.995-1.237-2.356.793-1.92 2.01-3.32 2.256-5.228.088-.678 2.59-2.874 3.111-3.48 1.777-2.065 3.022-4.667 3.08-7.145.09-3.794-4.5-3.355-4.409-6.667.121-4.378 5.812-8.473 6.366-12.844.603-4.76-3.877-4.021-4.873-6.887-1.201-3.46 2.177-6.38 3.388-9.755 1.627-4.53 2.165-10.409.565-13.96-1.408-3.127-6.491 1.102-7.935-2.08-.956-2.103.038-5.5-.876-7.529-.565-1.255-1.092-3.649-2.289-4.28-1.704-.902-3.393.501-4.63-1.914-3.011-5.873-4.316-13.148-9.71-17.03-2.62-1.885-4.757 6.886-6.024 6.832-1.134-.049-1.768-1.536-2.532-2.168-2.24-1.844-6.092-3.96-9.698-1.995-1.514.824 1.214 5.414 1.227 6.76.018 1.66-2.582.875-2.833.774-2.245-.898-2.674-4.416-5.715-3.357-5.518 1.92-3.205 8.952-6.444 11.557-1.724 1.387-4.628-1.681-5.98-1.066-3.357 1.527-7.813 9.351-8.461 12.683-.484 2.49.513 5.53-1.084 8.064-1.662 2.637-7.984 2.807-9.091 7.435-1.058 4.411 3.392 6.116 3.037 9.731-.264 2.678-5.077 5.94-6.13 8.625-1.192 3.04 3.001 4.293 2.34 7.321-1.482 6.793-7 11.467-8.166 18.636-.591 3.63-.964 7.569.638 10.185.611 1 4.671 1.97 4.529 3.193-.368 3.17-4.303 6.24-5.703 8.39-.934 1.434-1.287 3.493-1.626 5.046-.7 3.215 3.567 2.18 3.943 4.204.593 3.193-3 8.037-2.353 11.543.237 1.286.412 3.292 1.6 3.8.43.185 2.597.05 2.475 1.094-.109.942-.497 4.018-1.043 4.944-.214.362-1.766 2.732-1.723 3.042.19 1.38 3.29 3.668 4.573 3.913.919.174 2.656-.829 2.932.63.627 3.315-.872 7.665-3.045 10.906-.742 1.107-3.24 3.619-3.446 4.882-.751 4.592 5.527 4.515 6.04 7.23.777 4.098-5.322 7.78-5.393 11.665-.063 3.39 4.114 2.969 5.238 5.426 1.586 3.468-3.23 7.501-2.547 10.822.914 4.446 6.508 7.423 8.868 9.988z" fill="#053101"/><path d="M242.076 413.803c.617.997 18.354 29.934 20.292 27.837 1.002-1.084.449-33.071 5.45-49.709 2.683-8.926 11.145-34.331 15.332-42.64 8.339-16.551 20.748-40.653 30.912-55.392 10.392-15.067 85.212-135.987 81.737-138.434-.368-.259-75.123 109.226-96.765 138.787-7.317 9.994-14.795 20.322-20.988 31.569-7.446 13.523-26.663 54.038-31.919 68.168-.739 1.987-5.76 17.057-4.051 19.814z" fill="#ff0051"/><path d="M240.58 411.496c.348 1.107 9.795 2.787 10.888.457.565-1.204.812-6.274 3.632-24.76 1.514-9.918 6.287-38.147 8.649-47.38 4.704-18.389 11.703-45.17 17.437-61.546 5.862-16.742 48.067-151.1 46.106-153.818-.207-.288-42.375 121.364-54.583 154.21-4.127 11.104-8.345 22.58-11.839 35.076-4.2 15.027-15.04 60.043-18.005 75.744-.416 2.208-3.25 18.952-2.285 22.017z" fill="#ff0051"/><path d="M209.805 307.163c-.115-4.119-1.212-13.054.552-16.28 2.538-4.641 7.982-1.337 10.02-8.19 1.23-4.131-3.264-4.651-2.477-7.938.628-2.62 5.411-1.497 5.775-6.18.395-5.063-3.29-6.583-2.709-11.4.225-1.879 3.52-3.148 4.537-4.15 1.33-1.315 1.611-5.717 1.231-7.883-1.072-6.11-6.989-2.1-8.096-6.525-.395-1.584-.93-4.417-.44-6.013.883-2.878 7.502-7.401 2.102-10.177-.616-.316-1.357-.738-2.021-.832-1.205-.168-2.787.403-3.948-.069-7.338-2.989-1.061-13.872-4.89-18.525-3.287-3.99-9.943.53-12.332-3.337-4.873-7.893-2.182-13.905-4.172-22.172-1.074-4.456-6.373-2.104-8.763-2.02-.207.007-2.683-.257-2.833-.629-.795-1.972-.838-3.93-2.082-5.45-.443-.541-.014-4.091-.038-4.934-.08-2.872-1.014-5.683-2.85-7.447-2.813-2.7-6.332 1.328-8.775-1.04-3.23-3.129-1.569-10.582-4.43-14.058-3.116-3.786-6.316.361-9.332-.817-3.642-1.421-3.028-6.183-4.579-9.503-2.081-4.457-6.102-8.965-10.15-10.126-3.56-1.023-4.61 6.03-8.244 4.998-2.403-.682-4.153-3.84-6.464-4.504-1.43-.412-3.694-1.642-5.18-1.108-2.117.758-2.467 3.1-5.344 2.432-6.998-1.625-13.63-5.605-21.112-3.916-3.635.819 1.247 8.628.14 9.618-.989.886-2.653.37-3.776.554-3.283.538-8.129 2.198-9.66 6.485-.643 1.8 5.14 2.764 6.175 3.686 1.277 1.135-1.503 2.7-1.79 2.834-2.568 1.2-5.606-.887-7.354 2.312-3.17 5.806 4.122 8.8 3.386 13.232-.392 2.358-5.165 2.589-5.834 4.112-1.656 3.78.557 12.815 2.549 15.647 1.488 2.117 4.639 3.414 5.226 6.464.611 3.174-4.567 8.42-1.975 12.524 2.469 3.913 7.502 1.483 9.955 4.276 1.817 2.068.258 8.231 1.416 10.944 1.314 3.074 5.787.538 7.537 3.172 3.924 5.906 2.85 13.62 7.324 19.53 2.267 2.994 4.95 6.023 8.288 6.535 1.272.196 5.42-2.425 6.232-1.462 2.103 2.493 1.136 7.812 1.596 10.436.307 1.75 1.578 3.463 2.476 4.813 1.857 2.795 4.653-1.383 6.509-.288 2.928 1.731 3.597 8 6.808 9.903 1.178.698 2.852 1.946 4.236 1.335.502-.22 2.218-2.074 2.91-1.252.626.742 2.639 3.187 2.885 4.27.097.425.597 3.326.87 3.506 1.208.8 5.553-.13 6.816-1.001.904-.625 1.6-2.729 2.942-1.942 3.05 1.786 5.1 6.015 5.742 10.023.22 1.369.034 5.133.822 6.176 2.864 3.79 8.077-1.358 10.573.106 3.77 2.208 1.453 9.706 4.35 12.454 2.527 2.4 5.712-1.281 8.526-.492 3.97 1.115 2.996 7.814 6.097 9.56 4.15 2.337 11.113-.139 15.047-.277z" fill="#064700"/><path d="M251.196 349.192c-2.461-3.82-7.196-12.645-10.448-14.468-4.677-2.624-6.522 3.817-12.209-1.135-3.429-2.984-.543-6.292-3.134-8.786-2.067-1.989-4.787 2.05-7.938-1.983-3.409-4.36-1.716-8.065-5.106-12.083-1.321-1.568-4.456-.644-5.801-.916-1.761-.357-4.68-4.186-5.746-6.397-3.008-6.236 3.69-6.32 1.75-11.043-.697-1.693-2.066-4.609-3.4-5.752-2.408-2.062-9.924-2.006-7.785-7.936.245-.676.512-1.528.929-2.032.755-.913 2.239-1.39 2.775-2.553 3.393-7.349-7.81-13.293-7.949-19.944-.118-5.704 7.424-5.788 6.741-10.814-1.396-10.258-7.029-14.032-10.713-22.811-1.986-4.732 3.249-5.934 5.006-7.365.153-.124 1.758-1.926 1.635-2.358-.651-2.298-1.83-4.105-1.88-6.275-.017-.772-2.516-3.732-3.02-4.514-1.716-2.662-2.785-5.812-2.565-8.575.342-4.231 5.341-2.784 5.623-6.48.373-4.885-5.416-10.62-5.52-15.59-.113-5.409 4.731-3.654 6.157-6.628 1.722-3.59-1.658-7.537-2.6-11.537-1.267-5.369-1.18-12.008.992-15.617 1.91-3.177 7.013 2.58 8.97-.65 1.294-2.137.594-6.116 1.833-8.177.768-1.276 1.624-3.822 3.014-4.275 1.979-.644 3.676 1.266 5.316-1.157 3.992-5.89 6.267-13.696 12.651-16.879 3.1-1.546 4.439 8.638 5.838 8.842 1.255.183 2.123-1.336 3.038-1.877 2.676-1.581 7.16-3.126 10.9-.191 1.571 1.231-1.961 5.757-2.131 7.249-.21 1.838 2.74 1.51 3.027 1.451 2.574-.528 3.454-4.343 6.677-2.534 5.85 3.284 2.492 10.608 5.755 14.176 1.736 1.9 5.285-.9 6.703.066 3.517 2.396 7.516 12.012 7.844 15.846.245 2.865-1.203 6.034.261 9.18 1.523 3.274 8.46 4.783 9.144 10.152.653 5.12-4.44 6.081-4.466 10.17-.02 3.028 4.899 7.655 5.747 10.854.961 3.626-3.799 4.141-3.42 7.64.845 7.85 6.376 14.192 6.833 22.394.229 4.155.185 8.605-1.88 11.175-.788.981-5.368 1.21-5.352 2.599.038 3.596 4.014 7.826 5.306 10.506.86 1.786 1.012 4.146 1.205 5.94.399 3.715-4.177 1.676-4.824 3.844-1.022 3.422 2.372 9.55 1.255 13.306-.41 1.378-.834 3.569-2.2 3.886-.494.115-2.863-.487-2.849.697.011 1.067.083 4.564.577 5.707.193.447 1.627 3.402 1.543 3.736-.367 1.491-4.043 3.386-5.483 3.39-1.031 0-2.827-1.474-3.3.088-1.073 3.548.075 8.691 2.09 12.742.689 1.385 3.148 4.695 3.228 6.14.297 5.255-6.603 3.858-7.48 6.765-1.328 4.388 4.956 9.75 4.585 14.078-.321 3.777-4.87 2.436-6.389 4.93-2.146 3.518 2.686 9.001 1.551 12.545-1.519 4.746-8.018 6.883-10.911 9.238z" fill="#021c00"/><path d="M261.514 442.974c-.736.889-17.506-.274-19.161-2.659-.856-1.232-.714-5.818-3.572-23.082-1.534-9.264-6.714-35.758-9.814-44.65-6.174-17.708-15.426-43.54-23.635-59.744-8.392-16.567-67.25-148.158-63.502-150.029.396-.197 60.629 120.063 78.335 152.765 5.987 11.056 12.09 22.467 16.807 34.585 5.67 14.57 19.597 57.732 23.023 72.555.482 2.084 3.557 17.8 1.519 20.259z" fill="#ff0051"/><path d="M263.284 442.578c-.484 1.04-10.048-.447-10.836-2.928-.408-1.282-.015-6.34-.482-25.088-.251-10.06-5.258-24.753-6.435-34.267-2.344-18.953-2.07-60.586-5.688-77.71-3.696-17.504-28.576-157.217-26.293-159.597.241-.252 26.683 126.877 34.636 161.332 2.69 11.649 5.179 60.388 7.065 73.315 2.267 15.543 9.373 62.063 8.033 64.943z" fill="#ff0051"/></svg>