<svg width="200" height="200" xmlns="http://www.w3.org/2000/svg"><path d="M85.504 67.251l.374 17.125-6.918-13.758c-4.742-9.803-13.77-18.115-23.452-24.612l8.125-10.834c10.625 8.26 18.18 19.423 21.871 32.079z" fill="#ad7136"/><path d="M158.109 91.118a15.116 15.116 0 013.502 4.228c4.118 7.36 1.423 16.76-5.984 21.422a15.125 15.125 0 012.685 3.483c4.26 7.615 1.23 17.416-6.768 21.892a17.234 17.234 0 01-5.095 1.878c1.234 7.848-2.66 16.15-10.313 20.432-7.65 4.28-16.763 3.257-22.806-1.9a17.233 17.233 0 01-4.265 3.36c-7.998 4.475-17.937 1.93-22.198-5.684a15.128 15.128 0 01-1.564-4.11c-7.848 3.873-17.272 1.255-21.39-6.105a15.126 15.126 0 01-1.769-5.198c-4.57-1.357-8.576-4.353-11.03-8.738-3.374-6.03-2.973-13.19.414-18.944a12.324 12.324 0 01-1.74-2.382c-3.398-6.072-1.137-13.838 5.024-17.63-.016-.654.004-1.309.054-1.96.512-6.401 4.25-12.55 10.478-16.035A20.832 20.832 0 0174 76.51c1.794-3.387 4.589-6.342 8.236-8.383 3.65-2.043 7.631-2.878 11.456-2.636a20.823 20.823 0 016.758-6.008c5.56-3.11 11.89-3.42 17.257-1.38a19.175 19.175 0 013.587 1.819c6.458-3.27 14.258-1.134 17.656 4.938a12.26 12.26 0 011.12 2.73c6.675.123 12.987 3.526 16.362 9.557 2.453 4.385 2.91 9.367 1.677 13.971z" fill="#7500be"/><path d="M100.365 59.125a20.84 20.84 0 00-6.759 6.008c-3.824-.242-7.804.592-11.455 2.635a21.057 21.057 0 00-4.184 3.071l.005-.01-.092.09-.117.116a20.84 20.84 0 00-1.284 1.363l-.159.185a16.29 16.29 0 00-.311.384 12.846 12.846 0 00-.466.604 39.144 39.144 0 00-.444.624 12.34 12.34 0 00-.186.28c-.079.12-.158.238-.234.359-.07.11-.135.222-.203.334-.065.106-.13.211-.191.318-.128.22-.251.441-.37.665a20.846 20.846 0 00-8.656 2.618l-.002.002c-6.863 3.84-10.703 10.912-10.53 17.993-6.165 3.793-8.426 11.558-5.028 17.63.492.88 1.082 1.672 1.74 2.382-3.386 5.754-3.787 12.914-.413 18.946 2.454 4.385 6.463 7.378 11.033 8.736.26 1.784.842 3.54 1.769 5.197 4.118 7.36 13.539 9.981 21.387 6.106a15.17 15.17 0 001.564 4.112c4.26 7.613 14.2 10.159 22.199 5.683a17.257 17.257 0 004.265-3.36c5.967 5.094 14.934 6.154 22.529 2.05-5.888 3.112-13.086 1.194-16.199-4.37a11.207 11.207 0 01-1.39-4.51c-4.512.969-9.22-.91-11.492-4.968a10.07 10.07 0 01-1.153-6.495c-7.16 2.077-14.907-.728-18.537-7.215a15.08 15.08 0 01-1.767-5.197c-4.571-1.357-8.577-4.353-11.03-8.738a18.368 18.368 0 01-2.305-10.119c.271-4.536 4.64-7.931 9.192-7.168 0 0-2.697-17.29 8.61-18.736 0 0 .145-13.165 15.333-9.468 9.25 2.251 11.986-12.472 11.986-12.472l.602-7.044c-5.367-2.04-11.696-1.732-17.257 1.38z" fill="#57008d"/><path d="M82.29 68.347c-10.92-3.884-23.884-1.694-33.394 6.74-9.509 8.434-13.009 20.845-10.133 31.862 10.921 3.883 23.885 1.692 33.395-6.742 9.509-8.433 13.01-20.844 10.132-31.86z" fill="#58b741"/><path d="M82.29 68.347c2.403-11.339 11.051-21.241 23.214-24.935 12.162-3.692 24.57-.183 32.454 8.032-2.402 11.338-11.051 21.241-23.213 24.934-12.163 3.692-24.571.183-32.456-8.031z" fill="#70d65b"/><path d="M122.317 57.945a2.42 2.42 0 01-1.108.308c-24.064.752-37.318 11.67-37.45 11.78-.986.83-2.445.75-3.256-.179-.81-.927-.667-2.353.32-3.183.588-.495 14.705-12.121 40.433-12.925 1.277-.04 2.302.937 2.29 2.181-.01.854-.505 1.613-1.229 2.018z" fill="#4aa032"/><path d="M108.864 67.146c-.804.45-1.82.422-2.564-.148l-7.292-5.583c-.869-.665-1.093-1.864-.529-2.84l4.249-7.348c.639-1.104 2.052-1.532 3.16-.956 1.107.577 1.487 1.94.849 3.043l-3.274 5.661 5.788 4.432c.984.754 1.121 2.168.306 3.16a2.433 2.433 0 01-.693.58zM52.484 97.02c-.724.405-1.628.431-2.361-.009-1.068-.64-1.363-2.024-.662-3.092 14.144-21.507 31.436-27.455 32.166-27.698 1.223-.407 2.513.217 2.88 1.393s-.324 2.458-1.546 2.867c-.041.014-4.152 1.425-9.837 5.292-5.236 3.565-12.92 10.007-19.798 20.464a2.41 2.41 0 01-.842.783z" fill="#4aa032"/><path d="M67.407 90.343a2.434 2.434 0 01-.856.288c-1.272.176-2.406-.68-2.533-1.914l-.749-7.25-6.538-.173c-1.274-.033-2.236-1.07-2.149-2.314.088-1.245 1.193-2.226 2.467-2.193l8.487.223c1.125.03 2.03.847 2.142 1.935l.944 9.136c.097.933-.411 1.813-1.215 2.262z" fill="#4aa032"/></svg>