<svg height="512" viewBox="0 0 497 497" width="512" xmlns="http://www.w3.org/2000/svg"><path d="M390.31 166.308c-5.684 61.483-41.293 129.537-80.99 141.478-5.026 1.511-9.285 2.916-14.389 2.473-45.42-3.943-74.677-88.963-68.274-158.228 5.603-60.607 36.652-89.07 74.755-92.597 5.443-.504 11.03.306 16.708.799 45.421 3.942 78.595 36.81 72.19 106.075z" fill="#6fd7a3"/><path d="M318.12 59.428c-5.648-.49-11.207-.497-16.624-.001h.01c45.421 3.943 79.425 37.617 73.022 106.881-5.853 63.306-43.434 134.419-84.534 143.18 1.625.358 3.268.626 4.937.77 45.421 3.942 89.807-74.685 96.21-143.95 6.404-69.264-27.6-102.938-73.02-106.88z" fill="#3ec3a4"/><path d="M263.633 264.572l4.79-72.52c.493-7.467 6.887-13.28 14.609-13.28s14.115 5.812 14.608 13.28l4.799 72.645c.985 14.919 3.626 29.595 7.71 43.89 5.18 18.131 11.85 35.651 21.243 52.282 4.864 8.612 7.389 18.642 6.747 29.286-1.623 26.926-23.03 48.064-50.788 50.079-3.645.265-7.223.996-10.704.614-27.942-3.07-49.653-26.054-49.653-53.951a52.736 52.736 0 016.856-26.047c16.827-29.766 27.545-62.407 29.783-96.278z" fill="#bbf49b"/><path d="M295.367 185.342c-2.607-3.959-7.169-6.569-12.336-6.569-7.721 0-14.115 5.812-14.609 13.279l-4.79 72.52c-1.333 20.178-5.677 39.92-12.528 58.876a40.58 40.58 0 008.178.852c9.391 0 18.431-3.32 26.9-9.2 3.743-2.6 8.988-.92 10.413 3.324 4.915 14.642 11.33 28.841 19.013 42.445 4.864 8.613 7.389 18.642 6.747 29.287-1.544 25.62-21.756 46.714-47.623 50.438 4.08.587 8.301.76 12.62.446 27.756-2.015 49.995-23.958 51.617-50.884.642-10.645-1.884-20.674-6.747-29.287-16.798-29.744-27.549-62.334-29.784-96.172l-4.799-72.645c-.06-.908-.881-3.273-2.272-6.71z" fill="#9be69d"/><path d="M109.149 166.308c6.403 69.265 50.788 147.893 96.21 143.95 45.421-3.942 74.678-88.962 68.274-158.227-5.344-57.81-33.84-85.569-69.525-91.143-4.861-.76-9.857-1.898-14.945-1.82a97.825 97.825 0 00-6.992.36c-45.422 3.942-79.426 37.616-73.022 106.88z" fill="#6fd7a3"/><path d="M273.633 152.03c-6.073-65.685-42.034-93.608-84.472-92.958-24.238 15.482-40.326 45.568-40.326 92.601 0 63.73 29.532 137.521 68.865 155.414 38.256-16.587 61.736-92.29 55.933-155.057z" fill="#3ec3a4"/><path d="M236.658 264.572l-4.79-72.52c-.493-7.467-6.887-13.28-14.609-13.28s-14.115 5.812-14.608 13.28l-4.799 72.645c-2.235 33.838-12.985 66.427-29.784 96.172-4.864 8.612-7.389 18.642-6.747 29.286 1.622 26.926 23.861 48.869 51.618 50.884 3.027.22 6.01.206 8.928-.024.97-.076 1.934-.982 2.89-1.105.757-.099 1.51.594 2.256.467 26.3-4.473 46.284-26.715 46.284-53.48a52.744 52.744 0 00-6.856-26.047c-16.828-29.766-27.546-62.407-29.783-96.278z" fill="#c9f6b0"/><path d="M273.296 386.897a52.749 52.749 0 00-7.065-26.413c-16.725-29.052-27.27-61.056-29.463-94.254l-4.874-73.793c-.477-7.217-6.31-13.218-13.76-13.639-8.108-.459-14.97 5.507-15.483 13.254l-4.798 72.646a205.653 205.653 0 01-3.141 24.612c5.023 5.928 10.316 10.971 15.806 14.91 5.817 4.173 8.44 11.362 6.531 18.127-4.582 16.233-10.913 31.971-19.11 46.846a51.012 51.012 0 00-6.336 26.276c.6 19.876 12.806 37.14 30.265 45.543 28.79-2.27 51.428-25.63 51.428-54.115z" fill="#9be69d"/><path d="M339.068 151.674c0 73.112-38.866 159.48-86.809 159.48s-86.809-86.368-86.809-159.48c0-66.659 32.308-99.283 74.348-104.523 4.07-.507 12.383.852 16.615.852 11.93 0 21.36 2.046 30.48 5.69 4.228 1.689 8.389 3.09 12.701 5.927 23.764 15.638 39.474 45.571 39.474 92.054z" fill="#6fd7a3"/><path d="M252.26 46.393c-4.232 0-8.392.256-12.461.764 42.038 5.24 74.348 37.859 74.348 104.517S281.837 295.996 239.8 309.19c4.07 1.277 8.229 1.963 12.46 1.963 47.943 0 86.81-86.367 86.81-159.479s-38.867-105.28-86.81-105.28z" fill="#3ec3a4"/><path d="M306.058 386.427c.257 2.505.568 5.04.568 7.632 0 20.426-12.025 38.13-29.589 46.828-8.123 4.023-16.895 4.818-18.339 5.074-3.212.57-11.926.396-13.392.21-25.727-3.266-45.94-24.234-47.101-49.733a51.031 51.031 0 016.304-27.08c11.976-21.731 19.985-45.305 24.355-69.574l16.793-93.242c1.317-7.31 12.145-7.31 13.462 0l16.794 93.246c3.856 21.41 11.03 42.031 20.468 61.722 0-.001 9.192 20.207 9.677 24.917z" fill="#bbf49b"/><path d="M306.058 386.427c-.485-4.71-9.677-24.918-9.677-24.918-9.438-19.69-16.612-40.312-20.468-61.721l-16.794-93.247c-1.316-7.31-12.144-7.31-13.462 0l-.33 1.833 16.464 91.413c3.856 21.41 11.03 42.03 20.469 61.72 0 0 9.19 20.21 9.676 24.92.258 2.505.569 5.039.569 7.631 0 26.713-20.571 48.754-47.197 52.101 1.466.186 2.947.326 4.447.396 31.152 1.427 56.871-22.625 56.871-52.496 0-2.592-.31-5.127-.568-7.632z" fill="#9be69d"/><path d="M256.222 213.66a6.309 6.309 0 01-4.55-1.912 5.906 5.906 0 01.29-8.533l52.896-47.972c2.512-2.277 6.455-2.152 8.805.282 2.351 2.434 2.222 6.255-.291 8.533l-52.896 47.972a6.317 6.317 0 01-4.254 1.63z" fill="#9be69d"/><path d="M252.388 211.72c-3.44 0-6.23-2.702-6.23-6.037V94.451c0-3.335 2.79-6.038 6.23-6.038s6.23 2.703 6.23 6.038v111.232c0 3.335-2.79 6.037-6.23 6.037z" fill="#9be69d"/><path d="M251.228 156.901a6.336 6.336 0 01-3.55-1.08l-38.342-25.826c-2.825-1.902-3.523-5.665-1.56-8.402 1.964-2.738 5.846-3.415 8.672-1.511l38.34 25.825c2.826 1.903 3.524 5.665 1.56 8.402-1.21 1.688-3.148 2.592-5.12 2.592z" fill="#9be69d"/></svg>