<svg id="Layer_3" enable-background="new 0 0 64 64" height="512" viewBox="0 0 64 64" width="512" xmlns="http://www.w3.org/2000/svg"><g><path d="m2 20.536c0-2.264.899-4.435 2.5-6.036 1.601-1.601 3.772-2.5 6.036-2.5h4.126c6.862 0 13.693-.915 20.313-2.72.68-.186 1.382-.28 2.088-.28 4.383 0 7.937 3.554 7.937 7.937 0 3.228-1.344 6.311-3.71 8.508l-2.221 2.063c-5.187 4.816-12.002 7.492-19.08 7.492-5.722 0-11.175-2.429-15.003-6.682-1.922-2.136-2.986-4.908-2.986-7.782z" fill="#662a12"/><path d="m37.063 9c-.705 0-1.408.094-2.088.28-6.621 1.805-13.452 2.72-20.314 2.72h-4.126c-1.541 0-3.034.426-4.339 1.197-.77 1.304-1.196 2.797-1.196 4.339 0 2.874 1.064 5.647 2.987 7.783 3.827 4.252 9.28 6.681 15.002 6.681 7.077 0 13.893-2.676 19.079-7.492l.439-.408c1.596-2.032 2.493-4.545 2.493-7.163 0-4.383-3.554-7.937-7.937-7.937z" fill="#893b20"/><path d="m26 47.918c0 1.925.962 3.723 2.564 4.791 2.24 1.493 4.872 2.29 7.565 2.29 5.055 0 9.918-1.934 13.593-5.404l2.33-2.201c6.35-5.996 9.948-14.343 9.948-23.077 0-2.829-.738-5.609-2.142-8.066-1.149-2.01-3.287-3.251-5.603-3.251-2.581 0-4.914 1.538-5.931 3.911l-1.146 2.674c-4.045 9.437-10.545 17.618-18.825 23.689-1.479 1.085-2.353 2.81-2.353 4.644z" fill="#662a12"/><path d="m54.255 13c-2.581 0-4.914 1.538-5.931 3.911l-1.146 2.674c-4.044 9.437-10.545 17.617-18.825 23.689-1.066.782-1.812 1.899-2.148 3.147.36 1.329 1.185 2.505 2.359 3.288 2.24 1.493 4.872 2.29 7.565 2.29 5.055 0 9.918-1.934 13.593-5.404l2.33-2.201c5.92-5.592 9.446-13.228 9.895-21.314-.183-2.398-.892-4.732-2.09-6.829-1.148-2.01-3.286-3.251-5.602-3.251z" fill="#893b20"/><path d="m16.419 18c1.047 0 2.088-.169 3.081-.5s2.034-.5 3.081-.5c1.549 0 3.034.615 4.129 1.71.826.826 1.946 1.29 3.113 1.29.735 0 1.421.367 1.829.979l.767 1.151c.362.544.973.87 1.626.87 1.08 0 1.955-.875 1.955-1.954 0-4.102-1.61-8-4.417-10.891l-.046-.032c-5.537 1.24-11.195 1.877-16.876 1.877h-1.911l1.752 4.671c.299.8 1.063 1.329 1.917 1.329z" fill="#ffecd2"/><path d="m34.5 27c-.944 1.259-2.426 2-4 2-.986 0-1.959.23-2.842.671l-.658.329c-1.315-.658-2.766-1-4.236-1-1.129 0-2.213.449-3.011 1.247-.482.482-1.136.753-1.818.753-1.773 0-3.367-1.079-4.026-2.726-.549-1.373-1.879-2.274-3.359-2.274-1.027 0-2.047.166-3.021.49l-3.174 1.058c.2.264.408.522.631.77 3.828 4.253 9.281 6.682 15.003 6.682 7.077 0 13.893-2.676 19.079-7.492l2.221-2.063c.152-.141.288-.296.432-.445h-3.221c-1.574 0-3.056.741-4 2z" fill="#ffd997"/><path d="m38.5 25c-1.574 0-3.056.741-4 2s-2.426 2-4 2c-.986 0-1.959.23-2.842.671l-.658.329c-1.315-.658-2.766-1-4.236-1-1.129 0-2.213.449-3.011 1.247-.482.482-1.136.753-1.818.753-1.773 0-3.367-1.079-4.026-2.726-.549-1.373-1.879-2.274-3.359-2.274-.588 0-1.173.061-1.75.168 3.768 3.724 8.861 5.832 14.189 5.832 6.829 0 13.41-2.498 18.523-7z" fill="#ffecd2"/><path d="m52.723 39.916c-.452.677-1.212 1.084-2.026 1.084-1.489 0-2.697 1.208-2.697 2.697 0 .849-.251 1.68-.723 2.387-.798 1.197-2.141 1.916-3.58 1.916-2.879 0-5.51 1.626-6.798 4.201l-1.388 2.776c.206.01.412.023.618.023 5.055 0 9.918-1.934 13.593-5.404l2.33-2.201c3.635-3.433 6.363-7.638 8.036-12.244-2.981.498-5.659 2.206-7.365 4.765z" fill="#ffd997"/><g fill="#ffecd2"><path d="m52.723 39.916c-.452.677-1.212 1.084-2.026 1.084-1.489 0-2.697 1.208-2.697 2.697 0 .849-.251 1.68-.723 2.387-.798 1.197-2.141 1.916-3.58 1.916-2.783 0-5.323 1.529-6.653 3.956 4.723-.219 9.226-2.101 12.678-5.361l2.33-2.201c2.73-2.578 4.943-5.595 6.588-8.887-2.388.742-4.493 2.273-5.917 4.409z"/><path d="m31 46.5c.625.937 1.677 1.5 2.803 1.5 1.892 0 3.556-1.255 4.076-3.074l.353-1.236c.5-1.75 1.532-3.3 2.952-4.438 1.862-1.49 3.973-2.639 6.236-3.393 3.332-1.11 5.58-4.228 5.58-7.741 0-.685-.387-1.312-1-1.618s-1-.933-1-1.618c0-1.866-.635-3.676-1.8-5.132l-1.362-1.703-.659 1.539c-4.044 9.437-10.545 17.617-18.825 23.689-.637.467-1.143 1.063-1.532 1.726h1.376c1.125-.001 2.177.562 2.802 1.499z"/></g></g></svg>