<svg height="512" width="512" xmlns="http://www.w3.org/2000/svg"><g transform="matrix(.91599 0 0 .91811 36.794 19.498)"><path d="M318.606 107.405c40.63 40.518-15.949 118.68-99.228 201.729S57.657 448.672 17.027 408.154c-22.468-22.407-21.939-63.056-2.893-108.964 2.442-5.887 7.831-9.81 10.873-15.843 3.054-6.056 3.762-14.221 7.401-20.368 8.267-13.966 18.02-28.097 29.145-42.068 4.217-5.295 14.551-9.325 19.156-14.556 6.15-6.986 6.722-15.142 13.539-21.94 14.931-14.89 30.414-28.219 46.005-39.834 7.845-5.844 20.103-8.219 27.947-13.176 7.843-4.957 11.272-12.497 19.001-16.529 54.853-28.611 105.39-33.414 131.405-7.471z" fill="#c6855b"/><path d="M318.606 107.405c-8.133-8.111-18.668-13.208-30.978-15.521.024.023.049.044.072.068 40.63 40.519-15.949 118.68-99.228 201.73-66.535 66.352-129.982 115.744-173.526 112.26a50.414 50.414 0 002.081 2.212c40.63 40.518 119.073-15.97 202.351-99.019 83.279-83.05 139.858-161.211 99.228-201.73z" fill="#c17e4e"/><path d="M51.932 315.579c8.927 6.029 17.02 13.407 24.05 21.928 7.038 8.53 19.625 9.818 28.115 2.877.513-.419.998-.858 1.457-1.316 7.144-7.124 7.783-18.682 1.171-26.696-9.497-11.51-20.467-21.502-32.608-29.702-13.806-9.324-28.008-15.571-41.701-19.686-7.263 12.271-13.38 24.413-18.274 36.21 12.316 2.921 25.335 7.973 37.79 16.385zM93.878 184.79c-11.778 11.773-22.575 23.887-32.32 36.125 18.662.496 42.911 4.777 65.328 19.917 8.927 6.029 17.02 13.407 24.05 21.928 7.038 8.53 19.625 9.818 28.115 2.877.513-.419.998-.858 1.457-1.316 7.144-7.124 7.783-18.682 1.171-26.696-9.497-11.51-20.467-21.502-32.608-29.702-18.409-12.434-37.528-19.42-55.193-23.133zm107.266-17.662c8.648 6.423 16.401 14.156 23.041 22.982 6.647 8.835 19.168 10.689 27.967 4.141a20.072 20.072 0 001.516-1.248c7.463-6.792 8.626-18.304 2.381-26.605-8.969-11.922-19.479-22.395-31.241-31.131-12.328-9.156-25.111-15.716-37.607-20.39-15.456 8.062-31.254 18.023-46.943 29.711 18.081 1.745 40.506 7.403 60.886 22.54z" fill="#f2d59c"/><g fill="#f9bc43"><path d="M253.944 387.185a127.584 127.584 0 01-9.622-8.72c-49.219-49.387-49.212-129.445.008-178.825s129.017-49.387 178.244 0a128.63 128.63 0 018.668 9.623v.007"/><path d="M236.056 369.239a127.584 127.584 0 01-9.622-8.719c-49.219-49.388-49.212-129.446.008-178.826s129.017-49.387 178.244 0a128.63 128.63 0 018.668 9.623v.008"/></g><g fill="#e8aa3d"><path d="M262.69 395.96a127.693 127.693 0 01-9.622-8.72c-49.219-49.387-49.212-129.446.008-178.825s129.017-49.388 178.243 0c3.085 3.094 5.965 6.3 8.67 9.622v.008"/><path d="M246.193 379.41a127.693 127.693 0 01-9.621-8.72c-49.22-49.387-49.212-129.446.007-178.825s129.018-49.388 178.244 0c3.085 3.094 5.965 6.3 8.669 9.622v.008"/></g><path d="M242.804 198.106c49.22-49.373 129.02-49.387 178.247 0a123.894 123.894 0 014.9 5.206 123.62 123.62 0 013.602 4.22c-49.509-40.678-122.655-37.83-168.858 8.523-46.203 46.354-49.04 119.738-8.502 169.409a121.302 121.302 0 01-4.186-3.592 126.518 126.518 0 01-5.21-4.938c-49.22-49.387-49.213-129.447.007-178.828z" fill="#f9bc43"/><path d="M248.007 381.873a125.88 125.88 0 008.887 9.033 124.045 124.045 0 01-4.7-5.44c-40.54-49.67-37.7-123.055 8.501-169.409 46.203-46.354 119.35-49.2 168.858-8.523 1.842 1.51 3.65 3.082 5.423 4.724a119.776 119.776 0 00-3.788-3.979 126.31 126.31 0 00-5.237-4.965c-49.495-44.36-125.5-42.699-173.009 4.965-47.515 47.67-49.165 123.937-4.935 173.594z" fill="#e8aa3d"/><path d="M476.332 288.222c-3.904-25.7-15.726-50.428-35.453-70.219-49.227-49.381-129.026-49.381-178.246 0-49.22 49.387-49.227 129.44 0 178.827 25.24 25.329 58.534 37.658 91.608 37.003l1.264-1.269 122.25-122.655c.144-7.247-.33-14.501-1.423-21.687z" fill="#fcc854"/><path d="M476.334 288.223c-30.93.959-61.578 13.288-85.195 36.975-23.981 24.06-36.278 55.394-36.896 86.914.192 7.337.625 14.144 1.264 20.453L477.756 309.91c.145-7.247-.33-14.501-1.422-21.687z" fill="#f9bc43"/><path d="M477.759 309.91c-31.415.619-62.643 12.954-86.623 37.012-23.98 24.057-36.275 55.388-36.897 86.91 31.431-.613 122.913-92.394 123.52-123.922z" fill="#fcdb75"/><g transform="matrix(-.56301 0 0 -.56485 477.783 433.859)" fill="#e8aa3d"><circle cx="336.004" cy="311.32" r="9.156"/><circle cx="392.736" cy="184.306" r="9.156"/><circle cx="269.677" cy="104.355" r="9.156"/><circle cx="245.627" cy="236.801" r="9.156"/></g><g transform="matrix(-.56301 0 0 -.56485 477.783 433.859)" fill="#fcc854"><circle cx="168.154" cy="69.203" r="9.156"/><circle cx="113.486" cy="122.594" r="9.156"/></g><circle cx="142.603" cy="330.658" r="9.156" transform="matrix(-.56301 0 0 -.56485 477.783 433.859)" fill="#e8aa3d"/><path d="M260.35 369.417c8.783-7.176 7.121-17.525.814-22.717-2.509-2.083-3.594-4-.881-7.506 5.425-7.043 3.12-17.36-5.799-21.725-2.509-1.19-3.661-3.472-2.136-6.778 2.306-5.093.61-10.615-4.17-13.392-4.51-2.613-21.837-8.002-55.1 33.695-1.085 1.322-2.746 1.984-4.408 1.984-1.695 0-3.356-.662-4.408-1.984-33.262-41.697-50.59-36.307-55.133-33.695-4.747 2.778-6.476 8.3-4.17 13.359 1.525 3.306.44 5.588-2.306 6.91-7.799 3.836-11.834 13.591-4.984 22.42 1.56 2.017 1.39 4.299-1.527 6.68-6.374 5.29-7.866 15.64.814 22.749 1.967 1.587 2.374 3.869.068 6.812-5.391 7.043-3.12 17.327 5.832 21.724 2.476 1.191 3.526 3.737 2.476 6.019-2.917 6.348-.713 11.507 3.797 14.152 16.648 9.69 43.13-18.65 55.133-33.695 1.052-1.322 2.713-1.984 4.408-1.984 1.662 0 3.323.662 4.408 1.984 33.263 41.697 50.59 36.307 55.1 33.695 4.78-2.777 6.476-8.3 4.17-13.425-1.526-3.273-.373-5.555 2.34-6.844 8.476-4.166 11.121-14.45 5.594-21.593-2.271-2.976-1.898-5.258.069-6.845z" fill="#ffc033"/><path d="M260.283 376.262c5.527 7.142 2.882 17.426-5.595 21.592-2.713 1.29-3.865 3.571-2.34 6.845 2.306 5.125.61 10.647-4.17 13.425-4.51 2.612-21.837 8.002-55.1-33.695-1.085-1.323-2.746-1.984-4.407-1.984v-49.468c1.661 0 3.323-.661 4.408-1.984 33.262-41.697 50.589-36.307 55.099-33.694 4.78 2.777 6.476 8.3 4.17 13.392-1.525 3.306-.373 5.588 2.136 6.778 8.918 4.365 11.224 14.682 5.799 21.725-2.712 3.505-1.628 5.423.881 7.506 6.307 5.192 7.969 15.541-.813 22.717-1.967 1.587-2.34 3.869-.068 6.845z" fill="#f9a926"/><path d="M225.087 367.631c0 2.745-2.272 4.96-5.086 4.96-9.901 0-15.259-3.306-19.565-5.985-3.696-2.281-6.374-3.935-11.766-3.935-5.425 0-8.07 1.653-11.766 3.935-4.306 2.679-9.664 5.985-19.598 5.985-2.815 0-5.086-2.215-5.086-4.96 0-2.744 2.271-4.96 5.086-4.96 7.425 0 10.714-2.347 14.986-4.96-4.306-2.645-7.56-4.96-14.986-4.96-2.815 0-5.086-2.215-5.086-4.959 0-2.744 2.271-4.96 5.086-4.96 9.934 0 15.292 3.307 19.598 5.985 3.696 2.282 6.34 3.935 11.766 3.935 5.392 0 8.07-1.653 11.766-3.935 4.306-2.678 9.664-5.985 19.565-5.985 2.814 0 5.086 2.216 5.086 4.96 0 2.744-2.272 4.96-5.086 4.96-7.426 0-10.68 2.348-14.987 4.96 4.306 2.645 7.561 4.96 14.987 4.96 2.814 0 5.086 2.215 5.086 4.96z" fill="#ff9f19"/><path d="M225.087 367.631c0 2.745-2.272 4.96-5.086 4.96-9.901 0-15.259-3.306-19.565-5.985-3.696-2.281-6.374-3.935-11.766-3.935v-9.92c5.392 0 8.07-1.653 11.766-3.934 4.306-2.679 9.664-5.985 19.565-5.985 2.814 0 5.086 2.215 5.086 4.96 0 2.744-2.272 4.96-5.086 4.96-7.426 0-10.68 2.347-14.987 4.959 4.306 2.645 7.561 4.96 14.987 4.96 2.814 0 5.086 2.216 5.086 4.96z" fill="#f28618"/></g></svg>