<svg height="512" width="512" xmlns="http://www.w3.org/2000/svg"><path d="M487.533 171.331c0-34.386-27.876-62.262-62.262-62.262-1.635 0-3.25.083-4.854.207 0-.069.005-.137.005-.207 0-31.708-25.705-57.413-57.413-57.413-9.95 0-19.307 2.533-27.466 6.987C325.052 24.679 293.409 0 256 0s-69.051 24.679-79.543 58.643c-8.159-4.454-17.516-6.987-27.466-6.987-31.709 0-57.413 25.705-57.413 57.413 0 .069.005.137.005.207a62.82 62.82 0 00-4.854-.207c-34.386 0-62.262 27.875-62.262 62.262 0 26.333 16.357 48.832 39.458 57.933a69.835 69.835 0 00-2.368 18.042c0 38.538 31.242 69.78 69.78 69.78 20.409 0 38.769-8.764 51.528-22.731 14.113 25.89 41.571 43.459 73.135 43.459s59.022-17.569 73.135-43.459c12.76 13.967 31.119 22.731 51.528 22.731 38.538 0 69.78-31.241 69.78-69.78a69.84 69.84 0 00-2.368-18.042c23.101-9.101 39.458-31.599 39.458-57.933z" fill="#348021"/><path d="M487.533 171.331c0-12.806-3.871-24.707-10.5-34.603a60.036 60.036 0 012.155 15.935c0 23.947-14.032 44.604-34.316 54.232-2.139 1.015-3.227 3.397-2.759 5.717a67.313 67.313 0 011.323 13.287c0 37.15-30.116 67.265-67.265 67.265-17.401 0-33.257-6.61-45.199-17.453-2.348-2.132-6.033-1.604-7.768 1.051-14.326 21.907-39.073 36.383-67.203 36.383s-52.877-14.476-67.203-36.383c-1.736-2.655-5.42-3.183-7.768-1.051-11.942 10.844-27.798 17.453-45.199 17.453-37.149 0-67.265-30.116-67.265-67.265 0-4.55.458-8.992 1.323-13.287.467-2.321-.621-4.702-2.759-5.718-20.285-9.628-34.316-30.285-34.316-54.232 0-5.52.76-10.859 2.155-15.935-6.629 9.897-10.5 21.797-10.5 34.603 0 26.333 16.357 48.832 39.458 57.933a69.91 69.91 0 00-2.204 22.846c2.356 34.589 30.253 62.516 64.846 64.816 22.306 1.483 42.552-7.526 56.298-22.573 14.113 25.89 41.571 43.459 73.135 43.459s59.022-17.569 73.135-43.459c13.744 15.045 33.986 24.053 56.288 22.573 34.595-2.296 62.497-30.221 64.856-64.813a69.913 69.913 0 00-2.204-22.851c23.099-9.098 39.456-31.596 39.456-57.93z" fill="#2e701b"/><path d="M329.135 294.354c-9.231 16.935-24.174 30.307-42.239 37.533-9.304 15.886-19.501 34.588-26.139 50.561-1.756 4.226-7.758 4.226-9.514 0-6.638-15.973-16.835-34.675-26.139-50.561-18.065-7.226-33.007-20.598-42.239-37.533a69.88 69.88 0 01-27.599 18.495c19.352 39.625 41.944 100.422 51.777 181.424 1.229 10.124 9.85 17.727 20.048 17.727h57.818c10.198 0 18.819-7.603 20.048-17.727 9.833-81.002 32.425-141.799 51.777-181.424a69.87 69.87 0 01-27.599-18.495z" fill="#98db7c"/><path d="M329.135 294.354c-9.231 16.935-24.174 30.307-42.239 37.533-4.889 8.347-10.017 17.471-14.753 26.569l75.157-25.051a478.754 478.754 0 019.433-20.556 69.874 69.874 0 01-27.598-18.495zm-104.031 37.533c-18.065-7.226-33.007-20.598-42.239-37.533a69.88 69.88 0 01-27.599 18.495 474.744 474.744 0 017.683 16.548l78.925 32.984c-5.27-10.38-11.177-20.944-16.77-30.494z" fill="#82d361"/><path d="M332.323 141.769c-3.561 17.682-19.178 30.999-37.91 30.999-11.053 0-21.021-4.639-28.068-12.075-2.409-2.542-6.518-2.101-8.289.92-7.635 13.017-21.772 21.758-37.954 21.758-21.62 0-39.583-15.607-43.27-36.166-.889 3.407-.36 5.341-.36 5.341a44.231 44.231 0 00-.346 5.43c0 24.287 19.688 43.975 43.975 43.975 19.037 0 35.244-12.098 41.364-29.024 6.808 11.051 19.015 18.421 32.947 18.421 21.359 0 38.674-17.315 38.674-38.674.001.001.543-4.908-.763-10.905z" fill="#2e701b"/></svg>