<svg id="Capa_1" enable-background="new 0 0 511.999 511.999" height="512" viewBox="0 0 511.999 511.999" width="512" xmlns="http://www.w3.org/2000/svg"><path d="m343.044 47.484h-174.089c-9.662 0-17.567 7.923-17.567 17.607v137.486c0 9.684 7.905 17.607 17.567 17.607h174.089c9.662 0 17.567-7.923 17.567-17.607v-137.486c.001-9.684-7.905-17.607-17.567-17.607z" fill="#ae5e2e"/><path d="m190.538 202.577v-137.486c0-9.684 7.905-17.607 17.568-17.607h-39.151c-9.662 0-17.568 7.923-17.568 17.607v137.486c0 9.684 7.905 17.607 17.568 17.607h39.151c-9.663 0-17.568-7.923-17.568-17.607z" fill="#a15427"/><path d="m343.044 47.484h-174.089c-9.662 0-17.567 7.923-17.567 17.607v.385c0 8.543 6.974 15.533 15.498 15.533h20.646c7.618 0 13.794 6.19 13.794 13.825v6.201c0 7.835 6.337 14.186 14.154 14.186h3.549c7.817 0 14.154-6.351 14.154-14.186 0-8.79 6.861-16.331 15.63-16.491 8.934-.164 16.227 7.045 16.227 15.962v15.991c0 7.835 6.337 14.186 14.154 14.186h3.549c7.817 0 14.154-6.351 14.154-14.186v-15.462c0-8.79 6.861-16.331 15.63-16.491 8.934-.164 16.227 7.045 16.227 15.962v-1.937c0 7.835 6.337 14.186 14.154 14.186h3.549c7.817 0 14.154-6.351 14.154-14.186v-33.093-.385c.001-9.684-7.905-17.607-17.567-17.607z" fill="#a15427"/><g fill="#cb6c35"><path d="m187.772 167.728-6.944-10.109c-2.42-3.523-1.532-8.345 1.983-10.77 3.516-2.426 8.326-1.535 10.745 1.987l6.944 10.109c2.419 3.523 1.532 8.345-1.983 10.77-3.512 2.425-8.325 1.537-10.745-1.987z"/><path d="m231.081 167.728-6.944-10.109c-2.42-3.523-1.532-8.345 1.983-10.77 3.516-2.426 8.326-1.535 10.745 1.987l6.944 10.109c2.42 3.523 1.532 8.345-1.983 10.77-3.512 2.425-8.324 1.537-10.745-1.987z"/><path d="m274.391 167.728-6.944-10.109c-2.419-3.523-1.532-8.345 1.983-10.77 3.516-2.426 8.326-1.535 10.745 1.987l6.944 10.109c2.42 3.523 1.532 8.345-1.983 10.77-3.512 2.425-8.325 1.537-10.745-1.987z"/><path d="m317.7 167.728-6.944-10.109c-2.419-3.523-1.532-8.345 1.983-10.77 3.516-2.426 8.326-1.535 10.745 1.987l6.944 10.109c2.419 3.523 1.532 8.345-1.983 10.77-3.512 2.425-8.324 1.537-10.745-1.987z"/></g><path d="m447.643 219.794h-174.218c-9.669 0-17.58 7.905-17.58 17.567v138.205c0 9.662 7.911 17.568 17.58 17.568h174.219c9.669 0 17.58-7.905 17.58-17.568v-138.205c0-9.662-7.911-17.567-17.581-17.567z" fill="#ae5e2e"/><path d="m295.15 375.566v-138.205c0-9.662 7.911-17.567 17.58-17.567h-39.306c-9.669 0-17.58 7.905-17.58 17.567v138.205c0 9.662 7.911 17.568 17.58 17.568h39.306c-9.669-.001-17.58-7.906-17.58-17.568z" fill="#a15427"/><path d="m447.643 219.794h-174.218c-9.669 0-17.581 7.905-17.581 17.567v.384c0 8.524 6.979 15.498 15.51 15.498h20.661c7.624 0 13.804 6.176 13.804 13.794v6.187c0 7.817 6.342 14.154 14.164 14.154h3.552c7.823 0 14.164-6.337 14.164-14.154 0-8.77 6.867-16.294 15.642-16.454 8.94-.163 16.239 7.03 16.239 15.926v15.955c0 7.817 6.342 14.154 14.164 14.154h3.552c7.823 0 14.164-6.337 14.164-14.154v-15.427c0-8.77 6.867-16.294 15.642-16.454 8.94-.163 16.239 7.03 16.239 15.926v-1.933c0 7.817 6.342 14.154 14.164 14.154h3.552c7.823 0 14.164-6.337 14.164-14.154v-33.018-.384c.003-9.662-7.908-17.567-17.578-17.567z" fill="#a15427"/><path d="m292.256 339.766-6.949-10.086c-2.421-3.515-1.533-8.326 1.984-10.745 3.518-2.421 8.333-1.531 10.753 1.983l6.949 10.086c2.421 3.515 1.533 8.326-1.984 10.745-3.515 2.419-8.331 1.533-10.753-1.983z" fill="#cb6c35"/><path d="m335.597 339.766-6.949-10.086c-2.421-3.515-1.533-8.326 1.984-10.745 3.518-2.421 8.332-1.531 10.753 1.983l6.949 10.086c2.421 3.515 1.533 8.326-1.984 10.745-3.514 2.419-8.33 1.533-10.753-1.983z" fill="#cb6c35"/><path d="m378.939 339.766-6.949-10.086c-2.421-3.515-1.533-8.326 1.984-10.745 3.518-2.421 8.333-1.531 10.753 1.983l6.949 10.086c2.421 3.515 1.533 8.326-1.984 10.745-3.515 2.419-8.331 1.533-10.753-1.983z" fill="#cb6c35"/><path d="m422.281 339.766-6.949-10.086c-2.421-3.515-1.533-8.326 1.984-10.745 3.518-2.421 8.333-1.531 10.753 1.983l6.949 10.086c2.421 3.515 1.533 8.326-1.984 10.745-3.515 2.419-8.331 1.533-10.753-1.983z" fill="#cb6c35"/><path d="m238.432 219.794h-174.089c-9.662 0-17.568 7.905-17.568 17.567v138.205c0 9.662 7.905 17.568 17.568 17.568h174.089c9.662 0 17.568-7.905 17.568-17.568v-138.205c-.001-9.662-7.906-17.567-17.568-17.567z" fill="#ae5e2e"/><path d="m86.052 375.566v-138.205c0-9.662 7.905-17.567 17.568-17.567h-39.277c-9.662 0-17.568 7.905-17.568 17.567v138.205c0 9.662 7.905 17.568 17.568 17.568h39.277c-9.663-.001-17.568-7.906-17.568-17.568z" fill="#a15427"/><path d="m238.432 219.794h-174.089c-9.662 0-17.567 7.905-17.567 17.567v.384c0 8.524 6.974 15.498 15.498 15.498h20.646c7.618 0 13.794 6.176 13.794 13.794v6.187c0 7.817 6.337 14.154 14.154 14.154h3.549c7.817 0 14.154-6.337 14.154-14.154 0-8.77 6.861-16.294 15.63-16.454 8.934-.163 16.227 7.03 16.227 15.926v15.955c0 7.817 6.337 14.154 14.154 14.154h3.549c7.817 0 14.154-6.337 14.154-14.154v-15.427c0-8.77 6.861-16.294 15.63-16.454 8.934-.163 16.227 7.03 16.227 15.926v-1.933c0 7.817 6.337 14.154 14.154 14.154h3.549c7.817 0 14.154-6.337 14.154-14.154v-33.018-.384c0-9.662-7.905-17.567-17.567-17.567z" fill="#a15427"/><path d="m230.799 81.009h-20.646c-8.524 0-15.498-6.99-15.498-15.533v-.385c0-9.684 7.905-17.607 17.568-17.607h-43.267c-9.662 0-17.568 7.923-17.568 17.607v.385c0 8.543 6.974 15.533 15.498 15.533h20.646c7.618 0 13.794 6.19 13.794 13.825v6.201c0 7.835 6.337 14.186 14.154 14.186h3.55c7.817 0 14.154-6.351 14.154-14.186 0-6.219 3.443-11.799 8.558-14.596-2.522-3.295-6.479-5.43-10.943-5.43z" fill="#924d24"/><path d="m335.283 253.243h-20.661c-8.53 0-15.509-6.974-15.509-15.498v-.384c0-9.662 7.911-17.567 17.58-17.567h-43.267c-9.669 0-17.58 7.905-17.58 17.567v.384c0 8.524 6.979 15.498 15.509 15.498h20.661c7.624 0 13.805 6.176 13.805 13.794v6.187c0 7.817 6.342 14.154 14.164 14.154h3.552c7.823 0 14.164-6.337 14.164-14.154 0-6.196 3.436-11.756 8.542-14.551-2.523-3.295-6.487-5.43-10.96-5.43z" fill="#924d24"/><path d="m126.187 253.243h-20.646c-8.524 0-15.498-6.974-15.498-15.498v-.384c0-9.662 7.905-17.567 17.568-17.567h-43.268c-9.662 0-17.568 7.905-17.568 17.567v.384c0 8.524 6.974 15.498 15.498 15.498h20.646c7.618 0 13.794 6.176 13.794 13.794v6.187c0 7.817 6.337 14.154 14.154 14.154h3.55c7.817 0 14.154-6.337 14.154-14.154 0-6.205 3.443-11.772 8.558-14.563-2.521-3.288-6.478-5.418-10.942-5.418z" fill="#924d24"/><path d="m83.159 339.766-6.944-10.086c-2.42-3.515-1.532-8.326 1.983-10.745 3.516-2.421 8.326-1.531 10.745 1.983l6.944 10.086c2.42 3.515 1.532 8.326-1.983 10.745-3.512 2.419-8.324 1.533-10.745-1.983z" fill="#cb6c35"/><path d="m126.469 339.766-6.944-10.086c-2.42-3.515-1.532-8.326 1.983-10.745 3.516-2.421 8.326-1.531 10.745 1.983l6.944 10.086c2.42 3.515 1.532 8.326-1.983 10.745-3.512 2.419-8.325 1.533-10.745-1.983z" fill="#cb6c35"/><path d="m169.779 339.766-6.944-10.086c-2.42-3.515-1.532-8.326 1.983-10.745 3.516-2.421 8.326-1.531 10.745 1.983l6.944 10.086c2.419 3.515 1.532 8.326-1.983 10.745-3.512 2.419-8.325 1.533-10.745-1.983z" fill="#cb6c35"/><path d="m213.088 339.766-6.944-10.086c-2.419-3.515-1.532-8.326 1.983-10.745 3.516-2.421 8.326-1.531 10.745 1.983l6.944 10.086c2.42 3.515 1.532 8.326-1.983 10.745-3.512 2.419-8.324 1.533-10.745-1.983z" fill="#cb6c35"/><path d="m26.06 423.723c7.742 22.46 29.371 40.792 54.685 40.792h349.751c25.314 0 46.943-18.333 54.685-40.792z" fill="#c9f0fe"/><path d="m111.355 423.723h-85.295c7.742 22.46 29.371 40.792 54.685 40.792h85.295c-25.314 0-46.942-18.333-54.685-40.792z" fill="#9be8fd"/><path d="m496.903 392.103h-481.807c-8.303 0-15.096 7.723-15.096 15.908v2.881c0 8.185 6.793 14.882 15.096 14.882h481.807c8.303 0 15.096-6.697 15.096-14.882v-2.881c0-8.185-6.793-15.908-15.096-15.908z" fill="#9be8fd"/><path d="m85.295 410.892v-2.881c0-8.185 6.793-15.907 15.096-15.907h-85.295c-8.303-.001-15.096 7.722-15.096 15.907v2.881c0 8.185 6.793 14.882 15.096 14.882h85.295c-8.302 0-15.096-6.697-15.096-14.882z" fill="#62ddfc"/></svg>