<svg width="200" height="200" xmlns="http://www.w3.org/2000/svg"><path d="M121.786 69.626c0 20.447-16.623 37.022-37.129 37.022-20.506 0-37.129-16.575-37.129-37.022s16.623-37.021 37.129-37.021c20.506 0 37.129 16.574 37.129 37.021zm0 0" fill="#b4e6a0"/><g fill="#96d7a5"><path d="M53.275 66.916a37.167 37.167 0 00-5.703 3.869c.172 5.65 1.615 11.346 4.528 16.642 9.86 17.928 32.43 24.492 50.41 14.66a37.27 37.27 0 005.702-3.868c-.173-5.651-1.616-11.347-4.529-16.643-9.86-17.928-32.428-24.492-50.408-14.66zm0 0"/><path d="M91.348 33.21a45.413 45.413 0 00-9.971 19.69c-6.822-5.168-15.091-8.218-23.623-8.806a37.277 37.277 0 00-3.511 4.278c9.573-.12 19.04 3.234 26.305 9.46a44.11 44.11 0 00-.17 8.133 2.182 2.182 0 003.226 1.752 2.173 2.173 0 001.13-2.067c-.841-11.488 3.406-23.008 11.386-31.236a37.628 37.628 0 00-4.772-1.205zm0 0"/><path d="M89.298 92.765c-20.506 0-37.13-16.575-37.13-37.022 0-1.526.08-3.036.26-4.513-6.195 10.81-6.771 24.48-.327 36.197 9.86 17.928 32.428 24.492 50.409 14.66 10.868-5.942 17.576-16.519 19-27.912-6.41 11.101-18.443 18.59-32.212 18.59zm0 0"/></g><path d="M108.213 98.219c-.1-3.26-.639-6.533-1.622-9.737a36.918 36.918 0 01-17.293 4.283c-16.696 0-30.814-10.99-35.485-26.109-.178.094-.361.164-.538.26a37.695 37.695 0 00-5.736 3.889 36.691 36.691 0 004.562 16.622c9.861 17.928 32.429 24.492 50.409 14.66a37.27 37.27 0 005.703-3.868zm0 0" fill="#78c3a5"/><path d="M168.198 115.903c0 20.447-16.623 37.023-37.129 37.023-20.506 0-37.129-16.576-37.129-37.023 0-20.446 16.623-37.021 37.129-37.021 20.506 0 37.129 16.575 37.129 37.021zm0 0" fill="#b4e6a0"/><path d="M124.89 85.106c-1.66-1.656-3.496-3.121-5.365-4.396-5.392 1.747-10.426 4.744-14.711 9.015-14.5 14.458-14.5 37.899 0 52.358a37.13 37.13 0 005.322 4.374c5.392-1.748 10.472-4.723 14.754-8.995 14.501-14.458 14.501-37.899 0-52.356zm0 0" fill="#96d7a5"/><path d="M167.993 112.107a45.679 45.679 0 00-21.739-4.027c3.065-7.976 3.688-16.731 1.866-25.063-1.641-.846-3.342-1.532-5.068-2.119 2.795 9.13 2.183 19.074-1.778 27.77a44.512 44.512 0 00-7.878 2.115 2.175 2.175 0 00-.785 3.579 2.192 2.192 0 002.309.502c10.824-4.022 23.099-3.19 33.255 2.145a37.508 37.508 0 00-.182-4.902zm0 0" fill="#96d7a5"/><path d="M111.776 135.14c-13.316-13.277-14.367-34.114-3.224-48.629-1.293.986-2.555 2.035-3.738 3.213-14.5 14.459-14.5 37.9 0 52.357 14.5 14.459 38.008 14.459 52.509 0a37.3 37.3 0 003.257-3.703c-14.558 11.112-35.488 10.041-48.804-3.238zm0 0" fill="#96d7a5"/><path d="M104.814 142.081a37.124 37.124 0 005.287 4.385 37.597 37.597 0 0010.077-5.036 37.535 37.535 0 01-8.402-6.29c-13.325-13.286-14.384-34.157-3.218-48.673l-.001-.001a36.884 36.884 0 00-3.743 3.258c-14.5 14.459-14.5 37.9 0 52.357zm0 0" fill="#78c3a5"/><path d="M103.221 127.473c0 21.724-17.661 39.335-39.449 39.335-21.789 0-39.451-17.611-39.451-39.335 0-21.725 17.662-39.335 39.451-39.335 21.788 0 39.449 17.61 39.449 39.335zm0 0" fill="#b4e6a0"/><path d="M73.053 157.554c-21.786 0-39.449-17.612-39.449-39.336a39.101 39.101 0 017.303-22.804c-10.039 7.131-16.586 18.833-16.586 32.059 0 21.724 17.662 39.335 39.451 39.335 13.265 0 25.003-6.534 32.154-16.543a39.39 39.39 0 01-22.873 7.289zm0 0" fill="#96d7a5"/><path d="M35.924 108.962c-2.495 0-4.928.258-7.294.699-2.734 5.352-4.309 11.394-4.309 17.812 0 21.724 17.662 39.335 39.451 39.335a39.67 39.67 0 007.295-.699c2.733-5.352 4.307-11.392 4.307-17.811 0-21.724-17.662-39.336-39.45-39.336zm0 0" fill="#96d7a5"/><path d="M73.053 157.554c-21.786 0-39.449-17.612-39.449-39.336 0-3.17.383-6.287 1.097-9.234-2.064.07-4.141.315-6.116.683-2.734 5.353-4.264 11.388-4.264 17.806 0 21.724 17.662 39.335 39.451 39.335 2.496 0 4.906-.225 7.273-.667a39.62 39.62 0 003.216-8.608c-.406.013-.799.021-1.208.021zm0 0" fill="#78c3a5"/><path d="M88.669 96.955a48.47 48.47 0 00-19.383 13.265c-3.708-8.29-9.851-15.341-17.498-20.235a39.328 39.328 0 00-5.426 2.182c8.98 4.765 16.047 12.724 19.624 22.225a47.179 47.179 0 00-4.325 7.491 2.313 2.313 0 002.108 3.277 2.32 2.32 0 002.112-1.353c5.103-11.131 14.966-19.698 26.616-23.298a40.097 40.097 0 00-3.828-3.554zm0 0" fill="#96d7a5"/></svg>