<svg viewBox="0 0 512 512" xmlns="http://www.w3.org/2000/svg"><g fill="#ff8087"><path d="m256 0c-13.683594 0-24.773438 11.09375-24.773438 24.773438v16.515624h49.546876v-16.515624c0-13.679688-11.089844-24.773438-24.773438-24.773438zm0 0"/><path d="m437.675781 16.515625c-9.121093 0-16.515625 7.394531-16.515625 16.515625v8.257812h33.03125v-8.257812c.003906-9.121094-7.390625-16.515625-16.515625-16.515625zm0 0"/><path d="m350.96875 8.257812c-11.402344 0-20.644531 9.242188-20.644531 20.644532v12.386718h41.289062v-12.386718c0-11.402344-9.242187-20.644532-20.644531-20.644532zm0 0"/></g><path d="m462.453125 41.289062h-412.90625c-9.121094 0-16.515625 7.394532-16.515625 16.515626v181.679687h445.9375v-181.679687c0-9.121094-7.394531-16.515626-16.515625-16.515626zm0 0" fill="#9a6c5e"/><path d="m140.386719 173.417969v-132.128907h-90.839844c-9.121094 0-16.515625 7.394532-16.515625 16.515626v181.679687h445.9375v-16.515625h-289.035156c-27.363282 0-49.546875-22.183594-49.546875-49.550781zm0 0" fill="#785353"/><path d="m204.449219 297.535156.246093.988282c5.886719 23.542968 27.039063 40.054687 51.304688 40.054687s45.417969-16.515625 51.304688-40.054687l.246093-.988282c3.675781-14.703125 16.890625-25.019531 32.046875-25.019531h-167.195312c15.15625 0 28.371094 10.316406 32.046875 25.019531zm0 0" fill="#f5dcb4"/><path d="m297.289062 470.710938h-82.578124c-18.242188 0-33.03125 14.789062-33.03125 33.03125h148.644531c0-18.246094-14.789063-33.03125-33.035157-33.03125zm0 0" fill="#ebc9a0"/><path d="m478.96875 74.324219c-37.179688 0-37.179688 33.03125-74.359375 33.03125-37.175781 0-37.175781-33.03125-74.355469-33.03125-37.152344 0-37.152344 33.03125-74.304687 33.03125-37.167969 0-37.167969-33.03125-74.332031-33.03125-37.148438 0-37.148438 33.03125-74.300782 33.03125-37.140625 0-37.140625-33.03125-74.285156-33.03125v-16.519531c0-9.121094 7.394531-16.515626 16.515625-16.515626h412.902344c9.125 0 16.519531 7.394532 16.519531 16.515626zm0 0" fill="#ff9ba0"/><path d="m338.582031 512h-165.164062c-4.5625 0-8.257813-3.695312-8.257813-8.257812s3.695313-8.257813 8.257813-8.257813h165.160156c4.566406 0 8.261719 3.695313 8.261719 8.257813s-3.695313 8.257812-8.257813 8.257812zm0 0" fill="#f5dcb4"/><path d="m495.484375 272.515625h-478.96875c-9.121094 0-16.515625-7.394531-16.515625-16.515625s7.394531-16.515625 16.515625-16.515625h478.96875c9.121094 0 16.515625 7.394531 16.515625 16.515625s-7.394531 16.515625-16.515625 16.515625zm0 0" fill="#faebc8"/><path d="m156.902344 239.484375h-140.386719c-9.121094 0-16.515625 7.394531-16.515625 16.515625s7.394531 16.515625 16.515625 16.515625h478.96875c9.121094 0 16.515625-7.394531 16.515625-16.515625h-338.582031c-9.121094 0-16.515625-7.394531-16.515625-16.515625zm0 0" fill="#f5dcb4"/><path d="m262.371094 289.03125h48.613281c5.792969-9.992188 16.613281-16.515625 28.613281-16.515625h-167.195312c15.15625 0 28.371094 10.316406 32.046875 25.019531l.246093.988282c5.886719 23.542968 27.039063 40.054687 51.304688 40.054687 3.769531 0 7.554688-.417969 11.128906-1.179687-9.144531-7.523438-15.457031-16.503907-19.601562-24.574219-5.582032-10.878907 2.617187-23.792969 14.84375-23.792969zm0 0" fill="#ebc9a0"/><path d="m256 437.675781c-13.683594 0-24.773438-11.089843-24.773438-24.773437v-49.546875c0-13.683594 11.089844-24.773438 24.773438-24.773438s24.773438 11.089844 24.773438 24.773438v49.546875c0 13.683594-11.089844 24.773437-24.773438 24.773437zm0 0" fill="#f5dcb4"/><path d="m247.742188 412.902344v-49.546875c0-10.769531 6.992187-19.929688 16.59375-23.34375-2.597657-.921875-5.425782-1.429688-8.335938-1.429688-13.683594 0-24.773438 11.089844-24.773438 24.773438v49.546875c0 13.683594 11.089844 24.773437 24.773438 24.773437 2.910156 0 5.71875-.507812 8.3125-1.429687-9.601562-3.410156-16.570312-12.570313-16.570312-23.34375zm0 0" fill="#ebc9a0"/><path d="m272.515625 470.710938h-33.03125c-9.121094 0-16.515625-7.394532-16.515625-16.515626 0-9.125 7.394531-16.515624 16.515625-16.515624h33.03125c9.121094 0 16.515625 7.394531 16.515625 16.515624 0 9.121094-7.394531 16.515626-16.515625 16.515626zm0 0" fill="#ebc9a0"/><path d="m289.03125 454.195312h-33.03125c-9.121094 0-16.515625-7.394531-16.515625-16.515624h33.03125c9.121094-.003907 16.515625 7.390624 16.515625 16.515624zm0 0" fill="#f5dcb4"/><path d="m33.03125 148.644531h445.9375v16.515625h-445.9375zm0 0" fill="#cd916e"/><path d="m33.03125 189.933594h445.9375v16.515625h-445.9375zm0 0" fill="#cd916e"/><path d="m143.210938 189.933594h-110.179688v16.515625h119.984375c-4.277344-4.765625-7.621094-10.351563-9.804687-16.515625zm0 0" fill="#b67f5f"/><path d="m33.03125 148.644531h107.355469v16.515625h-107.355469zm0 0" fill="#b67f5f"/><path d="m140.386719 41.289062h-90.839844c-9.121094 0-16.515625 7.394532-16.515625 16.515626v16.515624c37.144531 0 37.144531 33.035157 74.285156 33.035157 15.878906 0 24.960938-6.046875 33.070313-12.957031zm0 0" fill="#ff8087"/><path d="m264.363281 1.445312c-2.59375-.921874-5.453125-1.445312-8.363281-1.445312-13.683594 0-24.773438 11.09375-24.773438 24.773438v16.515624h16.515626v-16.515624c0-10.769532 7.023437-19.917969 16.621093-23.328126zm0 0" fill="#e6646e"/><path d="m359.246094 9.988281c-2.539063-1.136719-5.339844-1.730469-8.277344-1.730469-11.402344 0-20.644531 9.246094-20.644531 20.644532v12.386718h16.515625v-12.386718c0-8.460938 5.121094-15.726563 12.40625-18.914063zm0 0" fill="#e6646e"/><path d="m446 18.765625c-2.4375-1.417969-5.300781-2.25-8.324219-2.25-9.121093 0-16.515625 7.394531-16.515625 16.515625v8.257812h16.515625v-8.257812c0-6.097656 3.410157-11.40625 8.324219-14.265625zm0 0" fill="#e6646e"/><path d="m161.03125 8.257812c-11.402344 0-20.644531 9.242188-20.644531 20.644532v12.386718h41.289062v-12.386718c0-11.402344-9.242187-20.644532-20.644531-20.644532zm0 0" fill="#ff8087"/><path d="m169.320312 9.992188c-2.53125-1.109376-5.347656-1.734376-8.289062-1.734376-11.398438 0-20.644531 9.242188-20.644531 20.644532v12.386718h16.515625v-12.386718c0-8.460938 5.132812-15.722656 12.417968-18.910156zm0 0" fill="#e6646e"/><path d="m74.324219 16.515625c-9.121094 0-16.515625 7.394531-16.515625 16.515625v8.257812h33.03125v-8.257812c0-9.121094-7.394532-16.515625-16.515625-16.515625zm0 0" fill="#ff8087"/><path d="m82.636719 18.757812c-2.441407-1.417968-5.289063-2.242187-8.316407-2.242187-9.121093 0-16.515624 7.394531-16.515624 16.515625v8.257812h16.515624v-8.257812c.003907-6.097656 3.398438-11.410156 8.316407-14.273438zm0 0" fill="#e6646e"/></svg>