<svg height="512pt" viewBox="-2 0 512 512.00072" width="512pt" xmlns="http://www.w3.org/2000/svg"><path d="m287.527344 258.8125c8.425781 47.515625-28.519532 71.945312-37.445313 37.445312 0 0-17.609375 5.039063-30.4375-7.789062s-7.789062-30.4375-7.789062-30.4375c-34.5-8.925781-10.070313-45.871094 37.445312-37.445312zm0 0" fill="#f39bff"/><path d="m287.527344 258.8125-10.304688-10.300781c6.113282 34.464843-11.644531 56.773437-25.265625 53.269531 11.28125 25.988281 43.496094 1.726562 35.570313-42.96875zm0 0" fill="#eb76e4"/><path d="m454.472656 91.863281c47.515625 8.425781 71.945313-28.515625 37.445313-37.445312 0 0 5.042969-17.605469-7.785157-30.4375-12.832031-12.828125-30.4375-7.785157-30.4375-7.785157-8.929687-34.5-45.871093-10.070312-37.445312 37.445313zm0 0" fill="#f39bff"/><path d="m497.441406 56.292969c3.507813 13.625-18.804687 31.382812-53.269531 25.269531l10.300781 10.300781c44.695313 7.925781 68.957032-24.289062 42.96875-35.570312zm0 0" fill="#eb76e4"/><g fill="#ff8c72"><path d="m331.222656 142.195312-56.476562-69.703124-11.628906-5.738282c-25.773438 25.570313-39.328126 61.289063-37.015626 97.523438 0 0 0 0 .003907.003906l22.382812 30.679688 70.015625-10.558594 33.382813-28.175782zm0 0"/><path d="m351.886719 156.226562-29.082031 36.40625-54.523438 36.488282-5.867188 15.875c25.574219 25.773437 61.289063 39.328125 97.523438 37.015625 0 0 0 0 .007812-.003907l27.691407-33.003906-14.0625-73.824218zm0 0"/><path d="m461.082031 126.847656-66.980469-5.761718-26.070312 16.511718-16.144531 18.628906 21.6875 18.953126 67.085937 70.519531c25.773438-25.574219 39.328125-61.289063 37.011719-97.523438 0 0 0 0 0-.007812zm0 0"/><path d="m343.835938 30.441406s0 0-.003907 0l-37.378906 23.003906 8.792969 54.558594 15.976562 34.191406 20.664063 14.03125 16.144531-18.628906 26.070312-16.511718 47.257813-53.632813c-25.570313-25.773437-61.289063-39.328125-97.523437-37.011719zm0 0"/><path d="m52.167969 314.320312c-46.042969 2.523438-71.613281-30.355468-34.109375-40.09375 0 0-9.488282-15.355468 2.5625-27.40625 12.050781-12.050781 27.402344-2.5625 27.402344-2.5625 9.742187-37.503906 42.621093-11.933593 40.09375 34.109376zm0 0"/></g><path d="m10.613281 276.8125c-26.066406 11.929688-1.003906 39.84375 41.554688 37.507812l10.300781-10.304687c-32.6875 1.796875-55.050781-14.257813-51.855469-27.203125zm0 0" fill="#f2564c"/><path d="m197.683594 459.835938c-2.527344 46.039062 30.351562 71.613281 40.09375 34.105468 0 0 15.351562 9.488282 27.402344-2.5625 12.050781-12.046875 2.5625-27.402344 2.5625-27.402344 37.503906-9.742187 11.933593-42.621093-34.109376-40.09375zm0 0" fill="#ff8c72"/><path d="m207.984375 449.53125-10.300781 10.304688c-2.335938 42.554687 25.574218 67.617187 37.507812 41.550781-12.949218 3.195312-29-19.167969-27.207031-51.855469zm0 0" fill="#f2564c"/><path d="m160.714844 298.511719-69.050782 3.871093-43.472656 29.453126c-.125 1.628906-.1875 3.257812-.1875 4.878906 0 16.003906 6.097656 31.996094 18.308594 44.203125l3.5625 3.566406 91.097656 2.6875 48.554688-39.847656zm0 0" fill="#a1d3e8"/><path d="m237.738281 404.1875-76.765625-17.015625-42.28125 46.125 12.390625 12.390625c24.410157 24.410156 63.996094 24.410156 88.40625 0 11.515625-11.511719 17.601563-26.410156 18.25-41.5zm0 0" fill="#a1d3e8"/><path d="m387.519531 248.371094c-1.5.746094-3.007812 1.476562-4.542969 2.171875-14.203124 6.386719-28.960937 9.925781-43.640624 10.863281-26.851563 1.714844-53.40625-5.296875-75.769532-19.527344l-1.148437 3.117188c20.546875 20.710937 48.222656 33.8125 77.257812 36.667968 6.695313.65625 13.46875.78125 20.269531.34375l27.691407-33.003906zm0 0" fill="#f2564c"/><path d="m477.671875 148.171875-16.589844-21.324219-4.09375-.351562c.023438.355468.054688.714844.082031 1.074218 2.296876 35.992188-11.066406 71.46875-36.507812 97.003907l20.097656 21.121093c15.300782-15.183593 26.296875-33.941406 32.222656-54.261718 4.074219-13.984375 5.730469-28.726563 4.789063-43.261719zm0 0" fill="#f2564c"/><path d="m440.660156 245.699219c-10.4375 10.363281-22.878906 19.058593-37.082031 25.445312s-28.957031 9.925781-43.632813 10.863281c.410157-.769531 31.914063-59.378906-8.058593-125.78125 0 0 62.167969 3.554688 88.773437 89.472657zm0 0" fill="#f7e491"/><path d="m438.960938 70.179688 2.398437-2.722657c-1.753906-1.769531-3.5625-3.488281-5.425781-5.140625-1.914063-1.703125-3.875-3.355468-5.886719-4.941406 3.203125 4.042969 6.183594 8.3125 8.914063 12.804688zm0 0" fill="#f2564c"/><path d="m466.808594 104.535156c6.386718 14.203125 9.925781 28.960938 10.863281 43.636719-.769531-.414063-59.382813-31.914063-125.78125 8.054687 0 0 3.550781-62.167968 89.46875-88.769531 10.363281 10.433594 19.058594 22.875 25.449219 37.078125zm0 0" fill="#f7e491"/><path d="m351.886719 156.226562s-62.164063-3.554687-88.769531-89.472656c10.4375-10.363281 22.878906-19.058594 37.082031-25.449218 14.203125-6.386719 28.957031-9.925782 43.632812-10.863282-.414062.773438-31.914062 59.382813 8.054688 125.785156zm0 0" fill="#f7e491"/><path d="m351.886719 156.226562s-3.554688 62.164063-89.472657 88.769532c-10.363281-10.4375-19.058593-22.878906-25.445312-37.082032-6.390625-14.203124-9.925781-28.957031-10.863281-43.632812.769531.414062 59.382812 31.914062 125.78125-8.054688zm0 0" fill="#f7e491"/><path d="m477.671875 148.171875c-.9375-14.675781-4.476563-29.433594-10.863281-43.636719-6.390625-14.203125-15.085938-26.644531-25.449219-37.078125-1.15625.355469-2.292969.726563-3.417969 1.09375 3.058594 4.867188 5.835938 9.988281 8.261719 15.382813 6.386719 14.203125 9.925781 28.957031 10.863281 43.632812.003906.003906.003906.003906.003906.003906.277344 4.347657.320313 8.683594.148438 12.996094 12.609375 3.394532 20.179688 7.457032 20.453125 7.605469zm0 0" fill="#ffd35b"/><path d="m428.492188 215.828125c-2.648438 3.210937-5.457032 6.308594-8.4375 9.265625-14.257813 14.144531-31.960938 24.761719-51.113282 30.785156-3.554687 15.996094-8.832031 25.816406-8.996094 26.128906 3.667969-.230468 7.339844-.628906 11.011719-1.191406 26.171875-4.019531 50.914063-16.457031 69.703125-35.117187-3.511718-11.335938-7.644531-21.222657-12.167968-29.871094zm0 0" fill="#ffd35b"/><path d="m253.121094 234.476562c1.972656 2.488282 4.03125 4.917969 6.1875 7.25 1.015625 1.101563 2.039062 2.191407 3.105468 3.269532 1.382813-.425782 2.738282-.863282 4.074219-1.308594-4.632812-2.773438-9.101562-5.84375-13.367187-9.210938zm0 0" fill="#ffd35b"/><path d="m86.914062 360.316406c-11.609374-11.609375-17.605468-26.996094-18.003906-42.515625l-20.425781 13.835938c-1.394531 17.667969 4.492187 35.851562 17.683594 49.132812.050781.050781.09375.101563.140625.148438l3.566406 3.566406 42.460938 1.253906zm0 0" fill="#75bddb"/><path d="m160.714844 298.511719c-29.894532 12.300781-69.3125 25.78125-112.523438 33.324219 1.113282-14.335938 7.160156-28.363282 18.121094-39.324219 24.410156-24.410157 63.996094-24.410157 88.40625 0zm0 0" fill="#f7e491"/><path d="m151.6875 425.085938-13.289062-13.289063-19.707032 21.5 12.390625 12.390625c24.410157 24.410156 63.996094 24.410156 88.40625 0 .820313-.820312 1.605469-1.660156 2.371094-2.511719.222656-.25.433594-.503906.652344-.757812.542969-.625 1.074219-1.257813 1.589843-1.898438.222657-.277343.441407-.558593.65625-.835937.519532-.671875 1.019532-1.347656 1.507813-2.035156.164063-.234376.335937-.464844.5-.699219.632813-.921875 1.25-1.851563 1.828125-2.796875-24.085938 14.8125-56.039062 11.800781-76.90625-9.066406zm0 0" fill="#75bddb"/><path d="m237.738281 404.1875c-33.402343 12.363281-74.941406 24.367188-119.046875 29.109375l-48.816406-48.8125c53.703125-5.773437 103.597656-22.320313 139.652344-37.160156l9.960937 9.960937c12.203125 12.199219 18.308594 28.199219 18.308594 44.203125 0 .902344-.019531 1.800781-.058594 2.699219zm0 0" fill="#f7e491"/><path d="m154.617188 427.816406c-.996094-.878906-1.980469-1.78125-2.929688-2.730468l-46.039062-46.039063c-11.652344 2.265625-23.613282 4.128906-35.769532 5.4375l28.816406 28.820313 19.996094 19.992187c12.214844-1.3125 24.222656-3.199219 35.925782-5.480469zm0 0" fill="#ffd35b"/><path d="m69.902344 327.488281c-2.6875-14.996093-.007813-30.847656 8.054687-44.132812-.984375.601562-1.953125 1.234375-2.910156 1.894531-.109375.074219-.21875.148438-.324219.226562-.832031.578126-1.648437 1.1875-2.457031 1.8125-.183594.140626-.371094.28125-.554687.425782-.738282.585937-1.460938 1.195312-2.179688 1.820312-.203125.175782-.410156.34375-.613281.523438-.886719.789062-1.757813 1.605468-2.605469 2.453125-.742188.742187-1.457031 1.5-2.152344 2.269531-.054687.058594-.101562.117188-.152344.175781-9.339843 10.433594-14.507812 23.484375-15.53125 36.824219 7.261719-1.269531 14.40625-2.71875 21.425782-4.292969zm0 0" fill="#ffd35b"/></svg>