<svg width="200" height="200" xmlns="http://www.w3.org/2000/svg"><path d="M86.193 165.961c-15.197 0-29.421-6.981-40.054-19.657-10.408-12.408-16.14-28.852-16.14-46.304s5.732-33.896 16.14-46.304C56.771 41.02 70.995 34.038 86.192 34.038s29.421 6.981 40.054 19.658c10.407 12.408 16.139 28.852 16.139 46.304s-5.732 33.896-16.139 46.304c-10.633 12.676-24.858 19.657-40.054 19.657z" fill="#fddb8d"/><path d="M126.247 53.696c-10.598-12.635-24.764-19.61-39.904-19.656v131.92c15.14-.046 29.306-7.021 39.904-19.656 10.407-12.407 16.139-28.851 16.139-46.303s-5.732-33.896-16.139-46.304z" fill="#fbac5b"/><path d="M111.952 61.024C106.222 49.54 98.12 40.42 88.523 34.648a4.28 4.28 0 00-2.263-.607l-.042-.001h-.007a4.283 4.283 0 00-2.28.619c-9.533 5.802-17.578 14.921-23.263 26.37-5.753 11.584-8.793 25.02-8.793 38.858 0 13.822 3.034 27.246 8.775 38.82 5.588 11.269 13.463 20.282 22.793 26.103 0 0 1.845 1.149 2.927 1.149.76 0 1.529-.198 2.215-.612 9.58-5.78 17.666-14.901 23.385-26.376 5.784-11.606 8.842-25.077 8.842-38.955 0-13.894-3.064-27.377-8.86-38.992zM60.078 99.887c0-22 8.449-42.352 22.013-54.148v108.295c-13.563-11.797-22.013-32.156-22.013-54.147zm30.216 54.54V45.603c13.746 11.751 22.314 32.223 22.314 54.412 0 22.18-8.57 42.658-22.314 54.41z" fill="#fbac5b"/><path d="M111.952 61.024C106.222 49.54 98.12 40.42 88.523 34.648a4.277 4.277 0 00-2.18-.606v131.916l.027.001c.76 0 1.529-.198 2.215-.612 9.58-5.78 17.666-14.9 23.385-26.375 5.784-11.607 8.842-25.077 8.842-38.956 0-13.894-3.064-27.377-8.86-38.992zm-21.658 93.402V45.604c13.746 11.751 22.314 32.223 22.314 54.412 0 22.18-8.57 42.658-22.314 54.41z" fill="#fd8f32"/><path d="M111.837 165.961c-32.071 0-58.163-23.938-58.163-53.363 0-2.134 1.836-3.865 4.101-3.865h15.08a4.23 4.23 0 012.917 1.147c9.516 9.065 22.324 14.057 36.065 14.057 13.74 0 26.549-4.992 36.065-14.057a4.23 4.23 0 012.916-1.147h15.08c2.266 0 4.102 1.73 4.102 3.865 0 29.425-26.092 53.363-58.163 53.363z" fill="#fff2df"/><path d="M165.899 108.733h-15.081a4.23 4.23 0 00-2.916 1.147c-9.516 9.065-22.324 14.057-36.065 14.057v42.024c32.071 0 58.163-23.938 58.163-53.363 0-2.135-1.836-3.865-4.101-3.865z" fill="#fde4c3"/><path d="M170 112.598c0-2.135-1.836-3.865-4.101-3.865h-4.102v3.864c0 25.163-22.412 45.634-49.96 45.634s-49.96-20.47-49.96-45.633v-3.865h-4.102c-2.265 0-4.101 1.73-4.101 3.865v.006c0 .454.006.907.018 1.358l.008.192c.012.395.027.79.05 1.184l.001.024c1.52 27.216 25.37 49.11 55.03 50.526l.075.004c.42.02.84.033 1.263.045.078.002.156.006.234.007a63.66 63.66 0 008.882-.412c28.59-3.345 50.765-25.808 50.765-52.934z" fill="#fd8f32"/><path d="M165.899 108.733h-4.102v3.865c0 25.162-22.412 45.633-49.96 45.633v7.73a63.66 63.66 0 007.397-.43C147.826 162.188 170 139.725 170 112.599c0-2.135-1.836-3.865-4.101-3.865z" fill="#fb6f44"/></svg>