<svg viewBox="0 0 500 500" xmlns="http://www.w3.org/2000/svg"><path d="M124.112 129.535c0 16.474-5.824 36.154-5.824 53.81 0 14.843-.783 30.112 11.466 40.459 21.953 18.543 65.53 6.506 69.652-24.096 4.306-31.959-6.857-45.582-27.222-59.066-13.486-8.928-33.434-25.597-48.072-11.107zm195.078 30.214c-66.36 13.114-76.471 91.416.194 104.855 12.977 2.275 22.046-4.738 31.837-12.097 25.116-18.879 43.141-63.273 16.837-89.577-5.35-5.35-32.854-6.346-48.868-3.181zm-50.24 134.979c-13.164.321-54.328-9.183-65.803.509-14.82 12.515-37.54 22.786-33.253 49.14 6.056 37.227 24.586 34.593 33.386 37.631 8.189 2.829 17.998 4.288 26.987 3.067 48.67-6.608 48.9-90.596 38.683-90.347z" fill="#395a00"/></svg>