<svg id="Layer_1" enable-background="new 0 0 512 512" height="512" viewBox="0 0 512 512" width="512" xmlns="http://www.w3.org/2000/svg"><g><g><path d="m344 288v-32c0-8.836-7.163-16-16-16h-192c-8.837 0-16 7.164-16 16v32c-17.673 0-32 14.327-32 32v144c0 17.673 14.327 32 32 32h224c17.673 0 32-14.327 32-32v-144c0-17.673-14.327-32-32-32z" fill="#9bd2f0"/></g><g><g><path d="m344 288v-32h-104c-4.418 0-8 3.582-8 8v24z" fill="#50c3eb"/></g><g><path d="m232 464h-144c0 17.673 14.327 32 32 32h224c17.673 0 32-14.327 32-32v-144h-136c-4.418 0-8 3.582-8 8z" fill="#50c3eb"/></g></g><g><g><path d="m88 368v96c0 17.673 14.327 32 32 32h224c17.673 0 32-14.327 32-32v-96z" fill="#faa037"/></g><g><g><path d="m232 368v96h-144c0 17.673 14.327 32 32 32h224c17.673 0 32-14.327 32-32v-96z" fill="#f57828"/></g></g></g><g><path d="m424 48h-107.338c-6.173-14.125-20.261-24-36.662-24v80c16.401 0 30.489-9.875 36.662-24h107.338z" fill="#96aab9"/></g><g><g><path d="m272 112h-80c-26.51 0-48-21.49-48-48 0-26.51 21.49-48 48-48h80c4.418 0 8 3.582 8 8v80c0 4.418-3.582 8-8 8z" fill="#f57828"/></g><g><path d="m272 16h-80c-26.467 0-48 21.533-48 48 0 4.418 3.582 8 8 8s8-3.582 8-8c0-17.645 14.355-32 32-32h88v-8c0-4.418-3.582-8-8-8z" fill="#ffbe55"/></g></g><g><path d="m248 240v-104c0-13.255 10.745-24 24-24h-40v128z" fill="#f57828"/></g><g><path d="m216 136v104h16v-128h-40c13.255 0 24 10.745 24 24z" fill="#ffbe55"/></g><g><path d="m232 240h-16v128h16 16v-128z" fill="#faa037"/></g><g><path d="m232 288h16v-32h-8c-4.418 0-8 3.582-8 8z" fill="#f57828"/></g><g><path d="m232 368h16v-48h-8c-4.418 0-8 3.582-8 8z" fill="#f57828"/></g><g><path d="m144 256c-4.418 0-8 3.582-8 8v24h16v-24c0-4.418-3.582-8-8-8z" fill="#d7e6e6"/></g><g><path d="m112 312c-4.418 0-8 3.582-8 8v48h16v-48c0-4.418-3.582-8-8-8z" fill="#d7e6e6"/></g><g><path d="m104 368h16v96h-16z" fill="#ffbe55"/></g></g></svg>