<svg id="Layer_3" enable-background="new 0 0 64 64" height="512" viewBox="0 0 64 64" width="512" xmlns="http://www.w3.org/2000/svg"><g><path d="m4.399 24.519c-.917-1.652-1.399-3.511-1.399-5.4 0-6.141 4.978-11.119 11.119-11.119 2.542 0 5.038.675 7.234 1.956l3.605 2.103c3.302 1.926 7.057 2.941 10.88 2.941 2.094 0 4.175-.338 6.162-1 1.987-.662 4.068-1 6.162-1h2.728c2.652 0 5.217.949 7.23 2.675 2.463 2.11 3.88 5.192 3.88 8.435 0 4.967-2.339 9.644-6.312 12.624-6.289 4.716-13.937 7.266-21.798 7.266h-.2c-7.514 0-14.751-2.842-20.257-7.955-3.599-3.342-6.648-7.232-9.034-11.526z" fill="#e7b541"/><path d="m62 24.11c0-3.243-1.417-6.324-3.88-8.435-2.013-1.726-4.578-2.675-7.23-2.675h-2.728c-2.094 0-4.175.338-6.162 1s-4.068 1-6.162 1c-3.823 0-7.578-1.015-10.88-2.941l-3.605-2.103c-2.196-1.281-4.692-1.956-7.234-1.956-1.602 0-3.121.345-4.497.955-1.634 1.936-2.622 4.433-2.622 7.164 0 1.89.482 3.748 1.399 5.4 2.386 4.294 5.434 8.184 9.034 11.527 5.507 5.112 12.743 7.954 20.257 7.954h.2c6.844 0 13.526-1.934 19.291-5.547 3.057-2.954 4.819-7.037 4.819-11.343z" fill="#ffd997"/><path d="m61.765 21.872c-2.128-3.05-5.586-4.872-9.317-4.872-1.756 0-3.515.415-5.086 1.201-3.662 1.831-7.762 2.799-11.858 2.799-4.485 0-8.779-1.913-11.781-5.247-2.719-3.021-6.609-4.753-10.672-4.753-2.184 0-4.316.612-6.168 1.769l-2.913 1.824c-.417.934-.704 1.935-.85 2.984l.82-.609 4.004-2.502c1.532-.96 3.298-1.466 5.107-1.466 3.497 0 6.846 1.491 9.186 4.091 3.379 3.755 8.216 5.909 13.268 5.909 4.403 0 8.813-1.041 12.752-3.01 1.295-.647 2.744-.99 4.191-.99 3.141 0 6.057 1.561 7.799 4.174l.896 1.341.76 1.264c.058-.552.097-1.108.097-1.669 0-.759-.085-1.507-.235-2.238z" fill="#e7b541"/><path d="m13.165 33.925-5.31 2.414c-3.566 1.621-5.855 5.175-5.855 9.092 0 5.541 3.963 10.29 9.415 11.281 1.055.192 2.124.288 3.196.288 4.222 0 8.408-.782 12.345-2.306 15.094-5.843 25.044-20.363 25.044-36.548v-.047c0-.731-.072-1.46-.216-2.177-1.037-5.188-5.592-8.922-10.883-8.922-6.436 0-12.076 4.308-13.769 10.517-1.984 7.274-7.103 13.288-13.967 16.408z" fill="#f9cb6e"/><path d="m48 15.146v-.047c0-.731-.072-1.46-.216-2.177-.377-1.887-1.224-3.577-2.398-4.97-1.38-.61-2.898-.952-4.485-.952-6.436 0-12.076 4.308-13.769 10.517-1.984 7.274-7.103 13.288-13.967 16.408l-5.31 2.414c-3.566 1.621-5.855 5.175-5.855 9.092 0 2.818 1.028 5.427 2.752 7.445.837.377 1.726.666 2.663.837 1.055.191 2.124.287 3.196.287 4.222 0 8.408-.782 12.345-2.306 15.094-5.843 25.044-20.363 25.044-36.548z" fill="#ffe1b6"/><path d="m30.934 19.978c-1.748 7.692-7.18 13.99-14.53 16.849-3.955 1.538-7.349 4.175-9.812 7.627l-1.404 1.966 1.627 1.162 1.404-1.966c2.238-3.134 5.319-5.529 8.91-6.926 7.971-3.099 13.86-9.928 15.757-18.269 1.147-5.051 4.072-9.53 8.251-12.625l.947-.732c-.39-.042-.784-.064-1.183-.064-.735 0-1.457.063-2.166.172-3.905 3.306-6.661 7.791-7.801 12.806z" fill="#f9cb6e"/></g></svg>