<svg width="200" height="200" xmlns="http://www.w3.org/2000/svg"><path d="M150.772 84.282c.335-1.704.531-3.474.531-5.3 0-12.728-8.617-23.046-19.247-23.046-.236 0-.464.032-.697.042-2.06-8.35-8.503-14.446-16.144-14.446-.541 0-1.075.037-1.604.097-2.688-6.858-8.49-11.62-15.238-11.62-5.193 0-9.834 2.82-12.924 7.244-1.953-.948-4.084-1.483-6.323-1.483-8.485 0-15.485 7.522-16.65 17.296-.064 0-.127-.01-.19-.01-10.63 0-19.247 10.316-19.247 23.044a26.9 26.9 0 001.532 9.02c-6.65 4.424-11.156 12.912-11.156 22.668 0 14.32 9.694 25.927 21.653 25.927l85.91 1.24c11.96 0 22.354-12.848 22.354-27.167 0-10.425-5.151-19.388-12.56-23.506zm0 0" fill="#fff6d8"/><g fill="#ffedb1"><path d="M59.88 99.146c0-9.253 4.811-14.404 8-18.074 1.1-1.269 1.4-3.247.888-4.97a40.32 40.32 0 01-1.67-11.524c0-12.021 5.137-22.595 12.913-28.78-.005-.022.006.022 0 0-8.879-.544-16.329 7.156-17.535 17.268-.064 0-.126-.01-.19-.01-10.63 0-19.247 10.316-19.247 23.044 0 3.202.548 6.25 1.532 9.02-7.058 4.695-11.7 13.967-11.104 24.473.777 13.733 10.29 24.122 21.786 24.122l34.431 1.472 13.502-1.472c-28.871 0-43.306-17.284-43.306-34.57zm0 0"/><path d="M94.599 58.752c-4.586 3.26-7.583 8.982-8.14 15.26-1.59-.507-3.242-.793-4.926-.793-1.868 0-3.717.322-5.499.955-1.272.455-1.998 2.059-1.62 3.584.38 1.525 1.712 2.38 2.993 1.94a12.271 12.271 0 014.126-.716c4.715 0 9.144 2.767 11.848 7.406.47.803 1.218 1.233 1.976 1.233.475 0 .957-.17 1.374-.518 1.091-.912 1.356-2.708.597-4.012-1.636-2.804-3.761-5.063-6.165-6.73 0-.086-.007-.173-.007-.26 0-5.058 2.26-9.81 5.9-12.399 1.141-.81 1.517-2.579.839-3.946-.68-1.368-2.155-1.82-3.296-1.004zm35.843 45.224c-1.784-2.04-3.95-3.393-6.245-4.098.29-4.98-1.254-9.879-4.301-13.366-1.509-1.73-3.271-3.007-5.238-3.8-1.267-.512-2.625.304-3.048 1.809-.425 1.507.252 3.143 1.511 3.648 1.293.524 2.451 1.365 3.45 2.507 1.993 2.283 3.011 5.48 2.84 8.739-1.701.182-3.389.687-4.973 1.625-1.464.87-2.787 2.03-3.929 3.463-.92 1.148-.888 2.97.073 4.07.465.538 1.065.802 1.663.802.632 0 1.264-.298 1.737-.889.756-.945 1.627-1.713 2.588-2.281 3.492-2.074 7.733-1.292 10.545 1.935.961 1.1 2.481 1.055 3.402-.09.919-1.151.884-2.974-.075-4.074zm-48.336 7.234a7.886 7.886 0 01-3.16-.712c-3.644-1.649-6.057-5.892-6.006-10.555.02-1.593-1.045-2.898-2.372-2.92h-.033c-1.314 0-2.388 1.263-2.406 2.841-.08 7.084 3.583 13.524 9.116 16.024a12.08 12.08 0 004.795 1.083h.033c1.313 0 2.387-1.264 2.405-2.842.017-1.592-1.044-2.897-2.372-2.92zm0 0"/></g><path d="M169.843 115.289c-11.38 14.197-33.35 18.481-51.19 19.037-.635.019-1.19.478-1.435 1.18l-3.794 10.853c-.347.994.032 2.133.864 2.539 3.22 1.573 11.477 4.982 22.58 4.982 28.34 0 34.444-25.083 35.744-37.028.202-1.857-1.686-2.915-2.77-1.563zm0 0" fill="#afdc82"/><path d="M55.068 130.834c-8.641 0-21.765-6.92-29.039-16.719-.766-1.033-2.168-.334-2.055 1.042.905 11.059 6.144 38.723 35.906 38.723 7.218 0 12.03-2.88 12.03-2.88zm0 0" fill="#96cd82"/><path d="M84.985 153.318c1.791 2.765 3.6 6.414 5.109 11.198.71 2.25 2.494 3.767 4.502 3.767h7.553c2.013 0 3.796-1.523 4.508-3.779 2.33-7.375 6.035-13.606 8.626-16.501l-31.344.115zm0 0" fill="#afdc82"/><path d="M93.428 133.458c-12.558 1.84-27.371-2.08-39.831-18.748-.757-1.011-2.157-.275-2.026 1.073 1.325 13.674 8.31 55.381 44.397 32.335zm0 0" fill="#afdc82"/><path d="M119.482 118.088c-4.364 7.481-17.802 16.352-33.136 15.766l.814 3.32c1.864 7.614 6.692 13.943 13.09 16.01a15.95 15.95 0 006.576.696c11.414-1.17 14.486-22.466 15.309-34.717.12-1.798-1.79-2.554-2.653-1.075zm0 0" fill="#cde682"/></svg>