<svg width="200" height="200" xmlns="http://www.w3.org/2000/svg"><path d="M157.778 73.95l8.729-12.222c1.094-1.533.766-3.497-.68-4.066L153.85 52.96l-11.387 15.945zm0 0" fill="#e1ffa0"/><g fill="#b4e6a0"><path d="M151.244 37.69c1.455-.182 2.547.917 2.44 2.457l-.841 11.337-23.703 3.727 11.569-16.199zm0 0"/><path d="M138.544 28.704c-.305-1.428-1.708-2.094-3.134-1.487l-10.48 4.516 4.253 23.508 11.568-16.2zm-15.474 2.399l-8.08-9.719c-1.018-1.172-2.988-.835-4.084.698L102.396 34l7.683 10.922zm0 0"/></g><path d="M145.3 78.836l-10.541 2.888c-2.794.766-5.4 2.643-7.241 5.22L66.19 172.82c-5.748 8.048-15.758 10.792-22.354 6.125l-1.991-1.409L125.134 60.91l21.9 15.497zm0 0" fill="#e1ffa0"/><path d="M101.499 47.844l.724 10.857c.192 2.88-.735 5.946-2.576 8.522l-61.326 85.874c-5.75 8.05-5.063 18.361 1.535 23.03l1.99 1.408 83.289-116.626-21.9-15.496zm0 0" fill="#b4e6a0"/><path d="M129.705 51.14l-4.208-20.944c-.328-1.636-2.306-1.92-3.544-.51l-9.768 11.128c-.874.998-2.241 1.093-2.896.205l-6.505-8.87c-1.135-1.546-3.686-.847-4.575 1.254l-5.504 12.99c-1.037 2.447-.511 5.027 1.284 6.297l8.222 5.818.688-.963c1.316-1.844 3.77-1.87 4.464-.048l4.567 11.956 16.295-14.342c1.169-1.027 1.755-2.602 1.48-3.972zm0 0" fill="#96d7a5"/><path d="M160.083 77.185l-10.515 9.441c-1.984 1.78-4.604 2.133-6.4.862l-8.22-5.816 7.165-10.034c1.565-2.19 4.136-3.26 6.28-2.612l11.376 3.445c1.838.556 2.014 3.185.314 4.714zm0 0" fill="#cdf5a0"/><path d="M155.875 53.603c.895-1.576-.04-3.317-1.68-3.12l-20.97 2.53c-1.373.165-2.642 1.19-3.204 2.584l-2.421 6.006-7.94-5.618-80.517 112.746c-1.854 2.596-1.573 5.96.626 7.517l3.982 2.817c2.198 1.556 5.484.715 7.338-1.881l69.89-97.866c1.842-2.578 4.729-4.106 7.528-3.983l12.434.544c1.345.059 2.723-.77 3.47-2.09zm0 0" fill="#cdf5a0"/><path d="M116.459 73.058l14.872-5.821c1.066-.418 1.906-1.449 2.119-2.6l3.83-20.735-18.415 10.415c-1.022.579-1.725 1.707-1.77 2.846zm0 0" fill="#b4e6a0"/></svg>