<svg viewBox="0 0 512 512" xmlns="http://www.w3.org/2000/svg"><path d="M450.351 207.785l-201.072-90.866c-12.272-5.511-25.881-7.776-39.402-6.745-117.16 8.924-156.983 87.507-156.983 122.076h397.457v-24.465z" fill="#fff082"/><path d="M445.035 312.283c3.047-.613 5.316-3.029 5.316-6v-98.498H78.536c-14.162 0-25.642 10.954-25.642 24.465v171.246c0 13.511 11.48 24.463 25.642 24.463h130.447c2.694 0 5.096-1.612 5.99-4.037 4.387-11.897 16.267-20.426 30.238-20.426 13.972 0 25.852 8.529 30.24 20.426.895 2.425 3.296 4.037 5.99 4.037H443.94c3.541 0 6.411-2.738 6.411-6.116v-55.686c0-2.971-2.269-5.386-5.316-5.999-11.611-2.335-20.327-12.166-20.327-23.938 0-11.772 8.716-21.602 20.327-23.937z" fill="#ffdc64"/><g transform="matrix(.77628 0 0 .7406 52.894 79.352)" fill="#e1a546"><circle cx="421.16" cy="256" r="16.516"/><circle cx="206.45" cy="371.61" r="16.516"/></g><circle cx="82.58" cy="396.39" r="24.774" transform="matrix(.77628 0 0 .7406 52.894 79.352)" fill="#ffc850"/><path d="M117.001 354.568c-7.804 0-14.488 4.452-17.503 10.823a19.87 19.87 0 017.887-1.649c10.62 0 19.231 8.215 19.231 18.348 0 2.689-.64 5.223-1.729 7.524 6.678-2.877 11.344-9.254 11.344-16.698 0-10.133-8.61-18.348-19.23-18.348z" fill="#e1a546"/><circle cx="297.29" cy="239.48" r="24.774" transform="matrix(.77628 0 0 .7406 52.894 79.352)" fill="#ffc850"/><path d="M283.675 238.366c-7.803 0-14.488 4.452-17.503 10.823 2.412-1.039 5.068-1.65 7.887-1.65 10.621 0 19.232 8.216 19.232 18.348 0 2.69-.64 5.223-1.729 7.525 6.677-2.878 11.345-9.254 11.345-16.699 0-10.133-8.61-18.347-19.232-18.347z" fill="#e1a546"/><circle cx="132.13" cy="272.52" r="41.29" transform="matrix(.77628 0 0 .7406 52.894 79.352)" fill="#ffc850"/><path d="M155.463 250.597c-12.16 0-22.612 6.538-28.044 16.057 4.548-2.361 9.682-3.825 15.222-3.825 17.703 0 32.053 13.691 32.053 30.579 0 5.288-1.534 10.185-4.009 14.524 9.978-5.183 16.83-15.153 16.83-26.755.001-16.888-14.349-30.58-32.052-30.58z" fill="#e1a546"/><circle cx="355.1" cy="371.61" r="41.29" transform="matrix(.77628 0 0 .7406 52.894 79.352)" fill="#ffc850"/><path d="M328.55 323.989c-12.161 0-22.613 6.537-28.044 16.056 4.548-2.361 9.681-3.825 15.223-3.825 17.701 0 32.052 13.692 32.052 30.579 0 5.289-1.534 10.185-4.009 14.524 9.978-5.182 16.831-15.153 16.831-26.755 0-16.888-14.351-30.579-32.053-30.579z" fill="#e1a546"/><path d="M52.894 238.366c14.162 0 25.642 10.953 25.642 24.463v110.087c0 20.266 17.221 36.695 38.463 36.695h86.544c5.31 0 9.616 4.108 9.616 9.174 0 5.067-4.306 9.174-9.616 9.174H78.536c-14.162 0-25.642-10.952-25.642-24.463v-165.13z" fill="#ffc850"/></svg>