<svg viewBox="0 0 500 500" xmlns="http://www.w3.org/2000/svg"><path d="M339.306 145.932c0 13.194 4.048 20.94 15.286 28.95 9.448 6.734 24.068 4.973 33.652 9.703 1.861.918 2.238 4.421 3.839 6 12.252 12.097 12.003 28.136 9.036 45.384-2.742 15.95-14.446 34.337-24.748 46.36-8.438 9.846-18.767 23.275-24.342 34.038-1.922 3.709-8.512 5.708-10.96 9.35-2.305 3.43-4.445 8.066-7.95 10.64-18.83 13.832-39.391 26.232-57.444 41.785-14.193 12.229-27.526 24.357-45.723 31.056-4.764 1.753-15.582 5.928-20.827 3.34-10.129-5-18.832-8.397-30.702-10.65-10.153-1.926-21.812 3.902-31.815.81-1.982-.613-.755-4.141-2.789-4.763-15.208-4.653-26.793-7.681-38.8-19.358-6.895-6.705-18.204-8.89-24.498-16.718-3.87-4.813-10.403-9.903-11.485-16.257-3.065-18.005 2.829-32.014 11.867-47.253 5.013-8.452 7.478-19.592 14.526-26.754 5.566-5.657 8.68-17.953 13.787-25.34 10.302-14.905 21.745-29.048 33.63-42.501 25.236-28.573 57.158-56.884 93.67-70.013 24.333-8.75 49.003-26.421 78.604-11.81 7.772 3.836 20.628 1.183 20.628 8.759 0 2.049.205 15.242 3.558 15.242z" fill="#ffa6a6"/><path d="M313.297 61.14c-13.687-1.411-21.15 16.513-29.508 24.8-7.568 7.504-17.53 12.73-25.902 19.291-17.661 13.843-62.288 6.292-81.47 27.098-15.754 17.084-31.62 50.78-16.53 68.5 17.19 20.186 63.632 20.317 81.402-4.26 20.467-28.312 28.888-55.953 40.181-72.587 14.67-21.612 54.735-22.633 53.75-35.736-.299-3.974-8.942-6.636-9.543-8.25-2.922-7.86-1.284-17.714-12.38-18.857z" fill="#ffbaba"/><path d="M38.173 308.154c-1.457-4.226 7.472-47.685 21.093-62.528 2.774-3.022 26.991-28.886 31.078-36.36 9.923-18.147 18.352-18.448 30.394-35.684 3.939-5.636 9.116-10.674 13.226-16.172 1.379-1.843 9.162-9.986 11.322-9.478 7.789 1.833-1.185 20.335-1.635 27.53-.391 6.25-17.179 33.968-15.669 39.936 2.067 8.17-8.732 22.576-10.823 24.474-1.477 1.342-8.911 15.01-6.493 14.545 10.709-2.063 21.146-16.245 28.95-14.941 9.125 1.525 7.984 5.697 16.806 2.441 11.252-4.152 16.577-1.75 20.33 3.974 3.68 5.613-1.688 10.041-5.46 21.774-11.3 35.162-125.08 63.811-133.119 40.49z" fill="#ffbaba"/><path d="M106.328 384.611c-2.973-2.576-36.04-22.433-41.994-29.873-21.907-27.375-3.256-62.47 7.898-90.53 7.115-17.898 30.556-31.746 44.225-45.375 11.441-11.405 27.382-25.054 41.486-33.318 9.109-5.337 16.524-16.118 23.92-23.49 6.806-6.785 16.378-11.663 24.593-16.477 22.23-13.026 34.862-26.137 62.411-29.896 11.518-1.57 22.674-5.972 34.298-7.133 5.847-.583 12.33 1.099 18.104 0 3.44-.654 14.523-4.309 18.1-1.787 7.108 5.01 8.623 18.51 10.24 26.249 3.828 18.326-3.802 43.176 2.07 60.091 1.933 5.571 4.168 18.33 2.249 23.782-1.463 4.158-6.078 7.756-9.135 10.426-2.757 2.41 11.336 12.393 12.176 14.946 4.769 14.492 18.481 44.534 13.243 60.972-8.639 27.12-21.747 37.862-46.026 53.506-8.176 5.267-13.707 18.16-20.435 25.056-11.5 11.788-26.29 20.663-37.93 32.166-10.567 10.443-111.171-4.256-127.885-9.99-10.035-3.441-23.71-12.47-31.608-19.325z" fill="#ffcfcf"/><path d="M436.427 152.476c-14.704 0-20.62 20.905-28.572 31.138-7.198 9.263-17.197 16.255-25.356 24.558-17.213 17.517-65.483 14.214-83.529 39.692-14.822 20.923-27.897 60.435-9.872 78.513 20.536 20.596 69.9 15.392 86.022-14.144 18.57-34.021 24.413-65.904 34.544-85.808 13.163-25.861 55.62-31.62 53.103-46.16-.765-4.41-10.248-6.39-11.067-8.125-3.99-8.455-3.355-19.664-15.273-19.664z" fill="#ffdbdb"/><path d="M144.908 433.653c-1.385-4.557 9.985-50.22 25.191-65.288 3.096-3.069 30.108-29.299 34.795-37.025 11.383-18.758 20.422-18.656 34.037-36.342 4.452-5.783 10.207-10.87 14.837-16.498 1.553-1.886 10.227-10.137 12.52-9.49 8.266 2.333-2.116 21.516-2.896 29.127-.679 6.613-19.811 35.183-18.443 41.591 1.874 8.771-10.29 23.516-12.609 25.427-1.637 1.349-10.168 15.48-7.558 15.105 11.555-1.652 23.323-16.178 31.626-14.404 9.71 2.074 8.314 6.444 17.898 3.43 12.223-3.843 17.826-1.029 21.608 5.233 3.708 6.14-2.226 10.568-6.752 22.828-13.567 36.742-136.614 61.452-144.254 36.306z" fill="#ffdbdb"/></svg>