<svg viewBox="0 0 512 512" xmlns="http://www.w3.org/2000/svg"><path d="M214.176 135.241c0 21.05-17.688 38.115-39.506 38.115s-39.506-17.065-39.506-38.115 17.688-38.115 39.506-38.115c9.863 0 26.247-6.202 33.168-.437 8.391 6.99 6.338 27.017 6.338 38.552zm101.407 7.431c0-19.498 15.184-35.305 33.914-35.305 18.73 0 33.914 15.807 33.914 35.305 0 19.498-15.184 35.305-33.914 35.305-8.467 0-22.532 5.744-28.474.404-7.203-6.475-5.44-25.025-5.44-35.709zM192.24 330.751c0 19.498 15.184 35.305 33.914 35.305 18.73 0 33.914-15.807 33.914-35.305 0-19.498-15.184-35.305-33.914-35.305-8.467 0-22.532-5.745-28.474-.404-7.203 6.474-5.44 25.025-5.44 35.71zm223.485-57.609c0-21.05-17.687-38.115-39.505-38.115-21.819 0-39.506 17.065-39.506 38.115s17.687 38.115 39.506 38.115c9.862 0 26.246 6.201 33.168.436 8.391-6.99 6.337-27.017 6.337-38.551zm-114.357-68.284c0 21.05-17.687 38.115-39.505 38.115s-39.506-17.065-39.506-38.115 17.688-38.115 39.506-38.115c9.863 0 26.246-6.202 33.168-.436 8.391 6.989 6.337 27.017 6.337 38.551z" fill="#f7d676"/><path d="M281.393 188.457c0 19.498 15.184 35.305 33.914 35.305 18.73 0 33.914-15.807 33.914-35.305 0-19.498-15.184-35.305-33.914-35.305-8.467 0-22.53-5.744-28.474-.404-7.203 6.474-5.44 25.025-5.44 35.709zm-107.045-7.539c0-21.05-17.687-38.115-39.505-38.115s-39.506 17.065-39.506 38.115 17.688 38.115 39.506 38.115c9.863 0 26.246 6.202 33.168.436 8.391-6.989 6.337-27.016 6.337-38.551zm143.68 203.05c0 21.05-17.687 38.115-39.505 38.115s-39.506-17.065-39.506-38.115 17.688-38.115 39.506-38.115c9.863 0 26.246-6.201 33.168-.436 8.391 6.99 6.337 27.017 6.337 38.551zM108.37 316.193c0-19.498 15.184-35.305 33.914-35.305 18.73 0 33.914 15.807 33.914 35.305 0 19.498-15.184 35.305-33.914 35.305-8.467 0-22.532 5.745-28.474.404-7.203-6.474-5.44-25.025-5.44-35.71zm98.171-63.251c0 19.498 15.185 35.305 33.915 35.305 18.73 0 33.914-15.807 33.914-35.305 0-19.498-15.184-35.305-33.914-35.305-8.467 0-22.532-5.744-28.474-.404-7.203 6.475-5.44 25.025-5.44 35.709z" fill="#d7ae34"/><path d="M265.57 291.206c0 19.498 15.184 35.305 33.914 35.305 18.73 0 33.914-15.807 33.914-35.305 0-19.498-15.184-35.305-33.914-35.305-8.467 0-22.532-5.744-28.474-.404-7.203 6.474-5.44 25.025-5.44 35.709zm-32.433-112.378c0-21.05-17.688-38.115-39.506-38.115s-39.506 17.065-39.506 38.115 17.688 38.115 39.506 38.115c9.863 0 26.246 6.202 33.168.436 8.391-6.989 6.338-27.017 6.338-38.551zM415.68 369.733c0 21.05-17.688 38.115-39.506 38.115s-39.505-17.065-39.505-38.115 17.687-38.115 39.505-38.115c9.863 0 26.247-6.201 33.169-.436 8.39 6.99 6.337 27.017 6.337 38.551zm-258.212-98.065c0-19.498 15.184-35.305 33.914-35.305 18.73 0 33.915 15.807 33.915 35.305 0 19.498-15.185 35.305-33.915 35.305-8.467 0-22.53 5.745-28.473.404-7.204-6.474-5.44-25.025-5.44-35.71zm-10.481 105.817c0 19.499 15.184 35.305 33.914 35.305 18.73 0 33.915-15.806 33.915-35.305 0-19.498-15.185-35.305-33.915-35.305-8.467 0-22.53-5.744-28.473-.403-7.204 6.474-5.44 25.025-5.44 35.708z" fill="#ffd043"/></svg>