<svg width="200" height="200" xmlns="http://www.w3.org/2000/svg"><path d="M161.68 130.063l-3.48-22.557-11.95-15.366-25.289 5.658c-4.643 5.823-19.23 22.292-38.38 26.658-8.475 2.011-17.205 1.241-25.392-2.242-14.364-6.088-22.746-13.886-27.637-21.049-.942-1.46-2.541-1.872-3.844-.992-1.302.882-1.955 2.82-1.57 4.658a80.83 80.83 0 00.91 4.057 76.5 76.5 0 00.66 2.445c9.778 34.057 40.134 49.46 66.088 52.249 25.338 2.711 54.442-4.9 69.884-33.52zm0 0" fill="#e64c3c"/><path d="M144.771 100.243s-19.344 11.284-29.691-11.172c-.315-.697-.28-1.57.09-2.22.368-.652 1-.955 1.607-.774 5.097 1.548 14.746 2.987 20.74-5.47 8.44-11.91 31.594 21.166 29.67 29.858-1.441 6.519-1.594 14.576 1.248 19.252a2.57 2.57 0 01.003 2.331c-.37.703-1.037 1.037-1.677.84-4.467-1.179-10.058-5.384-10.5-18.962 0 0-1.396 18.117-14.952 13.372-.514-.175-.925-.672-1.094-1.325-.17-.65-.074-1.37.252-1.91 3.11-5.05 9.696-17.395 4.304-23.82zm0 0" fill="#4c8056"/><path d="M156.933 91.936c-.934 0-1.79-.68-2.217-1.757-.426-1.078-.353-2.375.19-3.36 3.931-6.744 5.6-15.256 4.627-23.615-1.37-9.449-6.775-18.228-16.063-26.092-1.155-.978-1.479-2.983-.726-4.48.754-1.495 2.301-1.916 3.455-.938 10.479 8.866 16.61 19.065 18.242 30.316 1.23 10.098-.745 20.41-5.478 28.587-.47.844-1.227 1.344-2.03 1.34zm0 0" fill="#527f72"/><path d="M79.772 139.535c-1.123 0-2.268-.036-3.434-.107-1.375-.088-2.436-1.604-2.37-3.387.107-1.76 1.254-3.105 2.615-3.066 13.563 1.03 27.005-3.805 38.22-13.75 1.082-1.079 2.633-.831 3.48.557.847 1.39.674 3.404-.387 4.52-11.16 10.138-24.497 15.468-38.124 15.233zm46.555-24.249c0 1.787-1.116 3.235-2.494 3.235s-2.495-1.448-2.495-3.235 1.117-3.235 2.495-3.235 2.494 1.449 2.494 3.235zm0 0" fill="#fb7b76"/></svg>