<svg height="200" width="200" xmlns="http://www.w3.org/2000/svg"><path d="M75.584 110.793a494.782 494.782 0 01-4.929 5.159c-1.994 2.051-4.194 3.834-6.537 5.403-6.591 4.412-23.233 16.962-28.643 24.606-4.412 6.236-1.495 10.097 1.364 12.132a18.834 18.834 0 012.847 2.496 19.635 19.635 0 012.317 3.064c1.89 3.076 5.479 6.217 11.267 1.469 7.099-5.823 18.752-23.746 22.85-30.844 1.454-2.52 3.114-4.888 5.018-7.037a330.988 330.988 0 014.709-5.186l-10.263-11.262z" fill="#d2d5d7"/><path d="M85.847 122.055c31.16-33.732 76.198-70.229 76.198-70.229l-19.573-21.077s-35.428 46.666-66.888 80.044l10.263 11.262z" fill="#659c35"/><path d="M91.695 128.474c.264-.333.48-.71.76-1.032 30.762-35.42 74.927-58.373 74.927-58.373l-11.38-12.254c-13.305 11.105-45.924 39-70.158 65.237l5.85 6.422z" fill="#88c057"/><path d="M85.841 122.052a335.154 335.154 0 00-4.703 5.192c-1.905 2.146-3.561 4.515-5.018 7.038-3.977 6.888-15.06 23.939-22.201 30.263l1.741 1.835c2.977 4.246 8.055 8.994 14.16 4.582 7.487-5.406 14.438-28.396 17.964-36.106a31.283 31.283 0 013.91-6.379l-5.853-6.425z" fill="#efefef"/><path d="M69.768 104.41a28.575 28.575 0 01-6.41 4.627c-7.162 3.796-28.51 11.28-33.53 19.343-4.095 6.574.312 12.04 4.255 15.248l1.76 1.854c5.732-7.68 21.818-19.807 28.275-24.129 2.34-1.566 4.54-3.352 6.536-5.403a445.95 445.95 0 004.932-5.157l-5.818-6.382z" fill="#e6e6e6"/><path d="M75.586 110.795c24.46-25.952 51.308-59.925 62.046-73.762l-12.956-13.95s-21.541 47.802-54.435 80.927c-.146.146-.322.26-.47.4l5.815 6.385z" fill="#436b1c"/><path d="M48.322 161.884a2.416 2.416 0 01-1.778-.794l-7.551-8.13c-.983-1.059-.983-2.771 0-3.831.985-1.06 2.574-1.06 3.56 0l7.548 8.129c.984 1.06.984 2.772 0 3.832a2.41 2.41 0 01-1.779.794zm-10.067-24.389a2.418 2.418 0 01-1.778-.794l-2.517-2.71c-.984-1.059-.984-2.771 0-3.832.984-1.059 2.575-1.059 3.558 0l2.518 2.71c.983 1.061.983 2.773 0 3.832a2.411 2.411 0 01-1.781.794zm27.683 29.809a2.422 2.422 0 01-1.779-.794l-2.517-2.71c-.984-1.059-.984-2.772 0-3.832.984-1.059 2.575-1.059 3.559 0l2.517 2.709c.984 1.06.984 2.773 0 3.833a2.415 2.415 0 01-1.78.794z" fill="#fff"/><path fill="#88c057" d="M82.469 118.351l70.677-76.107-3.558-3.832-70.642 76.069z"/></svg>