<svg height="512pt" viewBox="0 0 512 512" width="512pt" xmlns="http://www.w3.org/2000/svg"><path d="m192.554688 506.765625-187.320313-187.320313c-6.980469-6.980468-6.980469-18.296874 0-25.277343l288.933594-288.933594c6.980469-6.980469 18.296875-6.980469 25.277343 0l187.320313 187.320313c6.980469 6.980468 6.980469 18.296874 0 25.277343l-288.933594 288.933594c-6.980469 6.980469-18.296875 6.980469-25.277343 0zm0 0" fill="#935b45"/><path d="m55.8125 344.746094 288.933594-288.933594c6.980468-6.980469 18.296875-6.980469 25.277344 0l-50.578126-50.578125c-6.980468-6.980469-18.296874-6.980469-25.277343 0l-288.933594 288.933594c-6.980469 6.980469-6.980469 18.296875 0 25.277343l50.578125 50.578126c-6.980469-6.980469-6.980469-18.296876 0-25.277344zm0 0" fill="#774839"/><path d="m313.28125 55.96875 50.675781 50.675781c3.574219 3.578125 3.574219 9.371094 0 12.949219l-53.855469 53.855469c-3.578124 3.574219-9.371093 3.574219-12.949218 0l-50.675782-50.675781c-3.574218-3.574219-3.574218-9.371094 0-12.945313l53.859376-53.859375c3.574218-3.574219 9.371093-3.574219 12.945312 0zm0 0" fill="#b2785b"/><path d="m313.28125 55.96875c-3.574219-3.574219-9.371094-3.574219-12.945312 0l-53.859376 53.859375c-3.574218 3.574219-3.574218 9.371094 0 12.945313l15.65625 15.652343 66.800782-66.804687zm0 0" fill="#935b45"/><path d="m405.355469 148.042969 50.675781 50.675781c3.574219 3.574219 3.574219 9.371094 0 12.945312l-53.859375 53.859376c-3.574219 3.574218-9.371094 3.574218-12.945313 0l-50.675781-50.675782c-3.574219-3.578125-3.574219-9.371094 0-12.949218l53.855469-53.855469c3.578125-3.574219 9.371094-3.574219 12.949219 0zm0 0" fill="#b2785b"/><path d="m218.027344 151.222656 50.675781 50.675782c3.574219 3.578124 3.574219 9.371093 0 12.949218l-53.855469 53.855469c-3.578125 3.574219-9.371094 3.574219-12.949218 0l-50.675782-50.675781c-3.574218-3.574219-3.574218-9.371094 0-12.945313l53.859375-53.859375c3.574219-3.574218 9.371094-3.574218 12.945313 0zm0 0" fill="#b2785b"/><path d="m218.027344 151.222656c-3.574219-3.574218-9.371094-3.574218-12.945313 0l-53.859375 53.859375c-3.574218 3.574219-3.574218 9.371094 0 12.945313l15.65625 15.652344 66.800782-66.800782zm0 0" fill="#935b45"/><path d="m310.101562 243.296875 50.675782 50.675781c3.574218 3.574219 3.574218 9.371094 0 12.945313l-53.859375 53.859375c-3.574219 3.574218-9.371094 3.574218-12.945313 0l-50.675781-50.675782c-3.574219-3.578124-3.574219-9.371093 0-12.949218l53.855469-53.855469c3.578125-3.574219 9.371094-3.574219 12.949218 0zm0 0" fill="#b2785b"/><path d="m122.773438 246.476562 50.675781 50.675782c3.574219 3.578125 3.574219 9.371094 0 12.949218l-53.855469 53.855469c-3.578125 3.574219-9.371094 3.574219-12.949219 0l-50.675781-50.675781c-3.574219-3.574219-3.574219-9.371094 0-12.945312l53.859375-53.859376c3.574219-3.574218 9.371094-3.574218 12.945313 0zm0 0" fill="#b2785b"/><path d="m122.773438 246.476562c-3.574219-3.574218-9.371094-3.574218-12.945313 0l-53.859375 53.859376c-3.574219 3.574218-3.574219 9.371093 0 12.945312l15.652344 15.652344 66.804687-66.800782zm0 0" fill="#935b45"/><path d="m214.847656 338.550781 50.675782 50.675781c3.574218 3.574219 3.574218 9.371094 0 12.945313l-53.859376 53.859375c-3.574218 3.574219-9.371093 3.574219-12.945312 0l-50.675781-50.675781c-3.574219-3.578125-3.574219-9.371094 0-12.949219l53.855469-53.855469c3.578124-3.574219 9.371093-3.574219 12.949218 0zm0 0" fill="#b2785b"/></svg>