<svg height="512" viewBox="0 0 300 300" width="512" xmlns="http://www.w3.org/2000/svg"><g fill="none"><path d="M124.297 249.032c-7.71-2.417-14.366-7.142-18.616-13.218a42.18 42.18 0 00-5.676-5.932 52.843 52.843 0 00-12.27-6.512c-2.274-.934-3.421-3.181-2.562-5.018.86-1.837 3.4-2.568 5.674-1.633 5.352 2.017 10.371 4.731 14.86 8.036a50.509 50.509 0 016.94 7.194c2.94 4.685 7.917 8.335 13.748 10.083s11.996 1.437 17.028-.858a50.548 50.548 0 019.759-2.177c5.566-.291 11.251.203 16.83 1.463 1.561.304 2.903 1.278 3.52 2.554.616 1.276.414 2.661-.53 3.633-.945.972-2.489 1.383-4.05 1.079a52.843 52.843 0 00-13.829-1.312 42.22 42.22 0 00-8.008 1.82c-6.892 2.736-15.048 3.02-22.818.798z" fill="#c03a2b"/><path d="M68.407 211.238l-9.608 13.296c-.685.947-.766 2.162-.221 3.281.545 1.12 1.653 2.014 2.994 2.416l22.868 6.854c1.34.402 2.758.265 3.83-.37 1.07-.635 1.67-1.694 1.62-2.862l-.602-13.798-.108-2.59zm102.583 30.748l-1.517 2.104-8.092 11.192c-.684.947-.766 2.162-.221 3.282s1.654 2.013 2.995 2.415l22.867 6.854c1.341.402 2.759.266 3.83-.37s1.67-1.694 1.62-2.861l-.71-16.39z" fill="#d25627"/><path d="M180.84 246.886c-14.164-4.245-22.824-17.1-19.344-28.71l30.458-101.616c3.48-11.61-5.18-24.465-19.343-28.71s-28.467 1.725-31.948 13.336l-30.458 101.615c-3.48 11.611-17.784 17.582-31.947 13.337s-22.825-17.1-19.344-28.71L89.372 85.811c10.441-34.833 53.351-52.747 95.842-40.01s68.473 51.299 58.032 86.132L212.787 233.55c-3.48 11.612-17.783 17.583-31.947 13.337z" fill="#e57e25"/><path d="M74.96 196.056c-2.36-.708-3.804-2.85-3.224-4.785l1.05-3.504c.58-1.936 2.965-2.93 5.325-2.223s3.804 2.85 3.224 4.785l-1.05 3.504c-.58 1.935-2.964 2.93-5.325 2.223zm4.202-14.016c-2.361-.708-3.804-2.85-3.224-4.785l12.603-42.048c.58-1.935 2.964-2.93 5.325-2.223s3.804 2.85 3.224 4.785l-12.604 42.048c-.58 1.935-2.964 2.93-5.324 2.223z" fill="#fff"/></g></svg>