<svg id="Capa_1" enable-background="new 0 0 512 512" height="512" viewBox="0 0 512 512" width="512" xmlns="http://www.w3.org/2000/svg"><g><path d="m316 211v106c0 33.137-26.863 60-60 60s-60-26.863-60-60v-287h-120v287c0 99.412 80.588 180 180 180s180-80.588 180-180v-106z" fill="#fabe2c"/><path d="m436 317v-106h-120v106c0 33.137-26.863 60-60 60v120c99.412 0 180-80.588 180-180z" fill="#ff9100"/><g fill="#fed843"><path d="m256 452c74.443 0 135-60.557 135-135v-121c0-8.291-6.709-15-15-15s-15 6.709-15 15v121c0 57.891-47.109 105-105 105s-105-47.109-105-105v-302c0-8.291-6.709-15-15-15s-15 6.709-15 15v302c0 74.443 60.557 135 135 135z"/><path d="m256 392c41.353 0 75-33.647 75-75v-121c0-8.291-6.709-15-15-15s-15 6.709-15 15v121c0 24.814-20.186 45-45 45s-45-20.186-45-45v-302c0-8.291-6.709-15-15-15s-15 6.709-15 15v302c0 41.353 33.647 75 75 75z"/><path d="m436 181c-8.291 0-15 6.709-15 15v121c0 90.981-74.019 165-165 165s-165-74.019-165-165v-302c0-8.291-6.709-15-15-15s-15 6.709-15 15v302c0 107.52 87.48 195 195 195s195-87.48 195-195v-121c0-8.291-6.709-15-15-15z"/></g><g fill="#fabe2c"><path d="m451 317v-121c0-8.291-6.709-15-15-15s-15 6.709-15 15v121c0 90.981-74.019 165-165 165v30c107.52 0 195-87.48 195-195z"/><path d="m391 317v-121c0-8.291-6.709-15-15-15s-15 6.709-15 15v121c0 57.891-47.109 105-105 105v30c74.443 0 135-60.557 135-135z"/><path d="m331 317v-121c0-8.291-6.709-15-15-15s-15 6.709-15 15v121c0 24.814-20.186 45-45 45v30c41.353 0 75-33.647 75-75z"/></g></g></svg>