<svg height="512pt" viewBox="0 -38 512.00103 512" width="512pt" xmlns="http://www.w3.org/2000/svg" xmlns:xlink="http://www.w3.org/1999/xlink"><radialGradient id="a" cx="218.217003569" cy="133.2336281212" gradientUnits="userSpaceOnUse" r="313.9201850836"><stop offset="0" stop-color="#ffb92d"/><stop offset=".4611" stop-color="#ffb72b"/><stop offset=".6748" stop-color="#fdb123"/><stop offset=".8373" stop-color="#faa717"/><stop offset=".9734" stop-color="#f69905"/><stop offset="1" stop-color="#f59500"/></radialGradient><radialGradient id="b" cx="224.6765" cy="129.6616" gradientTransform="matrix(1.003922 0 0 .68859 0 2.803362)" gradientUnits="userSpaceOnUse" r="384.5836"><stop offset="0" stop-color="#be3f45" stop-opacity="0"/><stop offset=".8711" stop-color="#be3f45" stop-opacity=".870588"/><stop offset="1" stop-color="#be3f45"/></radialGradient><linearGradient id="c"><stop offset="0" stop-color="#be3f45" stop-opacity="0"/><stop offset="1" stop-color="#be3f45"/></linearGradient><linearGradient id="d" gradientUnits="userSpaceOnUse" x1="273.2990915508" x2="262.8761725624" xlink:href="#c" y1="289.2387900566" y2="-62.5346756058"/><linearGradient id="e" gradientUnits="userSpaceOnUse" x1="270.7819579202" x2="294.566275591" y1="219.2593027324" y2="504.6710143898"><stop offset="0" stop-color="#8c6239"/><stop offset="1" stop-color="#42210b"/></linearGradient><linearGradient id="f" gradientUnits="userSpaceOnUse" x1="421.292855534" x2="169.8399098408" xlink:href="#c" y1="464.8223384438" y2="15.3340323632"/><path d="m478.269531 165.214844c-10.984375-92.683594-109.359375-165.214844-229.109375-165.214844-127.105468 0-249.160156 75.5625-249.160156 227.742188 0 138.699218 129.375 208.097656 265.507812 208.097656 136.132813 0 246.492188-80.5 246.492188-179.800782 0-33.136718-12.300781-64.167968-33.730469-90.824218zm0 0" fill="url(#a)"/><path d="m353.140625 19.65625c-62.699219-25.226562-133.625-22.191406-193.179687 9.761719-75.078126 40.285156-107.199219 111.476562-87.75 170.601562 32.574218 99.019531 153.738281 127.679688 274.90625 97.714844 121.164062-29.964844 131.152343-132.519531 131.152343-132.519531-7.550781-63.722656-56.414062-117.914063-125.128906-145.558594zm0 0" fill="url(#b)"/><path d="m479.058594 164.285156s-2.746094 148.015625-167.441406 174.679688c-164.699219 26.667968-286.816407-33.773438-239.386719-174.039063 47.433593-140.265625 261.769531-131.261719 294.035156-54.886719 32.476563 76.863282-18.203125 137.050782-94.617187 137.539063-96.671876.621094-121.75-98.992187-43.171876-118.546875 50.007813-12.441406 56.085938 30.933594 23.886719 36.308594-19.277343 3.21875-26.085937 48.058594 16.550781 41.292968 42.636719-6.761718 68.757813-55.511718 30.667969-98.015624-38.09375-42.503907-133.246093-30.273438-166.386719 30.695312-33.140624 60.96875 14.054688 151.828125 175.894532 141.023438 161.835937-10.808594 169.96875-116.050782 169.96875-116.050782zm0 0" fill="url(#d)"/><path d="m478.269531 165.214844s-12.601562 147.503906-178.707031 163.136718c-166.105469 15.632813-283.929688-52.808593-227.257812-189.601562 56.671874-136.792969 269.929687-113.53125 297.039062-35.175781 27.28125 78.855469-27.296875 135.53125-103.574219 130.929687-96.496093-5.820312-114.882812-106.882812-35.171875-121.160156 50.722656-9.082031 53.898438 34.597656 21.410156 37.816406-19.449218 1.929688-29.230468 46.214844 13.761719 42.304688 42.996094-3.90625 72.308594-50.808594 37.132813-95.753906-35.175782-44.949219-130.933594-39.085938-168.0625 19.542968-37.128906 58.625 3.90625 152.425782 166.105468 152.425782 162.199219 0 177.324219-104.464844 177.324219-104.464844zm0 0" fill="url(#e)"/><path d="m471.226562 196.988281c-14.019531 44.28125-54.941406 120.378907-171.664062 131.363281-90.496094 8.519532-166.652344-7.925781-208.078125-46.777343.003906 0 .003906 0 .003906.003906l153.738281 153.734375c6.734376.347656 13.5.527344 20.28125.527344 136.132813 0 246.492188-80.5 246.492188-179.800782 0-33.136718-12.300781-64.167968-33.730469-90.820312-.507812-.550781-6.515625 32.308594-7.042969 31.769531zm0 0" fill="url(#f)"/><g fill="#ff931e"><path d="m142.523438 357.800781c-3.421876-2.628906-8.324219-1.988281-10.953126 1.433594-2.628906 3.417969-1.988281 8.324219 1.433594 10.953125 3.417969 2.628906 8.324219 1.984375 10.953125-1.433594 2.628907-3.421875 1.984375-8.324218-1.433593-10.953125zm0 0"/><path d="m91.105469 296.039062c-5.417969-4.160156-13.179688-3.144531-17.34375 2.269532-4.160157 5.417968-3.144531 13.183594 2.269531 17.34375 5.414062 4.164062 13.179688 3.148437 17.34375-2.269532 4.160156-5.414062 3.144531-13.179687-2.269531-17.34375zm0 0"/><path d="m99.246094 337.441406c-8.332032-6.40625-20.277344-4.839844-26.679688 3.492188-6.40625 8.332031-4.84375 20.277344 3.488282 26.679687 8.332031 6.40625 20.28125 4.839844 26.683593-3.492187 6.402344-8.332032 4.839844-20.277344-3.492187-26.679688zm0 0"/></g><path d="m389.234375 74.085938c-1.78125-3.929688-6.410156-5.667969-10.339844-3.882813-3.925781 1.78125-5.664062 6.414063-3.882812 10.339844 1.785156 3.929687 6.414062 5.667969 10.339843 3.882812 3.929688-1.78125 5.667969-6.414062 3.882813-10.339843zm0 0" fill="#f7931e"/><path d="m413.890625 149c-2.824219-6.222656-10.15625-8.972656-16.375-6.152344-6.21875 2.824219-8.972656 10.15625-6.148437 16.375 2.824218 6.222656 10.152343 8.972656 16.375 6.148438 6.21875-2.820313 8.972656-10.152344 6.148437-16.371094zm0 0" fill="#f7931e"/><path d="m438.292969 103.125c-4.34375-9.570312-15.625-13.804688-25.191407-9.460938-9.570312 4.34375-13.804687 15.621094-9.460937 25.191407 4.34375 9.570312 15.621094 13.804687 25.191406 9.460937 9.570313-4.34375 13.804688-15.625 9.460938-25.191406zm0 0" fill="#f7931e"/></svg>