<svg width="200" height="200" xmlns="http://www.w3.org/2000/svg"><path d="M162.873 117.981c0 33.666-27.983 60.957-62.5 60.957-34.518 0-62.5-27.291-62.5-60.957 0-33.668 27.982-60.958 62.5-60.958 34.517 0 62.5 27.29 62.5 60.958zm0 0" fill="#f98500"/><path d="M144.357 74.681c-10.871 60.648-51.848 84.223-79.694 93.317 26.613 18.015 62.928 13.212 83.661-11.064 20.733-24.278 19.012-59.982-3.967-82.253zm0 0" fill="#f27900"/><path d="M132.98 88.827h5.435v5.3h-5.434zm10.87 15.902h5.435v5.3h-5.435zm-27.174 37.105h5.435v5.3h-5.435zm16.304 2.65h5.435v5.3h-5.434zm-24.456 13.252h5.435v5.3h-5.435zm0 0" fill="#e66000"/><path d="M65.591 84.695l-3.868-3.727a55.096 55.096 0 014.366-3.869l3.433 4.11a49.13 49.13 0 00-3.931 3.486zm-13.84 28.273l-5.402-.577c1.13-10.028 5.186-19.528 11.684-27.376l4.234 3.32c-5.847 7.063-9.497 15.611-10.516 24.633zm0 0" fill="#ff9419"/><path d="M108.662 38.025c-3.482-2.263-5.575-6.075-5.572-10.157h-5.434c-.007 5.858 2.993 11.33 7.991 14.578l1.36.89 3.015-4.411zm0 0" fill="#5f943a"/><path d="M97.656 22.568h5.434v47.706h-5.434zm8.15 16.885c23.46-4.991 46.627 9.512 51.745 32.394-23.462 4.99-46.629-9.513-51.745-32.394zm0 0" fill="#5f943a"/><path d="M149.802 55.431c-11.393 3.711-25.88 2.016-36.72-.145 10.131 13.649 27.588 20.154 44.47 16.569a41.677 41.677 0 00-7.75-16.424zm0 0" fill="#568741"/><path d="M100.373 72.689a17.732 17.732 0 01-9.662-2.86l3.019-4.411a12.204 12.204 0 0013.286 0l3.018 4.411a17.729 17.729 0 01-9.661 2.86zm0 0" fill="#e66000"/></svg>