<svg height="511pt" viewBox="0 -23 512 511" width="511pt" xmlns="http://www.w3.org/2000/svg"><path d="M393.821 62.981c34.131 28.48 11.13 106.927-49.394 176.197-24.536 28.081-51.736 50.207-77.683 64.702 7.457 18.036 12.36 35.641 10.988 49.323 49.81 1.841 99.968-17.793 134.847-57.711 60.525-69.265 52.128-173.366-18.758-232.511zm0 0" fill="#9e6b57"/><path d="M299.044 316.418c-2.354-8.78-5.632-17.801-9.732-26.893-7.563 5.381-15.117 10.192-22.568 14.355 7.457 18.036 12.36 35.641 10.988 49.323 8.521.314 17.054-.015 25.518-.95.635-10.891-.742-22.922-4.206-35.835zm0 0" fill="#875848"/><path d="M393.821 62.981c-34.13-28.476-110.865 6.167-171.39 75.436-17.86 20.442-28.552 44.229-39.178 64.844 16.695 10.865 29.939 21.523 45.538 39.374 17.848 20.429 31.268 41.984 39.558 62.036 25.945-14.495 53.144-36.626 77.683-64.704 60.522-69.268 81.92-148.506 47.789-176.986zm0 0" fill="#875848"/><path d="M289.966 290.987c-9.485-21.483-23.627-43.436-41.232-63.734-16.434-18.944-34.787-35.179-53.481-47.498-4.236 8.047-8.125 15.987-12 23.506 16.695 10.865 29.939 21.523 45.538 39.374 17.848 20.429 31.268 41.984 39.558 62.033 7.138-3.985 14.373-8.571 21.617-13.681zm0 0" fill="#7a4c40"/><path d="M376.091 70.622c-30.599-25.531-99.396 4.112-153.66 66.218-18.064 20.672-32.235 42.334-41.982 62.978 16.389 10.805 33.039 25.306 48.339 42.817 13.22 15.127 24.007 30.875 32.084 46.169 24.076-12.945 49.512-33.344 72.372-59.506 54.267-62.102 73.45-133.143 42.847-158.676zm0 0" fill="#e4eaf8"/><path d="M282.354 275.486c-8.858-16.413-20.235-32.8-33.62-48.233-17.298-19.941-36.722-36.88-56.431-49.408-4.473 7.391-8.439 14.747-11.854 21.973 16.389 10.805 33.039 25.306 48.339 42.817 13.22 15.127 24.007 30.875 32.084 46.167 7.077-3.802 14.272-8.269 21.482-13.316zm0 0" fill="#d8dce5"/><path d="M347.514 91.236c-19.567-16.328-69.359 9.271-111.215 57.171-18.541 21.223-32.412 43.257-40.413 62.641 11.255 8.963 22.397 19.564 32.905 31.587a263.143 263.143 0 0114.169 17.684c20.18-10.325 43.187-28.746 64.195-52.788 41.855-47.903 59.925-99.97 40.359-116.295zm0 0" fill="#d8dce5"/><path d="M264.412 247.017a287.015 287.015 0 00-15.678-19.764c-12.879-14.848-26.941-28.03-41.42-38.972-4.595 7.84-8.424 15.492-11.428 22.767 11.255 8.963 22.397 19.564 32.902 31.587a262.808 262.808 0 0114.168 17.684c6.889-3.523 14.105-7.99 21.456-13.302zm0 0" fill="#c3c8d1"/><path d="M99.582 185.832c-26.06 21.902-7.317 80.478 38.894 133.754 46.209 53.276 102.388 81.076 128.447 59.174-54.119 45.489-135.451 39.179-181.662-14.098-46.209-53.275-39.799-133.34 14.321-178.83zm0 0" fill="#9e6b57"/><path d="M108.657 364.662c-33.483-38.601-39.331-91.266-19.43-134.652-3.661-19.157-.645-34.933 10.355-44.178-54.12 45.49-60.53 125.555-14.321 178.83 28.225 32.54 69.555 47.556 109.78 43.955-32.349-2.881-63.628-17.718-86.384-43.955zm0 0" fill="#875848"/><path d="M230.424 242.647c-46.207-53.276-104.789-78.708-130.848-56.809-26.057 21.903-9.726 82.845 36.481 136.122 46.208 53.276 104.789 78.712 130.849 56.809 26.058-21.902 9.724-82.846-36.482-136.122zm0 0" fill="#e4eaf8"/><path d="M160.131 321.954c-46.21-53.274-62.544-114.22-36.487-136.122 3.695-3.107 8.046-5.257 12.922-6.517-14.994-2.98-27.945-1.081-36.984 6.517-26.06 21.902-9.723 82.848 36.488 136.122 39.656 45.724 88.427 70.934 117.932 63.32-28.231-5.61-63.687-28.521-93.871-63.32zm0 0" fill="#d8dce5"/><path d="M219.837 251.547c-33.835-39.014-74.088-59.863-89.904-46.567-15.821 13.295-1.214 55.699 32.622 94.71 33.835 39.014 74.088 59.862 89.905 46.567 15.817-13.295 1.213-55.698-32.623-94.71zm0 0" fill="#d8dce5"/><path d="M186.629 299.684c-33.839-39.012-48.446-81.414-32.628-94.71a14.966 14.966 0 012.122-1.491c-11.045-3.673-20.306-3.452-26.184 1.491-15.821 13.296-1.211 55.698 32.628 94.71 32.415 37.373 70.716 58.069 87.785 48.052-18.675-6.206-42.466-23.543-63.723-48.052zm0 0" fill="#c3c8d1"/></svg>