<svg height="512" width="512" xmlns="http://www.w3.org/2000/svg"><g transform="matrix(.93839 0 0 .96728 6.783 19.323)"><path d="M283.05 369.602c79.529 0 128-64.471 128-144s-48.471-144-128-144h-40v288z" fill="#ed8989"/><path d="M272 368c79.529 0 128-64.471 128-144S351.529 80 272 80h-40v288z" fill="#ffc9c9"/><path d="M219.343 369.354c79.529 0 128-64.471 128-144s-48.471-144-128-144h-48v288z" fill="#ed8989"/><circle cx="192" cy="224" fill="#ffc9c9" r="144"/><path d="M499.998 337.639l-48.563-3.114-4.845-47.755 46.947-12.804-4.729 32.644z" fill="#d46360"/><path d="M400.567 387.934c35.166-3.568 60.42-38.531 56.405-78.093-4.015-39.562-35.777-68.74-70.942-65.171L99.501 273.745l14.538 143.264z" fill="#ed6f6d"/><g fill="#ff9494" transform="rotate(-5.794 -43.098 246.275)"><circle cx="96" cy="360" r="72"/><path d="M240 352a8 8 0 01-16 0 64.072 64.072 0 00-64-64h47.96A79.947 79.947 0 01240 352zm80 0a8 8 0 01-16 0 64.072 64.072 0 00-64-64h47.96A79.947 79.947 0 01320 352zm72 0a8 8 0 01-16 0 64.072 64.072 0 00-64-64h47.96A79.947 79.947 0 01392 352z"/></g></g></svg>