<svg height="512pt" viewBox="0 0 512 512" width="512pt" xmlns="http://www.w3.org/2000/svg"><path d="M259.263 144.19a13.814 13.814 0 00-2.375-1.341c.355.279.7.576 1.027.892.362.351.854.485 1.348.449zm-74.55 26.326a13.09 13.09 0 00-2.525.067c.417.054.829.124 1.238.215.451.102.908-.024 1.287-.282zm145.74 3.01a12.803 12.803 0 00-1.325-2.125c.161.384.308.772.431 1.165.137.438.477.765.894.96zm0 0" fill="#51b842"/><path d="M80.727 298.483s-4.361 32.668 16.04 45.6c0 0 6.705-29.855 14.095-43.545 0 0 1.983-13.472-12.931-15.58-14.918-2.111-16.362 7.739-17.204 13.525zm34.826 81.951s9.091 31.704 33.009 35.614c0 0-5.811-30.036-4.511-45.495 0 0-3.579-13.144-18.125-9.257-14.542 3.886-11.922 13.494-10.373 19.138zm311.834-81.951s4.36 32.668-16.041 45.6c0 0-6.705-29.855-14.095-43.545 0 0-1.982-13.472 12.932-15.58 14.917-2.111 16.36 7.739 17.204 13.525zm-34.828 81.951s-9.09 31.704-33.008 35.614c0 0 5.81-30.036 4.51-45.495 0 0 3.58-13.144 18.126-9.257 14.541 3.886 11.921 13.494 10.372 19.138zm0 0" fill="#f58953"/><path d="M81.962 298.234c-1.631-5.294.474-11.208 5.473-14.252 35.287-21.462 66.89-17.135 68.221-16.944 6.902 1.018 11.68 7.349 10.642 14.179-1.02 6.796-7.407 11.491-14.286 10.521-1.204-.155-24.386-2.89-51.314 13.494-5.947 3.614-13.731 1.788-17.398-4.078a12.678 12.678 0 01-1.338-2.92zm34.622 81.49a12.363 12.363 0 01-.686-15.226c23.804-33.492 54.566-41.861 55.863-42.204 6.745-1.762 13.672 2.188 15.46 8.867 1.784 6.638-2.2 13.444-8.906 15.239-1.167.329-23.553 6.87-41.719 32.435-4.009 5.637-11.891 7.002-17.61 3.047a12.855 12.855 0 01-2.402-2.158zm309.567-81.49c1.631-5.294-.475-11.208-5.473-14.252-35.288-21.462-66.89-17.135-68.221-16.944-6.902 1.018-11.68 7.349-10.642 14.179 1.02 6.796 7.407 11.491 14.287 10.521 1.204-.155 24.386-2.89 51.313 13.494 5.948 3.614 13.73 1.788 17.399-4.078a12.802 12.802 0 001.337-2.92zm-34.622 81.49a12.363 12.363 0 00.685-15.226c-23.802-33.492-54.565-41.861-55.861-42.204-6.747-1.762-13.673 2.188-15.46 8.867-1.785 6.638 2.2 13.444 8.904 15.239 1.168.329 23.554 6.87 41.719 32.435 4.011 5.637 11.892 7.002 17.611 3.047a12.855 12.855 0 002.402-2.158zm0 0" fill="#cc6937"/><path d="M177.626 419.676s18.187 27.628 42.204 24.383c0 0-14.553-26.997-17.941-42.144 0 0-7.36-11.512-20.087-3.551-12.727 7.958-7.346 16.371-4.176 21.312zm152.861 0s-18.186 27.628-42.204 24.383c0 0 14.552-26.997 17.941-42.144 0 0 7.359-11.512 20.086-3.551 12.727 7.958 7.347 16.371 4.177 21.312zm0 0" fill="#f58953"/><g fill="#cc6937"><path d="M178.401 418.692c-4.725-2.977-7.168-8.874-5.22-14.343 10.953-30.748 24.345-40.67 31.067-44.653 5.985-3.547 13.716-1.903 17.425 3.957 3.692 5.82 1.525 11.332-3.94 17.159-.823.879-13.038 13.322-20.483 31.192-2.655 6.372-9.26 10.16-15.907 8.052a12.855 12.855 0 01-2.942-1.364zm151.312 0c4.726-2.977 7.169-8.874 5.22-14.343-10.952-30.748-24.345-40.67-31.066-44.653-5.985-3.547-13.717-1.903-17.426 3.957-3.692 5.82-1.525 11.332 3.941 17.159.822.879 13.038 13.322 20.483 31.192 2.654 6.372 9.26 10.16 15.907 8.052a12.855 12.855 0 002.941-1.364zM159.11 106.37c-6.101-1.274-13.028 34.761-49.06 46.764-10.03 3.34-17.274 12.252-18.95 22.57-2.811 17.335 3.406 30.23 13.212 34.945 13.27 6.375 34.84-10.39 48.188-37.446 13.345-27.057 19.88-60.459 6.61-66.834zm189.895 0c6.1-1.274 13.027 34.761 49.058 46.764 10.029 3.34 17.276 12.252 18.951 22.57 2.812 17.335-3.405 30.23-13.211 34.945-13.27 6.375-34.844-10.39-48.19-37.446-13.344-27.057-19.878-60.459-6.608-66.834zm0 0"/><path d="M177.825 238.008c-.942 5.968-5.859 10.797-12.236 11.444-45.008 4.563-73.99-14.505-75.209-15.317-6.295-4.233-7.946-12.696-3.64-18.923 4.272-6.2 12.809-7.82 19.104-3.644 1.109.714 22.58 14.266 56.93 10.78 7.585-.764 14.358 4.675 15.14 12.161a13.595 13.595 0 01-.09 3.5zm152.465 0c.941 5.968 5.858 10.797 12.235 11.444 45.009 4.563 73.99-14.505 75.209-15.317 6.295-4.233 7.947-12.696 3.64-18.923-4.271-6.2-12.808-7.82-19.103-3.644-1.11.714-22.582 14.266-56.93 10.78-7.586-.764-14.359 4.675-15.14 12.161a13.595 13.595 0 00.089 3.5zm0 0"/></g><path d="M124.736 70.991c7.711 4.422-19.934 49.217 6.647 96.046 7.4 13.036 6.435 29.35-1.809 41.881-13.849 21.058-32.975 28.865-47.956 24.588-20.275-5.79-26.888-43.993-14.775-85.335 12.116-41.34 37.622-82.969 57.893-77.18zm0 0" fill="#f58953"/><path d="M131.383 167.037c-26.584-46.829 1.064-91.624-6.647-96.046-8.663-2.475-18.279 3.715-27.399 14.832-3.877 17.818-11.216 49.035 7.049 81.214 7.4 13.036 6.432 29.35-1.808 41.881-7.442 11.316-16.406 18.798-25.43 22.642 1.408.828 2.89 1.495 4.466 1.946 14.985 4.277 34.111-3.53 47.96-24.588 8.24-12.531 9.209-28.845 1.809-41.881zm0 0" fill="#e67c47"/><path d="M383.378 70.991c-7.712 4.422 19.932 49.217-6.647 96.046-7.401 13.036-6.435 29.35 1.808 41.881 13.85 21.058 32.974 28.865 47.956 24.588 20.276-5.79 26.887-43.993 14.775-85.335-12.113-41.34-37.622-82.969-57.892-77.18zm0 0" fill="#f58953"/><path d="M441.27 148.171c-12.113-41.34-37.618-82.969-57.892-77.18-2.413 1.381-1.366 6.719.402 14.832 12.225 14.903 23.557 38.671 30.494 62.351 11.174 38.126 6.407 73.565-10.305 83.386 7.773 3.314 15.593 3.926 22.53 1.946 20.272-5.79 26.883-43.993 14.771-85.335zm0 0" fill="#e67c47"/><path d="M367.842 282.611c0 59.832-50.945 108.337-113.785 108.337-62.84 0-113.786-48.505-113.786-108.337 0-59.831 20.148-78.843 113.786-78.843 93.637 0 113.785 19.012 113.785 78.843zm0 0" fill="#f58953"/><path d="M254.057 203.768c-4.685 0-9.176.051-13.499.149 82.095 1.858 100.288 21.853 100.288 78.694 0 55.484-43.808 101.218-100.288 107.576 4.426.498 8.93.761 13.499.761 62.843 0 113.785-48.505 113.785-108.337 0-59.831-20.148-78.843-113.785-78.843zm0 0" fill="#e67c47"/><circle cx="216.52" cy="207.778" r="24.936" transform="matrix(.94124 0 0 .94879 10.88 12.663)" fill="#272727"/><circle cx="216.52" cy="207.778" r="24.936" transform="matrix(.94124 0 0 .94879 83.216 12.663)" fill="#272727"/></svg>