<svg width="200" height="200" xmlns="http://www.w3.org/2000/svg"><g transform="translate(23.217 23.598) scale(.31111)"><path d="M337.437 234.139C487.714 208.147 472.574 60.253 472.574 60.253c-98.088-12.616-157.321 31.368-182.595 108.896l-12.599 39.98 28.649 22.749z" fill="#69da61"/><path d="M472.574 60.253c-65.715-8.452-113.987 8.504-146.294 43.927 28.189-17.24 64.123-24.858 108.295-20.579 5.068.491 8.956 4.692 9.028 9.783.296 21.04-2.98 75.549-40.956 117.012 80.179-49.943 69.927-150.143 69.927-150.143z" fill="#5ab161"/><path d="M154.322 0s-59.082 137.286 70.57 213.439c0 0 62.496 20.415 70.972 4.782C349.95 118.461 264.487-.219 154.322 0z" fill="#a8ffa9"/><path d="M195.429 24.719c31.093 3.514 59.59 16.411 82.688 35.328C249.026 24.183 204.207-.099 154.322 0c0 0-50.369 117.052 43.984 194.945-45.809-56.627-34.554-124.117-25.906-154.689 2.86-10.112 12.587-16.717 23.029-15.537z" fill="#85eda2"/><circle cx="121.566" cy="368.67" fill="#ff5872" r="98.566"/><path d="M121.566 270.104a98.691 98.691 0 00-25.414 3.314c9.104 28.839 28.762 52.991 54.453 67.91 5.383 3.126 7.748 9.589 5.63 15.442-11.726 32.408-9.048 69.363 8.846 100.357 32.433-15.985 54.805-49.276 55.049-87.821.345-54.416-44.147-99.202-98.564-99.202z" fill="#db4968"/><circle cx="339.399" cy="298.868" fill="#ff5872" r="98.566"/><path d="M325.227 295.874c-5.308-2.961-7.653-9.42-5.388-15.06 10.148-25.272 11.082-53.422 2.946-79.111-47.967 8.143-84.139 50.934-81.849 101.726 2.352 52.175 45.758 93.756 97.985 94.003 16.389.078 31.855-3.846 45.477-10.849-3.618-39.059-26.552-72.514-59.171-90.709z" fill="#db4968"/><path d="M409.096 306.868a8 8 0 01-8-8c0-29.184-20.715-54.604-49.254-60.443a8 8 0 01-6.234-9.441c.886-4.33 5.121-7.114 9.441-6.234 35.952 7.357 62.047 39.37 62.047 76.119a8 8 0 01-8 7.999z" fill="#ad4968"/><circle cx="210.964" cy="237.147" fill="#ff5872" r="98.566"/><path d="M125.365 255.908c0-54.437 44.13-98.566 98.566-98.566 29.539 0 56.039 12.998 74.104 33.581-16.565-31.139-49.339-52.343-87.07-52.343-54.437 0-98.566 44.13-98.566 98.566 0 24.898 9.236 47.635 24.462 64.985-7.335-13.786-11.496-29.517-11.496-46.223z" fill="#ff7f90"/><g fill="#ad4968"><path d="M80.268 352.474a8 8 0 01-8-8v-26.047a8 8 0 0116 0v26.047a8 8 0 01-8 8z"/><path d="M93.291 339.45H67.245a8 8 0 010-16h26.046a8 8 0 010 16zm89.865-116.717a8 8 0 01-8-8v-26.047a8 8 0 0116 0v26.047a8 8 0 01-8 8z"/><path d="M196.18 209.71h-26.047a8 8 0 010-16h26.047a8 8 0 010 16z"/></g><circle cx="268.699" cy="397.434" fill="#ff5872" r="98.566"/><path d="M180.076 412.022c0-51.691 41.904-93.595 93.595-93.595 49.263 0 89.637 38.06 93.321 86.38 4.252-57.453-41.175-105.939-98.292-105.939-54.437 0-98.566 44.13-98.566 98.566 0 25.302 9.538 48.374 25.209 65.826-9.65-14.72-15.267-32.322-15.267-51.238z" fill="#ff7f90"/><path d="M305.482 382.683a8 8 0 01-8-8v-26.046a8 8 0 0116 0v26.046a8 8 0 01-8 8z" fill="#ad4968"/><path d="M318.506 369.659H292.46a8 8 0 010-16h26.046a8 8 0 010 16z" fill="#ad4968"/></g></svg>