<svg height="511pt" viewBox="-68 0 511 512" width="511pt" xmlns="http://www.w3.org/2000/svg"><path d="M328.16 175.305c-21.339-37.946-51.802-63.618-70.874-69.173-1.429-.418-2.662 1.056-1.946 2.321l49.839 88.129c2.486 4.402.801 9.91-3.766 12.31-4.57 2.395-10.293.772-12.78-3.63l-38.174-67.502c-.534-.943-1.844-1.115-2.653-.373-10.383 9.515-7.239 46.926 13.446 83.71 16.345 29.069 38.352 42.88 60.846 31.144 23.755-12.394 25.815-41.808 6.062-76.936zm-203.954-38.171c-.793-.673-2.035-.417-2.54.474l-38.265 67.654c-2.488 4.399-8.21 6.025-12.777 3.626-4.57-2.396-6.256-7.907-3.768-12.306l49.79-88.045c.718-1.268-.527-2.747-1.961-2.318-19.09 5.745-49.34 31.348-70.562 69.086-19.754 35.128-17.694 64.542 6.061 76.936 22.494 11.733 44.502-2.078 60.847-31.144 20.869-37.112 23.887-74.862 13.175-83.963zm0 0" fill="#ff6930"/><path d="M328.16 175.305c-21.339-37.946-51.802-63.618-70.874-69.173-1.429-.418-2.662 1.056-1.946 2.321l2.442 4.315c17.968 10.988 40.044 33.053 56.618 62.526 19.757 35.126 17.697 64.543-6.062 76.937-3.111 1.623-6.214 2.742-9.296 3.415 7.481 1.66 15.241.673 23.056-3.405 23.755-12.394 25.815-41.808 6.062-76.936zm-203.954-38.171c-.793-.673-2.035-.417-2.54.474l-5.962 10.54c2.989 16.07-2.542 44.683-18.43 72.937-10.678 18.987-23.775 31.457-37.838 34.557 19.193 4.222 37.501-9.48 51.598-34.547 20.866-37.11 23.884-74.86 13.172-83.961zm0 0" fill="#ff5426"/><path d="M233.732 430.267l-34.911-33.934c-3.383-3.284-7.987-5.134-12.789-5.134-4.804 0-9.407 1.85-12.787 5.134l-34.607 33.638c-6.87 6.68-7.333 17.512-.647 24.364 7.019 7.193 18.767 7.296 25.919.343l3.638-3.536c.793-.77 2.123-.58 2.659.377 3.045 5.414 8.98 9.1 15.825 9.1 6.844 0 12.782-3.686 15.823-9.1.537-.957 1.869-1.147 2.662-.377l3.639 3.536c3.519 3.421 8.151 5.134 12.787 5.134 4.579 0 9.163-1.673 12.672-5.022 7.062-6.742 7.114-17.721.117-24.523zm0 0" fill="#ff6930"/><path d="M233.732 430.267l-34.911-33.934c-3.383-3.284-7.987-5.134-12.789-5.134-3.171 0-6.247.822-8.95 2.315l33.936 32.99c7.001 6.801 6.948 17.78-.113 24.522a17.94 17.94 0 01-3.72 2.707l.971.945c3.519 3.423 8.155 5.134 12.79 5.134 4.576 0 9.16-1.67 12.669-5.022 7.062-6.742 7.114-17.721.117-24.523zm0 0" fill="#ff5426"/><path d="M141.458 333.602h-42.24c-7.47 0-14.951-1.698-21.637-4.91l-14.523-6.985c-3.106-1.49-4.364-5.122-2.814-8.113 1.549-2.988 5.32-4.203 8.422-2.71l14.524 6.985c4.952 2.38 10.496 3.635 16.027 3.635h42.241c3.468 0 6.278 2.71 6.278 6.05s-2.81 6.048-6.278 6.048zM108.96 362.13c-3.354 0-6.718-.491-9.963-1.48l-27.494-8.367c-3.306-1.007-5.14-4.406-4.095-7.593 1.045-3.184 4.574-4.95 7.883-3.944l27.49 8.368a21.263 21.263 0 0014.23-.663l34.85-14.316c3.189-1.309 6.88.118 8.238 3.19 1.362 3.075-.123 6.627-3.312 7.938l-34.85 14.313a34.17 34.17 0 01-12.977 2.555zm2.471 28.763a23.77 23.77 0 01-9.4-1.934l-15.584-6.714c-3.167-1.365-4.587-4.945-3.17-7.992 1.417-3.05 5.13-4.414 8.297-3.053l15.588 6.717a10.818 10.818 0 009.707-.586l50.168-29.348c2.966-1.735 6.829-.825 8.63 2.028 1.799 2.857.857 6.577-2.109 8.31l-50.172 29.35a23.692 23.692 0 01-11.955 3.222zm161.633-57.291h-42.24c-3.468 0-6.279-2.707-6.279-6.047s2.811-6.05 6.279-6.05h42.24a37.262 37.262 0 0016.028-3.636l14.523-6.985c3.102-1.493 6.874-.278 8.423 2.71 1.55 2.991.288 6.624-2.814 8.113l-14.523 6.985c-6.686 3.212-14.168 4.91-21.637 4.91zm-9.742 28.528a34.21 34.21 0 01-12.974-2.55l-34.85-14.317c-3.192-1.308-4.677-4.863-3.315-7.935 1.361-3.075 5.049-4.502 8.241-3.193l34.85 14.316a21.262 21.262 0 0014.23.663l27.49-8.368c3.306-1.006 6.835.76 7.88 3.947 1.044 3.184-.79 6.583-4.095 7.59l-27.491 8.368a34.258 34.258 0 01-9.966 1.48zm-2.472 28.763c-4.16 0-8.3-1.084-11.955-3.221l-50.172-29.352c-2.962-1.732-3.907-5.452-2.108-8.309 1.801-2.853 5.663-3.763 8.63-2.028l50.171 29.348a10.826 10.826 0 009.707.586l15.585-6.717c3.166-1.365 6.88.003 8.297 3.053 1.416 3.047-.004 6.627-3.17 7.992l-15.585 6.714a23.748 23.748 0 01-9.4 1.934zm0 0" fill="#f26935"/><path d="M175.532 187.276c-2.905 0-5.512-1.951-6.137-4.795l-15.829-71.988c-2.811-12.786-12.667-22.942-25.722-26.507-10.315-2.818-19.523-8.931-25.932-17.212l-3.749-4.848c-2.073-2.679-1.5-6.468 1.281-8.465 2.782-1.997 6.719-1.443 8.789 1.236l3.752 4.848c4.764 6.16 11.615 10.709 19.287 12.802 17.549 4.796 30.8 18.45 34.579 35.639l15.83 71.987c.717 3.268-1.449 6.477-4.842 7.169a6.264 6.264 0 01-1.307.134zm21.219 0c-.43 0-.87-.041-1.307-.132-3.393-.691-5.563-3.903-4.842-7.171l15.83-71.984c3.778-17.192 17.027-30.846 34.578-35.638 7.672-2.097 14.523-6.646 19.287-12.806l3.753-4.848c2.071-2.679 6.004-3.233 8.786-1.236 2.781 1.997 3.357 5.786 1.284 8.465l-3.75 4.848c-6.407 8.283-15.616 14.396-25.934 17.212-13.052 3.569-22.908 13.725-25.719 26.511l-15.83 71.984c-.624 2.844-3.235 4.795-6.136 4.795zm0 0" fill="#f1572d"/><path d="M82.237 279.844l-1.327 1.28c-6.819 6.568-17.874 6.568-24.693 0l-6.728-6.482c-6.819-6.569-6.819-17.217 0-23.785l1.326-1.277c6.818-6.568 17.875-6.568 24.693 0l6.729 6.48c6.821 6.568 6.821 17.216 0 23.784zm0 0" fill="#ff6930"/><path d="M145.948 285.848v1.809c0 9.288-7.817 16.819-17.461 16.819H92.209c-9.647 0-17.461-7.531-17.461-16.819v-1.809c0-9.288 7.818-16.818 17.461-16.818h36.278c9.644 0 17.461 7.53 17.461 16.818zm0 0" fill="#ff6930"/><path d="M82.1 255.929l-6.452-6.215a17.621 17.621 0 00-4.565-3.165c3.325 6.374 2.239 14.334-3.283 19.655l-1.051 1.013c-5.525 5.318-13.789 6.364-20.407 3.165a16.902 16.902 0 003.286 4.393l6.45 6.216c6.896 6.641 18.075 6.641 24.971 0l1.051-1.013c6.893-6.642 6.893-17.41 0-24.049zm46.194 13.101h-.786c.21 1.047.33 2.124.33 3.23v1.434c0 9.39-7.905 17.005-17.658 17.005H75.075c1.568 7.845 8.723 13.773 17.327 13.773h35.892c9.749 0 17.654-7.611 17.654-17.004v-1.433c0-9.391-7.905-17.005-17.654-17.005zm0 0" fill="#ff5426"/><path d="M226.334 285.848v1.809c0 9.288 7.819 16.819 17.461 16.819h36.279c9.646 0 17.461-7.531 17.461-16.819v-1.809c0-9.288-7.815-16.818-17.461-16.818h-36.279c-9.642 0-17.461 7.53-17.461 16.818zm0 0" fill="#ff6930"/><path d="M279.88 269.03h-.782c.209 1.047.326 2.124.326 3.23v1.434c0 9.39-7.905 17.005-17.654 17.005h-35.109c1.569 7.845 8.728 13.773 17.328 13.773h35.891c9.752 0 17.655-7.611 17.655-17.004v-1.433c0-9.391-7.903-17.005-17.655-17.005zm0 0" fill="#ff5426"/><path d="M208.503 380.977h-44.926c-9.737 0-17.629-7.603-17.629-16.979v-.502c0-9.378 7.896-16.981 17.629-16.981h44.926c9.736 0 17.628 7.603 17.628 16.981v.502c0 9.376-7.892 16.979-17.628 16.979zm0 0" fill="#ff6930"/><path d="M208.503 411.185h-44.926c-9.737 0-17.629-7.602-17.629-16.98v-.501c0-9.378 7.896-16.98 17.629-16.98h44.926c9.736 0 17.628 7.602 17.628 16.98v.501c0 9.378-7.892 16.98-17.628 16.98zm0 0" fill="#ff6930"/><path d="M208.24 346.515h-6.682c1.18 2.3 1.863 4.88 1.863 7.619 0 9.517-8.012 17.232-17.892 17.232h-37.718c2.921 5.689 8.993 9.611 16.027 9.611h44.402c9.879 0 17.891-7.715 17.891-17.232 0-9.515-8.009-17.23-17.891-17.23zm0 0" fill="#ff5426"/><path d="M208.24 376.724h-6.682c1.18 2.299 1.863 4.879 1.863 7.618 0 9.517-8.012 17.231-17.892 17.231h-37.718c2.921 5.689 8.993 9.612 16.027 9.612h44.402c9.879 0 17.891-7.714 17.891-17.232 0-9.515-8.009-17.229-17.891-17.229zm0 0" fill="#ff5426"/><path d="M248.084 287.58c0 55.406-27.733 70.18-61.942 70.18s-61.944-14.774-61.944-70.18c0-55.403 27.735-128.857 61.944-128.857s61.942 73.454 61.942 128.857zm0 0" fill="#ff6930"/><path d="M188.405 158.844c18.166 25.942 30.341 70.563 30.341 107.267 0 55.403-27.733 70.18-61.942 70.18-7.877 0-15.404-.785-22.332-2.667 11.088 18.251 30.088 24.136 51.67 24.136 34.209 0 61.942-14.774 61.942-70.18 0-54.173-26.518-125.597-59.679-128.736zm0 0" fill="#ff5426"/><path d="M175.568 203.209c0 5.533-4.659 10.019-10.403 10.019-5.748 0-10.406-4.486-10.406-10.019 0-5.537 4.658-10.023 10.406-10.023 5.744 0 10.403 4.486 10.403 10.023zm41.955 0c0 5.533-4.658 10.019-10.402 10.019-5.748 0-10.406-4.486-10.406-10.019 0-5.537 4.658-10.023 10.406-10.023 5.744 0 10.402 4.486 10.402 10.023zm0 0" fill="#433f43"/><path d="M290.047 279.844l1.325 1.28c6.819 6.568 17.876 6.568 24.693 0l6.728-6.482c6.819-6.569 6.819-17.217 0-23.785l-1.326-1.277c-6.818-6.568-17.874-6.568-24.693 0l-6.727 6.48c-6.819 6.568-6.819 17.216 0 23.784zm0 0" fill="#ff6930"/><path d="M322.657 250.726l-1.051-1.012c-2.817-2.714-6.345-4.296-10.007-4.795 3.389 6.389 2.319 14.412-3.235 19.762l-6.453 6.215c-4.079 3.928-9.655 5.514-14.96 4.794a17.028 17.028 0 003.234 4.288l1.052 1.013c6.893 6.641 18.071 6.641 24.968 0l6.452-6.216c6.894-6.643 6.894-17.41 0-24.049zm-157.492 65.728c0 3.612-3.04 6.537-6.787 6.537-3.748 0-6.785-2.925-6.785-6.537 0-3.607 3.037-6.533 6.785-6.533 3.747 0 6.787 2.926 6.787 6.533zm20.977 0c0 3.612-3.037 6.537-6.787 6.537-3.749 0-6.786-2.925-6.786-6.537 0-3.607 3.037-6.533 6.786-6.533 3.75 0 6.787 2.926 6.787 6.533zm14.4-14.634c0 3.612-3.037 6.537-6.787 6.537-3.745 0-6.786-2.925-6.786-6.537 0-3.607 3.041-6.535 6.786-6.535 3.75 0 6.787 2.928 6.787 6.535zm0 0" fill="#ff5426"/></svg>