<svg height="512" viewBox="0 0 128 128" width="512" xmlns="http://www.w3.org/2000/svg" xmlns:xlink="http://www.w3.org/1999/xlink"><linearGradient id="a"><stop offset="0" stop-color="#50a8d2"/><stop offset="1" stop-color="#198dc4"/></linearGradient><linearGradient id="b" gradientTransform="matrix(-.83704 0 0 -.78745 -524.463 496.052)" gradientUnits="userSpaceOnUse" x1="-611.754" x2="-572.111" y1="536.266" y2="530.872" xlink:href="#a"/><linearGradient id="c" gradientUnits="userSpaceOnUse" x1="20.566" x2="26.4" y1="22.845" y2="23.011" gradientTransform="matrix(.83704 0 0 .78745 11.245 13.346)" xlink:href="#a"/><linearGradient id="d" gradientUnits="userSpaceOnUse" x1="64" x2="64" y1="-21.25" y2="44.273" gradientTransform="matrix(.83704 0 0 .78745 11.245 13.346)"><stop offset="0" stop-color="#198dc4"/><stop offset="1" stop-color="#12639b"/></linearGradient><linearGradient id="e" gradientUnits="userSpaceOnUse" x1="65.666" x2="65.291" y1="51.47" y2="109.095" gradientTransform="matrix(.83704 0 0 .78745 11.245 13.346)"><stop offset="0" stop-color="#badaf0"/><stop offset="1" stop-color="#9ecdef"/></linearGradient><path d="M93.166 112.565H36.465c-1.448 0-2.62-1.104-2.62-2.465V38.544h61.942V110.1c0 1.361-1.174 2.465-2.621 2.465z" fill="#f3f3f3"/><path d="M43.889 90.514v.002c5.023-3.15 7.464-.946 10.045.788.641-1.795 2.491-3.15 4.185-3.15 1.385 0 2.067.098 4.185 1.575 1.253-2.653 3.348-4.725 7.534-4.725 4.185 0 6.543 2.406 7.533 5.512l.002-.001c2.056-2.051 6.222-2.168 8.369.001.007-.026 3.124-6.969 10.045-2.362v-49.61H33.845v46.46c6.492-2.735 10.044 2.362 10.044 5.51z" fill="url(#b)"/><path d="M90.764 25.946H38.867l-5.022 12.598h61.942z" fill="url(#c)"/><path d="M90.764 25.946H38.867v-7.875c0-1.739 1.499-3.15 3.348-3.15h45.201c1.849 0 3.348 1.411 3.348 3.15z" fill="url(#d)"/><path d="M83.23 76.343H48.912c-.462 0-.837-.354-.837-.788v-3.15c0-.435.375-.787.837-.787H83.23c.462 0 .838.352.838.787v3.15c0 .434-.376.788-.838.788z" fill="url(#e)"/><path d="M47.754 56.013l-.294 1.2a11.284 11.284 0 00-.873-.233 9.248 9.248 0 00-1.009-.18 8.505 8.505 0 00-1.155-.074c-.657 0-1.216.14-1.677.422a3.554 3.554 0 00-1.126 1.078c-.29.44-.5.93-.634 1.47a6.893 6.893 0 00-.193 1.605c0 .668.095 1.276.287 1.824.192.545.453 1.01.786 1.396.336.382.725.676 1.167.88.442.205.909.308 1.402.308.461 0 .883-.024 1.266-.07.383-.05.711-.102.985-.156.317-.066.603-.141.857-.226l.275 1.152a9.334 9.334 0 01-.985.261c-.305.062-.66.12-1.067.174-.403.054-.847.08-1.331.08-.864 0-1.62-.138-2.27-.416a4.45 4.45 0 01-1.63-1.176 5.138 5.138 0 01-.974-1.784 7.437 7.437 0 01-.328-2.264c0-.943.13-1.773.393-2.49.262-.719.623-1.321 1.085-1.808a4.413 4.413 0 011.642-1.1 5.605 5.605 0 012.082-.377c.461 0 .89.025 1.29.076.398.046.766.108 1.102.185.333.077.641.158.927.243zm2.05 10.703V55.654h2.762c.601 0 1.15.052 1.648.156.5.105.924.278 1.272.522.352.243.62.563.804.961.187.402.281.905.281 1.512-.012.668-.127 1.21-.346 1.627-.22.417-.487.753-.803 1.008-.317.25-.685.436-1.103.556v.035c.047.042.115.12.205.231.094.116.174.217.24.302l3.167 4.152h-1.624l-3.249-4.396h-1.87v4.396h-1.384zm5.371-7.685c0-.456-.057-.827-.17-1.112a1.41 1.41 0 00-.51-.655 2.048 2.048 0 00-.833-.313 6.931 6.931 0 00-1.114-.08h-1.36v4.233h1.624c.426 0 .788-.054 1.085-.162.293-.108.534-.257.721-.446.184-.19.32-.407.41-.654.086-.251.136-.522.147-.811zm4.135 7.685V55.654h6.867v1.251h-5.483v3.533h5.09v1.216h-5.09v3.811h5.647v1.251h-7.03zm8.13 0l3.84-11.062h1.712l3.841 11.062h-1.43l-.986-2.953h-4.544l-1.003 2.953h-1.43zm2.855-4.25h3.683L72.17 56.95h-.052l-1.824 5.514zm8.016 4.25l.593-11.062h1.753l2.527 6.585.4 1.049c.116.316.22.6.31.851.109.282.201.54.276.776h.035c.066-.236.148-.494.246-.776l.293-.851c.11-.32.242-.67.399-1.049l2.574-6.585h1.76l.574 11.062h-1.395l-.282-6.081c-.02-.529-.035-.977-.047-1.344-.012-.37-.017-.673-.017-.909v-.683h-.036c-.062.162-.144.384-.246.666a527.623 527.623 0 01-.833 2.27l-2.316 6.081h-1.396l-2.334-6.081a35.039 35.039 0 01-.51-1.338c-.129-.375-.238-.68-.328-.915a27.85 27.85 0 01-.229-.683h-.03c.009.173.018.401.03.683.012.452-.004 1.203-.047 2.253l-.328 6.081H78.31z" style="white-space:pre" fill="#fff"/></svg>