<svg id="Capa_1" enable-background="new 0 0 512 512" height="512" viewBox="0 0 512 512" width="512" xmlns="http://www.w3.org/2000/svg"><g><path d="m209.235 103.584c13.194-15.58 32.86-25.428 53.19-26.972 3.233-.245 5.809 2.725 5.099 5.888-.886 3.946-.449 8.425.602 12.232 3.375 12.226 14.498 19.994 20.906 30.65 8.191 13.619 7.761 31.95-1.06 45.169l-95.416-2.059c-4.584-22.656 1.741-47.269 16.679-64.908z" fill="#ffc4ad"/><path d="m80.767 168.194c-4.186-2.082-9.272-1.151-12.449 2.278-13.416 14.486-19.869 36.372-16.09 57.024 1.468 8.021 4.397 15.406 8.462 21.93 14.304 22.958 49.925 16.439 55.172-10.097 1.491-7.541 1.615-15.484.147-23.505-3.78-20.652-17.566-38.835-35.242-47.63z" fill="#77d1b3"/><path d="m20.021 201.985c-4.627.665-8.284 4.322-8.949 8.949-2.808 19.544 4.319 41.219 19.165 56.065 5.766 5.766 12.373 10.178 19.425 13.236 24.817 10.762 50.422-14.844 39.66-39.66-3.058-7.052-7.47-13.659-13.236-19.425-14.846-14.846-36.521-21.973-56.065-19.165z" fill="#92e0c4"/><path d="m139.399 209.691c-22.297-12.873-59.876 10.472-72.75 32.769-12.873 22.298-5.234 50.809 17.063 63.682s50.808 5.234 63.682-17.064c12.874-22.297 14.302-66.514-7.995-79.387z" fill="#e27f86"/><path d="m13.812 293.086v128.436c0 10.065 8.159 18.225 18.225 18.225h267.619c10.065 0 18.225-8.16 18.225-18.225v-128.436z" fill="#ddebfd"/><path d="m296.481 293.086v128.436c0 10.065-8.159 18.225-18.225 18.225h21.399c10.065 0 18.225-8.16 18.225-18.225v-128.436z" fill="#bed9fd"/><g fill="#bed9fd"><path d="m143.166 293.087h-15.453v135.68c0 4.17.177 7.82.536 10.98h15.648c-.387-2.522-.732-6.238-.732-10.98v-135.68z"/><path d="m249.341 293.086v135.681c0 5.709-1.753 9.505-2.977 10.98h16.926c.969-3.322 1.503-7.025 1.503-10.98v-135.681z"/><path d="m82.352 428.767v-135.681h-15.453v135.681c0 3.955.534 7.657 1.503 10.98h16.926c-1.222-1.476-2.976-5.272-2.976-10.98z"/><path d="m203.979 428.767v-135.681h-15.453v135.681c0 4.741-.345 8.458-.732 10.98h15.648c.361-3.16.537-6.81.537-10.98z"/></g><path d="m0 269.196v30.242c0 2.686 2.178 4.864 4.864 4.864h321.964c2.687 0 4.864-2.178 4.864-4.864v-30.242c0-2.687-2.178-4.864-4.864-4.864h-321.964c-2.686 0-4.864 2.177-4.864 4.864z" fill="#ddebfd"/><path d="m326.828 287.088h-321.964c-2.686 0-4.864-2.178-4.864-4.864v17.214c0 2.686 2.178 4.864 4.864 4.864h321.964c2.686 0 4.864-2.178 4.864-4.864v-17.214c0 2.687-2.177 4.864-4.864 4.864z" fill="#bed9fd"/><path d="m490.257 72.329c-44.207 3.836-123.667 13.377-163.996 29.534-10.163 4.071-14.799 5.805-34.687 35.248-1.147 1.698-2.941 2.865-4.959 3.219l-98.168 17.228c-3.094.543-4.97 3.781-3.825 6.705 11.289 28.828 41.645 46.698 73.316 41.14 24.038-4.219 40.025-22.108 50.74-42.186 3.873-7.257 17.858-26.514 24.878-30.739 35.093-21.115 159.849-21.209 160.587-21.273 10.615-.916 18.511-10.159 17.813-20.742-.722-10.952-10.763-19.083-21.699-18.134z" fill="#ddebfd"/></g></svg>