<svg viewBox="0 -7 511.99939 511" xmlns="http://www.w3.org/2000/svg"><path d="m506.851562 76.644531c-47.117187-31.582031-75.25-40.113281-118.65625-56.4375-123.40625-37.78125-265.375-22.4375-383.046874 56.4375-5.1562505 3.453125-6.675782 10.363281-3.480469 15.679688l21.910156 36.539062c140.492187-93.664062 324.246094-93.734375 464.84375 0l21.910156-36.539062c3.191407-5.320313 1.671875-12.226563-3.480469-15.679688zm0 0" fill="#d3843d"/><path d="m30.167969 92.324219c-3.191407-5.320313-1.671875-12.226563 3.484375-15.679688 72.933594-48.886719 155.207031-73.359375 236.605468-75.910156-90.535156-2.84375-183.644531 21.304687-265.109374 75.910156-5.1562505 3.453125-6.675782 10.363281-3.480469 15.679688l21.910156 36.539062c6.773437-4.515625 13.695313-8.828125 20.738281-12.953125zm0 0" fill="#c65c38"/><path d="m22.714844 126.34375c-.15625.101562-.300782.21875-.449219.332031l216.550781 361.074219c7.78125 12.972656 26.585938 12.972656 34.363282 0l216.554687-361.074219c-.152344-.113281-.292969-.230469-.449219-.332031-140.898437-94.441406-325.613281-94.480469-466.570312 0zm0 0" fill="#ffd782"/><path d="m266.71875 486.683594-223.753906-373.082032c-6.878906 4.0625-13.632813 8.304688-20.25 12.742188-.15625.101562-.300782.21875-.449219.332031l216.550781 361.074219c6.976563 11.628906 22.800782 12.824219 31.609375 3.605469-1.390625-1.339844-2.644531-2.894531-3.707031-4.671875zm0 0" fill="#fdbd40"/><path d="m78.984375 94.632812c109.242187-50.925781 238-52.800781 350.46875-1.65625 9.050781-7.492187 15.417969-18.441406 16.1875-29.851562 2.347656-34.78125-35.503906-57.277344-64.765625-39.367188-3.316406 2.03125-7.566406 1.78125-10.5-.773437-25.066406-21.800781-62.542969-20.9375-86.605469 1.914063-1.617187 1.535156-4.089843 1.796874-5.90625.503906-14.667969-10.449219-34.300781-10.515625-49.023437-.269532-2 1.394532-4.726563 1.230469-6.503906-.441406-11.53125-10.851562-27.050782-17.503906-44.136719-17.503906-16.699219 0-31.90625 6.359375-43.355469 16.777344-2.265625 2.066406-5.613281 2.257812-8.175781.566406-6.722657-4.433594-14.773438-7.019531-23.433594-7.019531-39.722656.003906-59.707031 51.027343-24.25 77.121093zm0 0" fill="#c65c38"/><path d="m113.546875 18.777344c-3.300781-.820313-6.753906-1.261719-10.308594-1.261719-39.765625 0-59.683593 51.042969-24.253906 77.117187 4.554687-2.121093 9.152344-4.160156 13.796875-6.121093-23.511719-25.574219-8.667969-62.433594 20.765625-69.734375zm0 0" fill="#9c2d20"/><path d="m356.480469 186.398438c-2.910157-10.667969-12.648438-17.515626-23.664063-16.648438l-126.03125 9.894531c-.894531.070313-1.238281-1.140625-.4375-1.550781l89.636719-45.8125c6.515625-3.328125 9.054687-11.363281 5.589844-17.847656-3.402344-6.363282-11.480469-8.570313-17.90625-5.285156l-108.617188 55.511718c-22.039062 11.265625-12.554687 44.753906 12.101563 42.808594l128.085937-10.054688c.238281-.019531.328125.304688.113281.410157l-120.597656 58.800781c-21.472656 10.46875-14.238281 42.78125 9.667969 43.070312l78.480469.945313c.425781.007813.597656.554687.246094.800781l-54.421876 38.175782c-10.453124 7.332031-5.210937 23.832031 7.535157 23.832031 5.5 0 1.855469 1.589843 71.550781-47.300781 18.671875-13.097657 9.511719-41.296876-12.308594-41.5625l-72.410156-.875c-.878906-.011719-1.140625-1.195313-.355469-1.578126l121.796875-59.386718c9.9375-4.84375 14.847656-15.679688 11.945313-26.347656zm0 0" fill="#c65c38"/><g fill="#9c2d20"><path d="m187.152344 207.472656 13.804687-1.085937c-22.019531-2.25-28.179687-32.378907-7.875-42.753907l104.734375-53.53125c-3.871094-2.867187-9.179687-3.492187-13.757812-1.152343l-109.007813 55.710937c-22.039062 11.265625-12.554687 44.753906 12.101563 42.8125zm0 0"/><path d="m246.753906 338.589844 39.574219-26.289063c4.847656-3.222656 2.617187-10.769531-3.203125-10.839843l-54.398438 38.160156c-10.453124 7.332031-5.210937 23.828125 7.535157 23.828125 4.660156 0 7.238281-2.183594 9.777343-3.964844-6.867187-5.570313-6.304687-15.96875.714844-20.894531zm0 0"/><path d="m212.78125 255.597656 104.519531-50.960937c3.585938-1.75 2.109375-7.164063-1.867187-6.851563l-120.679688 58.84375c-21.542968 10.503906-14.21875 42.777344 10.171875 43.074219l12.078125.144531c-18.050781-5.59375-24.917968-34.160156-4.222656-44.25zm0 0"/></g></svg>