<svg height="512" viewBox="0 0 59 45" width="512" xmlns="http://www.w3.org/2000/svg"><g id="Page-1" fill="none" fill-rule="evenodd"><g id="030---Croissant" fill-rule="nonzero"><path id="Shape" d="m48.96 22.01s.01.01.01 0c1.87 1.04 5.15 2.3 8.42.99 4.18-1.67-.73-8.24-4.2-10.34l-8.19 1.34z" fill="#f0c419"/><path id="Shape" d="m39.84 22.52h.01c2.0099678.9156379 4.2836353 1.0719526 6.4.44.9341608-.2207138 1.8424975-.5391344 2.71-.95h.01c.0108937.0004995.0215847-.0030642.03-.01 0 0-1 0 1-5 .5840032-1.7443069 1.6995225-3.2619726 3.19-4.34l.031-.02c.3774352-.2259966.6127636-.629614.623515-1.0694051.0107513-.4397911-.2045738-.8544253-.570515-1.0985949-1.7891223-1.11458146-3.7769793-1.87250712-5.854-2.232h-.01l-9.41-.24z" fill="#f29c1f"/><path id="Shape" d="m26.82 3.48c8.91-2.3 14.79-.16 18.05 1.9 1.1555116.62640919 2.0544452 1.6385942 2.54 2.86-3.4931579 1.63286244-5.9105644 4.9365257-6.41 8.76-.2073018 1.8723235-.5923721 3.7206611-1.15 5.52h-.01c-.7 2-1.76 3.07-3.69 3.09-1.0762644-.0299667-2.1403525-.2360282-3.15-.61z" fill="#e57e25"/><path id="Shape" d="m3 15c-1.09632519 2.1863494-1.79712881 4.5494457-2.07 6.98l-.01.01c-.78379993 6.03407 1.50631799 12.0597082 6.1 16.05l19.82-7.4c.88-.46 2.16-1.34 2.16-2.64l-1-10-20-8z" fill="#e57e25"/><circle id="Oval" cx="51.5" cy="29.5" fill="#f29c1f" r="2.5"/><circle id="Oval" cx="45" cy="28" fill="#f0c419" r="1"/><circle id="Oval" cx="41" cy="29" fill="#f0c419" r="1"/><path id="Shape" d="m29 36.19c.0573012-1.0932381-.0850219-2.1877704-.42-3.23-.3560764-.9183742-.9580622-1.7210219-1.74-2.32-.3649171-.2922106-.7491218-.5594835-1.15-.8v-.01c-.53989-.3241232-1.0974208-.6179119-1.67-.88-1.6334646-.7483089-3.3097192-1.3994436-5.02-1.95-9-3-15 4-12 11 2.23 5.2 8.32 5.99 11.31 6.04.5636229.0210008 1.1280018.0076427 1.69-.04l1.98-.2z" fill="#f29c1f"/><path id="Shape" d="m20.637 40.218c-.2915635.8342778-.1980548 1.7549061.2552999 2.5135221.4533546.758616 1.2198484 1.2770635 2.0927001 1.4154779 1.6690145.2146455 3.3614236.1650375 5.015-.147 5.774-.962 7.844-3.777-.031-8.445-.6789585-.4160125-1.4970756-.5404067-2.269-.345-2.432762.6941372-4.3423333 2.5829646-5.063 5.008z" fill="#f0c419"/><path id="Shape" d="m29 28s-9-21-26-13c0 0-.06-.25-.14-.57-.513-2.055.983-3.442 2.269-4.8 1.46075482-1.5530535 3.02284552-3.00757508 4.676-4.354.214-.174.431-.346.649-.515 1.7799055-1.46974117 3.763977-2.67298454 5.89-3.572 2.2006055-.93095195 4.6671301-1.01817749 6.928-.245 1.9572485.83097128 3.6089717 2.24793181 4.728 4.056 6 9 8 23 1 23z" fill="#f29c1f"/><path id="Shape" d="m11.349 10.2c-.4179498.0002446-.7919679-.25946232-.9377666-.65115716-.1457988-.39169484-.0326216-.83274824.2837666-1.10584284.3333333-.28533333.6666667-.563 1-.833.2-.162.4-.321.6-.477 1.5508885-1.28170656 3.2744617-2.33874168 5.12-3.14 1.512546-.65740871 3.2120003-.74479704 4.784-.246.515834.1974418.7739418.77566604.5765 1.2915s-.775666.7739418-1.2915.5765c-1.112224-.31744426-2.3009746-.23028102-3.355.246-1.6602549.73387903-3.2109636 1.69398576-4.608 2.853-.193.148-.383.3-.572.452-.3173333.256-.6326667.51966667-.946.791-.1817582.1568871-.4138967.2431404-.654.243z" fill="#f0c419"/></g></g></svg>