<svg id="Capa_1" enable-background="new 0 0 503.958 503.958" height="512" viewBox="0 0 503.958 503.958" width="512" xmlns="http://www.w3.org/2000/svg"><g><g id="XMLID_245_"><g><path d="m294.249 300.588h-87l-23.958 27.401 18.66 154.543 20.518 21.426h58.02l24.278-10.43 16.799-142.573z" fill="#a6e7f0"/><path d="m367.599 300.588-29.287 29.896-29.664 155.876 20.431 17.599h29.4c16.79 0 31.66-10.82 36.85-26.79l42.89-132.14 13.79-44.44h-84.41z" fill="#a6e7f0"/><g fill="#6bd9e7"><path d="m325.077 401.301c8.104 8.104 18.88 12.568 30.342 12.568 23.666 0 42.92-19.254 42.92-42.92v-70.36h-30.74l-29.287 29.896-13.437 70.605c.069.068.133.141.202.211z"/><path d="m201.727 480.673.224 1.859 20.518 21.426h58.02l24.278-10.43 1.514-12.855z"/><path d="m393.636 480.673h-83.906l-1.082 5.687 20.431 17.599h29.4c15.532 0 29.414-9.263 35.517-23.292-.12 0-.239.006-.36.006z"/></g><path d="m367.599 300.588-17.88 92.56-20.64 110.81h-48.59l11.07-158.93 2.69-44.44z" fill="#f9f7f8"/><path d="m157.454 311.721-20.605-11.133h-85.9l56.68 176.58c5.19 15.97 20.06 26.79 36.85 26.79h29.41l17.536-45.349z" fill="#a6e7f0"/><path d="m179.636 480.673c-16.79 0-31.66-10.82-36.85-26.79l-49.206-153.295h-42.631l56.68 176.58c5.19 15.97 20.06 26.79 36.85 26.79h29.41l9.004-23.285z" fill="#6bd9e7"/><path d="m211.399 345.028 11.07 158.93h-48.58l-29.62-158.93-7.42-44.44h70.4z" fill="#f9f7f8"/><path d="m282.111 480.673-1.622 23.285h48.59l4.337-23.285z" fill="#efedef"/><path d="m179.636 480.673c-3.562 0-7.035-.492-10.35-1.411l4.603 24.696h48.58l-1.622-23.285z" fill="#efedef"/></g></g><g><path d="m440.172 265.986c16.305 5.23 28.11 20.51 28.11 38.552 0 22.36-18.126 40.486-40.486 40.486h-351.634c-22.36 0-40.486-18.126-40.486-40.486 0-17.759 11.439-32.836 27.347-38.294l121.788-22.58h215.628z" fill="#fdd79b"/></g><g><g id="XMLID_244_"><g><path d="m294.249 300.588-1.921 31.734c7.064-2.881 13.837-6.491 20.171-10.814v49.441c0 11.462 4.467 22.241 12.578 30.352 5.848 5.848 13.091 9.788 20.975 11.535l3.667-19.688 17.88-92.56z" fill="#efedef"/><path d="m440.172 265.986-39.734-22.322h-158.959-56.669l-99.083 18.37-22.705 4.21c-15.908 5.458-27.347 20.535-27.347 38.294 0 22.36 18.126 40.486 40.486 40.486h56.669c-9.309 0-17.867-7.566-24.673-16.51-8.813-11.58-.3-28.199 14.244-27.728 10.965.355 20.759.672 20.759.672 7.35.238 14.576 1.656 21.477 4.214 6.911 2.562 13.316 6.196 19.042 10.808 19.151 15.411 43.229 23.898 67.798 23.898 21.751 0 43.117-6.651 61.02-18.871v23.516h85.84v-44.643c0-.093.074-.17.167-.173l11.739-.38c14.811-.479 29.088-6.146 40.224-15.977 2.461-2.179 4.727-4.546 6.807-7.055-4.639-4.927-10.501-8.692-17.102-10.809z" fill="#fccd7f"/><path d="m434.099 200.688c13.21 9.69 19.92 25.94 17.38 42.13-1.62 10.4-6.84 19.48-14.27 26.06-7.43 6.56-17.09 10.62-27.61 10.96l-11.74.38c-10.88.35-19.52 9.27-19.52 20.16v70.57c0 12.66-10.26 22.92-22.92 22.92-6.32 0-12.06-2.57-16.2-6.71-4.15-4.15-6.72-9.88-6.72-16.21v-58.61c0-3.37-1.1-6.64-3.14-9.32-3.04-3.99-7.63-6.09-12.28-6.09-3.32 0-6.66 1.07-9.47 3.27-.29.23-.58.47-.87.7-16.13 12.98-35.7 19.48-55.26 19.48s-39.13-6.5-55.26-19.48c-7.45-6-15.78-10.7-24.63-13.98s-18.23-5.14-27.78-5.45l-50.45-1.63c-21.04-.68-38.63-16.22-41.88-37.02-.36-2.27-.53-4.54-.53-6.8 0-13.82 6.55-27 17.91-35.33l35.25-25.85c6.97-5.12 12.28-12.17 15.25-20.29 5.7-15.59 14.59-29.59 25.92-41.23 11.32-11.64 25.08-20.92 40.51-27.04l19.7-7.82 40.32-10.55 51.66 10.55 19.7 7.82c30.86 12.25 55.03 37.09 66.43 68.27 1.48 4.06 3.56 7.85 6.12 11.27 2.58 3.42 5.64 6.46 9.13 9.02z" fill="#ffbee7"/></g></g><g><path d="m189.537 189.795c-1.706 0-3.42-.579-4.827-1.763l-9.46-7.966c-3.168-2.668-3.574-7.399-.906-10.568 2.668-3.167 7.399-3.575 10.568-.906l9.46 7.966c3.168 2.668 3.574 7.399.906 10.568-1.484 1.761-3.605 2.669-5.741 2.669z" fill="#fe93d3"/></g><g><path d="m245.798 185.814c-1.259 0-2.534-.317-3.706-.985-3.599-2.051-4.854-6.631-2.804-10.229l5.674-9.958c2.052-3.599 6.63-4.854 10.229-2.804 3.599 2.051 4.854 6.631 2.804 10.229l-5.674 9.958c-1.383 2.427-3.916 3.789-6.523 3.789z" fill="#fe93d3"/></g><g><path d="m318.002 154.942c-4.142 0-7.5-3.358-7.5-7.5v-8.465c0-4.142 3.358-7.5 7.5-7.5s7.5 3.358 7.5 7.5v8.465c0 4.142-3.358 7.5-7.5 7.5z" fill="#fe93d3"/></g><g><path d="m304.063 195.77c-2.052 0-4.096-.837-5.577-2.483l-8.962-9.958c-2.771-3.079-2.521-7.821.558-10.592s7.821-2.522 10.592.558l8.962 9.958c2.771 3.079 2.521 7.821-.558 10.592-1.434 1.29-3.228 1.925-5.015 1.925z" fill="#fe93d3"/></g><g><path d="m297.267 243.664h-14.119c-4.142 0-7.5-3.358-7.5-7.5s3.358-7.5 7.5-7.5h14.119c4.142 0 7.5 3.358 7.5 7.5s-3.358 7.5-7.5 7.5z" fill="#fe93d3"/></g><g><path d="m216.928 237.595c-1.552 0-3.118-.48-4.46-1.475-3.328-2.467-4.025-7.164-1.559-10.492l5.536-7.469c2.467-3.328 7.163-4.026 10.492-1.559 3.328 2.467 4.025 7.164 1.559 10.492l-5.536 7.469c-1.473 1.985-3.738 3.034-6.032 3.034z" fill="#fe93d3"/></g><g><path d="m153.069 232.905c-1.31 0-2.636-.343-3.843-1.064l-8.807-5.268c-3.555-2.126-4.712-6.731-2.586-10.287s6.729-4.713 10.287-2.586l8.807 5.268c3.555 2.126 4.712 6.731 2.586 10.287-1.404 2.348-3.892 3.65-6.444 3.65z" fill="#fe93d3"/></g><g><path d="m351.853 222.161c-1.232 0-2.482-.304-3.635-.945-3.621-2.012-4.926-6.578-2.914-10.198l4.979-8.962c2.011-3.622 6.578-4.926 10.198-2.914 3.621 2.012 4.926 6.578 2.914 10.198l-4.979 8.962c-1.37 2.467-3.927 3.859-6.563 3.859z" fill="#fe93d3"/></g></g><path d="m377.69 373.158c-6.32 0-12.06-2.57-16.2-6.71-4.15-4.15-6.72-9.88-6.72-16.21v-58.255c0-3.206-.861-6.388-2.675-9.032-3.024-4.407-7.851-6.733-12.745-6.733-3.32 0-6.66 1.07-9.47 3.27-.29.23-.58.47-.87.7-2.115 1.702-4.289 3.291-6.515 4.769-15.956 10.59-37.059 9.831-52.02-2.124-.078-.062-.156-.125-.234-.187-7.45-6-15.78-10.7-24.63-13.98s-18.23-5.14-27.78-5.45l-50.45-1.63c-21.04-.68-38.63-16.22-41.88-37.02-.36-2.27-.53-4.54-.53-6.8 0-13.82 6.55-27 17.91-35.33l35.25-25.85c6.97-5.12 12.28-12.17 15.25-20.29.046-.125.092-.25.138-.375 3.615-9.773 15.234-13.76 24.16-8.384 9.881 5.952 21.445 9.379 33.8 9.379 31.279 0 57.511-21.949 64.149-51.249l-18.159-7.208-51.66-10.55-40.32 10.55-19.7 7.82c-15.43 6.12-29.19 15.4-40.51 27.04-11.33 11.64-20.22 25.64-25.92 41.23-2.97 8.12-8.28 15.17-15.25 20.29l-35.25 25.85c-11.36 8.33-17.91 21.51-17.91 35.33 0 2.26.17 4.53.53 6.8 3.25 20.8 20.84 36.34 41.88 37.02l50.45 1.63c9.55.31 18.93 2.17 27.78 5.45s17.18 7.98 24.63 13.98c16.13 12.98 35.7 19.48 55.26 19.48s39.13-6.5 55.26-19.48c.26-.207.521-.42.781-.629.03-.024.059-.048.089-.071 2.81-2.2 6.15-3.27 9.47-3.27 4.894 0 9.721 2.326 12.745 6.733 1.814 2.643 2.675 5.826 2.675 9.032v58.255c0 6.33 2.57 12.06 6.72 16.21 4.14 4.14 9.88 6.71 16.2 6.71 11.919 0 21.707-9.103 22.813-20.732-.181.003-.36.021-.542.021z" fill="#feaee1"/><circle cx="251.479" cy="71.128" fill="#ee6161" r="45.788"/><g><path d="m257.498 70.595c-4.142 0-7.5-3.358-7.5-7.5v-13.39c0-17.155 6.68-33.283 18.811-45.413l2.096-2.096c2.929-2.929 7.678-2.929 10.606 0 2.929 2.929 2.929 7.678 0 10.606l-2.096 2.096c-9.297 9.297-14.417 21.658-14.417 34.806v13.39c0 4.143-3.358 7.501-7.5 7.501z" fill="#d1a08f"/></g></g></svg>