<svg height="367pt" viewBox="0 -13 367.451 367" width="367pt" xmlns="http://www.w3.org/2000/svg"><circle cx="66.615" cy="129.074" r="20.457" fill="#e40000"/><circle cx="109.217" cy="166.365" r="18.402" fill="#e40000"/><circle cx="131.575" cy="89.072" r="19.329" fill="#e40000"/><circle cx="169.592" cy="161.205" r="20.32" fill="#e40000"/><circle cx="103.285" cy="249.902" r="22.618" fill="#e40000"/><circle cx="213.545" cy="221.771" r="27.227" fill="#e40000"/><path fill="#a6d130" stroke="#819739" stroke-width="2" d="M50.886 122c.936-.068 3.696 1.274 4.063 2.258.324.871-.633 2.485-1.355 3.16-.67.627-2.047 1.312-2.708.903-.838-.518-1.574-3.899-1.355-4.966.148-.719.698-1.307 1.355-1.355zm78.094-44.845c.903-.452 3.253.695 4.063 1.354.599.488.881 1.158.903 1.806.023.699-.187 1.954-.903 2.257-.999.423-4.827-.347-5.417-1.354-.532-.905.451-3.612 1.354-4.063zm-22.277 80.993c.945-.038 2.742.084 3.161.903.518 1.014-.348 4.827-1.355 5.418-.905.531-3.253-.695-4.063-1.355a2.417 2.417 0 01-.903-1.805c-.023-.699.377-1.731.903-2.258.527-.526 1.42-.868 2.257-.903zm-9.991 84.8c1.239-.057 3.404 1.157 4.063 2.257.624 1.042.805 3.326 0 4.063-.961.879-5.162.867-6.321 0-.98-.734-1.303-3.003-.903-4.063.39-1.031 2.007-2.205 3.161-2.257zm69.216-91.54c.931-.171 3.394.432 4.064 1.355.656.903.677 3.386 0 4.063-.678.677-3.161.656-4.064 0-.922-.67-1.525-3.133-1.354-4.063.124-.675.68-1.23 1.354-1.355zm44.423 53.529c1.356-.492 5.27 1.801 5.869 3.16.501 1.14-.264 3.491-1.355 4.064-1.32.693-6.062-.099-6.771-1.355-.684-1.21.932-5.388 2.257-5.869z"/><circle cx="-164.616" cy="-276.465" r="20.457" transform="rotate(180)" fill="#e40000"/><circle cx="-291.164" cy="-161.302" r="18.402" transform="rotate(180)" fill="#e40000"/><circle cx="-268.806" cy="-238.595" r="19.329" transform="rotate(180)" fill="#e40000"/><circle cx="-230.789" cy="-166.462" r="20.32" transform="rotate(180)" fill="#e40000"/><circle cx="-297.096" cy="-77.765" r="22.618" transform="rotate(180)" fill="#e40000"/><circle cx="-186.836" cy="-105.896" r="27.227" transform="rotate(180)" fill="#e40000"/><path fill="#a6d130" stroke="#819739" stroke-width="2" d="M153.223 272.929c1.188-.681 5.137-.182 5.869.903.714 1.059-.213 4.844-1.354 5.418-1.198.602-5.249-1.06-5.869-2.258-.532-1.027.311-3.465 1.354-4.063zm117.893-44.168c1.071-.115 4.154 1.013 4.966 2.257.782 1.199.763 4.172 0 4.966-.704.733-3.039.75-4.063 0-1.22-.893-2.417-4.671-2.257-5.869.099-.744.649-1.278 1.354-1.354zm-39.351-71.622c.931-.172 3.242.48 4.063 1.354.778.826 1.446 2.785.903 3.612-.638.972-4.373 2.012-5.417 1.354-1.003-.632-1.178-3.901-.903-4.966.186-.723.68-1.23 1.354-1.354zm-45.582-71.686c1.358-.716 5.573 1.801 6.772 3.16.907 1.029 1.117 2.491.902 3.612-.218 1.139-1.057 2.828-2.257 3.16-1.53.422-5.837-.661-6.772-2.258-.967-1.653-.026-6.946 1.355-7.674zm118.291-16.284c.912-.616 3.343.306 4.063 1.354.817 1.189.947 4.906 0 5.869-.917.932-4.647 1.001-5.417 0-.871-1.131.222-6.459 1.354-7.223zm-12.623 81.17c.914-.635 3.462.215 4.063 1.354.764 1.448-.193 6.869-1.354 7.675-.915.634-3.462-.215-4.063-1.355-.764-1.447.192-6.869 1.354-7.674z"/></svg>