<svg width="200" height="200" xmlns="http://www.w3.org/2000/svg"><g transform="translate(5.932 8.025)"><path d="M107.106 106.74c0 52.741-15.708 63.902-35.083 63.902s-35.082-11.161-35.082-63.902c0-52.742 15.707-95.494 35.082-95.494s35.083 42.753 35.083 95.494z" fill="#cd8e50"/><path d="M48.048 114.864c0-15.818 1.413-30.74 3.914-43.878.478-2.502-1.748-8.244-1.195-10.612 1.071-4.582 5.023-5.594 6.357-9.6 6.418-19.288 15.692-31.405 26.007-31.405 1.162 0 2.312.158 3.446.459-4.434-5.509-9.361-8.582-14.554-8.582-19.375 0-35.082 42.753-35.082 95.495 0 41.111 9.545 56.958 22.931 61.947-7.252-9.028-11.824-25.374-11.824-53.824z" fill="#dda450"/><path d="M97.025 39.76c-6.547 16.173-10.978 42.104-11.092 71.494-.018 4.665 3.506 8.129 3.584 10.775.1 3.4-3.211 6.592-2.989 9.587 1.075 14.474 3.536 24.358 6.959 30.98 8.284-8.514 13.619-25.125 13.619-55.856 0-26.096-3.848-49.743-10.081-66.98z" fill="#ba8050"/><path d="M151.941 113.044c0 50.487-12.983 61.172-28.997 61.172-16.016 0-28.999-10.685-28.999-61.172 0-50.489 12.983-91.416 28.998-91.416s28.998 40.929 28.998 91.416z" fill="#ffb750"/><path d="M55.945 21.847c3.405 6.23 9.33 10.359 16.078 10.359 6.748 0 12.674-4.129 16.079-10.359-10.061-14.148-22.103-14.139-32.157 0z" fill="#fff"/><path d="M80.524 16.248c-1.37-1.926-2.84-3.397-4.382-4.349-2.736-.872-5.499-.874-8.236 0-1.543.952-3.013 2.423-4.384 4.349 1.801 3.294 4.934 5.477 8.501 5.477 3.568 0 6.702-2.182 8.501-5.477z" fill="#e6e9df"/><path d="M57.558 100.417c-1.89 0-3.19-1.966-2.39-3.719.733-1.633 2.206-6.541.21-9.516-4.2-6.255-.192-12.538-.02-12.803a2.629 2.629 0 014.412 2.86c-.115.184-2.254 3.697-.028 7.013 1.723 2.567 2.289 5.946 1.638 9.773-.462 2.714-1.39 4.768-1.429 4.853a2.629 2.629 0 01-2.393 1.54zm22.964-11.875c-1.89 0-3.19-1.967-2.39-3.72.733-1.633 2.206-6.54.21-9.515-4.2-6.256-.191-12.54-.019-12.804a2.628 2.628 0 014.412 2.86c-.114.181-2.255 3.696-.029 7.014 1.723 2.566 2.29 5.945 1.638 9.772-.462 2.714-1.39 4.768-1.429 4.853a2.629 2.629 0 01-2.393 1.54zm-22.964 55.744c-1.892 0-3.19-1.967-2.39-3.72.733-1.633 2.206-6.54.21-9.515-4.2-6.256-.192-12.538-.02-12.803a2.63 2.63 0 014.412 2.86c-.117.186-2.253 3.698-.028 7.013 1.723 2.567 2.289 5.946 1.638 9.773-.462 2.714-1.39 4.767-1.429 4.853a2.63 2.63 0 01-2.393 1.54zm21.222 16.676c-1.893 0-3.189-1.968-2.39-3.72.733-1.633 2.206-6.54.21-9.515-4.2-6.256-.192-12.539-.02-12.803a2.629 2.629 0 014.413 2.858c-.11.176-2.258 3.694-.029 7.015 1.723 2.566 2.29 5.945 1.638 9.772-.462 2.714-1.39 4.768-1.429 4.853a2.63 2.63 0 01-2.393 1.54zm-1.184-36.304a2.629 2.629 0 01-2.517-1.876c-.553-1.85-1.389-3.772-2.483-5.713-4.743-8.413-2.171-17.003-2.06-17.364a2.628 2.628 0 015.025 1.544c-.036.124-1.974 6.873 1.614 13.238 1.286 2.281 2.275 4.565 2.94 6.788a2.63 2.63 0 01-2.519 3.383zM68.44 66.57a2.629 2.629 0 01-2.517-1.877c-.554-1.85-1.39-3.771-2.483-5.713-4.743-8.413-2.171-17.002-2.06-17.364a2.628 2.628 0 015.025 1.544c-.036.125-1.973 6.874 1.614 13.239 1.286 2.28 2.275 4.565 2.94 6.788a2.63 2.63 0 01-2.519 3.382z" fill="#9f7050"/><path d="M86.324 120.234c.566 1.554.15 3.186-.93 3.642-1.08.456-2.415-.436-2.982-1.991-.567-1.556-.149-3.187.93-3.643 1.08-.456 2.417.437 2.982 1.992z" fill="#ba8050"/><ellipse cx="122.943" cy="102.919" fill="#ea8e50" rx="19.373" ry="49.051"/><ellipse cx="122.943" cy="102.919" fill="#ffe070" rx="12.827" ry="40.896"/><path d="M122.943 62.021c-1.131 0-2.229.469-3.273 1.345 5.498 4.614 9.554 20.572 9.554 39.552s-4.056 34.938-9.554 39.552c1.044.876 2.142 1.346 3.273 1.346 7.084 0 12.827-18.311 12.827-40.897 0-22.588-5.743-40.898-12.827-40.898z" fill="#ffce66"/><path d="M122.943 128.411a2.628 2.628 0 01-2.629-2.629V77.904a2.629 2.629 0 015.258 0v47.878a2.629 2.629 0 01-2.629 2.629z" fill="#9f7050"/><ellipse cx="56.811" cy="62.688" fill="#dda450" rx="2.875" ry="3.094"/><path d="M121.312 174.054c.804.082 1.616.151 2.438.151 15.645.008 28.191-11.524 28.191-61.161 0-49.639-12.551-90.036-28.193-91.379a9.967 9.967 0 00-2.436.538c14.485 5.092 25.748 43.817 25.748 90.841 0 47.023-11.263 59.516-25.748 61.01z" fill="#ea8e50"/></g></svg>