<svg height="512pt" viewBox="0 0 512 512" width="512pt" xmlns="http://www.w3.org/2000/svg"><path d="m256 512c-71.6875 0-129.804688-58.113281-129.804688-129.804688v-252.390624c0-71.691407 58.117188-129.804688 129.804688-129.804688s129.804688 58.113281 129.804688 129.804688v252.394531c0 71.6875-58.117188 129.800781-129.804688 129.800781zm0 0" fill="#fdca74"/><path d="m256 0c-6.476562 0-12.839844.480469-19.058594 1.394531 62.652344 9.21875 110.746094 63.195313 110.746094 128.40625v252.394531c0 65.214844-48.09375 119.1875-110.746094 128.40625 6.21875.917969 12.582032 1.398438 19.058594 1.398438 71.6875 0 129.804688-58.113281 129.804688-129.804688v-252.390624c0-71.691407-58.117188-129.804688-129.804688-129.804688zm0 0" fill="#e6af55"/><path d="m398.515625 322.28125h-285.03125c-21.425781 0-38.796875-17.371094-38.796875-38.796875v-54.96875c0-21.425781 17.371094-38.796875 38.796875-38.796875h285.03125c21.425781 0 38.796875 17.371094 38.796875 38.796875v54.96875c0 21.425781-17.371094 38.796875-38.796875 38.796875zm0 0" fill="#fb9050"/><path d="m401.847656 189.71875h-43.269531c19.585937 0 35.464844 15.878906 35.464844 35.46875v61.625c0 19.589844-15.878907 35.46875-35.464844 35.46875h43.269531c19.585938 0 35.464844-15.878906 35.464844-35.46875v-61.625c0-19.589844-15.878906-35.46875-35.464844-35.46875zm0 0" fill="#eb7936"/><path d="m74.6875 285.871094h-45.691406c-16.015625 0-28.996094-12.984375-28.996094-28.996094v-1.75c0-16.011719 12.980469-28.996094 28.996094-28.996094h45.691406zm0 0" fill="#fb9050"/><path d="m46.359375 226.128906h28.328125v59.738282h-28.328125zm0 0" fill="#eb7936"/><path d="m437.3125 285.871094h44.816406c16.5 0 29.871094-13.375 29.871094-29.871094s-13.371094-29.871094-29.871094-29.871094h-44.816406zm0 0" fill="#fb9050"/><path d="m482.128906 226.128906h-27.472656c16.5 0 29.871094 13.375 29.871094 29.871094s-13.371094 29.871094-29.871094 29.871094h27.472656c16.496094 0 29.871094-13.375 29.871094-29.871094s-13.371094-29.871094-29.871094-29.871094zm0 0" fill="#eb7936"/></svg>