<svg id="Capa_1" enable-background="new 0 0 512 512" height="512" viewBox="0 0 512 512" width="512" xmlns="http://www.w3.org/2000/svg"><g><g><g><g><g><path d="m148.368 135.071s31.487-32.062 42.538-42.166c15.355-14.039 26.441-32.167 33.41-45.934 3.431-6.777 13.517-5.368 14.964 2.089 4.91 25.304 7.745 67.927-15.361 106.961-35.786 60.456-62.739 44.07-62.739 44.07z" fill="#f84954"/></g></g><g><g><g><path d="m323.651 323.481c-3.275-15.36-43.447-126.197-116.567-214.152-4.733-5.693-9.603-10.806-14.929-14.849-8.8-6.679-16.229-15.031-21.174-24.909-.317-.633-.643-1.271-.978-1.913-6.097-11.677-14.924-29.842-14.924-29.842.001-.002.003-.005.004-.008-12.647 23.026-22.3 54.089-21.171 94.795.01.356.024.74.043 1.15.118 2.592-.6 5.159-2.056 7.307-10.446 15.421-21.305 30.974-31.839 46.855l-.228 3.333-5.792 9.167-3.232 1.699c-7.142-10.828-14.933-24.949-22.188-42.943-1.379-3.42-6.382-2.892-7.021.739-5.625 31.983-7.868 52.759-3.174 79.458 1.642 9.341.47 18.957-3.294 27.662-4.958 11.465-11.802 29.443-16.59 50.638l1.395 4.455-1.687 10.438-3.253 4.232c-10.296-11.33-17.926-21.654-22.538-28.36-1.915-2.785-6.25-1.703-6.654 1.653-3.364 27.958-5.683 111.266 73.82 167.861l.001-.004c34.511 22.441 69.425 34.057 114.069 34.057 33.153 0 63.074-10.312 88.871-26.907 35.688-39.138 53.752-102.211 41.086-161.612z" fill="#fa8084"/></g><g><path d="m380.83 281.011c-.852-3.084-5.001-3.632-6.663-.898-5.052 8.308-14.527 22.308-26.387 32.451l-2.655-2.314c-1.014-3.735-3.703-12.125-3.703-12.125l.94-2.915c-4.392-12.16-10.163-25.547-15.4-37.022-7.804-17.1-10.885-36.036-8.598-54.693 2.565-20.918.959-39.31-3.573-66.019-.617-3.637-5.636-4.197-7.016-.775-7.906 19.6-16.447 34.606-24.09 45.756l-3.268-.916c-1.678-2.497-2.731-4.184-4.417-6.667l-.117-3.955c-12.562-18.446-25.208-36.536-36.732-54.591-5.524-8.656-12.898-15.036-21.158-19.159-4.998-2.495-8.917-6.687-11.003-11.869-1.362-3.383-2.985-6.937-4.92-10.642-10.645-20.388-8.846-44.368-4.63-62.764 2.178-9.504-9.372-15.896-16.262-8.997-8.561 8.572-17.95 20.081-26.099 34.919-.184 12.31 1.827 25.165 7.924 36.842.335.642.661 1.28.978 1.913 4.945 9.879 12.374 18.23 21.174 24.909 5.326 4.042 10.196 9.155 14.929 14.849 73.12 87.955 113.292 198.792 116.567 214.152 14.269 66.919-7.652 128.304-52.646 165.072 85.784-41.757 133.84-152.976 116.825-214.542z" fill="#f8636f"/></g></g><g><g><path d="m480.248 364.788c.566-3.908-2.42-7.424-6.369-7.425h-5.202l-9.152 8.599h-238.508l-9.111-8.599h-17.876c-13.716 0-23.711 12.976-20.239 26.245 18.343 70.097 79.786 122.752 154.309 127.96 76.815-9.599 141.113-70.535 152.148-146.78z" fill="#f8636f"/><path d="m486.513 357.363h-17.835c3.949 0 6.936 3.516 6.37 7.425-11.216 77.496-74.078 138.263-152.559 146.298 5.846.6 11.778.914 17.783.914 79.941 0 147.148-54.512 166.481-128.392 3.471-13.269-6.525-26.245-20.24-26.245z" fill="#f84954"/><path d="m340.271 469.461c65.627 0 119.847-48.805 128.365-112.098h-256.73c8.518 63.293 62.738 112.098 128.365 112.098z" fill="#fdd1d3"/></g><g fill="#f8636f"><circle cx="260.718" cy="390.758" r="7.48"/><circle cx="386.966" cy="392.111" r="7.48"/><circle cx="324.132" cy="384.631" r="7.48"/><circle cx="301.769" cy="422.514" r="7.48"/><circle cx="378.082" cy="429.994" r="7.48"/><circle cx="429.774" cy="381.339" r="7.48"/></g></g></g></g><path d="m192.276 208.499c-.013 0-.026 0-.039 0-5.134 0-9.45 3.333-10.747 8.303-4.722 18.101-16.911 53.851-45.487 89.922-2.61 3.295-2.055 8.081 1.24 10.691 3.293 2.609 8.082 2.055 10.691-1.24 24.284-30.653 37.426-61.154 44.276-81.973 6.78 20.953 19.922 51.597 44.543 82.033 2.644 3.268 7.436 3.774 10.703 1.131 3.268-2.644 3.774-7.436 1.131-10.703-28.854-35.668-40.923-71.551-45.549-89.766-1.271-5.006-5.596-8.382-10.762-8.398z" fill="#f8636f"/></g><g fill="#f8636f"><path d="m119.877 236.593c3.611-2.151 4.793-6.823 2.642-10.434l-22.453-38.239c-3.119 4.703-6.214 9.43-9.256 14.196l18.634 31.836c2.154 3.615 6.831 4.79 10.433 2.641z"/><path d="m38.544 317.671c-1.386 6.133-2.601 12.533-3.547 19.124 17.437 19.715 11.249 12.652 23.296 26.552 2.768 3.18 7.577 3.496 10.737.746 3.171-2.758 3.505-7.566.746-10.737z"/></g><g fill="#f84954"><path d="m275.879 170.922-23.382 32.442c-2.452 3.415-1.671 8.169 1.744 10.621 3.423 2.456 8.173 1.664 10.62-1.744l18.824-29.784c-2.591-3.865-5.197-7.705-7.806-11.535z"/><path d="m342.358 295.211-20.014 22.811c-2.883 3.058-2.741 7.875.317 10.759 3.049 2.875 7.866 2.75 10.758-.316 3.823-4.03 7.142-7.441 14.361-15.901-1.268-5.167-3.17-11.117-5.422-17.353z"/></g></g></svg>