<svg height="512" viewBox="0 0 58 58" width="512" xmlns="http://www.w3.org/2000/svg"><g id="Page-1" fill="none" fill-rule="evenodd"><g id="019---Eclair" fill-rule="nonzero"><path id="Shape" d="m58 19.28c-.0009332 4.4368963-1.7633667 8.6919144-4.9 11.83l-21.99 21.99c-3.9322217 3.9322948-9.5601077 5.6558817-15.02 4.6-6.1424753-1.2153846-11.13161864-5.6868228-13.01-11.66l46.64-41.23c3.4588306 2.04407712 6.0728292 5.2574866 7.37 9.06.258122.7230535.4587455 1.4653606.6 2.22.2080633 1.0505402.3119003 2.1190559.31 3.19z" fill="#f6bd76"/><path id="Shape" d="m51.89 10.648c-1.98.19-3.95.26-6.12 2.42-4.08 4.091-.7 7.471-4.79 11.561s-7.47.7-11.55 4.79-.71 7.471-4.79 11.551-7.47.71-11.56 4.8c-2.17 2.171-2.24 4.141-2.43 6.131-.1299101 1.2963489-.99478629 2.4019708-2.22172715 2.840164-1.22694087.4381931-2.59653767.1305973-3.51827285-.790164l-.01-.01c-6.53332748-6.5382978-6.53332748-17.1337022 0-23.672l25.37-25.369c6.5385247-6.53089268 17.1314753-6.53089268 23.67 0 .9207694.92303419 1.2283627 2.29344946.7903998 3.52145471s-1.5433377 2.09449139-2.8403998 2.22654529z" fill="#a16a43"/><path id="Shape" d="m8.285 43.309c-1.2169966.0040054-2.38505546-.4788451-3.244-1.341-.39074145-.3904653-.3909653-1.0237585-.00049999-1.4145.39046532-.3907414 1.02375853-.3909653 1.41449999-.0005 1.02497118.9746047 2.63402882.9746047 3.659 0 1.0089185-1.0110202 1.0089185-2.6479798 0-3.659-1.20615318-1.1487915-1.69492993-2.8610602-1.27697509-4.4734625.41795484-1.6124024 1.67697789-2.8716195 3.28931569-3.2898229 1.6123379-.4182034 3.3246819.0703093 4.4736594 1.2762854 1.0249712.9746047 2.6340288.9746047 3.659 0 1.0089185-1.0110202 1.0089185-2.6479798 0-3.659-1.7916117-1.7910594-1.7920594-4.6953883-.001-6.487s4.6953883-1.7920594 6.487-.001c1.0247686.9751116 2.6342314.9751116 3.659 0 1.0089185-1.0110202 1.0089185-2.6479798 0-3.659-1.158791-1.1589696-1.6112551-2.8481092-1.1869535-4.4311364.4243017-1.5830272 1.6609075-2.81944246 3.2440001-3.24350006 1.5830926-.42405761 3.2721625.02866686 4.4309534 1.18763646 1.0248378.973971 2.6331622.973971 3.658 0 .4865173-.48452059.7600083-1.14287109.7600083-1.8295s-.273491-1.34497941-.7600083-1.8295c-.3789722-.39237889-.3735524-1.01608478.0121814-1.40181858.3857338-.38573379 1.0094397-.39115363 1.4018186-.01218142 1.1587909 1.15879094 1.6113503 2.84776553 1.1872034 4.4307034-.4241469 1.5829379-1.6605621 2.8193531-3.2435 3.2435s-3.2719125-.0284125-4.4307034-1.1872034c-.6536174-.6536174-1.6062855-.908884-2.4991435-.6696435-.8928579.2392406-1.5902594.9366421-1.8295 1.8295-.2392405.892858.0160261 1.8455261.6696435 2.4991435 1.7913355 1.7913356 1.7913355 4.6956644 0 6.487-1.7913356 1.7913355-4.6956644 1.7913355-6.487 0-1.0227987-.9790633-2.6352013-.9790633-3.658 0-1.0078193 1.0114746-1.0078193 2.6475254 0 3.659 1.7913356 1.7916117 1.7911117 4.6961644-.0005 6.4875s-4.6961644 1.7911117-6.4875-.0005c-1.0155934-.9822669-2.6312985-.9684608-3.629958.0310177-.9986596.9994786-1.0111411 2.6151945-.028042 3.6299823 1.3122028 1.3114612 1.7047711 3.2844416.9945257 4.9983139-.7102455 1.7138723-2.3833153 2.830832-4.2385257 2.8296861z" fill="#cb936a"/><path id="Shape" d="m57.69 16.09-41.6 41.61c-.755741-.150649-1.5006981-.3510859-2.23-.6l43.23-43.23c.258122.7230535.4587455 1.4653606.6 2.22z" fill="#f1ebc6"/></g></g></svg>