<svg width="200" height="200" xmlns="http://www.w3.org/2000/svg"><path d="M85.633 109.604a11.211 11.211 0 00-3.484 3.192 8.558 8.558 0 00-.103.142c-1.213 1.69-1.868 3.667-1.987 5.707-.197 3.427-1.244 6.861-3.224 10.02-3.317 5.293-8.608 8.8-14.468 10.188a8.62 8.62 0 00-4.125 2.319l-.04.04c-1.15 1.16-1.949 2.603-2.207 4.172a14.143 14.143 0 01-1.988 5.223c-2.047 3.266-5.22 5.513-8.777 6.562-4.812 1.419-9.298 3.672-13.31 6.548-.051.037-.103.072-.154.11-2.786 1.993-6.728-.203-6.218-3.467l.028-.18c.738-4.702.667-9.494-.335-14.156-.74-3.445-.184-7.15 1.862-10.416a14.97 14.97 0 013.894-4.16 7.933 7.933 0 002.812-3.836l.017-.05c.507-1.466.58-3.04.166-4.529-1.537-5.509-.83-11.574 2.487-16.866 1.98-3.16 4.665-5.68 7.753-7.496 1.838-1.08 3.357-2.576 4.344-4.394.029-.052.057-.102.083-.153.747-1.374 1.208-2.876 1.284-4.418.174-3.482 1.224-6.973 3.236-10.183 2.144-3.423 5.117-6.096 8.534-7.937.866-.466 1.615-1.1 2.168-1.882l.109-.152a5.506 5.506 0 001.033-3.133c.039-3.75 1.093-7.54 3.263-11.003 2.907-4.64 7.33-7.906 12.325-9.577a16.296 16.296 0 006.496-4.081l.065-.068c1.82-1.866 3.154-4.13 3.764-6.601a14.17 14.17 0 011.768-4.152c2.046-3.267 5.22-5.512 8.777-6.56 4.812-1.42 9.298-3.674 13.31-6.55l.153-.11c2.787-1.994 6.728.202 6.218 3.467l-.027.18c-.738 4.702-.667 9.496.334 14.155.742 3.446.185 7.152-1.862 10.417a14.86 14.86 0 01-3.005 3.462c-2 1.696-3.46 3.89-4.318 6.293l-.03.085c-.843 2.363-1.088 4.879-.66 7.336.856 4.933-.046 10.164-2.953 14.803-2.168 3.462-5.183 6.159-8.648 8.002a5.907 5.907 0 00-2.41 2.362l-.091.163a5.792 5.792 0 00-.702 2.698c-.06 3.71-1.111 7.458-3.256 10.88-2.011 3.21-4.75 5.761-7.901 7.584zm0 0" fill="#03ad6b"/><path d="M64.612 85.897c15.924-25.411 35.487-46.53 56.227-62.138-.384 3.927-.202 7.89.63 11.76.74 3.446.185 7.152-1.862 10.417a14.86 14.86 0 01-3.005 3.462c-2.002 1.696-3.46 3.89-4.318 6.293l-.03.087c-.843 2.36-1.088 4.877-.662 7.334.857 4.933-.044 10.164-2.951 14.803-2.17 3.462-5.183 6.159-8.65 8.002a5.908 5.908 0 00-2.5 2.527 5.786 5.786 0 00-.7 2.698c-.061 3.71-1.113 7.456-3.257 10.88-2.011 3.208-4.75 5.76-7.901 7.582a11.187 11.187 0 00-3.484 3.192 8.558 8.558 0 00-.103.142c-1.213 1.69-1.868 3.667-1.987 5.706-.197 3.428-1.244 6.862-3.224 10.02-3.317 5.294-8.608 8.801-14.468 10.19a8.604 8.604 0 00-4.125 2.318c-.015.013-.027.026-.04.04-1.15 1.158-1.948 2.601-2.207 4.172a14.134 14.134 0 01-1.986 5.223c-2.05 3.264-5.221 5.511-8.78 6.56-3.996 1.18-7.765 2.94-11.226 5.15 4.497-24.662 14.683-51.01 30.609-76.42zm0 0" fill="#23c77d"/><path d="M100.429 153.995c-1.63.155-3.195.672-4.608 1.448-.053.03-.105.06-.158.088a11.565 11.565 0 00-4.415 4.329c-1.755 3.007-4.278 5.673-7.514 7.709-5.424 3.411-11.805 4.406-17.723 3.258a9.008 9.008 0 00-4.784.402c-.018.007-.036.012-.054.02-1.569.574-2.952 1.547-3.908 2.856a15.153 15.153 0 01-4.193 3.893c-3.346 2.105-7.24 2.83-10.926 2.32-4.988-.69-10.067-.497-15.007.453a6.08 6.08 0 01-.187.036c-3.427.657-5.967-2.935-4.009-5.668.036-.05.072-.1.11-.15 2.827-3.934 4.967-8.282 6.208-12.89.917-3.408 3.124-6.519 6.47-8.623a16.06 16.06 0 015.42-2.156c1.648-.329 3.134-1.16 4.3-2.304a.48.48 0 01.04-.04c1.13-1.111 1.919-2.5 2.23-4.01 1.15-5.595 4.577-10.769 10-14.18a24.233 24.233 0 0110.433-3.583c2.153-.22 4.21-.946 5.935-2.18l.145-.104c1.305-.932 2.41-2.098 3.19-3.455 1.758-3.066 4.31-5.784 7.598-7.851a24.265 24.265 0 0111.341-3.66 6.704 6.704 0 002.986-.9 5.87 5.87 0 002.372-2.4c1.76-3.362 4.454-6.348 8.001-8.579 4.753-2.99 10.243-4.122 15.511-3.583 2.625.267 5.277-.1 7.73-1.022l.09-.033c2.499-.937 4.743-2.432 6.43-4.41a15.244 15.244 0 013.5-3.015c3.346-2.106 7.24-2.832 10.928-2.32 4.986.689 10.064.495 15.003-.455.063-.012.126-.024.189-.038 3.428-.655 5.967 2.937 4.008 5.67-.036.05-.07.1-.107.15-2.828 3.936-4.969 8.283-6.21 12.89-.918 3.409-3.123 6.519-6.47 8.623a16.027 16.027 0 01-4.299 1.891c-2.582.708-4.908 2.086-6.785 3.904-.023.02-.045.042-.069.062-1.842 1.784-3.221 3.95-3.968 6.34-1.498 4.793-4.715 9.138-9.467 12.13a24.286 24.286 0 01-11.473 3.669 6.312 6.312 0 00-3.416 1.253 6.154 6.154 0 00-1.873 2.144c-1.763 3.319-4.431 6.263-7.94 8.47a24.196 24.196 0 01-10.605 3.6zm0 0" fill="#00824d"/><path d="M92.392 124.034c26.037-16.378 53.376-27.403 79.243-32.977-2.151 3.38-3.81 7.023-4.842 10.851-.917 3.409-3.124 6.52-6.469 8.624a16.059 16.059 0 01-4.299 1.89c-2.583.709-4.908 2.086-6.785 3.904-.024.02-.045.042-.069.064-1.844 1.783-3.221 3.95-3.968 6.34-1.498 4.794-4.715 9.137-9.47 12.129a24.277 24.277 0 01-11.472 3.67 6.277 6.277 0 00-3.257 1.143 6.173 6.173 0 00-2.032 2.253c-1.76 3.32-4.431 6.264-7.938 8.471a24.219 24.219 0 01-10.605 3.599c-1.627.155-3.195.672-4.608 1.449l-.158.087a11.565 11.565 0 00-4.415 4.329c-1.755 3.007-4.278 5.673-7.516 7.709-5.422 3.411-11.803 4.408-17.721 3.258a9.007 9.007 0 00-4.784.402l-.054.018c-1.569.576-2.952 1.549-3.908 2.858a15.153 15.153 0 01-4.193 3.893c-3.346 2.105-7.24 2.83-10.926 2.318-4.144-.572-8.35-.527-12.485.046 15.397-20.38 36.693-39.95 62.73-56.328zm0 0" fill="#019256"/><path d="M135.727 108.288c4.191 5.926.569 11.736-5.713 15.688-6.283 3.953-12.847 4.55-17.036-1.375-4.19-5.925-.378-11.525 5.903-15.476 6.284-3.952 12.656-4.762 16.846 1.163zm-43.38 14.449c-6.282 3.952-9.56 10.292-5.371 16.217 4.19 5.927 9.797 5.57 16.078 1.617 6.283-3.952 10.863-10.001 6.674-15.927-4.19-5.925-11.098-5.859-17.38-1.907zM67.37 139.37c-6.282 3.951-10.581 10.015-6.392 15.94 4.19 5.923 10.6 5.783 16.883 1.83 6.282-3.95 10.057-10.217 5.868-16.142-4.191-5.925-10.077-5.58-16.359-1.628zm94.36-47.439c-3.591-5.078-8.548-4.263-13.933-.874-5.384 3.386-9.16 8.062-5.567 13.14 3.59 5.08 9.172 4.76 14.555 1.371 5.385-3.386 8.536-8.557 4.945-13.637zM40.315 158.434c-4.977 3.272-7.9 8.736-5.337 13.23 2.561 4.495 9.475 3.958 14.482.904 5.006-3.055 8.61-8.09 5.016-13.168-3.59-5.08-9.183-4.237-14.16-.966z" fill="#8cd246"/><path d="M135.884 109.505c2.395 3.352.299 8.822-2.92 11.398-2.732 2.188-7.366 4.177-11.318.673-3.882-3.442-1.78-9.951 2.706-12.774 3.981-2.504 9.299-2.425 11.532.703zm-37.532 15.652c-3.896 2.543-5.315 5.761-3.537 10.569 1.593 4.308 7.685 3.397 10.714 1.45 3.252-2.09 5.493-7.896 3.32-11.088-1.97-2.898-6.56-3.502-10.497-.931zm-26 16.355c-4.27 2.823-6.388 8.065-3.876 12.298 2.347 3.952 8.154 2.67 10.93.97 3.75-2.298 6.464-8.944 3.973-12.566-2.083-3.028-7.106-3.295-11.028-.702zm88.846-48.476c-1.783-2.505-5.81-2.809-9.22-.662-3.846 2.418-4.886 7.32-2.32 10.95 2.275 3.217 6.562.87 8.84-.373 3.524-1.921 4.687-7.122 2.7-9.915zM44.725 159.84c-3.846 2.42-5.178 5.743-2.612 9.372 2.274 3.218 6.19 2.396 8.704.924 3.123-1.83 5.273-6.552 3.265-9.556-1.734-2.596-5.944-2.886-9.357-.74zm0 0" fill="#c3e171"/></svg>