<svg width="200" height="200" xmlns="http://www.w3.org/2000/svg"><path d="M39.356 54.033c-.81 0-1.596-.398-2.02-1.107-.34-.57-8.694-14.855-2.361-25.701.611-1.047 2.016-1.434 3.137-.862 1.122.57 1.535 1.883.923 2.93-5.103 8.74 2.27 21.411 2.342 21.53.619 1.043.218 2.357-.897 2.937a2.432 2.432 0 01-1.124.273z" fill="#4e901e"/><path d="M161.253 156.624c-6.164 8.23-16.462 13.711-28.197 13.769-9.34.049-16.977-1.806-16.977-1.806-56.919-20.145-78.524-90.98-78.524-90.98-3.447-19.588 9.642-23.625 9.642-23.625.074-.023.145-.043.22-.064 6.295-1.843 12.046-.36 16.529 1.904 4.684 2.362 8.529 5.936 11.319 10.17 15.688 23.805 57.045 37.626 57.045 37.626 24.815 7.48 33.044 19.754 34.682 30.853 1.205 8.185-1.092 15.95-5.739 22.153z" fill="#6d2c93"/><path d="M161.253 156.624c-5.562 3.643-12.361 5.814-19.721 5.852-9.34.046-16.977-1.806-16.977-1.806-56.916-20.145-78.52-90.984-78.52-90.984-1.255-7.13-.318-12.202 1.38-15.768 6.297-1.843 12.047-.36 16.53 1.904 4.684 2.362 8.53 5.936 11.32 10.17 15.688 23.805 57.045 37.626 57.045 37.626 24.814 7.48 33.044 19.754 34.681 30.853 1.206 8.185-1.091 15.95-5.738 22.153z" fill="#8034ad"/><path d="M82.59 72.56v.006c.06.57-.554 1-1.122.78-4.798-1.84-20.6-7.905-20.6-7.905s5.313 22.553 4.832 23.906c-.475 1.328-17.766-15.226-18.337-15.773l-.015-.015-2.322 14.248-.709 4.36c-.216 1.319-1.665 2.125-3.012 1.679-1.015-.334-1.98-.818-2.819-1.328C26.754 85.394 26.693 64.044 35 54.834a27.933 27.933 0 017.25-5.754c5.466-3.015 12.601-4.098 18.925-2.698 1.098.242 2.17.558 3.207.953.573.219 1.135.46 1.68.726 9.604 4.662 15.269 12.778 16.53 24.5z" fill="#47821c"/><path d="M82.59 72.56v.006c.06.57-.554 1-1.122.78-4.798-1.84-20.6-7.905-20.6-7.905s5.313 22.553 4.832 23.906c-.475 1.328-17.766-15.226-18.337-15.773l-.015-.015-2.322 14.248c-6.543-9.291-5.417-25.321 1.483-32.973a27.933 27.933 0 017.25-5.754c2.247-1.239 4.775-2.152 7.415-2.699 1.097.242 2.17.559 3.206.953.574.22 1.135.461 1.68.726 9.605 4.663 15.27 12.779 16.53 24.5z" fill="#4e901e"/></svg>