<svg width="200" height="200" xmlns="http://www.w3.org/2000/svg"><path d="M124.081 86.133c-3.409-22.314-12.564-36.19-21.39-44.652a28.653 28.653 0 00-39.8-.003c-8.827 8.461-17.984 22.336-21.396 44.65 0 0-6.424 31.285 21.025 47.644 12.531 7.466 28 7.468 40.53.002 27.452-16.355 21.031-47.641 21.031-47.641z" fill="#e59770"/><path d="M103.05 133.775c-7.355 4.382-15.727 6.194-23.917 5.427a39.569 39.569 0 0016.864-5.45c27.451-16.358 21.034-47.642 21.034-47.642-3.412-22.315-12.567-36.191-21.392-44.653-4.646-4.453-10.374-7.057-16.282-7.81 8.254-.997 16.85 1.614 23.335 7.834 8.825 8.461 17.98 22.337 21.39 44.654 0-.001 6.42 31.283-21.031 47.64z" fill="#db7e56"/><g transform="matrix(.69922 .52995 -.5186 .71453 397.898 -427.088)"><path d="M157.599 690.113c-3.546-22.829-13.066-37.025-22.243-45.683-11.623-10.965-29.76-10.966-41.385-.002-9.178 8.656-18.7 22.851-22.248 45.68 0 0-6.681 32.006 21.863 48.742a41.616 41.616 0 0042.144.003c28.545-16.733 21.869-48.74 21.869-48.74z" fill="#f9e8d4"/><path d="M135.73 738.854a41.613 41.613 0 01-24.871 5.553 41.63 41.63 0 0017.536-5.577c28.546-16.735 21.872-48.74 21.872-48.74-3.548-22.831-13.068-37.027-22.244-45.684a30.069 30.069 0 00-16.931-7.99c8.583-1.02 17.521 1.652 24.265 8.014 9.176 8.657 18.697 22.853 22.241 45.684 0 0 6.677 32.005-21.868 48.74z" fill="#e8d0ba"/><circle cx="92.343" cy="84.164" r="22.18" transform="matrix(1 0 0 1.00286 22.323 622.141)" fill="#fec007"/><path d="M136.847 706.549c-.001 12.283-9.931 22.242-22.183 22.241a22.034 22.034 0 01-14.683-5.575 22.057 22.057 0 008.047 1.51c12.249-.001 22.179-9.957 22.18-22.241a22.202 22.202 0 00-7.491-16.666c8.27 3.232 14.128 11.296 14.13 20.731z" fill="#efad0a"/></g></svg>