<svg height="511pt" viewBox="0 -41 512 511" width="511pt" xmlns="http://www.w3.org/2000/svg"><path d="M453.516 275.55c-.089-1.035 1.867-6.533 3.027-8.248 2.909-4.3-.304-46.057-5.368-47.123-30.193-6.35-34.202-13.328-68.577-14.206-29.363-.75-62.892.052-92.08 4-14.083 1.904-46.389 3.892-60.131 8.085-7.913 2.412-21.594 6.263-29.016 8.338-9.11 2.547-41.413 20.63-42.953 20.127-1.825-.596 1.924 41.523 7.812 56.016 5.726 26.046 70.528 41.624 147.734 34.99 79.427-6.825 141.907-34.574 139.552-61.979z" fill="#ffe8a8"/><ellipse cx="321.956" cy="-253.898" rx="141.728" ry="38.101" transform="scale(1 -1) rotate(4.911 291.599 -402.008)" fill="#ffd8a8"/><g transform="matrix(1.0361 0 0 1.1929 -11.84 26.593)"><path d="M350.88 109.407c0 1.039 2.419 6.349 3.722 7.959 3.266 4.035 3.64 45.914-1.314 47.409-29.538 8.912-32.935 16.207-67.109 20.025-29.191 3.262-62.665 5.334-92.084 3.9-14.195-.692-46.552.093-60.603-2.908-8.09-1.727-22.051-4.392-29.623-5.824-9.294-1.758-43.027-17.009-44.519-16.376-1.767.75-1.638-41.535 2.988-56.479 3.475-26.441 66.705-47.51 144.196-47.51 79.72 0 144.346 22.298 144.346 49.804z" fill="#ffedbc"/><ellipse cx="207.017" cy="100.723" rx="129.965" ry="33.666" fill="#fcc37d"/></g></svg>