<svg width="200" height="200" xmlns="http://www.w3.org/2000/svg"><path d="M71.411 33.168a2.702 2.702 0 014.698 0c9.332 16.182 43.405 24.804 45.858 51.053 2.165 23.173-15.223 42.133-48.207 42.133s-50.372-18.96-48.207-42.133C28.006 57.97 62.08 49.35 71.411 33.168zm0 0" fill="#c8afeb"/><path d="M71.411 33.168C62.08 49.35 28.006 57.972 25.553 84.22c-2.165 23.173 15.223 42.133 48.207 42.133V31.8a2.69 2.69 0 00-2.349 1.367zm0 0" fill="#9678cd"/><path d="M38.255 69.683A42.172 42.172 0 0140.384 59.3c-7.64 6.528-13.836 14.275-14.83 24.922-2.166 23.173 15.222 42.133 48.206 42.133v-7.337c-24.67-5.123-37.372-25.327-35.505-49.334zm0 0" fill="#7d64b6"/><path d="M72.469 33.168c.577-1.822 2.005-1.822 2.583 0 5.132 16.182 23.873 24.804 25.221 51.053 1.192 23.173-8.372 42.133-26.513 42.133-18.142 0-27.704-18.96-26.514-42.133 1.35-26.25 20.09-34.871 25.223-51.053zm0 0" fill="#aa91dc"/><path d="M49.73 105.996c3.896 12.188 12.019 20.368 24.03 20.358 0 0 3.564-.007 6.048-.197l1.36-6.654c-10.962-.226-25.534-7.163-31.438-13.507zm0 0" fill="#9678cd"/><path d="M124.637 76.519a2.702 2.702 0 014.698 0c9.332 16.181 43.405 24.804 45.858 51.053 2.165 23.174-15.223 42.133-48.207 42.133-32.983 0-50.372-18.96-48.207-42.133 2.452-26.249 36.526-34.872 45.858-51.053zm0 0" fill="#c8afeb"/><path d="M170.376 128.022c-1.302-13.92-13.48-22.49-25.259-30.779-6.248-4.397-12.231-8.607-16.542-13.557-.83-.953-2.347-.953-3.177 0-4.312 4.95-10.294 9.16-16.543 13.557-11.778 8.29-23.958 16.86-25.258 30.78-.865 9.256 1.762 17.534 7.597 23.94 7.58 8.32 20.291 12.904 35.792 12.904 15.501 0 28.212-4.584 35.793-12.905 5.834-6.405 8.46-14.683 7.597-23.94zm0 0" fill="#fff6d8"/><path d="M165.558 128.473c-1.093-11.697-11.844-19.263-23.226-27.272-2.65-1.867-5.258-3.7-7.73-5.582a12.558 12.558 0 00-7.616-2.574c-2.68 0-5.359.859-7.615 2.574-2.474 1.882-5.08 3.715-7.731 5.582-11.381 8.01-22.132 15.574-23.225 27.272-.735 7.865 1.463 14.86 6.356 20.231 4.108 4.51 10.057 7.749 17.332 9.569 6.106 1.526 12.156-2.742 12.852-8.997l.799-7.188c.081-.736.657-1.104 1.232-1.104s1.15.368 1.233 1.104l.798 7.188c.695 6.255 6.747 10.523 12.851 8.997 7.275-1.82 13.225-5.059 17.334-9.569 4.892-5.37 7.09-12.366 6.356-20.23zm0 0" fill="#e6646e"/><path d="M143.921 128.576c0-9.353-7.581-16.936-16.935-16.936-9.353 0-16.936 7.583-16.936 16.936 0 8.812 6.732 16.046 15.332 16.854l.372-3.342c.081-.736.657-1.103 1.232-1.103.576 0 1.152.367 1.233 1.103l.372 3.342c8.599-.808 15.33-8.042 15.33-16.854zm0 0" fill="#ff8087"/><path d="M103.853 140.723a2.42 2.42 0 01-1.488-4.33l1.361-1.058a2.422 2.422 0 013.394.426 2.417 2.417 0 01-.422 3.394l-1.36 1.059a2.422 2.422 0 01-1.485.509zm-.71-11.945c-.53 0-1.064-.174-1.51-.53l-.756-.606a2.42 2.42 0 013.023-3.777l.757.605a2.42 2.42 0 01-1.514 4.308zm11.547-11.493a2.42 2.42 0 01-1.861-.87l-.757-.907a2.42 2.42 0 013.72-3.098l.756.908a2.42 2.42 0 01-1.857 3.967zm12.6-11.391a2.418 2.418 0 01-1.247-4.493l.757-.454a2.42 2.42 0 012.49 4.15l-.756.452a2.41 2.41 0 01-1.243.345zm11.795 11.039a2.417 2.417 0 01-1.425-4.375l1.664-1.211a2.418 2.418 0 112.844 3.913l-1.663 1.21a2.4 2.4 0 01-1.42.463zm8.867 9.627a2.42 2.42 0 01-2.37-1.945l-.302-1.513a2.42 2.42 0 014.745-.948l.302 1.511a2.42 2.42 0 01-2.375 2.895zm5.493 10.635c-.364 0-.732-.082-1.079-.256l-1.21-.605a2.419 2.419 0 112.164-4.328l1.21.605a2.419 2.419 0 01-1.085 4.584zm0 0" fill="#ffaa5f"/><path d="M145.332 148.133a2.419 2.419 0 01-2.419-2.42v-.301a2.419 2.419 0 114.839 0v.302a2.42 2.42 0 01-2.42 2.42zm-29.03-14.718a2.42 2.42 0 01-2.08-1.178l-1.464-2.451a2.42 2.42 0 01.836-3.32 2.416 2.416 0 013.318.836l1.465 2.452a2.42 2.42 0 01-2.075 3.66zm13.71-4.688a2.417 2.417 0 01-1.452-4.354l.604-.454a2.413 2.413 0 013.385.484 2.416 2.416 0 01-.484 3.386l-.604.454a2.398 2.398 0 01-1.449.484zm-16.335 20.413c-.456 0-.919-.128-1.33-.4l-.63-.415a2.42 2.42 0 012.665-4.04l.63.416a2.42 2.42 0 01-1.335 4.44zm0 0" fill="#ffc369"/><path d="M124.969 118.294a2.398 2.398 0 01-1.45-.484l-.604-.454a2.417 2.417 0 01-.485-3.387 2.42 2.42 0 013.387-.483l.604.453a2.417 2.417 0 01-1.452 4.355zm12.755 19.506a2.42 2.42 0 01-2.166-1.338l-.151-.302a2.42 2.42 0 114.328-2.164l.151.302a2.42 2.42 0 01-2.162 3.502zm0 0" fill="#ffaa5f"/></svg>