<svg width="200" height="200" xmlns="http://www.w3.org/2000/svg"><g transform="matrix(1.14068 0 0 1.26974 -8.442 -278.12)"><path d="M110.87 327.721l-10.465.21-3.12 4.627 8.873 8.971s6.93-4.873 4.713-13.808zM86.196 319.1c0 6.729-7.208 13.458-11.09 13.458-.184 0-2.217-6.73-6.653-11.215-6.654-6.729-9.704-7.85-13.828-17.523l3.108-2.57 28.463 17.85z" fill="#7ab8ff"/><path d="M157.171 301.156l4.435-4.485c-2.217-6.729-17.466-26.916-44.358-26.916-4.993 0-10.204.619-15.423 1.627-5.214-6.994-13.254-17.327-15.629-17.327-2.587 0-17.743 15.7-17.743 20.186 0 1.366 1.996 3.927 3.802 5.965-10.55 3.942-18.71 7.493-21.546 7.493-6.377 0-9.981-24.672-24.398-24.672 0 14.719 4.436 20.607 4.436 29.158v2.243c0 8.551-4.436 14.439-4.436 29.158 14.417 0 18.021-24.672 24.398-24.672 6.377 0 30.774 31.401 57.667 31.401 28.001 0 55.449-18.878 55.449-24.673-.001-6.168-6.654-4.486-6.654-4.486z" fill="#01c2ed"/><path d="M108.376 330.315c12.603 0 25.086-3.828 35.013-8.563-5.553-3.205-10.616-9.381-10.616-9.381s-13.308 6.729-44.359 0c-10.562-2.288-27.242-9.1-31.981-10.296 10.329 7.961 30.325 28.24 51.943 28.24z" fill="#4183d4"/><path d="M128.337 316.894l-8.872 4.486-11.089-4.486c6.284-5.234 17.744-4.486 17.744-4.486l2.217 4.486z" fill="#7ab8ff"/><circle cx="454.194" cy="251.871" r="16.516" transform="matrix(.26858 0 0 .2716 26.311 228.261)" fill="#464655"/><path d="M154.153 285.704c-7.313-7.707-19.719-15.949-36.905-15.949-26.893 0-60.162 17.944-66.539 17.944-1.46 0-2.775-1.296-4.108-3.291l.002-.004c-1.398-2.092-2.815-4.947-4.44-7.898-.227 2.524-1.418 4.796-2.743 7.303-1.538 2.906-3.128 5.914-3.128 9.497 0 3.584 1.59 6.591 3.128 9.498 1.325 2.506 2.516 4.779 2.743 7.302 1.625-2.951 3.042-5.806 4.44-7.898a73.907 73.907 0 00-1.316-2.578c-1.256-2.375-2.341-4.427-2.341-6.324 0-1.273.49-2.616 1.191-4.079 2.722 3.484 7.279 6.26 15.444 2.958 9.21-3.726 54.729-9.336 68.756-2.243.652.329 1.318.61 1.991.867a24.9 24.9 0 00-1.991 9.767c0 9.347 5.044 17.614 12.913 22.163a93.65 93.65 0 005.111-2.465c-8.159-3.265-13.588-10.916-13.588-19.698 0-3.067.687-5.978 1.903-8.615 7.343 1.169 15.004-1.337 19.477-6.257z" fill="#4e96ed"/></g></svg>