<svg height="512" viewBox="0 0 496.368 496.368" width="512" xmlns="http://www.w3.org/2000/svg"><path d="M122.093 127.75s29.72-73.932 61.152-76.49c17.014-1.386 50.562 27.4 95.557 15.28 17.25-4.647 72.073-29.65 86.462 61.21 0 0-52.087 23.077-121.37 23.077s-121.8-23.077-121.8-23.077z" fill="#ebe1dc"/><path d="M298.388 61.207a40.843 40.843 0 0111.887 4.947c31.119 19.204 22.788 66.908-12.77 75.363-17.942 4.266-40.466 8.11-65.712 9.075 3.971.152 8.005.234 12.101.234 69.282 0 121.369-23.076 121.369-23.076-10.666-67.353-43.547-71.038-66.875-66.543z" fill="#dcd2cd"/><path d="M420.363 440.824c-2.737-10.924-8.46-26.257-20.252-38.076-.399-.4-.805-.776-1.207-1.166 11.153-94.899 4.261-158.807-20.422-251.274l-7.418-27.791a344.257 344.257 0 01-249.442.072l-.187-.073-7.418 27.791c-24.683 92.467-31.575 156.375-20.422 251.275-.402.388-.808.766-1.207 1.165-11.792 11.82-17.516 27.153-20.252 38.076-1.725 6.882 4.462 13.104 11.328 11.377 10.839-2.727 26.034-8.422 37.805-20.114a926.865 926.865 0 00249.96 0c11.772 11.693 26.968 17.387 37.807 20.114 6.866 1.728 13.052-4.495 11.327-11.376z" fill="#f5deb2"/><path d="M420.363 440.824c-2.737-10.924-8.46-26.257-20.252-38.076-.399-.4-.805-.776-1.207-1.166 11.153-94.899 4.261-158.807-20.422-251.274l-7.418-27.791a344.475 344.475 0 01-22.13 7.744l5.352 20.047c23.943 89.698 31.134 152.542 21.363 242.85a18.588 18.588 0 00.441 6.51 18.356 18.356 0 003.697 7.363c9.202 11.067 13.963 24.147 16.38 33.794.622 2.48.211 4.873-.884 6.84a99.103 99.103 0 0013.753 4.537c6.866 1.726 13.052-4.497 11.327-11.378z" fill="#f3d69e"/><path d="M375.487 108.342c-11.447 5.89-26.945 10.638-43.235 14.413a381.555 381.555 0 01-172.22 0c-16.29-3.775-31.788-8.522-43.234-14.413-3.606-1.856-8.008-.877-10.422 2.385-5.946 8.036-15.62 23.92-16.664 43.319-.114 2.106 1.082 4.062 2.98 4.969 12.458 5.953 62.912 27.005 153.45 27.005s140.991-21.052 153.45-27.005c1.899-.908 3.093-2.864 2.98-4.969-1.044-19.4-10.717-35.283-16.664-43.319-2.414-3.262-6.816-4.24-10.421-2.385z" fill="#f3d69e"/><path d="M385.91 110.728c-2.415-3.263-6.817-4.242-10.422-2.386-3.569 1.837-7.531 3.562-11.788 5.181 5.9 8.625 13.743 23.164 14.678 40.524.113 2.106-1.082 4.061-2.98 4.968-11.892 5.684-58.406 25.122-141.352 26.878 3.95.083 7.982.128 12.098.128 90.538 0 140.992-21.051 153.45-27.006 1.898-.907 3.094-2.863 2.98-4.968-1.046-19.4-10.718-35.283-16.665-43.319zM258.009 326.313c-9.958 6.669-13.323 20.348-14.442 27.857a6.009 6.009 0 004.475 6.713c7.35 1.839 21.245 3.96 31.203-2.708 9.958-6.669 13.323-20.348 14.441-27.857a6.009 6.009 0 00-4.474-6.713c-7.349-1.839-21.246-3.96-31.203 2.708z" fill="#efcb83"/><path d="M231.264 326.313c9.958 6.669 13.323 20.348 14.442 27.857a6.009 6.009 0 01-4.475 6.713c-7.35 1.839-21.246 3.96-31.203-2.708-9.958-6.669-13.323-20.348-14.442-27.857a6.009 6.009 0 014.475-6.713c7.35-1.839 21.246-3.96 31.203 2.708zm26.745-76.696c-9.958 6.668-13.323 20.348-14.442 27.857a6.009 6.009 0 004.475 6.714c7.35 1.838 21.245 3.96 31.203-2.709s13.323-20.348 14.441-27.857a6.009 6.009 0 00-4.474-6.713c-7.349-1.84-21.246-3.96-31.203 2.708z" fill="#efcb83"/><path d="M231.264 249.617c9.958 6.668 13.323 20.348 14.442 27.857a6.009 6.009 0 01-4.475 6.714c-7.35 1.838-21.246 3.96-31.203-2.709s-13.323-20.348-14.442-27.857a6.009 6.009 0 014.475-6.713c7.35-1.84 21.246-3.96 31.203 2.708z" fill="#efcb83"/><path d="M258.009 288.15c-9.958 6.668-13.323 20.348-14.442 27.857a6.009 6.009 0 004.475 6.713c7.35 1.838 21.245 3.96 31.203-2.709s13.323-20.348 14.441-27.857a6.009 6.009 0 00-4.474-6.713c-7.349-1.838-21.246-3.96-31.203 2.709z" fill="#f3d69e"/><path d="M231.264 288.15c9.958 6.668 13.323 20.348 14.442 27.857a6.009 6.009 0 01-4.475 6.713c-7.35 1.838-21.246 3.96-31.203-2.709s-13.323-20.348-14.442-27.857a6.009 6.009 0 014.475-6.713c7.35-1.838 21.246-3.96 31.203 2.709z" fill="#f3d69e"/></svg>