<svg height="512" viewBox="0 0 128 128" width="512" xmlns="http://www.w3.org/2000/svg"><path d="m25.31 25.68h9.75v39.73h-9.75z" fill="#fdbe00"/><path d="m88.829 25.68h14.661v39.73h-14.661z" fill="#fb9000"/><path d="m35.06 19.45h9.77v53.3h-9.77z" fill="#fb9000"/><path d="m83.943 19.447h9.772v53.303h-9.772z" fill="#fdbe00"/><path d="m54.629 15.818h9.771v53.303h-9.771z" fill="#fb9000"/><path d="m74.172 15.818h9.771v53.303h-9.771z" fill="#fb9000"/><path d="m64.401 21.051h9.771v48.069h-9.771z" fill="#fdbe00"/><path d="m44.832 12.8h9.771v56.32h-9.771z" fill="#fdbe00"/><path d="m36.1 113.5h55.8a6.361 6.361 0 0 0 6.26-5.27l11.59-67.06h-15.61a31.31 31.31 0 0 1 -60.28 0h-15.61l11.59 67.06a6.361 6.361 0 0 0 6.26 5.27z" fill="#e5384f"/><path d="m76.548 88.118a12.548 12.548 0 1 0 -12.548 12.549 12.548 12.548 0 0 0 12.548-12.549z" fill="#fdbe00"/></svg>