<svg width="200" height="200" xmlns="http://www.w3.org/2000/svg"><path d="M160.543 104.746c-16.992 24.048-46.35 25.819-65.572 3.955l29.396-71.768 36.176 67.813z" fill="#f94848"/><path d="M160.543 104.746l14.657-.884c-10.245 14.503-34.926 22.143-49.237 20.138 12.77.148 25.457-6.342 34.58-19.254z" fill="#23b75f"/><path fill="#c7f492" d="M168.349 91.018l6.85 12.844-14.656.884-6.85-12.845z"/><path fill="#f97d7d" d="M139.028 36.049l29.32 54.969-14.656.883-29.323-54.968z"/><path d="M160.543 104.746c-16.99 24.047-46.35 25.818-65.572 3.955l5.57-13.594c15.58 17.723 39.378 16.288 53.15-3.205l6.852 12.844z" fill="#a3e261"/><path d="M126.35 106.808c-16.992 24.049-46.35 25.82-65.572 3.955l29.396-71.768 36.175 67.813z" fill="#f94848"/><path d="M126.35 106.809l14.656-.884c-10.245 14.503-34.925 22.143-49.237 20.137 12.77.149 25.458-6.341 34.58-19.253z" fill="#23b75f"/><path fill="#c7f492" d="M134.155 93.08l6.851 12.845-14.656.884-6.851-12.845z"/><path fill="#f97d7d" d="M104.835 38.111l29.32 54.97-14.656.883-29.323-54.969z"/><path d="M126.35 106.809c-16.991 24.046-46.35 25.817-65.572 3.954l5.569-13.593c15.58 17.723 39.378 16.287 53.151-3.206l6.851 12.845z" fill="#a3e261"/><path d="M85.892 76.895c-1.715.104-2.683-2.627-1.472-4.149.581-.73 1.502-.896 2.235-.404.68.456 1.087 1.412 1.024 2.375-.078 1.179-.855 2.122-1.787 2.178zM98.3 85.23c-1.686.1-2.667-2.545-1.518-4.093.578-.778 1.526-.967 2.279-.46.709.476 1.122 1.491 1.013 2.492-.122 1.126-.873 2.006-1.775 2.06zm40.428 3.515c-.779.047-1.527-.54-1.852-1.442-.348-.964-.154-2.127.47-2.813 1.218-1.34 3.194-.16 3.176 1.9-.012 1.248-.809 2.296-1.794 2.355zm10.951-16.677c-1.7.103-2.672-2.581-1.499-4.116 1.203-1.573 3.402-.316 3.288 1.881-.063 1.205-.834 2.178-1.79 2.235zm-19.047-6.581c-.784.047-1.527-.535-1.855-1.44-.36-.99-.138-2.19.52-2.868 1.348-1.39 3.422.204 3.094 2.373-.161 1.07-.896 1.883-1.76 1.935zm-16.671 6.526c-1.707.103-2.682-2.605-1.485-4.131.595-.76 1.542-.92 2.288-.39.686.489 1.079 1.483.972 2.464-.122 1.127-.874 2.003-1.775 2.057zM90.219 98.234c-.796.048-1.56-.564-1.872-1.497-.32-.952-.124-2.074.482-2.75 1.293-1.444 3.4.005 3.167 2.186-.12 1.129-.88 2.006-1.777 2.06z" fill="#4d4d4d"/><path d="M173.98 128.287c0 9.342-2.842 17.823-7.474 24.085-4.916 6.645-11.847 10.787-19.525 10.787-.065 0-.132 0-.198-.002a18.844 18.844 0 01-1.304-.051h-.002v-33.49l.002-36.145c.43-.034.864-.049 1.3-.051.067-.002.135-.002.202-.002 4.513 0 8.766 1.43 12.503 3.958 8.616 5.826 14.495 17.483 14.495 30.911z" fill="#ffa91f"/><path d="M145.477 129.617l.002-36.147c.498-.036.999-.053 1.502-.053 4.513 0 8.766 1.43 12.504 3.958-1.802 3.092-2.976 8.236.154 16.138 3.822 9.647-6.422 14.134-14.162 16.104zm21.029 22.754c-4.916 6.647-11.846 10.79-19.525 10.79a20.61 20.61 0 01-1.502-.054h-.002v-28.07l13.692 9.383s-.594 7.951 7.337 7.951z" fill="#e2901a"/><path d="M145.532 96.465c-.816-.044-1.446-.796-1.406-1.68.23-5.101-1.803-9.338-6.043-12.593-3.264-2.506-6.605-3.446-6.638-3.455-.793-.219-1.271-1.092-1.07-1.95.202-.858 1.008-1.376 1.8-1.159.158.044 3.912 1.1 7.62 3.947 5.046 3.874 7.566 9.188 7.287 15.366-.04.885-.733 1.567-1.55 1.524z" fill="#23b75f"/><path d="M163.398 128.29c0 15.763-7.963 29.264-16.615 34.867a19.49 19.49 0 01-1.304-.051h-.002v-33.49l.002-36.145c.43-.034.864-.049 1.3-.051 8.654 5.6 16.619 19.104 16.619 34.87z" fill="#e2901a"/><path d="M162.016 128.29c0 11.905-4.54 22.519-10.492 29.416-4.36 5.051-9.473 8.11-14.112 8.22-.087.003-.174.003-.26.003-6.896 0-13.322-2.177-18.725-5.93-9.628-6.692-16.01-18.395-16.01-31.71 0-20.786 15.55-37.638 34.734-37.638.087 0 .174 0 .26.002 10.975.26 24.605 17.012 24.605 37.636z" fill="#ffa91f"/><path d="M116.398 128.29c0-17.541 11.072-32.28 26.057-36.456-1.704-.733-3.403-1.142-5.043-1.181-.087-.003-.174-.003-.26-.003-19.184 0-34.735 16.852-34.735 37.64 0 20.787 15.55 37.639 34.734 37.639.087 0 .174 0 .261-.003 1.64-.039 3.339-.448 5.043-1.181-14.985-4.176-26.057-18.915-26.057-36.456z" fill="#e2901a"/><path d="M116.142 127.208s-10.7-15.48-4.897-29.648c5.546-13.545 22.987-12.075 25.546-16.452.119-.194.203-.402.255-.625l.003-.012.006.01c.225.485 7.385 16.085-1.2 26.92-8.722 11.004-18.159 11.91-19.713 19.807z" fill="#2fcc6e"/><path d="M136.957 80.054c-.537-.1-1.047.292-1.139.874-1.48 9.405-5.43 12.56-9.613 15.902-.376.3-.755.604-1.134.912h-3.153c-.544 0-.986.479-.986 1.07 0 .59.441 1.069.986 1.069h.697c-1.286 1.225-2.534 2.631-3.676 4.403-2.38 3.691-3.76 8.464-4.105 14.186-.036.59.376 1.098.92 1.137l.065.002c.515 0 .95-.434.984-1 .165-2.746.583-5.246 1.245-7.487l.429.896a.98.98 0 00.877.577.92.92 0 00.453-.12c.484-.272.673-.917.422-1.441l-1.23-2.569a19.93 19.93 0 011.558-2.957c2.005-3.111 4.452-5.066 6.82-6.957a70.871 70.871 0 002.441-2.011v1.226c0 .59.442 1.07.987 1.07.545 0 .987-.48.987-1.07V94.65c2.648-2.82 4.917-6.663 5.972-13.36.092-.583-.27-1.136-.807-1.235z" fill="#23b75f"/><path d="M151.524 157.706c-4.36 5.051-9.473 8.11-14.112 8.22-.087.003-.174.003-.26.003-6.896 0-13.322-2.177-18.725-5.93l4.541-9.676s13.265 16.023 28.556 7.383z" fill="#e2901a"/><path d="M27.58 80.766c.435.343.736.847.8 1.434.5 4.539 2.773 8.613 6.4 11.474a.234.234 0 01.031.024c1.609 1.262 3.95 1.078 5.37-.385 5.953-6.14 11.991-9.429 14.392-7.532 2.814 2.221-.427 10.713-7.238 18.967-6.811 8.254-14.612 13.145-17.426 10.923-2.164-1.71-.744-7.131 3.128-13.3 1.11-1.77.691-4.05-.964-5.35l-.03-.024c-4.536-3.577-7.378-8.67-8.002-14.342-.128-1.171.738-2.223 1.936-2.35.6-.063 1.168.118 1.603.46zm0 0" fill="#00824d"/><path d="M86.33 87.942c.258 1.667-.008 3.32-.697 4.858 1.305.227 2.613.606 3.894 1.15 7.977 3.384 11.93 11.796 8.83 18.788a12.421 12.421 0 01-1.542 2.578 17.92 17.92 0 011.844.549c8.162 2.929 12.604 11.105 9.92 18.26-.2.531-.435 1.04-.7 1.53.983.361 1.95.816 2.889 1.37 5.03 2.964 7.925 7.962 8.04 12.906.24 6.12-4.396 11.5-9.666 12.597-4.262.886-8.784.581-12.932-1.864a17.118 17.118 0 01-4.773-4.147 12.432 12.432 0 01-1.645 2.15c-5.313 5.574-14.776 5.39-21.135-.41a16.873 16.873 0 01-3.918-5.283c-.3.307-.618.603-.955.883-5.94 4.933-15.317 3.675-20.944-2.809-2.9-3.342-4.234-7.42-4.036-11.262a8.832 8.832 0 01-2.795.69c-6.002.47-11.37-5.273-11.988-12.825-.618-7.554 3.746-14.057 9.748-14.526.084-.007.166-.008.25-.012.992-3.272 3.128-6.09 6.259-7.783 3.458-1.87 7.46-2.005 11.115-.716-.93-3.956-.187-8.087 2.427-11.3a12.754 12.754 0 014.275-3.39c.564-5.04 5.683-9.528 12.493-10.535 7.784-1.151 14.832 2.678 15.742 8.553zm0 0" fill="#b34068"/><path d="M107.878 135.658a17.708 17.708 0 013.61 1.814c10.48 6.864.633 22.257-10.304 16.113a23.784 23.784 0 01-.453-.26c-3.608-2.127-6.393-4.968-8.158-8.03l-.01-.028a1.88 1.88 0 011.85-2.453c5.7.161 10.966-2.528 13.465-7.156zM85.05 124.229a13.233 13.233 0 01-.484 5.271c2.045 1.74 4.546 3.207 7.393 4.23.178.063.356.125.533.184 11.724 3.92 18.393-13 6.987-17.732a17.748 17.748 0 00-2.665-.866c-2.105 2.714-5.273 4.493-8.82 5.114-1.838.321-3.136 1.982-2.944 3.8zm3.477 14.448a17.246 17.246 0 00-6.84-4.251c-2.518 2.655-6.041 4.049-9.755 4.13-2.122.046-3.785 1.803-3.585 3.87l.009.09c1.082 3.341 3.204 6.672 6.275 9.474.139.126.277.25.418.373 9.248 8.064 22.111-4.992 13.478-13.686zm-44.645-5.866c-3.349-1.315-6.362-3.839-8.336-7.33-2.057-3.641-2.598-7.659-1.818-11.247-2.188 3.172-3.373 7.817-2.957 12.89.013.163.028.327.044.49.829 8.123 9.206 9.616 13.067 5.197zm21.021 1.05a17.17 17.17 0 00-5.623-4.673 12.725 12.725 0 01-3.77 3.097c-3.065 1.656-6.558 1.95-9.857 1.098a1.05 1.05 0 00-1.223.572l-.058.127a.983.983 0 00-.088.571c.57 3.667 2.327 7.498 5.236 10.85.121.14.246.28.37.417 8.228 9.062 22.555-2.444 15.013-12.06zm-21.409-12.044c6.235 10.474 22.605 1.966 17.155-8.918a17.652 17.652 0 00-.408-.766c-4.01-7.095-12.32-10.195-18.995-7.275-1.772 4.687-1.213 10.849 1.969 16.479.092.162.185.322.28.48zm37.38-20.654c.754 3.172.43 6.46-1.072 9.297a25.349 25.349 0 002.507 1.161c11.663 4.649 19.306-11.862 8.012-17.311a17.755 17.755 0 00-4.689-1.508c-.72 1.605-1.9 3.087-3.435 4.331-1.2.973-1.677 2.544-1.323 4.03zm-18.482 18.514c.007.231.01.462.007.692-.032 2.712 1.182 5.304 3.279 7.08a25.559 25.559 0 001.474 1.157c10.126 7.351 21.726-6.792 12.155-14.825a17.373 17.373 0 00-1.177-.904c-3.13 3.552-7.967 5.014-12.786 4.287-1.578-.238-3.005.952-2.952 2.513zm8.989-40.388c-.263.027-.528.061-.793.1-6.88 1.017-12.03 5.586-12.506 10.692.006-.051.007-.103.013-.155a12.828 12.828 0 00-3.567 2.59c.202 4.994 3.133 10.474 8.279 14.482.147.115.297.228.445.34 7.478 5.56 16.056-1.14 15.718-8.196a18.241 18.241 0 01-5.089 1.522c-7.784 1.152-14.831-2.678-15.74-8.553a8.043 8.043 0 01-.08-.817c3.438 2.473 8.912 3.634 14.798 2.764.169-.026.338-.052.506-.08 11.057-1.849 9.167-15.866-1.984-14.69zm0 0" fill="#cc4978"/><path d="M59.097 75.82c1.137 4.025 1.02 8.15-.386 11.747 6.052 1.186 11.147 4.882 14.142 9.905-3.774 5.595-10.235 9.276-17.533 9.332 1.704 4.79.928 10.224-1.891 14.952-6.807.444-13.225-2.236-16.655-7.65-3.327-5.253-.016-17.54-.073-17.559-1.818-6.431-.43-13.12 4.298-17.496 4.729-4.377 11.633-5.362 18.098-3.23zm0 0" fill="#23c77d"/><path d="M49.592 83.805C48 87.09 45.712 90.238 42.758 93a33.053 33.053 0 01-2.352 2.002 33.756 33.756 0 014.233-.172c3.874.084 7.53.818 10.806 2.064-3.5 1.22-7.395 1.863-11.482 1.772a33.825 33.825 0 01-4.216-.355 32.93 32.93 0 013.285 2.937c2.679 2.74 4.734 5.788 6.15 8.934-3.358-1.559-6.576-3.798-9.402-6.687a32.205 32.205 0 01-3.614-4.416c.298-1.536.552-2.527.535-2.532a20.878 20.878 0 01-.447-1.934 32.305 32.305 0 014.208-4.793c2.8-2.62 5.914-4.63 9.13-6.015zm0 0" fill="#03ad6b"/></svg>