<svg id="Capa_1" enable-background="new 0 0 512 512" height="512" viewBox="0 0 512 512" width="512" xmlns="http://www.w3.org/2000/svg"><g><g><path d="m403.673 99.557h-147.673v-78.953c0-11.379 9.225-20.604 20.604-20.604h106.465c11.379 0 20.604 9.225 20.604 20.604z" fill="#d9b3a6"/><path d="m383.069 0h-30.905c11.379 0 20.604 9.225 20.604 20.604v78.953h30.905v-78.953c0-11.379-9.225-20.604-20.604-20.604z" fill="#d1a08f"/><path d="m256 99.557h-147.673v-78.953c0-11.379 9.225-20.604 20.604-20.604h106.465c11.38 0 20.604 9.225 20.604 20.604z" fill="#d9b3a6"/><path d="m235.396 0h-30.905c11.379 0 20.604 9.225 20.604 20.604v78.953h30.905v-78.953c0-11.379-9.224-20.604-20.604-20.604z" fill="#d1a08f"/><path d="m182.164 99.557h147.673v99.557h-147.673z" fill="#d1a08f"/><path d="m298.931 99.557h30.905v99.557h-30.905z" fill="#c68d7a"/><path d="m477.509 199.114h-147.673v-99.557h127.069c11.379 0 20.604 9.225 20.604 20.604z" fill="#d1a08f"/><path d="m456.905 99.557h-30.905c11.379 0 20.604 9.225 20.604 20.604v78.953h30.905v-78.953c0-11.379-9.225-20.604-20.604-20.604z" fill="#c68d7a"/><path d="m182.164 199.114h-147.673v-78.953c0-11.379 9.225-20.604 20.604-20.604h127.069z" fill="#d1a08f"/><path d="m151.258 99.557h30.905v99.557h-30.905z" fill="#c68d7a"/><g><path d="m130.237 137.067c3.784 7.966-13.563 24.122-21.529 27.906s-17.491.395-21.275-7.571-.395-17.491 7.571-21.275 31.449-7.026 35.233.94z" fill="#fddeb0"/></g><g><path d="m204.074 37.51c3.784 7.966-13.563 24.122-21.529 27.906s-17.491.395-21.275-7.571-.395-17.491 7.571-21.275c7.965-3.784 31.448-7.026 35.233.94z" fill="#fddeb0"/></g><g><path d="m351.746 37.51c3.784 7.966-13.563 24.122-21.529 27.906s-17.491.395-21.275-7.571-.395-17.491 7.571-21.275 31.449-7.026 35.233.94z" fill="#fddeb0"/></g><path d="m351.746 37.51c-2.601-5.475-14.51-5.656-24.288-4.004 2.798.761 4.93 2.041 5.862 4.004 3.435 7.23-10.54 21.207-19.106 26.557 4.552 3.18 10.63 3.902 16.004 1.349 7.965-3.784 25.312-19.941 21.528-27.906z" fill="#fdd79b"/><path d="m204.243 37.51c-2.601-5.475-14.51-5.656-24.288-4.004 2.798.761 4.93 2.041 5.862 4.004 3.435 7.23-10.54 21.207-19.106 26.557 4.552 3.18 10.63 3.902 16.004 1.349 7.965-3.784 25.313-19.941 21.528-27.906z" fill="#fdd79b"/><g><path d="m277.91 137.067c3.784 7.966-13.563 24.122-21.529 27.906s-17.491.395-21.275-7.571-.395-17.491 7.571-21.275 31.449-7.026 35.233.94z" fill="#fddeb0"/></g><g><path d="m425.582 137.067c3.784 7.966-13.563 24.122-21.529 27.906s-17.491.395-21.275-7.571-.395-17.491 7.571-21.275 31.449-7.026 35.233.94z" fill="#fddeb0"/></g><g fill="#fdd79b"><path d="m425.582 137.067c-2.706-5.697-15.487-5.66-25.463-3.794 2.447.779 4.304 2 5.156 3.794 3.302 6.951-9.486 20.138-18.091 25.899 4.626 3.726 11.145 4.727 16.869 2.007 7.966-3.784 25.314-19.941 21.529-27.906z"/><path d="m277.91 137.067c-2.706-5.697-15.487-5.66-25.463-3.794 2.447.779 4.304 2 5.156 3.794 3.302 6.951-9.486 20.138-18.091 25.899 4.626 3.726 11.145 4.727 16.869 2.007 7.966-3.784 25.313-19.941 21.529-27.906z"/><path d="m130.237 137.067c-2.706-5.697-15.487-5.66-25.463-3.794 2.447.779 4.304 2 5.156 3.794 3.302 6.951-9.486 20.138-18.091 25.899 4.626 3.726 11.145 4.727 16.869 2.007 7.966-3.784 25.313-19.941 21.529-27.906z"/></g></g><path d="m288.62 401.894v-137.873h-65.24v137.874c0 33.313-27.006 60.319-60.319 60.319h-15.453c-21.416 0-38.777 17.361-38.777 38.777v6.889c0 2.276 1.845 4.121 4.121 4.121h286.096c2.276 0 4.121-1.845 4.121-4.121v-6.889c0-21.416-17.361-38.777-38.777-38.777h-15.453c-33.313 0-60.319-27.006-60.319-60.32z" fill="#bad6e5"/><g><path d="m364.392 462.214h-15.453c-33.313 0-60.319-27.006-60.319-60.319v-137.874h-30.905v153.326c0 33.313 27.006 60.319 60.319 60.319h15.453c19.912 0 36.31 15.012 38.516 34.334h27.046c2.276 0 4.121-1.845 4.121-4.121v-6.889c-.001-21.415-17.362-38.776-38.778-38.776z" fill="#a6cee0"/></g><path d="m77.121 299.139h357.759c42.592 0 77.121-34.528 77.121-77.121v-15.693c0-3.983-3.229-7.211-7.211-7.211h-497.579c-3.983 0-7.211 3.229-7.211 7.211v15.693c0 42.593 34.528 77.121 77.121 77.121z" fill="#d8e8f0"/><path d="m504.789 199.114h-30.905c3.983 0 7.211 3.229 7.211 7.211v15.693c0 42.593-34.528 77.121-77.121 77.121h30.905c42.593 0 77.121-34.528 77.121-77.121v-15.693c0-3.982-3.229-7.211-7.211-7.211z" fill="#bad6e5"/></g></svg>