<svg width="200" height="200" xmlns="http://www.w3.org/2000/svg"><path d="M63.38 165.704s-11.888.938-22.862-7.042c-10.9-7.928-20.425-37.675 1.829-57.744 22.251-20.069 27.435-31.336 27.435-31.336h7.315v96.122zm0 0" fill="#fff3d7" stroke="#e2c183" stroke-width=".25"/><path d="M66.58 149.995H52.864s-11.289.89-22.018-6.447c2.17 6.826 5.833 12.324 9.672 15.114 10.974 7.98 22.862 7.042 22.862 7.042h13.719zm0 0" fill="#f9dbaa"/><path d="M103.618 165.704s11.889.938 22.862-7.042c10.901-7.928 20.424-37.675-1.828-57.744C102.4 80.849 97.216 69.582 97.216 69.582h-7.315v96.122zm0 0" fill="#fff3d7" stroke="#e2c183" stroke-width=".25"/><path d="M130.888 107.86c4.636 16.413-2.43 33.147-10.199 38.797-10.974 7.98-22.862 7.041-22.862 7.041h-7.926v12.006h13.717s11.889.938 22.862-7.042c9.7-7.054 18.31-31.386 4.408-50.802zm0 0" fill="#f9dbaa"/><path d="M83.5 170.985c26.825 0 37.343-22.039 33.836-46.125-1.978-13.58-8.993-24.998-14.936-39.434-8.3-20.157-10.973-41.007-11.816-50.995-.291-3.428-2.781-6.044-5.762-6.044h-2.646c-2.981 0-5.47 2.616-5.76 6.044-.844 9.988-3.517 30.838-11.816 50.995-5.945 14.436-12.96 25.854-14.937 39.434-3.508 24.086 7.01 46.125 33.837 46.125zm0 0" fill="#fff3d7" stroke="#e2c183" stroke-width=".25"/><path d="M117.336 124.86c-1.17-8.035-4.105-15.315-7.537-22.91.351 1.512.647 3.042.874 4.601 3.509 24.085-7.011 46.125-33.836 46.125-12.777 0-21.852-5.001-27.476-12.841 2.042 17.528 13.05 31.15 34.139 31.15 26.825 0 37.343-22.039 33.836-46.125zm0 0" fill="#f9dbaa"/><path d="M111.333 151.887c-3.825 3.114-3.606 9.727.397 12.526 15.142 10.593 35.133 8.337 48.213-6.769 13.068-15.095 15.027-38.162 5.879-55.648-2.425-4.637-8.173-4.875-10.86-.433l-11.619 19.202c-3.983 6.582-8.926 12.316-14.608 16.945zm0 0" fill="#fff3d7" stroke="#e2c183" stroke-width=".25"/><path d="M169.966 113.035c-.721 10.388-4.519 20.547-11.399 28.495-12.223 14.116-30.481 17.007-45.178 8.68l-2.056 1.676c-3.825 3.114-3.606 9.728.396 12.527 15.143 10.593 35.133 8.337 48.213-6.769 10.457-12.08 13.794-29.265 10.024-44.609zm0 0" fill="#f9dbaa"/></svg>