<?xml version="1.0" encoding="iso-8859-1"?>
<!-- Generator: Adobe Illustrator 19.0.0, SVG Export Plug-In . SVG Version: 6.00 Build 0)  -->
<svg version="1.1" id="Capa_1" xmlns="http://www.w3.org/2000/svg" xmlns:xlink="http://www.w3.org/1999/xlink" x="0px" y="0px"
	 viewBox="0 0 512 512" style="enable-background:new 0 0 512 512;" xml:space="preserve">
<path style="fill:#B3D8F4;" d="M512,314.881c0,56.323-101.474,102.619-231.243,107.89c-8.149,0.34-16.402,0.505-24.757,0.505
	c-141.384,0-256-48.534-256-108.395c0-59.871,114.616-108.395,256-108.395c8.356,0,16.608,0.165,24.757,0.505
	C410.526,212.262,512,258.548,512,314.881z"/>
<path style="fill:#D1E7F8;" d="M512,314.881c0,56.323-101.474,102.619-231.243,107.89C150.988,417.5,49.514,371.204,49.514,314.881
	c0-56.333,101.474-102.619,231.243-107.89C410.526,212.262,512,258.548,512,314.881z"/>
<path style="fill:#EE8700;" d="M446.837,311.642c0,42.159-85.443,76.335-190.837,76.335S65.163,353.801,65.163,311.642
	c0-10.15,4.951-19.837,13.936-28.698c28.347-27.934,96.873-47.637,176.901-47.637c104.806,0,189.888,33.794,190.827,75.633
	C446.837,311.178,446.837,311.405,446.837,311.642z"/>
<path style="fill:#FF9811;" d="M446.827,310.94c-28.347,27.934-96.873,47.637-176.901,47.637
	c-104.806,0-189.888-33.794-190.827-75.633c28.347-27.934,96.873-47.637,176.901-47.637
	C360.806,235.307,445.888,269.101,446.827,310.94z"/>
<path style="fill:#FFA733;" d="M397.622,286.771c0,11.12-7.829,21.487-21.394,30.266c0,0,0,0.01-0.01,0.01
	c-25.005,16.195-69.506,26.975-120.217,26.975c-78.212,0-141.622-25.634-141.622-57.251l34.866-140.796h213.521L397.622,286.771z"/>
<path style="fill:#FFB655;" d="M397.622,286.771c0,11.12-7.829,21.487-21.394,30.266c0,0,0,0.01-0.01,0.01
	c-23.695,7.221-53.187,11.502-85.144,11.502c-78.212,0-141.622-25.634-141.622-57.251l31.039-125.323h182.275L397.622,286.771z"/>
<path style="fill:#781900;" d="M362.755,145.975c0,28.987-40.179,52.939-92.313,56.715c-4.724,0.351-9.542,0.526-14.442,0.526
	c-58.963,0-106.755-25.624-106.755-57.241S197.037,88.724,256,88.724c4.9,0,9.717,0.175,14.442,0.526
	C322.576,93.025,362.755,116.988,362.755,145.975z"/>
<path style="fill:#AB2300;" d="M362.755,145.975c0,28.987-40.179,52.939-92.313,56.715c-52.135-3.775-92.313-27.728-92.313-56.715
	s40.179-52.95,92.313-56.725C322.576,93.025,362.755,116.988,362.755,145.975z"/>
<g>
</g>
<g>
</g>
<g>
</g>
<g>
</g>
<g>
</g>
<g>
</g>
<g>
</g>
<g>
</g>
<g>
</g>
<g>
</g>
<g>
</g>
<g>
</g>
<g>
</g>
<g>
</g>
<g>
</g>
</svg>
