<svg id="Layer_1" enable-background="new 0 0 512 512" height="512" viewBox="0 0 512 512" width="512" xmlns="http://www.w3.org/2000/svg"><path d="m352.68 480h-80.68v-117.133c0-8.836-7.163-16-16-16-8.836 0-16 7.164-16 16v117.133h-80.68c-8.836 0-16 7.164-16 16s7.164 16 16 16h193.36c8.837 0 16-7.164 16-16s-7.163-16-16-16z" fill="#d3d1d1"/><path d="m265.798 0c-67.534 0-122.478 54.943-122.478 122.477s54.943 122.477 122.478 122.477 122.477-54.943 122.477-122.477-54.943-122.477-122.477-122.477z" fill="#fc93a0"/><path d="m184.22 103.448c-67.534 0-122.477 54.943-122.477 122.477s54.943 122.478 122.477 122.478 122.478-54.943 122.478-122.478-54.944-122.477-122.478-122.477z" fill="#fee67b"/><path d="m301.163 218.783c1.858 1.212 3.676 2.368 5.476 3.498-1.934-65.855-56.104-118.833-122.419-118.833-80.024 0-138.592 75.795-118.594 153.127 20.341 6.037 44.487 6.188 71.121-7.47 77.013-39.49 78.235-86.553 164.416-30.322z" fill="#feeb95"/><path d="m352.68 103.448c-67.534 0-122.477 54.943-122.477 122.477s54.943 122.478 122.477 122.478 122.477-54.943 122.477-122.478-54.943-122.477-122.477-122.477z" fill="#9bd65e"/><path d="m462.038 271.584h-412.076c-8.836 0-16 7.164-16 16 0 50.333 40.95 91.283 91.283 91.283h261.51c50.334 0 91.283-40.95 91.283-91.283 0-8.836-7.163-16-16-16z" fill="#e0e0e0"/><path d="m89.88 147.904c9.637 1.185 19.865 3.798 30.365 8.535 50.119 22.615 107.743 39.516 145.553-6.524 2.441-2.973 4.541-6.035 6.345-9.161-50.853-52.484-135.641-49.125-182.263 7.15z" fill="#f9e8a2"/><path d="m462.038 271.584h-412.076c-8.836 0-16 7.164-16 16 0 16.02 4.153 31.086 11.432 44.187 44.671 13.025 96.436 20.49 138.826 5.575 96.278-33.874 169.242-30.524 211.968-9.521 18.035 8.865 49.186-1.281 78.724-16.542 2.035-7.561 3.126-15.504 3.126-23.699 0-8.836-7.163-16-16-16z" fill="#f9f9f9"/><path d="m165.083 96.944c-.838 2.948-.622.724-.622 37.691 0 20.731 16.866 37.598 37.598 37.598s37.598-16.866 37.598-37.598v-37.691z" fill="#fc93a0"/><path d="m474.975 219.283c-3.462-64.458-56.989-115.835-122.295-115.835-74.822 0-132.295 66.792-121.097 140.86 31.848 6.519 67.84 7.461 104.789-3.94 62.652-19.333 105.889-25.271 138.603-21.085z" fill="#aced70"/><path d="m260.959 144.856c24.44 24.135 69.905 54.163 134.33 35.421 23.812-6.927 42.177-16.377 56.031-26.858-46.399-62.96-138.562-67.101-190.361-8.563z" fill="#c8f29c"/><path d="m231.458 63.524c49.271-21.338 99.179-16.206 140.134-2.694-50.218-85.851-176.061-79.41-217.295 10.99 17.399 6.803 42.12 6.879 77.161-8.296z" fill="#fda5b7"/><path d="m332.696 263.905c-2.021 4.318-1.517 5.68-1.517 26.322 0 20.731 16.866 37.598 37.598 37.598s37.598-16.866 37.598-37.598v-26.322z" fill="#9bd65e"/></svg>