<svg viewBox="0 0 512 512" xmlns="http://www.w3.org/2000/svg"><path d="M350.713 98.073c-9.86-9.87-22.878-16.138-36.886-17.759l-18.65-2.159a62.785 62.785 0 01-17.663-4.72c-17.482-7.547-37.55-6.746-54.345 2.171l-16.248 8.627a62.545 62.545 0 01-15.053 5.647l-20.889 4.898c-14.382 3.372-27.047 11.683-35.693 23.424l-22.041 29.928 143.737 46.608 143.735-46.608-50.004-50.057z" fill="#f3f5e6"/><path d="M160.233 148.13l22.041-29.93c8.645-11.739 21.311-20.052 35.693-23.423l20.889-4.898a62.521 62.521 0 0015.053-5.648l16.248-8.626a61.847 61.847 0 015.942-2.759c-17.144-6.908-36.586-5.919-52.93 2.759l-16.248 8.626a62.506 62.506 0 01-15.053 5.648l-20.889 4.898c-14.382 3.371-27.047 11.683-35.693 23.423l-22.041 29.93 143.737 46.608 23.493-7.618-120.242-38.99z" fill="#d7d9cc"/><path d="M97.071 236.279s-20.492 50.41-9.316 161.329c0 0-23.948 20.309-16.763 37.493 7.184 17.185 34.325 2.343 34.325 2.343s36.718 11.717 151.665 11.717c114.946 0 151.666-11.717 151.666-11.717s27.14 14.842 34.325-2.343c7.184-17.184-16.763-37.493-16.763-37.493 11.175-110.918-9.316-161.329-9.316-161.329l-159.912-41.541-159.911 41.541z" fill="#fdca74"/><path d="M147.975 236.245l134.393-34.912-25.386-6.595-159.911 41.541s-20.492 50.41-9.316 161.328c0 0-23.948 20.309-16.763 37.494 7.184 17.184 34.325 2.343 34.325 2.343s8.24 2.626 29.108 5.392c-12.721-141.93 13.55-206.591 13.55-206.591z" fill="#e6b25b"/><path d="M400.717 148.13H113.245c-15.4 0-27.886 12.217-27.886 27.288v38.641c0 15.07 12.485 27.287 27.886 27.287h287.472c15.401 0 27.886-12.217 27.886-27.287v-38.641c0-15.07-12.484-27.288-27.886-27.288z" fill="#fb8d4b"/><path d="M132.347 214.059v-38.641c0-15.071 12.485-27.287 27.886-27.287h-46.988c-15.4 0-27.886 12.217-27.886 27.287v38.641c0 15.07 12.485 27.286 27.886 27.286h46.988c-15.401 0-27.886-12.217-27.886-27.286z" fill="#e86d24"/><path d="M164.673 373.55c-4.927 0-9.203-1.402-12.826-4.204-3.606-2.801-6.383-6.689-8.327-11.658-1.965-4.968-2.945-10.715-2.945-17.24v-1.084c0-6.591.98-12.357 2.945-17.306 1.963-4.949 4.659-8.811 8.086-11.592 3.409-2.782 7.291-4.171 11.648-4.171 4.139 0 7.657.581 10.549 1.74 2.892 1.16 5.363 2.736 7.417 4.729v13.169h-5.944l-.75-9.458c-1.197-.962-2.661-1.685-4.391-2.167-1.732-.503-3.786-.756-6.158-.756-3.053 0-5.803 1.084-8.247 3.252-2.429 2.144-4.357 5.145-5.784 8.997-1.411 3.833-2.115 8.332-2.115 13.497v1.15c0 5.211.651 9.753 1.955 13.628 1.301 3.875 3.213 6.886 5.73 9.031 2.516 2.144 5.569 3.218 9.157 3.218 2.444 0 4.506-.263 6.185-.788 1.676-.525 3.167-1.215 4.471-2.069v-15.336l-10.228-.46v-6.502h17.431v25.319c-1.537 1.774-3.741 3.393-6.614 4.861-2.857 1.467-6.605 2.2-11.245 2.2zm43.753-.953h-19.144v-5.648l5.944-1.281v-56.155l-5.944-1.248v-5.714h13.173v63.117l5.971 1.281v5.648zm22.537.953c-4.3 0-7.658-1.698-10.067-5.09-2.41-3.373-3.615-8.637-3.615-15.796V330.99l-4.552-1.281v-5.681h11.755v28.735c0 5.165.626 8.725 1.874 10.672 1.231 1.948 3.17 2.923 5.81 2.923 2.57 0 4.686-.634 6.346-1.905 1.679-1.271 2.945-3.077 3.802-5.418V330.99l-5.302-1.281v-5.681h12.504v41.64l4.552 1.281v5.648h-11.031l-.482-7.191c-1.232 2.604-2.828 4.607-4.793 6.009-1.963 1.422-4.23 2.135-6.801 2.135zm42.12-.197c-2.926 0-5.247-1.051-6.961-3.153-1.714-2.125-2.571-5.494-2.571-10.114v-29.523h-6.265v-6.535h6.265v-11.723h7.203v11.723h8.595v6.535h-8.595v29.523c0 2.321.375 4.039 1.125 5.155.768 1.094 1.786 1.642 3.052 1.642.857 0 1.802-.098 2.838-.295 1.052-.174 1.874-.338 2.464-.493l.99 5.78c-1.052.394-2.337.745-3.855 1.051-1.535.286-2.964.427-4.285.427zm30.059.197c-3.658 0-6.844-1.028-9.559-3.087-2.694-2.059-4.782-4.903-6.266-8.538-1.48-3.655-2.222-7.882-2.222-12.676v-1.971c0-4.62.776-8.745 2.329-12.38 1.553-3.635 3.615-6.502 6.185-8.604 2.571-2.125 5.382-3.185 8.435-3.185 3.572 0 6.552.896 8.943 2.692 2.409 1.797 4.222 4.325 5.435 7.586 1.232 3.242 1.848 7.061 1.848 11.461v5.517h-25.705l-.107.23c.054 3.11.501 5.869 1.339 8.276.841 2.407 2.054 4.302 3.641 5.681 1.591 1.379 3.492 2.069 5.704 2.069 2.447 0 4.589-.427 6.426-1.281a14.898 14.898 0 004.792-3.514l2.812 5.747c-1.409 1.665-3.283 3.077-5.623 4.236-2.337 1.16-5.141 1.741-8.407 1.741zm-10.416-30.311l.053.23h18.288v-1.182c0-2.322-.337-4.411-1.017-6.273-.678-1.839-1.677-3.283-2.999-4.334-1.339-1.074-3.007-1.609-5.007-1.609-1.607 0-3.069.581-4.391 1.74-1.32 1.159-2.41 2.726-3.267 4.696-.838 1.97-1.392 4.213-1.66 6.732zm50.279 29.358H323.86v-5.648l5.971-1.281V330.99l-5.971-1.281v-5.681h12.424l.509 7.225c1.32-2.585 2.972-4.588 4.953-6.01 1.982-1.422 4.25-2.134 6.801-2.134 4.266 0 7.57 1.533 9.907 4.597 2.338 3.087 3.508 7.826 3.508 14.22v23.742l5.971 1.281v5.648h-19.145v-5.648l5.971-1.281v-23.545c0-4.292-.688-7.333-2.062-9.13-1.373-1.796-3.48-2.693-6.319-2.693-2.069 0-3.909.615-5.515 1.839-1.588 1.225-2.865 2.9-3.829 5.025v28.504l5.971 1.281v5.648z" style="white-space:pre" fill="#360f00"/></svg>