<svg viewBox="0 0 500 500" xmlns="http://www.w3.org/2000/svg"><path d="M125.666 148.968c-2.376-2.376-23.301-5.86-27.055-11.557-3.237-4.913-1.35-12.674-2.76-18.274-.983-3.91-3.146-8.232-4.618-12.153-1.037-2.762-1.013-6.233-2.68-8.762-4.382-6.653-5.65-35.514 3.82-38.507 9.28-2.933 11.408 13.18 17.388 16.17 10.917 5.458 15.64 11.595 23.787 22.877 5.435 7.527 7.486 18.542 13.767 25.228 7.617 8.108 20.308 13.005 29.413 18.336 8.874 5.196 16.622 11.965 26.117 16.712 15.106 7.554 64.582 16.839 69.894 18.264 32.303 8.666 58.709 23.912 86.223 43.04 1.684 1.172 6.333 1.316 8.598 2.545 16.477 8.948 32.196 15.538 40.193 33.325 9.589 21.329 9.579 48.217 4.483 70.45-2.515 10.977-3.821 23.378-8.201 33.737-10.412 24.63-32.817 47.877-56.487 59.624-7.82 3.882-9.582 18.784-17.486 24.134-9.02 6.105-16.11 4.316-24.854.823-2.787-1.114-14.333-11.91-16.17-12.828-4.901-2.45-6.64-7.591-11.152-10.243-16.833-9.892-34.61-24.82-37.155-45.073-.503-4.001-1.067-13.018 0-17.152 1.419-5.496 5.393-9.94 3.693-15.824-3.247-11.24-11.167-22.564-12.76-34.188-1.412-10.303-12.797-36.238-13.251-37.315-3.79-8.994-5.924-19.26-10.74-27.73-8.43-14.825-65.014-80.353-65.431-82.01-.832-3.305-14.328-11.401-16.576-13.65z" fill="#a84040" stroke="#584e4e"/><path d="M124.559 148.35c-2.376-2.376-23.301-5.86-27.055-11.557-3.237-4.913-1.35-12.674-2.76-18.274-.983-3.91-3.146-8.232-4.618-12.153-1.037-2.762-1.013-6.233-2.68-8.762-4.382-6.653-5.65-35.514 3.82-38.507 9.28-2.933 11.408 13.18 17.388 16.17 10.917 5.458 15.64 11.595 23.787 22.877 5.435 7.527 7.486 18.542 13.767 25.228 7.617 8.108 20.308 13.005 29.413 18.336 8.874 5.196 16.622 11.965 26.117 16.712 15.106 7.554 73.709 20.913 79.02 22.338 11.18 2.999-30.415-9.502-56.786 1.142-5.641 2.277-57.415-23.526-60.091-19.472-8.155 12.36 26.892 59.114 26.892 59.114s-49.49-58.955-49.638-59.542c-.832-3.306-14.328-11.402-16.576-13.65z" fill="#f2d6d6" stroke="#b56a6a"/><path d="M231.622 309.492c-.521-3.798-2.396-44.111 19.603-60.89 11.997-9.15 37.499 1.305 58.025-4.953 22.797-6.951 40.529-29.841 49.67-23.486 1.684 1.17 15.527 5.989 17.792 7.218 16.477 8.948 23.002 10.864 30.999 28.65 9.589 21.33 9.579 48.218 4.483 70.45-2.515 10.978-3.821 23.379-8.201 33.738-10.412 24.63-32.817 47.877-56.487 59.624-7.82 3.882-9.582 18.784-17.486 24.134-9.02 6.105-16.11 4.316-24.854.823-2.787-1.114-14.333-11.91-16.17-12.828-4.901-2.45-6.64-7.591-11.152-10.243-16.833-9.892-34.61-24.82-37.155-45.073-.503-4.001-1.067-13.018 0-17.152 1.419-5.496 5.393-9.94 3.693-15.824-3.247-11.24-11.167-22.564-12.76-34.188z" fill="#823030" stroke="#521d1d" stroke-width="2"/><path d="M285.734 362.389c1.998 1.886 19.591 4.65 22.747 9.174 2.722 3.899 1.135 10.06 2.32 14.505.827 3.103 2.646 6.534 3.884 9.647.872 2.192.851 4.947 2.252 6.954 3.685 5.28 4.751 28.19-3.212 30.566-7.802 2.328-9.59-10.462-14.618-12.835-9.179-4.333-31.87-20.887-36.06-28.672-8.182-15.201-4.904-35.621 8.75-40.174 5.675-1.892 12.047 9.05 13.937 10.835zm112.746-72.415c-1.402-2.858-3.457-28.021-6.82-32.535-2.9-3.894-7.48-1.624-10.785-3.32-2.307-1.181-4.858-3.783-7.172-5.554-1.63-1.247-3.678-1.217-5.171-3.221-3.926-5.27-20.96-6.795-22.726 4.594-1.73 11.159 7.779 13.717 9.543 20.908 1.543 6.286-5.996 24.005.548 37.293 7.123 14.466 28.416 24.414 31.433 27.538 11.302 11.7 12.477-43 11.15-45.703z" fill="#f2d6d6"/></svg>