<svg height="512" viewBox="0 0 450 450" width="512" xmlns="http://www.w3.org/2000/svg"><path d="M166.81 171.811c-3.843-4.518-22.461-26.295-5.917-26.295 0-21.59 15.124-21.696 27.77-7.57 14.997-31.905 37.848 21.839 41.853 38.844 5.516-2.745 10.23-29.029 13.162-38.047 2.075-15.621-.456-23.697 4.915-29.28 5.79-6.022 19.43-8.407 19.43 7.172.707 2.379 2.013 1.966 4.319-3.09.48-5.642.958-11.287 1.437-16.932-.119-12.335 9.287-25.888 18.115-7.77 1.812 1.963 2.886 1.493 3.164-1.592-.71-7.244 7.069-28.39 13.715-15.24 4.445-5.961 12.461-6.212 12.461 2.193 6.08-.17 7.3 8.073 5.602 14.992-1.742 7.107-6.451 12.88-2.823 10.903 16.477-8.972 17.707-3.362 16.634 6.587-.823 7.614-9.578 18.981-14.325 25.685-1.88 2.917-.402 2.568 1.82 1.496 15.245-5.472 26.536-4.387 17.25 14.144 14.61 4.953-24.186 39.119-30.094 45.52-1.408 2.92-.474 3.494 1.44 3.09 1.85-.864 3.704-1.73 5.56-2.59 14.206-6.96 32.857-13.299 47.732-5.496-3.385 2.03-6.773 4.065-10.157 6.095 8.609-1.38 21.75-5.603 26.834 4.284 7.22 3.673 6.859 9.108.672 13.544 8.402 10.612-12.515 14.244-20.884 18.167-156.963 73.519-224.974-1.648-218.886-40.747 1.778-11.493 8.25-18.067 19.201-18.067z" fill="#70cc42"/><path d="M314.355 327.617c48.558 7.87 67.481-17.704 71.018-45.495 4.54-35.675-16.742-74.02-55.096-75.331-44.245-1.515-83.653 31.975-63.702 80.825 7.975 19.534 24.781 36.274 47.78 40.001z" fill="#cbd98f"/><path d="M314.593 323.876c41.615 6.744 60.522-12.121 66.497-35.23-14.11 10.477-83.363 26.701-110.836-51.84-19.593 33.313 6.761 80.983 44.339 87.07z" fill="#b4c274"/><path d="M132.876 192.94c-48.908 14.831-68.45 74.271-33.5 112.18 30.366 32.934 73.791 31.354 98.316 7.548 59.798-58.043 17.52-144.694-64.816-119.727z" fill="#cbd98f"/><path d="M89.15 280.364c2.745 7.789 7.155 15.267 13.39 22.03 28.858 31.306 70.139 29.799 93.443 7.177 31.616-30.687 32.614-66.556 14.335-91.13-3.004 54.884-73.557 98.5-121.169 61.923z" fill="#b4c274"/><path d="M363.606 275.44c14.174-1.337 11.177 14.673 16.771 6.372.38-.568 5.78-10.593 5.602-1.913-.224 10.96 7.82-7.528 7.82 2.911 0 12.921-11.458 9.504-11.458 11.406 0 .997 3.544 5.85 3.638 6.547.634 4.653-15.867.167-24.612-3.943-9.367-4.413-6.767-20.532 2.239-21.38zM93.535 257.806c-8.815 5.194-10.112 8.57-20.355 8.57-7.528-6.08-5.985 3.095-12.262 7.58-5.75 4.114-11.587-.07-8.193 8.978 5.88 15.641 31.414-.105 45.881 2.763-5.125-10.594-4.66-17.536-5.071-27.891z" fill="#a66b41"/><path d="M301.236 327.123c15.236-40.497-2.9-84.204-45.003-103.52-29.786-13.664-71.476.796-87.344 31.432-24.706 47.702 10.528 115.609 68.768 113.359 28.489-1.099 52.712-12.391 63.58-41.271z" fill="#cbd98f"/><path d="M175.115 253.2c-.976 1.505-1.853 3.074-2.71 4.66-25.924 47.905 11.446 108.413 66.091 106.297 20.008-.77 36.207-6.83 48.15-21.221-16.557 2.817-112.84 6.482-111.531-89.735z" fill="#b4c274"/><path d="M267.572 360.794c1.716-10.903 8.437-15.041 16.386-15.041.543.746 2.846 2.51 3.957 5.015 1.316 2.958 1.44 6.674 1.7 6.736 5.002 1.3 3.384 6.93.485 11.827-5.003 8.453-16.569 14.276-11.798-.88-3.078-5.061-5.144-6.665-10.73-7.657z" fill="#a66b41"/><path d="M255.04 240.134c12.27 8.635 16.2 24.25 8.775 34.879-7.422 10.63-23.382 12.248-35.651 3.614-12.267-8.632-16.197-24.248-8.775-34.88 7.423-10.63 23.385-12.245 35.652-3.613zM123.447 212.13c9.248-7.498 22.041-7.13 28.577.82 6.535 7.954 4.334 20.473-4.917 27.973-9.249 7.497-22.044 7.13-28.58-.824-6.532-7.95-4.331-20.471 4.92-27.97z" fill="#e3edb6"/></svg>