<svg height="200pt" viewBox="0 0 200 200" width="200pt" xmlns="http://www.w3.org/2000/svg"><path d="M120.79 62.243a.592.592 0 01-.467-.37l-.008-.023a.5.5 0 01.134-.513c.982-.933 1.524-2.157 1.524-3.449 0-2.741-2.43-4.97-5.416-4.97-.1 0-.2.002-.293.009h-.04a.542.542 0 01-.468-.248.454.454 0 01.02-.525 4.676 4.676 0 00.943-3.32c-.139-1.349-.905-2.607-2.1-3.45l-3.733-2.64-8.376-3.934-1.32-.688a.44.44 0 01-.242-.492 4.516 4.516 0 00-.009-2.039c-.39-1.673-1.73-3.07-3.5-3.643l-3.512-1.139-9.291-1.286-2.566.016a27.5 27.5 0 00-1.181-.246l.007-.134v-.073c0-2.737-2.429-4.964-5.415-4.964-2.985 0-5.414 2.23-5.414 4.97v.045l.007.156a29.26 29.26 0 00-.576.113.961.961 0 01-.872-.256c-1.037-1.031-2.449-1.6-3.974-1.6-2.985 0-5.414 2.23-5.414 4.97l.002.103h-.001a.26.26 0 01-.16.243.284.284 0 01-.283-.034 5.71 5.71 0 00-3.485-1.168c-.219 0-.44.012-.66.036-2.284.252-4.145 1.816-4.628 3.891a4.51 4.51 0 00-.003 2.068.425.425 0 01-.157.43.478.478 0 01-.457.074 5.788 5.788 0 00-1.933-.329c-.246 0-.497.015-.744.046-2.204.273-4.025 1.805-4.53 3.81a4.493 4.493 0 00.078 2.497.407.407 0 01-.111.404l-.017.016a.465.465 0 01-.327.132.524.524 0 01-.183-.034 5.773 5.773 0 00-2.533-.335c-2.574.23-4.62 2.106-4.863 4.462-.124 1.196.203 2.345.945 3.323.117.154.124.36.013.532l-.006.01a.541.541 0 01-.46.23h-.03c-.1-.007-.199-.01-.3-.01-2.987 0-5.415 2.23-5.415 4.971 0 1.29.54 2.515 1.518 3.445a.505.505 0 01.134.53.591.591 0 01-.464.378c-2.636.389-4.55 2.45-4.55 4.902 0 2.046 1.403 3.91 3.469 4.633l.67.338h90.66l.746.008.671-.338c2.088-.73 3.489-2.595 3.489-4.641 0-2.45-1.911-4.51-4.543-4.9z" fill="#f4f1e6"/><path d="M51.54 67.143c0-2.452 1.913-4.513 4.55-4.902.209-.03.4-.186.463-.377a.508.508 0 00-.132-.531c-.978-.93-1.52-2.155-1.52-3.445 0-2.741 2.43-4.97 5.415-4.97.102 0 .201.003.3.009h.03a.545.545 0 00.462-.23l.006-.01a.457.457 0 00-.014-.53c-.742-.979-1.069-2.129-.945-3.325.243-2.356 2.289-4.231 4.863-4.46a5.786 5.786 0 012.534.334.519.519 0 00.183.033.47.47 0 00.327-.132l.016-.016a.41.41 0 00.112-.404 4.482 4.482 0 01-.078-2.497c.504-2.005 2.324-3.536 4.53-3.809a5.794 5.794 0 012.678.281.473.473 0 00.455-.073.42.42 0 00.157-.43 4.492 4.492 0 01.004-2.068c.483-2.075 2.343-3.639 4.628-3.89.22-.023.441-.037.658-.037a5.71 5.71 0 013.486 1.168.284.284 0 00.283.034.26.26 0 00.161-.241h.001c-.002-.046-.002-.09-.002-.103 0-1.037.347-2 .94-2.797l-1.454-.2-2.565.015a27.565 27.565 0 00-1.183-.246c.004-.044.007-.09.008-.134v-.072c0-2.738-2.428-4.965-5.415-4.965-2.985 0-5.414 2.23-5.414 4.971v.044l.008.156c-.194.036-.384.074-.577.114a.957.957 0 01-.872-.256c-1.037-1.032-2.448-1.6-3.974-1.6-2.984 0-5.414 2.23-5.414 4.97l.003.103h-.002a.263.263 0 01-.16.242.286.286 0 01-.283-.035 5.718 5.718 0 00-3.485-1.167c-.218 0-.44.013-.66.037-2.283.252-4.144 1.815-4.628 3.89a4.492 4.492 0 00-.002 2.068.425.425 0 01-.157.43.478.478 0 01-.458.074 5.788 5.788 0 00-1.933-.328 6.02 6.02 0 00-.743.045c-2.205.273-4.025 1.805-4.53 3.81a4.481 4.481 0 00.077 2.497.408.408 0 01-.112.405l-.016.014a.464.464 0 01-.327.133.524.524 0 01-.183-.034 5.778 5.778 0 00-2.534-.334c-2.573.229-4.618 2.106-4.861 4.461-.124 1.197.202 2.345.945 3.323.116.154.124.36.013.532l-.007.01a.542.542 0 01-.461.23h-.03a4.384 4.384 0 00-.3-.01c-2.986 0-5.414 2.23-5.414 4.972 0 1.29.54 2.514 1.519 3.444a.505.505 0 01.133.53.591.591 0 01-.464.379c-2.636.388-4.55 2.45-4.55 4.901 0 2.046 1.403 3.911 3.468 4.633l.672.338H55.68l-.67-.338c-2.068-.723-3.47-2.588-3.47-4.634z" fill="#e2cfb5"/><path d="M56.71 141.015c-1.901 0-3.447-1.419-3.447-3.164v-11.919H97.7v11.919c0 1.745-1.547 3.164-3.448 3.164H56.71z" fill="#c5fcf9"/><path d="M76.598 137.85v-11.918H53.263v11.919c0 1.745 1.547 3.164 3.447 3.164h23.335c-1.9 0-3.447-1.42-3.447-3.164z" fill="#9aeeea"/><path d="M64.806 132.789c-24.422 0-44.218-18.174-44.218-40.592V73.514c0-.962.85-1.743 1.899-1.743h105.989c1.048 0 1.899.78 1.899 1.743v18.683c0 22.418-19.797 40.592-44.218 40.592h-21.35z" fill="#c5fcf9"/><path d="M117.921 53.524l-.002.003.002-.003zm-75.31-11.047l.004.001-.004-.001z"/><path d="M51.136 59.275c-.512 0-.91-.424-.817-.886.454-2.262 2.613-3.974 5.207-3.974s4.753 1.713 5.207 3.974c.093.462-.305.886-.817.886h-8.78zM67.194 43.37c-.512 0-.91-.424-.818-.886.454-2.261 2.613-3.974 5.207-3.974s4.753 1.713 5.207 3.974c.094.462-.305.887-.817.887h-8.78zm19.624 8.519c-.448-.228-.573-.776-.248-1.14 1.59-1.777 4.38-2.317 6.651-1.165 2.27 1.152 3.257 3.61 2.463 5.791-.163.446-.735.64-1.184.413l-7.682-3.9z" fill="#d3c7a1"/><path d="M43.924 92.038l-.002-11.994v-6.53c0-.962.851-1.743 1.9-1.743H22.486c-1.05 0-1.9.78-1.9 1.743v18.683c0 22.419 19.797 40.959 44.22 40.959 0 0 11.313-.353 11.644-.36-23.963-.484-32.527-18.486-32.527-40.598v-.16z" fill="#9aeeea"/><path d="M140.3 112.633c3.12-2.4 2.53-5.86.289-7.595-.891-.696-1.277-1.337-.313-2.509 1.927-2.355 1.108-5.804-2.06-7.263-.891-.398-1.3-1.16-.759-2.266.82-1.702.217-3.548-1.481-4.477-1.602-.873-7.757-2.675-19.573 11.265-.386.442-.976.663-1.566.663-.602 0-1.193-.221-1.566-.663C101.455 85.848 95.3 87.65 93.686 88.523c-1.686.929-2.3 2.775-1.482 4.466.542 1.106.157 1.868-.819 2.31-2.77 1.283-4.203 4.544-1.77 7.495.554.675.494 1.437-.542 2.233-2.265 1.77-2.795 5.23.289 7.606.698.53.843 1.293.024 2.277-1.915 2.355-1.108 5.793 2.072 7.263.879.398 1.252 1.249.879 2.012-1.036 2.122-.253 3.847 1.349 4.731 5.914 3.24 15.321-6.235 19.585-11.264.373-.443.963-.664 1.566-.664.59 0 1.18.221 1.566.664 11.816 13.94 17.97 12.137 19.573 11.264 1.698-.928 2.3-2.774 1.481-4.488-.542-1.094-.132-1.857.831-2.288 3.011-1.393 3.95-4.831 1.988-7.219-.807-.995-.675-1.758.024-2.288z" fill="#ffc033"/><path d="M140.276 114.921c1.963 2.388 1.024 5.826-1.988 7.219-.963.43-1.373 1.194-.83 2.288.818 1.713.216 3.56-1.482 4.488-1.602.873-7.757 2.675-19.573-11.265-.386-.442-.976-.663-1.566-.663v-16.537c.59 0 1.18-.221 1.566-.664 11.816-13.94 17.97-12.137 19.573-11.264 1.698.929 2.3 2.775 1.481 4.477-.542 1.106-.132 1.868.759 2.266 3.168 1.46 3.987 4.908 2.06 7.263-.964 1.172-.578 1.813.313 2.51 2.24 1.735 2.83 5.195-.29 7.594-.698.53-.83 1.293-.023 2.288z" fill="#f9a926"/><path d="M127.773 112.036c0 .917-.807 1.658-1.807 1.658-3.517 0-5.42-1.105-6.95-2-1.312-.764-2.264-1.316-4.18-1.316-1.926 0-2.866.552-4.179 1.315-1.53.896-3.433 2.001-6.962 2.001-1 0-1.807-.74-1.807-1.658 0-.918.807-1.658 1.807-1.658 2.638 0 3.806-.785 5.324-1.658-1.53-.885-2.686-1.659-5.324-1.659-1 0-1.807-.74-1.807-1.658 0-.917.807-1.658 1.807-1.658 3.53 0 5.432 1.106 6.962 2.001 1.313.763 2.253 1.316 4.18 1.316 1.915 0 2.867-.553 4.18-1.316 1.53-.895 3.432-2 6.95-2 1 0 1.806.74 1.806 1.657 0 .918-.807 1.658-1.807 1.658-2.637 0-3.794.785-5.323 1.659 1.53.884 2.686 1.658 5.323 1.658 1 0 1.807.74 1.807 1.658z" fill="#ff9f19"/><path d="M127.773 112.036c0 .917-.807 1.658-1.807 1.658-3.517 0-5.42-1.105-6.95-2-1.312-.764-2.264-1.316-4.18-1.316v-3.317c1.916 0 2.868-.552 4.18-1.315 1.53-.895 3.433-2 6.95-2 1 0 1.807.74 1.807 1.657 0 .918-.807 1.658-1.807 1.658-2.637 0-3.794.785-5.323 1.658 1.53.885 2.686 1.659 5.323 1.659 1 0 1.807.74 1.807 1.658z" fill="#f28618"/><path d="M157.8 118.574c4.021-2.01 8.55-1.772 12.162.268l5.198-15.16c-7.382-3.648-16.299-3.902-24.3.1-8.273 4.136-13.695 11.885-15.312 20.462l14.828 5.203c1.219-4.322 3.128-8.725 7.423-10.873z" fill="#f7e6b0"/><path d="M152.015 106.258c7.253-3.626 15.37-3.417 22.312-.152l1.175-2.302c-7.382-3.648-16.641-4.023-24.643-.022-8.273 4.136-13.787 11.852-15.403 20.43l2.426.85c1.66-7.987 6.62-15.047 14.133-18.804zm12.8-1.263c-4.194-.016-8.254.942-12.067 2.849a27.399 27.399 0 00-9.897 8.344 28.652 28.652 0 00-5.037 11.584c-.105.553.246 1.089.783 1.195a.963.963 0 00.62-.084 1.02 1.02 0 00.544-.726c1.514-7.99 6.69-14.897 13.849-18.476 6.997-3.5 15-3.538 21.957-.109a.981.981 0 001.324-.48 1.031 1.031 0 00-.463-1.362 26.637 26.637 0 00-11.612-2.735zm9.992 8.118a1.034 1.034 0 00-.42-1.377c-6.432-3.432-13.744-3.588-20.06-.43-3.257 1.629-6.098 4.1-8.218 7.145-2.046 2.94-3.434 6.428-4.014 10.085-.088.557.279 1.081.82 1.17a.967.967 0 00.59-.09c.28-.14.494-.416.548-.758 1.093-6.9 5.257-12.775 11.136-15.715 5.747-2.873 12.41-2.725 18.28.408a.981.981 0 001.338-.438zm-3.448 3.738a.981.981 0 001.339-.438 1.034 1.034 0 00-.421-1.376c-5.26-2.807-11.239-2.934-16.406-.35a18.093 18.093 0 00-6.723 5.844c-1.673 2.404-2.808 5.256-3.282 8.246-.088.557.278 1.08.819 1.17a.964.964 0 00.59-.09 1.02 1.02 0 00.549-.758c.875-5.523 4.205-10.224 8.909-12.576 4.597-2.298 9.928-2.179 14.626.328z" fill="#f3d373"/><path d="M170.35 119.007c2.734.974 6.103-1.64 7.525-5.838 1.423-4.199.36-8.391-2.373-9.365-2.734-.973-6.103 1.64-7.525 5.84-1.423 4.198-.36 8.39 2.373 9.363zm-25.673 2.622c-4.113-1.465-8.232-.34-9.198 2.512-.967 2.852 1.585 6.352 5.698 7.817 4.115 1.466 8.233.341 9.2-2.511.966-2.852-1.586-6.353-5.7-7.818z" fill="#f5c02c"/><path d="M174.402 107.05c2.37.844 3.483 4.11 2.809 7.7a12.09 12.09 0 00.664-1.581c1.423-4.199.36-8.391-2.373-9.365-2.734-.973-6.103 1.64-7.525 5.84a12.253 12.253 0 00-.436 1.663c1.643-3.246 4.49-5.101 6.86-4.257zm-36.217 18.055c.857-2.532 4.2-3.7 7.816-2.907-.42-.212-.861-.404-1.324-.569-4.113-1.465-8.232-.34-9.198 2.512-.967 2.852 1.585 6.352 5.698 7.817.463.165.925.295 1.383.396-3.318-1.677-5.233-4.717-4.375-7.25z" fill="#ecb700"/><path d="M165.955 146.632c3.831-.748 4.785-4.122 3.517-6.69-.502-1.028-.573-1.777.795-2.395 2.74-1.247 3.484-4.714 1.264-7.452-.63-.76-.67-1.629.29-2.378 1.466-1.16 1.717-3.089.59-4.688-1.065-1.507-5.82-5.9-22.41 1.294-.537.224-1.162.156-1.692-.11-.54-.271-.976-.736-1.122-1.301-4.635-17.846-10.936-19.002-12.76-18.945-1.913.074-3.256 1.455-3.246 3.343.013 1.237-.66 1.748-1.726 1.706-3.038-.097-5.724 2.186-4.805 5.934.209.855-.172 1.513-1.444 1.76-2.792.569-4.752 3.438-3.002 6.962.4.791.203 1.542-.955 2.056-2.73 1.252-3.48 4.703-1.253 7.457.619.754.589 1.687-.074 2.204-1.84 1.44-1.876 3.34-.817 4.857 3.923 5.575 16.435 1.306 22.421-1.29.526-.228 1.15-.16 1.691.11.53.267.966.732 1.122 1.302 4.635 17.847 10.936 19.003 12.75 18.94 1.923-.068 3.256-1.455 3.255-3.363-.017-1.227.677-1.728 1.728-1.68 3.301.106 5.62-2.559 4.88-5.588-.298-1.258.148-1.883 1.003-2.045z" fill="#ffc033"/><path d="M164.952 148.677c.74 3.03-1.578 5.694-4.88 5.587-1.05-.047-1.745.454-1.728 1.68.001 1.909-1.332 3.296-3.255 3.364-1.813.062-8.114-1.094-12.75-18.94-.156-.57-.591-1.035-1.121-1.301l7.091-14.854c.53.266 1.155.334 1.691.11 16.59-7.194 21.346-2.801 22.41-1.294 1.128 1.599.877 3.529-.589 4.688-.96.749-.92 1.619-.29 2.378 2.22 2.738 1.476 6.205-1.264 7.452-1.368.618-1.297 1.367-.795 2.394 1.268 2.57.314 5.943-3.517 6.691-.855.162-1.3.787-1.003 2.045z" fill="#f9a926"/><path d="M154.96 140.45c-.393.824-1.436 1.125-2.334.675-3.159-1.586-4.394-3.436-5.384-4.93-.852-1.277-1.47-2.202-3.19-3.066-1.73-.868-2.812-.795-4.318-.702-1.758.115-3.941.25-7.111-1.341-.898-.45-1.305-1.48-.912-2.304.394-.824 1.436-1.125 2.334-.675 2.37 1.19 3.755 1.01 5.493.91-.995-1.483-1.702-2.7-4.07-3.888-.899-.45-1.306-1.48-.913-2.304.394-.824 1.436-1.125 2.334-.675 3.17 1.59 4.405 3.442 5.395 4.935.852 1.277 1.46 2.197 3.19 3.066 1.72.863 2.812.796 4.318.702 1.758-.114 3.942-.25 7.1 1.336.899.45 1.306 1.48.912 2.304-.393.824-1.435 1.125-2.333.674-2.37-1.188-3.745-1.005-5.493-.91.995 1.484 1.701 2.7 4.07 3.889.898.45 1.306 1.48.912 2.304z" fill="#ff9f19"/><path d="M154.96 140.45c-.393.824-1.436 1.125-2.334.675-3.159-1.586-4.394-3.436-5.384-4.93-.852-1.277-1.47-2.202-3.19-3.066l1.422-2.978c1.72.863 2.812.796 4.318.702 1.758-.115 3.942-.25 7.1 1.336.899.45 1.306 1.48.912 2.303-.393.824-1.435 1.126-2.333.675-2.37-1.189-3.745-1.005-5.493-.91.995 1.484 1.701 2.7 4.07 3.889.898.45 1.306 1.48.912 2.304z" fill="#f28618"/><path d="M118.227 137.349c2.643-2.94 1.45-6.232-1.06-7.523-1-.519-1.491-1.078-.751-2.41 1.479-2.673.063-5.913-3.31-6.759-.947-.225-1.485-.9-1.147-2.087.504-1.826-.415-3.53-2.25-4.127-1.73-.561-8.101-1.189-17.256 14.716-.3.507-.842.834-1.422.944-.592.112-1.212.004-1.657-.361-14.086-11.512-19.82-8.596-21.253-7.437-1.494 1.227-1.772 3.156-.667 4.667.728.987.484 1.808-.397 2.425-2.498 1.776-3.33 5.25-.416 7.7.664.56.74 1.321-.138 2.296-1.914 2.16-1.823 5.662 1.63 7.426.78.392 1.058 1.115.426 2.235-1.467 2.672-.065 5.903 3.322 6.757.935.228 1.453.996 1.22 1.815-.643 2.28.432 3.83 2.164 4.403 6.39 2.085 13.965-8.98 17.268-14.72.29-.504.83-.83 1.423-.943.58-.11 1.2-.002 1.657.361 14.086 11.512 19.82 8.596 21.241 7.44 1.506-1.23 1.772-3.157.663-4.69-.726-.975-.458-1.802.413-2.405 2.715-1.93 3.03-5.485.678-7.468-.97-.829-.974-1.603-.381-2.255z" fill="#ffc033"/><path d="M118.608 139.604c2.353 1.983 2.037 5.538-.678 7.468-.871.603-1.139 1.43-.412 2.405 1.108 1.533.842 3.46-.663 4.689-1.421 1.157-7.156 4.073-21.242-7.439-.457-.363-1.077-.47-1.657-.361l-2.925-16.263c.58-.11 1.122-.437 1.423-.944 9.154-15.905 15.526-15.277 17.256-14.716 1.834.597 2.753 2.3 2.249 4.127-.338 1.188.2 1.862 1.147 2.087 3.373.846 4.789 4.086 3.31 6.76-.74 1.331-.248 1.89.752 2.41 2.51 1.29 3.702 4.583 1.059 7.522-.593.652-.589 1.426.38 2.255z" fill="#f9a926"/><path d="M105.802 139.09c.162.903-.5 1.781-1.484 1.967-3.458.654-5.526-.08-7.188-.675-1.426-.506-2.46-.873-4.343-.517-1.896.358-2.722 1.077-3.878 2.07-1.346 1.166-3.022 2.607-6.493 3.263-.983.186-1.908-.393-2.07-1.295-.162-.902.5-1.78 1.484-1.966 2.594-.49 3.604-1.48 4.942-2.62-1.66-.586-2.935-1.132-5.529-.642-.983.186-1.908-.392-2.07-1.294-.162-.903.5-1.781 1.483-1.967 3.471-.656 5.538.077 7.201.673 1.426.506 2.448.875 4.343.517 1.884-.356 2.722-1.077 3.878-2.07 1.346-1.166 3.022-2.607 6.48-3.26.984-.186 1.908.392 2.07 1.294.163.902-.5 1.78-1.483 1.967-2.594.49-3.592 1.477-4.942 2.62 1.66.585 2.935 1.131 5.529.64.983-.185 1.908.393 2.07 1.296z" fill="#ff9f19"/><path d="M105.802 139.09c.162.903-.5 1.781-1.484 1.967-3.458.654-5.526-.08-7.188-.675-1.426-.506-2.46-.873-4.343-.517l-.587-3.261c1.884-.356 2.722-1.077 3.878-2.071 1.346-1.165 3.022-2.606 6.48-3.26.984-.186 1.908.393 2.07 1.295.163.902-.5 1.78-1.483 1.966-2.594.49-3.592 1.478-4.942 2.62 1.66.586 2.935 1.132 5.529.642.983-.186 1.908.392 2.07 1.295z" fill="#f28618"/><path d="M120.128 158.092a13.046 13.046 0 0111.244 4.76l10.195-12.204c-5.594-6.14-13.817-9.683-22.69-8.92-9.171.788-16.96 6-21.493 13.397l11.987 10.35c2.661-3.577 5.995-6.974 10.757-7.383z" fill="#f7e6b0"/><path d="M119.081 144.464c8.041-.69 15.535 2.516 20.855 8.134l1.907-1.71c-5.594-6.139-14.094-9.923-22.966-9.16-9.172.787-17.035 5.936-21.568 13.332l1.961 1.694c4.366-6.832 11.481-11.574 19.811-12.29zm12.38 3.57a26.474 26.474 0 00-12.256-1.82 26.784 26.784 0 00-12.171 4.11 27.954 27.954 0 00-8.783 8.93 1.033 1.033 0 00.308 1.405c.189.122.402.17.609.152a.995.995 0 00.762-.476c4.23-6.887 11.494-11.406 19.43-12.088 7.758-.667 15.233 2.265 20.508 8.042a.975.975 0 001.404.043 1.038 1.038 0 00.05-1.441 27.17 27.17 0 00-9.861-6.857zm6.45 11.274a1.04 1.04 0 00.094-1.439c-4.785-5.585-11.546-8.442-18.55-7.84-3.61.31-7.131 1.56-10.182 3.612-2.945 1.982-5.47 4.719-7.3 7.914a1.031 1.031 0 00.35 1.394.97.97 0 00.582.136.996.996 0 00.779-.504c3.454-6.027 9.408-9.96 15.927-10.52 6.371-.548 12.53 2.062 16.898 7.16a.976.976 0 001.402.087zm-4.533 2.207a.976.976 0 001.402.088 1.04 1.04 0 00.093-1.44c-3.912-4.566-9.442-6.903-15.171-6.41a17.681 17.681 0 00-8.33 2.955c-2.408 1.62-4.472 3.858-5.969 6.47a1.03 1.03 0 00.35 1.394c.183.11.386.152.583.135a.997.997 0 00.779-.502c2.764-4.825 7.528-7.972 12.743-8.42 5.096-.439 10.024 1.65 13.52 5.73z" fill="#f3d373"/><path d="M131.676 163.15c2.205 1.922 6.268.735 9.076-2.652 2.807-3.386 3.296-7.689 1.091-9.61-2.205-1.921-6.268-.734-9.075 2.653-2.808 3.386-3.296 7.688-1.092 9.61zm-24.86-7.077c-3.317-2.891-7.554-3.37-9.461-1.07s-.764 6.51 2.554 9.402c3.319 2.892 7.555 3.371 9.462 1.07 1.908-2.3.764-6.51-2.554-9.402z" fill="#f5c02c"/><path d="M139.672 153.506c1.913 1.666 1.798 5.123-.098 8.22.41-.369.805-.779 1.178-1.228 2.807-3.386 3.296-7.689 1.091-9.61-2.205-1.921-6.268-.734-9.075 2.653-.373.449-.703.915-.994 1.389 2.677-2.417 5.986-3.09 7.898-1.424zm-40.135 3.4c1.693-2.042 5.221-1.893 8.313.188-.316-.353-.66-.696-1.033-1.02-3.318-2.892-7.555-3.371-9.462-1.07-1.907 2.3-.764 6.51 2.554 9.4.373.326.758.619 1.15.882-2.502-2.793-3.215-6.338-1.522-8.38z" fill="#ecb700"/></svg>