<svg width="200" height="200" xmlns="http://www.w3.org/2000/svg"><circle cx="451.47" cy="411.426" r="60.52" transform="matrix(.29297 0 0 .31673 25.373 19.67)" fill="#744eaa"/><path d="M159.652 168.652c-9.537-2.4-15.468-12.704-13.248-23.014 1.663-7.727 7.433-13.264 14.234-14.544-9.186-1.712-18.123 4.603-20.263 14.544-2.22 10.31 3.711 20.614 13.248 23.014 2.39.601 4.779.649 7.053.221a17.183 17.183 0 01-1.024-.221z" fill="#67449e"/><path d="M75.781 73.205c.441.111.872.243 1.297.387.174-.802.397-1.577.657-2.329-17.808-21.887-39.957-29.939-47.996-32.045-1.702-.445-3.346.844-3.486 2.724l-.872 11.751c-.119 1.607 1.16 2.955 2.639 2.77 18.447-2.311 35.547 7.846 46.332 16.455.476.076.952.168 1.429.287z" fill="#93603e"/><path d="M68.953 61.812c-10.671-7.41-25.319-14.386-40.932-12.43-.919.114-1.758-.362-2.236-1.123l-.404 5.434c-.119 1.607 1.16 2.955 2.639 2.77 18.447-2.311 35.547 7.846 46.332 16.455.476.076.952.168 1.429.287.441.111.872.243 1.297.387.174-.802.397-1.577.657-2.33a98.344 98.344 0 00-8.782-9.45z" fill="#7f573c"/><path d="M49.71 109.668c2.258-2.975 5.302-5.149 8.708-6.222.552.701-6-6.301-3.766-16.677 1.57-7.291 6.823-12.614 13.137-14.214-8.316-2.968-20.205-3.759-32.653 4.391-1.081.708-1.303 2.305-.446 3.309 1.745 2.044 4.915 5.332 9.184 8.026 1.119.706 1.271 2.367.304 3.298-3.529 3.401-6.801 7.895-9.454 13.828-.549 1.229.071 2.701 1.294 3.038 2.717.748 8.2 1.738 13.692 1.223z" fill="#3bbc56"/><path d="M42.416 108.445c-1.224-.337-1.843-1.809-1.294-3.039 2.652-5.932 5.924-10.427 9.454-13.827.967-.931.815-2.592-.304-3.298-4.27-2.694-7.439-5.982-9.184-8.026-.857-1.004-.635-2.601.446-3.309 6.086-3.985 12.038-5.829 17.505-6.329-7.05-.651-15.345.726-23.903 6.329-1.081.708-1.303 2.305-.446 3.309 1.745 2.044 4.915 5.332 9.184 8.026 1.119.706 1.271 2.367.304 3.298-3.529 3.401-6.801 7.895-9.454 13.827-.549 1.23.071 2.702 1.294 3.039 2.711.746 8.175 1.733 13.655 1.226-3.014-.247-5.632-.779-7.257-1.226z" fill="#30aa44"/><path d="M98.201 59.401c1.002.252 1.963.596 2.879 1.015 2.257-3.783 5.684-6.555 9.607-7.868 1.004-7.569-1.161-15.184-2.199-18.703-.384-1.301-1.779-1.882-2.882-1.216-5.32 3.214-9.277 7.012-12.206 11.023-.803 1.099-2.346 1.034-3.064-.132-2.741-4.448-5.965-7.673-7.956-9.435-.978-.865-2.439-.531-3.028.677-6.89 14.128-5.04 27.068-1.702 35.897 3.227-8.463 12.036-13.4 20.551-11.258z" fill="#3bbc56"/><path d="M84.715 36.324a41.866 41.866 0 00-2.335-2.239c-.978-.865-2.439-.531-3.028.677-6.89 14.128-5.04 27.068-1.702 35.897a18.634 18.634 0 014.162-6.472c-1.716-7.785-1.728-17.469 2.903-27.863z" fill="#30aa44"/><circle cx="307.53" cy="160.006" r="60.52" transform="matrix(.29297 0 0 .31673 25.373 19.67)" fill="#744eaa"/><path d="M117.481 89.019c-9.537-2.4-15.468-12.704-13.248-23.014 1.664-7.727 7.433-13.264 14.234-14.544-9.186-1.711-18.123 4.603-20.263 14.544-2.22 10.31 3.711 20.614 13.248 23.014 2.39.601 4.779.649 7.053.221a17.183 17.183 0 01-1.024-.221z" fill="#67449e"/><circle cx="241.01" cy="356.526" r="60.52" transform="matrix(.29297 0 0 .31673 25.373 19.67)" fill="#744eaa"/><path d="M97.994 151.263c-9.537-2.4-15.468-12.704-13.248-23.014 1.664-7.726 7.433-13.264 14.234-14.544-9.185-1.711-18.122 4.603-20.263 14.544-2.22 10.311 3.711 20.614 13.248 23.014 2.39.602 4.779.649 7.053.221a16.429 16.429 0 01-1.024-.221z" fill="#67449e"/><circle cx="127.34" cy="321.726" r="60.52" transform="matrix(.29297 0 0 .31673 25.373 19.67)" fill="#744eaa"/><path d="M64.692 140.24c-9.537-2.4-15.469-12.704-13.249-23.015 1.664-7.726 7.434-13.263 14.234-14.543-9.185-1.712-18.122 4.603-20.263 14.543-2.22 10.311 3.712 20.614 13.249 23.015 2.389.601 4.779.649 7.053.221a16.85 16.85 0 01-1.024-.221z" fill="#67449e"/><circle cx="233.25" cy="181.426" r="60.52" transform="matrix(.29297 0 0 .31673 25.373 19.67)" fill="#553788"/><path d="M95.726 95.803c-9.537-2.4-15.468-12.704-13.248-23.014 1.663-7.726 7.432-13.262 14.231-14.543-9.187-1.714-18.127 4.6-20.268 14.543-2.22 10.31 3.712 20.614 13.249 23.014 2.391.602 4.781.649 7.056.22-.34-.063-.68-.134-1.02-.22z" fill="#462e7a"/><circle cx="319.48" cy="240.436" r="60.06" transform="matrix(.34688 0 0 .35817 11.111 9.843)" fill="#9266cc"/><path d="M124.357 116.913c-11.208-2.694-18.179-14.259-15.571-25.83 1.954-8.663 8.72-14.873 16.702-16.32-10.807-1.943-21.33 5.149-23.848 16.32-2.609 11.571 4.361 23.136 15.569 25.83 2.817.677 5.635.728 8.315.242a19.347 19.347 0 01-1.167-.242z" fill="#7b54ba"/><circle cx="412.2" cy="324.056" r="60.06" transform="matrix(.29297 0 0 .31673 25.373 19.67)" fill="#9266cc"/><path d="M148.184 140.838c-9.465-2.382-15.352-12.609-13.149-22.842 1.649-7.66 7.365-13.152 14.105-14.43-9.128-1.718-18.015 4.552-20.142 14.43-2.203 10.233 3.684 20.46 13.149 22.842 2.381.599 4.76.644 7.024.215a16.58 16.58 0 01-.987-.215z" fill="#7b54ba"/><circle cx="354" cy="403.526" r="60.06" transform="matrix(.29297 0 0 .31673 25.373 19.67)" fill="#9266cc"/><path d="M131.134 166.009c-9.466-2.382-15.353-12.609-13.15-22.842 1.65-7.66 7.366-13.152 14.106-14.43-9.128-1.718-18.015 4.553-20.143 14.43-2.203 10.233 3.685 20.46 13.15 22.842 2.38.599 4.76.644 7.024.215a16.58 16.58 0 01-.987-.215z" fill="#7b54ba"/><circle cx="156.37" cy="225.466" r="60.06" transform="matrix(.29297 0 0 .31673 25.373 19.67)" fill="#9266cc"/><path d="M73.232 109.611c-9.465-2.382-15.352-12.609-13.149-22.843 1.649-7.66 7.365-13.151 14.105-14.43-9.128-1.718-18.015 4.553-20.142 14.43-2.203 10.234 3.684 20.461 13.15 22.843 2.38.599 4.759.644 7.023.214a16.57 16.57 0 01-.987-.214z" fill="#7b54ba"/><circle cx="228.98" cy="284.596" r="60.06" transform="matrix(.29297 0 0 .31673 25.373 19.67)" fill="#aa8dd8"/><path d="M94.432 128.34c-9.466-2.383-15.353-12.609-13.149-22.843 1.649-7.66 7.364-13.152 14.104-14.43-9.127-1.718-18.015 4.553-20.142 14.43-2.203 10.234 3.685 20.46 13.15 22.843 2.38.598 4.759.643 7.024.214a17.398 17.398 0 01-.987-.214z" fill="#987fc9"/><circle cx="322.73" cy="324.056" r="60.06" transform="matrix(.29297 0 0 .31673 25.373 19.67)" fill="#aa8dd8"/><path d="M121.896 140.838c-9.466-2.382-15.353-12.609-13.15-22.842 1.65-7.66 7.365-13.152 14.105-14.43-9.128-1.718-18.015 4.552-20.141 14.43-2.204 10.233 3.683 20.46 13.149 22.842 2.38.599 4.76.644 7.023.215a16.722 16.722 0 01-.986-.215z" fill="#987fc9"/></svg>