<svg width="200" height="200" xmlns="http://www.w3.org/2000/svg"><path d="M76.323 60.285c-1.417 0-2.566-1.283-2.566-2.867 0-13.182-6.613-22.424-6.679-22.516-.893-1.225-.73-3.031.367-4.032 1.095-.997 2.707-.82 3.602.399.321.435 7.842 10.845 7.842 26.149 0 1.584-1.148 2.867-2.566 2.867zm0 0" fill="#96cd82"/><path d="M88.944 21.68c-7.618 4.78-12.846 12.237-15.04 20.213 7.237 2.06 15.656.955 23.275-3.823 6.48-4.066 11.23-10.068 13.855-16.68.737-1.852-.333-3.98-2.131-4.243-6.419-.938-13.479.468-19.959 4.534zm0 0" fill="#afdc82"/><path d="M108.904 17.147c-6.42-.938-13.48.468-19.959 4.534-7.619 4.779-12.847 12.236-15.04 20.212l37.017-23.213c-.4-.8-1.117-1.401-2.018-1.533zm0 0" fill="#96cd82"/><path d="M71.047 31.269c-.895-1.22-2.507-1.397-3.602-.4-1.096 1.002-1.26 2.808-.367 4.033.043.059 2.801 3.934 4.757 10.21.426 1.367 1.705 2.167 2.97 1.86 1.516-.367 2.404-2.153 1.894-3.789-2.247-7.208-5.444-11.634-5.652-11.914zm0 0" fill="#7dbe81"/><path d="M76.18 55.066c31.567 0 50.806 25.022 50.806 48.66 0 23.64-19.24 48.66-50.807 48.66-31.567 0-50.806-25.02-50.806-48.66 0-23.638 19.239-48.66 50.806-48.66zm0 0" fill="#ffaa5f"/><path d="M85.857 135.978c-31.568 0-50.807-25.02-50.807-48.66 0-5.191.963-10.498 2.746-15.543-8.014 9.04-12.423 20.67-12.423 31.951 0 23.64 19.239 48.66 50.806 48.66 24.635 0 41.71-15.25 48.044-33.177-8.777 9.903-21.866 16.77-38.366 16.77zm0 0" fill="#ff8c5a"/><path d="M126.986 184.638c-30.065 0-48.387-22.996-48.387-51.363s18.322-51.363 48.387-51.363c30.064 0 48.387 22.996 48.387 51.363s-18.323 51.363-48.387 51.363zm0 0" fill="#ffc369"/><path d="M126.986 87.318c-25.64 0-43.548 18.898-43.548 45.957s17.907 45.956 43.548 45.956c25.64 0 43.548-18.897 43.548-45.956 0-27.059-17.908-45.957-43.548-45.957zm0 0" fill="#fff6d8"/><path d="M162.186 122.974c-.826-3.518.074-7.842-1.555-10.887-1.639-3.064-5.466-4.208-7.862-6.643-2.315-2.351-3.663-6.521-6.63-8.147-2.762-1.512-6.552-.222-9.836-.99-2.983-.7-5.934-3.664-9.317-3.664s-6.333 2.963-9.317 3.663c-3.284.77-7.073-.52-9.835.991-2.968 1.626-4.316 5.796-6.632 8.147-2.395 2.435-6.222 3.579-7.861 6.643-1.63 3.045-.729 7.37-1.554 10.887-.793 3.383-3.51 6.616-3.51 10.3 0 3.685 2.717 6.918 3.51 10.3.825 3.517-.076 7.84 1.553 10.884 1.639 3.065 5.466 4.21 7.861 6.646 2.315 2.351 3.663 6.522 6.633 8.149 2.762 1.511 6.552.221 9.836.99 2.985.7 5.934 3.664 9.317 3.664 3.382 0 6.331-2.964 9.316-3.664 3.284-.769 7.074.521 9.836-.99 2.97-1.627 4.318-5.798 6.633-8.149 2.395-2.436 6.222-3.581 7.861-6.646 1.628-3.043.728-7.367 1.553-10.884.793-3.382 3.51-6.615 3.51-10.3 0-3.684-2.718-6.917-3.51-10.3zm0 0" fill="#ff8087"/><g fill="#e6646e"><path d="M135.128 133.275c0 1.506-1.74 2.505-2.371 3.722-.65 1.256-.575 3.433-1.699 4.159-1.088.704-2.724-.437-4.072-.437s-2.984 1.14-4.072.437c-1.124-.726-1.05-2.903-1.7-4.159-.63-1.216-2.37-2.214-2.37-3.722 0-1.507 1.74-2.505 2.37-3.722.651-1.255.576-3.432 1.7-4.159 1.089-.703 2.724.436 4.072.436 1.35 0 2.984-1.139 4.073-.436 1.123.727 1.049 2.903 1.698 4.159.63 1.217 2.371 2.215 2.371 3.722zm0 0"/><path d="M162.186 122.974c-.826-3.518.074-7.842-1.555-10.887-1.64-3.064-5.466-4.208-7.862-6.643-2.315-2.351-3.663-6.521-6.631-8.147-2.76-1.512-6.551-.221-9.834-.99-2.984-.7-5.935-3.664-9.318-3.664s-6.333 2.963-9.317 3.663c-3.284.77-7.073-.52-9.835.991-2.968 1.626-4.317 5.796-6.632 8.147-2.395 2.435-6.222 3.579-7.861 6.643-1.63 3.045-.729 7.37-1.554 10.887-.794 3.383-3.51 6.616-3.51 10.3 0 3.685 2.716 6.918 3.51 10.3.825 3.517-.076 7.84 1.552 10.885 1.64 3.064 5.467 4.21 7.862 6.645 2.315 2.352 3.664 6.522 6.633 8.149 2.762 1.511 6.552.221 9.836.99 2.985.7 5.934 3.664 9.317 3.664 3.382 0 6.331-2.963 9.315-3.664 3.285-.769 7.075.521 9.837-.99 2.97-1.627 4.318-5.797 6.633-8.149 2.395-2.436 6.222-3.581 7.861-6.645 1.628-3.044.728-7.368 1.553-10.885.793-3.382 3.51-6.615 3.51-10.3 0-3.684-2.718-6.917-3.51-10.3zm-35.2 40.037c-17.405 0-28.014-13.313-28.014-29.736s10.609-29.737 28.014-29.737S155 116.851 155 133.275s-10.609 29.736-28.014 29.736zm0 0"/></g></svg>