<svg viewBox="0 0 512 512" xmlns="http://www.w3.org/2000/svg"><path d="M170.189 437.314c-3.772-32.849-6.183-49.81 10.832-77.356l151.938-245.803c19.109-30.97 36.387-38.197 70.652-54.485 1.372 36.929 2.952 55.053-16.194 86.023L235.488 391.505c-17.015 27.545-33.615 33.496-65.299 45.809z" fill="#619300"/><path d="M403.611 59.67c-8.783 4.176-16.447 7.751-23.316 11.289.081 21.847-2.708 37.769-16.934 60.805L211.432 377.568c-12.637 20.448-25.049 29.003-43.572 37.086.479 6.808 1.355 14.21 2.329 22.66 31.684-12.313 48.275-18.264 65.299-45.809l151.929-245.803c19.146-30.979 17.566-49.095 16.194-86.032z" fill="#577a00"/><path d="M57.996 437.314c-3.782-32.849-6.21-49.81 10.833-77.373l151.792-245.856c19.137-30.988 36.369-38.214 70.634-54.512 1.39 36.93 2.971 55.054-16.157 86.033L123.277 391.47c-17.015 27.553-33.606 33.478-65.281 45.844z" fill="#619300"/><path d="M291.255 59.573c-8.782 4.177-16.446 7.76-23.316 11.299.091 21.847-2.708 37.769-16.906 60.813L99.212 377.54c-12.637 20.459-25.039 29.013-43.553 37.114.487 6.799 1.363 14.201 2.337 22.66 31.675-12.366 48.266-18.291 65.281-45.844l151.821-245.864c19.128-30.979 17.547-49.103 16.157-86.033z" fill="#577a00"/><path d="M50.784 331.374c12.845-30.585 19.064-46.656 47.579-63.033l254.554-146.094c32.072-18.413 50.784-16.813 88.922-15.336-16.952 33.111-24.481 49.767-56.552 68.162L130.734 321.194c-28.515 16.368-46.037 13.964-79.95 10.18z" fill="#619300"/><path d="M441.794 106.911c-9.776-.385-18.271-.769-26.051-.821-10.679 19.225-20.951 31.966-44.8 45.659L116.472 297.843c-21.178 12.165-36.288 13.983-56.553 12.532-2.924 6.204-5.795 13.108-9.099 20.973 33.914 3.784 51.452 6.187 79.95-10.181l254.553-146.103c31.991-18.395 39.519-34.998 56.471-68.153z" fill="#577a00"/><path d="M111.497 457.282c8.124-32.106 11.834-48.858 37.587-69.079L378.86 207.712c28.958-22.721 47.706-23.804 85.663-27.727-11.789 35.155-16.726 52.711-45.657 75.432L189.064 435.889c-25.744 20.222-43.436 20.318-77.567 21.393z" fill="#619300"/><path d="M464.523 179.985c-9.731 1.005-18.198 1.825-25.897 2.875-7.664 20.535-15.915 34.579-37.443 51.488L171.408 414.811c-19.119 15.022-33.805 18.938-54.07 20.388-1.958 6.545-3.755 13.79-5.841 22.057 34.131-1.049 51.823-1.145 77.567-21.367l229.802-180.472c28.931-22.721 33.868-40.277 45.657-75.432z" fill="#577a00"/></svg>