<svg width="200" height="200" xmlns="http://www.w3.org/2000/svg"><path d="M145.457 147.54c19.036-19.22 24.614-49.63 12.447-74.038-1.08-2.166-1.519-4.664-.862-7.006.462-1.645 1.307-3.319 2.854-4.123 0 0-4.613-8.767-14.44 2.505 0 0-18.248 14.821 0 40.078 0 0 9.175 8.845 2.407 32.564l-2.406 10.02z" fill="#659c35"/><path d="M145.457 147.54l2.406-10.02c6.768-23.72-2.406-32.564-2.406-32.564-18.25-25.257 0-40.078 0-40.078 1.523-1.748 2.907-2.968 4.182-3.86-11.024-12.988-27.134-21.189-45.094-21.189-3.581 0-7.085.346-10.493.97-3.13-7.252-8.76-5.98-8.76-5.98-4.832 0-5.703 7.693-5.862 10.729-6.618 3.169-12.591 7.542-17.65 12.862a63.093 63.093 0 00-7.383 8.342c.221.032.445.065.662.092-19.352-2.975-22.242 5.266-22.66 7.583-.063.34-.068.689-.027 1.034.642 5.566 4.322 8.562 6.712 9.942 1.217.704 1.788 2.17 1.504 3.592-11.59 57.993 55.91 100.824 99.733 64.08.28-.235.491-.514.672-.81 1.432-1.136 4.683-4.946 4.464-4.726z" fill="#a4e869"/><path d="M56.11 66.997c.09.015.166.03.253.053 1.648.4 18.182 5.007 23.786 29.282 0 0 1.16 10.578 12.166 12.96.476.103.962-.02 1.449-.05 7.075-.453 22.667-5.082 22.52 13.677 0 0-5.403 25.309 21.927 24.262a3.092 3.092 0 011.74.448c.04.025.067.06.105.086 13.516-38.613-16.258-42.759-16.258-42.759s-34.294-1.565-28.88-37.573-9.626-32.563-9.626-32.563c-6.016 0-5.896 11.945-5.896 11.945-9.89 4.18-18.523 11.185-24.997 19.987.57.085 1.11.143 1.711.245z" fill="#88c057"/><path d="M140.321 153.075c-43.824 36.744-111.323-6.087-99.73-64.077.283-1.423-.285-2.889-1.505-3.592-2.39-1.38-6.07-4.376-6.712-9.942a3.55 3.55 0 01.027-1.035c.426-2.36 3.376-10.894 23.71-7.434.088.015.165.03.252.05 1.648.4 18.182 5.007 23.786 29.282 0 0 1.16 10.578 12.166 12.96.476.103.962-.02 1.449-.05 7.075-.453 22.667-5.082 22.52 13.677 0 0-5.403 25.309 21.927 24.262a3.092 3.092 0 011.74.448c1.908 1.183 2.098 4 .37 5.451z" fill="#659c35"/></svg>