<svg height="511pt" viewBox="-4 0 511 512" width="511pt" xmlns="http://www.w3.org/2000/svg"><path d="M160.818 163.745c-3.832 0-6.933-2.893-6.933-6.459 0-29.696-17.869-50.517-18.049-50.725-2.411-2.759-1.972-6.828.991-9.08 2.962-2.249 7.317-1.851 9.737.897.867.98 21.188 24.431 21.188 58.908 0 3.566-3.105 6.459-6.934 6.459zm0 0" fill="#cdeb96"/><path d="M194.922 76.779c-20.584 10.766-34.714 27.565-40.641 45.531 19.556 4.642 42.306 2.154 62.893-8.613 17.51-9.157 30.346-22.677 37.44-37.573 1.988-4.172-.9-8.967-5.763-9.558-17.343-2.114-36.419 1.055-53.929 10.213zm0 0" fill="#96d7a5"/><path d="M248.854 66.566c-17.346-2.114-36.422 1.055-53.932 10.213-20.584 10.766-34.711 27.565-40.641 45.534L254.308 70.02c-1.08-1.802-3.018-3.157-5.454-3.454zm0 0" fill="#78c3a5"/><path d="M146.561 98.378c-2.42-2.748-6.772-3.146-9.734-.897-2.963 2.252-3.402 6.321-.991 9.08.115.136 7.568 8.864 12.855 23.001 1.151 3.079 4.606 4.881 8.026 4.189 4.095-.827 6.494-4.847 5.116-8.531-6.073-16.24-14.712-26.208-15.272-26.842zm0 0" fill="#96d7a5"/><path d="M212.949 193.037c-10.679-6.047-18.785-15.787-25.576-26.372-5.847-9.111-15.709-15.103-26.942-15.103-11.236 0-21.097 5.992-26.944 15.103-6.791 10.585-14.898 20.325-25.577 26.372-34.89 19.754-58.615 58.567-58.615 103.24 0 64.7 42.535 117.141 111.136 117.143 68.598-.002 111.133-52.443 111.133-117.143 0-44.673-23.725-83.486-58.615-103.24zm0 0" fill="#e1f587"/><path d="M186.58 389.061c-68.601-.002-111.136-52.443-111.136-117.143 0-28.318 9.574-54.297 25.44-74.544-30.993 20.783-51.589 57.313-51.589 98.903 0 64.7 42.535 117.141 111.136 117.143 38.122 0 68.158-16.233 87.355-41.728-16.838 10.945-37.409 17.369-61.206 17.369zm0 0" fill="#cdeb96"/><path d="M389.457 223.486c-10.678-6.047-18.785-15.787-25.576-26.372-5.847-9.111-15.708-15.1-26.941-15.1-11.236 0-21.098 5.989-26.945 15.1-6.791 10.585-14.897 20.325-25.576 26.372-34.89 19.754-58.615 58.567-58.615 103.239 0 64.701 42.535 117.144 111.136 117.144 68.597 0 111.133-52.443 111.133-117.144 0-44.672-23.725-83.485-58.616-103.239zm0 0" fill="#e1f587"/><path d="M382.666 233.895c-11.164-6.324-20.701-16.023-30.008-30.53-3.684-5.743-9.562-9.172-15.718-9.172-6.16 0-12.038 3.429-15.721 9.172-9.308 14.507-18.844 24.206-30.006 30.53-32.281 18.275-52.335 53.847-52.335 92.83 0 61.8 40.325 104.962 98.062 104.965 57.736-.003 98.058-43.165 98.058-104.965 0-38.983-20.054-74.553-52.332-92.83zm0 0" fill="#fff6d8"/><path d="M375.875 244.304c-10.598-6.001-19.803-14.394-28.479-26.046a12.582 12.582 0 00-10.082-5.049h-.749a12.58 12.58 0 00-10.084 5.049c-8.676 11.652-17.882 20.042-28.477 26.043-28.405 16.083-46.048 47.668-46.048 82.424 0 54.632 34.945 92.785 84.984 92.785 50.038 0 84.987-38.153 84.987-92.785-.003-34.756-17.649-66.341-46.052-82.421zm0 0" fill="#ff9ba0"/><path d="M382.7 328.167c0-30.27-20.487-54.807-45.76-54.807-25.276 0-45.764 24.537-45.764 54.807 0 30.27 20.488 54.811 45.764 54.811 25.273 0 45.76-24.541 45.76-54.811zm0 0" fill="#ff8087"/><path d="M295.537 338.32H282.47c-3.612 0-6.537-2.725-6.537-6.09 0-3.365 2.925-6.09 6.537-6.09h13.068c3.613 0 6.538 2.725 6.538 6.09 0 3.365-2.925 6.09-6.538 6.09zm6.665-26.011a6.822 6.822 0 01-3.235-.805l-10.184-5.423c-3.135-1.673-4.228-5.39-2.432-8.307 1.792-2.921 5.788-3.945 8.917-2.267l10.184 5.424c3.135 1.67 4.225 5.386 2.432 8.307-1.207 1.97-3.417 3.07-5.682 3.07zm12.948-25.247c-1.84 0-3.672-.718-4.963-2.122l-3.268-3.55c-2.35-2.557-2.034-6.401.702-8.59 2.74-2.188 6.878-1.897 9.221.655l3.269 3.55c2.35 2.557 2.037 6.4-.703 8.59a6.822 6.822 0 01-4.259 1.467zm-18.35 82.736c-1.96 0-3.9-.813-5.181-2.373-2.204-2.664-1.675-6.488 1.185-8.54l10.113-7.255c2.86-2.065 6.98-1.557 9.168 1.107 2.204 2.664 1.674 6.487-1.186 8.54l-10.112 7.255a6.806 6.806 0 01-3.987 1.266zm21.745 17.747a6.801 6.801 0 01-4.123-1.37c-2.798-2.122-3.22-5.957-.938-8.569l4.045-4.625c2.294-2.6 6.398-3.004 9.2-.876 2.798 2.125 3.219 5.96.94 8.572l-4.048 4.625c-1.297 1.476-3.173 2.243-5.076 2.243zm72.869-49.225h-13.075c-3.612 0-6.537-2.725-6.537-6.09 0-3.365 2.925-6.09 6.537-6.09h13.075c3.612 0 6.537 2.725 6.537 6.09 0 3.365-2.925 6.09-6.537 6.09zm-19.739-26.011c-2.266 0-4.476-1.102-5.683-3.071-1.795-2.918-.702-6.635 2.433-8.307l10.184-5.424c3.126-1.678 7.125-.654 8.917 2.267 1.795 2.92.703 6.637-2.433 8.307l-10.183 5.423a6.831 6.831 0 01-3.235.805zm-12.947-25.247a6.822 6.822 0 01-4.26-1.468c-2.736-2.188-3.051-6.032-.702-8.59l3.268-3.549c2.353-2.552 6.476-2.843 9.221-.654 2.74 2.188 3.052 6.032.703 8.59l-3.269 3.549c-1.29 1.404-3.123 2.122-4.961 2.122zm18.355 82.736a6.804 6.804 0 01-3.984-1.266l-10.118-7.255c-2.86-2.047-3.39-5.87-1.19-8.54 2.19-2.67 6.29-3.172 9.17-1.107l10.118 7.254c2.86 2.047 3.389 5.87 1.188 8.54-1.284 1.56-3.225 2.374-5.184 2.374zm-21.751 17.747c-1.904 0-3.782-.767-5.076-2.243l-4.049-4.625c-2.278-2.612-1.857-6.447.938-8.572 2.81-2.128 6.921-1.725 9.2.876l4.048 4.625c2.278 2.612 1.857 6.447-.938 8.57a6.801 6.801 0 01-4.123 1.37zm0 0" fill="#ffd164"/></svg>