<svg height="512" viewBox="0 0 512.005 512.005" width="512" xmlns="http://www.w3.org/2000/svg"><path d="M88.466 301.422a38.28 38.28 0 01-24.882-9.191c-4.661-3.987-8.544-8.736-12.474-13.446-6.6-7.909-17.348-12.238-28.902-9.643-10.829 2.431-19.494 11.431-21.631 22.322-2.037 10.382 1.468 20.046 8.096 26.527l8.832 25.761 98.113-19.5v-22.831H88.466z" fill="#f4dbb3"/><path d="M73.475 317.938c-11.282 0-22.737 1.331-33.075 5.852-5.402 2.362-11.662 3.12-18.192 1.653-5.162-1.159-9.83-3.815-13.535-7.451C2.06 324.491-1.474 334.111.595 344.5c2.142 10.756 10.642 19.662 21.32 22.165 11.665 2.735 22.539-1.599 29.195-9.576 4.196-5.028 8.338-10.101 13.431-14.244 6.943-5.647 15.812-8.392 24.762-8.392h26.315v-16.516H73.475z" fill="#eac89f"/><path d="M369.037 132.275a132.127 132.127 0 00-107.39 66.371l-3.045 5.329a132.129 132.129 0 01-80.676 62.113l-52.175 13.914c-.637.17-1.262.364-1.875.58l-11.537 26.421 15.364 39.333 132.03 24.006a330.311 330.311 0 0059.09 5.328H445.94V128.002z" fill="#b57f5f"/><path d="M445.94 384.002v-16.516H318.826a313.831 313.831 0 01-56.14-5.062l-111.688-20.306c-15.707-2.856-27.123-16.535-27.123-32.499v-29.034c-9.807 3.482-16.516 12.804-16.516 23.354v26.355c0 11.973 8.563 22.233 20.342 24.375l132.03 24.005a330.311 330.311 0 0059.09 5.328z" fill="#9f6e50"/><ellipse cx="445.94" cy="256.002" fill="#ff9a9f" rx="66.064" ry="128"/><ellipse cx="445.94" cy="256.002" fill="#ff8086" rx="49.548" ry="111.484"/><ellipse cx="445.94" cy="256.002" fill="#f5ebcd" rx="16.516" ry="28.903"/></svg>