<?xml version="1.0" encoding="iso-8859-1"?>
<!-- Generator: Adobe Illustrator 19.0.0, SVG Export Plug-In . SVG Version: 6.00 Build 0)  -->
<svg version="1.1" id="Capa_1" xmlns="http://www.w3.org/2000/svg" xmlns:xlink="http://www.w3.org/1999/xlink" x="0px" y="0px"
	 viewBox="0 0 512.001 512.001" style="enable-background:new 0 0 512.001 512.001;" xml:space="preserve">
<path style="fill:#AF6E5A;" d="M274.427,185.07l-26.763-10.381c-49.68,119-36.213,329.152-36.213,329.152h48.965
	C260.416,503.84,232.072,308.935,274.427,185.07z"/>
<path style="fill:#965A50;" d="M238.302,125.894c-3.152,5.725-5.104,12.204-5.104,19.201c0,12.202,5.57,22.996,14.172,30.346
	c-49.318,119.128-35.919,328.399-35.919,328.399h22.886c-2.513-38.315-11.009-205.117,21.743-314.14
	c1.21-4.029,5.392-6.13,9.516-5.299c2.482,0.5,5.046,0.769,7.676,0.769c21.642,0,39.158-17.188,39.929-38.641
	C288.387,139.126,263.481,132.041,238.302,125.894z"/>
<path style="fill:#96BE4B;" d="M276.737,512.001h-81.608c-4.507,0-8.161-3.65-8.161-8.161c0-4.511,3.654-8.161,8.161-8.161h81.608
	c4.507,0,8.161,3.65,8.161,8.161S281.244,512.001,276.737,512.001z"/>
<g>
	<path style="fill:#AFD755;" d="M276.736,144.837c-7.008-53.974-32.273-114.743-42.44-137.606c-1.771-3.982,1.865-8.218,6.057-7.026
		c16.433,4.671,48.324,17.843,64.706,52.104C312.441,67.748,316.181,95.801,276.736,144.837"/>
	<path style="fill:#AFD755;" d="M276.736,144.837C194.248,133.242,124.174,155.564,99,165.161c-3.493,1.332-6.619-2.492-4.716-5.709
		c10.401-17.582,36.432-53.447,79.533-61.853C204.142,91.685,252.255,95.801,276.736,144.837"/>
	<path style="fill:#AFD755;" d="M276.737,144.789c62.916,23.808,102.939,69.613,119.16,91.26c2.964,3.955,9.233,1.888,9.346-3.053
		c0.48-21.054-1.426-63.702-28.876-86.19C316.181,97.501,276.737,144.789,276.737,144.789z"/>
</g>
<path style="fill:#96BE4B;" d="M415.594,72.191c-18.403-10.238-53.938-25.417-87.406-13.62
	c-27.992,9.867-41.175,28.189-47.261,45.424c-2.295-21.884-12.676-48.628-44.484-69.911c-35.04-23.445-74.072-19.619-97.8-13.513
	c-5.569,1.433-6.057,9.156-0.695,11.505C167.291,44.934,238.9,95.43,276.736,144.838c38.425-27.275,110.49-58.694,137.203-62.955
	C418.82,81.104,419.913,74.594,415.594,72.191z"/>
<g>
</g>
<g>
</g>
<g>
</g>
<g>
</g>
<g>
</g>
<g>
</g>
<g>
</g>
<g>
</g>
<g>
</g>
<g>
</g>
<g>
</g>
<g>
</g>
<g>
</g>
<g>
</g>
<g>
</g>
</svg>
