<svg viewBox="0 0 500 500" xmlns="http://www.w3.org/2000/svg"><path d="M83.928 120.226s-14.89 119.579 3.328 143.048c25.86 33.313 121.913 33.813 121.913 33.813s33.358-80.767 10.224-108.983c-28.455-34.706-135.465-67.878-135.465-67.878z" fill="#48ca4a" stroke="#028200" transform="matrix(1.31027 0 0 1.36074 -34.546 -94.808)"/><path d="M266.834 309.714s-8.62-79.537 1.927-95.148c14.97-22.158 70.577-22.49 70.577-22.49s19.311 53.722 5.918 72.489c-16.473 23.085-78.422 45.149-78.422 45.149z" transform="matrix(-1.30533 -.11809 .1137 -1.3556 739.26 622.933)" fill="#10c725" stroke="#028200"/><path d="M393.355 223.001c2.756-.918 4.725.777 4.978 2.35.364 2.27-3.235 6.513-7.691 11.747-7.851 9.22-29.582 25.803-41.173 39.938-10.955 13.361-19.882 28.532-27.146 42.29-6.6 12.496-11.334 23.816-15.384 36.648-4.146 13.138-7.172 27.948-9.049 41.349-1.78 12.717.078 33.004-2.261 37.12-.05.088-.102.17-.156.244a6.499 6.499 0 01-.052.166c-.593 1.79-2.83 2.409-4.073 2.35-1.155-.054-1.387.441-3.167-2.35-8.063-12.647-49.91-123.273-68.772-161.634-12.7-25.832-22.256-41.236-32.574-56.385-8.347-12.252-19.82-25.38-23.98-29.601-1.686-1.71-2.87-1.161-3.168-2.349-.36-1.441.818-5.363 2.263-6.108 1.508-.78 4.857.317 6.786 1.879 2.27 1.837 4.07 7.734 5.43 9.397.735.898.804.407 1.809 1.41 2.547 2.538 9.232 9.04 15.384 17.854 9.58 13.73 22.641 35.16 36.195 62.024 16.797 33.293 48.809 105.324 61.027 136.938.077-.834.164-1.668.26-2.497 2.08-17.792 10.637-52.345 17.194-70.48 4.957-13.714 9.56-20.87 16.288-31.952 7.56-12.454 16.502-26.214 27.598-39 12.19-14.04 36.303-38.968 43.434-41.348z" fill="#a8d333"/></svg>