<svg id="Capa_1" enable-background="new 0 0 512 512" height="512" viewBox="0 0 512 512" width="512" xmlns="http://www.w3.org/2000/svg"><g><path d="m255.984 505.538 15.536-58.692-4.187-15.179 8.901-2.63 5.827-22.011 2.939-20.693 5.84-12.473 9.891-37.365.269-16.828 8.891-17.776 14.248-53.825-15.757-14.765h-112.899l49.931 278.435c4.237 1.046 9.199-1.021 10.57-6.198z" fill="#ffe07d"/><path d="m325.748 241.986-13.571-6.786-64.589 44.038-23.485-16.013-2.566-29.923-50.496 14.766 14.248 53.824 11.046 20.441-1.887 14.159 9.892 37.37 8.66 17.138.116 16.023 5.827 22.014 8.723 8.296-4.009 9.513 15.536 58.691c.907 3.427 3.417 5.499 6.219 6.199l-6.459-75.321 8.636-5.888 23.931 16.317 4.714-17.808-13.228-9.02 19.055-12.992 8.779-33.165-27.833-18.978 32.346-22.055 5.379 3.667 9.16-34.603-14.539 9.914-32.348-22.056 61.135-41.683zm-93.577 47.763-5.475 3.733-.68-7.929zm-.222 64.98.225.154-.201.137zm47.99 32.721-32.349 22.055-11.623-7.925-2.29-26.699 13.913-9.487zm-.004-65.134-32.345 22.055-17.556-11.97-1.634-19.058 19.187-13.082z" fill="#ffd064"/><g fill="#ffc250"><path d="m223.658 446.846 15.288-10.424-2.987-34.847-20.715-14.125 18.427-12.565-1.702-19.862-27.631 18.84 8.778 33.159 19.057 12.995-13.229 9.02z"/><path d="m185.287 301.892 9.159 34.6 5.378-3.667 32.119 21.9-1.913-22.327-14.789-10.083 13.156-8.971-1.703-19.861-26.87 18.32z"/><path d="m226.014 285.551-1.913-22.327-38.873-26.504-15.798 5.266 1.61 6.082z"/></g><path d="m186.069 97.736c-2.883 0-5.699-1.433-7.353-4.045l-8.684-13.747c-2.561-4.054-1.348-9.422 2.705-11.983 4.071-2.561 9.422-1.34 11.983 2.705l8.684 13.747c2.561 4.054 1.348 9.422-2.705 11.983-1.441.908-3.044 1.34-4.63 1.34z" fill="#ffe07d"/><path d="m313.75 34.5c-.535-2.853 1.176-7.183-1.221-9.668-11.642-12.069-42.029-19.821-59.915-23.497l-11.614 10.665c-4.772 14.493 1.388 42.716-31.75 75.507 17.692-4.331 14.949-5.859 31.283-8.624 60.757-10.281 77.559-21.225 73.217-44.383z" fill="#ead1ff"/><path d="m317.063 32.838c-.53-2.825-2.177-5.542-4.535-8.006 0 0-2.521 9.454-13.015 15.605-10.24 6.002-30.046 10.897-44.917 13.958-7.815 1.608-14.411-6.058-11.533-13.5 5.694-14.726 8.608-27.9 9.55-39.559-2.191-.45-4.258-.859-6.014-1.187-4.286-.799-8.424 1.69-9.787 5.831-4.771 14.493-18.715 48.736-51.853 81.527 5.478-1.341 11.319-2.396 17.248-3.318-.007.012-.012.025-.019.037 13.283-2.065 27.049-3.432 38.344-5.343 60.758-10.281 80.873-22.886 76.531-46.045z" fill="#d6bdef"/><path d="m239.628 74.813c-15.778 2.67-34.335 5.264-51.54 9.553-34.088 8.499-51.745 27.544-43.088 63.134 0 0 174.777-15.696 179.119-17.325 4.342-1.628 25.568-46.738 25.568-46.738l3.96-15.435c-1.552-10.174-9.798-21.583-36.171-27.201-1.895 17.335-24.619 25.004-77.848 34.012z" fill="#ff9a9f"/><path d="m353.647 68.003s-1.236 2.344-3.294 4.277c-15.603 14.658-69.181 23.854-107.966 27.434-18.305 1.69-36.602 4.224-54.745 7.526-8.119 1.478-13.725-7.635-8.818-14.269 2.277-3.078 6.059-6.105 9.264-8.605-33.646 8.546-62.781 24.002-54.209 59.243 0 0 185.899-11.805 190.241-13.434 4.342-1.628 25.51-42.336 25.51-42.336s5.711-9.185 4.017-19.836z" fill="#ff8086"/><path d="m349.781 87.652c-15.222 21.016-59.515 25.085-105.941 29.371-24.247 2.238-48.342 5.926-72.147 11.023-4.747 1.016-9.221 4.827-13.943 5.955-57.534 18.454-31.698 58.298-8.25 65.5l193-41.5 51.086-22.521c.064-.199.127-.399.188-.6 7.773-25.706-18.664-44.695-43.993-47.228z" fill="#ead1ff"/><path d="m137.044 203.087 203.544-35.537c26.825-4.839 47.134-14.016 52.999-32.072-13.154 5.771-39.915 14.084-91.724 18.978-18.211 1.72-37.938 2.373-57.021 2.948-27.541.829-52.932 1.6-73.751 5.578-10.875 2.078-20.012-9.142-14.742-18.879 3.128-5.78 7.926-11.142 15.345-16.059l-14.204 3.216c-57.535 18.455-43.893 64.626-20.446 71.827z" fill="#d6bdef"/><path d="m356.534 163.793s-12.694 4.014-52.983 7.951c-42.162 4.12-90.403 2.045-124.41 7.482-15.059 2.407-21.93 13.72-29.641 20.274-23.407 19.896 4.276 37.5 32.5 37.5h143.748l35.067-9.676c14.599-14.153 19.802-37.258-4.281-63.531z" fill="#ff9a9f"/><path d="m208.838 224.651c-26.166 0-45.638-25.808-29.697-45.426-15.047 2.407-27.335 6.275-35.041 12.826-23.407 19.896-2.895 49.935 25.329 49.935h156.318c13.11 0 28.014-6.494 37.565-17.335z" fill="#ff8086"/><path d="m215.031 147.909c-.254 0-.509-.008-.763-.034-4.775-.416-8.311-4.622-7.896-9.405l1.45-16.648c.416-4.775 4.8-8.303 9.405-7.896 4.775.416 8.311 4.622 7.896 9.405l-1.45 16.648c-.39 4.521-4.181 7.93-8.642 7.93z" fill="#b3e59f"/><path d="m351.071 143.567c-1.518 0-3.062-.399-4.461-1.238l-7.243-4.342c-4.113-2.468-5.445-7.794-2.977-11.916 2.468-4.113 7.802-5.453 11.916-2.977l7.243 4.342c4.113 2.468 5.445 7.794 2.977 11.916-1.628 2.714-4.503 4.215-7.455 4.215z" fill="#fff"/><path d="m197.654 249.22c-3.545 0-6.878-2.188-8.159-5.716l-5.792-15.918c-1.645-4.503.678-9.49 5.19-11.127 4.495-1.637 9.49.678 11.127 5.19l5.792 15.918c1.645 4.503-.678 9.49-5.19 11.127-.975.357-1.984.526-2.968.526z" fill="#a4ccff"/><path d="m292.469 216.654c-.729 0-1.476-.093-2.213-.288l-13.756-3.613c-4.639-1.213-7.412-5.962-6.191-10.601 1.204-4.639 5.979-7.404 10.601-6.191l13.756 3.613c4.639 1.213 7.412 5.962 6.191 10.601-1.018 3.901-4.538 6.479-8.388 6.479z" fill="#b3e59f"/><path d="m276.907 75.898c-2.663 0-5.292-1.221-6.997-3.528l-10.135-13.747c-2.85-3.867-2.027-9.303 1.832-12.144s9.286-2.027 12.145 1.832l10.135 13.747c2.85 3.867 2.027 9.303-1.832 12.144-1.552 1.145-3.359 1.696-5.148 1.696z" fill="#a4ccff"/><path d="m367.1 238.967c-1.934 0-3.893-.645-5.504-1.976l-12.662-10.406c-3.706-3.045-4.24-8.515-1.196-12.221 3.036-3.698 8.515-4.257 12.221-1.196l12.662 10.406c3.706 3.045 4.24 8.515 1.196 12.221-1.713 2.086-4.207 3.172-6.717 3.172z" fill="#ffe07d"/><path d="m163.561 193.239c-3.24 0-6.352-1.815-7.845-4.936l-7.149-14.935c-2.069-4.325-.237-9.507 4.088-11.585 4.3-2.078 9.507-.246 11.585 4.088l7.149 14.935c2.069 4.325.237 9.507-4.088 11.585-1.204.576-2.485.848-3.74.848z" fill="#ffe07d"/></g></svg>