<svg viewBox="0 0 512.001 512.001" xmlns="http://www.w3.org/2000/svg"><path d="M139.398 103.684l25.276 6.335c23.057 5.776 41.062 23.346 46.983 45.846 5.921 22.5 23.925 40.07 46.983 45.848 23.058 5.778 41.061 23.347 46.981 45.847 5.921 22.5 23.925 40.071 46.982 45.846 23.058 5.779 41.063 23.349 46.984 45.849l6.49 24.666c1.926 7.321-.253 15.093-5.731 20.438l-68.244 66.596c-12.001 11.711-32.498 6.239-36.72-9.802l-.044-.169c-5.922-22.5-23.926-40.071-46.984-45.847-23.058-5.778-41.061-23.347-46.983-45.848-5.92-22.499-23.922-40.069-46.981-45.847-23.057-5.776-41.061-23.346-46.982-45.846-5.921-22.5-23.926-40.07-46.983-45.848l-.172-.043c-16.439-4.119-22.047-24.122-10.046-35.832l68.244-66.597c5.479-5.346 13.444-7.472 20.947-5.592z" fill="#da745e"/><path d="M95.039 132.125l39.521 9.902c21.74 5.448 38.713 22.013 44.295 43.226l1.1 4.172c5.581 21.215 22.555 37.779 44.295 43.227l4.276 1.072c21.738 5.445 38.714 22.011 44.296 43.224l1.098 4.174c5.582 21.212 22.557 37.778 44.295 43.225l4.277 1.071c21.738 5.448 38.713 22.013 44.295 43.226l10.148 38.567-36.148 35.275-10.148-38.568c-5.581-21.212-22.555-37.778-44.295-43.226l-4.277-1.071c-21.737-5.447-38.713-22.011-44.295-43.225l-1.097-4.173c-5.583-21.214-22.558-37.779-44.297-43.225l-4.276-1.073c-21.738-5.446-38.714-22.012-44.296-43.225l-1.098-4.174c-5.581-21.212-22.557-37.777-44.296-43.224l-39.522-9.904 36.149-35.273z" fill="#b85741"/><path d="M248.356 395.138c23.057 5.776 41.062 23.346 46.984 45.847l.043.169c4.222 16.04 24.72 21.513 36.721 9.802l33.451-32.644c-10.286-2.973-18.982-13.255-23.957-31.808-4.159-15.507-13.824-27.565-26.287-35.868a89.378 89.378 0 0014.242-29.928c3.362-12.779 13.455-22.795 26.432-26.349a68.761 68.761 0 00-3.378-.952c-23.058-5.776-41.063-23.346-46.983-45.847-5.92-22.5-23.925-40.07-46.982-45.847-23.058-5.778-41.062-23.347-46.983-45.848a59.89 59.89 0 00-.911-3.097c-13.525 8.752-24.534 20.864-31.809 35.159-14.145-21.159-39.499-29.316-60.23-30.237-17.925-.794-23.689-12.722-23.653-25.582l-44.849 43.764c-11.999 11.711-6.39 31.714 10.047 35.832l.171.044c23.057 5.778 41.063 23.347 46.983 45.847 5.921 22.5 23.926 40.071 46.983 45.847 23.058 5.778 41.063 23.347 46.981 45.846 5.922 22.503 23.927 40.072 46.984 45.85z" opacity=".1" fill="#b85741"/><path d="M364.96 68.444l-25.277 6.335c-23.057 5.776-41.062 23.346-46.982 45.847-5.92 22.5-23.925 40.07-46.982 45.848-23.057 5.778-41.062 23.346-46.983 45.847-5.92 22.5-23.925 40.07-46.983 45.847-23.055 5.778-41.06 23.348-46.981 45.848l-6.491 24.666c-1.926 7.322.252 15.093 5.729 20.439l68.246 66.596c12.001 11.71 32.499 6.238 36.72-9.802l.045-.17c5.922-22.5 23.925-40.07 46.981-45.847 23.058-5.778 41.063-23.347 46.982-45.848 5.922-22.5 23.926-40.069 46.985-45.847 23.056-5.776 41.059-23.346 46.981-45.846 5.92-22.501 23.924-40.07 46.982-45.848l.173-.043c16.438-4.119 22.045-24.122 10.045-35.833l-68.244-66.596c-5.479-5.346-13.442-7.472-20.946-5.593z" fill="#da745e"/><path d="M409.319 96.885l-39.522 9.902c-21.738 5.448-38.714 22.012-44.296 43.226l-1.097 4.172c-5.582 21.214-22.556 37.779-44.297 43.227l-4.275 1.072c-21.738 5.445-38.713 22.011-44.295 43.224l-1.099 4.174c-5.582 21.212-22.556 37.778-44.296 43.224l-4.276 1.072c-21.739 5.448-38.713 22.012-44.297 43.226l-10.147 38.567 36.148 35.275 10.148-38.568c5.581-21.213 22.557-37.778 44.295-43.225l4.277-1.072c21.739-5.448 38.713-22.011 44.296-43.225l1.097-4.173c5.584-21.214 22.557-37.779 44.297-43.226l4.276-1.073c21.739-5.445 38.713-22.011 44.295-43.224l1.1-4.174c5.581-21.212 22.555-37.778 44.294-43.224l39.522-9.903-36.148-35.274z" fill="#b85741"/><path d="M217.911 306.033c-19.157-32.655-24.014-61.173-19.421-92.844-6.151 22.081-23.979 39.276-46.737 44.978-23.055 5.779-41.061 23.348-46.982 45.849l-6.491 24.665c-1.928 7.322.251 15.093 5.729 20.439l68.245 66.596c12.001 11.711 32.5 6.238 36.721-9.802l.044-.169c5.92-22.501 23.924-40.071 46.982-45.847 23.058-5.778 41.063-23.347 46.983-45.848a62.82 62.82 0 013.322-9.446c-51.273 29.597-77.109 20.666-88.395 1.429z" opacity=".05"/></svg>