<svg id="Capa_1" enable-background="new 0 0 496.575 496.575" height="512" viewBox="0 0 496.575 496.575" width="512" xmlns="http://www.w3.org/2000/svg"><path d="m410.771 50.85 17.495-21.604c3.684-4.549 2.983-11.224-1.567-14.908l-14.787-11.975c-4.549-3.684-11.224-2.983-14.908 1.567l-17.495 21.604-29.35 37.841 30.963 24.871z" fill="#be8f7d"/><path d="m403.629 45.067-9.543-7.728-34.88-15.862-38.039 6.299-59.403 52.968-70.867 104.234-103.175 135.307-50.024 142.933 19.27 30.425 70.111-37.584c68.839-36.902 127.389-90.387 170.351-155.616l15.758-23.925c1.937-2.941 4.051-5.762 6.33-8.446l94.539-111.37c28.473-33.543 23.765-83.946-10.428-111.635z" fill="#d3b5a8"/><circle cx="378.715" cy="392.484" fill="#d3b5a8" r="96.414"/><path d="m339.767 465.744c38.164-47.128 33.362-115.283-9.346-156.736-9.929 5.74-18.984 13.355-26.633 22.8-33.511 41.381-27.131 102.093 14.25 135.603 3.97 3.215 8.112 6.065 12.397 8.55 3.281-3.197 6.407-6.605 9.332-10.217z" fill="#c9a291"/><path d="m378.657 454.982c-14.438 0-28.018-4.817-39.272-13.931-26.779-21.686-30.923-61.116-9.236-87.896 11.923-14.723 29.647-23.168 48.625-23.168 14.437 0 28.017 4.817 39.271 13.931 12.973 10.506 21.078 25.434 22.823 42.035s-3.081 32.888-13.586 45.861c-11.923 14.723-29.647 23.168-48.625 23.168z" fill="#fffad3"/><path d="m330.149 353.154c-21.687 26.78-17.543 66.211 9.236 87.896 3.722 3.014 7.704 5.562 11.882 7.617 19.454-35.277 18.906-77.902-.008-112.35-8.066 3.944-15.284 9.643-21.11 16.837z" fill="#fdf6b5"/><g><path d="m65.601 478.347 23.891-73.721c23.45-72.361 63.803-139.167 117.408-194.373l19.678-20.266c2.417-2.489 4.696-5.114 6.824-7.858l88.265-113.844c18.347-23.664 46.554-34.634 72.419-30.948l-4.915-3.98c-34.193-27.689-84.473-21.816-111.364 13.008l-89.284 115.625c-2.152 2.787-4.472 5.441-6.946 7.947l-20.14 20.401c-54.864 55.574-95.006 123.951-116.793 198.943l-22.197 76.402c-5.955 20.496 15.71 38.041 34.521 27.958l7.691-4.123c-.567-3.45-.335-7.229.942-11.171z" fill="#c9a291"/><path d="m319.808 87.883c2.186 0 4.352-.95 5.833-2.78 2.607-3.219 2.111-7.942-1.108-10.549l-41.856-33.914c-1.693 1.81-3.324 3.724-4.87 5.726l-4.585 5.938 41.871 33.907c1.389 1.125 3.058 1.672 4.715 1.672z" fill="#c9a291"/><g><path d="m278.466 138.935c-1.657 0-3.326-.547-4.715-1.672l-11.458-9.279c-3.22-2.607-3.716-7.33-1.108-10.549 2.605-3.218 7.329-3.715 10.548-1.108l11.458 9.279c3.22 2.607 3.716 7.33 1.108 10.549-1.481 1.83-3.647 2.78-5.833 2.78z" fill="#be8f7d"/></g><path d="m212.612 222.132-45.88-37.155-5.295 5.363c-1.767 1.79-3.517 3.594-5.253 5.41l46.989 38.039c1.389 1.125 3.058 1.672 4.715 1.672 2.186 0 4.352-.95 5.833-2.78 2.607-3.22 2.11-7.942-1.109-10.549z" fill="#c9a291"/><g><path d="m156.761 291.807c-1.657 0-3.326-.547-4.715-1.672l-20.501-16.602c-3.219-2.607-3.716-7.33-1.108-10.548 2.605-3.218 7.329-3.716 10.548-1.109l20.501 16.602c3.219 2.607 3.716 7.33 1.108 10.548-1.481 1.831-3.647 2.781-5.833 2.781z" fill="#be8f7d"/></g><path d="m94.402 358.735c1.389 1.125 3.058 1.672 4.715 1.672 2.186 0 4.352-.95 5.833-2.78 2.607-3.219 2.111-7.942-1.108-10.549l-33.12-26.792c-2.196 4.666-4.32 9.379-6.364 14.119z" fill="#be8f7d"/><g><path d="m102.89 428.374c-1.657 0-3.326-.547-4.715-1.672l-13.177-10.671c-3.22-2.607-3.716-7.33-1.108-10.549 2.604-3.217 7.328-3.715 10.548-1.108l13.177 10.671c3.22 2.607 3.716 7.33 1.108 10.549-1.481 1.83-3.647 2.78-5.833 2.78z" fill="#be8f7d"/></g><path d="m297.43 300.443 6.914-10.498c-16.833-9.024-35.762-13.882-54.99-13.882-35.322 0-68.319 15.729-90.528 43.154-29.844 36.853-33.421 86.565-13.143 126.313 60.802-36.247 112.711-85.817 151.747-145.087z" fill="#c9a291"/><circle cx="249.297" cy="392.481" fill="#c9a291" r="96.414"/><path d="m217.556 470.086c-41.381-33.511-47.761-94.222-14.25-135.603 17.766-21.939 43.187-34.043 69.311-35.578-35.209-8.747-73.907 2.843-98.246 32.899-33.51 41.381-27.13 102.093 14.25 135.603 19.442 15.744 43.151 22.682 66.302 21.322-13.268-3.295-26.042-9.472-37.367-18.643z" fill="#be8f7d"/><path d="m249.238 454.978c-14.438 0-28.018-4.817-39.272-13.931-26.779-21.686-30.923-61.116-9.236-87.896 11.923-14.723 29.647-23.168 48.625-23.168 14.437 0 28.017 4.817 39.271 13.931 12.973 10.506 21.078 25.434 22.823 42.035s-3.081 32.888-13.586 45.861c-11.922 14.724-29.646 23.168-48.625 23.168z" fill="#fffad3"/></g><g><path d="m56.968 493.643-6.293 2.345c2.105-.473 4.217-1.232 6.293-2.345z" fill="#d3b5a8"/></g><g fill="#be8f7d"><path d="m166.731 184.977-5.295 5.363c-1.767 1.79-3.517 3.594-5.253 5.41l36.616 29.641c3.339-3.732 6.737-7.416 10.19-11.052z"/><path d="m282.677 40.64c-1.693 1.81-3.324 3.724-4.87 5.726l-4.585 5.938 37.372 30.264 9.194-11.858z"/></g></svg>