<svg width="200" height="200" xmlns="http://www.w3.org/2000/svg"><path d="M84.742 81.46c1.115-4.875 3.71-9.248 7.375-12.435 2.67-2.186 4.078-5.697 3.698-9.22-.7-5.15.779-10.413 4.043-14.374 3.263-3.959 7.975-6.21 12.866-6.142.874.017 1.744.103 2.602.26 3.177.466 6.38-.924 8.394-3.641 4.07-5.113 10.44-7.41 16.482-5.951 6.042 1.46 10.734 6.432 12.141 12.866.614 3.358 2.874 6.071 5.92 7.11.832.25 1.645.569 2.428.954 4.407 2.177 7.641 6.346 8.832 11.384 1.19 5.039.212 10.428-2.668 14.712-1.88 2.98-2.152 6.767-.717 9.944 3.879 9.326 1.314 20.401-6.242 26.95-2.5 2.231-3.765 5.66-3.343 9.063a17.568 17.568 0 01-1.027 7.9c-1.764 4.494-5.225 8.012-9.515 9.672l-13.617 4.11c-9.58 2.888-17.982 9.235-23.758 17.94l-5.908 8.904-13.761-3.324 5.67-24.589-7.927-17.355c-3.113-3.447-4.672-8.18-4.286-13.007a17.467 17.467 0 012.54-7.558c1.861-2.848 2.23-6.489.972-9.626-1.91-4.538-2.33-9.659-1.194-14.548zm0 0" fill="#5f9548"/><path d="M132.24 69.896l23.48-7.302 1.235 4.834-23.48 7.304zm-6.937 29.556l29.196-11.122 1.506 4.744-29.195 11.122zM118.5 128.96l29.196-11.122 1.506 4.744-29.195 11.122zm0 0" fill="#68a34f"/><path d="M111.401 80.963c-.808-4.937-3.12-9.472-6.58-12.893-2.53-2.362-3.715-5.963-3.112-9.457 1.021-5.091-.126-10.44-3.132-14.606-3.007-4.168-7.565-6.726-12.448-6.988a16.098 16.098 0 00-2.603.084c-3.2.255-6.31-1.343-8.152-4.188-3.738-5.37-9.949-8.089-16.07-7.033-6.12 1.055-11.116 5.704-12.928 12.031-.827 3.306-3.253 5.858-6.357 6.69-.848.197-1.678.462-2.485.793-4.53 1.884-8.017 5.83-9.52 10.775a18.808 18.808 0 001.719 14.849c1.69 3.1 1.724 6.899.09 9.978-4.46 9.047-2.6 20.267 4.528 27.304 2.351 2.392 3.396 5.895 2.761 9.259a17.614 17.614 0 00.528 7.974c1.475 4.603 4.709 8.345 8.885 10.285l13.331 5.004c9.374 3.522 17.355 10.41 22.568 19.482l5.342 9.276 13.943-2.403-4.105-24.913 9.006-16.8c3.326-3.234 5.182-7.852 5.1-12.697a17.536 17.536 0 00-2.058-7.71c-1.678-2.965-1.813-6.625-.358-9.673 2.189-4.399 2.93-9.475 2.107-14.423zm0 0" fill="#5f9548"/><path d="M44.697 58.344l2.288-4.414 21.21 12.632-2.287 4.414zm-4.834 25.185l2.53-4.264 25.923 17.684-2.53 4.263zm0 30.316l2.53-4.263 25.923 17.685-2.53 4.262zm0 0" fill="#68a34f"/><path d="M137.753 88.977c.006-5.007-1.538-9.871-4.393-13.833-2.112-2.759-2.695-6.51-1.533-9.855 1.835-4.846 1.573-10.316-.715-14.935-2.288-4.62-6.365-7.918-11.138-9.007-.855-.19-1.721-.31-2.592-.358-3.199-.293-6.005-2.398-7.359-5.517-2.815-5.93-8.496-9.668-14.703-9.668-6.207 0-11.889 3.737-14.704 9.668-1.353 3.119-4.16 5.224-7.358 5.517a15.94 15.94 0 00-2.577.358c-4.774 1.09-8.851 4.386-11.139 9.007-2.289 4.618-2.552 10.089-.719 14.935 1.165 3.344.581 7.096-1.531 9.855-5.833 8.113-5.86 19.414-.066 27.563 1.966 2.831 2.45 6.542 1.278 9.84a17.565 17.565 0 00-.74 7.845c.705 4.79 3.285 9.028 7.088 11.652l1.43 1.024c12.257 8.751 19.621 23.49 19.622 39.278h18.855c0-15.787 7.36-30.523 19.61-39.278l1.431-1.024c3.803-2.624 6.383-6.861 7.089-11.652.35-2.64.095-5.333-.74-7.844-1.171-3.3-.69-7.01 1.277-9.841 2.813-3.943 4.334-8.768 4.327-13.73zm0 0" fill="#7eb457"/><path d="M137.753 88.977c.006-5.007-1.538-9.871-4.393-13.833-2.112-2.759-2.695-6.51-1.533-9.855 2.765-7.283.7-15.65-5.064-20.511-8.484 52.546-33.23 81.403-52.006 96.179 7.18 8.644 11.147 19.814 11.147 31.389h18.855c0-15.786 7.358-30.522 19.607-39.278l1.434-1.024c3.803-2.624 6.383-6.861 7.089-11.652.35-2.64.095-5.333-.74-7.844-1.171-3.3-.69-7.01 1.277-9.841 2.813-3.943 4.334-8.768 4.327-13.73zm0 0" fill="#77ad50"/><path d="M117.322 114.89L97.69 133.83v-23.52l22.786-21.983-3.153-3.754-19.633 18.942V80.016l18.048-16.929-3.103-3.8-14.945 14.02v-32.33h-4.713v32.329L78.029 59.288l-3.102 3.8 18.049 16.928v23.5L73.34 84.572l-3.153 3.754 22.788 21.983v23.52L73.34 114.89l-3.153 3.752 22.788 21.984v31.72h4.713v-31.72l22.786-21.984zm0 0" fill="#88c25e"/></svg>