<svg width="200" height="200" xmlns="http://www.w3.org/2000/svg"><g transform="translate(30 30) scale(.27344)"><path d="M512 289.706c0 75.57-45.548 140.502-110.696 168.832-22.451 9.763-47.241 15.169-73.291 15.169a184.869 184.869 0 01-48.029-6.322L251.77 373.65l-69.362-230.366c33.648-69.018 86.351-127.628 145.606-127.628 101.62 0 183.986 172.43 183.986 274.05z" fill="#b25719"/><g fill="#994811"><path d="M401.304 458.538c-22.451 9.763-47.241 15.169-73.291 15.169a184.869 184.869 0 01-48.029-6.322L251.77 373.65c15.9-36.402 29.993-50.453 37.333-14.208 9.464 46.709 57.836 78.179 112.201 99.096z"/><path d="M262.056 304.432c-24.066-65.426 16.818-248.6 101.47-281.796-11.49-4.512-23.364-6.98-35.513-6.98-101.62 0-183.985 172.43-183.985 274.05s82.366 184 183.985 184c12.141 0 24.002-1.19 35.486-3.431-84.638-16.535-70.553-81.861-101.443-165.843z"/></g><path d="M349.247 419.585c-64.76 64.76-189.935 99.57-271.541 60.043-13.219-6.394-25.276-14.739-35.77-25.219-75.241-75.239-40.402-232.057 34.839-307.311l46.466 46.466 226.006 226.021z" fill="#b25719"/><path d="M78.494 265.133s-57.534 112.831-.788 214.495c-13.219-6.394-25.276-14.739-35.77-25.219-75.241-75.239-40.402-232.057 34.839-307.311l46.466 46.466-44.747 71.569z" fill="#994811"/><ellipse transform="rotate(-135 213.002 283.35)" cx="213.001" cy="283.348" rx="192.664" ry="99.288" fill="#a3e261"/><path d="M289.103 359.434c-20.001-5.109-55.101-21.223-93.032-59.152-37.93-37.93-54.044-73.032-59.153-93.032 20 5.11 55.101 21.224 93.032 59.154 37.931 37.93 54.043 73.031 59.153 93.03z" fill="#fff"/><path d="M289.104 368.868c-8.35 0-12.515-10.53-6.497-16.261 3.03-2.886 7.754-3.411 11.341-1.256 3.37 2.024 5.172 6.064 4.396 9.925-.872 4.34-4.795 7.592-9.24 7.592zm-30.121-10.811c-6.967-3.417-6.951-13.719.121-17.024 6.856-3.204 14.725 2.939 13.246 10.375-.867 4.364-4.81 7.593-9.258 7.593a9.555 9.555 0 01-4.109-.944zm-25.218-14.495c-6.244-4.113-5.213-13.899 1.749-16.633 6.902-2.709 14.279 3.603 12.654 10.84-.955 4.258-4.853 7.364-9.212 7.364a9.37 9.37 0 01-5.191-1.571zm-23.144-17.235c-5.628-4.675-3.813-14.025 3.168-16.243 6.912-2.196 13.774 4.273 11.998 11.3-1.043 4.13-4.884 7.118-9.144 7.118a9.491 9.491 0 01-6.022-2.175zm-21.208-19.36c-5.074-5.12-2.607-14.13 4.445-15.835 6.958-1.682 13.319 5.036 11.255 11.892-1.183 3.931-4.92 6.695-9.024 6.695a9.547 9.547 0 01-6.676-2.752zm-19.359-21.208c-4.457-5.413-1.493-13.919 5.432-15.277 6.84-1.34 12.83 5.271 10.853 11.947-1.169 3.947-4.912 6.736-9.031 6.736-2.79-.013-5.473-1.251-7.254-3.406zm-17.248-23.144c-3.902-5.539-.127-13.537 6.455-14.526 6.713-1.009 12.363 5.494 10.447 12.001-1.167 3.964-4.893 6.751-9.033 6.751a9.523 9.523 0 01-7.869-4.226zm-14.482-25.205c-2.894-6.03 1.398-13.319 8.137-13.553 6.571-.228 11.44 6.483 9.19 12.659-1.339 3.675-4.936 6.199-8.854 6.199-3.574 0-6.918-2.086-8.473-5.305zm-1.408-20.73c-4.03 0-7.676-2.659-8.939-6.472-1.292-3.895.16-8.307 3.519-10.665 6.993-4.909 16.638 1.686 14.561 10.002-1.034 4.139-4.875 7.135-9.141 7.135zM270.75 337.528c-2.234-4.628-.288-10.355 4.35-12.609 4.628-2.249 10.355-.256 12.609 4.362h-.013c3.001 6.132-1.607 13.552-8.461 13.552-3.576 0-6.919-2.088-8.485-5.305zm-13.263-23.044c-3.775-5.704-.173-13.663 6.62-14.561 6.721-.889 12.276 5.706 10.239 12.178-1.218 3.874-4.922 6.595-8.99 6.595a9.534 9.534 0 01-7.869-4.212zm-16.028-21.509c-3.274-3.955-2.725-10.006 1.232-13.288 3.952-3.277 10.002-2.71 13.275 1.245 5.291 5.856.378 15.45-7.254 15.45a9.525 9.525 0 01-7.253-3.407zm-18.191-19.913c-3.634-3.634-3.634-9.704 0-13.338 3.634-3.634 9.704-3.634 13.338 0 5.818 5.817 1.574 16.091-6.675 16.091a9.543 9.543 0 01-6.663-2.753zm-19.913-18.191c-5.627-4.675-3.814-14.025 3.168-16.243 6.912-2.196 13.774 4.273 11.998 11.3-1.043 4.131-4.884 7.118-9.144 7.118a9.485 9.485 0 01-6.022-2.175zm-21.509-16.028c-6.223-4.131-5.222-13.894 1.75-16.634 6.904-2.714 14.286 3.589 12.657 10.836-.959 4.262-4.848 7.369-9.214 7.369a9.455 9.455 0 01-5.193-1.571zm-23.044-13.25c-6.965-3.417-6.954-13.722.122-17.022 6.934-3.233 14.83 3.056 13.21 10.536-.928 4.284-4.837 7.44-9.221 7.44a9.535 9.535 0 01-4.111-.954z" fill="#4d4d4d"/></g></svg>