<svg height="512" width="512" xmlns="http://www.w3.org/2000/svg"><path d="M318.941 242.307c-3.258-3.202-8.529-3.202-11.786 0L180.88 363.755a8.093 8.093 0 000 11.588c3.258 3.202 8.529 3.202 11.786 0l126.275-121.449a8.092 8.092 0 000-11.587z" fill="#91d96c"/><path d="M192.667 375.343l126.274-121.449a8.09 8.09 0 000-11.587L180.88 375.343c3.258 3.202 8.529 3.202 11.787 0z" fill="#6fbf5f"/><path d="M351.027 160.479c-3.258-3.202-8.529-3.202-11.786 0L212.966 281.927a8.093 8.093 0 000 11.588c3.258 3.202 8.529 3.202 11.786 0l126.275-121.449a8.092 8.092 0 000-11.587z" fill="#91d96c"/><path d="M224.753 293.515l126.274-121.449a8.09 8.09 0 000-11.587L212.966 293.515c3.258 3.202 8.529 3.202 11.787 0zm-96.502-5.938a8.091 8.091 0 010-11.587l98.81-92.365a24.316 24.316 0 000-34.763c-16.247-15.972-16.247-41.964 0-57.937 16.245-15.972 42.683-15.972 58.929 0 11.688 11.491 18.72 31.815 3.383 54.384-82.262 81.207-141.297 134.338-149.336 142.268-3.257 3.203-8.529 3.203-11.786 0z" fill="#6fbf5f"/><path d="M433.292 136.699c18.162-21.964 20.954-48.551 6.129-63.126-14.825-14.574-41.866-11.831-64.207 6.026-13.121-2.048-26.57 2.111-35.973 11.356-15.09 14.835-5.525 62.78-2.239 77.123a8.179 8.179 0 002.239 3.988 8.396 8.396 0 004.057 2.201c14.589 3.231 63.355 12.634 78.444-2.201 9.404-9.245 13.634-22.467 11.55-35.367z" fill="#91d96c"/><path d="M421.742 172.066c9.404-9.245 13.634-22.467 11.551-35.367 18.162-21.964 20.953-48.551 6.128-63.126l-100.18 98.493a8.396 8.396 0 004.057 2.201c14.589 3.231 63.355 12.635 78.444-2.201z" fill="#6fbf5f"/><path d="M264.258 380.553l-20.041-36.973 28.47 12.275c6.492-33.472-2.973-69.532-28.47-95.417-31.988-32.474-79.607-38.985-118.316-20.346l3.662 20.346-23.741-7.475c-3.032 2.456-6.213 4.628-9.018 7.475-21.096 21.417-33.235 52.281-29.453 86.227l46.005 46.624 46.11 46.728c33.164 3.732 63.545-8.395 84.751-29.925 8.656-8.787 15.071-18.902 20.041-29.539z" fill="#91d96c"/><path d="M244.218 410.093c8.655-8.788 15.072-18.903 20.041-29.54l-20.041-36.973 28.47 12.275c6.493-33.472-2.974-69.532-28.47-95.417L113.357 393.289l46.11 46.729c33.163 3.733 63.544-8.396 84.751-29.925z" fill="#6fbf5f"/><path d="M195.08 376.837l-16.379-16.628c-4.528-4.597-4.528-12.033 0-16.629a11.454 11.454 0 0116.379 0l16.378 16.629c4.528 4.595 4.528 12.033 0 16.628a11.454 11.454 0 01-16.378 0zm-32.76-83.142c4.528-4.596 4.528-12.033 0-16.628l-36.419-36.975c-7.083 3.412-13.757 7.751-20.079 12.873l40.12 40.73a11.453 11.453 0 0016.378 0zm110.368 62.16l-61.23-62.161a11.453 11.453 0 00-16.378 0c-4.528 4.596-4.528 12.034 0 16.629l69.178 70.23c3.726-7.971 6.776-16.177 8.43-24.698z" fill="#ffe6b3"/><path d="M224.742 368.675a8.091 8.091 0 010-11.588l151.664-147.12c20.47-13.63 41.665-12.357 56.582 2.308 16.246 15.973 16.246 41.965 0 57.938-16.246 15.972-42.683 15.972-58.93 0-8.553-8.41-22.066-10.905-35.985.56l-101.546 97.902c-3.256 3.202-8.528 3.202-11.785 0z" fill="#53a653"/><path d="M129.563 376.837c-16.88-17.136-38.958-27.523-62.212-30.171.66 5.937 1.637 11.862 3.317 17.716 6.183 21.606 1.647 46.623-9.959 66.262-2.671 4.608-1.791 10.369 1.912 14.153.01.008.007.023.017.031 4.87 3.743 9.724 4.483 14.284 1.689 18.993-11.553 43.634-16.158 64.901-9.883 5.83 1.722 11.732 2.717 17.643 3.383-2.532-23.688-12.865-45.884-29.903-63.18z" fill="#ffe6b3"/><path d="M76.922 446.517c18.994-11.553 43.636-16.158 64.901-9.883 5.83 1.722 11.732 2.717 17.644 3.383-2.533-23.688-12.866-45.884-29.904-63.18l-66.94 67.958c.008.01.007.025.015.033 4.87 3.743 9.725 4.482 14.284 1.689z" fill="#fc9"/><path d="M401.206 218.527c18.162-21.964 20.954-48.551 6.129-63.126-14.825-14.574-41.866-11.831-64.207 6.026-13.121-2.048-26.57 2.111-35.973 11.356-15.09 14.835-5.525 62.78-2.239 77.123a8.179 8.179 0 002.239 3.988 8.396 8.396 0 004.057 2.201c14.589 3.231 63.355 12.634 78.444-2.201 9.404-9.245 13.634-22.467 11.55-35.367z" fill="#91d96c"/><path d="M389.656 253.894c9.404-9.245 13.634-22.467 11.551-35.367 18.162-21.964 20.953-48.551 6.128-63.126l-100.18 98.493a8.396 8.396 0 004.057 2.201c14.589 3.231 63.355 12.635 78.444-2.201z" fill="#6fbf5f"/><path d="M260.013 198.933c-3.258-3.202-8.529-3.202-11.786 0L121.952 320.381a8.093 8.093 0 000 11.588c3.258 3.202 8.529 3.202 11.786 0L260.013 210.52a8.092 8.092 0 000-11.587z" fill="#91d96c"/><path d="M133.739 331.969L260.013 210.52a8.09 8.09 0 000-11.587L121.952 331.969c3.258 3.202 8.529 3.202 11.787 0z" fill="#6fbf5f"/><path d="M342.278 175.153c18.162-21.964 20.954-48.551 6.129-63.126-14.825-14.574-41.866-11.831-64.207 6.026-13.121-2.048-26.57 2.111-35.973 11.356-15.09 14.835-5.525 62.78-2.239 77.123a8.179 8.179 0 002.239 3.988 8.396 8.396 0 004.057 2.201c14.589 3.231 63.355 12.634 78.444-2.201 9.404-9.245 13.634-22.467 11.55-35.367z" fill="#91d96c"/><path d="M330.728 210.52c9.404-9.245 13.634-22.467 11.551-35.367 18.162-21.964 20.953-48.551 6.128-63.126l-100.18 98.493a8.396 8.396 0 004.057 2.201c14.589 3.231 63.355 12.635 78.444-2.201z" fill="#6fbf5f"/></svg>