<svg width="200" height="200" xmlns="http://www.w3.org/2000/svg"><path d="M66.849 30.792c7.27 5.784 19.068 53.229 20.17 67.234 2.416 30.725-5.356 48.05-37.267 51.399 21.775 2.228 32.34-5.582 40.433-20.353 0 0 5.037-18.324 4.683-24.79-1.24-22.622-5.688-57.738-14.696-71.998 0 0-6.88-.544-13.323-1.492z" fill="#f9eab0"/><path d="M72.739 31.523c7.25 5.768 19.026 53.073 20.127 67.036 2.415 30.632-5.332 47.906-37.155 51.238 21.715 2.226 32.252-5.56 40.318-20.284 0 0 5.021-18.268 4.666-24.716-1.24-22.554-5.777-58.122-14.763-72.34 0 0-6.766.012-13.193-.934z" fill="#fff5ce"/><path d="M82.569 122.107c.13-.162.36-.33.552-.353.19-.022.45.067.612.186.278.203.592.626.89 1.161.583 1.047 1.264 2.747 1.974 4.868 1.42 4.233 2.998 10.252 4.271 16.459 1.274 6.206 2.25 12.633 2.463 17.674.107 2.526.02 4.738-.316 6.394-.342 1.68-1.05 2.907-2.037 3.345l-.077.034-.1-.007c-6.644-.411-12.802-2.738-17.419-6.355-4.62-3.621-7.79-8.628-8.528-14.26-.721-5.794 1.233-11.649 5.46-16.36l4.182-4.637c.461-.512.9-1.03 1.322-1.562l.07-.089.104-.037c2.428-.88 5.52-4.965 6.577-6.46zm.664.451c-1.068 1.511-4.256 5.619-6.841 6.702a35.53 35.53 0 01-1.287 1.516l-4.184 4.637c-4.146 4.573-6.002 10.12-5.265 15.743.682 5.473 3.717 10.204 8.233 13.743 4.523 3.543 10.388 5.779 16.876 6.178.724-.296 1.136-1.163 1.456-2.734.325-1.595.407-3.714.301-6.208-.21-5-1.177-11.366-2.447-17.552s-2.837-12.16-4.247-16.37c-.703-2.1-1.358-3.733-1.917-4.737-.273-.49-.482-.773-.663-.906a.17.17 0 01-.015-.012zm39.363-10.581c-.917.02-24.32-18.055-27.039-19.956l-.849-.593 1.038-.118 4.45-.507c5.457-.49 10.708.871 14.67 3.468 3.967 2.6 6.749 6.538 7.346 11.023l.805 6.674zm-1.187-6.592c-.528-4.308-3.15-7.939-6.995-10.46-3.852-2.525-8.824-3.838-14.138-3.338l-3.428.39c4.936 3.664 21.907 16.874 25.232 18.98zm-27.86-13.329c.817.373 1.347 1.22 1.491 2.267.142 1.02.014 2.348-.303 3.791-.631 2.871-2.036 6.401-3.661 9.559-1.626 3.16-3.509 6.014-5.084 7.518-.805.768-1.669 1.262-2.341 1.202-.363-.033-.762-.261-1.007-.594-.228-.31-.41-.789-.521-1.364l-.012-.06.009-.061c.302-2.286.312-4.583.013-6.904-.41-3.336.568-6.61 2.543-9.28 1.973-2.666 5-4.839 8.585-6.08l.156-.054zm-8.216 6.534c-1.897 2.565-2.82 5.547-2.396 8.722a27.62 27.62 0 01-.007 7.041c.09.472.205.76.371.986.15.204.234.252.425.27.435.038.962-.278 1.7-.981 1.51-1.442 3.32-4.186 4.926-7.308 1.608-3.125 2.976-6.561 3.593-9.371.308-1.398.423-2.589.294-3.521-.126-.905-.338-1.353-.85-1.586-3.414 1.193-6.156 3.18-8.056 5.748zm12.379 72.326c2.132-2.626 8.577-10.74 14.7-18.004 3.061-3.633 6.049-7.06 8.375-9.482 1.165-1.212 2.18-2.187 2.95-2.804.392-.313.753-.557 1.034-.687.15-.069.332-.124.467-.134.16-.01.387.074.522.168.97.94 1.207 1.978 1.191 2.756-.016.796-.267 1.255-.125 1.29l.093.023-.008.23c-.217 6.685-3.347 12.985-8.444 17.822-5.093 4.831-12.233 8.301-20.38 9.457l-1.006.142zm20.19-9.387c5-4.743 8.023-10.756 8.2-17.28l-.002.085.087.168c-.206-.4-.059-1.11-.045-1.79.014-.682-.082-1.407-.88-2.116a.71.71 0 00-.145.056c-.221.102-.5.29-.866.583-.743.595-1.719 1.533-2.873 2.734-2.313 2.407-5.284 5.815-8.34 9.443-6.117 7.256-11.46 13.987-14.055 17.205 7.593-1.252 13.914-4.34 18.919-9.088zm7.753-23.011c-.293-.54-2.295-7.385-3.606-13.71-.655-3.164-1.147-6.236-1.166-8.333-.01-1.061.11-1.96.409-2.47.165-.283.481-.535.792-.587.293-.05.69.058 1.045.258l.168.094 3.386 26.637zm-3.111-24.263c-.14-.069-.194-.082-.323-.06-.112.019-.132.038-.226.2-.222.38-.314 1.066-.304 2.073.02 2.04.5 5.037 1.152 8.184 1.303 6.295 1.474 6.432 2.161 8.964z" fill="none"/><path d="M92.921 35.878c7.27 5.784 19.069 53.23 20.17 67.234 2.416 30.725-5.356 48.051-37.266 51.4 21.774 2.228 32.34-5.582 40.432-20.353 0 0 5.038-18.324 4.684-24.791-1.24-22.622-5.689-57.738-14.697-71.997 0 0-6.879-.545-13.323-1.493z" fill="#f9eab0"/><path d="M98.812 36.61c7.25 5.768 19.026 53.072 20.127 67.036 2.415 30.632-5.333 47.905-37.156 51.237 21.716 2.226 32.252-5.559 40.319-20.284 0 0 5.02-18.267 4.666-24.715-1.24-22.555-5.778-58.123-14.763-72.34 0 0-6.767.012-13.193-.935z" fill="#fff5ce"/><path d="M118.485 41.346c7.27 5.784 19.069 53.23 20.17 67.235 2.416 30.724-5.356 48.05-37.266 51.399 21.774 2.228 32.34-5.582 40.432-20.353 0 0 5.038-18.324 4.683-24.791-1.239-22.622-5.688-57.738-14.696-71.997 0 0-6.879-.545-13.323-1.493z" fill="#f9eab0"/><path d="M124.376 42.078c7.25 5.768 19.026 53.072 20.127 67.036 2.415 30.632-5.333 47.905-37.156 51.238 21.716 2.225 32.252-5.56 40.319-20.285 0 0 5.02-18.267 4.666-24.715-1.24-22.555-5.778-58.123-14.763-72.34 0 0-6.767.012-13.193-.934z" fill="#fff5ce"/><path d="M340.906 166.061a21.68 21.68 0 00-1.586-1.464c-6.966-5.792-11.03-14.442-11.39-24.242l-.294-8.037c-.36-9.802-4.424-18.452-11.391-24.245-7.346-6.107-16.856-8.004-26.609-6.988-19.981 2.082-32.864 8.894-41.102 27.518-2.056 4.649-2.306 5.609-3.52 10.336-4.589 17.862-2.196 27.097 3.247 35.876 1.776 2.865 4.11 5.248 6.754 7.444l19.436 16.159 6.728 5.593 9.251 7.69c11.608 9.65 35.215 7.403 46.997-6.24l1.606-1.86c10.328-11.958 10.979-28.272 1.873-37.54zm0 0" transform="matrix(-.58663 -.54267 .55723 -.5713 156.968 370.276)" fill="#af6060" stroke="#8a4b4b"/><path d="M373.13 172.516a21.68 21.68 0 00-1.586-1.464c-6.966-5.792-11.03-14.442-11.39-24.242l-.294-8.037c-.36-9.802-4.424-18.452-11.391-24.245-7.346-6.107-16.856-8.004-26.609-6.988-19.981 2.082-32.864 8.894-41.102 27.518-2.056 4.649-2.306 5.609-3.52 10.336-4.589 17.862-2.196 27.097 3.247 35.876 1.776 2.865 4.11 5.248 6.754 7.444l19.436 16.159 6.728 5.593 9.251 7.69c11.608 9.65 35.215 7.403 46.997-6.24l1.606-1.86c10.328-11.958 10.979-28.272 1.873-37.54zm0 0" transform="matrix(-.58663 -.54267 .55723 -.5713 198.348 396.537)" fill="#af6060" stroke="#8a4b4b"/><path d="M110.54 103.227c.02.558.064 1.12.139 1.686.954 7.05-1.363 14.12-6.495 19.813l-4.204 4.67c-5.132 5.695-7.448 12.764-6.496 19.815 1.004 7.435 5.202 14.137 11.886 18.44 7.615 4.9 18.89 7.307 27.84 5.097 10.314-2.548 23.954-12.364 26.899-23.668a27.264 27.264 0 00.637-10.564l-2.658-19.672-.922-6.807-1.264-9.361c-1.492-11.028-12.992-19.219-26.292-19.169-11.318 1.946-19.367 10.235-19.07 19.72zm0 0" fill="#fff7dd"/><path d="M114.808 106.687c.014.514.052 1.032.115 1.552.828 6.486-1.354 13.013-6.118 18.293l-3.903 4.33c-4.763 5.279-6.946 11.805-6.12 18.291.87 6.842 4.685 12.987 10.806 16.903 6.972 4.461 17.33 6.601 25.583 4.505 9.51-2.417 22.133-11.55 24.924-21.98a25.184 25.184 0 00.662-9.733l-2.305-18.102-.799-6.262-1.097-8.613C155.264 95.725 144.74 88.26 132.5 88.396c-10.43 1.87-17.896 9.557-17.691 18.291zm0 0" fill="#d75e72"/><path d="M357.356 110.061l2.445-.243c17.939-1.777 36.602 12.852 38.373 27.843l1.411 11.947 1.026 8.689 2.963 25.101c.405 3.413.456 6.749-.23 10.049-2.099 10.114-6.724 18.458-22.353 28.248-4.136 2.591-4.978 3.115-9.671 5.07-18.799 7.829-32.831 3.896-48.752-8.356-7.771-5.98-13.36-13.905-14.48-23.392-1.062-8.999 1.949-18.069 8.438-25.424l5.322-6.029c6.489-7.354 9.499-16.424 8.438-25.421a21.492 21.492 0 01-.142-2.154c-.219-12.991 11.488-24.371 27.212-25.928zm-15.332 29.418c.019.699.068 1.404.154 2.111 1.101 8.823-1.786 17.701-8.093 24.878l-5.167 5.886c-6.306 7.178-9.193 16.054-8.094 24.878 1.158 9.307 6.216 17.666 14.327 22.999 9.24 6.073 22.964 8.991 33.894 6.146 12.596-3.282 29.313-15.696 33.003-29.883a35.153 35.153 0 00.87-13.239l-3.067-24.621-1.062-8.518-1.459-11.717c-1.721-13.803-15.668-23.965-31.885-23.787-13.814 2.535-23.699 12.988-23.421 24.867z" fill="#af6060" stroke="#8a4b4b" transform="matrix(.8091 0 0 .78796 -165.967 -6.194)"/><path d="M123.317 144.15c-3.668 5.685-3.432 11.765.527 13.579 3.957 1.815 10.138-1.323 13.805-7.007 3.666-5.685 3.432-11.764-.527-13.58-3.958-1.815-10.138 1.323-13.805 7.008zm0 0" fill="#fbf1d1"/></svg>