<svg width="200" height="200" xmlns="http://www.w3.org/2000/svg"><path d="M115.582 162.078c0 9.988-7.622 18.105-17.085 18.262-.077 0-.152.003-.226.003-9.51.025-17.377-8.152-17.418-18.184-.018-4.455 1.48-8.538 3.979-11.715 3.55-4.508 5.38-10.241 5.38-16.094v-16.004h16.012v16.104c0 5.903 1.998 11.58 5.522 16.176 2.4 3.13 3.836 7.112 3.836 11.452z" fill="#ffdba9"/><path d="M115.582 162.078c0 9.988-7.622 18.105-17.085 18.262-.077 0-.152.003-.226.003v-61.997h7.952v16.104c0 5.903 2 11.58 5.523 16.176 2.4 3.13 3.836 7.112 3.836 11.452z" fill="#ffc473"/><path d="M102.817 114.803s3.495-40.428-10.156-94.877L76.043 24.23s9.888 39.759 10.508 85.522l16.266 5.05z" fill="#0f9887"/><path d="M89.587 113.413s-.71-39.207 16.386-90.843l16.891 6.572s-13.247 36.345-16.943 80.435l-16.334 3.836z" fill="#11a892"/><path d="M92.497 125.522s5.72-44.291 38.982-87.442l12.299 11.594s-28.143 35.168-37.554 79.856l-13.727-4.008z" fill="#00cb7e"/><path d="M106.223 129.53s-4.006-47.297-36.942-88.553l-13 10.713s27.352 32.595 33.931 77.84h16.011z" fill="#00dd7e"/></svg>