<svg width="200" height="200" xmlns="http://www.w3.org/2000/svg"><path d="M79.127 32.705a2.916 2.916 0 00-1.343 3.69c2.377 5.775 10.092 20.449 29.153 27.386 24.034 8.748 42.156-3.521 42.156-3.521s-5.996-21.047-30.03-29.795c-19.061-6.938-34.403-.657-39.936 2.24z" fill="#95d6a4"/><path d="M137.725 42.273a.342.342 0 01-.07-.024c-8.468-4.026-17.784-6.067-27.69-6.067-9.902 0-19.855 2.097-29.263 6.021 4.078 6.883 11.986 16.392 26.235 21.578 24.035 8.748 42.156-3.521 42.156-3.521s-2.628-9.217-11.368-17.987z" fill="#78c2a4"/><path d="M142.303 149.985c22.26-22.26 28.441-53.706 17.237-77.214a6.712 6.712 0 01-.076-5.667c2.885-6.357 2.473-13.113-1.667-17.253-4.144-4.143-10.908-4.553-17.269-1.66a6.71 6.71 0 01-5.664-.072c-23.503-11.173-54.922-4.984-77.167 17.26-22.26 22.26-28.441 53.705-17.237 77.214a6.71 6.71 0 01.075 5.667c-2.884 6.356-2.472 13.112 1.668 17.252 4.143 4.144 10.907 4.553 17.269 1.661a6.714 6.714 0 015.664.071c23.503 11.174 54.922 4.985 77.167-17.26z" fill="#ffe07d"/><path d="M92.385 148.807c-23.29 0-44.016-10.965-57.304-28.013.382 7.65 2.163 15.052 5.379 21.799a6.71 6.71 0 01.075 5.667c-2.884 6.357-2.472 13.113 1.668 17.253 4.143 4.143 10.907 4.552 17.269 1.66a6.714 6.714 0 015.664.071c23.503 11.174 54.922 4.985 77.167-17.26 17.887-17.887 25.39-41.706 21.834-62.573-5.395 34.777-35.464 61.396-71.752 61.396z" fill="#ffd064"/><path d="M66.819 80.957a2.921 2.921 0 001.648 3.495c6.072 2.626 23.719 8.474 44.082-1.128 20.371-9.606 27.084-26.951 28.918-33.3a2.913 2.913 0 00-1.643-3.484c-6.065-2.624-23.718-8.48-44.09 1.125-20.362 9.601-27.078 26.937-28.915 33.292z" fill="#b3e59f"/><path d="M121.28 42.407c.557.87 1.044 1.79 1.448 2.758 5.577 13.352-5.988 30.895-25.83 39.183-4.781 1.996-9.605 3.272-14.254 3.874 8.118 1.001 18.591.437 29.905-4.898 20.368-9.604 27.082-26.947 28.917-33.298a2.913 2.913 0 00-1.638-3.484c-3.272-1.415-9.92-3.773-18.547-4.135z" fill="#95d6a4"/><path d="M141.025 89.605a2.193 2.193 0 110-4.387 2.536 2.536 0 002.533-2.534 2.193 2.193 0 114.387 0 6.928 6.928 0 01-6.92 6.92zm-8.655 17.316a2.193 2.193 0 110-4.387 2.537 2.537 0 002.533-2.534 2.193 2.193 0 114.387 0 6.929 6.929 0 01-6.92 6.921zm13.382 4.169a2.193 2.193 0 110-4.387 2.536 2.536 0 002.533-2.533 2.193 2.193 0 114.387 0 6.928 6.928 0 01-6.92 6.92zm-12.21 12.867a2.193 2.193 0 110-4.387 2.536 2.536 0 002.533-2.534 2.193 2.193 0 114.387 0 6.928 6.928 0 01-6.92 6.92zm-18.644-10.503a2.193 2.193 0 110-4.387 2.537 2.537 0 002.533-2.534 2.193 2.193 0 114.387 0 6.928 6.928 0 01-6.92 6.921z" fill="#ffd064"/><path d="M139.829 46.542a41.887 41.887 0 00-1.025-.427c-9.032 1.916-28.926 7.191-45.424 18.986-.997.713-1.273 2.16-.538 3.142a2.19 2.19 0 003.032.468c16.83-12.055 38.011-17.133 45.58-18.646l.014-.047a2.91 2.91 0 00-1.64-3.476z" fill="#78c2a4"/></svg>