<svg height="512pt" viewBox="-47 0 512 512" width="512pt" xmlns="http://www.w3.org/2000/svg"><path d="M108.167 157.145c5.836-1.558 11.249-4.323 15.978-7.941 7.747-5.927 15.085-15.12 15.746-29.645 1.408-30.837-31.853-71.636-45.202-65.525-9.828 4.499-1.079 19.783-2.338 31.533-.949 8.879-11.258 13.898-19.321 9.409-10.673-5.945-18.445-21.704-28.033-16.752-13.023 6.726 1.901 56.455 28.795 73.512 12.448 7.893 24.632 8.008 34.375 5.409zm202.451 0c-5.836-1.558-11.249-4.323-15.981-7.941-7.744-5.927-15.082-15.12-15.747-29.645-1.404-30.837 31.857-71.636 45.206-65.525 9.828 4.499 1.079 19.783 2.335 31.533.949 8.879 11.258 13.898 19.321 9.409 10.676-5.945 18.448-21.704 28.036-16.752 13.02 6.726-1.901 56.455-28.795 73.512-12.448 7.893-24.632 8.008-34.375 5.409zm0 0" fill="#ff6930"/><path d="M124.148 127.615c-4.732 3.619-10.145 6.387-15.981 7.942-9.743 2.599-21.927 2.487-34.375-5.406-15.876-10.069-27.574-31.518-31.822-48.789-6.962 12.999 7.554 54.984 31.822 70.374 12.448 7.893 24.632 8.008 34.375 5.409 5.836-1.558 11.249-4.323 15.981-7.944 7.744-5.924 15.082-15.117 15.747-29.645.193-4.244-.276-8.68-1.253-13.154-2.518 9.79-8.373 16.53-14.494 21.213zm220.845 2.533c-12.448 7.896-24.632 8.008-34.375 5.409-5.836-1.558-11.249-4.323-15.981-7.942-6.121-4.683-11.976-11.426-14.494-21.213-.977 4.474-1.446 8.91-1.253 13.154.665 14.528 8.003 23.721 15.747 29.645 4.732 3.621 10.145 6.386 15.981 7.944 9.743 2.599 21.927 2.484 34.375-5.409 24.268-15.39 38.781-57.375 31.822-70.374-4.248 17.271-15.949 38.72-31.822 48.786zm0 0" fill="#ff5426"/><path d="M130.509 143.292a44.687 44.687 0 01-6.361 5.912c-4.732 3.618-10.145 6.383-15.981 7.941a45.38 45.38 0 01-3.786.841l40.293 60.065c.351-14.552 3.483-28.178 8.721-40.001zm0 0" fill="#f04424"/><path d="M144.674 218.051c.351-14.552 3.483-28.178 8.721-40.001l-10.423-15.825c-4.608 8.446-9.768 19.861-13.314 33.444zm0 0" fill="#d83d24"/><path d="M288.276 143.292a44.368 44.368 0 006.361 5.912c4.732 3.618 10.145 6.383 15.981 7.941 1.224.327 2.486.611 3.783.841l-40.293 60.065c-.348-14.552-3.48-28.178-8.721-40.001zm-143.64 77.493s-25.951-3.473-42.371 20.085c-16.421 23.558-35.005 59.695-21.175 64.978 12.235 4.674 17.578-44.929 66.444-59.859-1.879-7.965-2.898-16.427-2.898-25.204zm0 0" fill="#f04424"/><path d="M144.636 220.785s-8.68-1.149-19.172 2.424a122.968 122.968 0 002.695 31.644c5.577-3.542 11.976-6.604 19.375-8.864-1.879-7.965-2.898-16.427-2.898-25.204zm0 0" fill="#d83d24"/><path d="M155.081 291.626a54.391 54.391 0 013.239-18.542 91.85 91.85 0 01-5.956-11.993c-5.45 2.514-11.052 6.396-16.164 12.347-18.793 21.876-41.046 56.061-27.837 62.635 9.357 4.656 17.942-25.727 46.744-43.264-.007-.394-.026-.787-.026-1.183zm0 0" fill="#f04424"/><path d="M152.364 261.091c-5.45 2.514-11.052 6.396-16.164 12.347-.658.765-1.322 1.552-1.99 2.347a734.595 734.595 0 017.753 26.944c3.859-3.525 8.203-6.91 13.144-9.92-.007-.394-.026-.787-.026-1.183a54.297 54.297 0 013.243-18.542 91.18 91.18 0 01-5.96-11.993zm0 0" fill="#d83d24"/><path d="M165.109 340.345c0-4.958.825-9.723 2.325-14.177a54.308 54.308 0 01-8.99-15.674 47.376 47.376 0 00-1.19 1.613c-16.739 24.015-35.681 60.851-21.582 66.236 8.101 3.095 13.238-17.163 29.497-35.911a45.028 45.028 0 01-.06-2.087zm0 0" fill="#f04424"/><path d="M154.208 357.377c3.037-4.77 6.596-9.91 10.961-14.945a45.028 45.028 0 01-.06-2.087c0-4.958.825-9.723 2.325-14.177a54.308 54.308 0 01-8.99-15.674 47.376 47.376 0 00-1.19 1.613 255.027 255.027 0 00-9.353 14.467c2.774 12.044 4.824 22.432 6.307 30.803zm0 0" fill="#d83d24"/><path d="M274.146 220.785s25.951-3.473 42.374 20.085c16.421 23.558 35.002 59.695 21.172 64.978-12.232 4.674-17.578-44.929-66.444-59.859 1.882-7.965 2.898-16.427 2.898-25.204zm-10.442 70.841a54.394 54.394 0 00-3.243-18.542 91.354 91.354 0 005.957-11.993c5.45 2.514 11.055 6.396 16.164 12.347 18.796 21.876 41.046 56.061 27.84 62.635-9.357 4.656-17.945-25.727-46.747-43.264.01-.394.029-.787.029-1.183zm-10.028 48.719c0-4.958-.825-9.723-2.325-14.177a54.377 54.377 0 008.99-15.674c.399.527.801 1.056 1.19 1.613 16.736 24.015 35.678 60.851 21.582 66.236-8.101 3.095-13.238-17.163-29.5-35.911.032-.692.063-1.385.063-2.087zm0 0" fill="#f04424"/><path d="M274.11 218.05c-.35-14.551-3.482-28.177-8.72-40l10.42-15.825c4.608 8.446 9.77 19.86 13.313 33.444zm.035 2.735s8.68-1.15 19.176 2.424a122.977 122.977 0 01-2.695 31.644c-5.58-3.542-11.976-6.604-19.378-8.864 1.879-7.966 2.897-16.427 2.897-25.204zm-7.728 40.306c5.45 2.514 11.056 6.396 16.165 12.347a214.21 214.21 0 011.992 2.347 742.055 742.055 0 00-7.756 26.943c-3.856-3.524-8.202-6.91-13.143-9.92.01-.393.025-.786.025-1.182 0-6.51-1.145-12.755-3.239-18.542 2.233-3.755 4.223-7.77 5.956-11.993zm-1.844 96.286c-3.033-4.77-6.592-9.91-10.96-14.945.031-.692.06-1.385.06-2.087 0-4.959-.823-9.723-2.325-14.177a54.34 54.34 0 008.993-15.674 53.4 53.4 0 011.186 1.613 251.514 251.514 0 019.354 14.467c-2.771 12.043-4.821 22.432-6.308 30.803zm0 0" fill="#d83d24"/><path d="M236.69 375.257c-7.523 5.911-16.996 9.445-27.299 9.445s-19.773-3.534-27.296-9.445c-8.389 8.477-29.867 33.305-23.06 59.441 5.912 22.693 41.597 20.69 50.356-10.204 8.762 30.894 44.447 32.897 50.356 10.204 6.81-26.136-14.668-50.964-23.057-59.441zm0 0" fill="#ff6930"/><path d="M209.391 346.027c-16.901 0-31.996-7.733-41.957-19.859a44.336 44.336 0 00-2.325 14.177c0 24.499 19.827 44.357 44.282 44.357 24.458 0 44.282-19.858 44.282-44.357 0-4.958-.822-9.723-2.325-14.177-9.958 12.126-25.056 19.859-41.957 19.859zm0 0" fill="#ff6930"/><path d="M209.391 406.29c15.414 0 28.985-7.893 36.915-19.858a109.04 109.04 0 00-9.616-11.175c-7.523 5.911-16.996 9.445-27.299 9.445s-19.773-3.534-27.296-9.445a108.542 108.542 0 00-9.616 11.175c7.93 11.965 21.497 19.858 36.912 19.858zm0 0" fill="#ff5426"/><path d="M209.391 305.848c-20.751 0-39.218-12.825-51.071-32.764a54.391 54.391 0 00-3.239 18.542c0 30.044 24.316 54.401 54.31 54.401 29.997 0 54.313-24.357 54.313-54.401a54.394 54.394 0 00-3.243-18.542c-11.849 19.939-30.319 32.764-51.07 32.764zm0 0" fill="#ff6930"/><path d="M165.112 340.26c9.841 13.865 26.002 22.923 44.279 22.923 18.28 0 34.438-9.058 44.282-22.923a44.253 44.253 0 00-2.325-14.092c-9.958 12.126-25.056 19.859-41.957 19.859s-31.999-7.733-41.957-19.859a44.335 44.335 0 00-2.322 14.092zm0 0" fill="#ff5426"/><path d="M274.146 220.785c0-46.976-28.991-85.059-64.755-85.059-35.76 0-64.755 38.083-64.755 85.059 0 46.98 28.995 85.063 64.755 85.063 35.764 0 64.755-38.083 64.755-85.063zm0 0" fill="#ff6930"/><path d="M263.321 285.242a54.267 54.267 0 00-2.86-12.158c-11.849 19.939-30.319 32.764-51.07 32.764s-39.218-12.825-51.071-32.764a54.262 54.262 0 00-2.856 12.158c11.606 22.887 31.424 37.968 53.927 37.968s42.324-15.081 53.93-37.968zm0 0" fill="#ff5426"/><path d="M186.103 130.768c-3.47-3.31-7.898-4.759-12.14-3.969-4.245.786-7.785 3.712-9.708 8.023-1.598 3.579-2 7.905-1.133 12.18.867 4.271 2.929 8.141 5.811 10.888 2.85 2.719 6.346 4.18 9.854 4.18.765 0 1.531-.069 2.29-.208 8.072-1.501 12.833-10.374 10.84-20.206-.867-4.272-2.932-8.141-5.814-10.888zm68.427 4.057c-1.926-4.314-5.466-7.237-9.708-8.026-4.248-.787-8.673.659-12.143 3.969-2.882 2.75-4.944 6.616-5.811 10.891-1.996 9.829 2.768 18.705 10.84 20.203.759.139 1.525.208 2.29.208 3.508 0 7.004-1.461 9.854-4.177 2.878-2.75 4.944-6.617 5.811-10.891.867-4.275.465-8.601-1.133-12.177zm0 0" fill="#433f43"/></svg>