<svg height="464pt" viewBox="0 0 464 464.38015" width="464pt" xmlns="http://www.w3.org/2000/svg"><path d="m235.597656 264h-6.816406c-68.738281.066406-124.519531-55.601562-124.589844-124.34375-.003906-13.964844 2.351563-27.828125 6.964844-41.007812 11.066406-29.847657 33.160156-54.3125 61.730469-68.351563l59.304687-30.296875 59.300782 30.296875c28.570312 14.039063 50.664062 38.503906 61.730468 68.351563 4.613282 13.179687 6.96875 27.042968 6.96875 41.007812-.070312 68.742188-55.851562 124.410156-124.59375 124.34375zm0 0" fill="#7a432a"/><path d="m353.222656 98.648438c-6.3125-17.585938-16.734375-33.410157-30.402344-46.152344-1.992187 104.9375-90.445312 163.816406-158.175781 193.601562 19.347657 11.707032 41.527344 17.898438 64.136719 17.902344h6.816406c40.324219.078125 78.1875-19.40625 101.558594-52.265625 23.371094-32.863281 29.351562-75.019531 16.042969-113.085937zm0 0" fill="#743b20"/><path d="m176.6875 74.894531-9.640625-12.796875c5.28125-3.976562 10.902344-7.480468 16.800781-10.472656l7.277344 14.246094c-5.066406 2.582031-9.898438 5.601562-14.4375 9.023437zm0 0" fill="#884f35"/><path d="m144.191406 139.65625h-16c-.011718-11.261719 1.882813-22.449219 5.597656-33.082031 4.230469-11.921875 10.878907-22.84375 19.527344-32.078125l11.730469 10.878906c-7.152344 7.621094-12.648437 16.636719-16.152344 26.480469-3.125 8.9375-4.714843 18.335937-4.703125 27.800781zm0 0" fill="#884f35"/><g fill="#662e13"><path d="m325.070312 161.734375-15.625-3.46875c1.15625-5.171875 1.742188-10.453125 1.746094-15.753906-.550781-26.371094-14.4375-50.664063-36.882812-64.519531l7.761718-13.992188c27.613282 16.59375 44.683594 46.289062 45.121094 78.503906-.007812 6.46875-.71875 12.917969-2.121094 19.230469zm0 0"/><path d="m264.191406 152h16v16h-16zm0 0"/><path d="m224.191406 184h16v16h-16zm0 0"/></g><path d="m251.964844 256.496094 4.722656-4.71875c47.695312-47.703125 125.03125-47.703125 172.726562 0 32.601563 32.210937 43.660157 80.359375 28.375 123.566406l-20.0625 62.152344-62.191406 20.105468c-43.203125 15.292969-91.347656 4.25-123.570312-28.335937-47.726563-47.703125-47.726563-125.070313 0-172.769531zm0 0" fill="#95573a"/><path d="m251.964844 256.496094 4.722656-4.71875c47.695312-47.703125 125.03125-47.703125 172.726562 0 32.601563 32.210937 43.660157 80.359375 28.375 123.566406l-20.0625 62.152344-62.191406 20.105468c-43.203125 15.292969-91.347656 4.25-123.570312-28.335937-47.726563-47.703125-47.726563-125.070313 0-172.769531zm0 0" fill="#8f4d2e"/><path d="m437.300781 274.886719c-15.664062-15.667969-38.25-22.246094-59.878906-17.4375l-71.742187 15.941406-15.945313 71.746094c-6.257813 28.128906 6.808594 57.011719 32.070313 70.878906 25.261718 13.867187 56.648437 9.382813 77.015624-11l38.480469-38.480469c10.566407-10.539062 17.152344-24.414062 18.632813-39.261718 0-.242188.054687-.488282.074218-.730469.078126-.925781.085938-1.863281.132813-2.789063.074219-1.929687 0-3.851562 0-5.777344-.632813-16.222656-7.363281-31.609374-18.847656-43.089843zm0 0" fill="#7a3b1d"/><path d="m409.605469 370.9375-38.480469 38.476562c-25.304688 25.3125-66.339844 25.3125-91.648438 0-15.667968-15.664062-22.246093-38.25-17.4375-59.878906l15.941407-71.742187 71.746093-15.945313c21.628907-4.804687 44.214844 1.773438 59.878907 17.441406 25.3125 25.304688 25.3125 66.339844 0 91.648438zm0 0" fill="#fae998"/><path d="m409.605469 279.289062c-5.226563-5.1875-11.304688-9.4375-17.96875-12.578124-10.144531 65.921874-43.863281 121.90625-74.621094 161.097656 19.914063 2.605468 39.910156-4.195313 54.109375-18.402344l38.480469-38.476562c25.304687-25.308594 25.304687-66.335938 0-91.640626zm0 0" fill="#f5e082"/><path d="m298.527344 309.65625 11.316406-11.3125 64 64-11.3125 11.3125zm0 0" fill="#fff0a6"/><path d="m155.679688 464h-70.976563c-45.851563.800781-83.679687-35.699219-84.511719-81.550781.167969-28.1875 15-54.253907 39.144532-68.800781l80.855468-49.648438 80.855469 49.648438c24.140625 14.546874 38.972656 40.613281 39.144531 68.800781-.832031 45.851562-38.660156 82.351562-84.511718 81.550781zm0 0" fill="#fae998"/><path d="m201.046875 313.648438-4.335937-2.664063c-28.304688 91.511719-102.351563 126.863281-156.90625 140.472656 13.53125 8.222657 29.0625 12.5625 44.898437 12.542969h70.976563c45.851562.800781 83.679687-35.699219 84.511718-81.550781-.171875-28.1875-15.003906-54.253907-39.144531-68.800781zm0 0" fill="#f5e082"/><path d="m58.050781 332.183594 13.585938-8.339844 8.375 13.640625-13.585938 8.34375zm0 0" fill="#fff0a6"/><path d="m33.789062 409.65625c-4.75-8.277344-7.257812-17.65625-7.269531-27.199219.046875-15.675781 6.730469-30.597656 18.398438-41.066406l10.703125 11.890625c-13.835938 12.183594-17.179688 32.425781-8 48.414062zm0 0" fill="#fff0a6"/><path d="m112.191406 304h16v128h-16zm0 0" fill="#fff0a6"/></svg>