<svg width="200" height="200" xmlns="http://www.w3.org/2000/svg"><path d="M72.208 45.169c-19.374 8.023-43.626 27.39-32.065 60.773 11.56 33.383 39.746 40.743 59.917 57.103 14.538 11.791 23.743 16.293 35.957 11.002 14.353-6.218 28.713-47.182 7.382-91.795C124.1 41.884 94.346 36 72.208 45.17zm0 0" fill="#ffc369"/><path d="M74.635 44.235C86.597 47.767 96.777 56.008 107.4 64.64c11.546 9.382 23.48 19.045 38.763 23.859a117.204 117.204 0 00-2.765-6.247c-18.601-38.907-46.919-45.78-68.764-38.017zm45.337 108.862c-25.395-20.332-60.37-25.102-76.146-58.647-5.142-10.933-4.676-17.737-4.676-17.737-2.724 8.198-2.925 17.916.993 29.229 11.56 33.383 39.746 40.743 59.917 57.103 14.538 11.791 23.743 16.293 35.957 11.002 3.11-1.348 6.219-4.322 8.966-8.615-6.878.072-15.457-4.686-25.01-12.335zm0 0" fill="#ffaa5f"/><path d="M154.955 82.206c-6.107-14.18-33.358-67.352-90.735-44.972 35.023 1.357 52.682 39.573 88.476 47.636 1.57.354 2.895-1.185 2.26-2.664zm0 0" fill="#96cd82"/><path d="M152.696 84.87a1.972 1.972 0 002.147-.909c-8.738-9.443-54.986-57.033-90.623-46.727 35.023 1.357 52.68 39.574 88.476 47.636zm0 0" fill="#7dbe81"/><path d="M68.31 46.913a77.67 77.67 0 013.898-1.744c.298-.124.602-.234.902-.351-5.04-10.01-12.514-15.59-12.852-15.841a2.613 2.613 0 00-3.097 4.206c.07.054 6.68 5.032 11.15 13.73zm0 0" fill="#b67f5f"/><path d="M60.258 28.978a2.612 2.612 0 00-3.097 4.205c.024.018.79.6 1.961 1.684a2.646 2.646 0 002.838.5c1.74-.754 2.112-3.06.716-4.346-1.376-1.266-2.305-1.96-2.418-2.043zm0 0" fill="#a06e50"/></svg>