<svg viewBox="0 0 500 500" xmlns="http://www.w3.org/2000/svg"><path d="M162.484 88.549h-10.122V71.765h199.236v16.784h-10.121v12.559h1.872c26.36 0 47.728 18.12 47.728 40.473v236.618c0 22.353-21.368 40.472-47.728 40.472H160.613c-26.36 0-47.728-18.119-47.728-40.472V141.581c0-22.353 21.368-40.473 47.728-40.473h1.871z" stroke="#000" fill="#fff4da"/><path stroke="#000" fill="#000479" d="M152.363 71.765h199.235v20.929H152.363z"/><path fill="#fff950" d="M113.348 182.858h275.345v155.855H113.348z"/><path stroke="#000" fill="#000479" d="M139.498 215.865h223.046v89.844H139.498z"/><path d="M184.26 283.152h-14.681v-3.544l4.558-.804v-32.306l-4.558-.783v-3.585h11.95l13.161 31.132h.165l12.75-31.132h12.32v3.585l-4.579.783v32.306l4.579.804v3.544h-14.68v-3.544l4.824-.804v-29.092l-.123-.02-13.285 31.997h-3.675l-13.736-31.936-.144.02.205 17.143v11.888l4.949.804v3.544zm51.984 0h-11.703v-3.544l3.018-.433 14.29-37.045h4.744l14.044 37.045 2.998.433v3.544H251.91v-3.544l3.08-.536-2.69-7.562h-16.365l-2.792 7.562 3.1.536v3.544zm7.515-32.966l-6.119 16.689h12.977l-6.016-16.69-.328-.927h-.165l-.349.928zm42.5 32.966H271.62v-3.544l4.558-.804v-10.59l-12.566-21.964-3.367-.535v-3.585h14.085v3.585l-4.66.535 8.685 16.112.575 1.092.04-.04.555-1.052 9.096-16.112-4.825-.535v-3.585h13.818v3.585l-3.572.535-12.361 21.552v11.002l4.579.804v3.544zm29.876.597c-2.64 0-5.01-.509-7.105-1.525a15.17 15.17 0 01-5.338-4.306c-1.478-1.84-2.608-4.032-3.388-6.572-.766-2.528-1.15-5.322-1.15-8.386v-.598c0-3.035.384-5.83 1.15-8.385.78-2.54 1.91-4.74 3.388-6.594 1.466-1.868 3.244-3.31 5.338-4.326 2.095-1.004 4.464-1.504 7.105-1.504 2.792 0 5.244.5 7.35 1.504a14.404 14.404 0 015.318 4.326c1.438 1.855 2.52 4.053 3.245 6.594.726 2.555 1.088 5.35 1.088 8.385v.598c0 3.064-.362 5.858-1.088 8.386-.725 2.54-1.807 4.732-3.245 6.572a14.494 14.494 0 01-5.318 4.306c-2.106 1.016-4.558 1.525-7.35 1.525zm0-4.636c2.71 0 4.9-.673 6.57-2.019 1.684-1.345 2.916-3.235 3.696-5.666.795-2.431 1.191-5.254 1.191-8.468v-.66c0-3.187-.396-5.989-1.19-8.406-.808-2.417-2.054-4.306-3.738-5.666-1.684-1.36-3.86-2.04-6.53-2.04-2.449 0-4.529.687-6.241 2.06-1.696 1.375-2.984 3.27-3.86 5.687-.89 2.405-1.335 5.193-1.335 8.366v.659c0 3.187.446 5.996 1.335 8.427.876 2.431 2.164 4.327 3.86 5.686 1.712 1.36 3.792 2.04 6.242 2.04z" style="white-space:pre" fill="#fff"/></svg>