<svg id="Capa_1" enable-background="new 0 0 495.783 495.783" height="512" viewBox="0 0 495.783 495.783" width="512" xmlns="http://www.w3.org/2000/svg"><g><g><path d="m406.184 188.084c3.88 50.12-8.55 100.15-35.42 142.63l-83.77 132.39-12.43 17.61h-53.6l-12.17-17.61-83.77-132.39c-23.65-37.39-36.12-80.63-36.12-124.64 0-5.99.24-11.99.7-17.99.33-4.15 2.34-7.98 5.58-10.6l25.55-20.66c3.41-2.75 5.14-7.07 4.57-11.41-3.8-29.4 4.07-59.23 22.63-89.44 2.12-3.46 5.92-5.54 9.99-5.54h22.62c16.21-22.47 35.63-39.24 59.07-48.86 5.18-2.12 11.01-2.13 16.11.16 22.63 10.16 42.24 26.9 59.52 48.7h22.62c4.07 0 7.87 2.08 9.99 5.54 18.56 30.21 26.43 60.04 22.63 89.44-.57 4.34 1.16 8.66 4.57 11.41l25.55 20.66c1.62 1.31 2.93 2.92 3.88 4.73.95 1.8 1.53 3.79 1.7 5.87z" fill="#c5e97d"/></g><path d="m266.179 463.104-83.77-132.39c-23.65-37.39-36.12-80.63-36.12-124.64 0-5.99.24-11.99.7-17.99.33-4.15 2.34-7.98 5.58-10.6l25.55-20.66c3.41-2.75 5.14-7.07 4.57-11.41-3.8-29.4 4.07-59.23 22.63-89.44 2.12-3.46 5.92-5.54 9.99-5.54h12.605c6.165 0 11.968-2.835 15.83-7.64 9.572-11.908 20.206-21.945 32.024-29.861-6.407-4.324-13.087-8.075-20.045-11.198-5.1-2.29-10.93-2.28-16.11-.16-23.44 9.62-42.86 26.39-59.07 48.86h-22.62c-4.07 0-7.87 2.08-9.99 5.54-18.56 30.21-26.43 60.04-22.63 89.44.57 4.34-1.16 8.66-4.57 11.41l-25.55 20.66c-3.24 2.62-5.25 6.45-5.58 10.6-.46 6-.7 12-.7 17.99 0 44.01 12.47 87.25 36.12 124.64l83.77 132.39 12.17 17.61h53.6l1.912-2.709z" fill="#b1e254"/><g><path d="m311.042 85.947h-14.815v-16.448c0-4.142-3.357-7.5-7.5-7.5s-7.5 3.358-7.5 7.5v22.091l-28.654 54.321-5.033 8.508-4.186-8.243c-.018-.035-.035-.069-.053-.104l-28.741-54.482v-22.091c0-4.142-3.358-7.5-7.5-7.5s-7.5 3.358-7.5 7.5v16.448h-14.815c-4.142 0-7.5 3.358-7.5 7.5s3.358 7.5 7.5 7.5h17.792l27.469 52.072 8.481 16.702-5.631 9.52c-2.109 3.565-.929 8.165 2.637 10.273 1.198.709 2.513 1.046 3.811 1.046 2.564 0 5.062-1.315 6.462-3.683l.878-1.484c1.44 1.795 3.601 2.816 5.84 2.816 1.143 0 2.302-.262 3.39-.814 3.693-1.875 5.167-6.39 3.292-10.083l-3.576-7.041 9.986-16.881c.062-.105.122-.211.179-.319l27.496-52.125h17.792c4.143 0 7.5-3.358 7.5-7.5s-3.358-7.499-7.501-7.499z" fill="#e0f3b9"/><path d="m184.745 100.947h.887c1.278-4.989 2.875-9.989 4.775-15h-5.661c-4.142 0-7.5 3.358-7.5 7.5s3.357 7.5 7.499 7.5z" fill="#d8efa7"/><g><path d="m247.894 240.405c-1.955 0-3.907-.759-5.377-2.271-2.888-2.969-2.822-7.718.147-10.605l27.245-26.497 39.074-39.389c2.916-2.94 7.665-2.959 10.606-.043 2.94 2.917 2.96 7.666.042 10.606l-39.121 39.437c-.031.032-.063.063-.096.095l-27.293 26.543c-1.456 1.418-3.342 2.124-5.227 2.124z" fill="#e0f3b9"/></g><g><path d="m236.49 229.59c-1.907 0-3.814-.723-5.276-2.17l-15.888-15.728-39.17-39.485c-2.917-2.94-2.898-7.689.043-10.606 2.94-2.917 7.688-2.898 10.606.043l39.122 39.437 15.84 15.68c2.944 2.914 2.968 7.663.054 10.606-1.468 1.481-3.4 2.223-5.331 2.223z" fill="#e0f3b9"/></g><path d="m347.577 231.84h-11.119v-11.736c0-4.142-3.357-7.5-7.5-7.5s-7.5 3.358-7.5 7.5v15.822l-37.501 32.663-32.325 25.173c-3.268 2.545-3.854 7.258-1.309 10.526 1.479 1.899 3.688 2.892 5.922 2.892 1.611 0 3.234-.517 4.604-1.583l32.487-25.3c.108-.084.214-.172.317-.262l38.113-33.196h15.811c4.143 0 7.5-3.358 7.5-7.5s-3.358-7.499-7.5-7.499z" fill="#e0f3b9"/><path d="m245.294 297.473-33.308-28.749-37.656-32.798v-15.822c0-4.142-3.358-7.5-7.5-7.5s-7.5 3.358-7.5 7.5v11.736h-11.119c-4.142 0-7.5 3.358-7.5 7.5s3.358 7.5 7.5 7.5h15.811l38.138 33.218 33.333 28.771c1.417 1.223 3.161 1.822 4.897 1.822 2.105 0 4.198-.881 5.681-2.6 2.707-3.136 2.359-7.872-.777-10.578z" fill="#e0f3b9"/><path d="m140.711 239.34c0 4.142 3.358 7.5 7.5 7.5h1.672c-.882-4.963-1.597-9.958-2.156-14.976-3.915.251-7.016 3.497-7.016 7.476z" fill="#d8efa7"/><g><path d="m252.437 383.708c-2.271 0-4.513-1.026-5.988-2.977-2.499-3.304-1.846-8.008 1.458-10.506l41.113-31.089 38.169-28.954c3.299-2.504 8.005-1.857 10.508 1.442 2.503 3.3 1.857 8.005-1.443 10.508l-38.178 28.96-41.121 31.096c-1.354 1.025-2.943 1.52-4.518 1.52z" fill="#e0f3b9"/></g><g><path d="m231.4 376.224c-1.658 0-3.326-.547-4.714-1.671l-29.069-23.531-38.083-28.889c-3.3-2.503-3.946-7.208-1.442-10.508 2.503-3.3 7.209-3.945 10.508-1.442l38.177 28.96c.063.047.125.096.186.146l29.161 23.605c3.22 2.606 3.717 7.329 1.111 10.548-1.483 1.831-3.65 2.782-5.835 2.782z" fill="#e0f3b9"/></g><path d="m182.409 330.714c-3.663-5.792-7.057-11.724-10.179-17.778l-3.63-2.754c-3.298-2.503-8.005-1.858-10.508 1.442s-1.858 8.005 1.442 10.508l33.547 25.448z" fill="#d8efa7"/><path d="m286.994 451.109-4.251 29.637c-1.238 8.629-8.63 15.037-17.348 15.037h-35.002c-8.718 0-16.11-6.408-17.348-15.037l-4.251-29.637c-13.29-92.654-6.303-187.09 20.48-276.779l14.364-48.103c1.262-4.228 7.249-4.228 8.512 0l14.364 48.103c26.782 89.689 33.77 184.125 20.48 276.779z" fill="#e0f3b9"/><path d="m258.657 474.018c-8.718 0-16.11-6.408-17.348-15.037l-4.251-29.637c-13.29-92.654-6.303-187.09 20.48-276.779l1.238-4.146-6.627-22.192c-1.262-4.228-7.249-4.228-8.512 0l-14.364 48.103c-26.782 89.689-33.77 184.125-20.48 276.779l4.251 29.637c1.238 8.629 8.63 15.037 17.348 15.037h35.002c8.718 0 16.11-6.408 17.348-15.037l.965-6.729h-25.05z" fill="#d8efa7"/></g></g></svg>