<svg height="508pt" viewBox="0 0 508 508.034" width="508pt" xmlns="http://www.w3.org/2000/svg"><path d="M194.688 319.518c2.463 10.485 6.422 14.578 11.521 24.04l-14.487-.963s-144.786.006-144.786-126.556c0-105.59 101.117-124.164 142.672-113.714zm0 0" fill="#ed5031"/><path d="M189.695 128.422c-.288 1.634-1.918 3.196-3.623 3.461l-6.491 1.024c-1.707.264-2.878-.856-2.596-2.491l6.84-40.006c.283-1.633 1.924-2.975 3.655-2.975h6.294c1.735 0 2.917 1.336 2.625 2.97zm0 0" fill="#965353"/><path d="M283.828 155.227l8.975 18.292-11.118-1.657c-79.45-8.437-89.963 63.823-89.963 122.524 0 8.497 1.009 16.943 2.966 25.132l11.521 24.04c-58.414-9.409-121.521-37.118-121.521-127.519 0-63.223 62.597-114.508 116.477-114.508 34.819 0 65.413 21.46 82.663 53.696zm0 0" fill="#fe6446"/><path d="M323.919 180.631c0 1.658-1.415 3.014-3.148 3.014h-6.295c-1.73 0-3.148-1.356-3.148-3.014v-15.82c0-1.66 1.418-3.013 3.148-3.013h6.295c1.733 0 3.148 1.353 3.148 3.013zm0 0" fill="#965353"/><path d="M317.623 222.065c14.423 0 50.361 29.651 50.361 66.295 0 36.582-35.938 66.293-50.361 66.293-14.41 0-50.36-29.711-50.36-66.293 0-36.644 35.95-66.295 50.36-66.295zm0 0" fill="#6e4040"/><path d="M317.623 179.878c112.369-36.16 125.902 47.905 125.902 114.508 0 66.589-69.246 126.563-125.902 126.563-54.884 0-109.778-45.568-122.935-101.431a108.206 108.206 0 01-2.966-25.132c0-58.701 10.513-130.961 89.963-122.524 10.696 1.138 22.601 3.738 35.938 8.016zm50.361 108.482c0-36.644-35.938-66.295-50.361-66.295-14.41 0-50.36 29.651-50.36 66.295 0 36.582 35.95 66.293 50.36 66.293 14.423 0 50.361-29.711 50.361-66.293zm0 0" fill="#ffce54"/><path d="M317.623 423.962c-56.001 0-112.528-46.558-126.005-103.782a110.986 110.986 0 01-3.043-25.794c0-54.181 8.379-126.214 80.836-126.214 4.043 0 8.284.235 12.622.694 10.834 1.157 22.801 3.79 35.59 7.834 58.006-18.386 96.925-6.786 115.552 34.053 9.207 20.187 13.498 46.76 13.498 83.633 0 68.566-72.166 129.576-129.05 129.576zm-48.212-249.764c-66.81 0-74.541 68.599-74.541 120.188 0 8.208.971 16.441 2.882 24.461 12.867 54.641 66.64 99.089 119.871 99.089 54.115 0 122.754-58.173 122.754-123.55 0-51.6-7.729-120.193-74.525-120.193-13.732 0-29.613 2.875-47.227 8.545l-1.002.321-.997-.321c-12.752-4.096-24.622-6.741-35.284-7.88-4.113-.441-8.128-.66-11.931-.66zm0 0" fill="#ff4e2b"/></svg>