<svg width="200" height="200" xmlns="http://www.w3.org/2000/svg"><path d="M105.865 56.2v-5.786H57.908V56.2c0 5.017-2.09 9.662-5.497 12.218-3.408 2.556-5.498 7.2-5.498 12.218v63.34c0 5.136 3.287 9.3 7.341 9.3h55.265c4.055 0 7.342-4.164 7.342-9.3v-63.34c0-5.017-2.09-9.662-5.498-12.218-3.408-2.556-5.498-7.2-5.498-12.218z" fill="#ce8951"/><path d="M116.86 80.636v63.34c0 5.137-3.287 9.3-7.34 9.3h-8.31c4.053 0 7.34-4.163 7.34-9.3v-63.34c0-5.017-2.088-9.662-5.497-12.218-1.703-1.279-3.078-3.077-4.026-5.187-.947-2.106-1.47-4.523-1.47-7.03v-5.788h8.31v5.788c0 2.507.522 4.924 1.47 7.03.948 2.11 2.323 3.908 4.026 5.187 3.406 2.556 5.497 7.2 5.497 12.218z" fill="#c4773d"/><path d="M108.02 50.414H55.753c-.6 0-1.085-.499-1.085-1.114V35.447c0-.615.486-1.113 1.085-1.113h52.265c.6 0 1.085.498 1.085 1.113V49.3c0 .615-.486 1.114-1.085 1.114z" fill="#ffd04f"/><path d="M108.02 50.414H97.555v-16.08h10.463c.6 0 1.085.498 1.085 1.113V49.3c0 .615-.486 1.114-1.085 1.114z" fill="#f9bd16"/><path fill="#ffd04f" d="M46.912 85.193h69.947v45.498H46.912z"/><path fill="#f9bd16" d="M108.55 85.193h8.31v45.498h-8.31z"/><path d="M72.293 101.812c-1.416-.415-2.548-1.49-3.093-2.893a8.26 8.26 0 00-1.557-2.525c-2.672-2.977-6.888-3.453-9.418-1.062-2.53 2.39-2.414 6.742.258 9.719a8.043 8.043 0 002.324 1.8 4.844 4.844 0 012.555 3.4 9.67 9.67 0 002.316 4.61c3.18 3.543 8.197 4.11 11.207 1.265 3.01-2.845 2.873-8.023-.307-11.567-1.228-1.368-2.73-2.292-4.285-2.747z" fill="#eea33e"/><path d="M76.885 116.127a6.602 6.602 0 01-3.648 1.738c2.672-2.901 2.428-7.825-.632-11.236-1.229-1.37-2.73-2.292-4.286-2.747-1.417-.415-2.548-1.49-3.092-2.894a8.284 8.284 0 00-1.558-2.526c-1.654-1.842-3.897-2.725-5.966-2.564.16-.2.333-.388.52-.566 2.532-2.39 6.748-1.916 9.42 1.062A8.27 8.27 0 0169.2 98.92c.547 1.403 1.677 2.477 3.094 2.891 1.554.455 3.057 1.38 4.284 2.75 3.182 3.541 3.318 8.72.308 11.566z" fill="#df862a"/><path d="M100.37 99.684H89.629c-.938 0-1.698-.78-1.698-1.742s.76-1.743 1.698-1.743h10.74c.938 0 1.698.78 1.698 1.743s-.76 1.742-1.697 1.742zm8.734 6.26H89.63c-.938 0-1.698-.78-1.698-1.743s.76-1.742 1.698-1.742h19.475c.938 0 1.698.78 1.698 1.742s-.76 1.743-1.698 1.743zm-2.278 6.259H89.629c-.938 0-1.698-.78-1.698-1.742s.76-1.742 1.698-1.742h17.197c.938 0 1.698.78 1.698 1.742s-.76 1.742-1.698 1.742zm-8.628 6.26h-8.57c-.937 0-1.697-.78-1.697-1.742s.76-1.742 1.698-1.742h8.569c.938 0 1.698.78 1.698 1.742s-.76 1.742-1.698 1.742zM61.476 46.996c-.938 0-1.698-.78-1.698-1.742v-6.02c0-.962.76-1.741 1.698-1.741s1.698.78 1.698 1.742v6.019c0 .962-.76 1.742-1.698 1.742zm6.804 0c-.938 0-1.698-.78-1.698-1.742v-6.02c0-.962.76-1.741 1.697-1.741s1.698.78 1.698 1.742v6.019c0 .962-.76 1.742-1.698 1.742zm6.803 0c-.938 0-1.698-.78-1.698-1.742v-6.02c0-.962.76-1.741 1.698-1.741s1.698.78 1.698 1.742v6.019c0 .962-.76 1.742-1.698 1.742zm6.804 0c-.938 0-1.698-.78-1.698-1.742v-6.02c0-.962.76-1.741 1.698-1.741s1.698.78 1.698 1.742v6.019c0 .962-.76 1.742-1.698 1.742zm6.803 0c-.937 0-1.697-.78-1.697-1.742v-6.02c0-.962.76-1.741 1.697-1.741s1.698.78 1.698 1.742v6.019c0 .962-.76 1.742-1.698 1.742zm6.804 0c-.938 0-1.698-.78-1.698-1.742v-6.02c0-.962.76-1.741 1.698-1.741s1.698.78 1.698 1.742v6.019c0 .962-.76 1.742-1.698 1.742zm6.804 0c-.938 0-1.698-.78-1.698-1.742v-6.02c0-.962.76-1.741 1.698-1.741s1.698.78 1.698 1.742v6.019c0 .962-.76 1.742-1.698 1.742z" fill="#eea33e"/><path d="M138.98 145.708c-.238-19.571-10.167-37.49-18.518-37.362v61.01c9.632-.147 18.701-8.537 18.518-23.648z" fill="#692811"/><path d="M129.721 145.708c-.119-19.571-5.083-37.49-9.258-37.362l-7.798 37.362 7.798 23.649c4.815-.148 9.35-8.538 9.258-23.649z" fill="#813115"/><path fill="#934d2b" d="M127.707 143.448h4.027v4.52h-4.027z"/><path d="M101.947 146.274c.183 15.113 8.884 23.23 18.516 23.082v-61.01c-8.351.128-18.754 18.357-18.516 37.928z" fill="#a56840"/><path d="M111.205 146.274c.091 15.113 4.442 23.23 9.258 23.082v-61.01c-4.176.128-9.377 18.357-9.258 37.928z" fill="#934d2b"/><path d="M125.458 152.229c4.822-18.143 18.007-32.397 25.52-30.253l-14.364 56.735c-8.663-2.473-14.878-12.475-11.156-26.482z" fill="#813115"/><path d="M133.82 154.474c4.715-18.17 13.416-33.63 17.157-32.498l-1.753 36.635-12.61 20.1c-4.314-1.305-6.434-10.208-2.794-24.237z" fill="#934d2b"/><path d="M158.77 161.738c-3.724 14.008-13.493 19.446-22.156 16.973l14.363-56.735c7.511 2.144 12.615 21.62 7.793 39.762z" fill="#b78456"/><path fill="#692811" d="M135.107 157.063l-3.636-.976 1.064-4.203 3.635.977z"/><path fill="#b78456" d="M143.245 152.517l-3.636-.977 1.064-4.202 3.636.976z"/><path d="M150.409 159.492c-3.64 14.031-9.48 20.524-13.795 19.219l14.363-56.735c3.74 1.132 4.147 19.345-.568 37.516z" fill="#a56840"/><path d="M99.986 126.364c15.675 9.65 25.471 26.557 21.451 33.435l-49.212-29.468c4.636-7.933 15.659-11.417 27.76-3.967z" fill="#813115"/><path d="M95.643 134.059c15.731 9.552 27.856 22.332 25.794 25.74l-33.795-11.565-15.417-17.903c2.377-3.93 11.273-3.647 23.418 3.728z" fill="#934d2b"/><path d="M82.158 156.868c-12.104-7.452-14.57-18.604-9.933-26.537l49.212 29.468c-4.02 6.879-23.604 6.72-39.279-2.931z" fill="#b78456"/><path fill="#692811" d="M92.876 134.641l1.889-3.346 3.645 2.183-1.888 3.346z"/><path fill="#b78456" d="M94.946 143.936l1.888-3.346 3.646 2.183-1.889 3.346z"/><path d="M86.5 149.174c-12.146-7.376-16.653-14.912-14.275-18.843l49.212 29.468c-2.061 3.409-19.205-1.073-34.936-10.625z" fill="#a56840"/><path d="M127.72 168.083l-7.787-24.186c-4.418-2.703-9.849-3.624-15.078-2.097-6.709 1.958-10.565 7.365-12.498 12.387l6.428 20.214c4.526 3.137 10.873 5.566 17.582 3.607 5.278-1.54 9.275-5.26 11.353-9.925z" fill="#825645"/><path d="M127.72 168.083a18.449 18.449 0 01-8.885-10.684c-1.5-4.715-.97-9.532 1.098-13.502a19.633 19.633 0 018.475 10.811c1.472 4.63 1.105 9.354-.688 13.375z" fill="#fcd197"/><g fill="#683520"><path d="M98.785 174.4c-3.283-2.272-5.606-4.918-6.417-6.537-1.699-1.014-2.364-1.943-2.364-1.943s.012-1.126.832-2.876c-.269-1.778.12-5.216 1.52-8.857.002.001 1.982 3.068 1.982 3.068l3.576-.022.227 3.602 3.164 1.785-1.588 3.174 1.907 3.11-2.98 1.893.14 3.604z"/><path d="M107.26 157.549l-22.314-12.126c-4.918 1.173-9.277 4.37-11.779 9.21-3.209 6.212-2.046 12.911.161 17.958l18.593 10.191c5.298-.932 11.342-3.68 14.552-9.892 2.524-4.886 2.643-10.453.786-15.341z"/></g><path d="M107.26 157.549c-4.322 1.312-9.2.923-13.579-1.477a18.448 18.448 0 01-8.735-10.649c4.325-1.032 9.083-.497 13.387 1.862a19.626 19.626 0 018.926 10.264z" fill="#fab352"/><g fill="#825645" transform="matrix(.09366 .05134 -.04788 .09266 87.822 126.27)"><path d="M277.048 456.367c-29.032 23.406-58.908 36.954-75.585 39.666C187.892 508.613 177.799 512 177.799 512s-10.082-3.387-23.665-15.968c-16.677-2.712-46.553-16.26-75.596-39.655.011-.011 32.768-9.194 32.768-9.194l9.182-32.757 32.959 8.395 24.351-23.743 24.351 23.743 32.959-8.395 9.182 32.757 32.758 9.184z"/><circle cx="302.441" cy="315.157" r="8.44"/><circle cx="274.309" cy="337.662" r="8.44"/><circle cx="61.35" cy="275.772" r="8.44"/></g><g fill="#683520" transform="matrix(.09366 .05134 -.04788 .09266 87.822 126.27)"><circle cx="423.172" cy="232.055" r="8.44"/><circle cx="377.61" cy="186.583" r="8.44"/></g></svg>