<svg xmlns="http://www.w3.org/2000/svg" viewBox="0 0 57.634 57.634"><path d="M51.654 46.431c0 5.634-1.981 8.204-4.425 8.204s-4.425-2.569-4.425-8.204 4.386-11.796 6.83-11.796c2.444-.001 2.02 6.161 2.02 11.796zM29.326 56.89c3.106 1.01 5.897.989 6.234-.046l1.016-3.125c.337-1.035-1.908-2.693-5.015-3.703-3.106-1.01-5.897-.989-6.234.046l-1.016 3.125c-.336 1.035 1.909 2.693 5.015 3.703zM9.231 43.254c1.782 2.388 3.872 3.841 4.668 3.247l2.402-1.793c.796-.594-.004-3.011-1.786-5.399s-3.872-3.841-4.668-3.247l-2.402 1.793c-.796.595.004 3.012 1.786 5.399zm18.744-11.021c-2.305-1.888-4.684-2.796-5.313-2.027l-1.899 2.319c-.629.768.729 2.922 3.034 4.81s4.684 2.796 5.313 2.027l1.899-2.319c.629-.769-.729-2.922-3.034-4.81zM6.029 21.731c-.292 2.965.272 5.448 1.26 5.545l2.983.294c.988.097 2.026-2.227 2.319-5.192s-.272-5.448-1.26-5.545l-2.983-.294c-.988-.098-2.027 2.227-2.319 5.192z" fill="#d75a4a"/><path d="M42.804 46.431c0-4.82 3.856-10.822 5.805-11.592-6.469 1.323-13.919 3.972-17.812 2.462l-1.688 2.06c-.629.768-3.008-.139-5.313-2.027s-3.663-4.041-3.034-4.81l1.757-2.145C16.775 21.262 18.04 7.094 19.185.957c.146-.783-.755-1.289-1.262-.705-3.346 3.862-6.442 9.836-8.08 16.432l1.487.147c.988.097 1.553 2.58 1.26 5.545s-1.33 5.29-2.319 5.192l-1.627-.16c.102 2.91.584 5.792 1.54 8.53.953-.107 2.759 1.267 4.329 3.37 1.782 2.388 2.582 4.805 1.786 5.399l-.421.314c2.361 2.344 5.37 4.377 9.148 5.96l.299-.92c.337-1.035 3.128-1.056 6.234-.046s5.351 2.668 5.015 3.703l-.085.263c3.235.448 6.805.677 10.739.652-2.443.001-4.424-2.568-4.424-8.202z" fill="#ed7161"/><path d="M33.608 55.586a.998.998 0 01-.54-.159c-1.584-1.021-3.645-1.624-6.125-1.794a1.002 1.002 0 01-.93-1.066 1.015 1.015 0 011.066-.93c2.821.194 5.2.903 7.07 2.108a1 1 0 01-.541 1.841zM13.7 44.765a1 1 0 01-.909-.582c-.787-1.711-1.748-3.153-2.858-4.287a1 1 0 111.43-1.398c1.271 1.298 2.363 2.93 3.245 4.85a.999.999 0 01-.908 1.417zm13.59-7.437a.996.996 0 01-.552-.167c-1.38-.916-2.683-2.112-3.874-3.559A.998.998 0 0123 32.195a.997.997 0 011.407.136c1.065 1.293 2.222 2.357 3.437 3.164a.999.999 0 01-.554 1.833zM9.046 25.934a1 1 0 01-.958-1.288c.564-1.873.801-3.602.705-5.139a1.001 1.001 0 011.997-.125c.111 1.774-.153 3.739-.785 5.84a1.003 1.003 0 01-.959.712z" fill="#e87474"/></svg>