<svg width="200" height="200" xmlns="http://www.w3.org/2000/svg"><g transform="matrix(1 0 0 1.05738 -200 -633.833)"><path d="M266.443 735.785c10.589 8.073 16.277 18.977 14.791 21.215-1.487 2.237-12.967.052-23.556-8.021-10.59-8.073-16.277-18.977-14.791-21.215 1.487-2.237 12.967-.052 23.556 8.021z" fill="#006539"/><path d="M281.234 757c-1.487 2.238-12.967.053-23.556-8.02-10.59-8.074-16.277-18.978-14.791-21.215L281.234 757z" opacity=".1"/><path d="M336.771 720.756c7.536-11.344 17.715-17.438 19.803-15.845 2.089 1.592.049 13.891-7.487 25.235-7.536 11.344-17.714 17.437-19.803 15.845-2.088-1.593-.049-13.892 7.487-25.235z" fill="#006539"/><path d="M356.575 704.911c2.088 1.592.049 13.891-7.487 25.235-7.536 11.344-17.715 17.437-19.804 15.845l27.291-41.08z" opacity=".1"/><path d="M341.877 710.459c-1.08 13.876-6.934 24.679-9.488 24.451-2.555-.229-6.657-11.921-5.577-25.797 1.081-13.875 6.934-24.678 9.488-24.45 2.555.228 6.657 11.921 5.577 25.796z" fill="#00a155"/><path d="M332.389 734.91c-2.555-.229-6.657-11.921-5.577-25.797 1.08-13.875 6.934-24.678 9.488-24.45l-3.911 50.247z" opacity=".1"/><path d="M276.274 731.429c-14.403 0-26.121-12.553-26.121-27.983 0-15.429 11.718-27.982 26.121-27.982 14.403 0 26.12 12.553 26.12 27.982 0 15.43-11.717 27.983-26.12 27.983zm0-44.558c-8.532 0-15.473 7.436-15.473 16.575 0 9.14 6.941 16.576 15.473 16.576 8.531 0 15.472-7.436 15.472-16.576 0-9.139-6.94-16.575-15.472-16.575z" fill="#54c7d8"/><path d="M276.274 731.43c-14.403 0-26.121-12.554-26.121-27.984s11.718-27.982 26.12-27.982 26.121 12.553 26.121 27.982-11.717 27.983-26.12 27.983zm0-44.559c-8.532 0-15.473 7.436-15.473 16.575 0 9.14 6.94 16.576 15.473 16.576s15.472-7.436 15.472-16.576-6.94-16.575-15.472-16.575z" fill="#54c7d8"/><path d="M274.701 675.516c-4.362.279-8.44 1.708-11.97 4.01 1.119 2.037 3.185 3.405 5.551 3.405 3.556 0 6.439-3.088 6.439-6.897 0-.175-.008-.347-.02-.518z" opacity=".2" fill="#fff"/><path d="M278.388 675.556v11.473c7.534 1.109 13.358 8.046 13.358 16.417 0 9.14-6.94 16.576-15.472 16.576-5.985 0-11.184-3.662-13.756-9.002a24.073 24.073 0 00-1.332 3.685 67.763 67.763 0 00-1.907 9.973c4.572 4.206 10.511 6.751 16.995 6.751 14.403 0 26.121-12.553 26.121-27.983 0-14.667-10.589-26.734-24.007-27.89z" opacity=".1"/><path d="M314.612 652.134h-28.694v-14.766c0-1.138.861-2.06 1.923-2.06h24.848c1.062 0 1.923.922 1.923 2.06v14.766z" fill="#c39774"/><circle cx="224.654" cy="28.943" r="8.173" transform="matrix(.23046 0 0 .24689 241.002 635.308)" opacity=".15"/><path d="M296.233 635.308c0 1.114.843 2.018 1.883 2.018 1.041 0 1.884-.904 1.884-2.018h-3.767z" opacity=".15"/><circle cx="292.816" cy="18.525" r="8.173" transform="matrix(.23046 0 0 .24689 241.002 635.308)" opacity=".15"/><path opacity=".15" d="M285.918 642.454h28.695v9.68h-28.695z"/><path d="M316.996 688.141v-37.005h-33.462v37.006c0 5.325-2.686 10.235-7.023 12.836-4.945 2.965-8.601 7.896-10.179 13.727a68.21 68.21 0 00-.436 33.833c1.707 7.028 7.63 11.934 14.409 11.934h39.92c6.779 0 12.702-4.906 14.409-11.934a68.21 68.21 0 00-.437-33.833c-1.577-5.831-5.233-10.762-10.178-13.727-4.337-2.602-7.023-7.511-7.023-12.837z" fill="#54c7d8"/><path opacity=".1" d="M283.534 651.136h33.461v12.041h-33.461z"/><path d="M325.699 646.161h-40.718c-2.565 0-4.644 2.227-4.644 4.975 0 2.747 2.079 4.975 4.644 4.975h32.015v6.781l10.1-13.632c.929-1.252.096-3.099-1.397-3.099z" fill="#54c7d8"/><path d="M334.198 714.705c-1.578-5.831-5.234-10.762-10.178-13.727-4.338-2.601-7.024-7.511-7.024-12.836v-3.482h-33.462v3.482c0 5.325-2.686 10.235-7.023 12.836-4.945 2.965-8.601 7.896-10.179 13.727a68.21 68.21 0 00-.436 33.833c1.707 7.028 7.63 11.934 14.409 11.934h39.92c6.779 0 12.702-4.906 14.409-11.934a68.221 68.221 0 00-.436-33.833z" fill="#fdd05f"/><path d="M324.37 756.032h-39.92c-6.779 0-12.702-4.906-14.409-11.935a68.21 68.21 0 01.437-33.833 23.755 23.755 0 013.527-7.523c-3.67 2.985-6.375 7.169-7.673 11.964a68.21 68.21 0 00-.436 33.833c1.707 7.029 7.63 11.935 14.409 11.935h39.92c5.09 0 9.697-2.766 12.399-7.12-2.383 1.702-5.233 2.679-8.254 2.679z" opacity=".1"/><g transform="matrix(.23046 0 0 .24689 241.002 635.308)" fill="#fff"><path d="M367.512 43.959h-55.64c7.755 14.402 22.969 24.192 40.472 24.192 4.743 0 9.318-.72 13.622-2.054l7.607-9.583c4.029-5.074.416-12.555-6.061-12.555z" opacity=".3"/><circle cx="283.63" cy="395.87" r="27.936" opacity=".35"/><path d="M404.387 321.588a93.569 93.569 0 00-44.164-55.6 59.574 59.574 0 01-27.595-33.703c-20.898 12.19-34.954 34.832-34.954 60.77 0 38.836 31.483 70.319 70.319 70.319 16.071 0 30.874-5.403 42.717-14.476a258.721 258.721 0 00-6.323-27.31z" opacity=".35"/></g><ellipse transform="rotate(-126.566 368.616 365.825) skewX(3.84)" cx="85.397" cy="103.854" rx="18.488" ry="15.509" fill="#69a100"/><path d="M334.249 754.398c-6.536 5.564-16.766 3.426-22.849-4.775-2.869-3.868-4.301-8.394-4.33-12.681-1.225 5.381.042 11.729 3.879 16.902 6.082 8.201 16.312 10.339 22.849 4.774 3.454-2.939 5.184-7.441 5.152-12.243-.717 3.15-2.287 5.968-4.701 8.023z" opacity=".1"/><path d="M324.57 726.451a7.868 7.868 0 00-.451.354c-3.316 2.822-3.868 7.99-1.234 11.542 2.635 3.552 7.458 4.144 10.774 1.321a8.185 8.185 0 002.454-3.678 22.368 22.368 0 00-1.492-2.295c-2.746-3.702-6.337-6.163-10.051-7.244z" opacity=".2" fill="#fff"/></g></svg>