<svg height="200" width="200" xmlns="http://www.w3.org/2000/svg"><path d="M120.437 54.184l-14.302 2.024-38.377 67.027a48.18 48.18 0 01-9.032 11.363l-33.462 31.121 52.671-9.162c14.828-2.578 27.085-9.438 35.21-19.707l39.028-49.312-4.011-14.486zm0 0" fill="#93d632"/><path d="M148.162 73.052l-13.415-9.13-63.881 93.865 7.07-1.23c14.827-2.578 27.081-9.438 35.21-19.707l39.024-49.312zm-4.002-41.775l16.61 11.303-14.07 20.672-16.608-11.303zm0 0" fill="#78b22a"/><path d="M152.912 37.233l7.857 5.347L146.7 63.252l-7.857-5.348zm0 0" fill="#679c20"/><path d="M126.382 58.23l-9.933 4.997-40.826 65.361a94.285 94.285 0 01-5.052 7.308c-2.117 2.77-4.787 5.115-7.89 7.005L25.265 165.72l44.82-10.306c3.411-.785 6.53-2.05 9.243-3.774 8.64-5.497 16.629-13.057 23.21-22.009l37.179-50.568.678-11.296zm0 0" fill="#78b22a"/><path d="M140.394 67.766l-5.647-3.843-61.698 90.656c2.266-.75 4.372-1.73 6.278-2.94 8.64-5.497 16.629-13.057 23.21-22.009l37.18-50.57zm0 0" fill="#679c20"/><g fill="#78b22a"><path d="M126.76 44.896l27.724 18.867-6.322 9.29-27.723-18.868zm0 0"/><path d="M141.069 54.634l13.415 9.13-6.322 9.288-13.415-9.13zm0 0"/></g></svg>