<svg width="200" height="200" xmlns="http://www.w3.org/2000/svg"><g transform="translate(29.623 23.076) scale(.28832)"><path d="M57.004 53.599c14.217 47.842 40.208 92.932 77.979 130.702s82.86 63.762 130.702 77.979c-14.218-47.841-40.208-92.932-77.979-130.702s-82.86-63.761-130.702-77.979z" fill="#58b741"/><path d="M265.687 275.78a312.104 312.104 0 01-16.7-15.46 307.98 307.98 0 01-44.83-56.67c-10.08-16.35-18.76-33.88-25.85-52.49-19.01-49.91-24.29-101.69-17.69-151.16 34.42 29.6 62.78 67.17 81.93 111.29 1.91 4.38 3.72 8.82 5.44 13.33 13.13 34.45 19.71 69.78 20.35 104.63.301 15.65-.61 31.2-2.65 46.53z" fill="#70d65b"/><path d="M268.338 229.25a306.527 306.527 0 01-19.35 31.07 307.98 307.98 0 01-44.83-56.67c3.1-13.09 7.1-26.12 12.02-39.03 7.21-18.93 16.07-36.74 26.37-53.33 1.91 4.38 3.72 8.82 5.44 13.33 13.13 34.45 19.709 69.78 20.35 104.63z" fill="#58b741"/><path d="M444.37 93.596c-12.51 42.08-34.13 82.04-64.87 116.76-4.19 4.75-8.56 9.4-13.11 13.94-31.9 31.9-69.03 55.41-108.62 70.51-7.28 2.77-14.65 5.26-22.08 7.47 4.66-15.7 10.59-31.1 17.8-46.05a308.26 308.26 0 0138.61-60.75c6.69-8.24 13.88-16.22 21.56-23.9 6.91-6.91 14.07-13.43 21.45-19.55 6.19-5.14 12.54-10.01 19.03-14.6a308.122 308.122 0 0190.23-43.83z" fill="#70d65b"/><path d="M354.14 137.425a310.624 310.624 0 01-10.58 33.24c-.19.5-.38.99-.58 1.48-15.14 39.18-37.39 73.53-64.71 102.16a307.339 307.339 0 01-22.08 20.97 307.621 307.621 0 01-2.7-39.05 308.26 308.26 0 0138.61-60.75c6.69-8.24 13.88-16.22 21.56-23.9 6.91-6.91 14.07-13.43 21.45-19.55a310.322 310.322 0 0119.03-14.6z" fill="#58b741"/><path d="M335.108 152.03a312.734 312.734 0 01-12.05 39.14c-.19.5-.38.99-.58 1.48-15.14 39.18-37.39 73.53-64.71 102.16a307.339 307.339 0 01-22.08 20.97c-3.47-26-3.66-52.63-.3-79.29 3.04-24.08 8.97-48.19 17.99-71.87 19.02-49.92 49.54-92.08 87.38-124.62 4.88 36.64 3.26 74.55-5.65 112.03z" fill="#70d65b"/><path d="M379.497 210.36c-4.19 4.75-8.56 9.4-13.11 13.94-31.9 31.9-69.03 55.41-108.62 70.51a307.339 307.339 0 01-22.08 20.97c-3.47-26-3.66-52.63-.3-79.29 7.93-12.33 18.39-22.76 31.27-30.47a94.153 94.153 0 0125.44-10.54c9.84-2.47 20.05-3.39 30.38-2.83 19.191 1.03 38.77 7.15 57.02 17.71z" fill="#58b741"/><ellipse transform="rotate(30.922 138.048 352.701)" cx="138.054" cy="352.714" rx="114.679" ry="142.138" fill="#654b87"/><path d="M64.365 474.252c-53.78-32.798-64.87-113.393-24.69-180.469s116.467-95.318 170.76-63.378c-28.158-15.713-82.96 25.178-122.986 91.996C47.423 389.22 37.225 456.84 64.365 474.252z" fill="#463068"/><ellipse transform="rotate(-30.922 350.11 352.7)" cx="350.121" cy="352.714" rx="114.679" ry="142.138" fill="#654b87"/><path d="M276.433 231.176c-53.78 32.798-64.87 113.393-24.69 180.469s116.467 95.318 170.76 63.378c-28.158 15.713-82.96-25.178-122.986-91.996-40.026-66.819-50.225-134.44-23.084-151.851zM416.35 454.885c-3.283 0-6.245-2.217-7.184-5.356-.896-2.993.234-6.383 2.781-8.207 5.552-3.977 13.379 1.216 11.671 7.909-.84 3.286-3.873 5.654-7.268 5.654zm-335.05 0c-3.013 0-5.76-1.862-6.92-4.63-1.243-2.966-.375-6.519 2.079-8.592 5.177-4.372 13.227.122 12.261 6.829-.524 3.636-3.763 6.393-7.42 6.393z" fill="#463068"/></g></svg>