<svg width="200" height="200" xmlns="http://www.w3.org/2000/svg"><path d="M99.436 170.974h-2.967c-40.562 0-80.383-32.72-73.21-71.513 5.373-29.258 39.757-49.926 60.83-70.658h15.347z" fill="#fce9cc"/><path d="M99.189 160.682h-2.473c-34.38 0-68.511-27.972-62.327-60.956 5.543-30.044 45.273-49.272 60.569-70.8h4.23z" fill="#fadbb7"/><path d="M99.189 34.282c-7.42 20.848-46.004 37.736-50.95 65.707-4.947 27.708 22.012 51.193 49.219 51.193h1.978v-116.9h-.247z" fill="#fcc78a"/><path d="M99.189 54.602c-4.947 14.776-32.648 26.651-36.111 46.706C59.617 121.1 78.66 137.46 97.952 137.46h1.237V54.602z" fill="#dbad78"/><path d="M99.189 75.976c-2.473 8.972-19.786 16.097-21.765 28.235-1.978 11.875 9.399 21.902 21.023 21.902h.742V75.976z" fill="#d59852"/><path d="M175.119 99.461c7.173 38.792-32.648 71.513-73.21 71.513h-2.967V28.804h15.347c21.073 20.731 55.457 41.4 60.83 70.657z" fill="#d59852"/><path d="M140.988 99.461c3.957 38.792-18.056 71.513-40.315 71.513h-1.484V28.897h8.153c11.535 20.701 30.686 41.35 33.646 70.564z" fill="#dbad78"/><path d="M114.276 99.461c1.485 38.792-6.431 71.513-14.593 71.513h-.494V28.897h3.226c4.244 20.701 10.75 41.35 11.86 70.564z" fill="#fcc78a"/></svg>