<svg width="200" height="200" xmlns="http://www.w3.org/2000/svg"><g transform="translate(1.877 -.707)"><path d="M62.24 90.961a52.76 52.76 0 01-.164-4.187c0-29.284 23.739-49.799 53.024-49.799 29.282 0 53.023 20.515 53.023 49.799 0 24.935-17.217 45.855-40.412 51.515" fill="#ffa91f"/><path d="M82.224 90.961a53.238 53.238 0 01-.164-4.187c0-25.867 18.525-44.891 43.031-48.978a60.799 60.799 0 00-9.991-.821c-29.285 0-53.024 20.516-53.024 49.799 0 1.409.054 2.805.164 4.187l41.255 49.321c4.59-1.12-2.643-15.585 1.392-17.813L82.224 90.961z" fill="#e2901a"/><path d="M28.123 110.876c0 29.582 23.982 53.563 53.564 53.563s53.563-23.981 53.563-53.563" fill="#ffa91f"/><path d="M118.253 50.351a3.315 3.315 0 10-6.631 0c0 1.832 1.485 1.705 3.315 1.705 1.832 0 3.316.127 3.316-1.705z" fill="#b25719"/><path d="M46.284 110.876H28.123c0 29.582 23.982 53.563 53.564 53.563 3.096 0 6.129-.266 9.081-.77-25.257-4.314-44.484-26.306-44.484-52.793z" fill="#e2901a"/><ellipse cx="81.689" cy="110.877" rx="53.565" ry="21.367" fill="#fce275"/><path d="M59.928 96.375l19.862 11.076V94.347c-6.898.11-13.656.81-19.862 2.028zm19.862 31.03V114.3l-19.863 11.076c6.206 1.218 12.965 1.919 19.863 2.028zm3.795-33.058v13.105l19.864-11.077c-6.207-1.219-12.966-1.919-19.864-2.028zm6.143 14.413h40.343c-1.464-2.064-4.82-4.92-10.828-7.595-2.94-1.309-6.238-2.448-9.794-3.402l-19.721 10.996zm-16.078 0L53.927 97.761c-3.557.955-6.856 2.094-9.796 3.403-6.009 2.675-9.364 5.53-10.828 7.594h40.345zm-.003 4.233H33.304c1.464 2.063 4.82 4.919 10.828 7.594 2.94 1.308 6.238 2.447 9.795 3.402l19.72-10.996zm16.083 0l19.72 10.995c3.555-.954 6.853-2.093 9.792-3.401 6.01-2.675 9.364-5.53 10.828-7.594H89.73zm-6.145 1.307v13.104c6.898-.108 13.658-.81 19.864-2.028l-19.864-11.077z" fill="#ffc522"/><path d="M121.546 48.74c.164.331.197.767.092 1.175a3.212 3.212 0 01-.554 1.102c-.496.655-1.142 1.135-1.813 1.507-1.356.744-2.857 1.037-4.333 1.05-1.477-.009-2.979-.302-4.334-1.046-.671-.371-1.318-.852-1.814-1.507a3.216 3.216 0 01-.554-1.104c-.105-.409-.071-.845.095-1.177.19.333.428.541.668.701.264.15.506.266.788.348.54.173 1.103.278 1.675.354.573.072 1.148.125 1.728.16.582.028 1.164.04 1.749.049a45.95 45.95 0 001.749-.046c.58-.035 1.157-.085 1.73-.159a9.456 9.456 0 001.675-.355 3.6 3.6 0 00.788-.35c.238-.16.476-.37.665-.703zm24.496 66.561c-.985 0-1.805-.847-1.771-1.83.034-.986.9-1.78 1.888-1.713a1.79 1.79 0 011.652 1.87 1.793 1.793 0 01-1.77 1.673zm-96.055 25.987a1.79 1.79 0 01-1.773-1.773c.002-1.036.93-1.872 1.96-1.76.945.103 1.66.958 1.579 1.91a1.787 1.787 0 01-1.766 1.623zM102.41 72.11c-1.01 0-1.83-.884-1.769-1.89a1.785 1.785 0 011.857-1.653 1.79 1.79 0 011.681 1.653c.069 1.005-.762 1.89-1.768 1.89zm8.075 69.178a1.79 1.79 0 01-1.77-1.673 1.789 1.789 0 011.71-1.87 1.79 1.79 0 011.832 1.72 1.79 1.79 0 01-1.772 1.823zm-23.108 13.086c-1.038 0-1.88-.939-1.76-1.972a1.79 1.79 0 011.948-1.56 1.784 1.784 0 011.584 1.71 1.79 1.79 0 01-1.772 1.822zm23.108-5.869a1.795 1.795 0 01-1.77-1.677 1.79 1.79 0 011.595-1.861 1.792 1.792 0 011.945 1.662c.058.999-.767 1.876-1.77 1.876zm40.75-74.462c-.963 0-1.776-.807-1.773-1.773a1.79 1.79 0 011.492-1.75c.97-.16 1.909.544 2.037 1.518.138 1.044-.702 2.005-1.756 2.005zm-7.04 7.091c-1.007 0-1.838-.881-1.77-1.889.068-.989.965-1.754 1.954-1.646.91.1 1.619.899 1.587 1.82a1.792 1.792 0 01-1.771 1.715z" fill="#e2901a"/></g></svg>