<?xml version="1.0" encoding="iso-8859-1"?>
<!-- Generator: Adobe Illustrator 19.0.0, SVG Export Plug-In . SVG Version: 6.00 Build 0)  -->
<svg version="1.1" id="Layer_1" xmlns="http://www.w3.org/2000/svg" xmlns:xlink="http://www.w3.org/1999/xlink" x="0px" y="0px"
	 viewBox="0 0 511.995 511.995" style="enable-background:new 0 0 511.995 511.995;" xml:space="preserve">
<path style="fill:#434A54;" d="M164.178,371.204c0,5.89-4.766,10.655-10.656,10.655c-5.891,0-10.672-4.766-10.672-10.655
	c0-5.891,4.781-10.672,10.672-10.672C159.412,360.532,164.178,365.313,164.178,371.204z"/>
<path style="fill:#965353;" d="M130.944,81.883C-50.239,78.602,9.4,291.347,9.4,352.064S-8.396,430.64,28.603,430.14
	c106.294-1.453,108.888-69.062,160.684-76.873c197.894-29.828,294.58-134.92,321.563-227.604
	C526.927,70.43,369.181,86.586,319.886,92.43C256.536,99.945,197.802,83.086,130.944,81.883z"/>
<path style="fill:#7F4545;" d="M309.229,243.723c-2.062-25.016-1.328-51.373,2.219-78.326c4.703-35.765,13.141-63.217,16.766-73.92
	c-3.031,0.328-5.828,0.656-8.328,0.953c-4.969,0.594-9.906,1.016-14.828,1.328c-4.406,14.422-10.719,38.437-14.688,68.248
	c-3.781,28.547-4.609,56.498-2.438,83.107c2.281,27.875,7.859,54.326,16.625,78.842c6.781-2.547,13.375-5.219,19.797-7.984
	C316.433,293.534,311.339,269.301,309.229,243.723z"/>
<g style="opacity:0.1;">
	<path style="fill:#FFFFFF;" d="M130.944,103.21c66.858,1.203,125.591,18.062,188.941,10.547
		c43.342-5.125,170.48-18.234,189.667,16.187c0.453-1.422,0.891-2.859,1.297-4.281C526.926,70.43,369.18,86.586,319.885,92.43
		c-63.35,7.515-122.083-9.344-188.941-10.547C16.307,79.805-1.927,164.209,0.15,241.863
		C2.213,170.865,26.759,101.335,130.944,103.21z"/>
</g>
<g>
</g>
<g>
</g>
<g>
</g>
<g>
</g>
<g>
</g>
<g>
</g>
<g>
</g>
<g>
</g>
<g>
</g>
<g>
</g>
<g>
</g>
<g>
</g>
<g>
</g>
<g>
</g>
<g>
</g>
</svg>
