<svg height="512" viewBox="0 0 128 128" width="512" xmlns="http://www.w3.org/2000/svg"><circle cx="66.728" cy="64" r="37.114" transform="matrix(.38276 -.92385 .92343 .38294 -18.679 101.268)" fill="#9cbde3"/><circle cx="66.728" cy="64" fill="#dbe2eb" r="30.553" transform="matrix(.38276 -.92385 .92343 .38294 -18.679 101.268)"/><path d="M96.472 64.12a30.536 30.55 0 01-56.761 15.649 30.536 30.55 0 0047.188-37.866 30.45 30.463 0 019.573 22.216z" fill="#c1cdd3" opacity=".25"/><path d="M115.641 24.407a1.608 1.61 0 00-2.6-1.226c-2.946 2.282-7.36 7.676-7.049 19.397.325 12.241.195 20.615.084 24.537a4.306 4.308 0 002.145 3.842l.289.168a4.318 4.32 0 012.143 3.936l-1.223 26.195a3.96 3.962 0 107.914.098zM30.106 42.15l-2.137-17.434c-.107-.767-.973-1.392-1.645-1.689a.65.65 0 00-.887.615v17.98h-3.5l-.6-17.401a1.292 1.293 0 00-2.583 0l-.6 17.402h-3.439v-17.98a.65.65 0 00-.886-.616c-.672.297-1.595.924-1.703 1.69L9.98 42.126a3.3 3.3 0 00.487 2.222l5.897 9.301L14.91 98.8a5.082 5.084 0 004.472 5.288 4.95 4.953 0 005.409-5.075l-1.434-44.425 6.3-10.251a3.303 3.305 0 00.449-2.186z" fill="#dbe2eb"/><path d="M66.642 85.424c-.177.247-.609 1.864-.654 1.776-.074.196-.5-1.494-.663-1.724-1.283-1.791-2.588-3.586-4.118-5.157-4.538-4.659-11.748-8.401-15.272-14.139-4.066-6.62-.577-21.465 8.787-19.217 5.327 1.279 9.164 3.868 11.299 6.152 2.156-2.252 5.95-4.77 11.179-6.026 9.365-2.248 12.853 12.595 8.787 19.216-3.523 5.739-10.734 9.481-15.271 14.139-1.53 1.571-2.792 3.187-4.074 4.98z" fill="#ff9898"/></svg>