<svg width="200" height="200" xmlns="http://www.w3.org/2000/svg"><path d="M53.477 136.526a4.743 4.743 0 013.5 1.074c.612.503 1.53 1.005 2.901 1.426 4.802 1.473 36.786-4.921 46.638-37.023 8.335-27.162-3.308-44.245-6.849-66.946-.884-5.676-5.686-7.15-10.488-8.623-4.801-1.473-9.602-2.948-13.518 1.254-15.666 16.808-34.888 24.419-43.224 51.58-9.852 32.102 13.037 55.337 17.839 56.811 1.372.42 2.413.52 3.201.447zm0 0" fill="#c8e682"/><path d="M75.661 27.688c-15.666 16.808-34.888 24.419-43.224 51.58-9.852 32.102 13.037 55.337 17.839 56.811 1.372.42 2.413.52 3.201.447L89.18 26.434c-4.801-1.473-9.602-2.948-13.518 1.254zm0 0" fill="#96cd82"/><path d="M80.724 29.242C69.109 47.292 56.396 56.9 48.06 84.063c-9.427 30.714.508 50.015 3.817 52.376.614.093 1.16.128 1.6.087a4.743 4.743 0 013.5 1.074c.34.28.79.56 1.347.824 3.998-.046 23.118-10.425 32.568-41.216 8.337-27.161 3.201-42.247 3.712-63.706.128-5.364-2.648-6.216-5.425-7.068-2.775-.852-5.551-1.705-8.455 2.808zm0 0" fill="#afdc82"/><path d="M129.425 174.556a4.74 4.74 0 013.66 0c.733.301 1.758.512 3.193.512 5.022 0 33.722-15.498 33.722-49.077 0-28.413-16.144-41.327-26.188-61.991-2.512-5.166-7.534-5.166-12.557-5.166-5.022 0-10.045 0-12.556 5.166-10.046 20.664-26.189 33.578-26.189 61.99 0 33.579 28.699 49.077 33.722 49.077 1.435 0 2.46-.211 3.192-.512zm0 0" fill="#ffc369"/><path d="M155.471 124.216c0-20.061-10.842-36.323-24.216-36.323s-24.216 16.262-24.216 36.323c0 20.06 10.842 36.323 24.216 36.323s24.216-16.263 24.216-36.323zm0 0" fill="#ffaa5f"/><path d="M131.255 90.314a2.42 2.42 0 00-2.421 2.422v4.842h4.843v-4.842a2.422 2.422 0 00-2.422-2.422zm0 0" fill="#ffc369"/><path d="M131.255 95.157c-9.361 0-16.95 14.529-16.95 29.48 0 16.072 9.33 27.276 15.273 35.824a2.032 2.032 0 001.677.882 2.03 2.03 0 001.677-.882c5.944-8.548 15.275-19.752 15.275-35.825-.002-14.95-7.59-29.48-16.952-29.48zm0 0" fill="#785353"/><g fill="#6e4848"><path d="M140.941 146.01c-12.036 0-21.794-14.094-21.794-31.481 0-4.697.74-9.195 2.017-13.198-4.151 5.625-6.86 14.407-6.86 23.305 0 16.073 9.33 27.277 15.274 35.825a2.03 2.03 0 001.677.882 2.03 2.03 0 001.677-.882c2.881-4.144 6.572-8.93 9.597-14.574-.521.052-1.059.122-1.588.122zm0 0"/><path d="M123.993 131.582a2.419 2.419 0 01-2.15-1.303l-1.21-2.322a2.42 2.42 0 114.294-2.237l1.21 2.322a2.42 2.42 0 01-2.144 3.54zm4.843-8.982c-.833 0-1.644-.43-2.095-1.2a2.425 2.425 0 01.873-3.313l2.421-1.413a2.43 2.43 0 013.313.873 2.426 2.426 0 01-.873 3.313l-2.421 1.412a2.426 2.426 0 01-1.218.329zm0 0"/></g><path d="M126.109 114.378a2.412 2.412 0 01-1.79-.793l-1.01-1.109a2.42 2.42 0 013.58-3.259l1.01 1.11c.902.989.83 2.518-.16 3.42a2.409 2.409 0 01-1.63.63zm7.917-5.248c-.437 0-.882-.118-1.28-.368l-.806-.505a2.418 2.418 0 01-.77-3.334 2.416 2.416 0 013.334-.77l.806.503a2.417 2.417 0 01.771 3.335 2.419 2.419 0 01-2.055 1.14zm0 0" fill="#8c5a5a"/><path d="M140.537 121.995a2.425 2.425 0 01-2.284-1.615l-.606-1.715a2.425 2.425 0 011.478-3.09 2.432 2.432 0 013.091 1.477l.605 1.715a2.425 2.425 0 01-2.284 3.228zm0 0" fill="#6e4848"/><path d="M137.46 131.631a2.422 2.422 0 01-1.821-4.017l.708-.806a2.42 2.42 0 113.641 3.192l-.707.807a2.419 2.419 0 01-1.82.824zm0 0" fill="#8c5a5a"/><path d="M128.987 138.745a2.418 2.418 0 01-2.403-2.734l.304-2.32c.171-1.327 1.402-2.277 2.712-2.088a2.418 2.418 0 012.087 2.712l-.302 2.32a2.42 2.42 0 01-2.398 2.11zm0 0" fill="#6e4848"/><path d="M129.741 149.44c-.586 0-1.173-.21-1.636-.637l-1.21-1.112a2.416 2.416 0 01-.147-3.42 2.419 2.419 0 013.42-.146l1.21 1.111a2.418 2.418 0 01.147 3.42 2.419 2.419 0 01-1.784.785zm0 0" fill="#785353"/><path d="M134.686 143.89a2.41 2.41 0 01-1.608-.61c-1-.89-1.09-2.418-.203-3.42l.806-.907a2.42 2.42 0 013.42-.204c1 .89 1.09 2.42.203 3.42l-.806.908c-.48.54-1.146.813-1.812.813zm0 0" fill="#6e4848"/><path d="M131.255 167.804a2.42 2.42 0 00-2.421 2.42v4.533c.215-.06.412-.128.591-.201a4.75 4.75 0 013.66 0c.18.073.376.14.592.201v-4.532a2.42 2.42 0 00-2.422-2.421zm0 0" fill="#ffaa5f"/></svg>