<svg width="200" height="200" xmlns="http://www.w3.org/2000/svg"><path d="M105.066 88.667c6.432-8.512 14.398-15.474 22.384-22.513 1.293-1.139 7.133-6.376 7.162-8.304.004-.28-2.03 2.507-2.31 2.79-1.953 1.968-2.58 5.213-3.447 8.076-.445 1.47-2.88 4.41-1.34 4.41 2.403 0 5.766-5.803 7.38-7.392.77-.756.42 2.58 1.16 1.852.495-.486.928-2.655 1.423-3.141 1.337-1.314 2.234 1.143 4.107 1.212.557.02-.75-3.657-.666-3.705 5.763-3.364 12.09-4.096 18.708-7.405.51-.255 7.812-3.54 7.417-3.935-2.007-2.004-9.707 2.214-11.537.386-.404-.403 3.7-5.53 2.723-5.8-1.574-.431-6.855 1.667-7.83.695-.81-.81.623-4.462.87-5.115 1.718-4.57 3.562-9.076 5.197-13.68.216-.61 2.26-5.225 1.524-5.96-.504-.502-2.572 2.508-2.774 2.76-1.66 2.07-4.454 6.967-6.875 8.194-.482.243-.25-3.037-.25-3.125 0-.36-.342-7.8-1.77-6.511-4.922 4.442-5.72 13.041-10.006 17.385-.941.953-1.465-4.912-1.763-3.607-1.805 7.89.554 17.3-4.413 22.305-4.554 4.586-9.522 8.826-14.07 13.408-4.66 4.692-11.759 6.779-14.737 12.814-.12.244 3.053 3.205 3.449 3.601" fill="#014706"/><path d="M109.965 88.878c5.05-6.914 11.712-12.696 17.982-18.412 1.015-.926 6.09-3.98 6.113-5.547.003-.227-1.594 2.036-1.813 2.267-1.535 1.598-2.027 4.234-2.707 6.56-.35 1.194-2.261 3.581-1.053 3.581 1.887 0 4.528-4.713 5.796-6.003.604-.615.328 2.096.91 1.503.388-.395.728-2.156 1.117-2.55 1.05-1.068 1.754.928 3.225.983.437.017-.589-2.97-.523-3.009 4.525-2.732 9.492-3.327 14.689-6.014.4-.208 6.134-2.876 5.823-3.197-1.575-1.627-7.621 1.8-9.058.314-.317-.327 2.906-4.492 2.138-4.71-1.236-.351-5.382 1.353-6.147.563-.637-.658.488-3.623.682-4.154 1.35-3.712 2.797-7.372 4.081-11.111.17-.495 1.774-4.244 1.196-4.841-.395-.408-2.019 2.037-2.177 2.241-1.304 1.682-3.498 5.66-5.398 6.655-.38.199-.197-2.466-.197-2.537 0-.292-.269-6.336-1.39-5.289-3.864 3.608-4.49 10.593-7.857 14.121-.738.774-1.15-3.99-1.383-2.93-1.418 6.408.17 11.233-3.73 15.298-3.576 3.725-9.331 7.955-12.903 11.677-3.658 3.811-7.113 7.538-9.451 12.441-.095.198 2.086 2.155 2.397 2.476" fill="#0ea21a"/><path d="M101.715 79.949c6.696-5.215 12.295-12.094 17.831-18.569.896-1.048 3.854-6.288 5.371-6.312.22-.003-1.972 1.646-2.195 1.873-1.548 1.584-4.1 2.092-6.352 2.795-1.157.36-3.469 2.335-3.469 1.087 0-1.948 4.564-4.675 5.814-5.985.595-.624-2.03-.339-1.456-.94.382-.4 2.088-.752 2.47-1.154 1.033-1.083-.9-1.81-.953-3.33-.015-.451 2.876.608 2.915.54 2.645-4.673 3.221-9.802 5.824-15.168.2-.413 2.785-6.334 3.096-6.013 1.575 1.627-1.743 7.87-.305 9.354.317.327 4.35-3 4.562-2.208.34 1.276-1.31 5.558-.546 6.348.637.658 3.51-.505 4.023-.705 3.595-1.393 7.14-2.888 10.76-4.214.48-.175 4.11-1.832 4.689-1.235.395.408-1.973 2.085-2.171 2.249-1.629 1.345-5.48 3.61-6.445 5.574-.192.391 2.388.203 2.458.203.282 0 6.135.277 5.121 1.435-3.494 3.99-10.258 4.638-13.675 8.113-.75.763 3.864 1.187 2.838 1.429-6.206 1.463-10.371-1.206-14.308 2.822-3.607 3.692-8.638 9.93-12.242 13.618-3.69 3.778-6.873 8.08-11.621 10.495-.192.097-2.087-2.155-2.398-2.476" fill="#0a7012"/><path d="M34.796 147.925c1.13-1.566 15.728-23.502 21.359-33.484 1.504-2.667 4.77-3.616 7.019-5.602 3.117-2.75 5.565-6.377 8.342-9.252 5.457-5.65 10.056-11.758 13.927-18.623 4.313-7.644 6.008-17.274 11.044-24.586 1.956-2.84 3.491-5.797 6.223-7.852 16.283-12.248 31.797 2.416 38.782 16.842 2.505 5.174 6.113 9.789 4.894 16.354-1.031 5.556-7.596 9.229-10.635 13.442-4.432 6.142-11.326 14.413-17.38 18.723-3.504 2.496-7.673.756-11.139 2.538-3.864 1.987-6.47 5.58-10.38 7.269-4.282 1.847-9.767 3.462-13.627 6.16-2.906 2.03-7.697 7.867-9.304 11.136-.772 1.57-3.407 2.867-4.68 3.84-4.2 3.211-8.212 7.29-12.508 10.236-7.264 4.98-11.688 12.58-19.563 17.317-2.345 1.41-6.854 2.881-9.512 1.51-1.576-.814-2.177-6.665-1.44-8.194 2.976-6.17 4.623-12.291 8.578-17.774z" fill="#fbebbe"/><path d="M72.116 111.67c1.442 1.064 1.994 2.038 3.374 3.236.22.192 1.998.948 1.41 1.565-1.294 1.356-4.62-2.805-5.03-3.23-2.053-2.12-5.977-2.91-7.405-5.622 1.25-1.258 2.405-2.632 3.54-3.997 1.562 2.565 1.342 6.004 4.111 8.047zm55.596-27.21c-.836-1.148-3.172-3.762-1.058-5.09.52-.328 1.826 1.591 2.23 1.925.87.717 2.245 1.29 2.735 2.365.888 1.948.546 4.445 2.56 5.752 1.84 1.195 3.666 1.45 5.599 1.49-1.182 1.11-2.334 2.199-3.281 3.314-3.984-1.705-6.318-6.366-8.785-9.756zM93.567 66.416c.792.344 2.097.954 2.631 1.688.927 1.272.892 3.214 1.924 4.631 1.01 1.389 2.857 2.839 4.076 4.098.136.141 1.71 1.517.92 1.931-2.477 1.298-4.467-2.517-5.586-3.84-1.137-1.344-3.308-1.434-4.526-2.728-.897-.952-1.602-2.29-2.322-3.623.39-1.05.787-2.098 1.2-3.135.606.403 1.174.756 1.683.978zm8.912 44.794c-1.372-1.785-3.814-2.653-4.91-4.644-.868-1.576-2.725-4.555-.551-5.881.299-.183 1.792 2.39 2.524 2.825 3.246 1.936 3.156 4.34 5.76 7.029 1.444 1.491 3.6 2.463 4.82 4.143.178.245.337.546.461.873-1.157.108-2.287.323-3.35.87-.358.183-.703.38-1.041.589-1.628-1.408-2.259-3.912-3.713-5.804zm-40.032 31.385c-.39-.808-2.477-3.062-.781-3.952.546-.286 3.931 2.447 4.492 2.86 1.045.77 2.67.778 3.9.778.398 0 .874.197 1.244.35.273.11.5.227.688.345-.974.708-2.06 1.328-2.749 1.854a63.91 63.91 0 00-1.806 1.437c-2.088-.88-4.295-2.242-4.988-3.672zm-20.989 2.573c.439.452 2.744 2.01 1.69 3.117-1.61 1.687-4.422-3.63-5.116-4.148a5.414 5.414 0 00-.472-.313c.334-.502.692-1.04 1.069-1.61 1.1 1.095 2.098 2.2 2.83 2.954zm64.526-89.716c.244.63.918 1.123 1.077 1.78.274 1.121-.386 2.591.359 3.614.973 1.338 3.089 1.402 4.468 2.116.139.072 1.66.739.902.987-1.453.474-4.34.096-5.479-1.08-.946-.977-1.12-2.639-2.187-3.565-1.204-1.045-3.715-1.778-4.272-3.447a3.221 3.221 0 01-.14-.971c1.615-.998 3.218-1.741 4.803-2.254.262.887.186 2.09.469 2.82z" fill="#ffcc6d"/></svg>