<svg width="200" height="200" xmlns="http://www.w3.org/2000/svg"><path d="M103.563 105.188c-5.988 9.047-12.372 23.971-10.675 38.274.073.677.451 1.268 1.003 1.571a1.681 1.681 0 001.738-.066c.59-.393 1.239-.846 1.872-1.334a1.32 1.32 0 011.439-.153c.469.241.786.742.829 1.313a44.184 44.184 0 002.721 12.87c.278.64.836 1.075 1.473 1.148.638.074 1.265-.225 1.655-.788a26.264 26.264 0 004.015-8.193c.058-.27.281-.459.532-.451.252.006.466.206.515.48a84.165 84.165 0 002.274 9.932c.223.695.751 1.214 1.399 1.376.65.16 1.327-.059 1.796-.58l.713-.792a1.185 1.185 0 011.1-.4c.404.073.751.359.929.767 1.322 2.511 3.193 4.611 5.442 6.107 1.263.992 2.914 1.137 4.301.38 1.389-.759 2.29-2.299 2.35-4.012v-.232c.009-.447.216-.86.555-1.103a1.116 1.116 0 011.133-.115c.687.328 1.51.696 2.318.972.532.186 1.112.056 1.539-.344.424-.401.633-1.016.554-1.628a31.068 31.068 0 00-2.709-9.103 1.012 1.012 0 01.083-1.052.79.79 0 01.919-.285 19.153 19.153 0 004.726 1.215.823.823 0 00.774-.367c.182-.264.227-.616.117-.924a96.568 96.568 0 00-7.778-16.8 1.3 1.3 0 01.055-1.487c.326-.422.872-.541 1.318-.286a133.186 133.186 0 0014.563 7.395c.527.199 1.111.038 1.494-.411.382-.45.493-1.104.282-1.677a37.16 37.16 0 00-1.845-4.278 2.013 2.013 0 01-.185-1.479 1.81 1.81 0 01.865-1.144c.159-.081.323-.174.489-.281.483-.315.816-.849.912-1.46a2.274 2.274 0 00-.416-1.715 25.862 25.862 0 00-6.096-5.933c-.348-.223-.53-.664-.458-1.1.073-.437.386-.776.781-.847a13.666 13.666 0 003.089-.835c.478-.224.827-.689.939-1.25a1.911 1.911 0 00-.375-1.575c-3.571-4.554-14.763-16.974-30.154-16.974h-1.182c-5.414-.017-10.513 2.826-13.728 7.654zm0 0" fill="#71c285"/><path d="M120.335 151.046c-.749-.063-1.411-.566-1.733-1.318-5.718-13.37-10.796-35.063-8.432-51.1.098-.84.602-1.552 1.313-1.861.711-.309 1.519-.163 2.105.378.587.543.859 1.397.712 2.229-2.12 14.38 2.462 35.224 8.084 48.367a2.533 2.533 0 01-.166 2.305c-.423.681-1.139 1.062-1.883 1zm0 0" fill="#4c8056"/><path d="M135.218 123.048a1.85 1.85 0 01-.776-.164c-9.125-4.045-20.036-14.857-23.344-23.132a2.532 2.532 0 01.192-2.342c.443-.686 1.185-1.05 1.94-.953.755.096 1.403.637 1.694 1.415 2.553 6.385 12.315 16.822 21.07 20.703.934.411 1.471 1.499 1.281 2.592-.189 1.093-1.053 1.883-2.057 1.881zm0 0" fill="#4c8056"/><path d="M105.912 88.256c-4.571 2.245-13.467 21.107-22.605 31.221a1.923 1.923 0 01-1.556.635c-.577-.045-1.108-.36-1.461-.867l-.037-.059c-.833-1.224-2.39-1.503-3.528-.63a26.148 26.148 0 01-8.306 4.396c-.779.293-1.639.104-2.257-.497-.62-.601-.902-1.52-.743-2.414a22.556 22.556 0 012.721-5.964c.476-.742-.406-1.598-1.13-1.086a88.18 88.18 0 01-10.813 6.667 1.88 1.88 0 01-2.106-.119c-.63-.466-.975-1.278-.9-2.112.178-.892.406-1.768.68-2.629.127-.541-.04-1.117-.43-1.474a1.196 1.196 0 00-1.386-.193c-4.785 2.185-10.012 2.901-15.133 2.072-.844-.095-1.58-.678-1.933-1.533a2.885 2.885 0 01.222-2.62c1.817-2.765 4.063-5.151 6.633-7.047.7-.411 1.177-1.171 1.281-2.042.105-.87-.178-1.742-.759-2.34a17.866 17.866 0 01-2.665-3.686 3.547 3.547 0 01-.156-2.866c.354-.931 1.081-1.624 1.963-1.875 4.702-1.761 14.603-4.407 30.33-3.651.479.023.605-.644.135-.751-5.832-1.306-15.45-3.534-21.322-5.189-.551-.101-1-.545-1.155-1.138-.154-.596.014-1.236.434-1.645l1.524-1.494c.264-.258.37-.66.271-1.035-.098-.374-.383-.65-.729-.71a48.306 48.306 0 01-8.69-3.157c-.411-.195-.672-.649-.66-1.144.013-.495.297-.931.717-1.101a11.78 11.78 0 014.395-1.199.69.69 0 00.593-.375.847.847 0 00.022-.754l-.699-1.381a1.658 1.658 0 01.155-1.584c.319-.453.838-.67 1.346-.559 1.357.118 2.702.356 4.023.714.496.187 1.044.053 1.425-.344.38-.399.531-.999.39-1.558l-.506-1.493a1.723 1.723 0 01.323-1.531c.344-.411.856-.594 1.351-.478a36.945 36.945 0 0112.623 4.174c.752.411 1.563-.434 1.07-1.124a24.669 24.669 0 01-3.266-6.112c-.239-.933.031-1.932.692-2.567.661-.634 1.594-.787 2.392-.39 7.441 2.85 14.33 7.234 20.304 12.919 6.373 6.493 12.05 13.782 16.916 21.719zm13.722-6.987c-7.5.408-14.522-4.083-17.954-11.484l-.031-.067c-4.109-9.107-10.2-11.568-12.47-22.466a.578.578 0 01.147-.521.457.457 0 01.482-.115l2.595.959c.447.166.941.014 1.246-.386.305-.399.358-.965.136-1.426a34.335 34.335 0 01-2.02-5.022c-.222-.751.009-1.574.577-2.054a1.545 1.545 0 011.939-.071c.291.232.602.487.932.784a1.581 1.581 0 001.583.34c.546-.186.972-.661 1.138-1.267a16.086 16.086 0 011.787-4.149c.711-1.156 1.943-1.779 3.197-1.615 1.255.167 2.322 1.092 2.767 2.403a196.29 196.29 0 015.754 21.597c.065.344.34.589.657.589.318 0 .592-.245.657-.589.951-5.258 3.257-15.102 8.055-21.999.432-.605 1.137-.887 1.818-.725.681.159 1.221.733 1.393 1.481.403 1.744.648 3.527.732 5.324.022.338.242.618.54.692.297.072.603-.082.75-.377 1.337-2.692 3.099-5.1 5.2-7.107.556-.513 1.334-.611 1.981-.249.647.361 1.038 1.112.998 1.913a8.36 8.36 0 01-.21 1.537.6.6 0 00.215.619.47.47 0 00.597-.032c2.472-2.362 5.369-4.113 8.499-5.137.63-.174 1.296.018 1.77.509.473.493.689 1.216.575 1.924-.489 3.337-1.868 6.436-3.959 8.897h1.405c.679-.001 1.297.439 1.576 1.125.28.686.171 1.491-.278 2.055-1.378 1.722-2.703 3.839-9.026 3.839l5.771 2.341c1.046 0 1.779 1.693.836 2.206-3.283 1.802-6.849 6.014-11.487 8.172-.328.147-.52.525-.466.912.055.385.343.681.694.711 1.661.147 3.312.388 4.949.724 1.063.223 1.955 1.016 2.384 2.117a3.947 3.947 0 01-.247 3.373c-1.188 2.021-3.075 2.619-5.962 2.783-.476.031-.891.368-1.063.861a1.45 1.45 0 00.273 1.428c.454.502.625 1.241.443 1.926-.182.683-.686 1.203-1.315 1.353a66.536 66.536 0 01-10.56 1.364zm0 0" fill="#71c285"/><g fill="#4c8056"><path d="M74.514 102.172c-.94.001-1.767-.694-2.019-1.699-.251-1.004.132-2.071.939-2.608 10.654-7.084 31.189-11.69 32.066-11.883.136-.031.273-.047.412-.047h14.652c1.156 0 2.094 1.039 2.094 2.32s-.938 2.319-2.094 2.319h-14.442c-2.147.492-21.034 4.95-30.534 11.266a1.926 1.926 0 01-1.074.332zm0 0"/><path d="M112.192 101.356c-.736-.001-1.418-.43-1.795-1.13a2.542 2.542 0 01-.047-2.287c1.694-3.582 4.07-6.712 6.964-9.177-2.296-1.715-4.009-4.23-4.869-7.145a2.52 2.52 0 01.362-2.286c.48-.636 1.23-.939 1.966-.796.737.143 1.349.711 1.605 1.49 1.884 5.718 5.76 5.91 5.926 5.91 1.02.03 1.872.865 2.026 1.98.156 1.11-.432 2.182-1.391 2.539-3.906 1.963-7.059 5.392-8.903 9.681-.365.753-1.074 1.22-1.844 1.22zm0 0"/><path d="M137.31 90.574h-16.746c-1.156 0-2.092-1.038-2.092-2.319s.936-2.32 2.092-2.32h16.746c14.343 0 16.838-5.319 16.855-5.372.237-.787.834-1.375 1.567-1.542.733-.167 1.492.113 1.988.733.498.62.659 1.488.422 2.275-.27.875-3.09 8.545-20.832 8.545zm-22.879-7.539a1.85 1.85 0 01-.257-.018c-1.049-.142-1.837-1.13-1.838-2.3 0-.414.052-1.014.121-1.757.31-3.284.893-9.4-3.374-12.551-.637-.453-1.003-1.25-.959-2.088.044-.837.492-1.582 1.172-1.95s1.486-.3 2.109.178c2.044 1.488 3.605 3.66 4.456 6.2 2.191-6.457 5.465-12.397 9.648-17.508.82-.88 2.127-.867 2.934.028.808.895.819 2.342.026 3.253-7.857 8.707-11.968 26.577-12.01 26.757-.233 1.032-1.069 1.755-2.028 1.756zm-8.519 7.539a1.93 1.93 0 01-.6-.097c-.866-.288-21.305-7.124-31.876-14.15-.968-.67-1.272-2.077-.684-3.16.588-1.084 1.851-1.447 2.84-.815 10.118 6.726 30.713 13.615 30.92 13.685.99.337 1.608 1.421 1.457 2.554-.15 1.134-1.024 1.976-2.057 1.983zm0 0"/></g></svg>