<svg height="512" viewBox="0 0 510.309 510.309" width="512" xmlns="http://www.w3.org/2000/svg"><path d="M73.237 455.196l.108-11.785c.016-1.726.53-42.91 12.67-97.287 31.498-141.076 106.2-232.228 245.578-269.782 49.499-13.336 86.987-13.901 88.559-13.918l10.727-.12-4.125 7.954c-.017 1.727-1.47 41.296-13.61 95.674-14.611 65.445-41.435 128.95-84.816 176.606.071 0 .071 0 0 0-43.372 47.646-101.17 77.119-160.762 93.175-49.498 13.336-86.987 13.902-88.558 13.919z" fill="#73ca7a"/><path d="M430.77 74.089l.11-11.785L73.236 455.196l10.727-.119c1.571-.018 39.06-.583 88.559-13.92 59.592-16.056 117.389-45.528 160.762-93.176 43.38-47.654 70.204-111.16 84.815-176.606 12.14-54.376 12.655-95.56 12.67-97.286z" fill="#5fa794"/><path d="M409.196 86.125c-14.393 1.104-41.371 4.192-73.118 12.792-43.139 11.685-104.246 36.253-150.379 86.933-46.134 50.681-68.498 117.81-79.134 165.201-7.828 34.872-10.641 64.51-11.645 80.324 14.393-1.104 41.371-4.193 73.118-12.792 43.14-11.685 104.246-36.253 150.38-86.934 46.133-50.68 68.497-117.81 79.134-165.2 7.827-34.873 10.64-64.511 11.644-80.324z" fill="#b9e68b"/><path d="M397.552 166.449c7.827-34.873 10.64-64.511 11.644-80.324L94.92 431.375c14.392-1.102 41.37-4.192 73.117-12.792 43.14-11.684 104.246-36.252 150.38-86.933 46.134-50.681 68.498-117.811 79.135-165.201z" fill="#73ca7a"/><g clip-rule="evenodd" fill-rule="evenodd"><path d="M343.025 157.475c10.627 10.996 11.13 29.375 1.124 41.046-10.009 11.679-26.73 12.227-37.363 1.235-10.623-10.992-11.132-29.366-1.121-41.043 10.003-11.673 26.732-12.223 37.36-1.238zM193.562 321.67c10.626 10.994 11.13 29.374 1.124 41.045-10.008 11.679-26.73 12.228-37.362 1.236-10.624-10.992-11.133-29.367-1.123-41.044 10.004-11.674 26.733-12.225 37.361-1.237z" fill="#73ca7a"/><path d="M305.403 198.185c15.939 16.49 16.695 44.058 1.69 61.567-15.009 17.506-40.097 18.336-56.045 1.849-15.935-16.487-16.696-44.048-1.683-61.561 15.006-17.509 40.093-18.338 56.038-1.855z" fill="#73ca7a"/><path d="M249.336 259.778c15.947 16.487 16.703 44.053 1.695 61.561-15.011 17.516-40.103 18.342-56.042 1.851-15.94-16.49-16.696-44.047-1.692-61.557 15.01-17.516 40.104-18.344 56.039-1.855z" fill="#73ca7a"/><path d="M344.15 198.522c9.793-11.424 9.512-29.269-.468-40.331l-37.368 41.05c10.659 11.583 27.725 11.078 37.836-.72z" fill="#5fa794"/><path d="M307.093 259.752c14.701-17.154 14.263-43.957-.749-60.544l-56.049 61.573c15.947 17.4 41.604 16.695 56.798-1.029zm-56.061 61.588c14.703-17.154 14.265-43.955-.755-60.54l-56.043 61.568c15.955 17.409 41.603 16.701 56.798-1.029zm-56.345 41.375c9.794-11.424 9.513-29.27-.468-40.331l-37.368 41.05c10.658 11.584 27.725 11.079 37.836-.72z" fill="#5fa794"/></g></svg>