<svg width="200" height="200" xmlns="http://www.w3.org/2000/svg"><path d="M165 112.63c0 15.659-5.163 29.876-13.576 40.372-8.93 11.138-21.52 18.083-35.47 18.083-.118 0-.24 0-.358-.004a37.469 37.469 0 01-2.37-.086h-.004v-56.14l.004-60.587c.781-.058 1.57-.084 2.362-.087.123-.004.244-.004.366-.004 8.2 0 15.924 2.4 22.714 6.635C154.32 70.578 165 90.12 165 112.63z" fill="#ffa91f"/><path d="M113.224 114.857l.003-60.592c.904-.06 1.814-.09 2.729-.09 8.198 0 15.924 2.399 22.713 6.636-3.273 5.184-5.406 13.806.28 27.052 6.944 16.171-11.666 23.693-25.725 26.994zm38.2 38.143c-8.93 11.142-21.52 18.087-35.469 18.087a40.56 40.56 0 01-2.728-.09h-.004v-47.052l24.873 15.727S137.016 153 151.424 153z" fill="#e2901a"/><path d="M113.323 59.285a2.69 2.69 0 01-2.555-2.817c.418-8.55-3.274-15.652-10.977-21.108-5.93-4.2-11.999-5.776-12.06-5.792a2.688 2.688 0 011.326-5.211c.287.073 7.107 1.843 13.843 6.615 9.166 6.495 13.745 15.402 13.239 25.758a2.688 2.688 0 01-2.816 2.555z" fill="#23b75f"/><path d="M145.777 112.632c0 26.424-14.465 49.055-30.18 58.448a36.678 36.678 0 01-2.371-.085h-.004v-56.14l.004-60.587c.781-.058 1.57-.084 2.362-.087 15.72 9.389 30.189 32.023 30.189 58.451z" fill="#e2901a"/><path d="M143.269 112.632c0 19.958-8.25 37.75-19.061 49.31-7.92 8.468-17.209 13.595-25.636 13.781-.158.004-.315.004-.475.004-12.524 0-24.197-3.65-34.013-9.941C46.594 154.569 35 134.952 35 112.632 35 77.787 63.25 49.54 98.097 49.54c.159 0 .315 0 .475.003 19.935.437 44.697 28.518 44.697 63.09z" fill="#ffa91f"/><path d="M60.397 112.632c0-29.402 20.114-54.11 47.335-61.11-3.095-1.227-6.181-1.915-9.16-1.98-.158-.004-.315-.004-.473-.004C63.25 49.538 35 77.788 35 112.632c0 34.845 28.25 63.095 63.099 63.095.158 0 .315 0 .474-.004 2.978-.065 6.064-.752 9.159-1.98-27.221-7.001-47.335-31.707-47.335-61.11z" fill="#e2901a"/><path d="M59.934 110.82s-19.438-25.95-8.897-49.7c10.075-22.706 41.76-20.24 46.408-27.58.214-.324.368-.673.46-1.047.007-.012.007-.02.007-.02l.011.018c.41.813 13.415 26.963-2.181 45.123-15.844 18.448-32.986 19.966-35.808 33.204z" fill="#2fcc6e"/><path d="M97.745 31.776a1.79 1.79 0 00-2.068 1.466c-2.69 15.765-9.867 21.055-17.464 26.655-.683.504-1.372 1.012-2.06 1.53h-5.727a1.792 1.792 0 100 3.584h1.267c-2.337 2.053-4.605 4.41-6.68 7.382-4.32 6.186-6.83 14.188-7.457 23.78a1.791 1.791 0 001.79 1.908c.936 0 1.725-.726 1.788-1.674.3-4.605 1.059-8.796 2.261-12.552l.78 1.501a1.791 1.791 0 103.182-1.65l-2.233-4.305a32.538 32.538 0 012.829-4.955c3.642-5.218 8.088-8.495 12.388-11.664 1.482-1.093 2.973-2.191 4.436-3.372v2.056a1.792 1.792 0 103.584 0v-5.224c4.812-4.728 8.934-11.17 10.85-22.398a1.79 1.79 0 00-1.466-2.068z" fill="#23b75f"/><path d="M124.208 161.943c-7.92 8.467-17.209 13.594-25.636 13.78-.158.004-.315.004-.475.004-12.524 0-24.197-3.65-34.013-9.941l8.25-16.217s24.097 26.857 51.874 12.374z" fill="#e2901a"/></svg>