<svg width="200" height="200" xmlns="http://www.w3.org/2000/svg"><path d="M150.137 135.403c0 29.158-23.741 46.841-52.947 46.636a72.442 72.442 0 01-4.014-.143h-.004c-27.18-1.773-48.559-19.547-48.167-47.252.205-14.35 6.16-27.3 15.662-36.666 4.102-4.04 6.72-9.314 7.505-15.02.025-.169.047-.319.073-.451 2.79-14.573 14.86-25.536 29.323-25.536h.154c14.393.077 26.389 11.014 29.168 25.536.015.066.026.136.037.213.945 5.893 3.652 11.353 7.867 15.58 9.479 9.505 15.343 22.617 15.343 37.103z" fill="#a3e261"/><path d="M97.721 56.971l-.366 11.153s-5.009 3.793-5.567 13.193c-1.466 24.661-20.694 33.452-20.694 58.357 0 24.906 8.973 34.673 22.085 42.218l-.003.004h-.004c-27.18-1.773-48.559-19.548-48.167-47.252.205-14.35 6.16-27.301 15.662-36.666 4.102-4.04 6.72-9.314 7.505-15.02.025-.17.047-.32.073-.451 2.79-14.574 14.86-25.536 29.323-25.536h.153z" fill="#93cc52"/><path d="M96.996 67.408a2.747 2.747 0 01-2.708-3.223c.043-.25 4.248-25.05-6.094-35.393a2.746 2.746 0 113.885-3.884c12.365 12.365 7.819 39.098 7.62 40.23a2.749 2.749 0 01-2.703 2.27z" fill="#b25719"/><path d="M91.186 63.184c1.617-.016 2.688-.037 3.653-.1.949-.055 1.728-.09 2.514-.091.786-.006 1.564.03 2.51.084.965.063 2.035.086 3.658.108.005 1.633-.857 2.952-2.003 3.888-1.162.929-2.667 1.417-4.165 1.413-1.497-.003-3-.49-4.161-1.42-1.145-.937-2.006-2.253-2.006-3.882z" fill="#93cc52"/><path d="M106.547 40.12c-9.629 0-14.072-6.508-14.293-6.84a2.015 2.015 0 013.353-2.235c.222.325 5.192 7.354 16.542 4.238a2.014 2.014 0 111.066 3.885c-2.45.673-4.671.953-6.668.953z" fill="#b25719"/><path d="M141.31 42.59L155 28.131l-18.113-8.272c-11.12-5.078-24.207.405-28.386 11.892l-.378 1.038a8.504 8.504 0 001.674 8.6l.739.82c8.181 9.082 22.37 9.258 30.774.381z" fill="#2fcc6e"/></svg>