<svg id="Capa_1" enable-background="new 0 0 497 497" height="512" viewBox="0 0 497 497" width="512" xmlns="http://www.w3.org/2000/svg"><g id="_x3C_Group_x3E__21_"><g><path d="m430.597 378.511h-364.194c-10.069 0-17.298-33.636-21.195-42.92l-22.708-22.08h428.702l13.242 23.957-10.796 25.719c-3.896 9.284-12.982 15.324-23.051 15.324z" fill="#e03c3e"/></g><g><path d="m401.587 378.511h-306.175l-21.018-65h348.212z" fill="#c42430"/></g><g><path d="m356.688 378.511h-216.376l-14.855-65h246.086z" fill="#e03c3e"/></g><g><path d="m314.034 378.511h-131.068l-8.998-65h149.064z" fill="#c42430"/></g><g><path d="m269.135 378.511h-41.27l-2.833-65h46.936z" fill="#e03c3e"/></g><g><g><path d="m408.06 358.51 2.291 11.549-8.761 8.451h-44.9l-8.126-10 12.696-10z" fill="#a81f2a"/></g><g><path d="m316.8 358.51 6.232 10-9.002 10h-44.9l-6.13-8.962 7-11.038z" fill="#a81f2a"/></g><g><path d="m227.87 378.51h-44.9l-9.002-7.941 6.232-12.059h46.8l9.479 10z" fill="#a81f2a"/></g><g><path d="m140.31 378.51h-44.9l-14.165-10 7.695-10h46.8l8.313 10z" fill="#a81f2a"/></g><g><path d="m455.61 358.51-1.96 4.68c-3.9 9.28-12.98 15.32-23.05 15.32h-29.01l6.47-20z" fill="#c42430"/></g><g><path d="m361.26 358.51-4.57 20h-42.66l2.77-20z" fill="#c42430"/></g><g><path d="m270 358.51-.87 20h-41.26l-.87-20z" fill="#c42430"/></g><g><path d="m182.97 378.51h-42.66l-4.57-20h44.46z" fill="#c42430"/></g><g><path d="m95.41 378.51h-29.01c-10.07 0-19.15-6.04-23.05-15.32l-20.85-49.68h23.23l14.52 38.26c1.71 4.08 5.71 6.74 10.14 6.74h18.55z" fill="#c42430"/></g></g><path d="m50 463.511h30c5.523 0 10-4.477 10-10v-9.001l-9.521-20.579-33.191 4.085-2.043 20.495c0 5.523-.768 15 4.755 15z" fill="#c86d36"/><path d="m90 433.51v11h-29c-2.761 0-5 2.239-5 5v14h-6c-5.523 0-10-4.477-10-10v-20l28.223-13.834z" fill="#ac5e2e"/><path d="m417 463.511h30c5.523 0 10-4.477 10-10v-9.001l-13.968-16.494-36.032 5.495 10.5 8.082c0 5.523-6.023 21.918-.5 21.918z" fill="#c86d36"/><path d="m457 433.51v11h-29c-2.761 0-5 2.239-5 5v14h-6c-5.523 0-10-4.477-10-10v-20l27.351-13.834z" fill="#ac5e2e"/><g><path d="m295.064 161.553h-93.128c-54.323 0-101.289 32.437-136.936 70.888-14.517 15.659-30.216 24.392-39 44.697h445c-30.351-70.163-99.49-115.585-175.936-115.585z" fill="#ffe8c8"/></g><g><path d="m231.94 161.55c-76.45 0-145.59 45.43-175.94 115.59h-30c30.35-70.16 99.49-115.59 175.94-115.59z" fill="#fdd9b4"/></g><g><g><path d="m422.61 313.51-.004 14.421-7.726 9.469c-5.842-.747-11.46-2.698-16.494-5.719-1.627-.977-3.635-.97-5.263.006-6.576 3.942-14.143 6.064-21.903 6.064-1.73 0-3.45-.1-5.15-.31l-4.81-11.81 10.28-12.12h51.07z" fill="#a81f2a"/></g><g><path d="m323.03 313.51 3.917 12.09-7.267 12.07c-6.9-.391-13.574-2.461-19.459-5.989-1.629-.976-3.638-.972-5.266.004-6.578 3.943-14.153 6.064-21.914 6.064-.71 0-1.42-.02-2.13-.06l-5.58-12.06 6.64-12.12h51.059z" fill="#a81f2a"/></g><g><path d="m226.09 337.69c-.71.04-1.42.06-2.13.06-7.761 0-15.336-2.121-21.914-6.064-1.629-.976-3.638-.981-5.266-.004-5.886 3.528-12.56 5.598-19.459 5.989l-11.394-12.04 8.044-12.12h51.06l8.97 12.12z" fill="#a81f2a"/></g><g><path d="m130.93 337.44c-1.7.21-3.42.31-5.15.31-7.76 0-15.327-2.121-21.903-6.064-1.628-.976-3.636-.982-5.263-.006-5.034 3.021-10.652 4.972-16.494 5.719l-14.516-11.77 6.786-12.12h51.07l8.806 12.09z" fill="#a81f2a"/></g><g><path d="m474.5 313.51-10.05 23.96h-.01c-6.014-.708-11.795-2.689-16.971-5.795-1.624-.974-3.628-.965-5.253.008-6.585 3.945-14.154 6.067-21.916 6.067-1.82 0-3.63-.12-5.42-.35l7.73-23.89z" fill="#c42430"/></g><g><path d="m371.54 313.51-5.47 23.93c-5.943-.724-11.66-2.694-16.777-5.763-1.626-.975-3.632-.967-5.258.008-6.577 3.943-14.144 6.065-21.905 6.065-.82 0-1.64-.02-2.45-.08l3.35-24.16z" fill="#c42430"/></g><g><path d="m271.97 313.51-1.06 24.18c-7.019-.348-13.812-2.428-19.785-6.011-1.623-.974-3.627-.974-5.25 0-5.973 3.583-12.766 5.663-19.785 6.011l-1.06-24.18z" fill="#c42430"/></g><g><path d="m177.32 337.67c-.81.06-1.63.08-2.45.08-7.761 0-15.328-2.122-21.905-6.065-1.626-.975-3.632-.983-5.258-.008-5.117 3.069-10.835 5.039-16.777 5.763l-5.47-23.93h48.51z" fill="#c42430"/></g><g><path d="m82.12 337.4c-1.79.23-3.6.35-5.42.35-8.82 0-17.39-2.74-24.55-7.78-2.54 1.79-5.26 3.29-8.11 4.48h-.01l-21.53-20.94h51.89z" fill="#c42430"/></g></g><path d="m472.074 267.654c-7.921-.748-15.231 1.855-20.685 6.554-3.736 3.219-9.219 3.379-12.931.133-4.852-4.243-11.202-6.814-18.154-6.814-6.88 0-13.169 2.518-18.002 6.682-3.765 3.244-9.317 3.244-13.083 0-4.832-4.164-11.122-6.682-18.002-6.682s-13.169 2.518-18.002 6.682c-3.765 3.244-9.317 3.244-13.083 0-4.832-4.164-11.122-6.682-18.002-6.682s-13.169 2.518-18.002 6.682c-3.765 3.244-9.317 3.244-13.083 0-4.832-4.164-11.122-6.682-18.002-6.682s-13.169 2.518-18.002 6.682c-3.765 3.244-9.317 3.244-13.083 0-4.832-4.164-11.122-6.682-18.002-6.682s-13.169 2.518-18.002 6.682c-3.765 3.244-9.317 3.244-13.083 0-4.832-4.164-11.122-6.682-18.002-6.682s-13.169 2.518-18.002 6.682c-3.765 3.244-9.317 3.244-13.083 0-4.832-4.164-11.122-6.682-18.002-6.682s-13.169 2.518-18.002 6.682c-3.765 3.244-9.317 3.244-13.083 0-4.832-4.164-11.122-6.682-18.002-6.682-6.953 0-13.302 2.571-18.154 6.814-3.712 3.246-9.196 3.085-12.932-.133-5.454-4.699-12.765-7.302-20.686-6.554-12.868 1.215-23.328 11.483-24.751 24.33-.692 6.248.702 12.136 3.575 17.056 4.788 8.2 13.681 9.709 23.861 9.709 6.88 0 13.169-2.518 18.002-6.682 3.765-3.244 9.317-3.244 13.083 0 4.832 4.164 11.122 6.682 18.002 6.682s13.169-2.518 18.002-6.682c3.765-3.244 9.317-3.244 13.083 0 4.832 4.164 11.122 6.682 18.002 6.682s13.169-2.518 18.002-6.682c3.765-3.244 9.317-3.244 13.083 0 4.832 4.164 11.122 6.682 18.002 6.682s13.169-2.518 18.002-6.682c3.765-3.244 9.317-3.244 13.083 0 4.832 4.164 11.122 6.682 18.002 6.682s13.169-2.518 18.002-6.682c3.765-3.244 9.317-3.244 13.083 0 4.832 4.164 11.122 6.682 18.002 6.682s13.169-2.518 18.002-6.682c3.765-3.244 9.317-3.244 13.083 0 4.832 4.164 11.122 6.682 18.002 6.682s13.169-2.518 18.002-6.682c3.765-3.244 9.317-3.244 13.083 0 4.832 4.164 11.122 6.682 18.002 6.682s13.169-2.518 18.002-6.682c3.765-3.244 9.317-3.244 13.083 0 4.832 4.164 11.122 6.682 18.002 6.682s13.169-2.518 18.002-6.682c3.765-3.244 9.317-3.244 13.083 0 4.832 4.164 11.122 6.682 18.002 6.682 11.24 0 20.912-2.717 25.22-12.355 1.935-4.328 2.788-9.246 2.216-14.41-1.426-12.847-11.885-23.114-24.753-24.33z" fill="#ffbf54"/><path d="m494.6 306.39c-4.3 9.64-13.97 16.36-25.21 16.36-6.88 0-13.17-2.52-18-6.68-3.77-3.25-9.32-3.25-13.09 0-4.83 4.16-11.12 6.68-18 6.68s-13.17-2.52-18-6.68c-3.76-3.25-9.32-3.25-13.08 0-4.83 4.16-11.12 6.68-18 6.68s-13.17-2.52-18.01-6.68c-3.76-3.25-9.31-3.25-13.08 0-4.83 4.16-11.12 6.68-18 6.68s-13.17-2.52-18-6.68c-3.77-3.25-9.32-3.25-13.08 0-4.84 4.16-11.13 6.68-18.01 6.68s-13.17-2.52-18-6.68c-3.76-3.25-9.32-3.25-13.08 0-4.83 4.16-11.12 6.68-18 6.68s-13.17-2.52-18-6.68c-3.77-3.25-9.32-3.25-13.09 0-4.83 4.16-11.12 6.68-18 6.68s-13.17-2.52-18-6.68c-3.77-3.25-9.32-3.25-13.08 0-4.84 4.16-11.13 6.68-18.01 6.68s-13.17-2.52-18-6.68c-3.76-3.25-9.32-3.25-13.08 0-4.83 4.16-11.12 6.68-18 6.68s-13.17-2.52-18-6.68c-3.77-3.25-9.32-3.25-13.09 0-4.83 4.16-11.12 6.68-18 6.68-11.24 0-20.91-6.72-25.21-16.36 2.89.89 5.97 1.36 9.18 1.36 7.38 0 14.13-2.52 19.31-6.68 4.04-3.25 9.99-3.25 14.03 0 5.19 4.16 11.93 6.68 19.31 6.68s14.13-2.52 19.31-6.68c4.04-3.25 9.99-3.25 14.03 0 5.18 4.16 11.93 6.68 19.31 6.68s14.12-2.52 19.31-6.68c4.04-3.25 9.99-3.25 14.03 0 5.18 4.16 11.93 6.68 19.31 6.68s14.12-2.52 19.31-6.68c4.03-3.25 9.99-3.25 14.03 0 5.18 4.16 11.93 6.68 19.31 6.68s14.12-2.52 19.3-6.68c4.04-3.25 10-3.25 14.04 0 5.18 4.16 11.92 6.68 19.3 6.68s14.13-2.52 19.31-6.68c4.04-3.25 10-3.25 14.03 0 5.19 4.16 11.93 6.68 19.31 6.68s14.13-2.52 19.31-6.68c4.04-3.25 9.99-3.25 14.03 0 5.19 4.16 11.93 6.68 19.31 6.68s14.13-2.52 19.31-6.68c4.04-3.25 9.99-3.25 14.03 0 5.18 4.16 11.93 6.68 19.31 6.68s14.12-2.52 19.31-6.68c4.04-3.25 9.99-3.25 14.03 0 5.18 4.16 11.93 6.68 19.31 6.68 3.21 0 6.29-.47 9.18-1.36z" fill="#ffa442"/><path d="m481.84 426.995-463.149 2.681c-5.523 0-10-4.477-10-10l-4.298-26.383c0-5.523 4.477-10 10-10l5.607-4.782h467c5.523 0 10 4.477 10 10v24.999l-5.16 3.485c0 5.523-4.477 10-10 10z" fill="#d77f4a"/><path d="m497 413.51v10c0 5.523-4.477 10-10 10h-477c-5.523 0-10-4.477-10-10v-35c0-5.523 4.477-10 10-10h10v25c0 5.523 4.477 10 10 10z" fill="#c86d36"/><g><path d="m263 223.979c0-4.249-4.082-16.516-7.914-27.097-.692-1.912-2.007-3.231-3.558-3.957-3.451-1.617-6.515 1.816-8.056 6.071-3.832 10.58-5.472 20.771-5.472 25.02 0 8.008 2.492 12.255 10.5 12.255 4.391 0 8.326.256 10.985-2.827 2.19-2.54 3.515-5.848 3.515-9.465z" fill="#e03c3e"/></g><g><path d="m259.48 233.44c-2.65 3.09-6.59 5.04-10.98 5.04-8.01 0-14.5-6.49-14.5-14.5 0-4.25 4.08-16.52 7.91-27.1 1.55-4.26 6.17-5.58 9.62-3.96-3.71 10.33-7.53 21.95-7.53 26.06 0 8.01 6.49 14.5 14.5 14.5.33 0 .66-.01.98-.04z" fill="#c42430"/></g><g><path d="m333.045 213.219c-2.124-3.68-11.793-12.263-20.403-19.51-1.882-1.584-4.118-1.962-6.117-1.475-3.333.811-.297 6.809.422 10.845 1.972 11.08.939 20.065 3.064 23.745 4.004 6.935 10.001 7.068 16.936 3.064 4.078-2.354 7.371-3.252 7.926-7.588.389-3.038-.178-6.223-1.828-9.081z" fill="#e03c3e"/></g><g><path d="m334.87 222.3c-.55 4.33-3.05 8.37-7.13 10.73-6.94 4-15.81 1.62-19.81-5.31-2.12-3.68-4.72-16.35-6.69-27.42-.79-4.45 2.53-7.9 6.32-8.23 1.92 10.62 4.36 22.16 6.37 25.65 4 6.93 12.87 9.31 19.81 5.31.39-.23.77-.47 1.13-.73z" fill="#c42430"/></g><g><path d="m165.926 215.368c2.124-3.68 9.859-11.934 18.468-19.181 3.136-2.64 7.221-4.406 9.59-1.926 1.421 1.488 2.212 3.614 1.781 6.035-1.972 11.08-4.571 23.744-6.695 27.424-1.001 1.734-2.306 3.183-3.809 4.318-4.508 3.406-7.921 1.62-13.123-1.383-6.935-4.005-10.217-8.352-6.212-15.287z" fill="#e03c3e"/></g><g><path d="m182.26 231.03c.88.51 1.79.91 2.72 1.21-4.49 3.22-10.62 3.73-15.72.79-6.93-4.01-9.31-12.88-5.3-19.81 2.12-3.68 11.79-12.26 20.4-19.51 3.21-2.7 7.45-1.89 9.78.73-7.66 6.56-15.32 13.55-17.18 16.78-4.01 6.93-1.63 15.8 5.3 19.81z" fill="#c42430"/></g><g><g><path d="m245.5 113.489c-4.142 0-7.5-3.358-7.5-7.5 0-7.355 2.277-11.466 3.939-14.467 1.329-2.399 2.061-3.721 2.061-7.2s-.732-4.801-2.061-7.2c-1.662-3.002-3.939-7.113-3.939-14.468 0-7.354 2.277-11.465 3.939-14.466 1.329-2.399 2.061-3.721 2.061-7.199 0-4.142 3.358-7.5 7.5-7.5s7.5 3.358 7.5 7.5c0 7.354-2.277 11.465-3.939 14.467-1.329 2.399-2.061 3.72-2.061 7.198 0 3.479.732 4.801 2.061 7.2 1.662 3.002 3.939 7.113 3.939 14.468s-2.277 11.466-3.939 14.468c-1.329 2.399-2.061 3.721-2.061 7.2 0 4.141-3.358 7.499-7.5 7.499z" fill="#ffe8c8"/></g></g><g><g><path d="m305.5 128.489c-4.142 0-7.5-3.358-7.5-7.5 0-7.355 2.277-11.466 3.939-14.467 1.329-2.399 2.061-3.721 2.061-7.2s-.732-4.801-2.061-7.2c-1.662-3.002-3.939-7.113-3.939-14.468 0-7.354 2.277-11.465 3.939-14.466 1.329-2.399 2.061-3.721 2.061-7.199 0-4.142 3.358-7.5 7.5-7.5s7.5 3.358 7.5 7.5c0 7.354-2.277 11.465-3.939 14.467-1.329 2.399-2.061 3.72-2.061 7.198 0 3.479.732 4.801 2.061 7.2 1.662 3.002 3.939 7.113 3.939 14.468s-2.277 11.466-3.939 14.468c-1.329 2.399-2.061 3.721-2.061 7.2 0 4.141-3.358 7.499-7.5 7.499z" fill="#ffe8c8"/></g></g><g><g><path d="m185.5 128.489c-4.142 0-7.5-3.358-7.5-7.5 0-7.355 2.277-11.466 3.939-14.467 1.329-2.399 2.061-3.721 2.061-7.2s-.732-4.801-2.061-7.2c-1.662-3.002-3.939-7.113-3.939-14.468 0-7.354 2.277-11.465 3.939-14.466 1.329-2.399 2.061-3.721 2.061-7.199 0-4.142 3.358-7.5 7.5-7.5s7.5 3.358 7.5 7.5c0 7.354-2.277 11.465-3.939 14.467-1.329 2.399-2.061 3.72-2.061 7.198 0 3.479.732 4.801 2.061 7.2 1.662 3.002 3.939 7.113 3.939 14.468s-2.277 11.466-3.939 14.468c-1.329 2.399-2.061 3.721-2.061 7.2 0 4.141-3.358 7.499-7.5 7.499z" fill="#ffe8c8"/></g></g></g></svg>