<svg width="200" height="200" xmlns="http://www.w3.org/2000/svg"><g fill="#68ca44"><path d="M72.08 49.006s-6.444-18.492.798-30.209a1.66 1.66 0 011.621-.767c3.492.437 14.753 3.256 21.547 21.372zm56.5 0s6.445-18.492-.797-30.209a1.66 1.66 0 00-1.622-.767c-3.491.437-14.753 3.256-21.546 21.372z"/><path d="M96.045 39.404l-23.963 9.601s-2.752-7.9-2.64-16.642c.062-4.636.928-9.508 3.437-13.57a1.646 1.646 0 011.601-.767c2.089.26 7.01 1.376 12.08 6.183 3.357 3.175 6.776 7.97 9.485 15.195zm32.533 9.601l-23.963-9.601c2.587-6.895 5.819-11.577 9.027-14.752 5.226-5.178 10.378-6.357 12.533-6.625.64-.08 1.268.218 1.606.766 2.482 4.017 3.357 8.829 3.434 13.422.149 8.801-2.637 16.79-2.637 16.79z"/></g><path d="M96.045 39.404l-23.963 9.601s-2.752-7.9-2.64-16.642a34.85 34.85 0 0110.787 4.54c1.134.72 2.627.05 2.832-1.275.41-2.666 1.35-6.83 3.499-11.418 3.357 3.174 6.776 7.968 9.485 15.194zm32.533 9.601l-23.963-9.601c2.587-6.895 5.819-11.577 9.027-14.752 2.005 4.414 2.9 8.396 3.297 10.976a1.85 1.85 0 002.831 1.272c3.767-2.402 7.659-3.866 11.445-4.685.149 8.801-2.637 16.79-2.637 16.79z" fill="#4fc123"/><path d="M113.3 40.587c-1.013-4.873-3.902-13.185-12.117-19.546a1.938 1.938 0 00-2.366 0C90.601 27.402 87.713 35.714 86.7 40.587c-.373 1.793-2.382 2.688-3.98 1.797-8.821-4.913-18.253-3.842-23.698-2.524-1.695.41-2.042 2.683-.542 3.572 14.555 8.63 17.072 22.37 17.072 22.37h48.898s2.517-13.74 17.072-22.37c1.5-.89 1.152-3.162-.542-3.572-5.445-1.318-14.877-2.389-23.697 2.524-1.6.891-3.608-.004-3.982-1.797z" fill="#47a920"/><path d="M127.657 57.622c-1.847 3.34-2.7 6.118-3.03 7.407H75.373c-.33-1.289-1.183-4.067-3.03-7.407a34.213 34.213 0 016.188 2.686c1.986 1.106 4.48-.007 4.946-2.234 1.259-6.052 4.843-13.85 15.052-21.753a2.41 2.41 0 012.94 0c10.21 7.903 13.794 15.7 15.053 21.753.466 2.227 2.96 3.34 4.946 2.234a34.25 34.25 0 016.189-2.686z" fill="#409617"/><path d="M113.3 63.17c-1.013-4.874-3.902-13.186-12.117-19.547a1.938 1.938 0 00-2.366 0c-8.216 6.36-11.104 14.673-12.118 19.546-.373 1.793-2.382 2.688-3.98 1.797-8.821-4.913-18.253-3.842-23.698-2.524-1.695.41-2.042 2.682-.542 3.571 14.555 8.63 17.072 22.37 17.072 22.37h48.898s2.517-13.74 17.072-22.37c1.5-.889 1.152-3.161-.542-3.57-5.445-1.32-14.877-2.39-23.697 2.523-1.6.891-3.608-.004-3.982-1.797z" fill="#68ca44"/><path d="M129.751 76.847c-4.315 6.149-5.303 11.537-5.303 11.537H75.551s-.988-5.389-5.303-11.537c6.955-4.807 15.376-7.632 24.422-7.632h10.659c9.046 0 17.467 2.825 24.422 7.632z" fill="#4fc123"/><path d="M104.948 181.986h-9.896C73.024 181.986 55 163.963 55 141.934v-24.629c0-22.028 18.023-40.052 40.052-40.052h9.896c22.028 0 40.052 18.024 40.052 40.052v24.63c0 22.028-18.024 40.051-40.052 40.051z" fill="#fedf30"/><path d="M144.998 117.304v24.63c0 22.028-18.02 40.052-40.051 40.052h-9.895a39.637 39.637 0 01-18.093-4.35 39.49 39.49 0 009.673 1.192h9.894c22.031 0 40.051-18.023 40.051-40.05v-24.632c0-15.529-8.954-29.065-21.957-35.7 17.396 4.35 30.378 20.164 30.378 38.858z" fill="#f4d01e"/><path d="M144.882 114.224c-1.835 1.642-3.996 2.943-7.434 2.943-9.28 0-9.28-9.508-18.568-9.508-9.28 0-9.28 9.508-18.568 9.508-9.28 0-9.28-9.508-18.564-9.508s-9.284 9.508-18.564 9.508c-3.807 0-6.053-1.6-8.017-3.487a39.523 39.523 0 014.147-14.393c1.098.425 2.361.677 3.87.677 9.28 0 9.28-9.508 18.564-9.508s9.284 9.508 18.564 9.508c9.288 0 9.288-9.508 18.568-9.508 9.287 0 9.287 9.508 18.568 9.508 1.27 0 2.364-.179 3.333-.487a39.613 39.613 0 014.101 14.747zm.116 17.101v10.61a39.78 39.78 0 01-.646 7.158c-1.726 1.417-3.796 2.487-6.905 2.487-9.28 0-9.28-9.508-18.567-9.508-9.28 0-9.28 9.508-18.568 9.508-9.28 0-9.28-9.508-18.564-9.508s-9.284 9.508-18.564 9.508c-3.569 0-5.769-1.406-7.65-3.14a39.777 39.777 0 01-.532-6.505V130.73c2.003 1.954 4.266 3.642 8.182 3.642 9.28 0 9.28-9.505 18.564-9.505s9.284 9.505 18.564 9.505c9.288 0 9.288-9.505 18.568-9.505 9.287 0 9.287 9.505 18.568 9.505 3.512 0 5.69-1.358 7.55-3.046zm-10.143 37.177c-7.348 8.26-18.049 13.484-29.908 13.484h-9.894c-11.807 0-22.462-5.179-29.81-13.375 7.28-1.288 7.961-9.333 16.505-9.333 9.284 0 9.284 9.505 18.564 9.505 9.288 0 9.288-9.505 18.568-9.505 8.333 0 9.189 7.649 15.975 9.224z" fill="#fac600"/><path d="M144.878 114.227c-1.834 1.64-3.994 2.941-7.431 2.941-.299 0-.59-.01-.869-.03v-2.99a39.683 39.683 0 00-2.85-14.8c1.063.39 2.277.618 3.719.618 1.271 0 2.364-.181 3.334-.49a40.53 40.53 0 011.929 4.539 38.407 38.407 0 011.954 8.114c.068.522.127 1.126.174 1.6a3.3 3.3 0 01.017.2c.01.097.02.198.023.298zm.121 17.096v10.614c0 2.506-.185 4.688-.647 7.156-1.727 1.418-3.796 2.488-6.905 2.488-1.07 0-2.015-.128-2.864-.352a39.67 39.67 0 001.995-12.451v-4.437c.279.02.57.03.869.03 3.51 0 5.69-1.358 7.552-3.048zm-10.144 37.179a37.573 37.573 0 01-1.419 1.513c-.491.498-.973.963-1.489 1.438a41.499 41.499 0 01-5.963 4.538 36.685 36.685 0 01-4.868 2.565c-2.574 1.119-5.556 2.087-8.31 2.649-.164.034-.325.067-.489.094-1.791.346-3.49.533-5.319.634-.305.016-.614.03-.922.036-.077.004-.15.004-.225.004-.301.01-.603.013-.905.013h-9.893c-.2 0-.405 0-.606-.003-3.814-.064-7.428-.6-11.087-1.747a49.237 49.237 0 01-2.408-.829c-.197-.073-.395-.15-.593-.228-.312-.124-.62-.255-.929-.385a38.17 38.17 0 01-1.958-.899 14.737 14.737 0 01-.506-.258 39.492 39.492 0 009.668 1.19h9.892c12.635 0 23.953-5.929 31.304-15.14 1.958 1.995 3.84 4.074 7.025 4.815z" fill="#e8b800"/></svg>