<svg id="Layer_1" enable-background="new 0 0 462.963 462.963" height="512" viewBox="0 0 462.963 462.963" width="512" xmlns="http://www.w3.org/2000/svg"><path d="m428.292 313.537c45.508 2.398 49.243 135.343-6.96 132.39-59.72-3.14-32.29-134.46 6.96-132.39z" fill="#ffdfba"/><path d="m435.205 337.912c-8.149 5.726-15.059 16.648-20.034 29.761-5.646 14.881-28.072 7.7-23.943-7.671 5.039-18.758 18.128-47.731 37.394-46.445 12.57.839 16.89 17.112 6.583 24.355z" fill="#ffebd2"/><path d="m327.364 308.515c-7.128-4.512-20.07-11.306-37.342-13.987 23.243-27.757 33.433-60.575 31.702-94.363-.149-2.905-1.88-5.496-4.503-6.755-7.797-3.74-20.548-8.776-36.979-10.872 12.189-33.266 6.848-69.385-15.624-98.662-1.787-2.328-4.686-3.492-7.586-3.048-15.265 2.338-29.419 7.326-38.78 12.47-.325-.644 1.594-19.729-11.14-41.06-8.913-14.935-22.495-26.729-38.014-34.438-2.236-1.111-4.855-1.111-7.091 0-9.283 4.612-26.412 14.98-38.015 34.438-12.892 21.595-10.718 40.216-11.14 41.06-9.339-5.125-23.454-10.123-38.78-12.47-2.9-.444-5.799.721-7.586 3.048-22.939 29.885-27.554 66.193-15.624 98.662-16.431 2.097-29.182 7.131-36.985 10.872-2.626 1.259-4.358 3.852-4.506 6.76-1.707 33.66 8.374 66.491 31.71 94.358-17.281 2.682-30.219 9.476-37.344 13.987-2.916 1.847-4.341 5.351-3.497 8.697 18.979 75.223 87.281 128.785 165.311 128.785 78.02 0 146.322-53.562 165.31-128.784.846-3.348-.58-6.851-3.497-8.698z" fill="#ffaa64"/><path d="m165.552 234.377c-32.628 12.407-55.472 39.912-56.12 74.91-19.418-12.877-44.19-18.558-68.35-14.76-23.292-27.814-33.421-60.637-31.71-94.358.147-2.908 1.88-5.501 4.506-6.76 54.871-26.308 121.863-6.93 151.674 40.968z" fill="#ffd3a6"/><path d="m145.612 118.517c-24.257 17.676-37.698 43.154-39.36 69.75-.196.589-23.095-9.942-55.39-5.73-11.926-32.457-7.321-68.769 15.624-98.662 1.787-2.328 4.685-3.492 7.586-3.048 29.064 4.451 53.052 17.579 71.54 37.69z" fill="#ffbd7b"/><path d="m280.242 182.537c-18.869-2.457-37.724-.299-55.38 5.76l-.01-.03c-1.662-26.59-15.078-52.057-39.36-69.75 9.11-9.91 19.95-18.323 32.76-25.22 11.932-6.425 25.599-10.451 38.78-12.47 2.9-.444 5.799.721 7.586 3.048 22.477 29.284 27.808 65.413 15.624 98.662z" fill="#ffbd7b"/><path d="m218.242 93.277c.145.287-16.486 7.548-32.75 25.24-7.68-5.59-14.87-9.26-19.94-11.53-5.07 2.27-12.26 5.94-19.94 11.53-16.786-18.26-32.93-24.88-32.75-25.24-.267-33.004 19.575-60.789 49.145-75.478 2.236-1.111 4.854-1.111 7.091 0 29.123 14.469 49.415 42.041 49.144 75.478z" fill="#ffd3a6"/><path d="m317.221 193.41c2.623 1.259 4.354 3.849 4.503 6.755 1.729 33.761-8.434 66.577-31.702 94.363-23.788-3.733-48.569 1.642-68.35 14.76-.68-35.217-23.686-62.576-56.12-74.91 29.72-47.753 96.66-67.362 151.669-40.968z" fill="#ffd3a6"/><path d="m339.382 289.697c43.56 0 67.65 125.34 12.87 131.82-60.233 7.121-54.885-131.82-12.87-131.82z" fill="#ffdfba"/><path d="m312.712 436.307c-42.63 41.93-120.99-66.95-92.97-94.51 32.482-31.948 133.102 55.037 92.97 94.51z" fill="#ffdfba"/><path d="m428.982 423.728c-4.816 5.231-10.864 10.29-17.753 14.915-3.055 2.051-7.123 1.81-9.852-.658-2.51-2.271-4.667-4.964-6.495-7.997 21.94-12.38 37.495-30.32 32.185-47.3-3.58-11.45-18.435-17.53-36.815-18.841.748-3.142 1.6-6.231 2.549-9.239 1.213-3.846 5.102-6.151 9.074-5.458 17.96 3.132 35.193 11.596 40.467 28.757 4.71 15.06-.03 31.34-13.36 45.821z" fill="#facb96"/><path d="m311.232 437.688c-3.027 2.69-6.222 4.656-9.536 5.978-3.43 1.369-7.334.232-9.511-2.751-2.986-4.09-5.307-8.722-6.902-13.828-5.264-16.809-1.845-34.015 11.163-48.227 3.398-3.712 9.408-3.328 12.334.767 2.298 3.216 1.223 1.359 2.764 6.77-10.38 9.37-15.52 21.449-10.99 35.909 2.078 6.651 5.798 11.712 10.678 15.382z" fill="#facb96"/><path d="m267.609 412.43c8.439 10.488-5.817 24.119-15.846 15.138-28.193-25.245-48.496-69.565-32.021-85.771 3.768-3.706 8.332-5.714 13.244-6.505 8.16-1.314 14.743 6.483 12.183 14.342-5.243 16.095 5.684 41.972 22.44 62.796z" fill="#ffebd2"/><path d="m345.413 305.433c-13.899 12.884-20.396 45.19-17.137 73.893 1.28 11.272-15.108 14.313-17.739 3.278-9.146-38.369 2.393-93.171 29.071-92.905 8.149.081 11.781 10.193 5.805 15.734z" fill="#ffebd2"/><path d="m427.067 382.687c13.609 43.48-109.705 93.33-126.515 39.62-17.87-57.07 114.774-77.129 126.515-39.62z" fill="#ffdfba"/><path d="m383.752 363.587c-23.87-.269-55.165 7.176-72.21 22.811-1.15-4.04-2.03-8.313-2.674-12.549-.487-3.204.993-6.379 3.756-8.073 17.557-10.763 40.535-16.789 61.927-17.98 4.158-.231 7.81 2.791 8.354 6.92.39 2.961.675 5.925.847 8.871z" fill="#facb96"/><path d="m360.185 384.506c-21.461 7.62-38.617 20.782-41.434 36.9-1.661 9.505-15.118 10.429-18.089 1.249-9.887-30.548 23.145-49.571 54.558-56.178 11.489-2.417 16.029 14.1 4.965 18.029z" fill="#ffebd2"/></svg>