<svg id="Layer_3" enable-background="new 0 0 64 64" height="512" viewBox="0 0 64 64" width="512" xmlns="http://www.w3.org/2000/svg"><g><path d="m38 8h-7.548c-2.459 0-4.452 1.993-4.452 4.452 0 .364.045.727.133 1.08l1.867 7.468 20.755 14.123z" fill="#52a04f"/><path d="m26 12.452c0 .364.045.727.133 1.08l1.867 7.468 15.797 10.749-10.797-23.749h-2.548c-2.459 0-4.452 1.993-4.452 4.452z" fill="#6db569"/><path d="m48 47c-3.658 7.925-11.589 13-20.318 13-9.312 0-18.151-4.1-24.166-11.208l-1.516-1.792 2.59-1.554" fill="#e7b541"/><path d="m62 33.4c0 3.55-1.58 6.91-4.3 9.18l-1.7 1.42c-1.28 1.28-3.02 2-4.83 2-4.04 0-8.01-1.08-11.49-3.13l-4.5-2.65c-2.36-1.39-4.57-3.03-6.57-4.88-2.01-1.85-3.81-3.92-5.39-6.16-1.453-2.088-2.234-4.573-2.22-7.127.004-.675.179-1.761.338-2.417.444-1.844.662-3.74.662-5.636l23 16-9.706-20.294c-.852-1.781-1.294-3.731-1.294-5.706 1.32.66 2.77 1 4.24 1 3.14 0 6.25.64 9.14 1.88 6.05 2.59 10.52 7.9 12.04 14.3l2.26 9.46c.21.9.32 1.83.32 2.76z" fill="#e7b541"/><path d="m61.68 30.64-2.26-9.46c-1.52-6.4-5.99-11.71-12.04-14.3-2.89-1.24-6-1.88-9.14-1.88-1.47 0-2.92-.34-4.24-1 0 1.975.442 3.925 1.294 5.706l9.706 20.294-22.143-15.404c-.109 1.023-.278 2.039-.519 3.04-.158.657-.334 1.742-.338 2.417-.014 2.553.767 5.039 2.22 7.127 1.58 2.24 3.38 4.31 5.39 6.16 2 1.85 4.21 3.49 6.57 4.88l4.5 2.65c3.48 2.05 7.45 3.13 11.49 3.13 1.81 0 3.55-.72 4.83-2l1.7-1.42c.975-.814 1.797-1.772 2.459-2.825.539-1.373.841-2.844.841-4.355 0-.93-.11-1.86-.32-2.76z" fill="#f9cb6e"/><path d="m61.68 30.64-2.26-9.46c-1.52-6.4-5.99-11.71-12.04-14.3-2.89-1.24-6-1.88-9.14-1.88-1.47 0-2.92-.34-4.24-1 0 1.975.442 3.925 1.294 5.706l9.706 20.294 11.583 13.513 1.117-.933c2.72-2.27 4.3-5.63 4.3-9.18 0-.93-.11-1.86-.32-2.76z" fill="#ffd997"/><path d="m61.159 37.755c-.662 1.053-1.484 2.011-2.459 2.825l-1.7 1.42c-.31.31-.647.585-1.006.827l.588.686 1.118-.933c1.836-1.532 3.136-3.567 3.798-5.815-.1.334-.212.665-.339.99z" fill="#f9cb6e"/><path d="m4.449 45.531 1.067 1.261c6.015 7.108 14.854 11.208 24.166 11.208 5.576 0 10.821-2.079 14.841-5.641 1.388-1.587 2.566-3.384 3.477-5.359l-43.41-1.554z" fill="#f9cb6e"/><path d="m4.895 42.737-1.895 1.263 1.812 1.647c5.912 5.375 13.615 8.353 21.606 8.353 4.986 0 9.904-1.161 14.364-3.391l7.218-3.609" fill="#52a04f"/><path d="m7 44c7.218 3.937 15.308 6 23.53 6h.926c5.65 0 11.254-1.016 16.544-3v-.785c0-7.295-4.668-13.771-11.589-16.078-4.246-1.415-8.693-2.137-13.169-2.137-7.792 0-15.218 3.307-20.431 9.099-.522.58-.811 1.333-.811 2.113 0 1.109.582 2.137 1.533 2.708z" fill="#e7b541"/><path d="m34.411 31.137c-4.246-1.415-8.693-2.137-13.169-2.137-3.895 0-7.699.827-11.181 2.377-2.693 1.472-5.153 3.392-7.25 5.722-.522.58-.811 1.333-.811 2.113 0 1.109.582 2.137 1.533 2.708l3.467 2.08c7.218 3.937 15.308 6 23.53 6h.926c4.943 0 9.851-.778 14.544-2.301v-.484c0-7.295-4.668-13.771-11.589-16.078z" fill="#f9cb6e"/><g><path d="m35 47h-4.398c-9.111 0-17.821-2.832-25.19-8.191l1.177-1.617c7.023 5.108 15.327 7.808 24.013 7.808h4.398z" fill="#ffe1b6"/></g></g></svg>