<svg width="200" height="200" xmlns="http://www.w3.org/2000/svg"><path d="M111.645 48.844c1.731-4.371 4.763-8.298 8.866-11.289l-6.821-7.826c-6.825 4.976-11.516 11.811-13.542 19.342l5.279 6.603 6.218-6.83z" fill="#ad7136"/><path d="M120.614 47.834c-5.299 0-10.402 1.039-15.187 2.954-4.785-1.915-9.887-2.954-15.187-2.954-27.275 0-49.386 27.409-49.386 61.219 0 33.809 22.111 61.218 49.386 61.218 5.299 0 10.402-1.039 15.187-2.954 4.785 1.915 9.887 2.954 15.187 2.954 27.275 0 49.386-27.408 49.386-61.218s-22.111-61.219-49.386-61.219z" fill="#654b87"/><path d="M95.409 169.939c-1.697.22-3.423.332-5.167.332-27.275 0-49.389-27.408-49.389-61.219s22.114-61.219 49.389-61.219c1.744 0 3.47.112 5.167.332-12.211 3.214-21.735 29.248-21.735 60.887s9.524 57.673 21.735 60.887z" fill="#463068"/></svg>