<svg height="512" viewBox="0 0 496 496" width="512" xmlns="http://www.w3.org/2000/svg"><path d="M416.841 306.104c0 64.688-47.875 117.13-106.93 117.13-59.057 0-106.931-52.442-106.931-117.13 0-64.689 47.874-104.67 106.931-104.67 59.055 0 106.93 39.981 106.93 104.67z" fill="#d14949"/><path d="M367.964 216.46c18.523 18.024 29.914 43.699 29.914 75.252 0 22.972-6.037 44.398-16.468 62.482-6.542 11.34-18.37 19.193-31.973 21.687-.22.041-.43.08-.631.12-9.145 1.794-16.538-.229-24.154 4.799-8.232 5.435-.15 25.502-37.592 27.964l-.019.002c-17.008-.669-33.003-5.689-47.087-14.076 18.752 17.784 43.206 28.544 69.957 28.544 59.055 0 106.93-52.442 106.93-117.13 0-41.247-19.463-72.446-48.877-89.644z" fill="#ffa763"/><path d="M202.981 306.104c0 39.911 18.222 75.157 46.051 96.305 57.863-15.053 100.904-72.029 100.904-140.017 0-21.66-4.369-41.066-12.193-57.836-8.874-2.06-18.205-3.122-27.831-3.122-59.058 0-106.931 39.981-106.931 104.67z" fill="#9d3535"/><path d="M334.191 247.787c0 79.479-58.82 143.909-131.378 143.909-72.558 0-131.377-64.43-131.377-143.909 0-79.478 58.819-128.6 131.378-128.6 72.557 0 131.377 49.122 131.377 128.6z" fill="#d14949"/><path d="M242.312 385.078c53.257-18.367 91.879-72.889 91.879-137.29 0-70.393-46.142-116.975-107.102-126.703-2.098 4.883 3.049 10.616 8.572 14.465 22.181 15.464 43.557 33.608 55.215 57.466 9.657 19.763 11.497 43.664.584 62.858-7.098 12.487-19.579 23.97-18.062 38.015.702 6.51 4.44 12.368 6.361 18.663 5.274 17.288-3.701 35.686-15.662 49.819-6.735 7.957-14.477 15.187-21.785 22.707z" fill="#ffa763"/><path d="M111.537 247.787c0-72.01 48.286-119.101 111.327-127.314a154.957 154.957 0 00-20.05-1.286c-72.559 0-131.378 49.122-131.378 128.6 0 79.479 58.819 143.909 131.378 143.909 6.816 0 13.513-.569 20.05-1.666-63.041-10.573-111.327-70.231-111.327-142.243z" fill="#9d3535"/><g fill="#9d3535"><path d="M159.333 293.76c-3.256 0-6.07-2.259-6.463-5.332-8.062-62.932 8.673-106.69 24.131-132.318 16.927-28.062 35.804-41.019 36.6-41.556 2.908-1.966 6.985-1.374 9.104 1.323 2.12 2.695 1.483 6.472-1.418 8.44-.341.235-17.82 12.421-33.268 38.29-14.326 23.99-29.808 65.044-22.205 124.394.458 3.58-2.55 6.76-6.48 6.76z"/><path d="M214.717 124.75c-3.08-1.727-4.069-5.443-2.208-8.3 4.402-6.756 5.433-20.61 2.76-37.057-.537-3.301 1.913-6.38 5.472-6.879 3.564-.5 6.88 1.775 7.417 5.076 1.856 11.423 3.741 32.474-4.492 45.113-1.871 2.87-5.883 3.766-8.949 2.047zm-51.912 193.88c-3.595 0-6.517-2.703-6.517-6.045 0-3.854 3.83-6.673 7.788-5.924 1.71.312 3.211 1.254 4.147 2.57 1.701 2.337 1.412 5.558-.807 7.631-1.162 1.079-2.83 1.768-4.61 1.768z"/></g><path d="M278.815 241.832c-2.326 3.071-6.483 6.041-10.995 5.954-5.019-.097-7.755-3.86-8.421-7.432-.936-5.022 1.872-31.42 16.097-30.074 5.756.545 6.382 10.523 6.943 13.942.942 5.758.633 11.985-3.624 17.61zm89.321 116.377c2.084-1.447 4.214-3.349 4.255-5.763.046-2.728-2.839-4.938-5.772-5.149-2.932-.209-5.756 1.128-8.057 2.828-3.196 2.361-9.729 8.68-6.122 12.87 3.596 4.179 12.432-2.517 15.696-4.786z" fill="#ffa763"/></svg>