<svg width="200" height="200" xmlns="http://www.w3.org/2000/svg"><path d="M143.214 171.05c1.41-11.516-29.71-65.086-41.022-78.863C77.376 61.963 55.23 52.73 23.81 76.942c17.478-20.658 33.765-22.534 53.954-15.915 0 0 20.582 12.487 25.944 18.717 18.753 21.792 45.61 57.778 50.088 78.548 0 0-5.661 6.38-10.58 12.758z" fill="#f9eab0"/><path d="M147.83 165.344c1.407-11.485-29.611-64.906-40.887-78.645C82.207 56.56 60.128 47.354 28.8 71.507c17.428-20.605 33.666-22.48 53.793-15.88 0 0 20.518 12.449 25.862 18.662 18.693 21.73 45.868 58.207 50.33 78.92 0 0-6.05 5.773-10.955 12.135z" fill="#fff5ce"/><path d="M91.778 131.61a21.68 21.68 0 01-1.387-1.652c-5.457-7.232-13.906-11.7-23.678-12.522l-8.014-.672c-9.774-.823-18.223-5.29-23.68-12.523-5.754-7.626-7.2-17.215-5.725-26.909 3.022-19.86 10.434-32.408 29.426-39.758 4.741-1.834 5.712-2.038 10.491-3.028 18.059-3.741 27.17-.915 35.683 4.936 2.778 1.91 5.048 4.353 7.117 7.098l15.224 20.177 5.27 6.984 7.244 9.604c9.092 12.05 5.733 35.525-8.45 46.65l-1.934 1.516c-12.432 9.753-28.759 9.633-37.587.1zm0 0" fill="#d96b5d"/><path d="M97.943 120.873a22.66 22.66 0 01-1.35-1.63c-5.308-7.134-13.534-11.548-23.053-12.368l-7.802-.676c-9.52-.822-17.744-5.235-23.055-12.368-5.6-7.521-7.731-17.057-5.562-26.519 2.47-10.777 10.363-22.378 20.225-27.884 11.366-6.343 32.025-8.941 44.503-1.25a35.143 35.143 0 019.786 8.96l14.817 19.9 5.126 6.887 7.05 9.47c8.306 11.159 5.264 28.145-6.57 39.234-11.73 7.725-26.099 7.015-34.115-1.756zm0 0" fill="#fff7dd"/><path d="M74.024 103.274a43.324 43.324 0 00-2.582-.305l-7.804-.673c-7.812-.676-14.516-4.271-18.877-10.127-8.482-11.393-6.025-28.453 5.028-40.439 8.732-3.497 25.442-2.036 26.67 11.486.91 10.036 13.307 8.75 14.961 12.435.377.84 3.66 8.323 7.285 5.467 3.081-2.427 2.18 5.602-1.02 7.139-9.94 4.77-6.36 16.42-11.826 15.287-2.264-.47-8.76-1.555-11.835-.27zm47.444-7.636c.45 1.183-1.251 4.038-2.28 6.184-1.571 3.278-.656 7.552.8 8.922 3.142 2.957 5.027 5.771 4.266 9.85l4.407-3.332c10.487-8.302 13.556-22.39 6.841-31.41l-4.81-6.366c-.745.605-1.141 4.048-3.511 6.235-6.105 5.634-6.753 7.166-5.713 9.917zm.015 26.346c3.106-6.993-3.482-9.139-3.915-11.782-3.013-18.29-15.737-9.901-16.311-14.938-1.628-14.291-14.899 6.589-8.744 15.907a35.329 35.329 0 016.16 6.406c4.973 6.68 14.373 8.22 22.81 4.407zM79.803 63.18c2.066 6.738 12.61 13.766 16.189 2.017 1.061-3.478 1.787-6.734 8.369-8.744 2.518-.771 3.61-2.89 3.763-5.743.163-3.08-2.527-3.845-2.599-4.542-11.947-11.767-32.603-12.05-49.032-.306 8.424 1.167 18.531 1.728 23.31 17.318zm23.23 24.052c.774 4.804 6.808 6.081 13.025 4.982 6.037-1.065 11.006-8.522 12.82-15.259l-18.588-24.93c.384 1.392-.141 5.748-7.907 7.533-4.444 1.021-8.902 15.204-6.174 18.459 2.109 2.515 4.728-1.594 6.617 1.346 2.56 3.986-.5 3.485.208 7.868z" fill="#ff8b79"/><path d="M108.703 101.38c-3.54-4.756-3.72-10.74-.403-13.365 3.315-2.623 8.875-.898 12.415 3.856 3.538 4.755 3.72 10.737.402 13.362-3.317 2.627-8.876.9-12.414-3.853zm0 0" fill="#f9eab0"/></svg>