<svg id="Layer_1" height="512" viewBox="0 0 512 512" width="512" xmlns="http://www.w3.org/2000/svg" data-name="Layer 1"><path d="m495.53 232.5a69.186 69.186 0 0 0 -5.35-19.61h.01c12.56-27.6.85-43.54-10.53-51.88l.12-.16c-36.73-91.95-107.75-39.08-107.75-39.08v.06c-8.17.29-17.42 1.85-25.55 6.22v.01a39.252 39.252 0 0 0 -5.71 3.71c.58 10.58-2.46 23.33-15.78 34.13v.01c-.7.57-1.44 1.14-2.2 1.7-13.75 8.17-25.75 22.61-29.21 47.93l.01.02c-.9.6-1.77 1.22-2.61 1.85h-.01c-.51 22.16-9.72 34.83-19.07 42l.35.46a9.1 9.1 0 0 0 -1.5 6.08c-16.35 10.15-27.57 28.42-21.86 60.86-18.78 22.75-7.91 57.43-7.91 57.43a32.282 32.282 0 0 0 -4.14 17.79c.88 27.15 16.49 32.07 16.96 32.22l101 25.7.18.12s15.99 8.83 34.56-11.59c4.67-5.12 6.07-11.87 5.6-19.04l.09-.01s36.07-12 35.81-43.55h.01c29.35-10.89 31.9-35.54 28.39-55.25 0 0 27.81-17.71 16.21-53.67l.08-.03c18.58-11.16 21.65-28.94 19.8-44.43z" fill="#ffe7b3"/><g fill="#f5cb52"><path d="m261.66 40.44c-15.66-5.25-36.88-5.4-54.87 18.9-20.76-2.5-43.08 2.89-53.36 32.13-32.88 4.7-42.83 35.4-42.83 35.4-19.07 2.05-37.05 13.62-46.1 45.17-26.84 12.26-32.25 48.2-32.25 48.2a32.428 32.428 0 0 0 -11.52 14.2c-11.28 25.18 1.15 36.38 1.15 36.38l79.72 67.1s10.48 15.19 36.13 4.93c6.1-2.44 10.2-7.45 12.93-13.63 0 0 38.59 4.35 52.05-25.07 30.46 2.94 43.58-16.95 49.2-35.7h.01a47.194 47.194 0 0 0 19.98-9.04c9.35-7.17 18.56-19.84 19.07-42h.01c.84-.63 1.71-1.25 2.61-1.85l-.01-.02c3.46-25.32 15.46-39.76 29.21-47.93.76-.56 1.5-1.13 2.2-1.7v-.01c13.32-10.8 16.36-23.55 15.78-34.13a39.252 39.252 0 0 1 5.71-3.71v-.01c7.22-98.71-84.82-87.61-84.82-87.61z"/><path d="m75.64 270.63a27.861 27.861 0 0 0 -15.44-7.85l-14.68-2.29"/><path d="m253.8 434.25c-.4-5.54 2.48-9.96 5.63-13.09a26.916 26.916 0 0 1 11.11-6.52l14.23-4.35a27.885 27.885 0 0 1 17.28.32c20.01 6.93 65.83 25.62 53.6 47.9-.27.49-.55.97-.85 1.44-16.45 26.35-66.25 12.6-90.65-8.92-7.2-6.35-10.01-11.99-10.35-16.78z"/></g><path d="m40.73 254.44a32.428 32.428 0 0 1 11.52-14.2s5.41-35.94 32.25-48.2c9.05-31.55 27.03-43.12 46.1-45.17 0 0 9.95-30.7 42.83-35.4 10.28-29.24 32.6-34.63 53.36-32.13 17.99-24.3 39.21-24.15 54.87-18.9 0 0 29.766-3.58 54.116 11.48-23.076-37.62-74.116-31.48-74.116-31.48-15.66-5.25-36.88-5.4-54.87 18.9-20.76-2.5-43.08 2.89-53.36 32.13-32.88 4.7-42.83 35.4-42.83 35.4-19.07 2.05-37.05 13.62-46.1 45.17-26.84 12.26-32.25 48.2-32.25 48.2a32.428 32.428 0 0 0 -11.52 14.2c-11.28 25.18 1.15 36.38 1.15 36.38l15.912 13.393c-2.241-5.805-3.429-15.561 2.938-29.773z" fill="#c9a243"/><path d="m75.64 270.63c14.97 14.98 47.96 51.76 27.22 66.45-.42.29-.84.58-1.26.84-26.34 16.72-65.22-17.44-77.77-47.49-3.69-8.86-3.74-15.14-1.95-19.61 2.06-5.16 6.59-7.88 10.79-9.32a26.919 26.919 0 0 1 12.85-1.01l14.68 2.29a27.861 27.861 0 0 1 15.44 7.85z" fill="#ffde8d"/><path d="m43.83 310.43c-3.69-8.86-3.74-15.14-1.95-19.61 2.06-5.16 6.59-7.88 10.79-9.32a26.919 26.919 0 0 1 12.85-1.01l14.68 2.29a27.846 27.846 0 0 1 9.761 3.486c-5.15-6.195-10.365-11.677-14.321-15.636a27.861 27.861 0 0 0 -15.44-7.85l-14.68-2.29a26.919 26.919 0 0 0 -12.85 1.01c-4.2 1.44-8.73 4.16-10.79 9.32-1.79 4.47-1.74 10.75 1.95 19.61 5.977 14.311 17.926 29.55 31.648 39.785a91.634 91.634 0 0 1 -11.648-19.785z" fill="#ceae67"/></svg>