<svg height="512" width="512" xmlns="http://www.w3.org/2000/svg"><path d="M359.535 135.253H146.622c-27.335 0-49.494 22.315-49.494 49.844v221.007c0 27.529 22.159 49.845 49.494 49.845h212.912c27.333 0 49.493-22.316 49.493-49.845V185.097c.001-27.529-22.159-49.844-49.492-49.844z" fill="#e0e0e0"/><path d="M359.535 135.253h-14.633c27.335 0 49.494 22.315 49.494 49.844v221.007c0 27.529-22.159 49.845-49.494 49.845h14.633c27.333 0 49.493-22.316 49.493-49.845V185.097c0-27.529-22.16-49.844-49.493-49.844z" fill="#ccc"/><path d="M150.578 104.482h205v30.771h-205z" fill="#c6c6c6"/><path d="M340.946 104.482h14.632v30.771h-14.632z" fill="#bababa"/><path d="M97.128 219.998h311.899v141.876H97.128z" fill="#9dfdff"/><path d="M394.396 219.998h14.632v141.876h-14.632z" fill="#83d8d9"/><path d="M366.372 104.482H139.784c-6.727 0-12.181-5.493-12.181-12.269V62.161c0-6.775 5.454-12.267 12.181-12.267h226.588c6.727 0 12.182 5.492 12.182 12.267v30.052c0 6.776-5.455 12.269-12.182 12.269z" fill="#ff4755"/><path d="M366.372 49.894h-14.633c6.728 0 12.183 5.492 12.183 12.267v30.052c0 6.776-5.455 12.269-12.183 12.269h14.633c6.727 0 12.182-5.493 12.182-12.269V62.161c0-6.775-5.455-12.267-12.182-12.267z" fill="#fc2b3a"/><path d="M211.562 319.674c-1.667-4.351-.481-10.616-.481-10.616l-.365-4.178c-.206-15.498 4.693-30.573 8.84-40.49 4.884-11.683 5.967-17.461 6.482-18.245.107-.557.99-4.275 5.247-5.886 4.754-2.892 14.861-7.762 22.747-7.762 3.361 0 6.064.87 8.032 2.588 6.656 5.803 7.75 9.725 7.496 11.994-.227 2.041-1.516 3.186-2.164 3.64l.104.388c.305 1.145-.007 3.5-5.513 6.42-2.478 1.314-4.881 1.954-7.348 1.954-3.347 0-6.147-1.228-8.418-2.225a76.81 76.81 0 00-1.066-.46c-.832-.35-1.62-.382-2.317-.084-1.38.592-2.253 2.355-2.548 3.277.317 1.641 4.391 25.667.798 38.597-.108-3.333 44.85-1.143 45.607 2.542l-.364 2.15c-1.44 8.482-.07 27.6-13.202 40.61l-1.098 1.087-1.522-.491c-9.279 2.802-43.922-9.404-49.839-17.222-2.34-3.092-7.593-3.636-9.107-7.588z" fill="#fccc9a"/><path d="M269.56 247.079c-.227 2.041-1.516 3.186-2.164 3.64l.104.388c.305 1.145-.007 3.5-5.513 6.42-2.478 1.314-4.881 1.954-7.348 1.954-3.347 0-6.147-1.228-8.418-2.225a76.81 76.81 0 00-1.066-.46.538.538 0 00-.06-.022c1.039.222 2.096.335 3.154.339 2.603 0 5.206-.71 7.96-2.172 3.663-1.943 4.884-3.344 5.26-3.904a4.075 4.075 0 01-.298-2.733c.315-1.297 1.159-2.352 2.384-2.981.198-.14.855-.678.976-1.755.11-.979-.107-4.367-6.252-10.508 1.463.43 2.73 1.105 3.785 2.023 6.656 5.805 7.75 9.727 7.496 11.994zm-25.93 9.44a2.54 2.54 0 00-.792.193c-1.38.592-2.253 2.355-2.548 3.277.316 1.633 4.717 25.411 1.212 38.377l-.163.07-.008.002-.09.038-.021.01-.029.012a29.15 29.15 0 00-.615.276l-.008.005-.289.135-.011.005c-.225.107-.45.217-.671.33-1.291.659-2.818 1.576-3.168 2.377l-.001.001-.017.04-.06-.01c4.99-11.446.582-32.965-.377-39.367-.957-6.402 7.655-5.771 7.655-5.771z" fill="#202121" opacity=".19"/><path d="M265.427 343.436l.85-.8c6.478-6.077 11.652-14.73 15.378-25.717 2.414-7.121 3.512-13.173 3.951-16.147l.061-.414c.14-.948 1.07-1.659 2.17-1.659h5.462c1.208 0 2.187.85 2.187 1.9v44.126c0 1.049-.979 1.9-2.187 1.9h-26.267c-.869 0-1.655-.447-2.004-1.139-.348-.692-.192-1.497.399-2.052z" fill="#6094bc"/><path d="M291.426 319.184a106.465 106.465 0 004.06-15.762v41.315c0 1.042-.979 1.888-2.187 1.888h-17.911c6.705-6.67 12.099-15.893 16.038-27.441z" opacity=".19" fill="#432dce"/></svg>