<svg width="200" height="200" xmlns="http://www.w3.org/2000/svg"><path d="M108.749 27.999l-1.797-1.854a2.415 2.415 0 00-3.647.17c-3.079 3.826-9.392 12.809-13.029 25.929v2.546h12.351v-2.546c1.138-9.389 4.901-17.877 6.584-21.308a2.582 2.582 0 00-.462-2.937zm0 0" fill="#96cd82"/><path d="M107.745 26.963l-.793-.818a2.415 2.415 0 00-3.647.17c-3.079 3.826-9.392 12.809-13.029 25.929v2.546h4.94v-2.546c3.462-12.486 9.314-21.168 12.529-25.281zm0 0" fill="#7dbe81"/><path d="M97.687 174.468h14.821c34.108 0 61.758-13.913 61.758-61.111 0-47.199-27.649-61.113-61.758-61.113H97.687zm0 0" fill="#ffaa5f"/><path d="M97.687 174.468h10.996c25.307 0 45.821-13.913 45.821-61.111 0-47.199-20.514-61.113-45.821-61.113H97.687zm0 0" fill="#ffc369"/><path d="M97.687 52.244H82.866c-34.109 0-61.758 13.914-61.758 61.113 0 47.198 27.649 61.111 61.758 61.111h14.821zm0 0" fill="#ff7350"/><path d="M97.687 52.244H86.69c-25.306 0-45.82 13.914-45.82 61.113 0 47.198 20.514 61.111 45.82 61.111h10.997zm0 0" fill="#ff8c5a"/><path d="M122.39 113.357c0-51.302-11.06-61.113-24.703-61.113-13.644 0-24.704 9.809-24.704 61.113 0 51.302 11.06 61.111 24.704 61.111 13.643 0 24.703-9.81 24.703-61.111zm0 0" fill="#ffaa5f"/></svg>