<svg viewBox="0 0 512 512" xmlns="http://www.w3.org/2000/svg"><g transform="matrix(1.0979 0 0 1.09775 5.966 -1.037)"><path d="M292.098 221.196c-.735-3.056-218.235 2.491-215.658.709 1.182-.818 6.155.294 4.745 1.75-2.191 2.263-12.635 2.695-14.723.026-.802-1.024-3.697-9.478-4.172-9.615-4.295-1.242-8.478-3.553-9.279-8.507-.351-2.17-.008-21.759 5.009-16.538 1.148 1.195-2.115-2.606-2.842-4.118-1.074-2.234-2.074-4.64-2.748-7.042-1.682-5.985-4.779-22.097.757-27.023 1.065-.948 11.948-5.861 12.173-6.334 2.14-4.49 1.216-8.754 8.115-9.707 4.851-.67 10.814-.424 15.734 0 .006.001 4.977 1.373 4.978 1.371 5.148-12.245 15.291-22.541 24.741-31.496 3.154-2.988 11.616-7.528 16.353-4.957 3.491 1.895 8.78 10.454 13.09 9.101 8.581-2.695 15.414-9.063 24.617-10.026 3.475-.364 7.491-.725 10.991-.272.669.087 3.144 2.555 3.407 2.416 6.918-3.651 9.214-10.114 19.175-8.31 6.734 1.22 19.761 12.987 24.7 18.122.411.427 4.048-1.894 4.564-2.075 4.76-1.677 10.895-2.131 15.875-2.483 3.32-.234 8.448-.912 11.299 1.203 2.33 1.729 4.799 8.844 6.772 9.603 6.416 2.475 22.221-9.843 28.788-12.159 2.663-.938 7.624-1.473 10.339-.465.588.217 6.827 5.415 6.999 5.217 3.923-4.509 7.496-14.586 13.467-16.434 15.315-4.741 19.054 15.473 28.377 20.32 2.642 1.374 9.927-4.894 11.525-.45 2.861 7.958-.84 19.338 2.427 26.135 3.293 6.849 14.22 3.298 16.874 10.263 1.791 4.698 1.963 13.35.174 17.973-.251.646-3.525 7.638-3.057 8.183 1.823 2.121 7.277.789 9.872 4.906 3.017 4.785-1.595 10.038-1.595 14.498 0 2.116 2.077 3.386 2.672 5.18.831 2.511-.406 5.625-1.398 7.659-1.809 3.706 3.979 10.398 2.869 15.386-.695 3.124-3.269 7.702-5.464 9.978-7.175 7.439-98.597-3.897-100.542-11.988z" fill="#ffede1"/><path d="M116.946 219.706c1.483 3.226 272.624 5.557 273.014 5.438 3.521-1.08 6.95-3.094 7.607-7.407.288-1.889.007-18.945-4.107-14.399-.94 1.04 1.734-2.27 2.331-3.585.881-1.946 1.701-4.04 2.254-6.13 1.38-5.213 3.917-19.242-.622-23.53-.873-.826-9.797-5.103-9.982-5.515-1.755-3.909-.997-7.622-6.654-8.452-3.977-.584-8.867-.369-12.902 0-.005.001-4.08 1.195-4.082 1.193-4.22-10.66-12.538-19.624-20.287-27.422-2.586-2.602-9.524-6.555-13.41-4.316-2.863 1.65-7.199 9.103-10.733 7.924-7.037-2.347-12.639-7.89-20.186-8.729-2.849-.318-6.142-.632-9.012-.238-.549.076-2.578 2.226-2.794 2.104-5.672-3.179-7.556-8.806-15.723-7.234-5.522 1.062-16.204 11.306-20.254 15.777-.337.372-3.32-1.648-3.742-1.806-3.904-1.46-8.934-1.856-13.018-2.16-2.722-.206-6.928-.796-9.265 1.045-1.91 1.505-3.936 7.701-5.552 8.362-5.263 2.155-18.222-8.57-23.607-10.587-2.184-.817-6.252-1.282-8.478-.405-.482.19-5.599 4.715-5.739 4.543-3.217-3.926-6.147-12.7-11.042-14.309-12.559-4.129-15.625 13.471-23.269 17.692-2.167 1.196-8.14-4.262-9.45-.392-2.348 6.928.688 16.837-1.99 22.756-2.702 5.963-11.662 2.871-13.838 8.936-1.469 4.09-1.61 11.623-.142 15.648.205.563 2.89 6.65 2.506 7.124-1.495 1.847-5.967.688-8.095 4.272-2.474 4.166 1.308 8.74 1.308 12.624 0 1.842-1.704 2.947-2.19 4.51-.682 2.186.332 4.897 1.145 6.668z" fill="#f6e9e0"/><path d="M53.295 231.636c-.843 2.197 348.685-14.321 343.594-9.751-1.165 1.045 2.147-2.282 2.884-3.604 1.09-1.956 2.105-4.062 2.789-6.163 1.707-5.24 4.849-19.342-.768-23.654-1.081-.83-12.124-5.128-12.353-5.543-2.171-3.93-1.233-7.662-8.233-8.496-4.923-.587-10.974-.371-15.967 0-.006 0-5.05 1.2-5.051 1.199-5.223-10.717-15.515-19.728-25.105-27.566-3.2-2.616-11.786-6.59-16.593-4.34-3.543 1.66-8.91 9.152-13.283 7.967-8.708-2.36-15.64-7.933-24.98-8.776-3.525-.318-7.6-.634-11.151-.238-.68.076-3.191 2.237-3.458 2.115-7.02-3.196-9.35-8.853-19.457-7.273-6.833 1.068-20.052 11.366-25.064 15.86-.416.375-4.107-1.656-4.63-1.815-4.831-1.468-11.055-1.865-16.11-2.173-3.368-.205-8.572-.8-11.464 1.053-2.365 1.513-4.87 7.74-6.871 8.405-6.511 2.166-22.55-8.616-29.213-10.643-2.702-.821-7.736-1.288-10.491-.407-.596.19-6.927 4.74-7.102 4.567-3.98-3.947-7.606-12.767-13.664-14.384-15.541-4.15-19.335 13.542-28.795 17.785-2.681 1.202-10.073-4.285-11.694-.394-2.904 6.965.852 16.926-2.463 22.875-3.342 5.995-14.43 2.887-17.123 8.983-1.817 4.112-1.992 11.685-.176 15.73.254.567 3.577 6.686 3.102 7.162-1.85 1.857-7.384.692-10.018 4.295-3.061 4.188 1.619 8.786 1.619 12.69 0 1.852-2.108 2.963-2.711 4.534z" fill="#fff9f5"/><rect x="120.74" y="338.772" width="214.809" height="63.011" rx="7.697" ry="7.697" fill="#53e3f3"/><path d="M407.285 222.193c0 89.333-80.204 161.752-179.141 161.752S49.003 311.526 49.003 222.193c0-3.369.114-6.715.339-10.032h357.604c.225 3.317.339 6.663.339 10.032z" fill="#64f0ff"/></g></svg>