<svg width="200" height="200" xmlns="http://www.w3.org/2000/svg"><path d="M129.091 68.142c-1.289-1.682-1.361-4.159-.198-5.953 3.407-5.255 1.758-12.775-3.552-15.609-1.644-.877-2.583-2.851-2.425-4.885.485-6.282-4.136-11.801-9.941-11.363-1.772.134-3.403-1.007-4.182-2.796-1.517-3.483-4.707-5.882-8.397-5.882-3.691 0-6.88 2.399-8.398 5.883-.779 1.789-2.41 2.929-4.181 2.796-5.236-.396-9.453 4.046-9.928 9.379a11.86 11.86 0 00-.013 1.984c.157 2.033-.782 4.008-2.426 4.885-5.31 2.834-6.959 10.353-3.552 15.609 1.163 1.794 1.092 4.27-.197 5.953-3.801 4.96-2.658 12.594 2.41 15.888 1.623 1.055 2.419 3.22 1.976 5.264-1.386 6.38 2.742 12.446 8.346 12.925a8.454 8.454 0 003.199-.337c1.836-.563 3.788.341 4.777 2.165 1.639 3.021 4.602 5.039 7.986 5.039 3.385 0 6.348-2.018 7.987-5.039.989-1.824 2.941-2.727 4.777-2.165a8.412 8.412 0 003.199.337c5.603-.478 9.732-6.544 8.346-12.925-.444-2.044.353-4.208 1.976-5.263 5.076-3.3 6.206-10.936 2.411-15.89z" fill="#c991ff"/><path d="M114.37 30.878c.779 1.79 2.41 2.93 4.182 2.796a8.282 8.282 0 011.976.086c-1.546-1.91-3.707-3.185-6.114-3.413-.102-.01-.203-.01-.304-.016.09.18.179.361.26.547zM75.025 78.306c0-2.606.849-4.989 2.253-6.822 1.289-1.682 1.36-4.159.197-5.953-3.407-5.255-1.758-12.775 3.552-15.609 1.644-.877 2.583-2.851 2.426-4.885-.486-6.282 4.136-11.801 9.94-11.363 1.772.134 3.403-1.007 4.182-2.796 1.729-3.968 5.586-6.449 9.747-5.774-1.708-2.118-4.178-3.45-6.926-3.45-3.691 0-6.88 2.399-8.398 5.883-.779 1.789-2.41 2.929-4.181 2.796-5.236-.395-9.453 4.046-9.928 9.379a11.86 11.86 0 00-.013 1.984c.157 2.033-.782 4.008-2.426 4.885-5.31 2.834-6.959 10.354-3.552 15.609 1.163 1.794 1.092 4.27-.197 5.953-3.798 4.956-2.662 12.592 2.41 15.888 1.624 1.055.914-1.852.914-5.725z" fill="#d3b3ff"/><path d="M129.091 68.142c-1.289-1.682-1.361-4.159-.198-5.953 3.407-5.255 1.758-12.775-3.552-15.609-1.644-.877-.199 2.637-.199 6.811 0 2.298-.66 4.422-1.779 6.149-1.163 1.794-1.092 4.27.198 5.953 3.797 4.956 2.661 12.592-2.411 15.888-1.623 1.055-2.42 3.22-1.975 5.263.238 1.097.322 2.262.224 3.464-.521 6.4-6.14 10.847-11.77 9.124-1.836-.562-3.788.341-4.777 2.165-1.74 3.208-4.998 5.318-8.691 5.008 4.32 4.35 11.155 3.296 14.221-2.358.989-1.824 2.941-2.727 4.777-2.165 5.659 1.733 11.252-2.762 11.77-9.124a11.802 11.802 0 00-.224-3.464c-.444-2.044.352-4.208 1.975-5.263 5.076-3.299 6.206-10.935 2.411-15.889zm-41.293-9.261a2.5 2.5 0 01.307-3.522c.833-.699 1.356-1.621 1.433-2.527.077-.903-.286-1.836-1.08-2.775-3.327-3.934-1.534-8.695-.121-10.663a2.499 2.499 0 014.072 2.901c-.191.277-1.732 2.643-.132 4.534 2.096 2.48 2.377 4.864 2.243 6.428-.19 2.222-1.356 4.384-3.2 5.931a2.5 2.5 0 01-3.522-.307z" fill="#b173ff"/><path d="M108.436 71.214a2.5 2.5 0 01.308-3.523c.833-.699 1.355-1.62 1.433-2.527.077-.902-.287-1.835-1.08-2.774-3.327-3.935-1.535-8.696-.122-10.663a2.5 2.5 0 014.073 2.9c-.191.278-1.732 2.643-.133 4.535 2.097 2.48 2.377 4.864 2.244 6.429-.19 2.221-1.357 4.383-3.201 5.93a2.5 2.5 0 01-3.522-.307zm-14.83 19.224a2.5 2.5 0 01.307-3.522c.834-.699 1.356-1.621 1.433-2.527.078-.902-.286-1.836-1.079-2.775-3.327-3.934-1.535-8.695-.122-10.663a2.5 2.5 0 014.072 2.901c-.19.277-1.732 2.643-.132 4.534 2.096 2.48 2.377 4.865 2.243 6.429-.19 2.222-1.356 4.383-3.2 5.931a2.5 2.5 0 01-3.522-.308z" fill="#b173ff"/><path d="M169.922 151.408c-.31-2.096.83-4.296 2.718-5.3 5.53-2.938 7.741-10.312 4.476-15.369-1.01-1.565-.873-3.747.253-5.448 3.475-5.255 2.117-12.324-3.17-14.76-1.614-.744-2.486-2.534-2.298-4.476.366-3.781-1.258-7.428-4.483-9.22-3.226-1.793-7.18-1.245-10.198 1.063-1.55 1.186-3.53 1.39-5.013.414-4.385-2.89-10.228-1.055-13.234 3.376a11.86 11.86 0 00-.975 1.728c-.85 1.853-2.63 3.124-4.493 3.092-6.018-.102-11.112 5.67-10.686 11.919.145 2.133-1.12 4.263-3.064 5.108-5.732 2.49-8.44 9.717-5.61 15.058.906 1.71.55 3.99-.83 5.562-4.31 4.903-3.648 12.21 1.018 15.351a8.454 8.454 0 002.96 1.26c1.878.4 3.146 2.137 3.124 4.212-.034 3.437 1.576 6.64 4.534 8.284 2.958 1.644 6.529 1.319 9.429-.526 1.75-1.114 3.895-.955 5.227.428a8.412 8.412 0 002.633 1.848c5.13 2.304 11.685-.993 13.573-7.244.604-2.002 2.352-3.507 4.283-3.64 6.04-.42 10.737-6.546 9.826-12.72z" fill="#c991ff"/><path d="M175.153 111.685c-.189 1.943.683 3.732 2.297 4.475a8.3 8.3 0 011.686 1.035c-.424-2.42-1.694-4.584-3.687-5.953-.084-.058-.172-.107-.258-.161-.008.2-.019.402-.038.604zm-57.429 22.348c1.266-2.278 3.166-3.949 5.283-4.869 1.944-.844 3.21-2.975 3.064-5.108-.426-6.248 4.668-12.02 10.686-11.919 1.863.032 3.643-1.238 4.493-3.092 2.627-5.727 9.348-8.306 14.208-5.105 1.484.978 3.464.773 5.014-.412 3.439-2.63 8.015-2.924 11.324-.313-.464-2.681-1.976-5.045-4.378-6.38-3.226-1.793-7.18-1.245-10.198 1.063-1.55 1.186-3.53 1.39-5.013.414-4.385-2.889-10.228-1.055-13.234 3.376a11.86 11.86 0 00-.975 1.728c-.85 1.853-2.63 3.124-4.493 3.092-6.018-.102-11.112 5.67-10.686 11.919.145 2.133-1.12 4.263-3.064 5.108-5.727 2.487-8.443 9.714-5.61 15.058.907 1.711 1.698-1.175 3.58-4.56z" fill="#d3b3ff"/><path d="M169.922 151.408c-.31-2.096.83-4.296 2.718-5.3 5.53-2.938 7.741-10.312 4.476-15.369-1.01-1.565-1.454 2.209-3.482 5.857-1.116 2.009-2.724 3.545-4.541 4.511-1.888 1.003-3.029 3.202-2.719 5.3.912 6.176-3.79 12.3-9.824 12.717-1.931.134-3.68 1.64-4.283 3.641a11.802 11.802 0 01-1.486 3.137c-3.564 5.341-10.636 6.5-14.72 2.259-1.332-1.383-3.477-1.542-5.228-.428-3.079 1.96-6.952 2.221-10.03.156 1.664 5.901 8.15 8.3 13.577 4.846 1.75-1.114 3.895-.955 5.227.428 4.105 4.264 11.178 3.051 14.72-2.259a11.802 11.802 0 001.487-3.136c.605-2.003 2.352-3.508 4.283-3.642 6.04-.418 10.736-6.544 9.825-12.718zm-31.598-28.151a2.5 2.5 0 011.98-2.93c1.067-.206 1.972-.758 2.48-1.512.505-.752.641-1.744.403-2.95-.997-5.055 2.883-8.346 5.074-9.38a2.499 2.499 0 012.15 4.513c-.302.15-2.798 1.47-2.318 3.9.628 3.185-.284 5.406-1.161 6.708-1.245 1.85-3.315 3.173-5.678 3.63a2.5 2.5 0 01-2.93-1.979z" fill="#b173ff"/><path d="M150.374 144.062a2.5 2.5 0 011.98-2.93c1.068-.207 1.972-.758 2.48-1.513.506-.751.641-1.744.404-2.95-.997-5.055 2.882-8.347 5.073-9.38a2.5 2.5 0 012.151 4.513c-.302.15-2.797 1.47-2.319 3.9.629 3.186-.284 5.406-1.16 6.71-1.246 1.849-3.316 3.172-5.679 3.629a2.5 2.5 0 01-2.93-1.98zm-22.3 9.601a2.5 2.5 0 011.979-2.93c1.069-.206 1.973-.758 2.48-1.513.506-.75.642-1.744.405-2.95-.998-5.054 2.881-8.346 5.072-9.38a2.5 2.5 0 012.15 4.514c-.3.15-2.797 1.47-2.317 3.9.628 3.185-.285 5.406-1.162 6.708-1.245 1.85-3.314 3.173-5.678 3.63a2.5 2.5 0 01-2.929-1.98z" fill="#b173ff"/><path d="M45.99 158.9c2.045-.557 4.365.312 5.586 2.067 3.578 5.14 11.164 6.456 15.794 2.61 1.434-1.19 3.616-1.313 5.44-.398 5.632 2.823 12.488.63 14.277-4.91.545-1.691 2.218-2.77 4.169-2.815 3.798-.088 7.224-2.135 8.619-5.552 1.395-3.417.379-7.276-2.273-9.998-1.362-1.397-1.801-3.338-1.009-4.928 2.346-4.698-.173-10.28-4.931-12.736a11.86 11.86 0 00-1.832-.762c-1.942-.623-3.415-2.238-3.606-4.092-.617-5.987-6.955-10.355-13.109-9.187-2.1.398-4.366-.603-5.437-2.433-3.156-5.393-10.656-7.22-15.62-3.773-1.59 1.104-3.896 1.023-5.621-.16-5.383-3.694-12.56-2.164-15.12 2.843a8.454 8.454 0 00-.898 3.089c-.172 1.913-1.747 3.378-3.81 3.605-3.416.375-6.404 2.356-7.683 5.489-1.279 3.134-.53 6.64 1.647 9.299 1.315 1.605 1.414 3.754.2 5.241a8.412 8.412 0 00-1.522 2.834c-1.675 5.369 2.381 11.484 8.813 12.612 2.06.361 3.762 1.917 4.126 3.818 1.137 5.947 7.78 9.88 13.8 8.238z" fill="#c991ff"/><path d="M86.054 159.354c-1.952.045-3.623 1.124-4.17 2.815a8.282 8.282 0 01-.825 1.797c2.352-.71 4.35-2.228 5.47-4.37.048-.091.086-.185.13-.276-.201.016-.402.03-.605.034zm-29.042-54.351c2.413.985 4.299 2.672 5.465 4.664 1.07 1.83 3.337 2.831 5.437 2.432 6.153-1.168 12.492 3.2 13.11 9.188.19 1.853 1.663 3.469 3.605 4.092 6 1.924 9.363 8.29 6.764 13.497-.794 1.59-.354 3.531 1.008 4.929 3.02 3.1 3.86 7.609 1.662 11.206 2.607-.78 4.773-2.564 5.812-5.109 1.395-3.417.379-7.276-2.273-9.998-1.362-1.397-1.801-3.338-1.009-4.928 2.345-4.698-.173-10.28-4.931-12.736a11.86 11.86 0 00-1.832-.762c-1.942-.623-3.415-2.238-3.606-4.092-.617-5.987-6.956-10.356-13.109-9.187-2.1.398-4.366-.603-5.437-2.433-3.153-5.389-10.652-7.223-15.62-3.773-1.591 1.105 1.369 1.546 4.954 3.01z" fill="#d3b3ff"/><path d="M45.99 158.9c2.045-.557 4.365.312 5.586 2.067 3.578 5.14 11.164 6.456 15.794 2.61 1.434-1.19-2.366-1.18-6.23-2.758-2.128-.868-3.845-2.282-5.021-3.97-1.222-1.755-3.54-2.625-5.586-2.067-6.024 1.642-12.664-2.295-13.799-8.237-.363-1.9-2.067-3.457-4.126-3.817a11.802 11.802 0 01-3.292-1.102c-5.729-2.9-7.722-9.784-4-14.345 1.215-1.488 1.116-3.636-.199-5.241-2.312-2.823-3.034-6.637-1.352-9.94-5.66 2.357-7.267 9.083-3.19 14.058 1.314 1.605 1.412 3.754.198 5.241-3.743 4.585-1.695 11.462 4 14.346 1.075.545 2.186.907 3.291 1.101 2.06.362 3.763 1.917 4.127 3.818 1.136 5.946 7.778 9.878 13.8 8.237zm24.18-34.73a2.5 2.5 0 013.145 1.615c.332 1.036.988 1.868 1.798 2.282.806.412 1.807.429 2.977.049 4.9-1.594 8.63 1.866 9.918 3.917a2.499 2.499 0 01-4.225 2.674c-.184-.281-1.792-2.602-4.148-1.836-3.088 1.004-5.401.363-6.799-.352-1.985-1.016-3.546-2.912-4.282-5.204a2.5 2.5 0 011.616-3.145z" fill="#b173ff"/><path d="M50.952 138.617a2.5 2.5 0 013.145 1.616c.333 1.036.988 1.867 1.798 2.282.806.412 1.808.428 2.977.048 4.9-1.593 8.63 1.866 9.918 3.917a2.5 2.5 0 01-4.224 2.675c-.185-.282-1.793-2.602-4.149-1.837-3.088 1.004-5.401.363-6.8-.352-1.984-1.015-3.545-2.913-4.28-5.205a2.5 2.5 0 011.615-3.144zm-12.194-20.996a2.5 2.5 0 013.145 1.616c.332 1.036.988 1.868 1.798 2.281.805.413 1.808.43 2.977.05 4.9-1.594 8.63 1.865 9.918 3.917a2.5 2.5 0 01-4.225 2.673c-.184-.28-1.792-2.602-4.147-1.835-3.089 1.003-5.403.362-6.8-.353-1.986-1.016-3.546-2.912-4.282-5.204a2.5 2.5 0 011.616-3.145z" fill="#b173ff"/></svg>