<svg id="Layer_1" enable-background="new 0 0 512 512" height="512" viewBox="0 0 512 512" width="512" xmlns="http://www.w3.org/2000/svg"><ellipse cx="188.067" cy="197.792" fill="#ff5872" rx="134.38" ry="175.755"/><path d="m229.767 312.976c0 4.651.132 8.154.291 10.689.187 2.973-2.167 5.479-5.137 5.479-4.164 0-7.539 3.45-7.391 7.624.377 10.587 1.474 21.142 3.225 31.533 58.417-19.097 101.692-88.188 101.692-170.508 0-11.868-.905-23.459-2.62-34.667-50.992 18.107-90.06 78.332-90.06 149.85z" fill="#db4968"/><path d="m114.716 120.553c2.217-3.883-1.1-27.434 19.33-41.696 5.789-4.041 18.662-3.743 24.236-7.714 36.6-26.072 79.856-27.861 116.717-7.363-23.435-26.03-53.778-41.743-86.933-41.743-74.216 0-134.38 78.688-134.38 175.756 0 72.685 33.737 135.062 81.847 161.814-54.343-60.363-63-165.154-20.817-239.054z" fill="#ff7f90"/><g fill="#ad4968"><path d="m188.067 394.558c-4.418 0-8-3.582-8-8v-22.923c0-4.418 3.582-8 8-8s8 3.582 8 8v22.923c0 4.418-3.582 8-8 8z"/><path d="m66.122 325.721c-2.654-3.532-1.942-8.547 1.59-11.201l24.554-18.45c3.532-2.653 8.546-1.941 11.201 1.59 2.654 3.532 1.942 8.547-1.59 11.201l-24.554 18.45c-3.533 2.653-8.547 1.942-11.201-1.59z"/><path d="m118.703 373.577c-3.801-2.253-5.056-7.16-2.803-10.961l14.554-24.556c2.253-3.8 7.158-5.058 10.961-2.803 3.801 2.253 5.056 7.16 2.803 10.961l-14.554 24.556c-2.253 3.8-7.16 5.056-10.961 2.803z"/><path d="m40.993 207.44c-4.211 0-7.737-3.288-7.98-7.545-.251-4.411 3.121-8.19 7.532-8.442l28.909-1.648c4.417-.25 8.19 3.122 8.442 7.532.251 4.411-3.121 8.19-7.532 8.442 0 0-29.219 1.661-29.371 1.661z"/><path d="m42.219 260.502c-1.063-4.288 1.55-8.627 5.838-9.691l24.43-6.062c4.287-1.061 8.628 1.55 9.691 5.838s-1.55 8.627-5.838 9.691l-24.43 6.062c-4.297 1.064-8.629-1.556-9.691-5.838z"/><path d="m188.067 39.949c-4.418 0-8-3.582-8-8v-23.949c0-4.418 3.582-8 8-8s8 3.582 8 8v23.949c0 4.418-3.582 8-8 8z"/><path d="m92.872 99.929-22.91-14.127c-3.761-2.319-4.93-7.248-2.61-11.009 2.319-3.762 7.25-4.929 11.009-2.61l22.909 14.127c3.761 2.319 4.93 7.248 2.61 11.009-2.318 3.76-7.248 4.928-11.008 2.61z"/><path d="m130.683 57.89-15.577-23.314c-2.454-3.674-1.466-8.642 2.208-11.097s8.642-1.466 11.097 2.208l15.577 23.314c2.454 3.674 1.466 8.642-2.208 11.097-3.674 2.454-8.642 1.465-11.097-2.208z"/><path d="m72.472 150.832-25.857-6.468c-4.286-1.072-6.892-5.416-5.819-9.702s5.416-6.894 9.702-5.819l25.857 6.468c4.286 1.072 6.892 5.416 5.819 9.702-1.069 4.276-5.407 6.894-9.702 5.819z"/><path d="m271.921 96.723c-1.99-3.945-.405-8.756 3.539-10.746l23.933-12.073c3.942-1.989 8.756-.406 10.746 3.539s.405 8.756-3.539 10.746l-23.933 12.073c-3.929 1.983-8.748.421-10.746-3.539z"/><path d="m233.725 59.63c-3.416-2.803-3.913-7.843-1.11-11.259l16.601-20.233c2.802-3.415 7.842-3.913 11.259-1.11 3.416 2.803 3.913 7.843 1.11 11.259l-16.601 20.233c-2.788 3.399-7.827 3.925-11.259 1.11z"/><path d="m301.713 151.071c-4.214 0-7.742-3.294-7.98-7.553-.247-4.411 3.129-8.188 7.54-8.435l23.81-1.333c4.409-.27 8.188 3.129 8.435 7.54s-3.129 8.188-7.54 8.435c-.001.001-24.114 1.346-24.265 1.346z"/><path d="m134.046 148.822c-4.418 0-8-3.582-8-8v-15.889c0-4.418 3.582-8 8-8s8 3.582 8 8v15.889c0 4.418-3.582 8-8 8z"/><path d="m222.466 125.229c-4.418 0-8-3.582-8-8v-15.889c0-4.418 3.582-8 8-8s8 3.582 8 8v15.889c0 4.418-3.582 8-8 8z"/><path d="m176.072 178.361c-4.418 0-8-3.582-8-8v-15.889c0-4.418 3.582-8 8-8s8 3.582 8 8v15.889c0 4.418-3.582 8-8 8z"/><path d="m125.93 221.681c-4.418 0-8-3.582-8-8v-15.889c0-4.418 3.582-8 8-8s8 3.582 8 8v15.889c0 4.418-3.582 8-8 8z"/><path d="m198.064 239.763c-4.418 0-8-3.582-8-8v-15.889c0-4.418 3.582-8 8-8s8 3.582 8 8v15.889c0 4.418-3.582 8-8 8z"/><path d="m251.563 189.423c-4.418 0-8-3.582-8-8v-15.888c0-4.418 3.582-8 8-8s8 3.582 8 8v15.888c0 4.418-3.582 8-8 8z"/><path d="m216.459 295.701c-4.418 0-8-3.582-8-8v-15.889c0-4.418 3.582-8 8-8s8 3.582 8 8v15.889c0 4.418-3.582 8-8 8z"/><path d="m147.82 303.526c-4.418 0-8-3.582-8-8v-15.889c0-4.418 3.582-8 8-8s8 3.582 8 8v15.889c0 4.418-3.582 8-8 8z"/></g><ellipse cx="353.719" cy="313.306" fill="#fff2b9" rx="102.548" ry="134.123"/><path d="m251.625 325.915c4.86 68.16 48.71 121.514 102.094 121.514s97.234-53.354 102.094-121.514z" fill="#ffe070"/><path d="m425.416 305.64c-4.299 0-7.851-3.413-7.991-7.741-.885-27.392-11.925-52.441-29.531-67.01-3.404-2.817-3.881-7.86-1.064-11.264s7.859-3.88 11.264-1.064c21.088 17.449 34.293 46.914 35.324 78.82.144 4.481-3.439 8.259-8.002 8.259z" fill="#fff"/><path d="m241.509 344.844c.211 81.56 50.825 147.593 113.234 147.593s113.022-66.033 113.234-147.593z" fill="#ff5872"/><path d="m370.475 464.707c-9.349 1.263-20.055-9.346-22.193-9.503-49.763-3.661-90.936-49.348-103.11-110.36h-3.663c.211 81.56 50.825 147.593 113.234 147.593s113.022-66.033 113.234-147.593h-3.663c-9.739 48.804-38.032 87.802-74.435 103.328-11.061 4.718-7.248 14.892-19.404 16.535z" fill="#db4968"/><path d="m354.743 512c-4.418 0-8-3.582-8-8v-19.916c0-4.418 3.582-8 8-8s8 3.582 8 8v19.916c0 4.418-3.582 8-8 8z" fill="#ad4968"/><path d="m255.511 445.612c-2.216-3.822-.914-8.717 2.908-10.934l15.63-9.063c3.822-2.217 8.717-.914 10.934 2.908 2.216 3.822.914 8.717-2.908 10.934l-15.63 9.063c-3.827 2.22-8.721.908-10.934-2.908z" fill="#ad4968"/><path d="m301.711 492.507c-6.043 0-9.956-6.529-6.99-11.881l10.274-18.535c2.143-3.864 7.01-5.259 10.876-3.118 3.864 2.143 5.26 7.012 3.118 10.876l-10.274 18.535c-1.461 2.635-4.19 4.123-7.004 4.123z" fill="#ad4968"/><path d="m233.97 398.789c-1.399-4.19.863-8.723 5.055-10.121l17.411-5.813c4.188-1.4 8.723.864 10.121 5.055 1.399 4.19-.863 8.723-5.055 10.121l-17.411 5.813c-4.165 1.395-8.715-.844-10.121-5.055z" fill="#ad4968"/><path d="m445.135 449.574-17.677-10.089c-3.837-2.19-5.172-7.076-2.982-10.914 2.19-3.836 7.075-5.173 10.914-2.982l17.677 10.089c3.837 2.19 5.172 7.076 2.982 10.914-2.188 3.832-7.073 5.174-10.914 2.982z" fill="#ad4968"/><path d="m402.07 487.815-11.298-17.508c-2.396-3.713-1.328-8.664 2.384-11.06 3.715-2.398 8.664-1.328 11.06 2.384l11.298 17.508c2.396 3.713 1.328 8.664-2.384 11.06-3.7 2.388-8.656 1.341-11.06-2.384z" fill="#ad4968"/><path d="m469.179 403.019-20.483-4.785c-4.302-1.005-6.975-5.308-5.97-9.61s5.302-6.982 9.61-5.97l20.483 4.785c4.302 1.005 6.975 5.308 5.97 9.61-1.009 4.318-5.328 6.973-9.61 5.97z" fill="#ad4968"/><path d="m361.126 403.033c-4.418 0-8-3.582-8-8v-13.39c0-4.418 3.582-8 8-8s8 3.582 8 8v13.39c0 4.418-3.582 8-8 8z" fill="#ad4968"/><path d="m393.43 433.946c-4.418 0-8-3.582-8-8v-13.39c0-4.418 3.582-8 8-8s8 3.582 8 8v13.39c0 4.418-3.582 8-8 8z" fill="#ad4968"/><path d="m320.828 434.689c-4.418 0-8-3.582-8-8v-13.389c0-4.418 3.582-8 8-8s8 3.582 8 8v13.389c0 4.418-3.582 8-8 8z" fill="#ad4968"/><path d="m143.366 91.053c1.76 2.592.487 6.538-2.843 8.814s-7.458 2.019-9.218-.573-.487-6.538 2.843-8.814 7.458-2.019 9.218.573z" fill="#ff7f90"/><ellipse cx="181.186" cy="73.283" fill="#ff7f90" rx="5.12" ry="5.135"/><path d="m372.826 455.186c-1.585 2.753-5.094 3.696-7.839 2.107s-3.685-5.109-2.1-7.862 5.094-3.696 7.839-2.107 3.685 5.109 2.1 7.862z" fill="#db4968"/></svg>