<svg width="200" height="200" xmlns="http://www.w3.org/2000/svg"><path d="M141.326 120.774c5.733 2.282 11.774 1.394 14.968-2.69 2.8-3.58 2.69-8.695.193-13.28-1.475-2.71-1.048-5.599.965-7.148a9.447 9.447 0 001.758-1.761c4.619-6.041 1.047-15.912-7.323-20.733 3.974-4.85 1.95-12.863-4.362-17.799-3.55-2.776-7.706-3.994-11.33-3.648-.538-3.6-2.72-7.34-6.272-10.117-6.313-4.937-14.577-4.968-18.325.058-6.71-6.975-17.149-8.034-21.887-2.11a9.565 9.565 0 00-1.286 2.13c-1.018 2.328-3.718 3.438-6.703 2.66-5.052-1.316-10.042-.192-12.842 3.39-3.193 4.083-2.6 10.16.998 15.173.415.58.13 1.2-.527 1.163-3.878-.216-7.437 1.08-9.64 3.898-3.182 4.068-2.605 10.113.956 15.117.416.584.218 1.253-.44 1.266-9.112.19-13.401 8.742-8.649 17.32.833 1.504.602 3.072-.682 3.78-6.89 3.804-6.595 13.6.332 20.32 2.293 2.22 3.384 5.123 3.13 7.743-.459 4.737 2.048 10.205 6.917 14.013 4.87 3.808 10.781 4.923 15.267 3.336 2.482-.878 5.564-.518 8.27 1.17 8.191 5.105 17.768 3.032 19.8-4.574.36-1.349 1.76-2.043 3.506-1.574 9.48 2.549 16.735-3.688 14.722-12.57-.06-.265.01-.513.199-.663l.041-.033c.206-.163.518-.18.822-.06 5.732 2.28 11.771 1.393 14.964-2.69 2.203-2.818 2.603-6.585 1.459-10.297-.194-.63.34-1.053 1-.79z" fill="#ff5872"/><path d="M148.702 64.555a19.19 19.19 0 015.22 4.41c-.062-2.885-1.24-5.962-3.388-8.638-.227 1.576-.826 3-1.832 4.228zM70.49 55.93c.624.035.89-.552.498-1.1-1.087-1.515-1.881-3.133-2.366-4.76-1.273 1.79-1.858 3.927-1.82 6.174a12.886 12.886 0 013.687-.313zm70.836 64.844c5.733 2.282 11.774 1.394 14.968-2.69 2.8-3.58 2.69-8.695.193-13.28-1.475-2.71-1.048-5.599.965-7.148 5.065-3.896 5.036-11.612-.004-17.78-.376 2.49-1.628 4.575-3.472 5.995-1.908 1.467-2.313 4.204-.915 6.773 2.365 4.345 2.47 9.19-.184 12.584-3.026 3.87-8.75 4.711-14.183 2.55-.628-.25-1.132.152-.948.748 1.084 3.518.706 7.087-1.382 9.757-3.026 3.87-8.749 4.711-14.18 2.55-.29-.114-.585-.097-.78.058l-.04.03c-.179.142-.244.376-.187.63 1.908 8.423-4.978 14.322-13.951 11.91-1.632-.438-2.975.193-3.322 1.492-1.923 7.195-10.99 9.181-18.763 4.333-2.565-1.6-5.485-1.94-7.836-1.109-4.253 1.504-9.854.447-14.468-3.16-4.613-3.609-6.99-8.79-6.555-13.28.24-2.483-.794-5.233-2.966-7.338-1.794-1.739-3.156-3.74-4.022-5.852-5.317 4.497-4.256 13.21 1.934 19.215 2.292 2.22 3.384 5.124 3.13 7.744-.459 4.737 2.048 10.205 6.917 14.013 4.87 3.808 10.781 4.923 15.267 3.336 2.482-.878 5.564-.518 8.27 1.17 8.21 5.114 17.773 3.015 19.8-4.574.37-1.384 1.802-2.032 3.506-1.574 9.48 2.549 16.733-3.689 14.722-12.57-.06-.265.01-.513.199-.663l.041-.033c.206-.163.518-.18.822-.06 5.732 2.28 11.771 1.393 14.964-2.69 2.203-2.818 2.603-6.585 1.459-10.297-.195-.629.34-1.053 1-.79z" fill="#db4968"/><path d="M79.235 55.946c2.985.778 5.685-.333 6.703-2.66.33-.756.758-1.47 1.286-2.13 4.75-5.94 15.19-4.853 21.887 2.109 3.758-5.037 12.025-4.984 18.326-.057 3.55 2.777 5.733 6.516 6.272 10.116 6.9-.658 14.456 4.357 16.934 11.162 0 0 2.051 1.142 1.244.676 3.975-4.849 1.952-12.862-4.362-17.799-3.55-2.776-7.705-3.993-11.33-3.648-.538-3.6-2.72-7.34-6.272-10.117-6.312-4.936-14.578-4.969-18.325.058-6.71-6.975-17.149-8.034-21.885-2.109a9.505 9.505 0 00-1.288 2.13c-1.018 2.327-3.717 3.438-6.703 2.66-9.34-2.436-16.387 3.628-14.665 12.243 2.882-2.976 7.502-3.854 12.178-2.634z" fill="#ff7f90"/><path d="M89.386 58.644c-.387-1.62.65-2.94 2.315-2.952 1.665-.011 3.328 1.292 3.715 2.912.984 4.12 5.206 7.423 9.443 7.384 1.664-.015 3.33 1.285 3.72 2.904.39 1.619-.642 2.943-2.306 2.958-7.574.069-15.129-5.84-16.887-13.206zm21.809 29.632c-.387-1.619.65-2.94 2.315-2.951 1.666-.012 3.329 1.292 3.715 2.911.984 4.12 5.206 7.423 9.443 7.384 1.664-.015 3.33 1.285 3.72 2.904.391 1.619-.641 2.944-2.305 2.959-7.573.069-15.13-5.839-16.888-13.207zM76.26 78.628c-.386-1.619.65-2.94 2.316-2.951 1.664-.012 3.328 1.292 3.715 2.91.984 4.12 5.206 7.423 9.442 7.385 1.665-.016 3.33 1.285 3.721 2.904.39 1.619-.642 2.943-2.306 2.958-7.573.07-15.128-5.839-16.888-13.206zm47.96-5.148c-.386-1.62.65-2.941 2.316-2.952 1.665-.012 3.329 1.292 3.715 2.91.983 4.12 5.205 7.424 9.443 7.385 1.665-.015 3.33 1.285 3.72 2.904s-.642 2.943-2.306 2.958c-7.572.07-15.129-5.838-16.888-13.206zm-27.606 35.3c-.387-1.618.65-2.94 2.315-2.95 1.666-.012 3.329 1.291 3.716 2.91.984 4.121 5.205 7.423 9.442 7.385 1.665-.015 3.33 1.285 3.72 2.903.391 1.62-.642 2.944-2.306 2.96-7.573.068-15.128-5.84-16.887-13.207zm-33.11-11.204c-.386-1.62.65-2.94 2.316-2.952 1.665-.011 3.329 1.292 3.715 2.91.984 4.121 5.206 7.423 9.442 7.385 1.665-.015 3.331 1.285 3.721 2.904.39 1.62-.642 2.944-2.306 2.959-7.574.068-15.129-5.84-16.888-13.206zm18.859 30.669c-.387-1.62.65-2.94 2.315-2.952 1.665-.012 3.329 1.292 3.715 2.91.984 4.121 5.206 7.424 9.443 7.385 1.665-.015 3.33 1.286 3.72 2.904.391 1.619-.642 2.944-2.306 2.959-7.573.068-15.128-5.84-16.887-13.206z" fill="#ad4968"/></svg>