<svg height="512" viewBox="0 0 128 128" width="512" xmlns="http://www.w3.org/2000/svg"><circle cx="66.728" cy="64" r="37.114" transform="matrix(.38276 -.92385 .92343 .38294 -18.679 101.268)" fill="#9cbde3"/><circle cx="66.728" cy="64" fill="#dbe2eb" r="30.553" transform="matrix(.38276 -.92385 .92343 .38294 -18.679 101.268)"/><path d="M96.472 64.12a30.536 30.55 0 01-56.761 15.649 30.536 30.55 0 0047.188-37.866 30.45 30.463 0 019.573 22.216z" fill="#c1cdd3" opacity=".25"/><path d="M115.641 24.407a1.608 1.61 0 00-2.6-1.226c-2.946 2.282-7.36 7.676-7.049 19.397.325 12.241.195 20.615.084 24.537a4.306 4.308 0 002.145 3.842l.289.168a4.318 4.32 0 012.143 3.936l-1.223 26.195a3.96 3.962 0 107.914.098zM30.106 42.15l-2.137-17.434c-.107-.767-.973-1.392-1.645-1.689a.65.65 0 00-.887.615v17.98h-3.5l-.6-17.401a1.292 1.293 0 00-2.583 0l-.6 17.402h-3.439v-17.98a.65.65 0 00-.886-.616c-.672.297-1.595.924-1.703 1.69L9.98 42.126a3.3 3.3 0 00.487 2.222l5.897 9.301L14.91 98.8a5.082 5.084 0 004.472 5.288 4.95 4.953 0 005.409-5.075l-1.434-44.425 6.3-10.251a3.303 3.305 0 00.449-2.186z" fill="#dbe2eb"/><path d="M45.727 74.517c0-1.742.92-3.285 2.33-4.229v-.05c0-3.128 2.466-5.664 5.51-5.664.575 0 1.13.091 1.65.258-.003-.085-.007-.17-.007-.258 0-4.206 3.32-7.616 7.414-7.616 3.53 0 6.482 2.536 7.23 5.931a4.308 4.308 0 011.408-.236c1.517 0 2.855.781 3.658 1.973.448-.12.918-.184 1.403-.184 3.078 0 5.575 2.564 5.575 5.73 0 1.925-.925 3.63-2.344 4.667-.208 2.662-2.59 4.76-5.496 4.76a5.89 5.89 0 01-1.65-.234c.004.077.007.155.007.234 0 3.82-3.319 6.916-7.413 6.916-3.53 0-6.483-2.304-7.229-5.387a4.703 4.703 0 01-1.409.215c-1.517 0-2.856-.709-3.658-1.79a5.988 5.988 0 01-1.403.166c-3.079 0-5.576-2.328-5.576-5.202z" fill="#5dc9ff"/><path d="M59.551 68.462c-.11.152-.38 1.152-.408 1.097-.047.121-.312-.923-.414-1.065-.802-1.106-1.616-2.216-2.572-3.186-2.833-2.878-7.335-5.189-9.535-8.734-2.539-4.09-.36-13.26 5.486-11.873 3.326.79 5.723 2.39 7.056 3.801 1.345-1.392 3.715-2.947 6.98-3.723 5.847-1.389 8.025 7.781 5.486 11.871-2.2 3.546-6.702 5.858-9.535 8.736-.956.97-1.743 1.968-2.544 3.076z" fill="#ff9898"/><path d="M89.713 60.485a2.639 2.526 0 00.61-2.586 2.601 2.49 0 00-2.104-1.704l-5.34-.786a.174.167 0 01-.112-.096l-2.34-4.766a2.626 2.515 0 00-2.402-1.502 2.614 2.503 0 00-2.39 1.466l-2.34 4.767a.2.19 0 01-.124.095l-5.327.822a2.639 2.526 0 00-2.116 1.704 2.676 2.562 0 00.622 2.586l3.933 3.873a.2.19 0 010 .155l-.92 5.41a2.639 2.526 0 003.895 2.634l4.643-2.466a.162.155 0 01.149 0l4.643 2.466a2.651 2.538 0 003.895-2.633l-.858-5.387a.15.143 0 010-.143z" fill="#fff876" data-name="Layer 47"/></svg>