<svg width="200" height="200" xmlns="http://www.w3.org/2000/svg"><path d="M105.505 185l-10.787-2.567L122.72 68.868l8.629 2.055z" fill="#9c2414"/><path d="M156.488 62.615c5.112 4.849-1.341 19.498-8.752 17.739-2.902 12.255-21.378 13.009-23.514 22.026l-2.107-.502-5.01-1.198-2.106-.502c2.136-9.018-14.026-18.006-11.138-30.275-7.411-1.774-6.616-17.769.132-19.779-.928-5.751 4.11-15.788 11.89-14.132.75-8.013 9.149-21.066 23.352-17.68 14.203 3.385 15.868 18.833 12.95 26.327 7.692 2.026 7.692 13.26 4.303 17.976z" fill="#aac348"/><path d="M136.966 39.111l-14.851 62.767-5.01-1.198 14.852-62.767c.417-1.944 2.776-2.707 4.246-1.372a2.59 2.59 0 01.763 2.57z" fill="#f3d232"/><path d="M124.218 84.387c-1.985-.005-3.22-2.164-2.224-3.886.074-.128.159-.249.254-.363 4.433-5.321 19.31-12.565 19.459-12.633 1.822-.792 3.814.692 3.587 2.67a2.584 2.584 0 01-1.377 2.001c-3.683 1.761-14.733 7.707-17.72 11.284a2.576 2.576 0 01-1.98.927zm5.462-23.088c-1.984.006-3.231-2.146-2.243-3.874.093-.162.203-.314.328-.452a33.797 33.797 0 0112.649-7.758c1.903-.564 3.702 1.151 3.236 3.087a2.584 2.584 0 01-1.91 1.911 29.29 29.29 0 00-10.166 6.239 2.565 2.565 0 01-1.893.847z" fill="#f3d232"/><path d="M124.218 84.387a2.58 2.58 0 01-2.505-1.997c-1.064-4.543-8.271-14.833-10.778-18.068-1.218-1.572-.282-3.878 1.684-4.15a2.574 2.574 0 012.389.975c.1.13 10.145 13.305 11.725 20.062a2.586 2.586 0 01-1.916 3.104 2.572 2.572 0 01-.6.074z" fill="#f3d232"/><path d="M94.496 185l10.786-2.567L77.28 68.868l-8.63 2.055z" fill="#9c2414"/><path d="M96.14 69.903c2.888 12.269-13.274 21.257-11.138 30.275l-2.107.502-5.01 1.198-2.106.502c-2.137-9.017-20.612-9.771-23.515-22.026-7.41 1.759-13.864-12.89-8.751-17.739-3.39-4.716-3.39-15.95 4.302-17.976-2.917-7.494-1.252-22.942 12.95-26.327 14.203-3.386 22.6 9.667 23.353 17.68 7.779-1.656 12.818 8.381 11.89 14.132 6.748 2.01 7.543 18.005.132 19.779z" fill="#aac348"/><path d="M82.895 100.68l-5.01 1.198-14.851-62.767c-.501-1.925 1.26-3.672 3.173-3.146a2.58 2.58 0 011.837 1.948z" fill="#f3d232"/><path d="M75.782 84.387a2.576 2.576 0 01-1.98-.927c-2.982-3.577-14.031-9.523-17.72-11.284-1.762-.915-1.876-3.401-.205-4.475a2.571 2.571 0 012.416-.196c.148.071 15.028 7.318 19.46 12.633 1.275 1.527.425 3.865-1.53 4.21a2.579 2.579 0 01-.447.039zM70.32 61.299a2.567 2.567 0 01-1.908-.847 29.29 29.29 0 00-10.166-6.239c-1.931-.461-2.641-2.846-1.278-4.294a2.571 2.571 0 012.604-.704 33.797 33.797 0 0112.649 7.758c1.335 1.473.579 3.844-1.361 4.267-.182.04-.368.06-.555.059z" fill="#f3d232"/><path d="M75.783 84.387a2.584 2.584 0 01-2.504-3.174c1.579-6.751 11.624-19.931 11.724-20.061 1.218-1.573 3.677-1.233 4.425.612a2.596 2.596 0 01-.352 2.563c-2.505 3.234-9.714 13.525-10.778 18.067a2.58 2.58 0 01-2.515 1.993z" fill="#f3d232"/><path d="M105.543 185H94.458l1.108-116.982h8.869z" fill="#df3721"/><path d="M122.542 73.392c0 12.609-17.797 17.606-17.797 26.874h-9.49c0-9.268-17.797-14.265-17.797-26.874-7.631 0-10.534-15.759-4.434-19.277-2.21-5.381.368-16.32 8.309-16.497C80.228 29.65 85.4 15 100 15c14.6 0 19.772 14.65 18.667 22.618 7.942.177 10.52 11.116 8.31 16.497 6.1 3.518 3.197 19.277-4.435 19.277z" fill="#c7e554"/><g fill="#f3d232"><path d="M102.578 35.755v64.511h-5.156v-64.51a2.578 2.587 0 115.156 0z"/><path d="M100 82.84a2.578 2.587 0 01-2.304-3.745c3.094-6.202 15.897-16.697 16.025-16.8a2.578 2.587 0 113.231 4.03c-3.182 2.568-12.565 10.91-14.645 15.079A2.577 2.585 0 01100 82.84zm0-23.728a2.578 2.587 0 01-2.256-3.844 33.866 33.98 0 0110.52-10.478 2.578 2.587 0 112.446 4.555 29.299 29.397 0 00-8.452 8.426A2.58 2.588 0 01100 59.11z"/><path d="M100 82.84a2.577 2.585 0 01-2.307-1.43c-2.08-4.175-11.463-12.517-14.645-15.079a2.578 2.587 0 113.23-4.03c.129.103 12.935 10.598 16.026 16.8A2.578 2.587 0 01100 82.84zm0-23.728a2.58 2.588 0 01-2.259-1.33 29.299 29.397 0 00-8.45-8.427 2.578 2.587 0 112.445-4.554 33.866 33.98 0 0110.52 10.477A2.578 2.587 0 01100 59.112z"/></g></svg>