<svg height="512" width="512" xmlns="http://www.w3.org/2000/svg"><path d="M335.5 72.25H175.611c-27.595 0-49.965 24.812-49.965 54.534v258.312c0 29.72 22.37 54.533 49.965 54.533h159.887c27.595 0 49.965-24.813 49.965-54.533V126.784c0-29.722-22.37-54.533-49.965-54.533z" fill="#ff6c6c"/><path d="M385.464 385.096V126.784c0-29.722-22.37-54.533-49.965-54.533h-79.943v367.378h79.943c27.595 0 49.965-24.813 49.965-54.533z" fill="#e63950"/><path d="M152.757 390.278c-19.371-2.07-39.76-4.782-59.297-8.061-4.86-.82-8.45-5.33-8.45-10.638V327.98c0-3.153 1.288-6.148 3.522-8.198 2.234-2.06 5.231-2.933 8.07-2.428 20.328 3.563 41.604 6.464 61.932 8.64 15.428 1.65 27.07 15.398 27.07 31.994 0 19.205-15.466 34.18-32.847 32.29zm0-107.63c-19.371-2.07-39.76-4.782-59.297-8.062-4.86-.82-8.45-5.329-8.45-10.637V220.35c0-6.725 5.676-11.72 11.592-10.627 20.328 3.564 41.604 6.465 61.932 8.64 15.428 1.65 27.07 15.399 27.07 31.995 0 19.122-15.38 34.19-32.847 32.29z" fill="#ffe6b3"/><path d="M325.506 142.729c0-16.597 11.643-30.345 27.071-31.995 20.328-2.176 41.604-5.077 61.932-8.64 5.827-1.116 11.593 3.84 11.593 10.626v43.599c0 5.307-3.591 9.817-8.451 10.636-19.537 3.28-39.926 5.992-59.297 8.062-17.453 1.9-32.848-13.152-32.848-32.288zm0 107.63c0-16.597 11.643-30.345 27.071-31.995 20.328-2.176 41.604-5.077 61.932-8.64 5.947-1.116 11.593 3.947 11.593 10.627v43.599c0 5.307-3.591 9.817-8.451 10.636-19.537 3.28-39.926 5.992-59.297 8.062-17.453 1.899-32.848-13.153-32.848-32.29zm0 107.631c0-16.597 11.643-30.345 27.071-31.996 20.328-2.175 41.604-5.076 61.932-8.64 6.002-1.081 11.593 3.965 11.593 10.627v43.599c0 5.308-3.591 9.817-8.451 10.637-19.537 3.279-39.926 5.991-59.297 8.061-17.453 1.899-32.848-13.153-32.848-32.289z" fill="#ffca80"/><path d="M152.757 175.018c-19.371-2.071-39.76-4.783-59.297-8.062-4.86-.82-8.45-5.329-8.45-10.637v-43.6c0-6.636 5.61-11.755 11.592-10.626 20.328 3.563 41.604 6.464 61.932 8.64 15.428 1.65 27.07 15.398 27.07 31.995 0 19.205-15.466 34.18-32.847 32.29z" fill="#ffe6b3"/><path d="M215.193 158.127a957.85 957.85 0 0080.725 0c5.513-.231 9.808-5.235 9.592-11.173-.205-5.938-4.752-10.595-10.373-10.332a955.32 955.32 0 01-79.163 0c-5.533-.252-10.169 4.394-10.373 10.332-.215 5.938 4.079 10.941 9.592 11.173zm79.944 86.125a955.32 955.32 0 01-79.163 0c-5.533-.473-10.169 4.393-10.373 10.332-.215 5.938 4.079 10.941 9.592 11.172a957.85 957.85 0 0080.725 0c5.513-.23 9.808-5.234 9.592-11.172-.204-5.939-4.752-10.826-10.373-10.332zm0 107.63a955.32 955.32 0 01-79.163 0c-5.533-.284-10.169 4.394-10.373 10.332-.215 5.938 4.079 10.942 9.592 11.173a957.85 957.85 0 0080.725 0c5.513-.231 9.808-5.235 9.592-11.173-.204-5.938-4.752-10.626-10.373-10.332z" fill="#e63950"/><path d="M305.51 254.584c-.205-5.939-4.752-10.826-10.373-10.332a955.32 955.32 0 01-39.581.82v21.537a957.85 957.85 0 0040.362-.852c5.513-.232 9.808-5.234 9.592-11.173zm0 107.63c-.205-5.938-4.752-10.627-10.373-10.332a955.32 955.32 0 01-39.581.82v21.537a957.85 957.85 0 0040.362-.852c5.513-.231 9.808-5.234 9.592-11.173zm0-215.261c-.205-5.938-4.752-10.595-10.373-10.331a955.32 955.32 0 01-39.581.82v21.537a957.85 957.85 0 0040.362-.852c5.513-.232 9.808-5.235 9.592-11.174z" fill="#ae2538"/></svg>