<svg height="512" viewBox="0 0 496.108 496.108" width="512" xmlns="http://www.w3.org/2000/svg"><path d="M352.996 127.671l16.767-56.009c1.123-3.753-1.23-7.649-5.205-8.614l-13.667-3.319c-3.975-.966-8.003 1.38-8.909 5.186l-25.485 107.198-12.586 54.092h13.965z" fill="#fedba6"/><path d="M337.35 189.31l81.649-111.222c2.349-3.199 1.458-7.612-1.968-9.758l-11.782-7.379c-3.427-2.145-8.039-1.178-10.199 2.14l-72.188 110.857-34.431 58.361 15.48 5.508z" fill="#fee8c7"/><path d="M389.864 240.625l-1.463-6.643c-2.008-9.123-9.191-16.422-18.629-18.927l-.308-.082c-2.499-.663-4.512-2.427-5.411-4.742-3.807-9.801-13.628-16.309-24.612-16.309l-3.216-7.094c-4.148-9.15-13.619-15.075-24.093-15.075h-.634c-4.626 0-8.762-2.739-10.368-6.865-3.873-9.947-13.931-16.48-25.078-16.288-2.74.047-5.389-.937-7.37-2.738l-6.956-6.322c-10.141-9.216-26.108-9.216-36.248 0l-6.956 6.322c-1.981 1.801-4.63 2.784-7.37 2.738-11.148-.192-21.206 6.341-25.078 16.288-1.606 4.126-5.743 6.865-10.368 6.865h-.635c-10.473 0-19.944 5.926-24.092 15.075l-3.216 7.094c-10.984 0-20.805 6.508-24.612 16.309-.9 2.315-2.912 4.079-5.411 4.742l-.308.082c-9.437 2.505-16.621 9.804-18.629 18.927l-1.463 6.643v37.214h292.525v-37.214z" fill="#faf7f7"/><path d="M133.96 256.245l1.463-6.643c2.008-9.123 9.191-16.422 18.629-18.927l.308-.082c2.499-.663 4.512-2.427 5.411-4.742 3.807-9.801 13.628-16.31 24.612-16.31l3.216-7.093c4.148-9.15 13.619-15.075 24.092-15.075h.635c4.626 0 8.762-2.739 10.368-6.865 3.872-9.947 13.93-16.48 25.078-16.288 2.74.047 5.389-.937 7.37-2.738l6.956-6.322c3.946-3.586 8.796-5.764 13.82-6.559-2.685.008-5.293-.973-7.237-2.74l-6.956-6.321c-10.141-9.216-26.107-9.216-36.249 0l-6.955 6.321c-1.982 1.801-4.63 2.785-7.37 2.738-11.148-.191-21.206 6.342-25.079 16.288-1.606 4.127-5.742 6.865-10.367 6.865h-.635c-10.474 0-19.944 5.926-24.093 15.075l-3.216 7.094c-10.984 0-20.804 6.508-24.612 16.309-.9 2.315-2.912 4.079-5.411 4.742l-.308.082c-9.437 2.506-16.621 9.804-18.629 18.927l-1.463 6.643v37.214h36.621v-21.593z" fill="#f3f0f0"/><path d="M323.003 418.387c0 7.327-6.243 13.267-13.945 13.267H178.145c-7.702 0-13.945-5.94-13.945-13.267v-66.953h158.804v66.953z" fill="#c8effe"/><path d="M401.639 248.077v32.713c0 67.451-57.474 122.128-128.375 122.128h-59.326c-70.902 0-128.375-54.677-128.375-122.128v-32.713c0-4.118 3.508-7.456 7.83-7.456h300.416c4.321 0 7.83 3.338 7.83 7.456z" fill="#c8effe"/><path d="M303.327 266.586H125.912v11.252h177.415c3.266 0 5.914-2.52 5.914-5.626s-2.648-5.626-5.914-5.626z" fill="#99e6fc"/><path d="M321.547 392.35h-59.326c-70.901 0-128.375-54.676-128.375-122.128v-29.601H93.392c-4.32 0-7.83 3.338-7.83 7.456v32.713c0 67.451 57.474 122.128 128.376 122.128h59.326c18.695 0 36.454-3.805 52.475-10.64-1.392.043-2.788.072-4.192.072z" fill="#99e6fc"/><path d="M257.456 222.233a6.107 6.107 0 01-3.27-.942l-1.737-1.099c-5.075-3.212-11.655-2.903-16.374.769-2.528 1.967-6.253 1.613-8.321-.792-2.069-2.404-1.696-5.949.831-7.916 8.765-6.822 20.988-7.396 30.415-1.43l1.737 1.1c2.72 1.72 3.457 5.213 1.648 7.8-1.14 1.628-3.016 2.51-4.929 2.51zm28.509-28.48a6.107 6.107 0 01-3.27-.942l-1.113-.704a6.95 6.95 0 00-7.97.374c-2.527 1.967-6.252 1.613-8.321-.792-2.069-2.405-1.696-5.95.832-7.917 6.342-4.937 15.188-5.353 22.01-1.034l1.113.704c2.72 1.72 3.457 5.213 1.649 7.8-1.14 1.63-3.017 2.511-4.93 2.511zm39.956 27.1a6.104 6.104 0 01-3.269-.942l-1.112-.704c-2.472-1.565-5.674-1.414-7.97.374-2.527 1.967-6.253 1.612-8.322-.792s-1.695-5.949.832-7.917c6.342-4.937 15.187-5.352 22.011-1.033l1.112.703c2.72 1.721 3.458 5.213 1.65 7.8-1.14 1.63-3.019 2.51-4.932 2.51z" fill="#f9f3f1"/><path d="M202.026 193.753c-1.913 0-3.79-.881-4.93-2.51-1.808-2.588-1.07-6.08 1.65-7.8l1.113-.705c6.822-4.318 15.667-3.902 22.01 1.035 2.527 1.967 2.9 5.512.832 7.916-2.068 2.406-5.794 2.76-8.322.793-2.297-1.788-5.5-1.938-7.97-.375l-1.113.704a6.109 6.109 0 01-3.27.942zm-39.957 27.1c-1.914 0-3.79-.882-4.93-2.512-1.809-2.587-1.07-6.079 1.65-7.8l1.112-.703c6.822-4.317 15.668-3.903 22.01 1.034 2.527 1.968 2.9 5.513.831 7.917-2.069 2.405-5.794 2.76-8.321.792-2.296-1.788-5.499-1.938-7.969-.375l-1.114.705a6.096 6.096 0 01-3.27.942z" fill="#f3eae6"/><path d="M401.639 266.586h-72.502c-3.265 0-5.913 2.519-5.913 5.626s2.648 5.626 5.913 5.626h72.502z" fill="#99e6fc"/><path d="M133.847 270.223v-3.637H85.563v11.252h48.539c-.162-2.52-.255-5.056-.255-7.615z" fill="#62dbfb"/></svg>