<svg width="200" height="200" xmlns="http://www.w3.org/2000/svg"><path d="M97.079 33.682c-15.381-.115-28.734 8.712-35.274 21.644-5.634 11.146-12.379 21.693-20.624 31.03-6.904 7.818-13.433 19.395-13.707 35.351a32.64 32.64 0 00-.015 1.039c0 21.447 17.202 38.834 38.421 38.834l.121-.001c.29-.001.581-.005.869-.011 38.291-.537 69.167-32.073 69.167-70.903V73.858c0-21.879-17.313-40.014-38.958-40.176zm0 0" fill="#f0a65f"/><path d="M136.037 90.665V73.858c0-13.389-6.484-25.375-16.476-32.698v-.001a40.634 40.634 0 017.632 23.757v4.082c0 7.195-5.129 13.334-12.141 14.573a92.147 92.147 0 01-10.807 1.273c-11.538.662-22.02 5.288-30.316 13.379-.222.213-.442.43-.659.65-6.715 6.786-10.412 15.81-10.412 25.408 0 5.622 1.582 10.716 3.56 14.889 2.94 6.203-1.421 13.436-8.225 13.457h-.167c-10.418 0-17.072-2.682-23.375-7.257 6.973 9.816 18.361 16.21 31.229 16.21 38.228-.189 70.157-32.132 70.157-70.915zm0 0" fill="#e28540"/><path d="M115.7 91.508a2.21 2.21 0 01-2.077-1.478c-.078-.215-1.724-4.557-6.886-6.378-1.15-.405-1.756-1.677-1.356-2.839a2.2 2.2 0 012.81-1.371c7.243 2.553 9.497 8.829 9.591 9.097a2.237 2.237 0 01-1.351 2.842 2.177 2.177 0 01-.731.127zm0 0" fill="#e28540"/><path d="M163.557 92.871a30.088 30.088 0 00-30.954-7.651c-9.097 2.976-18.477 5.014-28.023 5.56-7.994.46-17.814 3.177-26.581 11.738-.192.183-.381.37-.569.559-11.586 11.712-11.586 30.698 0 42.41l.067.065c.159.161.318.319.481.475 21.198 20.838 55.091 20.661 76.067-.54l9.08-9.179c11.819-11.946 12.162-31.402.432-43.437zm0 0" fill="#f0a65f"/><g fill="#e28540"><path d="M163.557 92.871a30.622 30.622 0 00-4.057-3.492c8.447 12.037 7.123 28.918-3.536 39.692l-9.08 9.178c-19.771 19.984-51.017 21.286-72.291 3.92.852 1.346 3.222 3.703 3.385 3.858 21.197 20.839 55.092 20.662 76.067-.54l9.08-9.178c11.82-11.947 12.162-31.403.432-43.438zM70.854 46.014c.048-.003 4.789-.322 9.395 1.346.246.09.497.13.744.13.905 0 1.754-.566 2.077-1.477a2.236 2.236 0 00-1.333-2.851c-3.134-1.136-6.274-1.5-8.43-1.6a39.69 39.69 0 00-4.253 3.716 2.18 2.18 0 001.8.736zm13.081 37.169a2.2 2.2 0 01-1.813-.955c-3.088-4.484-9.913-4.694-9.982-4.694a2.219 2.219 0 01-2.178-2.258 2.217 2.217 0 012.205-2.201h.027c.371.004 9.128.186 13.55 6.604.695 1.011.45 2.4-.55 3.104-.384.27-.824.4-1.259.4zm30.292-20.811a2.213 2.213 0 01-2.142-1.705c-1.21-5.048-6.886-6.318-7.127-6.37a2.232 2.232 0 01-1.708-2.635 2.203 2.203 0 012.594-1.733c.352.071 8.651 1.858 10.53 9.687a2.232 2.232 0 01-1.625 2.693 2.23 2.23 0 01-.522.063zm-57.061 46.975a2.21 2.21 0 01-2.13-1.65c-1.64-6.161-9.542-7.277-9.621-7.288a2.228 2.228 0 01-1.905-2.495c.156-1.218 1.254-2.08 2.459-1.93.445.057 10.912 1.48 13.329 10.553.315 1.19-.381 2.412-1.557 2.733a2.187 2.187 0 01-.575.077zm82.927-25.553c-2 .125-3.992.448-5.941.972.165.666.63 1.246 1.308 1.524.07.03 6.973 2.927 7.758 9.214a2.215 2.215 0 002.466 1.933 2.226 2.226 0 001.912-2.492c-.709-5.676-4.658-9.264-7.503-11.151zm0 0"/><path d="M124.227 113.508c-1.135 0-2.1-.88-2.195-2.044-.47-5.705-7.167-8.822-7.233-8.854a2.243 2.243 0 01-1.11-2.945 2.194 2.194 0 012.908-1.127c.373.168 9.142 4.2 9.831 12.555.102 1.228-.8 2.306-2.015 2.407a2.104 2.104 0 01-.186.008zm22.943 6.542a2.216 2.216 0 01-2.19-1.975c-.443-3.896-4.127-6.01-4.163-6.031a2.247 2.247 0 01-.867-3.024 2.187 2.187 0 012.978-.89c.234.126 5.725 3.2 6.436 9.434.139 1.223-.729 2.329-1.94 2.47-.084.01-.17.016-.254.016zm-62.65-7.434a2.217 2.217 0 01-2.202-2.118c-.206-4.161-5.267-5.223-5.319-5.234-1.194-.238-1.97-1.413-1.734-2.62a2.207 2.207 0 012.593-1.753c2.935.588 8.566 3.306 8.866 9.384.061 1.23-.876 2.278-2.093 2.338a1.833 1.833 0 01-.112.003zm38 34.298a2.2 2.2 0 00-2.743-1.5c-1.168.35-1.832 1.592-1.486 2.771 1.925 6.54-1.787 11.426-1.963 11.65a2.244 2.244 0 00-.46 1.686c1.6-.004 3.2-.08 4.794-.226 1.414-2.385 3.811-7.746 1.858-14.38zm0 0"/></g></svg>