<svg width="200" height="200" xmlns="http://www.w3.org/2000/svg"><path d="M112.316 86.289a2.407 2.407 0 01-1.147-.678c-1.01-1.06-1.014-2.845-.004-3.992l14.719-16.747c1.005-1.148 2.642-1.227 3.655-.16 1.01 1.057 1.015 2.845.004 3.992l-14.718 16.749c-.681.772-1.642 1.056-2.51.836zm0 0" fill="#b3e59f"/><path d="M102.338 83.755c-.99-.251-1.768-1.143-1.893-2.321l-4.811-45.121c-.165-1.543.854-2.988 2.272-3.228 1.404-.242 2.702.815 2.863 2.359l4.812 45.121c.165 1.543-.854 2.988-2.273 3.228a2.32 2.32 0 01-.97-.038zm0 0" fill="#95d6a4"/><path d="M121.547 27.173l9.596 2.437c1.522.387 2.32 2.167 1.699 3.772l-20.526 52.901-7.484-1.9zm0 0" fill="#ccf49f"/><path d="M121.546 27.171l-9.598-2.438c-1.519-.386-3.048.803-3.241 2.52l-6.369 56.495 7.486 1.901zm0 0" fill="#b3e59f"/><path d="M108.005 82.272c-24.803-6.3-46.962 7.727-52.571 30.547-5.027 20.448 6.338 38.631 24.915 49.605.021.013.042.024.063.039 2.762 1.659 11.63 3.912 14.835 3.768.024-.003.05-.003.071-.005 21.472-.801 39.916-11.413 44.942-31.861 5.61-22.82-7.454-45.794-32.255-52.093z" fill="#8c009b"/><path d="M68.837 133.777c.373-1.521-.44-3.04-1.82-3.39l-12.479-3.17a37.958 37.958 0 001.299 6.182l9.826 2.496c1.38.35 2.8-.597 3.174-2.118zm53.779 5.413c.71-1.393.265-3.06-.998-3.727l-11.415-6.026a38.554 38.554 0 00-.148 6.32l8.99 4.746c1.26.666 2.858.079 3.57-1.314zm0 0" fill="#bd4150"/><path d="M140.252 134.434c-3.966 22.743-24.36 33.569-44.877 32.044-.212-.016-2.328 2.891-5.192 3.676-1.928.529-4.951-.393-6.415-1.752-2.233-2.072-2.282-5.521-3.365-5.869-7.409-2.384-32.629-21.136-24.978-49.644 1.968-7.333 86.154 13.937 84.827 21.545z" fill="#facfff"/></svg>