<svg xmlns="http://www.w3.org/2000/svg" viewBox="0 0 490.004 490.004" width="512" height="512"><path d="M450.422 316.01c0 103.04-51.5 154.14-124.95 173.34-12.52 3.27-24.77-6.13-24.77-19.07v-90.61c0-15.38-6.24-29.3-16.32-39.38-10.08-10.08-24-16.32-39.38-16.32-30.77 0-55.7 24.94-55.7 55.7v90.61c0 12.94-12.25 22.34-24.77 19.07-73.46-19.2-124.95-70.3-124.95-173.34C39.582 178.31 131.552 0 245.002 0s205.42 178.31 205.42 316.01z" fill="#5b5b68"/><path d="M419.882 316.02c0 1.15-.01 2.29-.02 3.42-.56 44.32-12.08 78.85-34.26 102.69a97.8 97.8 0 01-1.73 1.81c-20.1 20.61-47.94 31.81-76.72 31.81h-6.46v-76.08c0-4-.42-7.9-1.22-11.66a55.541 55.541 0 00-15.09-27.72c-10.07-10.09-24-16.32-39.38-16.32-26.77 0-49.12 18.87-54.48 44.04-.81 3.76-1.23 7.66-1.23 11.66v76.08h-6.45c-28.78 0-56.63-11.2-76.72-31.81-.58-.6-1.16-1.2-1.73-1.81-22.19-23.84-33.71-58.38-34.27-102.71v-.01a286.72 286.72 0 01.5-20.6v-.01c3.46-58.51 23.97-124.67 55.28-176.69 35.02-58.2 78.42-91.58 119.1-91.58 40.66 0 84.08 33.38 119.08 91.58 31.31 52.03 51.83 118.21 55.28 176.72.35 5.81.52 11.55.52 17.19z" fill="#ff884d"/><path d="M425.112 314.31c-1.73 1.74-3.48 3.45-5.25 5.13-32.96 31.33-73.47 53.17-117.63 63.34l-1.54.35v-3.46c0-4-.42-7.9-1.22-11.66 43.53-10.14 83.29-32.36 115-64.27l4.89-4.91.4-.41 5.35 15.89zm-234.59 53.7c-.81 3.76-1.23 7.66-1.23 11.66v3.46l-1.53-.35c-44.16-10.17-84.69-32.02-117.64-63.36v-.01c-1.77-1.66-3.52-3.37-5.24-5.11l5.35-15.89.39.39v.01l4.9 4.92c31.71 31.92 71.46 54.14 115 64.28zm98.068-97.656a7.5 7.5 0 01-1.309-14.885c40.558-7.236 78.797-25.069 110.585-51.571a7.5 7.5 0 119.605 11.521c-33.787 28.168-74.438 47.123-117.556 54.816-.444.08-.888.119-1.325.119zm-87.186-.01a7.59 7.59 0 01-1.326-.118c-43.119-7.693-83.769-26.648-117.555-54.816a7.5 7.5 0 119.605-11.521c31.788 26.502 70.027 44.335 110.584 51.571a7.5 7.5 0 01-1.308 14.884zm43.598-106.653c-43.58 0-86.566-11.229-124.312-32.471a7.501 7.501 0 017.356-13.073c35.505 19.982 75.947 30.543 116.956 30.543 40.995 0 81.435-10.558 116.947-30.534a7.5 7.5 0 017.354 13.074c-37.753 21.237-80.736 32.461-124.301 32.461z" fill="#e86328"/><path d="M244.999 239.254a7.5 7.5 0 01-7.5-7.5V30.53a7.5 7.5 0 0115 0v201.224a7.5 7.5 0 01-7.5 7.5z" fill="#e86328"/><circle cx="244.999" cy="274.591" r="49.38" fill="#e4e4ef"/><path d="M427.392 316.02c0 47.92-12.22 85.35-36.3 111.22-.62.66-1.23 1.31-1.87 1.95-21.1 21.64-51.02 34.06-82.07 34.06h-6.45v-15h6.45c27.03 0 53.04-10.77 71.35-29.55.57-.57 1.09-1.13 1.62-1.69 21.41-23 32.27-56.98 32.27-100.99 0-61.12-20.97-133.94-54.73-190.04-33.62-55.9-74.68-87.95-112.66-87.95s-79.04 32.06-112.67 87.95c-33.76 56.1-54.73 128.92-54.73 190.04 0 44 10.86 77.98 32.28 101 .53.57 1.08 1.14 1.63 1.71 18.29 18.75 44.3 29.52 71.33 29.52h6.46v15h-6.46c-31.05 0-60.97-12.42-82.09-34.07-.64-.66-1.24-1.29-1.84-1.93-24.09-25.9-36.31-63.32-36.31-111.23 0-63.69 21.8-139.47 56.88-197.78 36.4-60.51 82.15-95.21 125.52-95.21s89.12 34.7 125.51 95.21c35.08 58.31 56.88 134.09 56.88 197.78z" fill="#e4e4ef"/></svg>