<svg height="200pt" viewBox="0 0 200 200" width="200pt" xmlns="http://www.w3.org/2000/svg"><path d="M69.004 25H64.33c-1.046 0-1.93.843-2.066 1.97l-3.027 25.193 7.43 9.054 7.431-9.054L71.07 26.97c-.135-1.127-1.02-1.97-2.066-1.97z" fill="#ffba48"/><path d="M79.167 52.163l-8.334 27.163H87.5V61.217c0-5-3.73-9.054-8.333-9.054z" fill="#ff5a35"/><path d="M70.833 52.163L62.5 79.326h16.667V52.163z" fill="#ff7a3c"/><path d="M62.5 52.163l-8.333 27.163h16.666V52.163z" fill="#ff9a42"/><path d="M54.167 52.163l-8.334 27.163H62.5V52.163z" fill="#ff7a3c"/><path d="M45.833 61.217v18.109h8.334V52.163c-4.603 0-8.334 4.054-8.334 9.054zM87.5 70.272h-8.333V175H87.5c4.602 0 8.333-4.054 8.333-9.054v-86.62c0-5-3.73-9.054-8.333-9.054z" fill="#ff9a42"/><path d="M87.5 165.946v-86.62c0-5-3.73-9.054-8.333-9.054H45.833c-4.602 0-8.333 4.053-8.333 9.054v86.62c0 5 3.73 9.054 8.333 9.054h33.334c4.602 0 8.333-4.054 8.333-9.054z" fill="#ffba48"/><path d="M135.671 25h-4.675c-1.047 0-1.93.843-2.066 1.97l-3.027 25.193 7.43 9.054 7.43-9.054-3.026-25.193c-.136-1.127-1.02-1.97-2.066-1.97zm10.162 27.163L137.5 79.326h16.667V61.217c0-5-3.731-9.054-8.334-9.054z" fill="#ff3a2f"/><path d="M137.5 52.163l-8.333 27.163h16.666V52.163z" fill="#ff5a35"/><path d="M129.167 52.163l-8.334 27.163H137.5V52.163z" fill="#ff7a3c"/><path d="M120.833 52.163L112.5 79.326h16.667V52.163z" fill="#ff5a35"/><path d="M112.5 61.217v18.109h8.333V52.163c-4.602 0-8.333 4.054-8.333 9.054z" fill="#ff7a3c"/><path d="M154.167 70.272h-8.334V175h8.334c4.602 0 8.333-4.054 8.333-9.054v-86.62c0-5-3.73-9.054-8.333-9.054z" fill="#db2116"/><path d="M154.167 165.946v-86.62c0-5-3.731-9.054-8.334-9.054H112.5c-4.602 0-8.333 4.053-8.333 9.054v86.62c0 5 3.73 9.054 8.333 9.054h33.333c4.603 0 8.334-4.054 8.334-9.054z" fill="#ff3a2f"/></svg>