<svg id="FLAT" height="512" viewBox="0 0 24 24" width="512" xmlns="http://www.w3.org/2000/svg"><path d="m18 7.25a3.0578 3.0578 0 0 0 -.7983.1123 5.2506 5.2506 0 0 0 -2.7964-1.9082.75.75 0 0 1 -.4883-.3574 3.2287 3.2287 0 0 0 -5.9038.1533h-.0132a5.2561 5.2561 0 0 0 -5.25 5.25v.25h18.5v-.25a3.2538 3.2538 0 0 0 -3.25-3.25z" fill="#f2eda7"/><path d="m12 3.41v7.34h-9.25v-.25a5.2558 5.2558 0 0 1 5.25-5.25h.01a3.2612 3.2612 0 0 1 2.99-2 3.0368 3.0368 0 0 1 1 .16z" fill="#ccc88c"/><path d="m9 7.75h-2a.25.25 0 0 1 0-.5h2a1.7522 1.7522 0 0 0 1.75-1.75.25.25 0 0 1 .5 0 2.2528 2.2528 0 0 1 -2.25 2.25z" fill="#f5f5f5"/><path d="m16 8.75h-1a2.2528 2.2528 0 0 1 -2.25-2.25.25.25 0 0 1 .5 0 1.7522 1.7522 0 0 0 1.75 1.75h1a.25.25 0 0 1 0 .5z" fill="#f5f5f5"/><path d="m22 12.25h-20a.25.25 0 0 0 -.25.25v2c0 3.4463 3.1025 6.25 6.9165 6.25h6.667c3.814 0 6.9165-2.8037 6.9165-6.25v-2a.25.25 0 0 0 -.25-.25z" fill="#fa8f82"/><path d="m12 12.25v8.5h-3.33c-3.82 0-6.92-2.8-6.92-6.25v-2a.2476.2476 0 0 1 .25-.25z" fill="#d1786d"/><path d="m21 10.25h-18a1.2511 1.2511 0 0 0 -1.25 1.25v1.25h20.5v-1.25a1.2511 1.2511 0 0 0 -1.25-1.25z" fill="#f8d5b9"/><path d="m12 10.25v2.5h-10.25v-1.25a1.25 1.25 0 0 1 1.25-1.25z" fill="#f1b695"/></svg>