<svg viewBox="0 0 500 500" xmlns="http://www.w3.org/2000/svg"><path d="M244.733 175.405L51.337 188.069s-4.022 25.446-.227 43.42c1.016 4.804 6.873 7.412 22.838 10.664 14.578 2.969 20.365 5.315 35.125 7.156 34.502 4.307 107.449 26.944 130.052-17.412 2.483-4.87 4.357-10.555 5.508-17.157 1.616-9.275.1-39.335.1-39.335z" fill="#ffe7c6"/><path d="M142.605 150.158c-32.087-1.838-46.425-4.939-70.741 10.952-10.24 6.693-24.32 15.45-20.524 29.372 1.016 3.723 6.872 5.744 22.838 8.262 14.578 2.3 20.365 4.118 35.124 5.544 38.293 3.703 123.94 24.897 135.56-26.78 1.617-7.184-6.172-11.222-11.36-15.273-18.792-14.674-26.434-16.49-49.995-12.426-2.698.466-24.433.295-40.902.349z" fill="#fbc983"/><path d="M266.062 195.002l176.027 13.394s3.66 26.912.206 45.918c-.924 5.081-6.254 7.842-20.785 11.28-13.27 3.138-18.537 5.621-31.972 7.57-31.402 4.553-97.798 28.494-118.371-18.417-2.26-5.152-3.967-11.161-5.014-18.144-1.47-9.81-.09-41.6-.09-41.6z" fill="#ffe7c6"/><path d="M359.017 171.02c29.206-1.746 42.256-4.691 64.388 10.404 9.321 6.357 22.136 14.675 18.681 27.9-.925 3.537-6.256 5.456-20.787 7.848-13.27 2.185-18.537 3.911-31.97 5.267-34.854 3.516-112.81 23.648-123.385-25.44-1.47-6.824 5.617-10.658 10.34-14.507 17.104-13.938 24.06-15.663 45.505-11.803 2.457.444 22.239.28 37.228.332z" fill="#fbc983"/><path d="M97.792 261.3l204.567 14.541s4.255 29.217.241 49.853c-1.074 5.516-7.27 8.512-24.158 12.245-15.42 3.41-21.541 6.102-37.153 8.218-36.495 4.944-113.656 30.935-137.565-19.995-2.627-5.59-4.61-12.118-5.826-19.698-1.71-10.649-.106-45.164-.106-45.164z" fill="#ffe7c6"/><path d="M205.82 234.682c33.942-1.936 49.107-5.206 74.828 11.547 10.831 7.056 25.724 16.287 21.71 30.965-1.075 3.924-7.27 6.054-24.158 8.709-15.42 2.425-21.541 4.341-37.153 5.845-40.505 3.903-131.1 26.247-143.391-28.231-1.71-7.575 6.528-11.832 12.016-16.102 19.877-15.469 27.962-17.384 52.884-13.1 2.853.492 25.845.31 43.265.367z" fill="#fbc983"/></svg>