<svg width="200" height="200" xmlns="http://www.w3.org/2000/svg"><path d="M93.988 116.666c-5.637 6.338-11.094 10.087-11.094 10.087s-32.321-6.939-38.465-30.849a25.689 25.689 0 01-.31-1.321c-5.268-24.98 2.02-49.602 17.688-67.823 21.808 10.906 38.496 30.85 43.763 55.83 2.94 13.937-4.463 26.074-11.582 34.077z" fill="#8b5522"/><path d="M61.848 91.12c5.227 24.784 20.801 35.464 21.043 35.629-.517-.112-33.546-7.385-38.773-32.169-5.268-24.98 2.022-49.6 17.69-67.823-4.857 16.114-5.228 39.383.04 64.363z" fill="#804d1d"/><path d="M77.377 102.847c-1.086 0-2.058-.734-2.282-1.797l-11.06-52.448c-.257-1.214.559-2.397 1.82-2.643 1.261-.247 2.492.538 2.748 1.751l11.06 52.448c.256 1.214-.559 2.397-1.82 2.643a2.405 2.405 0 01-.466.046z" fill="#804d1d"/><path d="M93.988 116.666c-5.637 6.338-11.094 10.087-11.094 10.087s-29.698-.74-35.841-24.65c18.148.715 33.334 1.553 46.935 14.563z" fill="#70431a"/><path d="M95.758 87.876c-18.404 18.336-5.567 48.966-5.567 48.966s32.27 11.272 50.674-7.063c18.404-18.336 26.022-42.865 22.998-66.332-24.485-2.087-49.7 6.094-68.105 24.43z" fill="#8b5522"/><path d="M89.907 124.926c-6.588-5.423-8.83-9.982-8.83-9.982.094.03 1.876-28.196 23.88-35.015-.756 17.447-9.045 24.412-15.05 44.997z" fill="#70431a"/><path d="M108.773 99.965c-18.26 18.192-18.577 36.589-18.581 36.874-.198-.473-12.693-30.772 5.567-48.964 18.404-18.335 43.62-26.515 68.106-24.428-16.551 5.285-36.688 18.183-55.092 36.518z" fill="#804d1d"/><path d="M107.145 122.193a2.372 2.372 0 01-1.626-.636 2.182 2.182 0 01-.042-3.17l24.641-24.32 8.341-8.31 7.94-8.139a2.396 2.396 0 013.294-.1c.939.847.985 2.266.104 3.169l-7.95 8.15-.023.023-8.36 8.329-24.65 24.328a2.37 2.37 0 01-1.669.676z" fill="#804d1d"/><path d="M52.506 161.848c14.922 17.444 44.256 9.667 44.256 9.667s13.579-26.196-1.343-43.639C80.5 110.433 58.817 101.5 37.032 101.689c-4.386 20.529.553 42.716 15.474 60.16z" fill="#ffb218"/><path d="M64.887 152.046c14.804 17.307 31.61 19.435 31.871 19.468-.452.119-29.448 7.64-44.252-9.667-14.922-17.443-19.859-39.63-15.473-60.16 3.163 14.554 12.932 32.915 27.854 50.359z" fill="#e8a328"/></svg>