<svg width="200" height="200" xmlns="http://www.w3.org/2000/svg"><path d="M132.809 81.03c-.98-.17-1.775-.924-2.06-1.954a3.127 3.127 0 01.713-2.936c5.152-5.252 8.2-12.477 8.451-20.042.002-8.602-4.334-17.34-12.886-25.974-1.063-1.073-1.097-2.904-.078-4.09 1.019-1.187 2.706-1.279 3.768-.206 9.648 9.733 14.53 19.859 14.53 30.101-.246 9.15-3.89 17.91-10.103 24.284-.623.66-1.492.966-2.335.818zm0 0" fill="#134805"/><path d="M157.555 74.548c-.654-6.826-8.473-11.29-14.461-14.632-5.462-3.048-12.27-5.943-18.282-4.22-8.783 2.514-19.394 19.365-19.394 19.365s-36.181 51.057-43.776 56.359c-47.269 32.993-5.576 53.335 51.358 9.901 21.541-16.433 47.108-40.137 44.555-66.773z" fill="#217b08"/><path d="M59.59 148.859a138.004 138.004 0 01-3.886 2.554c-1.576.996-3.397.876-4.067-.267-.615-1.16.106-2.86 1.645-3.875 15.607-9.715 28.628-22.933 37.021-37.582.76-1.487 2.6-2.519 4.127-2.314 1.528.206 2.177 1.572 1.456 3.064-8.252 14.728-20.95 28.168-36.295 38.42zm0 0" fill="#addaa0"/></svg>