<svg width="200" height="200" xmlns="http://www.w3.org/2000/svg"><path d="M103.645 28.114c-1.828 9.414-6.012 17.801-11.29 22.638L74.883 66.759c-10.119 9.27-18.137 25.347-21.64 43.393-6.149 31.661 3.118 60.096 20.699 63.51l23.53 4.57c17.58 3.413 36.816-19.486 42.965-51.147 3.505-18.045 2.088-35.954-3.826-48.338l-10.21-21.383c-3.085-6.461-3.825-15.804-1.997-25.218l-20.76-4.032z" fill="#670c55"/><path d="M103.902 29.125c-1.802 9.281-5.877 17.56-10.997 22.345L75.962 67.305c-9.813 9.172-17.622 25.04-21.076 42.83-6.062 31.215 2.785 59.192 19.76 62.49l22.721 4.411c16.976 3.297 35.65-19.335 41.713-50.55 3.456-17.79 2.154-35.428-3.513-47.606l-9.786-21.026c-2.957-6.353-3.636-15.555-1.834-24.836l-20.045-3.893z" fill="#ffcff6"/><path d="M128.243 128.73c-5.568 28.672-22.775 49.452-38.431 46.412l-7.45-1.447c-15.656-3.04-23.834-28.75-18.266-57.423 2.674-13.77 8.225-26.397 15.432-35.1L92.07 66.024c7.383-8.915 13.07-21.848 15.808-35.952l12.028 2.336c-2.739 14.104-2.306 28.225 1.202 39.256l5.962 18.74c3.426 10.767 3.848 24.554 1.173 38.325z" fill="#ffe6ff"/><path d="M72.575 141.496c-1.419 17.08 4.271 30.679 13.596 32.49 9.325 1.81 19.692-8.67 24.768-25.04 5.115-16.493 6.767-34.332 4.619-49.872l-1.64-11.84c-2.397-17.333-1.694-36.689 2.028-55.857l-4.01-.778c-3.722 19.167-10.315 37.38-19.026 52.556L86.96 93.52c-7.81 13.606-12.956 30.767-14.385 47.976z" fill="#fff"/></svg>