<svg width="200" height="200" xmlns="http://www.w3.org/2000/svg"><path d="M146.018 61.799l-20.893-16.576c-7.102-5.633-25.7 1.036-32.83 10.024C82.892 67.1 81.648 85.441 88.75 91.075l15.268 12.113c4.882 3.873 4.945 11.921.141 17.977-4.804 6.055-12.656 7.825-17.538 3.951l-10.447-8.287-18.978 23.922 16.072 12.75c20.416 16.197 53.251 8.798 73.341-16.525 20.09-25.323 19.825-58.98-.59-75.177z" fill="#ff9987"/><path d="M105.23 51.54c9.037-8.386 23.202 2.363 25.514 6.433l-3.338 4.231c1.405-4.525-15.183-14.218-22.176-10.664zm34.85 83.673l-3.056-2.748a60.212 60.212 0 001.538-1.86c5.92-7.44 9.811-16.19 11.126-25.02l4.467-.238c-1.462 9.813-5.787 19.538-12.368 27.804a64.124 64.124 0 01-1.706 2.062zm9.508-43.521c-1.446-8.208-5.46-15.178-11.477-19.925l-1.607-1.275 3.163-3.988 1.607 1.275c6.687 5.278 11.15 13.022 12.76 22.143zm0 0" fill="#ffadad"/><path d="M57.196 140.751l-29.09-23.078c-6.125-4.859-6.204-14.956-.178-22.553 3.415-4.306 8.257-7.075 13.085-7.482 4.83-.409 9.088 1.592 11.509 5.405L71.43 122.81zm0 0" fill="#ff6862"/><path d="M71.43 122.81L40.237 98.062c-4.965-3.937-5.03-12.12-.144-18.277 5.597-7.055 14.746-9.117 20.434-4.604 1.68 1.333 2.932 3.156 3.643 5.31l12.004 36.337zm-38.342-1.184l24.108 19.125 11.07-13.955zm108.109-63.652l-3.215-2.55-36.375 45.851 3.215 2.55zm-49.449 69.143l-9.376 31.745a40.36 40.36 0 004.01 1.439l9.959-33.678c-1.548.465-3.106.633-4.593.494zm15.401-11.701a16.505 16.505 0 01-2.231 4.726l32.898 26.1a71.523 71.523 0 003.725-3.542zm54.284-21.649l-54.412 13.657c.499 1.373.73 2.886.68 4.463l53.765-13.494c.057-1.557.042-3.1-.033-4.626zm0 0" fill="#ff7772"/><path d="M90.908 156.422c8.32 5.927 34.662-2.728 39.348-9.811l-3.491-2.91c-1.25 6.03-27.632 13.487-35.857 12.721z" fill="#ffadad"/></svg>