<svg id="Layer_1" height="512" viewBox="0 0 512 512" width="512" xmlns="http://www.w3.org/2000/svg" data-name="Layer 1"><path d="m393.75 164h-275.5a137.75 137.75 0 0 1 275.5 0z" fill="#ff716f"/><path d="m357.43 70.79a65.57 65.57 0 0 1 -65.57 65.57h-170.86a138.1 138.1 0 0 0 -2.75 27.64h275.5a137.25 137.25 0 0 0 -36.32-93.21z" opacity=".12"/><path d="m304.7 330.37c62.21-21.19 108.18-81.85 112.62-154.78a10.94 10.94 0 0 0 -10.91-11.59h-300.82a10.94 10.94 0 0 0 -10.91 11.6c4.44 72.95 50.4 133.62 112.61 154.8a38.67 38.67 0 0 1 26.45 36.53v82.52a38.05 38.05 0 0 1 -24 35.38l-43.32 17.17a5.2 5.2 0 0 0 1.92 10h175.32a5.2 5.2 0 0 0 1.92-10l-43.28-17.18a38.05 38.05 0 0 1 -24-35.38v-82.54a38.68 38.68 0 0 1 26.4-36.53z" fill="#efefef"/><path d="m304.7 330.37c62.21-21.19 108.18-81.85 112.62-154.78a10.94 10.94 0 0 0 -10.91-11.59h-82.67v16.64a139.62 139.62 0 0 1 -139.63 139.62 153.25 153.25 0 0 0 23.89 10.37c15.55 5.21 25.72 20.18 25.72 36.58v82.23a38.05 38.05 0 0 1 -24 35.38l-43.3 17.18a5.2 5.2 0 0 0 1.92 10h175.32a5.2 5.2 0 0 0 1.92-10l-43.28-17.18a38.05 38.05 0 0 1 -24-35.38v-82.54a38.68 38.68 0 0 1 26.4-36.53z" opacity=".12"/><path d="m405.41 34.28-73.18 73.18c-19.42.23-27.29-10.79-28.4-28.4l73.17-73.18a20.09 20.09 0 0 1 28.4 0 20.07 20.07 0 0 1 .01 28.4z" fill="#fcc862"/></svg>