<svg width="200" height="200" xmlns="http://www.w3.org/2000/svg"><path d="M91.322 55.144c4.765-5.518 7.443-13.003 7.443-20.809v-7.008h27.536v7.008c0 7.806 2.677 15.291 7.442 20.81l2.58 2.987c4.766 5.517 7.442 13.003 7.442 20.807v82.388c-9.277 5.867-19.917 9.201-31.232 9.201-11.314 0-21.955-3.334-31.233-9.201V78.939c0-7.804 2.678-15.29 7.443-20.807zm0 0" fill="#91e0e8"/><path d="M126.3 27.327v7.008c0 7.806 2.678 15.291 7.443 20.81l2.58 2.987c4.766 5.517 7.442 13.003 7.442 20.807v82.388c-4.77 3.015-9.9 5.36-15.298 6.927V78.94c0-7.804-2.677-15.29-7.442-20.807l-2.58-2.988c-4.765-5.518-7.442-13.003-7.442-20.809v-7.008zm0 0" fill="#5dc1d8"/><path d="M134.795 65.569c3.326 4.181 5.145 9.436 5.145 14.995v78.364c-8.333 4.142-17.618 6.457-27.407 6.457-9.79 0-19.075-2.315-27.408-6.457V80.564c0-5.559 1.819-10.813 5.147-14.995zm0 0" fill="#d9eafc"/><path d="M111.185 57.63c-1.186-7.956 4.566-15.148 12.11-15.292 1.246 5.493 3.89 10.533 7.744 14.628l2.579 2.74c4.077 4.334 6.322 10.097 6.322 16.226v77.665c-8.333 4.105-17.618 6.4-27.407 6.4-9.79 0-19.075-2.295-27.408-6.4V76.156c2.635 1.744 5.741 2.756 9.075 2.756 10.427 0 18.689-9.857 16.985-21.282zm0 0" fill="#fff"/><path d="M95.69 33.288h33.795c1.729 0 3.132-1.217 3.132-2.714v-6.495c0-1.5-1.403-2.714-3.132-2.714H95.689c-1.73 0-3.132 1.214-3.132 2.714v6.495c0 1.497 1.402 2.714 3.132 2.714zm0 0" fill="#293d7c"/><path d="M119.869 30.574v-6.495c0-1.5-1.403-2.714-3.132-2.714h12.748c1.729 0 3.132 1.214 3.132 2.714v6.495c0 1.497-1.403 2.714-3.132 2.714h-12.748c1.729 0 3.132-1.217 3.132-2.714zm0 0" fill="#1a2b63"/><path d="M123.295 42.338c1.246 5.562 3.89 10.664 7.744 14.813l2.579 2.773c4.077 4.388 6.322 10.222 6.322 16.427v78.637a61.863 61.863 0 01-11.473 4.367V76.35c0-7.251-2.677-14.208-7.442-19.337l-2.58-2.774a27.43 27.43 0 01-4.655-6.89c2.232-2.977 5.631-4.937 9.505-5.012zm-17.157 81.914c0 1.972 1.903 3.572 4.25 3.572s4.251-1.6 4.251-3.572c0-1.975-1.904-3.575-4.25-3.575-2.348 0-4.25 1.6-4.25 3.575zm-12.744 15.599c0 2.684 2.51 4.862 5.608 4.862 3.099 0 5.61-2.178 5.61-4.862 0-2.686-2.511-4.863-5.61-4.863-3.098 0-5.608 2.177-5.608 4.863zm0 0" fill="#d9eafc"/><path d="M103.955 171.052H69.88c-.622 0-1.125.487-1.125 1.087v5.409c0 .6.503 1.087 1.125 1.087h34.076c.621 0 1.125-.487 1.125-1.087v-5.409c0-.6-.504-1.087-1.125-1.087z" fill="#f9ecd4"/><path d="M103.955 171.052h-5.4v7.583h5.4c.621 0 1.125-.487 1.125-1.087v-5.409c0-.6-.504-1.087-1.125-1.087z" fill="#f7e0ba"/><path d="M109.192 106.29c-.78-1.087-2.062-1.735-3.43-1.735-1.731 0-3.302 1.052-3.91 2.618L96.7 120.471a1.05 1.05 0 00.129 1c.21.294.555.468.924.468h6.511c.47 0 .89-.281 1.054-.706l4.353-11.231a3.92 3.92 0 00-.479-3.712z" fill="#c6946a"/><path d="M109.192 106.29c-.78-1.087-2.062-1.735-3.43-1.735a4.27 4.27 0 00-2.308.68c.43.277.81.632 1.113 1.054a3.919 3.919 0 01.48 3.713l-4.354 11.231a1.125 1.125 0 01-1.054.706h4.626c.469 0 .889-.281 1.053-.706l4.353-11.231a3.92 3.92 0 00-.479-3.712z" fill="#b27c57"/><path d="M111.803 124.663a1.144 1.144 0 00-.826-.35h-48.12c-.314 0-.614.128-.827.35-.213.223-.32.522-.295.824l3.63 44.07c.169 2.057 1.975 3.67 4.112 3.67h34.88c2.136 0 3.942-1.613 4.112-3.67l3.63-44.07c.024-.302-.083-.6-.296-.824z" fill="#73cdff"/><path d="M111.803 124.663a1.144 1.144 0 00-.826-.35h-6.589c.314 0 .614.128.827.35.213.223.32.522.295.824l-3.63 44.07c-.169 2.057-1.975 3.67-4.112 3.67h6.588c2.137 0 3.943-1.613 4.113-3.67l3.63-44.07c.024-.302-.083-.6-.296-.824zm-53.676-2.716c-.467 0-.744-.007-.798-.008-.622-.017-1.11-.517-1.093-1.117s.53-1.072 1.156-1.056c.073.002 7.39.175 15.722-1.584 4.854-1.025 9.096-2.495 12.609-4.37 4.322-2.306 7.541-5.235 9.567-8.704a1.147 1.147 0 011.533-.413c.54.295.732.958.427 1.48-2.238 3.833-5.757 7.047-10.462 9.553-3.71 1.976-8.165 3.52-13.24 4.588-7.065 1.486-13.267 1.631-15.421 1.631z" fill="#36c2ff"/><path d="M110.519 140.264a1.144 1.144 0 00-.827-.35H98.839c-2.795-3.645-7.208-5.804-11.922-5.804-4.715 0-9.127 2.159-11.923 5.805H64.142c-.315 0-.614.126-.827.349-.213.223-.32.521-.295.824l1.225 14.874c.046.565.534 1.001 1.121 1.001h9.628c2.796 3.646 7.208 5.805 11.923 5.805 4.714 0 9.127-2.16 11.922-5.805h9.628c.587 0 1.075-.436 1.122-1l1.225-14.875a1.066 1.066 0 00-.295-.824z" fill="#f9ecd4"/><path d="M110.519 140.264a1.144 1.144 0 00-.827-.35h-5.37l-1.404 17.05h5.549c.587 0 1.075-.437 1.122-1.002l1.225-14.874a1.066 1.066 0 00-.295-.824z" fill="#f7e0ba"/><path d="M116.473 119.765H57.36c-.621 0-1.125.487-1.125 1.087v4.549c0 .6.504 1.087 1.125 1.087h59.113c.622 0 1.126-.487 1.126-1.087v-4.549c0-.6-.504-1.087-1.126-1.087z" fill="#f9ecd4"/><path d="M116.473 119.765h-5.4v6.723h5.4c.622 0 1.126-.487 1.126-1.087v-4.549c0-.6-.504-1.087-1.126-1.087z" fill="#f7e0ba"/></svg>