<svg height="503pt" viewBox="-113 0 503 503.91" width="503pt" xmlns="http://www.w3.org/2000/svg"><path d="M19.011 150.79c9.827-26.985 5.266-36.705 4.101-39.896a3.533 3.533 0 01-.253-1.416v-9.315l32.416-15.189 32.415 15.19v9.314a3.45 3.45 0 01-.253 1.416c-1.165 3.19-5.722 12.91 4.103 39.896l-33.732 15.189zm0 0" fill="#b0d3f0"/><path d="M115.345 60.875L112.408 71a5.807 5.807 0 01-5.724 3.849h-4.052a6.227 6.227 0 00-4.913 2.28L87.69 100.163H22.86L12.832 77.13a6.226 6.226 0 00-4.913-2.28H3.868A5.807 5.807 0 01-1.857 71l-2.936-10.125A5.292 5.292 0 01.93 54.599h108.693a5.286 5.286 0 014.438 1.7 5.285 5.285 0 011.284 4.576zm0 0" fill="#e64c3c"/><path d="M134.844 322.922c-4.406 30.378-11.8 25.314-76.63 25.314h-5.876c-64.83 0-72.227 5.064-76.63-25.314-4.408-30.376 0-86.064 29.475-141.754a247.523 247.523 0 0013.828-30.378h72.53a247.154 247.154 0 0013.827 30.378c29.476 55.69 33.883 111.378 29.476 141.754zm0 0" fill="#805333"/><g fill="#e4c05c"><path d="M12.223 287.483a17.723 17.723 0 01-16.396-10.934 17.715 17.715 0 013.85-19.325c7.036-6.666 18.06-6.666 25.093 0a17.68 17.68 0 014.826 8.997 5.063 5.063 0 01-3.951 5.973 5.063 5.063 0 01-5.976-3.95 7.577 7.577 0 00-2.06-3.862 7.847 7.847 0 00-10.768 0 7.594 7.594 0 005.383 12.976 5.063 5.063 0 110 10.125zm0 0"/><path d="M12.223 312.797c-8.42-.014-15.676-5.932-17.377-14.175a5.069 5.069 0 019.931-2.026 7.597 7.597 0 008.461 6.007 7.592 7.592 0 006.564-8.033 7.596 7.596 0 00-7.579-7.087 5.063 5.063 0 110-10.125c9.79 0 17.729 7.933 17.729 17.72 0 9.786-7.939 17.719-17.729 17.719zm45.584 0c-12.779 0-22.792-13.345-22.792-30.376 0-17.032 10.013-30.377 22.792-30.377S80.6 265.389 80.6 282.42c0 17.03-10.013 30.376-22.792 30.376zm0-50.626c-6.862 0-12.662 9.273-12.662 20.25 0 10.976 5.8 20.25 12.662 20.25s12.663-9.274 12.663-20.25c0-10.977-5.8-20.25-12.663-20.25zm43.051 25.312a5.063 5.063 0 01-4.339-2.454l-15.195-25.315a5.062 5.062 0 011.778-6.868 5.067 5.067 0 016.904 1.654l10.852 18.079 10.854-18.079a5.066 5.066 0 018.833.1 5.063 5.063 0 01-.15 5.114l-15.196 25.315a5.064 5.064 0 01-4.341 2.454zm0 0"/><path d="M100.858 312.797a5.061 5.061 0 01-5.064-5.061V282.42a5.066 5.066 0 0110.13 0v25.315a5.063 5.063 0 01-5.066 5.061zm0 0"/></g><path d="M9.69 236.858a5.063 5.063 0 01-4.972-6.046 137.547 137.547 0 0110.21-31.552 5.068 5.068 0 016.741-2.425 5.063 5.063 0 012.427 6.739 127.108 127.108 0 00-9.442 29.201 5.064 5.064 0 01-4.963 4.083zm20.262-50.628a5.06 5.06 0 01-4.306-2.403 5.052 5.052 0 01-.224-4.922l5.066-10.128a5.067 5.067 0 019.067 4.528l-5.066 10.126a5.066 5.066 0 01-4.537 2.798zm0 0" fill="#af8066"/><g data-name="06-tofu"><path d="M169.043 354.586h14.562a7.281 7.054 0 00-7.281 7.054 7.303 7.075 0 00-7.281-7.054z" fill="#b9976a"/><path d="M300.102 340.479v85.843a14.562 14.107 0 01-4.26 9.98l-13.324 12.909a14.562 14.107 0 01-10.302 4.126h-1.238a7.303 7.075 0 007.28-7.053V361.64a7.281 7.054 0 00-2.147-4.973l21.843-21.161a7.281 7.054 0 012.148 4.973z" fill="#dbb27d"/><path d="M297.954 335.506l-21.843 21.161a7.117 6.895 0 00-5.133-2.08h-49.73a14.562 14.107 0 0010.303-4.127l13.324-12.908a14.23 13.786 0 003.167-4.585l1.093.458h43.686a7.117 6.895 0 015.133 2.081z" fill="#f7d5a9"/><path d="M276.111 356.667a7.281 7.054 0 012.148 4.973v84.644a7.303 7.075 0 01-7.281 7.053h-87.373a7.281 7.054 0 01-7.281-7.053V361.64a7.281 7.054 0 017.281-7.054h87.373a7.117 6.895 0 015.133 2.081z" fill="#ffe8c8"/><path d="M249.135 241.728v85.843a15.177 14.703 0 01-1.093 5.396 14.23 13.786 0 01-3.167 4.585l-13.324 12.908a14.562 14.107 0 01-10.303 4.126h-1.238a7.303 7.075 0 007.281-7.053v-84.644a7.281 7.054 0 00-2.148-4.973l21.844-21.161a7.281 7.054 0 012.148 4.973z" fill="#dbb27d"/><path d="M246.987 236.755l-21.844 21.16a7.117 6.895 0 00-5.133-2.08h-87.373a7.281 7.054 0 00-7.28 7.054v-.6a7.423 7.191 0 012.11-5.008l1.53-1.446 15.436-14.954a21.796 21.115 0 0115.436-6.207h81.985a7.117 6.895 0 015.133 2.08z" fill="#f7d5a9"/><path d="M225.143 257.916a7.281 7.054 0 012.148 4.973v84.644a7.303 7.075 0 01-7.28 7.053h-87.374a7.281 7.054 0 01-7.28-7.053v-84.644a7.281 7.054 0 017.28-7.054h87.373a7.117 6.895 0 015.133 2.08zM176.324 361.64v84.644a7.303 7.075 0 01-7.281 7.053H81.67a7.281 7.054 0 01-7.281-7.053V361.64a7.281 7.054 0 017.281-7.054h87.373a7.303 7.075 0 017.28 7.054z" fill="#ffe8c8"/><path d="M132.637 354.586H81.67a7.281 7.054 0 00-7.281 7.054v-.6a7.423 7.191 0 012.111-5.008l1.53-1.446 15.435-14.954a21.796 21.115 0 0115.436-6.207h16.455v14.108a7.281 7.054 0 007.281 7.053z" fill="#f7d5a9"/><path d="M282.737 345.77H260.58a3.64 3.527 0 01-2.573-6.021l6.527-6.324h-15.4l-1.092-.458a14.23 13.786 0 01-3.167 4.585l-13.324 12.908a14.562 14.107 0 01-10.303 4.126h49.73a7.117 6.895 0 015.133 2.081l9.596-9.297a3.582 3.47 0 00-2.97-1.6z" fill="#e7c699"/><path d="M276.111 356.667a7.117 6.895 0 00-5.133-2.08h-80.092a87.322 84.594 0 0087.373 84.643v-77.59a7.281 7.054 0 00-2.148-4.973zm-101.935 0a7.117 6.895 0 00-5.133-2.08H88.95a87.322 84.594 0 0087.373 84.643v-77.59a7.281 7.054 0 00-2.148-4.973zm50.967-98.751a7.117 6.895 0 00-5.133-2.081h-80.09a87.322 84.594 0 0087.372 84.644v-77.59a7.281 7.054 0 00-2.148-4.973z" fill="#fff3e0"/><g fill="#ffdfb8" transform="matrix(3.64053 0 0 3.52683 70.748 231.147)"><ellipse cx="31.121" cy="31.75" rx=".574" ry=".413" transform="rotate(-45 31.099 31.751)"/><ellipse cx="18.121" cy="40.75" rx=".574" ry=".413" transform="rotate(-45 18.1 40.743)"/><ellipse cx="10.121" cy="45.75" rx=".574" ry=".413" transform="rotate(-45 10.102 45.738)"/><ellipse cx="38.121" cy="27.75" rx=".413" ry=".574"/><ellipse cx="25.121" cy="39.75" rx=".413" ry=".574"/><ellipse cx="40.121" cy="23.75" rx=".413" ry=".574"/><ellipse cx="42.121" cy="42.75" rx=".413" ry=".574"/><ellipse cx="44.121" cy="38.75" rx=".413" ry=".574"/><ellipse cx="35.121" cy="21.75" rx=".413" ry=".574" transform="rotate(-45 35.102 21.755)"/><ellipse cx="41.121" cy="18.75" rx=".413" ry=".574" transform="rotate(-45 41.1 18.759)"/><ellipse cx="35.121" cy="30.75" rx=".413" ry=".574" transform="rotate(-45 35.098 30.752)"/><ellipse cx="21.121" cy="41.75" rx=".413" ry=".574"/><ellipse cx="9.121" cy="52.75" rx=".413" ry=".574"/><ellipse cx="20.121" cy="26.75" rx=".413" ry=".574"/><ellipse cx="5.375" cy="53.25" rx=".825" ry="1.148" transform="rotate(-45 5.376 53.276)"/><ellipse cx="40.375" cy="58.25" rx=".825" ry="1.148"/><ellipse cx="17.375" cy="19.25" rx=".825" ry="1.148"/><ellipse cx="9.375" cy="59.25" rx=".825" ry="1.148"/><ellipse cx="24.375" cy="20.25" rx=".825" ry="1.148"/><ellipse cx="32.121" cy="15.75" rx=".574" ry=".413" transform="rotate(-45 32.104 15.756)"/><ellipse cx="19.121" cy="15.75" rx=".574" ry=".413" transform="rotate(-45 19.108 15.752)"/><ellipse cx="42.121" cy="51.75" rx=".574" ry=".413" transform="rotate(-45 42.088 51.748)"/><ellipse cx="37.121" cy="12.75" rx=".413" ry=".574"/><ellipse cx="23.121" cy="50.75" rx=".413" ry=".574"/><ellipse cx="33.121" cy="9.75" rx=".413" ry=".574" transform="rotate(-45 33.106 9.758)"/><ellipse cx="23.121" cy="11.75" rx=".413" ry=".574"/><ellipse cx="21.121" cy="9.75" rx=".413" ry=".574"/><ellipse cx="49.375" cy="41.25" rx=".825" ry="1.148" transform="rotate(-45 49.398 41.271)"/><ellipse cx="34.375" cy="49.25" rx=".825" ry="1.148" transform="rotate(-45 34.391 49.274)"/><ellipse cx="23.375" cy="16.25" rx="1.719" ry="1.235" transform="rotate(-45 23.362 16.253)"/><ellipse cx="36.375" cy="53.25" rx="1.719" ry="1.235" transform="rotate(-45 36.344 53.244)"/><ellipse cx="20.375" cy="55.25" rx=".825" ry="1.148" transform="rotate(-45 20.385 55.277)"/><ellipse cx="17.375" cy="59.25" rx="1.719" ry="1.235" transform="rotate(-45 17.348 59.236)"/><ellipse cx="37.375" cy="15.25" rx=".825" ry="1.148"/><ellipse cx="54.375" cy="53.25" rx=".825" ry="1.148"/></g></g></svg>