<svg width="200" height="200" xmlns="http://www.w3.org/2000/svg"><path d="M98.775 34.229c-4.6 0-8.325-1.173-8.325-2.623V26.36c0-1.45 3.726-2.625 8.325-2.625 4.601 0 8.324 1.174 8.324 2.625v5.246c0 1.45-3.723 2.623-8.324 2.623zm0 0" fill="#ba8f00"/><path d="M146.88 104.133c1.59 40.92-7.983 75.246-48.744 73.46-40.761-1.785-48.743-32.888-48.743-73.46 0-40.57 6.225-73.327 48.743-73.46 42.519-.132 47.154 32.54 48.744 73.46z" fill="#fff835"/><path d="M147.416 104.133c0 20.36-5.501 38.877-14.365 52.236-8.877 13.378-21.303 21.755-34.915 21.755-13.612 0-26.038-8.377-34.915-21.755-8.864-13.359-14.365-31.876-14.365-52.236 0-20.36 5.501-38.876 14.365-52.235 8.877-13.378 21.303-21.755 34.915-21.755 13.612 0 26.038 8.377 34.915 21.755 8.864 13.359 14.365 31.876 14.365 52.235zM132.154 52.48c-8.764-13.209-20.709-21.276-34.018-21.276-13.31 0-25.254 8.067-34.018 21.276-8.778 13.23-14.189 31.443-14.189 51.653 0 20.21 5.41 38.424 14.189 51.653 8.764 13.21 20.709 21.277 34.018 21.277 13.31 0 25.254-8.067 34.018-21.277 8.778-13.23 14.19-31.442 14.19-51.653 0-20.21-5.412-38.423-14.19-51.653z" fill="none"/><path d="M49.393 104.133c0-40.57 6.225-73.327 48.743-73.46-16.035 6.378-35.918 16.185-39.708 71.189-3.79 55.004 37.188 77.664 39.708 75.732-40.761-1.786-48.743-32.89-48.743-73.46z" fill="#e0d90d"/></svg>