<svg width="200" height="200" xmlns="http://www.w3.org/2000/svg"><path d="M50.026 125.995c1.311 9.662 13.269 15.152 26.707 12.261 10.868-2.337 19.376-9.44 21.54-17.181.996-3.565 3.847-6.285 7.253-7.017-3.406.732-6.812-.643-8.693-3.588-4.083-6.399-13.983-9.541-24.85-7.204-13.439 2.89-23.27 13.067-21.957 22.73zm0 0" fill="#5d9b44"/><path d="M96.23 115.43c-.088.025-.173.025-.261.047-2.008 8.055-10.03 16.029-20.843 19.74-5.82 1.998-11.535 2.426-16.417 1.558 4.847 2.261 11.253 2.938 18.024 1.481 10.868-2.337 19.376-9.44 21.54-17.181.997-3.565 3.847-6.285 7.253-7.018a8.343 8.343 0 01-3.263.048c-2.015.406-4.038.774-6.032 1.325zm0 0" fill="#3e7c41"/><path d="M55.883 56.826c-7.287 9.29-3.321 25.414 8.857 36.015 9.85 8.573 22.053 10.91 30.217 6.577 3.758-1.995 8.137-1.496 11.224 1.191-3.087-2.687-4.378-7.122-3.226-11.386 2.5-9.261-1.976-21.447-11.825-30.02-12.18-10.601-27.96-11.665-35.247-2.377zm0 0" fill="#5d9b44"/><path d="M77.348 100.116c5.317 1.726 10.58 1.878 15.007.393.164-.054.326-.11.488-.17a16.863 16.863 0 002.114-.921c.008-.004.79-.37 1.177-.518a12.24 12.24 0 011.105-.345c3.155-.822 6.464-.103 8.942 2.054a10.035 10.035 0 01-1.114-1.157L87.839 84.894l-10.49 15.222zm0 0" fill="#7dbe81"/><path d="M87.897 83.857c-.174.624-.688 1.12-1.324 1.206-.82.11-1.532-.504-1.588-1.373l-1.297-20.243c-.056-.868.563-1.663 1.384-1.774.82-.112 1.531.503 1.588 1.372l1.297 20.243c.013.196-.01.389-.06.57zm0 0" fill="#4eb329"/><path d="M117.691 111.71c-.06.215-.16.422-.3.609-.53.704-1.434.843-2.023.31L64.02 66.217c-.588-.53-.637-1.532-.107-2.237.53-.703 1.434-.842 2.023-.31l51.349 46.412c.431.391.571 1.036.406 1.629zm0 0" fill="#4eb329"/><path d="M116.872 111.546c-.185.664-.711 1.206-1.383 1.345l-50.997 10.39c-.913.186-1.748-.448-1.865-1.417-.117-.975.53-1.904 1.441-2.091l50.998-10.39c.913-.187 1.748.447 1.864 1.416.03.257.008.51-.058.747zm0 0" fill="#4eb329"/><path d="M84.766 119.384a1.72 1.72 0 01-.255.535l-7.572 10.757c-.506.721-1.442.9-2.09.4-.647-.496-.764-1.481-.253-2.207l7.573-10.756c.506-.72 1.442-.9 2.09-.4.497.381.68 1.053.507 1.67zm0 0" fill="#4eb329"/><path d="M102.275 107.395c-4.39-1.133-7.665-4.882-8.318-9.668-1.417-10.393-11.388-20.233-25.394-23.85-17.319-4.472-34.25 2.264-37.814 15.047-3.565 12.782 7.585 26.77 24.904 31.242 14.006 3.618 27.757-.096 34.391-8.408 3.055-3.829 7.842-5.496 12.23-4.363zm0 0" fill="#6cba4c"/><path d="M90.836 104.277c-6.499 7.41-18.688 11.899-32.011 10.84-11.634-.924-21.396-5.879-26.702-12.633 3.742 7.928 12.355 14.797 23.53 17.682 14.006 3.618 27.757-.096 34.391-8.408 3.055-3.829 7.842-5.496 12.23-4.363a10.9 10.9 0 01-1.665-.594l-9.773-2.524zm0 0" fill="#569a5a"/><path d="M86.53 102.598a.849.849 0 01-.465.532l-14.892 7.182c-.487.235-1.124.07-1.423-.367-.3-.438-.148-.983.34-1.217l14.892-7.182c.487-.235 1.124-.07 1.423.367.15.22.187.465.125.685zm-11.69-1.915a1.18 1.18 0 01-.643.74c-.673.327-1.552.1-1.965-.507L61.672 85.38c-.413-.608-.202-1.363.47-1.69.674-.327 1.552-.1 1.965.507l10.561 15.537c.207.303.257.644.172.95zm-9.881-2.925c-.11.395-.36.754-.722.984l-12.99 8.224c-.726.458-1.628.225-2.016-.52-.389-.747-.117-1.724.608-2.182l12.99-8.225c.726-.46 1.628-.226 2.017.52.194.374.223.805.113 1.2zm0 0" fill="#4eb329"/><path d="M117.452 111.315c-.238.853-1.044 1.385-1.8 1.19L43.09 93.765c-.757-.195-1.177-1.043-.94-1.897.239-.852 1.044-1.384 1.8-1.188l72.561 18.739c.757.195 1.177 1.043.94 1.896zm0 0" fill="#4eb329"/><path d="M82.837 69.348c-6.099 4.984-5.739 16.034.803 24.681 5.29 6.994 13.004 10.274 18.987 8.638 2.754-.755 5.569.203 7.227 2.395-1.658-2.192-1.888-5.261-.535-7.866 2.943-5.657 1.695-14.221-3.596-21.214-6.54-8.647-16.788-11.618-22.886-6.634zm0 0" fill="#6cba4c"/><path d="M105.755 98.816c-.047-.054-.077-.117-.121-.172-6.142 1.88-14.28-.68-20.483-7.061-3.338-3.435-5.578-7.445-6.655-11.386.122 4.495 1.849 9.471 5.145 13.83 5.29 6.992 13.003 10.272 18.986 8.636 2.755-.753 5.57.203 7.228 2.395a6.883 6.883 0 01-1.145-2.372c-.962-1.308-1.902-2.638-2.955-3.87zm0 0" fill="#569a5a"/><path d="M131.694 44.85c-8.78-1.476-18.35 8.144-21.378 21.484-2.449 10.788.131 20.706 5.85 24.887 2.634 1.924 3.789 5.341 3.022 8.723.767-3.382 3.332-6.174 6.613-7.105 7.127-2.021 13.855-10.376 16.305-21.165 3.027-13.34-1.635-25.35-10.412-26.825zm0 0" fill="#5d9b44"/><path d="M109.687 78.609c.643 4.615 2.335 8.537 4.851 11.164a12.355 12.355 0 001.627 1.452c.005.005.52.425.752.648a8.5 8.5 0 01.61.666c1.634 1.97 2.275 4.696 1.659 7.41.1-.445.243-.876.404-1.298l3.987-18.689-13.89-1.353zm0 0" fill="#3e7c41"/><path d="M124.302 79.566c-.483.132-.994-.039-1.27-.469-.354-.555-.18-1.332.39-1.735l13.27-9.378c.57-.402 1.32-.28 1.675.276s.18 1.332-.388 1.735l-13.272 9.378c-.128.09-.267.155-.405.193zm0 0" fill="#4eb329"/><path d="M116.947 112.445a1.131 1.131 0 01-.488.026c-.623-.103-1.01-.71-.866-1.357l12.64-56.43c.145-.646.767-1.087 1.391-.985.624.105 1.011.711.867 1.358l-12.64 56.431a1.29 1.29 0 01-.904.957zm0 0" fill="#4eb329"/><path d="M115.356 111.17c-.455.125-.935.01-1.21-.328L93.702 86.107c-.374-.462-.368-2.627.185-3.032.558-.407 1.327-.437 1.702.023l20.563 26.276c.374.462.228 1.164-.327 1.57a1.448 1.448 0 01-.47.227zm0 0" fill="#4eb329"/><path d="M99.166 92.06c-.145.04-.296.054-.45.036l.424-2.47c.661.072 1.101.684.985 1.366a1.35 1.35 0 01-.96 1.067z" fill="#4eb329"/><path d="M113.257 99.907c-.728-3.689.694-7.65 3.714-10.122 6.557-5.365 9.823-16.77 7.495-28.542-2.877-14.557-13.215-24.163-23.09-21.455-9.875 2.707-15.548 16.704-12.672 31.26 2.327 11.773 9.533 20.307 17.427 21.71 3.635.646 6.398 3.46 7.126 7.15zm0 0" fill="#6cba4c"/><path d="M111.472 90.215c-7.452-1.62-14.826-8.639-18.699-18.833-3.383-8.902-3.288-18.138-.387-24.876-4.268 6.09-6.102 15.296-4.256 24.69 2.315 11.776 9.685 20.265 17.818 21.603 3.744.615 6.573 3.412 7.299 7.102a9.629 9.629 0 01-.16-1.47l-1.615-8.216zm0 0" fill="#569a5a"/><path d="M111.05 86.39c-.196.053-.415-.002-.61-.177L98.518 75.438c-.39-.352-.536-1.055-.326-1.572.209-.516.695-.65 1.084-.297l11.922 10.773c.39.353.536 1.056.326 1.573-.104.258-.278.42-.474.475zm-2.615-9.388a.795.795 0 01-.703-.15c-.441-.337-.584-1.04-.32-1.572l6.752-13.58c.264-.53.834-.687 1.274-.35.44.338.584 1.04.32 1.571l-6.752 13.581c-.132.265-.34.437-.571.5zm-1.375-8.464a1.148 1.148 0 01-.912-.12L96.145 62.32c-.558-.34-.707-1.098-.335-1.694.374-.596 1.128-.803 1.686-.463l10.002 6.1c.559.34.709 1.098.335 1.694a1.334 1.334 0 01-.773.581zm0 0" fill="#4eb329"/><path d="M115.58 112.156c-.658.18-1.292-.184-1.415-.815l-11.863-60.503c-.123-.631.31-1.288.969-1.469.659-.18 1.292.184 1.415.816l11.863 60.502c.123.631-.31 1.288-.968 1.469zm0 0" fill="#4eb329"/><path d="M151.655 74.118c-1.311-9.662-13.269-15.152-26.708-12.261-10.867 2.337-19.375 9.44-21.54 17.181-.996 3.565-3.846 6.285-7.252 7.018 3.406-.733 6.812.642 8.692 3.587 4.084 6.399 13.984 9.541 24.851 7.204 13.438-2.89 23.27-13.067 21.957-22.73zm0 0" fill="#5d9b44"/><path d="M105.45 84.683c.089-.025.174-.025.262-.047 2.008-8.054 10.029-16.028 20.843-19.74 5.82-1.998 11.535-2.426 16.417-1.558-4.847-2.261-11.253-2.938-18.025-1.481-10.867 2.337-19.375 9.44-21.54 17.181-.996 3.565-3.846 6.285-7.252 7.018a8.343 8.343 0 013.263-.047c2.015-.407 4.038-.775 6.032-1.326zm0 0" fill="#3e7c41"/><path d="M145.798 143.286c7.287-9.289 3.32-25.413-8.858-36.014-9.849-8.573-22.053-10.91-30.216-6.577-3.758 1.995-8.137 1.496-11.224-1.191 3.087 2.687 4.377 7.122 3.226 11.386-2.501 9.261 1.976 21.447 11.825 30.02 12.18 10.601 27.96 11.665 35.247 2.376zm0 0" fill="#5d9b44"/><path d="M124.333 99.997c-5.317-1.726-10.58-1.878-15.007-.393-.164.054-.326.11-.488.17-.727.266-1.439.562-2.114.921-.009.004-.79.37-1.177.518a12.24 12.24 0 01-1.105.345c-3.155.822-6.464.103-8.942-2.054.407.353.772.746 1.114 1.157l17.228 14.558 10.49-15.222zm0 0" fill="#7dbe81"/><path d="M113.784 116.256c.174-.624.688-1.12 1.324-1.206.82-.11 1.531.504 1.588 1.373l1.297 20.243c.056.868-.564 1.663-1.384 1.774-.82.112-1.531-.503-1.588-1.372l-1.297-20.243c-.013-.196.01-.389.06-.569zm0 0" fill="#4eb329"/><path d="M91.353 95.81c.051-.181.135-.355.255-.511.45-.592 1.227-.706 1.735-.255l44.3 39.352c.507.45.553 1.295.102 1.887-.452.59-1.227.704-1.736.253l-44.3-39.351c-.372-.332-.495-.876-.356-1.375zm4.413-9.103c.151-.541.575-.985 1.111-1.101l40.776-8.684c.73-.156 1.393.357 1.482 1.146.09.793-.432 1.552-1.16 1.709L97.198 88.46c-.73.156-1.394-.357-1.482-1.145a1.605 1.605 0 01.05-.61zm0 0" fill="#4eb329"/><path d="M116.915 80.73a1.72 1.72 0 01.254-.536l7.573-10.758c.506-.72 1.442-.899 2.09-.4.646.497.764 1.482.252 2.208L119.512 82c-.506.72-1.442.899-2.09.4-.497-.381-.68-1.053-.507-1.67zm0 0" fill="#4eb329"/><path d="M99.406 92.718c4.389 1.133 7.665 4.882 8.318 9.668 1.417 10.393 11.388 20.233 25.394 23.85 17.319 4.473 34.249-2.264 37.814-15.046 3.565-12.782-7.585-26.77-24.904-31.243-14.006-3.618-27.757.096-34.391 8.409-3.055 3.828-7.842 5.495-12.23 4.362zm0 0" fill="#6cba4c"/><path d="M110.845 95.836c6.498-7.41 18.688-11.898 32.01-10.84 11.635.925 21.397 5.88 26.703 12.634-3.742-7.929-12.355-14.798-23.53-17.683-14.006-3.618-27.757.096-34.391 8.409-3.055 3.828-7.842 5.495-12.23 4.362a10.9 10.9 0 011.665.594l9.773 2.524zm0 0" fill="#569a5a"/><path d="M115.15 97.515a.849.849 0 01.466-.532l14.892-7.182c.487-.235 1.124-.07 1.423.367.3.438.148.983-.34 1.217L116.7 98.567c-.487.235-1.124.07-1.423-.367a.815.815 0 01-.125-.685zm11.691 1.915a1.18 1.18 0 01.643-.74c.672-.327 1.552-.1 1.965.507l10.56 15.536c.413.608.202 1.363-.47 1.69-.674.327-1.552.1-1.965-.507l-10.561-15.537a1.132 1.132 0 01-.172-.95zm9.881 2.925c.11-.395.36-.754.722-.984l12.99-8.224c.726-.458 1.627-.225 2.016.52.389.747.116 1.724-.608 2.182l-12.991 8.225c-.725.46-1.627.226-2.016-.52a1.643 1.643 0 01-.113-1.2zm0 0" fill="#4eb329"/><path d="M100.54 93.01c.238-.853.91-1.419 1.503-1.266l56.844 14.68c.592.153.88.968.642 1.82-.238.853-.91 1.419-1.503 1.266l-55.887-15.02c-.592-.154-1.837-.627-1.6-1.48zm.899.149" fill="#4eb329"/><path d="M118.844 130.765c6.099-4.984 5.74-16.034-.803-24.682-5.29-6.993-13.003-10.273-18.987-8.637-2.754.755-5.569-.203-7.227-2.395 1.658 2.192 1.888 5.261.535 7.866-2.942 5.657-1.695 14.22 3.596 21.214 6.541 8.647 16.788 11.618 22.886 6.634zm0 0" fill="#6cba4c"/><path d="M95.926 101.297c.047.054.077.116.121.172 6.142-1.88 14.28.68 20.483 7.061 3.338 3.435 5.578 7.445 6.655 11.386-.122-4.495-1.849-9.472-5.145-13.83-5.29-6.993-13.004-10.272-18.986-8.636-2.755.753-5.57-.203-7.228-2.396a6.883 6.883 0 011.145 2.373c.962 1.308 1.902 2.637 2.955 3.87zm0 0" fill="#569a5a"/><path d="M69.987 155.264c8.78 1.474 18.35-8.145 21.378-21.485 2.449-10.788-.131-20.706-5.85-24.887-2.634-1.924-3.789-5.342-3.022-8.723-.767 3.381-3.332 6.174-6.613 7.105-7.127 2.021-13.855 10.376-16.305 21.164-3.027 13.34 1.635 25.35 10.412 26.826zm0 0" fill="#5d9b44"/><path d="M91.994 121.504c-.643-4.615-2.335-8.537-4.851-11.164a18.13 18.13 0 00-.281-.287 12.21 12.21 0 00-1.346-1.165c-.005-.005-.52-.425-.753-.648a8.78 8.78 0 01-.61-.666c-1.633-1.97-2.274-4.696-1.658-7.41a9.595 9.595 0 01-.404 1.298l-3.987 18.689 13.89 1.353zm0 0" fill="#3e7c41"/><path d="M77.38 120.547c.482-.132.993.039 1.268.469.355.555.182 1.332-.388 1.735l-13.271 9.378c-.57.402-1.32.279-1.674-.276-.356-.556-.182-1.333.388-1.735l13.271-9.378c.128-.09.267-.155.406-.193zm0 0" fill="#4eb329"/><path d="M81.787 101.143a.887.887 0 01.378-.021c.483.079.784.547.67 1.046l-9.844 43.55c-.113.498-.596.838-1.08.76-.483-.08-.783-.547-.67-1.047l9.844-43.549a1 1 0 01.702-.739zm10.355-6.23c.33-.09.682.004.886.27l15.464 20.182c.276.362.176.902-.225 1.21-.403.307-.95.26-1.227-.1L91.577 96.291c-.277-.361-.177-.903.224-1.21a.994.994 0 01.34-.169zm0 0" fill="#4eb329"/><path d="M102.516 108.053c.144-.04.295-.054.45-.036l9.87 1.073c.66.07 1.1.683.984 1.366-.116.68-.744 1.176-1.41 1.103l-9.87-1.073c-.66-.07-1.1-.683-.984-1.365a1.35 1.35 0 01.96-1.068zm0 0" fill="#4eb329"/><path d="M88.424 100.206c.728 3.69-.694 7.65-3.714 10.122-6.558 5.365-9.823 16.77-7.496 28.542 2.877 14.557 13.216 24.163 23.092 21.456 9.874-2.708 15.547-16.704 12.67-31.262-2.326-11.772-9.532-20.306-17.426-21.708-3.635-.646-6.398-3.46-7.126-7.15zm0 0" fill="#6cba4c"/><path d="M90.21 109.898c7.451 1.62 14.825 8.639 18.698 18.833 3.382 8.903 3.288 18.138.387 24.876 4.267-6.09 6.102-15.296 4.256-24.69-2.315-11.776-9.685-20.265-17.818-21.603-3.745-.615-6.573-3.412-7.299-7.102.096.486.14.978.16 1.47l1.615 8.216zm0 0" fill="#569a5a"/><path d="M90.631 113.723c.196-.053.416.002.61.177l11.922 10.775c.39.352.536 1.055.326 1.572-.209.516-.695.65-1.084.297L90.483 115.77c-.39-.353-.536-1.056-.326-1.573.104-.259.278-.42.474-.475zm2.615 9.387a.795.795 0 01.703.151c.441.337.584 1.04.32 1.571l-6.752 13.58c-.263.531-.834.688-1.274.35-.44-.337-.584-1.04-.32-1.57l6.752-13.581c.132-.266.34-.437.571-.5zm1.375 8.465c.305-.084.634-.051.912.12l10.003 6.098c.558.34.708 1.098.335 1.694-.374.596-1.128.803-1.686.463l-10.002-6.1c-.559-.34-.709-1.098-.335-1.694.187-.297.468-.498.773-.581zm0 0" fill="#4eb329"/><path d="M88.65 100.859c.66-.181 1.272.079 1.37.58l9.405 48.07c.098.502-.356 1.055-1.015 1.235-.659.18-1.271-.08-1.37-.58l-9.404-48.071c-.098-.502.355-1.054 1.014-1.234zm0 0" fill="#4eb329"/></svg>