<svg height="511pt" viewBox="0 -64 511.99924 511" width="511pt" xmlns="http://www.w3.org/2000/svg"><path d="m470.175781 68.042969c-25.574219-31.59375-49.628906-49.484375-75.695312-56.308594-8.179688-2.140625-16.996094-3.226563-26.195313-3.226563-26.703125 0-53.214844 8.828126-75.628906 17.464844-75.226562 28.992188-145.167969 69.386719-207.886719 120.058594-6.777343 5.476562-13.804687 11.410156-18.714843 18.453125l-3.058594 4.386719 5.1875-1.304688c13.867187-3.484375 28.644531-7.023437 43.480468-8.605468 1.867188-.199219 3.867188-.300782 5.933594-.300782 9.441406 0 20.839844 2.054688 33.882813 6.109375 4 1.238281 8.023437 2.714844 11.914062 4.144531 3.605469 1.324219 7.335938 2.691407 11.078125 3.886719 1.832032.585938 3.675782 1.132813 5.519532 1.679688 4.125 1.226562 8.394531 2.488281 12.367187 4.175781 12.121094 5.128906 21.792969 14.21875 28.867187 21.5625l1.558594 1.628906c3.214844 3.367188 6.253906 6.542969 9.988282 9.464844 3.492187 2.726562 5.890624 6.902344 8.207031 10.9375.425781.746094.851562 1.484375 1.28125 2.210938 15.582031 26.417968 33.1875 67.1875 28.574219 111.402343l-.398438 3.8125 3.351562-1.851562c1.039063-.570313 2.09375-1.226563 3.007813-1.804688l149.945313-95.382812c17.027343-10.832031 34.636718-22.03125 49.046874-36.5 11.128907-11.183594 24.972657-29.265625 27.707032-51.929688 3.050781-25.179687-7.851563-52.710937-33.320313-84.164062zm-138.25 151.515625c-4.8125 4.320312-11.183593 6.605468-18.421875 6.605468-.652344 0-1.304687-.015624-1.96875-.054687-7.078125-.394531-14.410156-2.847656-20.652344-6.910156-8.0625-5.25-14.503906-12.394531-20.734374-19.304688l-.265626-.292969c-2.664062-2.945312-5.414062-5.988281-8.226562-8.792968-13.066406-13.035156-29.296875-22.800782-46.929688-28.234375-1.269531-.390625-2.550781-.765625-3.835937-1.136719-4.367187-1.265625-8.882813-2.570312-13.128906-4.734375-6.710938-3.414063-11.351563-8.488281-13.070313-14.285156-2.046875-6.910157.128906-14.972657 5.675782-21.027344 2.140624-2.328125 4.644531-4.308594 7.65625-6.050781 3.0625-1.761719 6.523437-3.210938 10.585937-4.4375 6.296875-1.894532 12.625-2.855469 18.804687-2.855469 19.628907 0 35.703126 9.4375 49.226563 18.28125 4.101563 2.6875 8.425781 4.742187 13.007813 6.914063 5.796874 2.75 11.789062 5.597656 17.289062 9.832031 9.699219 7.441406 17.914062 16.351562 24.414062 26.472656 5.652344 8.800781 8.761719 16.835937 9.5 24.566406.949219 10.058594-2.386718 19.570313-8.925781 25.445313zm83.128907-63.265625c-5.011719 4.332031-11.730469 6.816406-18.433594 6.816406-5.4375 0-10.441406-1.558594-14.46875-4.496094-5.054688-3.691406-8.167969-8.957031-11.199219-14.085937l-.382813-.640625c-.636718-1.078125-1.273437-2.15625-1.9375-3.214844-8.121093-12.890625-20.382812-23.070313-34.53125-28.675781-2.414062-.949219-4.839843-1.769532-7.414062-2.636719-4.59375-1.535156-9.34375-3.125-13.835938-5.5625-8.574218-4.636719-14.011718-11.644531-14.925781-19.222656-.867187-7.144531 2.464844-14.894531 8.707031-20.226563 4.816407-4.117187 11.183594-6.925781 19.464844-8.589844 4.753906-.953124 9.582032-1.4375 14.351563-1.4375 26.167969 0 51.285156 14.109376 72.640625 40.804688 7.722656 9.652344 12.332031 20.035156 13.332031 30.019531 1.214844 12.121094-3.140625 24.054688-11.367187 31.148438zm0 0" fill="#f7b36f"/><path d="m240.539062 225.480469c-14.566406-24.6875-30.324218-41.65625-48.167968-51.878907-12.867188-7.367187-28.140625-11.894531-45.394532-13.449218-10.507812-.945313-19.761718-1.40625-28.289062-1.40625-8.636719 0-16.644531.457031-24.488281 1.398437-10.65625 1.277344-22.8125 3.253907-32.226563 10.605469-5.140625 4.011719-7.097656 8.8125-5.371094 13.175781 1.507813 3.808594 5.523438 6.46875 9.761719 6.46875.152344 0 .308594-.003906.457031-.011719.628907-.03125 1.257813-.121093 1.859376-.277343 4.5-1.15625 8.757812-3.054688 12.875-4.894531 4.855468-2.167969 9.878906-4.410157 15.183593-5.332032 6.34375-1.09375 12.921875-1.652344 19.546875-1.652344 4.523438 0 9.136719.261719 13.707032.769532 21.996093 2.460937 42.90625 10.515625 60.476562 23.300781 35.675781 25.964844 60.085938 70.738281 66.972656 122.839844.882813 6.671875 2.332032 13.066406 6.957032 14.699219.628906.21875 1.316406.332031 2.09375.351562l1.804687.035156.222656-1.785156c5.597657-44.683594-12.128906-86.089844-27.980469-112.957031zm0 0" fill="#f7b36f"/><g fill="#ed6d66"><path d="m315.238281 99.410156c4.125 2.226563 8.660157 3.746094 13.082031 5.226563 2.507813.84375 5.101563 1.714843 7.628907 2.722656 15.128906 5.984375 28.238281 16.871094 36.914062 30.648437.851563 1.351563 1.679688 2.757813 2.40625 3.992188 2.878907 4.882812 5.597657 9.492188 9.824219 12.570312 3.179688 2.316407 7.15625 3.542969 11.507812 3.542969 5.527344 0 11.0625-2.042969 15.191407-5.605469 7.011719-6.050781 10.710937-16.34375 9.652343-26.859374-.90625-9.046876-5.144531-18.519532-12.25-27.394532-11.636718-14.542968-36.042968-38.9375-68.746093-38.9375-4.425781 0-8.921875.449219-13.367188 1.34375-7.433593 1.496094-13.058593 3.945313-17.199219 7.488282-4.972656 4.257812-7.65625 10.320312-6.996093 15.835937.714843 5.859375 5.332031 11.625 12.351562 15.425781zm0 0"/><path d="m200.023438 152.242188c3.863281 1.96875 8.132812 3.199218 12.246093 4.382812l.816407.242188c1.039062.300781 2.074218.605468 3.113281.929687 18.394531 5.671875 35.332031 15.859375 48.984375 29.460937 3.097656 3.101563 6.0625 6.394532 8.683594 9.300782l.097656.109375c6.261718 6.929687 12.171875 13.476562 19.652344 18.34375 6.015624 3.917969 13.253906 6.164062 19.855468 6.164062 6 0 11.226563-1.84375 15.113282-5.335937 5.289062-4.75 8.082031-12.890625 7.28125-21.246094-.65625-6.914062-3.511719-14.222656-8.730469-22.34375-6.164063-9.617188-13.984375-18.097656-23.246094-25.210938-5.074219-3.902343-10.570313-6.515624-16.394531-9.28125-4.292969-2.03125-9.15625-4.332031-13.601563-7.238281-13.882812-9.085937-29.121093-17.488281-46.460937-17.488281-5.746094 0-11.433594.871094-17.382813 2.664062-7.109375 2.136719-12.34375 5.109376-15.996093 9.085938-4.308594 4.6875-6.101563 11.058594-4.570313 16.222656 1.292969 4.398438 5.136719 8.496094 10.539063 11.238282zm0 0"/><path d="m122.066406 324.675781c5.894532-2.46875 12.574219-5.265625 19.605469-5.53125.347656-.015625.695313-.023437 1.039063-.023437 7.726562 0 14.5625 3.453125 17.839843 9.007812 3.707031 6.277344 2.460938 13.421875 1.25 20.386719-.976562 5.558594-1.984375 11.304687-.195312 16.222656 1.96875 5.4375 7.71875 9.800781 14.644531 11.113281 1.765625.332032 3.65625.503907 5.621094.503907 5.222656 0 10.273437-1.160157 14.527344-2.292969 21.847656-5.84375 42.101562-17.160156 58.566406-32.726562l1.617187-1.53125-.996093-1.992188c-2.042969-4.082031-2.679688-8.851562-3.101563-12.019531-6.707031-50.75-30.382813-94.289063-64.964844-119.460938-16.847656-12.265625-36.933593-19.996093-58.082031-22.367187-4.394531-.488282-8.816406-.738282-13.148438-.738282-6.351562 0-12.644531.535157-18.703124 1.585938-5.109376.878906-9.871094 2.773438-14.90625 4.78125l-.097657.039062c-2.746093 1.09375-5.582031 2.226563-8.5 3.171876l-1.113281.359374-.574219 1.015626c-.15625.273437-.445312.644531-.9375.855468-9.011719 3.808594-18.328125 7.742188-25.601562 14.390625-6.097657 5.59375-11.921875 15.097657-9.972657 25.015625.628907 3.179688 2.058594 6.050782 4.019532 8.085938 4.703125 4.894531 11.976562 5.539062 19.707031 6.21875 1.117187.101562 2.222656.199218 3.308594.308594 12.300781 1.253906 20.507812 6.761718 21.953125 14.726562.871094 4.84375-1.050782 10.34375-5.144532 14.710938-3.15625 3.363281-7.070312 5.738281-10.882812 8.050781l-1.089844.652343c-18.328125 11.179688-35.003906 24.816407-49.570312 40.535157-3.59375 3.878906-7.609375 8.464843-9.726563 13.800781-2.152343 5.429688-1.882812 11.246094.714844 15.1875 2.675781 4.0625 8.144531 6.582031 14.261719 6.582031.367187 0 .734375-.007812 1.117187-.027343 6.269531-.328126 12.511719-2.949219 18.015625-5.257813zm0 0"/></g><path d="m476.390625 63.003906c-26.699219-32.976562-52.082031-51.726562-79.882813-59.007812-36.230468-9.488282-74.28125 2.011718-106.726562 14.511718-76.011719 29.292969-146.679688 70.105469-210.042969 121.300782-9.46875 7.65625-18.425781 15.414062-23.878906 26.15625-3.503906 6.898437-6.734375 19.796875-1.269531 27.058594.324218.433593.738281.914062 1.246094 1.394531-5.179688 2.644531-10.261719 5.78125-14.695313 9.839843-9.582031 8.769532-14.226563 20.851563-12.121094 31.527344.894531 4.546875 2.914063 8.558594 5.839844 11.601563 6.523437 6.78125 15.878906 7.601562 24.128906 8.328125 1.085938.097656 2.164063.191406 3.222657.300781 6.644531.675781 14.761718 3.445313 15.773437 9.011719.570313 3.144531-1.363281 6.542968-3.367187 8.675781-2.503907 2.675781-5.859376 4.707031-9.414063 6.859375l-1.085937.660156c-18.863282 11.496094-36.046876 25.539063-51.0625 41.738282-4.027344 4.347656-8.539063 9.523437-11.101563 15.984374-3.027344 7.640626-2.511719 15.722657 1.375 21.621094 4.242187 6.4375 12.507813 10.164063 21.574219 9.6875 7.460937-.378906 14.320312-3.253906 20.371094-5.792968l79.460937-33.3125c5.617187-2.355469 11.429687-4.792969 17.207031-5.015626 4.191406-.148437 10.007813 1.195313 12.582032 5.558594 2.398437 4.066406 1.464843 9.417969.378906 15.617188-1.078125 6.167968-2.300782 13.15625.121094 19.820312 2.851562 7.839844 10.484374 13.816406 19.921874 15.597656 2.296876.4375 4.597657.617188 6.863282.617188 5.996094 0 11.730468-1.273438 16.398437-2.523438 23-6.144531 44.207031-18.011718 61.507813-34.34375.636718.335938 1.304687.648438 2.027344.902344 1.644531.578125 3.277343.820313 4.867187.820313 5.945313 0 11.296875-3.402344 14.480469-5.429688l149.917968-95.363281c17.410157-11.074219 35.40625-22.523438 50.441407-37.621094 12.015625-12.0625 26.972656-31.679687 29.992187-56.621094 3.320313-27.4375-8.144531-56.929687-35.050781-90.160156zm-280.765625 308.15625c-5.738281 1.535156-12.464844 2.941406-18.820312 1.742188-5.898438-1.113282-10.757813-4.71875-12.382813-9.1875-1.507813-4.15625-.613281-9.269532.332031-14.683594 1.246094-7.117188 2.65625-15.179688-1.617187-22.421875-4.019531-6.8125-12.269531-10.828125-21.578125-10.46875-7.585938.289063-14.546875 3.207031-20.6875 5.78125l-79.460938 33.316406c-5.554687 2.332031-11.296875 4.738281-17.015625 5.027344-5.453125.28125-10.445312-1.765625-12.714843-5.203125-2.0625-3.128906-2.226563-7.894531-.429688-12.433594 1.925781-4.859375 5.726562-9.191406 9.136719-12.871094 14.394531-15.523437 30.855469-28.984374 48.933593-40l1.066407-.644531c3.972656-2.410156 8.082031-4.898437 11.527343-8.574219 4.746094-5.0625 6.957032-11.527343 5.910157-17.300781-1.699219-9.355469-10.894531-15.777343-24.597657-17.175781-1.105468-.113281-2.226562-.210938-3.359374-.3125-7.136719-.625-13.875-1.21875-17.800782-5.300781-1.570312-1.632813-2.71875-3.976563-3.234375-6.601563-1.714843-8.695312 3.554688-17.179687 9.058594-22.21875 6.875-6.289062 15.957031-10.125 24.738281-13.839844 1.050782-.441406 1.855469-1.214843 2.378906-2.136718 2.972657-.964844 5.859376-2.109375 8.6875-3.238282 4.921876-1.964843 9.566407-3.820312 14.402344-4.65625 9.984375-1.722656 20.414063-1.996093 31.007813-.816406 20.628906 2.308594 40.21875 9.851563 56.652343 21.816406 33.914063 24.6875 57.152344 67.488282 63.757813 117.421876.425781 3.230468 1.113281 8.425781 3.386719 12.976562-16.105469 15.222656-35.855469 26.28125-57.277344 32.003906zm63.804688-46.285156c-6.960938-52.636719-31.667969-97.902344-67.785157-124.199219-17.835937-12.984375-39.078125-21.167969-61.429687-23.664062-4.671875-.523438-9.320313-.785157-13.925782-.785157-6.75 0-13.40625.5625-19.894531 1.683594-5.867187 1.015625-11.226562 3.152344-16.40625 5.222656-4.59375 1.832032-8.929687 3.5625-13.308593 4.402344-1.472657.285156-3.378907.421875-4.097657-.523437-2.417969-3.179688-2.265625-7.160157-.636719-11.375.121094-.035157.246094-.054688.367188-.105469 11.140625-4.492188 20.140625-7.570312 30.546875-9.027344 38.175781-5.351562 70.265625-1.089844 95.371094 12.664063 18.425781 10.09375 34.839843 26.488281 47.457031 47.40625 10.457031 17.332031 18.726562 38.253906 25.277344 63.972656 3.871094 15.199219 6.914062 31.300781 3.472656 46.511719-.011719-.003906-.027344-.003906-.042969-.007813-4.050781-1.058593-4.519531-8.8125-4.964843-12.175781zm242.085937-172.910156c-2.675781 22.113281-16.242187 39.8125-27.148437 50.765625-14.253907 14.3125-31.777344 25.460937-48.722657 36.238281-18.414062 11.710938-36.832031 23.425781-55.246093 35.140625-18.941407 12.050781-37.882813 24.101563-56.828126 36.148437-7.511718 4.78125-15.027343 9.558594-22.539062 14.339844-2.675781 1.699219-5.339844 3.78125-8.171875 5.199219-1.765625.882813-4.648437 2.574219-7.699219 4.117187 2.210938-15.699218-.925781-31.792968-4.507812-45.839843-6.792969-26.679688-15.429688-48.484375-26.398438-66.664063-13.535156-22.433594-31.246094-40.070312-51.21875-51.011718-27.039062-14.8125-61.210937-19.453126-101.5625-13.800782-6.984375.980469-13.449218 2.648438-20.0625 4.863282 5.515625-6.210938 11.691406-11.511719 14.617188-13.875 62.550781-50.542969 132.3125-90.832032 207.347656-119.746094 30.957031-11.929688 67.117188-22.941406 100.597656-14.171875 25.636719 6.714843 49.359375 24.394531 74.648438 55.628906 25.113281 31.015625 35.871094 58.058594 32.894531 82.667969zm0 0"/><path d="m333.03125 168.46875c-6.617188-10.3125-14.984375-19.390625-24.875-26.984375-5.652344-4.34375-11.753906-7.242187-17.65625-10.046875-4.523438-2.148438-8.796875-4.175781-12.769531-6.777344-18.550781-12.144531-40.765625-24.371094-69.695313-15.667968h-.003906c-8.355469 2.515624-14.613281 6.128906-19.132812 11.050781-6.023438 6.5625-8.371094 15.351562-6.128907 22.945312 1.871094 6.324219 6.871094 11.824219 14.082031 15.496094 4.40625 2.242187 9.019532 3.578125 13.476563 4.871094 1.273437.371093 2.546875.738281 3.808594 1.128906 17.324219 5.347656 33.265625 14.9375 46.105469 27.738281 2.871093 2.863282 5.691406 5.992188 8.421874 9.015625 6.320313 7.007813 12.851563 14.253907 21.132813 19.640625 6.539063 4.253906 14.21875 6.820313 21.628906 7.226563.699219.039062 1.390625.058593 2.078125.058593 7.753906 0 14.554688-2.441406 19.757813-7.113281 7.015625-6.300781 10.59375-16.4375 9.578125-27.121093-.761719-8.042969-3.972656-16.371094-9.808594-25.460938zm-6.449219 45.140625c-8.171875 7.332031-21.945312 4.992187-31.332031-1.113281-7.183594-4.675782-13-11.125-19.160156-17.953125-2.816406-3.121094-5.726563-6.351563-8.785156-9.402344-13.984376-13.941406-31.351563-24.390625-50.21875-30.210937-1.316407-.40625-2.644532-.792969-3.972657-1.175782-4.195312-1.21875-8.160156-2.367187-11.726562-4.183594-4.667969-2.375-7.957031-5.808593-9.023438-9.417968-1.234375-4.179688.296875-9.417969 3.902344-13.347656 3.269531-3.558594 8.058594-6.253907 14.648437-8.238282 22.390626-6.734375 40.070313.539063 61.339844 14.460938 4.542969 2.972656 9.328125 5.246094 13.957032 7.445312 5.675781 2.695313 11.042968 5.246094 15.851562 8.941406 8.972656 6.890626 16.5625 15.117188 22.554688 24.457032 4.953124 7.714844 7.65625 14.585937 8.265624 21.003906.710938 7.429688-1.707031 14.605469-6.300781 18.734375zm0 0"/><path d="m414.65625 93.875c-25.757812-32.183594-57.347656-46.421875-88.953125-40.078125-8.617187 1.730469-15.28125 4.683594-20.371094 9.035156-6.738281 5.761719-10.335937 14.1875-9.390625 21.988281.996094 8.230469 6.8125 15.792969 15.960938 20.742188 4.605468 2.496094 9.457031 4.121094 14.144531 5.699219 2.550781.855469 4.960937 1.664062 7.324219 2.601562 13.761718 5.449219 25.683594 15.351563 33.566406 27.875.785156 1.246094 1.539062 2.523438 2.292969 3.804688 3.117187 5.285156 6.339843 10.746093 11.734375 14.683593 4.5 3.277344 10.019531 4.886719 15.65625 4.886719 6.984375 0 14.148437-2.476562 19.742187-7.300781 8.707031-7.515625 13.324219-20.105469 12.046875-32.859375-1.039062-10.382813-5.792968-21.128906-13.753906-31.078125zm-4.824219 56.363281c-6.570312 5.671875-16.660156 6.507813-22.972656 1.90625-3.722656-2.71875-6.292969-7.070312-9.015625-11.683593-.785156-1.328126-1.59375-2.703126-2.441406-4.050782-9.007813-14.308594-22.625-25.617187-38.347656-31.847656-2.613282-1.03125-5.257813-1.921875-7.820313-2.78125-4.484375-1.507812-8.722656-2.929688-12.570313-5.011719-6.167968-3.339843-10.203124-8.257812-10.796874-13.15625-.546876-4.515625 1.738281-9.566406 5.964843-13.179687 3.757813-3.214844 8.9375-5.449219 15.839844-6.832032 37.449219-7.515624 65.679687 19.65625 79.175781 36.519532 6.753906 8.4375 10.769532 17.367187 11.617188 25.824218.953125 9.566407-2.351563 18.875-8.632813 24.292969zm0 0"/></svg>