<svg width="200" height="200" xmlns="http://www.w3.org/2000/svg"><path d="M132.26 73.251c3.619 20.08 1.07 39.252-5.963 53.89-7.044 14.661-18.743 24.975-33.19 27.223-14.447 2.248-29.123-3.963-40.922-15.691-11.781-11.711-20.91-29.066-24.528-49.146-3.618-20.08-1.07-39.25 5.964-53.89 7.044-14.66 18.743-24.974 33.19-27.222 14.447-2.248 29.123 3.963 40.922 15.69 11.781 11.713 20.91 29.066 24.528 49.146zm-25.376-48.423C95.235 13.248 81.124 7.264 67 9.461 52.875 11.66 41.63 21.588 34.676 36.063c-6.965 14.497-9.472 33.354-5.88 53.286 3.592 19.934 12.57 37.004 24.237 48.6 11.65 11.583 25.76 17.566 39.885 15.369 14.125-2.198 25.37-12.127 32.324-26.603 6.965-14.496 9.472-33.353 5.88-53.287-3.59-19.932-12.57-37.002-24.238-48.6z" fill="none"/><path d="M104.854 99.992c-3.587-17.129-19.865-36.925-39.63-49.902-13.541-8.889-16.107-20.813-24.916-19.035-20.816 4.202-21.725 59.53-5.764 91.96 9.265 18.82 26.405 31.155 46.495 25.584 4.714-1.307 12.882-6.096 17.732-11.058l7.277-27.289c-.178-1.263-.922-8.965-1.194-10.26zm0 0" fill="#f5b97d"/><path d="M88.315 131.233c-20.09 5.571-37.231-6.764-46.494-25.584-9.988-20.293-13.388-49.563-9.422-69.65-12.816 15.044-11.469 59.355 2.145 87.016 9.265 18.82 26.405 31.155 46.495 25.584 4.714-1.307 12.882-6.096 17.732-11.058l3.811-14.292c-4.695 3.743-10.547 6.953-14.267 7.984zm0 0" fill="#e3aa75"/><path d="M163.07 101.536c-15.154-15.502-40.489-14.716-56.59 1.754l-.044.045c-2.238 2.296-4.115 4.934-5.745 7.716l-.668 1.14c-2.607 4.452-4.63 9.285-5.513 14.395-2.148 12.428 1.228 25.36 10.255 34.594 15.154 15.501 40.49 14.717 56.59-1.753 16.1-16.472 16.868-42.39 1.715-57.891zm0 0" fill="#f5b97d"/><path d="M47.846 98.158a2.41 2.41 0 01-1.966-1.025c-.786-1.11-.544-2.662.54-3.464l8.79-6.513c1.089-.81 2.602-.554 3.388.553.786 1.11.545 2.663-.54 3.465l-8.791 6.511a2.37 2.37 0 01-1.421.473zm30.918-12.714a2.393 2.393 0 01-1.803-.822 2.523 2.523 0 01.18-3.503l3.033-2.791a2.382 2.382 0 013.425.184 2.523 2.523 0 01-.18 3.504l-3.033 2.79a2.39 2.39 0 01-1.622.638zm-34.252 28.53a2.403 2.403 0 01-1.969-1.028c-.784-1.112-.54-2.663.545-3.465l5.457-4.03a2.388 2.388 0 013.387.556c.784 1.112.54 2.663-.545 3.465l-5.457 4.032c-.431.317-.926.47-1.418.47zM35.72 60.635a2.406 2.406 0 01-1.968-1.027c-.784-1.11-.54-2.663.545-3.465l3.22-2.382a2.391 2.391 0 013.387.558c.784 1.11.54 2.662-.545 3.464l-3.22 2.381a2.37 2.37 0 01-1.419.471zm0 0" fill="#e3aa75"/><path d="M41.591 124.972l-4.271 3.102a59.06 59.06 0 002.736 4.097l4.34-3.149c1.092-.791 1.35-2.339.577-3.458a2.394 2.394 0 00-3.382-.592zm0 0" fill="#d29b6e"/><path d="M136.349 95.368c8.919 0 17.191 3.436 23.291 9.676 6.374 6.52 9.727 15.371 9.445 24.924-.286 9.665-4.25 18.881-11.159 25.95-7.207 7.372-16.596 11.432-26.439 11.432-8.919 0-17.191-3.437-23.291-9.678-7.633-7.808-10.881-18.823-8.908-30.223.706-4.092 2.354-8.367 4.895-12.707l.668-1.141c1.593-2.719 3.236-4.932 5.059-6.802 7.208-7.373 16.596-11.431 26.439-11.431" fill="#ffaa5f"/><path d="M162.775 148.475c-7.205 7.372-16.595 11.433-26.438 11.433-8.919 0-17.191-3.438-23.292-9.679-7.631-7.807-10.88-18.823-8.908-30.222.641-3.711 2.094-7.59 4.25-11.517-1.235 1.486-2.398 3.17-3.535 5.111l-.667 1.141c-2.543 4.34-4.191 8.615-4.897 12.709-1.972 11.398 1.275 22.413 8.908 30.221 6.1 6.242 14.372 9.678 23.291 9.678 9.843 0 19.232-4.06 26.439-11.432a39.653 39.653 0 007.077-9.883 40.89 40.89 0 01-2.228 2.44zm0 0" fill="#ff8c5a"/><path d="M72.819 55.544l-9.345 8.852a2.521 2.521 0 00-.129 3.507 2.385 2.385 0 003.428.133l9.881-9.363a114.595 114.595 0 00-3.835-3.129zm0 0" fill="#e3aa75"/></svg>