<svg height="512" width="512" xmlns="http://www.w3.org/2000/svg"><path d="M47.072 337.723c2.217-2.215 11.462-1.229 11.465-5.73 0-3.643-10.86-8.41-8.768-15.76 1.299-4.566 8.572-3.487 9.592-9.974 1.246-7.923-7.784-10.426-2.843-20.383 1.937-3.905 12.075-.297 13.873-6.82 1.79-6.496-8.04-11.001-6.811-19.845.377-2.726 11.107-2.599 12.457-7.367 1.27-4.473-11.26-10.914-8.02-17.835 1.684-3.594 14.233.09 15.247-6.35 1.046-6.651-13.559-10.106-10.87-19.867 1.466-5.314 16.536 2.45 17.828-5.764.732-4.66-10.76-10.208-6.948-15.024 3.557-4.491 16.682.49 23.246 3.15l190.456 46.81-.004.013c7.207 1.063 19.158 3.345 20.065 8.631 1.041 6.072-11.47 5.162-13.015 9.567-2.723 7.764 13.91 8.535 12.692 13.87-2.237 9.803-16.455 5.53-18.66 11.817-2.134 6.088 10.418 9.14 10.192 13.094-.437 7.614-14.26 6.962-15.255 11.472-1.06 4.807 8.259 10.038 7.313 12.59-3.07 8.278-13.661 7.292-15.152 13.815-1.494 6.55 8.94 8.468 8.788 12.818-.387 11.093-9.35 8.768-11.976 16.259-2.15 6.131 4.632 8.816 3.62 13.421-1.627 7.414-13.229 6.14-14.93 9.301-2.1 3.904 6.34 7.65 7.218 10.674 2.17 7.476-18.338 7.764-18.338 7.764L64.65 354.17s-24.556-9.473-17.579-16.448z" fill="#ffcdf2"/><path d="M122.69 237.161c5.422-1.373 13.069-1.22 16.833 3.862 2.55 3.44 2.322 12.057 1.182 14.36-.794 1.606-2.013 2.793-3.293 2.867-1.458.085-4.445-1.6-5.083-3.18-.658-1.625 2.339-5.076 1.381-6.523-1.118-1.692-6.016-2.881-9.149-2.1-3.718.926-9.363 5.692-11.505 9.032-1.75 2.724-2.915 5.418-1.87 8.83 1.57 5.13 12.036 12.08 16.024 18.569 3.662 5.961 6.627 12.222 7.565 18.645.93 6.36.227 15.036-1.866 19.698-1.655 3.685-4.157 5.635-7.725 7.483-4.472 2.317-12.924 3.878-18.094 3.903-4.24.017-7.94-.485-10.979-2.52-3.144-2.109-6.31-6.014-7.444-10.162-1.256-4.606.493-14.01 1.217-16.625.32-1.146 5.405-2.891 6.791-1.26 2.229 2.613.564 11.408 2.969 14.725 1.678 2.311 7.044 5.962 10.06 5.945 4.139-.025 8.392.164 12.957-3.84 1.89-1.657 3.254-4.451 3.822-7.174.74-3.549.277-6.64-.817-10.652-1.39-5.11-4.517-11.929-8.174-17.577-3.946-6.094-13.479-11.703-15.087-17.55-1.34-4.865.318-10.13 3.088-14.588 3.283-5.287 11.235-12.658 17.197-14.168zm49.483 57.386c1.288.31 4.56.432 5.085 3.178 1.163 6.092-9.386 38.982-13.736 43.141-1.929 1.845-4.142.898-5.654-.493-2.111-1.945-1.64-12.802-4.148-13.027-3.13-.282-11.543 16.427-14.635 18.379-1.392.876-2.133.47-3.09.095-1.048-.408-2.388-.8-2.889-2.676-1.011-3.8 9.813-50.403 11.336-51.738.82-.72 1.571-.549 2.36-.265.957.344 2.461.66 2.887 2.674.97 4.6-7.223 29.993-5.485 31.347 1.395 1.091 8.005-12.673 11.098-14.36 1.86-1.01 3.779-.053 4.92.324.8.265 1.088 7.125 1.63 6.815.972-.562 6.284-20.727 8.33-23.047.766-.87 1.156-.549 1.991-.347zm9.977 9.147c4.996-3.033 10.505-3.064 14.808-1.913 5.23 1.403 7.75 5.293 9.279 7.577.953 1.423 1.643 2.938 2.027 4.584a24.313 24.313 0 014.69-3.902c2.334-1.469 7.248-2.674 10.206-2.49 3.874.242 8.172 2.377 11.538 4.605 2.551 1.686 4.08 4.387 5.134 6.87.4.945.88 2.258 1.259 3.657 1.294-6.078 2.69-12.37 4.104-18.529-13.316-3.312-26.036-7.398-28.633-9.884-2.044-1.954-.164-4.698.487-5.925.48-.906.396-1.401 2.236-1.5 3.131-.17 15.78 2.312 28.732 5.277 3.87-16.144 7.436-29.463 8.915-32.496.938-1.92 1.254-1.423 2.238-1.498 1.334-.104 4.502-.91 5.327 2.026 1.129 4.037-1.511 18.59-5.085 34.684 9.458 2.35 17.477 4.601 19.89 5.776 1.996.973 2.09 1.376 2.156 2.507.092 1.512-.04 5.243-3.21 6.106-2.935.8-11.609-.388-21.58-2.453-3.261 13.784-6.694 27.108-8.586 34.548-2.926 11.514-5.407 21.844-7.845 24.364-1.063 1.101-2.168.551-3.088.095-1.051-.515-2.485-.41-2.726-3.442-.3-3.784 1.919-16.683 5.095-32.15-5.33 1.393-27.247-3.787-27.519-3.32-.632 1.102 1.39 13.097 3.236 15.9 1.092 1.656 2.265 1.71 4.23 1.775 3.023.097 10.82-3.664 13.01-3.454 1.027.096 1.376.428 1.668 1.186.442 1.147.886 4.262-.487 5.926-2.006 2.432-9.866 4.943-13.784 5.291-3.11.277-5.741-.468-8.05-1.847-2.354-1.406-4.478-3.504-5.897-6.584-.872-1.896-1.565-4.577-2.038-7.384.154 1.504-.043 3.148-.653 4.001-1.257 1.761-5.557 2.39-8.58 2.458-3.23.075-7.5-1.04-10.248-2.35-2.34-1.117-4.08-2.486-5.568-4.497a19.725 19.725 0 01-3.58-8.47c-.662-4.006-.727-9.765.728-14.323 1.536-4.81 2.703-8.696 6.164-10.802zm1.155 19.725c-1.498 1.544 1.803 7.372 3.784 9.322 1.794 1.762 4.616 2.101 7.158 2.448 2.672.363 7.1-1.731 8.539-.458.437.387.758 1.123.947 1.986-.4-2.67-.604-5.384-.576-7.588.008-.798.042-1.59.1-2.373-6.33-.463-18.202-5.133-19.952-3.337zm5.89-13.198c-1.17.66-3.588 4.285-3.288 4.538.97.826 13.013 3.582 14.07 2.422.763-.839-1.576-4.316-3.417-5.612-2.183-1.54-5.766-2.247-7.365-1.348zm30.984 5.266c-1.904.755-4.713 3.785-4.492 4.02.504.547 16.82 2.795 16.853 2.67.02-.072-2.454-5.03-5.955-6.395-2.83-1.104-4.172-1.181-6.406-.295z" fill="#005eca"/><path fill="#ffee8f" d="M146.741 113.895H381.93v158.1H146.74z"/><path fill="none" stroke="#6e5600" d="M71.389 95.829h122.732v74.272H71.389z" transform="matrix(1.61806 0 0 1.68448 49.53 -31.03)"/><path d="M195.603 157.884c4.736-1.995 11.827-3.216 16.294 0 3.024 2.176 4.498 8.784 3.896 10.74-.419 1.363-1.312 2.481-2.478 2.76-1.33.32-4.416-.44-5.314-1.534-.926-1.123 1.166-4.278 0-5.215-1.363-1.093-6.116-1.144-8.856 0-3.25 1.356-7.53 5.977-8.855 8.898-1.083 2.381-1.631 4.639 0 7.058 2.45 3.635 13.47 7.103 18.42 11.351 4.545 3.905 8.504 8.156 10.625 12.888 2.102 4.686 3.147 11.423 2.126 15.342-.807 3.1-2.736 5.023-5.668 7.057-3.674 2.547-11.172 5.215-15.94 6.138-3.91.754-7.423 1.019-10.627 0-3.313-1.058-7-3.482-8.855-6.445-2.062-3.291-2.285-10.767-2.126-12.886.07-.93 4.423-3.149 6.022-2.148 2.568 1.602 2.75 8.598 5.618 10.705 2 1.469 7.666 3.313 10.448 2.773 3.815-.743 7.778-1.343 11.21-5.194 1.42-1.593 2.134-3.962 2.126-6.136-.011-2.835-1.042-5.11-2.835-7.978-2.283-3.652-6.501-8.301-10.98-11.966-4.833-3.956-14.73-6.565-17.357-10.74-2.186-3.474-1.684-7.778 0-11.66 1.998-4.606 7.9-11.615 13.106-13.808zm56.891 35.09c1.25.01 4.293-.468 5.314 1.534 2.264 4.438-1.047 31.354-4.25 35.286-1.42 1.743-3.648 1.408-5.314.613-2.33-1.113-4.016-9.472-6.376-9.205-2.943.333-7.444 14.542-9.918 16.57-1.113.911-1.876.73-2.833.613-1.047-.128-2.361-.192-3.19-1.535-1.676-2.72-.79-40.136.355-41.42.616-.692 1.343-.693 2.126-.614.951.094 2.401.072 3.187 1.533 1.795 3.335-.805 24.125 1.063 24.853 1.5.587 4.913-11.06 7.439-12.887 1.52-1.096 3.477-.702 4.605-.615.79.063 2.396 5.243 2.835 4.91.788-.597 1.75-16.896 3.187-19.022.537-.797.96-.622 1.77-.613zm10.997 5.23c4.019-3.188 9.098-4.175 13.295-4.05 5.1.155 8.186 2.68 10.045 4.154 1.157.916 2.09 1.95 2.767 3.138a20.494 20.494 0 013.566-3.793c1.868-1.528 6.168-3.305 8.935-3.683 3.623-.493 8.008.383 11.55 1.493 2.684.839 4.624 2.63 6.082 4.337.554.65 1.254 1.567 1.876 2.567.008-4.858.068-9.898.168-14.84-12.938-.195-25.478-1.086-28.362-2.527-2.268-1.132-1.07-3.552-.708-4.602.267-.774.092-1.137 1.772-1.534 2.857-.677 15.017-.997 27.552-1.002.417-12.983 1.108-23.76 1.88-26.33.49-1.628.879-1.304 1.772-1.533 1.212-.314 3.979-1.483 5.314.613 1.831 2.879 2.237 14.434 2.084 27.327 9.189.138 17.031.452 19.49.925 2.031.392 2.197.684 2.478 1.534.38 1.136.987 4.004-1.77 5.216-2.552 1.123-10.79 1.735-20.399 1.905-.317 11.077-.883 21.832-1.175 27.834-.451 9.288-.723 17.598-2.48 19.944-.767 1.026-1.895.8-2.833.613-1.072-.208-2.374.122-3.19-2.147-1.014-2.832-1.487-13.053-1.577-25.399-4.649 1.995-25.892 1.878-26.051 2.283-.369.95 3.841 9.74 6.094 11.553 1.331 1.072 2.425.908 4.25.614 2.81-.455 9.272-4.685 11.335-4.909.967-.106 1.354.086 1.772.613.63.797 1.65 3.095.708 4.602-1.377 2.205-8.142 5.493-11.69 6.445-2.817.755-5.392.647-7.793 0-2.446-.66-4.817-1.888-6.73-3.989-1.174-1.292-2.337-3.214-3.323-5.272.437 1.12.576 2.407.18 3.165-.817 1.561-4.663 2.793-7.44 3.374-2.966.621-7.126.519-9.919 0-2.378-.441-4.252-1.181-6.019-2.454-1.94-1.397-3.79-3.363-4.96-5.83-1.393-2.938-2.579-7.318-2.125-11.046.477-3.936.794-7.101 3.579-9.31zm4.92 14.831c-1.082 1.439 3.104 5.305 5.314 6.445 2.001 1.03 4.671.793 7.085.613 2.54-.19 6.217-2.56 7.793-1.841.479.217.919.723 1.262 1.348-.89-1.966-1.608-4-2.014-5.684a24.68 24.68 0 01-.371-1.826c-5.933.753-17.805-.73-19.069.945zm2.858-11.09c-.952.707-2.474 3.892-2.15 4.034 1.057.46 12.714.455 13.462-.615.542-.773-2.298-3.015-4.251-3.68-2.316-.792-5.76-.705-7.061.26zm29.63-1.405c-1.61.91-3.612 3.709-3.363 3.85.573.329 16.074-.811 16.08-.913.004-.057-3.248-3.404-6.747-3.832-2.828-.347-4.082-.172-5.97.895z" fill="#44a5d6"/><path d="M271.791 439.564c-.024-3.2 7.015-9.518 3.874-12.61-2.544-2.504-13.331 2.44-17.025-4.191-2.296-4.119 3.453-8.881-.376-14.108-4.676-6.384-12.625-1.272-16.184-11.849-1.396-4.147 8.086-9.34 4.767-15.18-3.305-5.817-13.203-1.472-18.533-8.476-1.644-2.158 5.814-10.19 3.412-14.487-2.25-4.032-15.353 1.024-17.96-6.18-1.353-3.743 9.838-10.708 6.039-15.898-3.926-5.36-16.369 3.318-21.336-5.42-2.704-4.76 13.067-10.83 8.22-17.449-2.751-3.754-14.518 1.13-15.262-5.062-.693-5.776 11.799-12.286 18.164-15.426l163.491-111.96.006.011c5.693-4.723 15.493-12.199 19.807-9.254 4.955 3.382-4.273 12.224-2.259 16.419 3.55 7.393 15.513-4.665 18.401-.078 5.307 8.426-7.442 16.249-4.566 22.235 2.784 5.796 13.536-1.605 16.142 1.282 5.016 5.56-4.934 15.571-2.468 19.422 2.628 4.103 12.68.645 13.812 3.113 3.671 8.01-4.291 15.346-.76 20.953 3.546 5.63 12.052-.948 14.984 2.155 7.479 7.912-.3 13.096 3.126 20.228 2.804 5.839 9.336 2.55 11.857 6.479 4.059 6.323-4.799 14.227-3.76 17.685 1.283 4.27 9.695.457 12.409 1.87 6.71 3.492-7.175 19.208-7.175 19.208L295.348 437.56s-23.479 12.074-23.557 2.005z" fill="#86fdff"/><path d="M300.415 417.974S221.798 297.7 227.228 295.025l139.527-95.371.007.01c4.857-4.024 76.424 120.718 76.424 120.718l-142.771 97.592z" fill="#5698ef"/><path d="M373.54 229.154c1.252-.148 2.437-.387 4.094 1.95 2.077 2.928 5.072 13.492 8.39 25.172 6.604-3.875 12.753-7.046 15.476-7.868 2.987-.902 4.542-.267 5.582.78.984.988 2.075 2.875.745 5.071-1.678 2.773-9.903 8.733-18.314 14.126 3.31 11.16 6.723 21.304 9.71 24.749 3.602 4.152 7.93 3.6 10.793 3.121 2.362-.394 4.165-2.865 5.582-4.294 1.172-1.17 1.698-2.808 2.607-3.51.722-.553 1.372-.922 2.233-.78 1.153.192 3.925 1.159 4.097 2.732.249 2.323-3.659 9.02-7.073 11.313-3.564 2.389-10.21 2.842-14.145 2.342-3.265-.418-6.367-5.062-8.189-3.903-2.218 1.418-1.02 11.567-2.607 15.215-1.2 2.768-2.674 4.722-4.836 5.85-2.336 1.22-6.768 1.112-8.935.78-1.513-.23-3.205-1.686-4.671-1.037-3.338 1.477-2.345 7.408-5.75 9.622-2.457 1.597-6.078-.469-8.562 1.56-3.233 2.64-5.267 13.394-7.815 15.606-1.51 1.307-5.105.949-5.958.78-1.961-.394-7.424-5.127-9.979-4.105-2.199.881-1.597 8.537-3.643 10.351-2.186 1.934-4.832 3.049-7.46 2.78-2.21-.226-5.114-4.074-5.715-3.565-1.16.979-.293 10.53-1.864 14.433-1.375 3.431-4.045 6.615-6.325 8.193-1.87 1.297-4.34 1.885-5.956 1.56-1.393-.281-2.263-1.39-3.35-2.73-1.413-1.742-2.988-7.805-4.093-7.414-1.417.502-.688 11.908-2.977 15.607-1.995 3.217-6.11 5.297-8.937 6.24-2.338.78-4.417.607-6.697 0-2.547-.675-6.585-2.927-7.818-4.291-.725-.804-.882-1.436-.745-2.339.186-1.21 1.026-3.631 2.607-4.293 2.154-.903 7.878 2.93 10.424 1.561 2.537-1.368 5.296-6.21 4.836-9.755-.566-4.367-7.678-9.291-12.501-13.127-5.183-4.113-14.488-5.393-18.017-10.278-3.312-4.577-3.34-13.894-2.236-18.727.896-3.914 3.4-7.197 6.326-8.97 3.073-1.86 8.353-1.932 11.912-1.56 3.181.327 7.159 1.554 8.562 3.119 1.027 1.15.99 3.082.742 4.293-.22 1.089-1.121 2.145-1.86 2.73-.651.515-1.036.747-2.232.78-2.3.063-9.346-3.174-11.912-2.34-1.841.6-2.723 2.322-3.35 4.291-.794 2.505-2.05 6.865 0 10.143 3.078 4.917 10.21 7.101 15.186 9.945 5.832 3.332 10.937 10.67 11.987 9.952 1.742-1.198.283-22.473 2.605-25.75 1.215-1.714 3.534-2.12 4.84-.78 2.456 2.523 2.182 18.695 4.092 24.58 1.342 4.128 3.359 8.772 4.84 8.969 1.205.163 2.386-1.882 3.35-5.07 2.062-6.812.947-37.557 4.095-40.963 1.471-1.592 4.169-.127 5.584 1.952 2.406 3.536 1.48 22.439 3.35 23.015 1.573.488 4.94-8.161 6.326-13.654 1.66-6.58.141-20.939 1.86-23.795.771-1.284 1.974-.93 2.977-.78 1.102.163 2.54.453 3.352 1.949 1.37 2.526 1.607 10.657 1.489 14.826-.094 3.363-1.92 6.474-1.489 8.58.327 1.611 1.24 2.59 2.605 3.513 1.769 1.196 5.918 3.413 7.816 2.34 2.121-1.198 4.402-7.582 3.721-10.533-.66-2.872-5.957-4.146-7.443-7.023-1.472-2.85-1.877-6.766-1.488-10.142.406-3.515 1.524-8.746 4.095-10.533 2.67-1.854 9.529-.894 11.909 0 1.492.561 1.993.974 2.607 2.73 1.165 3.33-.722 17.804.744 19.116.841.755 2.768-1.29 3.721-2.73 1.185-1.786 2.588-5.349 2.233-7.803-.357-2.49-3.589-4.364-4.466-7.023-.915-2.774-1.414-6.214-.745-9.36.74-3.48 2.893-9.297 5.583-10.535 2.588-1.186 8.1.357 10.05 2.732 2.07 2.515 1.827 8.7 1.49 12.484-.307 3.43-3.821 7.351-2.978 9.36.755 1.806 5.142 4.146 6.702 2.735 2.534-2.301 3.517-16.778 2.23-25.362-.72-4.81-2.983-9.665-5.373-14.562-4.402 2.58-8.185 4.583-10.216 5.338-3.087 1.147-4.65.984-5.955 0-1.294-.977-3.173-3.383-1.859-5.85 1.194-2.252 6.58-6.37 13.02-10.607a39.55 39.55 0 01-.78-2.404c-2.675-9.253-6.246-23.775-5.21-28.089.488-2.05 2.122-2.586 3.347-2.732zm-1.118 67.101c-2.463 1.35-1.005 4.17-.744 4.681.129.248 2.084 1.536 2.313 1.35 1.34-1.092.894-7.38-1.57-6.031zm-20.1 14.042c-.493.263-.666 1.297-.742 2.343-.112 1.518.001 5.17.742 6.243.512.734 1.772 1.273 2.235.78.762-.82.762-7.237 0-8.586-.463-.816-1.736-1.038-2.235-.78z" fill="#86fdff"/></svg>