<svg viewBox="0 0 512 512" xmlns="http://www.w3.org/2000/svg"><path d="M112.254 126.867c.299 11.296 7.411 22.646 19.287 28.774 11.878 6.129 25.293 5.37 34.738-.898-.3-11.296-7.413-22.645-19.288-28.773-11.877-6.13-25.292-5.371-34.737.897z" fill="#6cb89c"/><g fill="#3e9073"><path d="M166.279 158.995a4.268 4.268 0 01-3.031-1.256c-.202-.2-13.368-13.108-33.392-17.183-2.312-.47-3.803-2.717-3.33-5.018s2.73-3.784 5.04-3.314c22.706 4.62 37.144 18.92 37.748 19.526a4.238 4.238 0 01-.029 6.013 4.265 4.265 0 01-3.006 1.232z"/><path d="M180.655 116.903l-6.4-3.55c-2.645-1.468-5.782-.204-6.834 2.739-1.607 4.494-8.274 18.62-9.81 26.708-3.75 19.747-1.864 36.13 5.604 48.693l14.234-9.815c-5.978-10.058-5.017-24.086-3.157-34.082 1.255-6.751 7.565-19.825 8.916-23.665.933-2.65-.176-5.709-2.553-7.028z"/></g><path d="M269.339 133.703c.339 14.696 8.385 29.461 21.823 37.434 13.438 7.974 28.617 6.989 39.303-1.168-.339-14.696-8.386-29.461-21.824-37.436-13.436-7.972-28.617-6.986-39.302 1.17z" fill="#6cb89c"/><path d="M330.465 175.501c-1.242 0-2.484-.544-3.429-1.633-.229-.261-15.125-17.056-37.781-22.357-2.615-.61-4.302-3.534-3.769-6.528.536-2.993 3.09-4.923 5.704-4.311 25.69 6.01 42.027 24.613 42.71 25.403 1.878 2.17 1.864 5.674-.032 7.824-.944 1.069-2.174 1.602-3.403 1.602z" fill="#3e9073"/><path d="M396.821 148.955c-2.988 14.3-13.527 26.841-28.115 31.46-14.587 4.62-29.26.062-38.242-10.447 2.985-14.299 13.526-26.84 28.115-31.459 14.586-4.62 29.261-.062 38.242 10.446z" fill="#6cb89c"/><g fill="#3e9073"><path d="M330.474 175.497c-1.576 0-3.12-.88-4.048-2.499-1.46-2.552-.844-5.974 1.383-7.651.806-.607 19.889-14.747 45.829-14.747l.547.002c2.669.021 4.818 2.515 4.8 5.57-.017 3.055-2.179 5.52-4.865 5.496-23.198-.181-40.83 12.799-41.005 12.93-.816.608-1.734.9-2.641.9z"/><path d="M346.732 120.74l-7.243-4.62c-2.991-1.909-6.542-.265-7.732 3.564-1.817 5.847-9.36 24.224-11.1 34.748-4.242 25.691-2.108 47.006 6.341 63.35l16.105-12.77c-6.763-13.086-5.675-31.336-3.572-44.342 1.421-8.783 8.56-25.792 10.088-30.788 1.056-3.448-.2-7.428-2.887-9.142z"/></g><path d="M160.037 364.701c-51.146 0-113.914-14.911-113.914-101.742 0-80.561 42.691-102.988 100.224-98.103 9.113.776 18.267.776 27.377 0 57.533-4.886 100.225 17.541 100.225 98.103.001 86.831-62.769 101.742-113.912 101.742z" fill="#ec8d08"/><path d="M71.311 262.959c0-67.592 30.056-94.257 73.713-98.205-56.861-4.43-98.901 18.265-98.901 98.205 0 86.832 62.768 101.742 113.914 101.742 4.135 0 8.345-.1 12.594-.324-48.291-2.557-101.32-21.606-101.32-101.418z" fill="#cb7c0d"/><path d="M323.148 417.871c-62.973 0-140.256-17.209-140.256-117.432 0-92.983 52.564-118.869 123.4-113.228 11.22.893 22.491.893 33.711 0 70.837-5.641 123.402 20.245 123.402 113.228 0 100.223-77.284 117.432-140.257 117.432z" fill="#fe9a0e"/><path d="M216.476 300.439c0-77.451 36.475-108.343 89.599-113.245-70.727-5.57-123.182 20.358-123.182 113.245 0 100.223 77.282 117.432 140.256 117.432 5.507 0 11.125-.135 16.792-.444-59.11-3.206-123.465-25.531-123.465-116.988z" fill="#d58815"/></svg>