<svg width="200" height="200" xmlns="http://www.w3.org/2000/svg"><path d="M127.664 78.378c3.362 20.08.995 39.252-5.542 53.891-6.546 14.66-17.418 24.975-30.843 27.222-13.425 2.248-27.064-3.962-38.028-15.69-10.948-11.712-19.432-29.067-22.794-49.147-3.362-20.08-.994-39.251 5.543-53.89 6.546-14.66 17.418-24.974 30.843-27.222 13.425-2.248 27.064 3.962 38.028 15.69 10.948 11.713 19.431 29.066 22.793 49.146zm-23.582-48.423C93.258 18.375 80.144 12.39 67.018 14.588 53.892 16.786 43.443 26.715 36.98 41.19c-6.472 14.497-8.802 33.354-5.464 53.286 3.337 19.934 11.681 37.003 22.523 48.601 10.825 11.582 23.939 17.566 37.065 15.368 13.126-2.198 23.575-12.127 30.037-26.602 6.473-14.497 8.803-33.354 5.465-53.287-3.337-19.933-11.681-37.002-22.524-48.601z" fill="none"/><g transform="translate(-3.906 -5.28)"><path d="M119.647 150.947c-38.166 14.846-73.735 16.99-85.34-22.125-11.602-39.116 15.197-56.803 53.551-70.033 38.354-13.23 71.35-18.026 85.34 22.125 13.989 40.152-15.386 55.187-53.55 70.033z" fill="#4b3600"/><circle cx="91.961" cy="133.319" r="49.431" transform="matrix(.85316 -.14284 .1443 .8619 -25.946 14.58)" fill="#d8d8d8" stroke="#221800"/><path d="M83.707 60.722c26.348 1.592 37.277 27.265 41.07 49.919m13.598 32.339c-.181-9.172 5.374-21.77 1.982-31.321-1.843-5.191-6.208-9.664-8.173-14.975-.87-2.352-.395-5.761-1.58-7.938-1.135-2.083-6.982-5.002-7.297-6.887m-14.545-27.625c4.653 4.67 7.686 2.693 14.064 4.08 5.98 1.299 13.705 6.64 18.414 10.397 4.952 3.95 4.918 9.812 5.895 15.647 1.887 11.273 7.749 23.64 5.921 34.998m17.304.342c-1.691-3.181-1.244-9.551-1.311-12.932-.233-11.773-3.515-27.111-13.034-33.9" fill="none" stroke="#352500"/></g></svg>