<svg height="512" width="512" xmlns="http://www.w3.org/2000/svg"><path d="M140.485 326.517l70.213 85.816c2.575 3.148 7.105 4.052 10.575 1.932 26.203-16.006 43.677-37.961 43.677-37.961z" fill="#ffc269"/><path d="M251.559 98.765l-73.187 65.868a8.298 8.298 0 00-1.871 9.879l13.77 27.539 124.466-24.893s-17.533-50.721-52.6-78.869c-3.102-2.49-7.621-2.185-10.578.476z" fill="#ada7ae"/><path d="M375 229l-245.063 8.75c-4.245 3.92-13.988 5.247-19.694 5.711-4.542.369-9.312-.542-13.939-3.029-5.349-2.875-9.192-7.924-11.527-13.53-20.299-48.74-55.803-66.01-73.959-71.843-5.688-1.828-11.402 2.829-10.771 8.77 3.859 36.347 24.268 67.821 24.268 112.901 0 4.574-.21 9.008-.592 13.322l30.609 20.281L124 287.667C169.306 329.504 234.492 358 303.5 358c106 0 115.5-81 115.5-81 2.104-2.903-41.896-45.097-44-48z" fill="#c8c5c9"/><path d="M406.012 318.219h-16.595c-62.233 31.808-168.913 23.282-245.475-30.425-37.757-26.487-98.872-6.182-120.219 2.259-3.179 35.708-18.117 63.22-22.853 93.348l8.442 9.974c18.155-5.833 51.138-19.884 71.438-68.625 2.334-5.605 6.902-14.875 12.25-17.75 10.442-5.612 25.709-3.041 33.333 4 45.306 41.838 106.95 67.333 175.957 67.333 48.524 0 87.346-15.193 125.709-37.333z" fill="#ffc269"/><path d="M302.291 168.86c-69.007 0-131.445 25.893-176.751 67.731-2.885 2.664-6.28 4.658-9.948 5.813l-5.341 1.136H381.5l30.261-51.379c-33.051-14.947-70.204-23.301-109.47-23.301z" fill="#b6b1b7"/><path d="M302.291 368.006c-62.496 0-121.269-22.49-165.492-63.328-7.927-7.32-18.049-11.352-28.501-11.352-6.893 0-13.573 1.711-19.851 5.086-8.365 4.496-14.931 12.023-18.988 21.766-17.398 41.773-46.932 56.934-63.287 62.285-.95.21-2.902.54-5.301.938-.327 2.077-.6 4.126-.823 6.232-.631 5.941 5.083 10.598 10.771 8.77 18.155-5.833 53.66-23.102 73.959-71.844 2.334-5.605 6.177-10.654 11.525-13.528 10.442-5.612 21.612-3.2 29.236 3.84 45.306 41.838 107.744 67.731 176.751 67.731 39.244 0 76.422-8.394 109.478-23.311l11.213-24.316c-36.368 20.26-77.986 31.031-120.69 31.031z" fill="#ffa95f"/><path d="M510.422 271.823c-20.811-28.715-48.36-52.911-80.528-70.603l-9.221-4.788c-28.497 15.443-47.852 45.609-47.852 80.299s18.339 63.482 46.835 78.926c3.094-1.542 7.223-1.745 10.238-3.401 32.194-17.695 59.705-41.884 80.528-70.616 2.104-2.904 2.104-6.915 0-9.817z" fill="#b6b1b7"/><circle cx="430.906" cy="260.135" fill="#4b3f4e" r="16.595"/><circle cx="436.772" cy="254.269" fill="#fff" r="8.298"/><path d="M381.119 276.731c0-33.504 20.12-62.422 48.775-75.511a258.108 258.108 0 00-18.133-9.059c-28.262 17.588-47.237 48.9-47.237 84.57s18.983 66.972 47.245 84.56a256.818 256.818 0 0018.125-9.035c-28.655-13.09-48.775-42.021-48.775-75.525z" fill="#9b959d"/></svg>