<svg width="200" height="200" xmlns="http://www.w3.org/2000/svg"><path d="M127.664 78.378c3.362 20.08.995 39.252-5.542 53.891-6.546 14.66-17.418 24.975-30.843 27.222-13.425 2.248-27.064-3.962-38.028-15.69-10.948-11.712-19.432-29.067-22.794-49.147-3.362-20.08-.994-39.251 5.543-53.89 6.546-14.66 17.418-24.974 30.843-27.222 13.425-2.248 27.064 3.962 38.028 15.69 10.948 11.713 19.431 29.066 22.793 49.146zm-23.582-48.423C93.258 18.375 80.144 12.39 67.018 14.588 53.892 16.786 43.443 26.715 36.98 41.19c-6.472 14.497-8.802 33.354-5.464 53.286 3.337 19.934 11.681 37.003 22.523 48.601 10.825 11.582 23.939 17.566 37.065 15.368 13.126-2.198 23.575-12.127 30.037-26.602 6.473-14.497 8.803-33.354 5.465-53.287-3.337-19.933-11.681-37.002-22.524-48.601z" fill="none"/><path d="M162.25 106.33c0 6.924-1.2 13.574-3.41 19.775-7.845 21.995-28.409 38.272-53.204 40.625a65.118 65.118 0 01-6.216.295c-34.7 0-62.83-27.175-62.83-60.695 0-11.162 3.121-20.514 8.564-28.023 4.467-6.161 10.497-11.079 17.648-14.74.331-.17.669-.339 1.007-.505C73.931 58.12 86.2 55.625 99.42 55.625c2.097 0 4.17.061 6.216.189 10.474.639 20.189 2.926 28.514 6.83.337.154.673.316 1.005.479 16.371 8.043 27.095 22.511 27.095 43.207z" fill="#6fca29"/><path d="M162.25 106.33c0 6.924-1.2 13.574-3.41 19.775-10.101 15.349-27.139 26.018-46.851 27.887a65.133 65.133 0 01-6.216.296c-34.7 0-62.83-27.175-62.83-60.694 0-5.545.771-10.643 2.211-15.288 4.467-6.16 10.497-11.078 17.648-14.739 10.309-5.277 22.954-7.942 36.617-7.942 2.098 0 4.171.061 6.217.189 10.898.666 20.977 3.113 29.518 7.308 16.372 8.044 27.096 22.512 27.096 43.208z" fill="#7bd934"/><path d="M74.379 77.724c-3.056-.839-8.332 1.25-7.95 8.445.14 2.644-9.244 3.446-10.937 8.592-1.833 5.573 1.08 14.407 4.345 15.617 5.625 2.085 3.702 12.048 5.84 15.408.798 1.252 2.951 3.471 2.127 5.284-1.482 3.262-7.643 24.036-11.071 25.227-2.274.79-4.239-11.129-6.406-11.93-.968-.358-11.432-19.35-13.316-22.127-1.444-2.128-.528-6.699-1.416-10.699-1.433-6.456-3.249-12.607-.572-19.822 2.326-6.268 7.215-12.859 10.646-18.445 4.937-8.036 11.11-10.965 13.143-12.127 2.301-1.316 8.398-1.838 10.704-2.922 3.684-1.73 7.302-.215 11.011-1.273 3.56-1.016 7.952-1.643 12.414-1.689 0 0 3.153-8.225 2.38-13.537-.765-5.261-10.462-17.843-6.922-17.843S97.955 32.779 100 38.712c1.81 5.251 0 16.662 0 16.662 6.193.393 17.949 1.581 23.488 3.224 2.461-.366 4.768-.651 6.562-.493 14.182 1.252 22.445 14.002 29.539 26.337 2.545 4.426 4.68 10.313 5.732 15.558.621 3.097.991 6.526.486 9.746-4.948 31.513-9.329 40.102-27.153 47.972-2.075.916-5.327.564-9.049 2.613-4.094 2.253-6.723 7.912-7.472 6.538-1.667-3.06.716-12.468.239-13.584-1.393-3.262-.027-7.988-.394-11.457-.174-1.64-2.239-2.595-2.468-4.469-.425-3.49 2.253-9.201 1.186-12.097-1.178-3.198-5.8-3.523-6.395-6.188-1.74-7.786 4.756-12.208 2.657-20.056-1.4-5.233-4.672-3.984-7.341-6.991-1.836-2.068 1.35-8.729-1.507-9.842-1.652-.643-2.963-.859-4.04-.759.074 1.954-10.83 1.215-10.925-1.284-4.109-3.757-3.749 3.091-7.226 2.299-3.148-.717-11.54-5.301-11.54-4.717z" fill="#5eac24"/></svg>