<svg width="200" height="200" xmlns="http://www.w3.org/2000/svg"><path d="M142.19 92.26c3.998 12.736 22.539 9.095 22.539 21.343 0 11.188-33.267 18.124-44.078 18.701l-45.063.87c-28.87 0-49.789-8.167-49.789-32.708 0-24.541 21.343-51.117 51.857-51.117 28.82 0 57.182 19.475 64.535 42.911zm0 0" fill="#d87e35"/><path d="M153.607 102.531a5.014 5.014 0 00-5.657 1.15c-7.76 8.202-32.657 13.168-41.732 13.652l-45.064.869c-13.184 0-24.71-1.705-33.342-5.894 5.886 15.405 24.173 20.866 47.776 20.866l45.063-.87c10.81-.576 44.078-7.513 44.078-18.7 0-6.66-5.479-8.622-11.122-11.073zm0 0" fill="#c67030"/><path d="M155.634 50.81c-1.593 2.248-1.284 4.97-.749 6.85.41 1.438-.09 2.985-1.259 3.867L133.61 76.572c-2.436 1.832-2.97 5.372-1.189 7.889 1.78 2.516 5.196 3.047 7.61 1.184l19.832-15.305a3.313 3.313 0 013.936-.088c1.567 1.093 3.98 2.215 6.524 1.31 3.335-1.185 4.74-5.024 3.337-8.378-1.104-2.636-3.473-4.05-5.883-4.05-.518 0-.96-.27-1.234-.664a1.619 1.619 0 01-.24-1.419c.722-2.384.13-5.155-1.964-7.034-2.665-2.395-6.615-2.153-8.705.792zm0 0" fill="#e2e2e2"/><path d="M82.115 122.775c8.308 11.737 24.753 13.856 36.73 4.733 5.636-4.292 9.058-10.14 11.208-17.093 2.856-9.236 7.038-16.68 14.022-23.326 1.767-1.682 2.095-4.375.753-6.27l-5.342-7.548c-1.34-1.895-3.917-2.377-5.992-1.132-8.205 4.921-16.305 6.832-25.654 6.894-7.038.045-13.442 1.68-19.078 5.973-11.978 9.122-14.953 26.033-6.647 37.769zm0 0" fill="#e88c38"/><path d="M144.828 80.818l-5.342-7.548c-.431-.61-1.251-.915-2.175-1.048-2.47-.351-4.923.704-6.565 2.65-5.59 6.626-11 15.317-13.23 22.536-2.15 6.952-5.574 12.8-11.21 17.093-8.21 6.255-18.521 7.224-26.87 3.434a25.24 25.24 0 002.68 4.84c8.307 11.736 24.752 13.856 36.73 4.732 5.635-4.291 9.058-10.14 11.207-17.092 2.856-9.236 7.038-16.68 14.022-23.327 1.767-1.681 2.095-4.374.753-6.27zm0 0" fill="#d38231"/><path d="M173.08 131.314H26.92c-2.393 0-4.332 2.012-4.332 4.495 0 2.482 1.94 4.494 4.332 4.494h8.472c1.08 0 2.053.678 2.46 1.716l1.484 3.765c1.387 3.522 4.69 5.824 8.357 5.824h104.614c3.667 0 6.97-2.302 8.357-5.824l1.484-3.765c.407-1.038 1.38-1.716 2.46-1.716h8.472c2.393 0 4.332-2.012 4.332-4.494 0-2.483-1.94-4.495-4.332-4.495zm0 0" fill="#e2e2e2"/><path d="M173.08 131.314h-13.476c0 4.965-3.879 8.99-8.665 8.99h-.104c-.056 0-.11.004-.165.005H35.475c1.045.035 1.98.699 2.377 1.709l1.237 3.139h104.056c-.12.239-.233.483-.332.736l-1.057 2.686c-.722 1.832-2.439 3.028-4.347 3.028h14.898c3.667 0 6.97-2.301 8.357-5.823l1.484-3.766c.408-1.037 1.38-1.715 2.46-1.715h8.472c2.393 0 4.332-2.012 4.332-4.494 0-2.483-1.94-4.495-4.332-4.495zm0 0" fill="#d8d6d4"/></svg>