<svg viewBox="0 0 500 500" xmlns="http://www.w3.org/2000/svg"><path d="M297.44 318.459c0-4.121.85-13.09-1.003-16.252-2.666-4.551-8.015-1.057-10.243-7.836-1.343-4.086 3.135-4.764 2.257-8.021-.701-2.596-5.451-1.307-5.944-5.974-.535-5.048 3.106-6.695 2.391-11.49-.276-1.869-3.606-3.022-4.649-3.988-1.367-1.267-1.77-5.657-1.45-7.836.902-6.144 6.927-2.344 7.911-6.805.352-1.599.808-4.448.273-6.027-.963-2.845-7.703-7.135-2.383-10.097.606-.338 1.335-.786 1.997-.903 1.2-.21 2.797.306 3.944-.207 7.252-3.245.676-13.903 4.374-18.688 3.175-4.102 9.953.182 12.233-3.767 4.652-8.06 1.796-13.975 3.556-22.308.949-4.491 6.311-2.326 8.702-2.326.207 0 2.675-.351 2.814-.727.74-2 .728-3.957 1.931-5.521.427-.556-.1-4.09-.1-4.933 0-2.873.856-5.716 2.642-7.543 2.736-2.797 6.366 1.105 8.742-1.346 3.142-3.242 1.274-10.633 4.038-14.208 3.009-3.892 6.323.14 9.305-1.142 3.601-1.549 2.854-6.287 4.313-9.66 1.957-4.527 5.851-9.174 9.864-10.476 3.53-1.147 4.775 5.864 8.379 4.706 2.382-.766 4.044-3.984 6.336-4.728 1.418-.46 3.646-1.769 5.147-1.288 2.136.684 2.551 3.012 5.409 2.243 6.949-1.868 13.466-6.079 20.992-4.654 3.655.692-1.006 8.667.126 9.618 1.014.852 2.663.278 3.79.421 3.297.424 8.186 1.914 9.836 6.145.693 1.775-5.061 2.943-6.07 3.899-1.245 1.18 1.577 2.648 1.868 2.771 2.6 1.109 5.578-1.084 7.414 2.053 3.331 5.692-3.875 8.94-3.016 13.343.457 2.345 5.234 2.408 5.943 3.907 1.762 3.721-.199 12.828-2.112 15.729-1.428 2.168-4.542 3.575-5.044 6.644-.523 3.194 4.798 8.256 2.322 12.448-2.36 3.998-7.458 1.745-9.832 4.622-1.759 2.131-.03 8.238-1.113 10.989-1.227 3.118-5.769.741-7.445 3.435-3.758 6.041-2.47 13.712-6.779 19.777-2.182 3.072-4.781 6.194-8.102 6.823-1.267.24-5.485-2.235-6.269-1.244-2.033 2.566-.919 7.848-1.306 10.488-.259 1.76-1.482 3.516-2.341 4.897-1.779 2.858-4.69-1.22-6.514-.059-2.879 1.832-3.374 8.121-6.53 10.135-1.158.739-2.796 2.045-4.196 1.483-.508-.204-2.275-1.994-2.944-1.149-.605.762-2.55 3.276-2.766 4.369-.085.428-.504 3.344-.771 3.533-1.186.844-5.555.066-6.842-.761-.92-.593-1.675-2.671-2.994-1.838-2.998 1.892-4.931 6.191-5.461 10.219-.182 1.376.108 5.133-.651 6.202-2.757 3.888-8.11-1.074-10.564.476-3.708 2.34-1.183 9.753-4.002 12.601-2.46 2.486-5.746-1.081-8.536-.194-3.938 1.254-2.778 7.917-5.829 9.77-4.084 2.481-11.112.25-15.048.25z" fill="#064700"/><path d="M277.279 296.256c2.548-2.962 7.586-9.963 10.653-11.028 4.412-1.534 5.459 4.465 10.986 1.044 3.333-2.062 1.067-5.468 3.609-7.236 2.025-1.41 4.076 2.614 7.258-.42 3.443-3.28 2.28-6.837 5.673-9.818 1.322-1.163 4.031.178 5.254.164 1.604-.02 4.56-2.913 5.715-4.688 3.26-5.004-2.703-6.2-.534-10.048.777-1.378 2.266-3.724 3.563-4.51 2.337-1.419 9.031-.107 7.674-5.706-.155-.637-.315-1.434-.64-1.95-.589-.933-1.865-1.603-2.236-2.72-2.342-7.059 8.193-10.433 8.935-16.284.633-5.018-6.08-6.358-5.005-10.682 2.195-8.827 7.566-11.216 11.663-18.353 2.21-3.847-2.344-5.786-3.778-7.345-.125-.135-1.387-1.996-1.238-2.357.794-1.92 2.01-3.32 2.256-5.227.089-.68 2.59-2.874 3.111-3.48 1.777-2.066 3.023-4.668 3.081-7.145.09-3.795-4.5-3.355-4.41-6.667.122-4.378 5.813-8.473 6.366-12.845.604-4.76-3.877-4.02-4.872-6.887-1.202-3.46 2.177-6.38 3.387-9.755 1.627-4.53 2.166-10.408.565-13.96-1.407-3.126-6.49 1.103-7.935-2.08-.955-2.103.04-5.5-.875-7.528-.565-1.256-1.092-3.65-2.29-4.281-1.703-.902-3.393.502-4.63-1.913-3.011-5.874-4.315-13.15-9.709-17.03-2.62-1.886-4.757 6.886-6.025 6.831-1.133-.048-1.767-1.536-2.532-2.167-2.239-1.845-6.092-3.961-9.698-1.996-1.513.825 1.214 5.414 1.228 6.76.018 1.66-2.583.875-2.833.774-2.246-.897-2.675-4.415-5.715-3.357-5.518 1.92-3.206 8.953-6.444 11.557-1.725 1.388-4.628-1.68-5.98-1.065-3.357 1.526-7.814 9.35-8.462 12.682-.484 2.49.513 5.531-1.084 8.064-1.661 2.638-7.983 2.808-9.09 7.435-1.058 4.412 3.392 6.117 3.037 9.732-.264 2.678-5.078 5.94-6.13 8.624-1.193 3.041 3.001 4.294 2.34 7.322-1.483 6.792-7 11.467-8.167 18.635-.59 3.63-.964 7.57.639 10.186.61.999 4.671 1.97 4.529 3.193-.369 3.17-4.304 6.24-5.704 8.39-.934 1.434-1.286 3.493-1.625 5.045-.701 3.216 3.567 2.181 3.943 4.204.592 3.194-3 8.039-2.353 11.543.237 1.286.412 3.292 1.6 3.801.43.185 2.597.05 2.475 1.093-.11.942-.498 4.018-1.043 4.944-.214.363-1.767 2.733-1.724 3.042.19 1.38 3.29 3.669 4.574 3.914.919.173 2.656-.83 2.932.63.626 3.314-.873 7.665-3.046 10.905-.741 1.108-3.24 3.62-3.445 4.882-.752 4.592 5.527 4.516 6.04 7.23.776 4.099-5.322 7.781-5.393 11.666-.064 3.39 4.113 2.968 5.238 5.425 1.585 3.469-3.231 7.502-2.548 10.822.915 4.446 6.509 7.423 8.869 9.989z" fill="#053101"/><path d="M242.076 413.803c.617.997 18.354 29.934 20.292 27.837 1.002-1.085.449-33.071 5.45-49.709 2.683-8.926 11.145-34.332 15.332-42.64 8.339-16.551 20.748-40.653 30.912-55.392 10.392-15.067 85.212-135.987 81.737-138.434-.368-.259-75.123 109.226-96.765 138.787-7.317 9.994-14.795 20.322-20.988 31.569-7.446 13.523-26.663 54.038-31.919 68.168-.739 1.987-5.761 17.057-4.051 19.814z" fill="#166701"/><path d="M240.58 411.496c.348 1.107 9.795 2.787 10.888.457.565-1.204.812-6.274 3.632-24.76 1.514-9.918 6.287-38.147 8.649-47.379 4.704-18.39 11.703-45.17 17.437-61.547 5.862-16.742 48.067-151.099 46.106-153.818-.207-.288-42.375 121.364-54.583 154.21-4.127 11.104-8.345 22.58-11.839 35.076-4.2 15.027-15.04 60.043-18.005 75.744-.416 2.208-3.249 18.952-2.285 22.017z" fill="#166701"/><path d="M209.572 307.167c-.115-4.12-1.212-13.054.552-16.28 2.539-4.641 7.982-1.336 10.02-8.19 1.229-4.131-3.264-4.651-2.478-7.938.629-2.62 5.412-1.497 5.776-6.18.395-5.063-3.29-6.583-2.709-11.4.224-1.879 3.52-3.147 4.536-4.15 1.331-1.315 1.612-5.716 1.233-7.883-1.073-6.109-6.99-2.1-8.097-6.524-.395-1.586-.93-4.418-.44-6.015.883-2.878 7.502-7.4 2.101-10.176-.614-.316-1.356-.738-2.02-.832-1.205-.168-2.788.403-3.948-.069-7.338-2.99-1.06-13.872-4.89-18.525-3.287-3.989-9.943.53-12.332-3.337-4.873-7.893-2.182-13.905-4.172-22.172-1.074-4.455-6.372-2.104-8.764-2.02-.206.007-2.683-.258-2.833-.629-.794-1.972-.837-3.93-2.081-5.45-.443-.54-.014-4.092-.038-4.933-.08-2.873-1.015-5.684-2.85-7.448-2.813-2.7-6.332 1.328-8.775-1.039-3.23-3.13-1.569-10.583-4.43-14.06-3.116-3.784-6.316.362-9.332-.815-3.642-1.422-3.028-6.184-4.579-9.503-2.082-4.458-6.102-8.966-10.15-10.127-3.56-1.023-4.61 6.03-8.244 4.998-2.403-.682-4.153-3.84-6.464-4.504-1.43-.412-3.694-1.642-5.18-1.108-2.117.758-2.467 3.101-5.345 2.432-6.997-1.625-13.628-5.605-21.11-3.916-3.636.819 1.245 8.628.14 9.618-.99.886-2.655.37-3.777.554-3.283.538-8.128 2.198-9.66 6.485-.643 1.8 5.14 2.764 6.175 3.686 1.277 1.135-1.503 2.7-1.79 2.834-2.568 1.2-5.607-.888-7.354 2.312-3.17 5.807 4.122 8.8 3.385 13.232-.391 2.358-5.164 2.589-5.833 4.112-1.657 3.781.557 12.815 2.548 15.647 1.488 2.117 4.64 3.414 5.226 6.464.612 3.174-4.567 8.42-1.974 12.524 2.469 3.912 7.502 1.482 9.955 4.276 1.816 2.068.259 8.232 1.415 10.943 1.314 3.075 5.788.54 7.539 3.173 3.923 5.906 2.848 13.62 7.323 19.53 2.266 2.994 4.95 6.024 8.287 6.535 1.273.196 5.421-2.424 6.233-1.462 2.103 2.493 1.136 7.811 1.595 10.436.307 1.75 1.579 3.463 2.476 4.813 1.858 2.794 4.655-1.383 6.51-.288 2.928 1.73 3.597 8 6.808 9.903 1.179.699 2.852 1.946 4.236 1.335.502-.22 2.217-2.073 2.91-1.252.625.742 2.639 3.187 2.885 4.271.096.424.598 3.325.87 3.505 1.208.8 5.553-.129 6.817-1.002.903-.624 1.6-2.728 2.941-1.94 3.05 1.785 5.1 6.015 5.742 10.021.22 1.37.034 5.134.822 6.176 2.864 3.79 8.077-1.357 10.572.107 3.772 2.209 1.454 9.706 4.35 12.454 2.529 2.4 5.712-1.282 8.526-.493 3.972 1.115 2.996 7.815 6.098 9.561 4.15 2.338 11.113-.14 15.047-.277z" fill="#064700"/><path d="M251.722 350.398c-2.46-3.82-7.197-12.646-10.447-14.468-4.678-2.624-6.522 3.817-12.21-1.136-3.429-2.983-.542-6.291-3.134-8.785-2.066-1.989-4.787 2.05-7.938-1.983-3.409-4.36-1.716-8.066-5.106-12.083-1.321-1.568-4.455-.644-5.801-.916-1.76-.357-4.679-4.186-5.746-6.397-3.008-6.237 3.69-6.32 1.75-11.043-.698-1.694-2.065-4.609-3.4-5.752-2.408-2.063-9.924-2.006-7.784-7.936.244-.676.51-1.528.928-2.033.756-.912 2.24-1.39 2.775-2.553 3.394-7.348-7.809-13.292-7.949-19.943-.118-5.704 7.425-5.789 6.741-10.814-1.396-10.259-7.028-14.033-10.713-22.811-1.985-4.733 3.249-5.934 5.006-7.365.153-.124 1.757-1.926 1.636-2.359-.652-2.297-1.83-4.105-1.88-6.274-.018-.773-2.516-3.732-3.021-4.514-1.716-2.663-2.785-5.813-2.565-8.576.342-4.23 5.342-2.784 5.624-6.48.373-4.885-5.417-10.619-5.52-15.589-.114-5.409 4.731-3.654 6.156-6.628 1.722-3.59-1.657-7.537-2.6-11.538-1.267-5.369-1.18-12.007.993-15.616 1.91-3.177 7.012 2.579 8.97-.651 1.294-2.137.593-6.115 1.833-8.176.767-1.276 1.624-3.823 3.014-4.276 1.978-.643 3.675 1.266 5.315-1.156 3.992-5.892 6.268-13.697 12.652-16.879 3.1-1.547 4.439 8.637 5.838 8.842 1.255.183 2.122-1.337 3.037-1.878 2.677-1.58 7.16-3.125 10.9-.19 1.572 1.23-1.961 5.757-2.132 7.248-.21 1.839 2.742 1.51 3.029 1.452 2.573-.528 3.453-4.344 6.676-2.534 5.85 3.283 2.492 10.607 5.756 14.176 1.735 1.9 5.285-.9 6.702.065 3.517 2.396 7.516 12.013 7.844 15.847.246 2.865-1.203 6.033.261 9.18 1.523 3.274 8.46 4.783 9.144 10.152.653 5.119-4.439 6.08-4.466 10.17-.02 3.027 4.9 7.655 5.748 10.854.96 3.625-3.8 4.14-3.42 7.639.844 7.851 6.375 14.192 6.832 22.395.23 4.154.186 8.605-1.88 11.175-.788.98-5.368 1.21-5.352 2.598.038 3.596 4.014 7.827 5.306 10.507.86 1.786 1.012 4.145 1.204 5.94.4 3.714-4.176 1.676-4.822 3.843-1.022 3.423 2.372 9.55 1.255 13.307-.41 1.378-.834 3.569-2.2 3.885-.495.115-2.864-.486-2.85.698.012 1.067.083 4.564.577 5.707.194.447 1.627 3.402 1.544 3.736-.368 1.49-4.044 3.386-5.483 3.389-1.031.001-2.827-1.474-3.3.088-1.073 3.549.075 8.692 2.09 12.742.688 1.386 3.147 4.695 3.228 6.14.296 5.256-6.604 3.86-7.481 6.766-1.327 4.388 4.955 9.75 4.586 14.077-.323 3.777-4.87 2.437-6.39 4.93-2.146 3.519 2.687 9.002 1.552 12.546-1.52 4.745-8.019 6.883-10.912 9.238z" fill="#021c00"/><path d="M261.713 442.99c-.736.89-17.505-.274-19.161-2.659-.855-1.232-.713-5.819-3.572-23.082-1.534-9.263-6.714-35.759-9.813-44.65-6.174-17.708-15.426-43.54-23.636-59.744-8.391-16.567-67.25-148.158-63.501-150.029.395-.198 60.628 120.063 78.335 152.766 5.986 11.055 12.09 22.466 16.806 34.584 5.67 14.57 19.597 57.732 23.024 72.555.48 2.083 3.557 17.8 1.518 20.258z" fill="#206102"/><path d="M263.342 442.583c-.484 1.04-10.047-.448-10.836-2.928-.409-1.283-.015-6.341-.483-25.088-.25-10.06-5.257-24.754-6.434-34.267-2.344-18.953-2.071-60.587-5.687-77.71-3.697-17.504-28.578-157.218-26.294-159.597.241-.253 26.682 126.876 34.636 161.332 2.69 11.648 5.178 60.387 7.065 73.314 2.267 15.543 9.373 62.063 8.033 64.944z" fill="#206102"/></svg>