<svg width="200" height="200" xmlns="http://www.w3.org/2000/svg"><path d="M108.971 52.536c2.605-1.155 6.07 1.681 8.692 1.92 3.239.296 6.315-1.473 8.822.805 1.008-.744.252-3.97 1.56-4.434a2.238 2.238 0 00-.951-1.14c-.99-.604-6.3-3.45-7.43-3.82l-.025-.483c-.157-2.955.917-5.337 3.05-7.42.425-.414.138-1.078-.49-1.134l-2.882-.257a.86.86 0 00-.606.174c-2.826 2.246-4.31 4.895-4.166 8.293-1.693-.018-7.99 1.422-9.596 1.91-.468.142-1.6 1.348-1.89 1.664.194.114.693 3.338.87 3.462 1.34.512 4.078-.378 5.042.46zm0 0" fill="#23a24d"/><path d="M146.065 62.963c-.08-6.343-5.542-11.77-12.629-12.705-3.678-.485-6.648.79-8.876 2.436-2.507-2.278-5.53-3.75-8.768-4.046-2.623-.24-5.374.297-7.98 1.452-1.711-1.489-3.97-2.661-6.933-2.812-7.154-.364-13.751 3.962-15.29 10.158-.559 2.25-.72 5.455.349 8.774 3.743 11.617 3.873 10.502 4.094 19.542.104 4.287 2.724 17.094 14.754 12.403 1.782 1.724 3.83 2.823 6.162 3.035 2.399.22 4.64-.535 6.702-1.99 10.856 7.102 16.443-5.119 17.542-9.328 2.3-8.81 2.17-7.695 8.51-18.392 1.81-3.056 2.391-6.224 2.363-8.527zm0 0" fill="#ebba16"/><g fill="#c1951b"><path d="M129.593 61.42c-.476-.043-.903-.324-1.069-.751-2.378-6.129-7.426-10.41-12.862-10.905-4.716-.43-10.025 1.913-13.854 6.116-.44.482-1.236.559-1.781.169-.544-.39-.63-1.096-.19-1.578 4.361-4.788 10.524-7.446 16.085-6.938 6.513.594 12.26 5.349 14.999 12.408.227.585-.125 1.224-.788 1.424a1.39 1.39 0 01-.54.055zM98.627 88.799c-.49-.045-.928-.343-1.081-.786-1.745-5.017-2.948-11.222-3.39-17.475a21.064 21.064 0 011.029-8.192c.198-.593.905-.922 1.575-.758.67.176 1.054.8.855 1.394a19.043 19.043 0 00-.929 7.415c.43 6.08 1.595 12.103 3.282 16.955.206.593-.17 1.22-.84 1.403a1.399 1.399 0 01-.5.044zm12.191 13.517c-4.183-.381-7.751-3.16-10.61-8.26-.31-.554-.055-1.228.573-1.503.628-.275 1.387-.047 1.697.507 2.446 4.364 5.34 6.728 8.6 7.025 5.372.49 9.585-4.861 12.173-9.437.313-.554 1.074-.777 1.7-.5.627.277.879.95.566 1.504-4.225 7.468-9.308 11.156-14.699 10.664zm0 0"/><path d="M102.631 63.233c-.696-.063-1.202-.614-1.13-1.23.643-5.527 7.659-10.577 13.901-10.008.696.064 1.202.614 1.13 1.23-.071.618-.694 1.065-1.39 1.002-4.805-.439-10.626 3.751-11.12 8.005-.073.617-.695 1.065-1.39 1.001zm-.649 5.579c-.696-.064-1.203-.614-1.13-1.231l.168-1.45c.072-.617.694-1.065 1.39-1.001.696.063 1.202.614 1.13 1.23l-.168 1.45c-.072.618-.695 1.065-1.39 1.002zm0 0"/></g><path d="M118.177 71.037c-.857-6.64-7.243-11.805-14.785-12.108-.028 0-.052.003-.08.001-.624-2.592-5.313-4.74-11.658-5.553l-5.084-.347c-.177-.002-.352-.01-.531-.01-9.062 0-16.49 2.603-17.274 5.92-7.48.364-13.79 5.5-14.64 12.097-.312 2.411-.089 5.786 1.435 9.163 5.34 11.817 5.34 10.635 6.675 20.088.632 4.484 4.94 17.655 16.975 11.588 2.078 1.636 4.358 2.593 6.829 2.593 2.539 0 4.797-1.006 6.78-2.728 12.246 6.406 16.61-6.936 17.247-11.453 1.335-9.453 1.335-8.271 6.674-20.088 1.526-3.377 1.748-6.752 1.437-9.163zm0 0" fill="#dd352e"/><path d="M80.462 66.663l.016-.004c1.353-.554 2.868-.829 4.384-.829.376 0 .745.024 1.108.058.166.016.33.037.495.058.142.02.283.042.423.068 1.033.172 2.033.46 2.934.896.407.198.846.291 1.28.291.151 0 .297-.03.443-.052.533-.572 1.23-1.061 2.036-1.46.48-1.09-.006-2.347-1.195-2.924a16.342 16.342 0 00-3.53-1.22l3.73-10.887c-.167-1.71-5.297-1.436-5.087 0l-4.112 10.51c-1.777.142-3.528.536-5.153 1.2a2.575 2.575 0 00-1.108.856c1.717.789 2.954 2.01 3.336 3.44zm0 0" fill="#23a24d"/><path d="M86.039 115.65c-.475 0-.957-.034-1.431-.102-6.806-.998-11.917-8.827-11.917-18.214l-.008-.901c-.02-1.72-.067-5.747.008-11.521.008-.652.588-1.146 1.35-1.167.736.008 1.327.542 1.32 1.196a444.158 444.158 0 00-.009 11.468l.008.925c0 8.11 4.241 15.085 9.655 15.879a6.942 6.942 0 002.02.003c.032-.005.108-.016.14-.018 3.71-.551 7.161-4.346 8.689-9.655.18-.632.91-1.014 1.623-.853.714.16 1.147.804.963 1.436-1.817 6.313-6.008 10.687-10.94 11.415-.524.075-1.002.11-1.471.11zm12.013-15.362c-.736 0-1.334-.528-1.334-1.182v-1.18c0-.655.598-1.183 1.334-1.183.737 0 1.335.528 1.335 1.182v1.181c0 .654-.598 1.182-1.335 1.182zM91.02 68.995c-.338 0-.667-.114-.915-.32-1.267-1.057-3.178-1.662-5.243-1.662-1.355 0-2.66.265-3.777.764-.367.165-.8.17-1.173.013-.372-.156-.642-.457-.731-.814-.48-1.925-3.21-3.32-6.49-3.32-.737 0-1.335-.528-1.335-1.182 0-.653.598-1.181 1.335-1.181 3.906 0 7.194 1.537 8.56 3.867 3.12-.926 6.936-.527 9.523.982 1.667-1.576 4.352-2.486 7.475-2.486.737 0 1.335.528 1.335 1.182 0 .653-.598 1.181-1.335 1.181-2.775 0-5.105.915-6.078 2.39-.206.31-.56.52-.96.572-.065.01-.129.014-.192.014zm0 0" fill="#b02721"/><path d="M167.992 145.076c12.058-12.566 15.592-32.447 7.885-48.404-.685-1.417-.962-3.05-.546-4.58.293-1.076.828-2.17 1.808-2.696 0 0-2.922-5.732-9.147 1.638 0 0-11.559 9.69 0 26.202 0 0 5.811 5.782 1.525 21.29l-1.525 6.55z" fill="#659c35"/><path d="M167.992 145.076l1.525-6.55c4.286-15.508-1.525-21.29-1.525-21.29-11.559-16.513 0-26.202 0-26.202.965-1.144 1.842-1.941 2.65-2.524-6.983-8.491-17.188-13.853-28.564-13.853a35.75 35.75 0 00-6.647.634c-1.983-4.741-5.548-3.91-5.548-3.91-3.061 0-3.613 5.03-3.714 7.015-4.192 2.071-7.975 4.93-11.18 8.41a40.865 40.865 0 00-4.677 5.452c.14.022.282.043.42.061-12.258-1.945-14.089 3.442-14.354 4.957-.04.223-.043.45-.017.677.407 3.638 2.738 5.597 4.252 6.5.771.46 1.132 1.418.953 2.348-7.342 37.914 35.414 65.917 63.173 41.894.177-.154.311-.336.426-.529.907-.743 2.966-3.234 2.827-3.09z" fill="#a4e869"/><path d="M111.398 92.419c.056.01.105.02.16.034 1.044.262 11.517 3.274 15.067 19.144 0 0 .735 6.916 7.706 8.474.302.067.61-.014.917-.033 4.482-.297 14.359-3.323 14.266 8.941 0 0-3.423 16.547 13.888 15.863.383-.015.773.081 1.103.293.026.016.042.039.067.055 8.56-25.244-10.3-27.954-10.3-27.954s-21.722-1.024-18.292-24.565-6.097-21.29-6.097-21.29c-3.811 0-3.735 7.81-3.735 7.81-6.265 2.734-11.733 7.313-15.834 13.067.361.056.703.094 1.084.161z" fill="#88c057"/><path d="M164.74 148.695c-27.76 24.023-70.516-3.98-63.173-41.893.18-.93-.18-1.888-.953-2.348-1.513-.902-3.844-2.86-4.251-6.5a2.394 2.394 0 01.017-.676c.27-1.543 2.138-7.122 15.018-4.86.056.01.105.019.16.032 1.044.262 11.517 3.274 15.067 19.144 0 0 .735 6.916 7.706 8.473.302.067.61-.013.917-.032 4.482-.297 14.359-3.323 14.266 8.941 0 0-3.423 16.547 13.888 15.862.383-.014.773.082 1.103.293 1.208.773 1.329 2.616.234 3.564z" fill="#659c35"/><path d="M27.254 76.843a1.63 1.63 0 01-1.43-.85c-.24-.439-6.154-11.417-1.671-19.752a1.625 1.625 0 012.22-.663 1.672 1.672 0 01.654 2.252c-3.613 6.717 1.607 16.455 1.657 16.547.438.8.155 1.81-.635 2.256-.252.143-.525.21-.795.21z" fill="#4e901e"/><path d="M113.54 155.686c-4.363 6.326-11.652 10.538-19.96 10.582-6.61.038-12.017-1.388-12.017-1.388-40.29-15.482-55.584-69.92-55.584-69.92-2.44-15.053 6.825-18.156 6.825-18.156.053-.018.103-.033.155-.049 4.457-1.416 8.528-.276 11.701 1.463 3.316 1.815 6.037 4.562 8.013 7.815 11.105 18.296 40.38 28.917 40.38 28.917 17.565 5.748 23.39 15.182 24.55 23.712a24.11 24.11 0 01-4.063 17.024z" fill="#6d2c93"/><path d="M113.54 155.686a24.242 24.242 0 01-13.96 4.498c-6.61.035-12.017-1.388-12.017-1.388-40.288-15.482-55.582-69.923-55.582-69.923-.888-5.48-.224-9.378.978-12.118 4.457-1.416 8.527-.276 11.701 1.463 3.316 1.815 6.037 4.562 8.012 7.815 11.105 18.296 40.38 28.917 40.38 28.917 17.566 5.748 23.391 15.182 24.55 23.712a24.11 24.11 0 01-4.062 17.024z" fill="#8034ad"/><path d="M57.858 91.082v.004c.042.438-.393.768-.794.6L42.482 85.61s3.76 17.333 3.42 18.373c-.336 1.02-12.576-11.702-12.98-12.122l-.01-.011-1.644 10.949-.502 3.35a1.61 1.61 0 01-2.133 1.291 9.484 9.484 0 01-1.995-1.02c-8.304-5.476-8.348-21.883-2.468-28.96a20.137 20.137 0 015.131-4.423c3.87-2.317 8.92-3.15 13.397-2.074.777.186 1.537.43 2.27.733.406.168.803.354 1.19.557 6.798 3.584 10.808 9.82 11.7 18.829z" fill="#47821c"/><path d="M57.858 91.082v.004c.042.438-.393.768-.794.6L42.482 85.61s3.76 17.333 3.42 18.373c-.336 1.02-12.576-11.702-12.98-12.122l-.01-.011-1.644 10.949c-4.632-7.14-3.835-19.46 1.05-25.34a20.137 20.137 0 015.13-4.422 17.927 17.927 0 015.25-2.074c.777.186 1.536.429 2.27.732.406.168.803.354 1.19.558 6.798 3.584 10.808 9.82 11.7 18.829z" fill="#4e901e"/></svg>