<svg width="200" height="200" xmlns="http://www.w3.org/2000/svg"><path d="M135.98 54.171V41.236H82.646l16.41 135.819h36.924c9.025 0 16.41-7.762 16.41-17.247v-88.39c0-9.486-7.385-17.247-16.41-17.247z" fill="#92ccff"/><path d="M62.133 41.236v12.935c-9.025 0-16.41 7.761-16.41 17.247v88.39c0 9.485 7.385 17.247 16.41 17.247h36.923V41.236H62.133z" fill="#c9e5ff"/><path fill="#c9a06c" d="M135.98 23.989H99.056l-8.205 17.247h45.129z"/><path fill="#dbbc82" d="M62.133 23.989h36.923v17.247H62.133z"/><path fill="#92ccff" d="M140.082 36.924H99.056l-8.205 4.312 8.205 4.311h41.026z"/><path fill="#c9e5ff" d="M58.031 36.924h41.025v8.624H58.031z"/><path d="M86.749 74.436l12.307 93.995h36.924c4.524 0 8.205-3.868 8.205-8.623V83.06l-57.436-8.624z" fill="#ddd532"/><path d="M135.98 62.795h-8.206V45.547H99.056L86.749 65.382 99.056 83.06c11.281.001 11.281 6.898 22.563 6.898 11.283 0 11.283-6.898 22.566-6.898V71.418c0-4.755-3.681-8.623-8.205-8.623z" fill="#fff3ad"/><path d="M53.928 83.06v76.748c0 4.755 3.681 8.623 8.205 8.623h36.923V74.436L53.928 83.06z" fill="#ffe65a"/><path d="M70.338 45.547v17.248h-8.205c-4.524 0-8.205 3.868-8.205 8.623V83.06c11.282 0 11.282 6.898 22.563 6.898 11.282 0 11.282-6.898 22.563-6.898.002 0 .002-37.513.002-37.513H70.338z" fill="#fff"/><path d="M135.968 148.533l-1.925-62.713-24.844.002-1.925 62.71c-.006.165-.012.33-.012.497 0 8.333 6.428 15.091 14.359 15.091s14.359-6.757 14.359-15.091c0-.167-.007-.331-.012-.496z" fill="#365f2c"/><path d="M134.043 85.82l-.125-4.047c-.213-6.947-5.636-12.511-12.297-12.511-6.662 0-12.084 5.564-12.298 12.511l-.124 4.049c3.255 1.921 6.026 4.137 12.42 4.137 6.397-.001 9.168-2.217 12.424-4.139z" fill="#44702a"/><path d="M90.84 148.533L88.914 85.82l-24.843.001-1.926 62.712c-.005.165-.012.329-.012.496 0 8.334 6.429 15.091 14.359 15.091 7.931 0 14.36-6.757 14.36-15.091-.001-.167-.008-.331-.012-.496z" fill="#81982d"/><path d="M76.492 69.262c-6.662 0-12.083 5.564-12.297 12.511l-.124 4.049c3.255 1.92 6.025 4.137 12.421 4.137 6.397 0 9.167-2.217 12.423-4.139l-.125-4.046c-.214-6.948-5.636-12.512-12.298-12.512z" fill="#a0ad2f"/><path d="M111.353 81.773c-.213-6.947-5.635-12.511-12.297-12.511l-4.102 26.583 16.567-8.623-.168-5.449z" fill="#63842c"/><path d="M86.759 81.773l-.167 5.447 12.464.001V69.262c-6.662 0-12.083 5.564-12.297 12.511z" fill="#81982d"/><path d="M113.404 148.533l-1.883-61.31c-3.274-1.926-6.041-4.162-12.465-4.163l-8.205 40.529 8.205 40.531c7.931 0 14.36-6.757 14.36-15.091 0-.167-.007-.331-.012-.496z" fill="#44702a"/><path d="M99.054 83.06c-6.423 0-9.189 2.235-12.463 4.16l-1.882 61.313c-.005.165-.012.329-.012.496 0 8.334 6.429 15.091 14.359 15.091 0 0 0-81.06-.002-81.06z" fill="#63842c"/><path fill="#44702a" d="M90.864 96.793h8.193v8.624h-8.193z"/><path fill="#365f2c" d="M99.068 114.039h8.193v8.624h-8.193z"/><path d="M119.581 131.286h8.194v8.624h-8.194zm15.328-17.247h-7.941v8.624h8.205z" fill="#274e2d"/></svg>