<?xml version="1.0" encoding="iso-8859-1"?>
<!-- Generator: Adobe Illustrator 19.0.0, SVG Export Plug-In . SVG Version: 6.00 Build 0)  -->
<svg version="1.1" id="Capa_1" xmlns="http://www.w3.org/2000/svg" xmlns:xlink="http://www.w3.org/1999/xlink" x="0px" y="0px"
	 viewBox="0 0 512.002 512.002" style="enable-background:new 0 0 512.002 512.002;" xml:space="preserve">
<g>
	<path style="fill:#FF9017;" d="M229.047,62.924c-2.519-1.276-5.54-1.032-7.818,0.636c-25.892,18.949-51.35,0.83-52.465,0.016
		c-2.272-1.675-5.293-1.933-7.816-0.664c-2.53,1.272-4.127,3.864-4.127,6.696v34.013c0,4.139,3.356,7.495,7.495,7.495h61.34
		c4.139,0,7.495-3.356,7.495-7.495V69.608C233.15,66.785,231.564,64.202,229.047,62.924z"/>
	<path style="fill:#FF9017;" d="M351.055,62.913c-2.532-1.273-5.564-1.01-7.837,0.679c-0.261,0.193-26.31,19.095-52.444-0.031
		c-2.279-1.668-5.302-1.913-7.818-0.636c-2.518,1.277-4.104,3.861-4.104,6.684v34.013c0,4.139,3.356,7.495,7.495,7.495h61.34
		c4.14,0,7.495-3.356,7.495-7.495V69.608C355.183,66.775,353.586,64.185,351.055,62.913z"/>
	<path style="fill:#FF9017;" d="M225.655,400.876h-61.34c-4.139,0-7.495,3.356-7.495,7.495v34.013c0,2.833,1.597,5.424,4.127,6.696
		c2.53,1.273,5.563,1.01,7.837-0.679c0.26-0.193,26.308-19.094,52.444,0.031c1.309,0.958,2.863,1.447,4.427,1.447
		c1.157,0,2.32-0.268,3.391-0.811c2.517-1.277,4.104-3.861,4.104-6.685v-34.013C233.15,404.232,229.795,400.876,225.655,400.876z"/>
	<path style="fill:#FF9017;" d="M347.687,400.876h-61.34c-4.139,0-7.495,3.356-7.495,7.495v34.013c0,2.823,1.586,5.407,4.104,6.685
		c2.519,1.277,5.54,1.032,7.818-0.636c25.89-18.949,51.35-0.83,52.464-0.016c1.313,0.968,2.876,1.462,4.449,1.462
		c1.148,0,2.303-0.264,3.367-0.799c2.53-1.272,4.127-3.864,4.127-6.696v-34.013C355.183,404.232,351.828,400.876,347.687,400.876z"
		/>
	<path style="fill:#FF9017;" d="M408.376,233.145h34.013c2.823,0,5.407-1.586,6.684-4.103c1.277-2.518,1.031-5.541-0.636-7.818
		c-18.937-25.876-0.854-51.316-0.019-52.463c1.677-2.272,1.936-5.295,0.666-7.818c-1.272-2.53-3.863-4.127-6.696-4.127h-34.013
		c-4.141,0-7.495,3.356-7.495,7.495v61.34C400.881,229.791,404.236,233.145,408.376,233.145z"/>
	<path style="fill:#FF9017;" d="M448.406,343.213c-0.193-0.26-19.095-26.309,0.032-52.443c1.667-2.279,1.913-5.301,0.636-7.818
		c-1.277-2.517-3.861-4.103-6.684-4.103h-34.013c-4.14,0-7.495,3.356-7.495,7.495v61.339c0,4.139,3.355,7.495,7.495,7.495h34.013
		c2.833,0,5.424-1.597,6.696-4.127C450.359,348.519,450.096,345.487,448.406,343.213z"/>
	<path style="fill:#FF9017;" d="M103.627,156.815H69.613c-2.822,0-5.396,1.597-6.674,4.113c-1.278,2.516-1.025,5.549,0.639,7.828
		c0.783,1.072,18.954,26.551-0.014,52.467c-1.667,2.279-1.914,5.301-0.636,7.818c1.277,2.517,3.861,4.103,6.684,4.103h34.013
		c4.139,0,7.495-3.356,7.495-7.495v-61.34C111.122,160.171,107.766,156.815,103.627,156.815z"/>
	<path style="fill:#FF9017;" d="M103.627,278.848H69.613c-2.823,0-5.407,1.586-6.684,4.104c-1.277,2.517-1.031,5.54,0.636,7.818
		c18.949,25.891,0.831,51.346,0.016,52.464c-1.675,2.272-1.933,5.293-0.664,7.816c1.272,2.53,3.864,4.127,6.696,4.127h34.013
		c4.139,0,7.495-3.356,7.495-7.495v-61.34C111.122,282.203,107.766,278.848,103.627,278.848z"/>
	<rect x="286.346" y="164.31" style="fill:#FF9017;" width="61.343" height="61.343"/>
	<rect x="164.311" y="164.31" style="fill:#FF9017;" width="61.343" height="61.343"/>
	<rect x="164.311" y="286.345" style="fill:#FF9017;" width="61.343" height="61.343"/>
	<rect x="286.346" y="286.345" style="fill:#FF9017;" width="61.343" height="61.343"/>
</g>
<path style="fill:#FFD039;" d="M474.16,293.841c20.866,0,37.841-16.976,37.841-37.842s-16.975-37.842-37.841-37.842h-58.284v-46.35
	h26.518c20.865,0,37.841-16.976,37.841-37.842s-16.976-37.842-37.841-37.842h-26.518V69.608c0-20.866-16.976-37.842-37.842-37.842
	s-37.841,16.976-37.841,37.842v26.518h-46.349V37.842C293.843,16.976,276.868,0,256.002,0S218.16,16.976,218.16,37.842v58.284
	h-46.35V69.608c0-20.866-16.976-37.842-37.842-37.842S96.126,48.742,96.126,69.608v26.518H69.609
	c-20.866,0-37.842,16.976-37.842,37.842s16.976,37.842,37.842,37.842h26.518v46.35H37.843
	c-20.866-0.001-37.842,16.975-37.842,37.841s16.976,37.842,37.842,37.842h58.284v46.35H69.609
	c-20.866,0-37.842,16.976-37.842,37.842s16.976,37.842,37.842,37.842h26.518v26.518c0,20.866,16.976,37.842,37.842,37.842
	s37.842-16.976,37.842-37.842v-26.518h46.35v58.284c0,20.866,16.976,37.842,37.842,37.842s37.842-16.976,37.842-37.842v-58.284
	h46.349v26.518c0,20.866,16.975,37.842,37.841,37.842c20.866,0,37.842-16.976,37.842-37.842v-26.518h26.518
	c20.865,0,37.841-16.976,37.841-37.842s-16.976-37.842-37.841-37.842h-26.518v-46.35h58.284V293.841z M286.348,164.315h61.34v61.34
	h-61.34V164.315z M286.348,286.346h61.34v61.34h-61.34V286.346z M164.316,225.654v-61.339h61.339v61.339H164.316z M225.655,286.346
	v61.34h-61.339v-61.34H225.655z"/>
<g>
	<path style="fill:#FFAE47;" d="M266.596,37.842v58.284h27.247V37.842C293.843,16.976,276.868,0,256.002,0
		c-4.802,0-9.393,0.908-13.624,2.547C256.529,8.029,266.596,21.778,266.596,37.842z"/>
	<rect x="259.103" y="286.345" style="fill:#FFAE47;" width="27.243" height="61.343"/>
	<rect x="259.103" y="164.31" style="fill:#FFAE47;" width="27.243" height="61.343"/>
	<path style="fill:#FFAE47;" d="M388.627,69.608v26.518h26.518c20.865,0,37.841,16.976,37.841,37.842s-16.976,37.842-37.841,37.842
		h-26.518v46.35h27.247v-46.35h26.518c20.865,0,37.841-16.976,37.841-37.842s-16.976-37.842-37.841-37.842h-26.518V69.608
		c0-20.866-16.976-37.842-37.842-37.842c-4.802,0-9.393,0.908-13.624,2.547C378.562,39.796,388.627,53.544,388.627,69.608z"/>
	<rect x="137.067" y="164.31" style="fill:#FFAE47;" width="27.243" height="61.343"/>
	<path style="fill:#FFAE47;" d="M144.563,442.393c0,16.064-10.066,29.813-24.218,35.294c4.23,1.639,8.822,2.547,13.624,2.547
		c20.866,0,37.842-16.976,37.842-37.842v-26.518h-27.247V442.393z"/>
	<path style="fill:#FFAE47;" d="M442.394,340.191h-26.518v-46.35h-27.247v46.35h26.518c20.865,0,37.841,16.976,37.841,37.842
		s-16.976,37.842-37.841,37.842h-26.518v26.518c0,16.064-10.066,29.813-24.218,35.294c4.23,1.639,8.822,2.547,13.624,2.547
		c20.866,0,37.842-16.976,37.842-37.842v-26.518h26.518c20.865,0,37.841-16.976,37.841-37.842S463.259,340.191,442.394,340.191z"/>
	<path style="fill:#FFAE47;" d="M474.16,218.159h-27.247c20.866,0,37.841,16.976,37.841,37.842s-16.975,37.842-37.841,37.842h27.247
		c20.866,0,37.841-16.976,37.841-37.842S495.026,218.159,474.16,218.159z"/>
	<path style="fill:#FFAE47;" d="M144.563,69.608v26.518h27.247V69.608c0-20.866-16.976-37.842-37.842-37.842
		c-4.802,0-9.393,0.908-13.624,2.547C134.498,39.796,144.563,53.544,144.563,69.608z"/>
	<rect x="137.067" y="286.345" style="fill:#FFAE47;" width="27.243" height="61.343"/>
	<path style="fill:#FFAE47;" d="M266.596,474.159c0,16.064-10.066,29.813-24.218,35.294c4.23,1.639,8.822,2.547,13.624,2.547
		c20.866,0,37.842-16.976,37.842-37.842v-58.284h-27.247L266.596,474.159L266.596,474.159z"/>
</g>
<g>
</g>
<g>
</g>
<g>
</g>
<g>
</g>
<g>
</g>
<g>
</g>
<g>
</g>
<g>
</g>
<g>
</g>
<g>
</g>
<g>
</g>
<g>
</g>
<g>
</g>
<g>
</g>
<g>
</g>
</svg>
