<svg id="Capa_1" enable-background="new 0 0 492.203 492.203" height="512" viewBox="0 0 492.203 492.203" width="512" xmlns="http://www.w3.org/2000/svg"><g><path d="m448.188 103.607 9.899-33.049c1.162-3.88.101-8.085-2.763-10.949l-23.104-23.104c-2.864-2.864-7.069-3.925-10.949-2.763l-33.049 9.899-39.524 11.684-47.567 118.855 26.993 20.9 113.017-57.836z" fill="#c9e7b4"/><path d="m399.779 182.91 88.529-50.133c4.415-2.5 5.233-8.52 1.645-12.108l-18.597-18.597c-1.97-1.97-4.852-2.718-7.531-1.955l-100.822 28.708-101.833 38.625 70.899 63.372z" fill="#b8de9c"/><path d="m363.753 129.573 28.708-100.822c.763-2.679.015-5.561-1.955-7.531l-18.597-18.596c-3.588-3.588-9.608-2.77-12.108 1.645l-50.133 88.529-64.148 98.742 86.55 36.262z" fill="#b8de9c"/><g><path d="m72.366 483.321 10.633-7.893c1.324-.983 2.819-1.713 4.408-2.154l13.977-3.874c13.417-3.719 25.399-11.399 34.381-22.037l18.071-21.402c1.417-1.678 3.252-2.952 5.319-3.693l11.233-4.027c11.665-4.182 21.993-11.42 29.904-20.958l17.201-20.738c2.521-3.039 5.835-5.321 9.574-6.59l14.155-4.807c14.109-4.791 26.295-14.01 34.744-26.284l17.516-25.447c1.077-1.565 2.722-2.649 4.584-3.021 17.624-3.525 33.185-13.77 43.388-28.567l16.829-24.407 10.281-6.368c36.327-22.501 42.18-72.992 11.965-103.208l-36.546-36.546c-30.215-30.215-80.706-24.362-103.208 11.965l-2.509 4.051c-2.545 4.109-5.913 7.646-9.892 10.39l-18.374 12.669c-14.797 10.203-25.042 25.764-28.567 43.388-.373 1.863-1.456 3.507-3.021 4.584l-25.447 17.516c-12.274 8.448-21.493 20.634-26.284 34.744l-4.827 14.216c-1.256 3.699-3.513 6.978-6.52 9.472l-20.788 17.242c-9.538 7.911-16.776 18.239-20.958 29.904l-3.107 8.668c-1.343 3.747-3.653 7.073-6.694 9.641l-19.321 16.314c-10.638 8.982-18.318 20.964-22.037 34.381l-3.874 13.977c-.441 1.589-1.171 3.084-2.154 4.408l-7.893 10.633c-12.758 17.186-10.997 41.124 4.137 56.259l3.462 3.462c15.135 15.134 39.073 16.895 56.259 4.137z" fill="#a6d786"/><path d="m55.956 439.854 7.893-10.633c.983-1.324 1.713-2.819 2.154-4.408l3.874-13.977c3.719-13.417 11.399-25.399 22.037-34.381l19.321-16.314c3.042-2.568 5.351-5.894 6.694-9.641l3.107-8.668c4.182-11.665 11.42-21.993 20.958-29.904l20.788-17.242c3.007-2.494 5.264-5.773 6.52-9.472l4.827-14.216c4.791-14.11 14.01-26.295 26.284-34.744l25.448-17.516c1.565-1.077 2.648-2.722 3.021-4.584 3.525-17.624 13.77-33.185 28.567-43.388l18.374-12.669c3.979-2.744 7.347-6.281 9.892-10.39l2.509-4.051c12.812-20.685 34.7-31.473 56.752-31.364l-.992-.992c-30.215-30.216-80.707-24.362-103.208 11.965l-2.509 4.051c-2.545 4.109-5.913 7.646-9.892 10.39l-18.375 12.669c-14.797 10.203-25.042 25.764-28.567 43.388-.373 1.863-1.456 3.507-3.021 4.584l-25.448 17.516c-12.274 8.448-21.493 20.634-26.284 34.743l-4.827 14.216c-1.256 3.699-3.513 6.978-6.52 9.472l-20.788 17.242c-9.538 7.911-16.776 18.239-20.958 29.904l-3.107 8.668c-1.343 3.747-3.653 7.073-6.694 9.641l-19.321 16.313c-10.638 8.982-18.318 20.964-22.037 34.381l-3.874 13.977c-.441 1.589-1.171 3.084-2.154 4.408l-7.893 10.633c-12.758 17.186-10.997 41.124 4.137 56.259l3.462 3.462c10.631 10.631 25.62 14.66 39.547 11.697-10.88-15.03-11.066-35.71.303-51.025z" fill="#94cf6f"/><g fill="#81c758"><ellipse cx="332.07" cy="212.072" rx="13.185" ry="20.729" transform="matrix(.707 -.707 .707 .707 -52.696 296.923)"/><ellipse cx="237.418" cy="204.828" rx="13.185" ry="20.729" transform="matrix(.707 -.707 .707 .707 -75.297 227.873)"/><ellipse cx="160.92" cy="297.371" rx="13.185" ry="20.729" transform="matrix(.707 -.707 .707 .707 -163.141 200.886)"/><ellipse cx="143.349" cy="377.795" rx="13.185" ry="20.729" transform="matrix(.707 -.707 .707 .707 -225.155 212.016)"/><ellipse cx="69.631" cy="402.815" rx="13.185" ry="20.729" transform="matrix(.707 -.707 .707 .707 -264.438 167.219)"/></g><g><path d="m336.215 164.611c-1.919 0-3.839-.732-5.303-2.196l-5.996-5.996c-2.93-2.929-2.93-7.678-.001-10.607 2.93-2.929 7.679-2.929 10.606 0l5.996 5.996c2.93 2.929 2.93 7.678.001 10.607-1.465 1.464-3.384 2.196-5.303 2.196z" fill="#81c758"/></g><g><path d="m278.277 151.996c-1.919 0-3.839-.732-5.303-2.196l-4.921-4.92c-2.93-2.929-2.93-7.678-.001-10.607 2.93-2.929 7.679-2.929 10.606 0l4.921 4.92c2.93 2.929 2.93 7.678.001 10.607-1.464 1.463-3.384 2.196-5.303 2.196z" fill="#81c758"/></g><g><path d="m301.131 269.319c-1.919 0-3.839-.732-5.304-2.197l-6.246-6.246c-2.929-2.929-2.929-7.678 0-10.606 2.93-2.929 7.678-2.929 10.607 0l6.246 6.246c2.929 2.929 2.929 7.678 0 10.606-1.465 1.465-3.384 2.197-5.303 2.197z" fill="#81c758"/></g><g><path d="m228.561 306.276c-1.92 0-3.838-.732-5.303-2.196l-6.256-6.255c-2.93-2.929-2.93-7.677-.001-10.606 2.929-2.93 7.678-2.929 10.606-.001l6.256 6.255c2.93 2.929 2.93 7.677.001 10.606-1.463 1.465-3.384 2.197-5.303 2.197z" fill="#81c758"/></g><g><path d="m202.355 252.521c-1.919 0-3.839-.732-5.303-2.196l-5.04-5.04c-2.93-2.929-2.93-7.678-.001-10.607 2.93-2.929 7.679-2.929 10.606 0l5.04 5.04c2.93 2.929 2.93 7.678.001 10.607-1.464 1.463-3.384 2.196-5.303 2.196z" fill="#81c758"/></g><g><path d="m120.378 334.498c-1.92 0-3.839-.732-5.304-2.197l-5.039-5.04c-2.929-2.929-2.929-7.678.001-10.607 2.929-2.929 7.678-2.927 10.606 0l5.039 5.04c2.929 2.929 2.929 7.678-.001 10.607-1.463 1.464-3.383 2.197-5.302 2.197z" fill="#81c758"/></g><g><path d="m47.89 461.37c-1.919 0-3.838-.732-5.303-2.196l-3.814-3.813c-2.929-2.929-2.93-7.678-.001-10.607 2.927-2.929 7.676-2.93 10.606-.001l3.814 3.813c2.929 2.929 2.93 7.678.001 10.607-1.463 1.465-3.383 2.197-5.303 2.197z" fill="#81c758"/></g><g><path d="m201.22 354.574c-1.919 0-3.839-.732-5.304-2.197l-4.276-4.276c-2.929-2.929-2.929-7.678 0-10.606 2.93-2.929 7.678-2.929 10.607 0l4.276 4.276c2.929 2.929 2.929 7.678 0 10.606-1.464 1.465-3.384 2.197-5.303 2.197z" fill="#81c758"/></g></g></g></svg>