<svg viewBox="0 0 500 500" xmlns="http://www.w3.org/2000/svg" xmlns:bx="https://boxy-svg.com"><path d="M239.738 380.936c-13.36-5.329-36.35-7.562-44.157-22.41-4.446-8.458 10.086-23.825 17.591-15.407 1.252 1.404-3.013-2.484-3.755-4.212-2.015-4.688-4.977-7.586-6.261-12.325-3.086-11.39 9.23-29.088 19.518-34.508 13.08-6.89 29.315 5.538 36.601 17.603 2.277 3.77 4.502 12.212 3.74 16.603-.52 2.988-3.004 11.09-.74 9.072 3.589-3.2 7.62-8.637 12.56-9.395 9.303-1.427 22.472 5.783 15.662 15.789-5.851 8.594-26.326 32.735-37.32 35.605-3.727.973-11.057 1.461-13.439 3.585z" bx:origin="1.154 0.396" fill="#002c08"/><path d="M160.747 258.186c-12.869 6.426-29.835 22.1-46.113 18.044-9.27-2.31-11.07-23.383.208-23.383 1.881 0-3.859.596-5.643 0-4.84-1.616-8.975-1.334-13.366-3.529-10.555-5.277-15.569-26.248-12.767-37.534 3.563-14.348 23.643-18.195 37.497-15.604 4.33.81 12.111 4.767 14.88 8.26 1.884 2.376 6.28 9.621 6.28 6.588 0-4.808 4.357-13.41 9.236-14.49 6.66-1.474 14.89 3.537 17.825 15.28 2.521 10.086 3.405 23.836-1.769 33.952-1.754 3.43-6.268 9.225-6.268 12.416zm8.71-83.384c-14.23 2.097-35.235 11.705-49.44 2.78-8.09-5.084-3.234-25.668 7.483-22.155 1.787.586-3.853-.636-5.363-1.758-4.095-3.043-8.112-4.064-11.601-7.517-8.386-8.303-6.617-29.792-.438-39.644 7.855-12.524 28.134-9.924 40.492-3.145 3.861 2.118 10.023 8.302 11.566 12.483 1.05 2.846 2.97 11.1 3.914 8.217 1.498-4.568 6.62-10.637 11.39-12.13 5.567-1.743 15.393 9.176 14.525 21.249-.747 10.37-4.636 23.773-12.704 31.774-2.735 2.712-8.83 6.813-9.824 9.846zm82.309-19.175c-11.458-8.696-33.022-16.973-36.59-33.365-2.031-9.336 16.07-20.276 21.06-10.163.833 1.687-2.242-3.196-2.497-5.06-.693-5.055-2.776-8.639-2.75-13.548.06-11.8 16.646-25.578 28.007-28.06 14.443-3.155 26.78 13.149 30.588 26.719 1.19 4.24 1.085 12.97-.82 17-1.298 2.74-5.85 9.888-3.13 8.546 4.311-2.128 9.646-6.294 14.61-5.708 9.346 1.103 20.118 11.56 10.888 19.39-7.93 6.725-34.097 24.538-45.458 24.375-3.851-.055-11.046-1.538-13.908-.126zm89.754-5.347c-6.427-12.87-22.102-29.835-18.047-46.113 2.31-9.272 23.382-11.072 23.383.206 0 1.881-.597-3.859 0-5.643 1.615-4.84 1.333-8.975 3.528-13.366 5.276-10.555 26.247-15.57 37.533-12.77 14.348 3.563 18.196 23.643 15.606 37.497-.81 4.329-4.766 12.111-8.258 14.881-2.377 1.884-9.622 6.28-6.589 6.28 4.808 0 11.436-1.376 15.627 1.346 7.894 5.125 12.926 19.27 1.184 22.207-10.087 2.521-41.435 6.915-51.551 1.742-3.43-1.754-9.226-6.268-12.417-6.267z" fill="#00450d"/><path d="M347.706 259.42c4.2-6.459 12.07-20.845 21.23-33.627 4.58-6.392 9.506-12.409 14.448-16.815 2.475-2.206 4.99-4.034 7.454-5.296 1.235-.632 2.49-1.136 3.712-1.473a14.956 14.956 0 011.844-.388c.608-.087 1.76-.128 1.76-.128.017-.002.1.992.108.993-.004 0-.594.012-.877.033-.285.02-.562.051-.849.092-.574.082-1.137.201-1.72.362-1.168.322-2.328.788-3.523 1.4-2.395 1.225-4.806 2.98-7.244 5.152-4.883 4.353-9.739 10.284-14.3 16.65-9.125 12.733-16.984 27.1-21.205 33.59-38.303 58.904-89.018 113.725-88.952 187.186h-.833c.041 1.42.064 2.835.064 4.25h-1c.008-23.624-6.268-48.14-2.883-71.91 5.687-39.943 22.204-81.026 36.771-118.518 9.481-24.4 18.617-48.754 30.034-71.728 5.71-11.486 11.998-22.645 19.18-33.283a223.236 223.236 0 0111.496-15.565 202.32 202.32 0 0112.228-13.79l.868-.887s.716.698.717.697c0 0-.58.591-.868.887a203.042 203.042 0 00-2.555 2.677 203.012 203.012 0 00-9.612 11.046 222.046 222.046 0 00-11.446 15.494c-7.159 10.605-13.415 21.706-19.112 33.17-11.395 22.927-20.515 47.238-29.998 71.644-14.569 37.498-31.043 78.472-36.713 118.296-3.002 21.082 1.67 42.852 2.7 64.2 1.555-72.14 51.394-126.464 89.076-184.41zM248.26 442.91c.001-81.388-8.676-162.96-5.208-245.109.81-19.188 7.71-38.235 14.383-56.999 3.336-9.382 6.615-18.692 9.061-27.943 1.224-4.624 2.235-9.218 2.944-13.806a97.77 97.77 0 00.82-6.857 83.644 83.644 0 00.29-6.837c0 .002 1 .02 1 .021 0 0-.007 1.14-.02 1.715a82.88 82.88 0 01-.273 5.183 98.987 98.987 0 01-.829 6.928c-.713 4.62-1.736 9.264-2.965 13.91-2.457 9.288-5.75 18.638-9.086 28.021-6.673 18.767-13.522 37.668-14.326 56.706-3.465 82.075 5.208 163.627 5.21 245.067zm-84.43-280.306c-.069 4.948 13.497 19.315 16.323 24.953 12.473 24.895 29.337 47.712 39.89 73.64 8.254 20.283 8.793 43.237 12.357 64.528 3.164 18.895 6.347 37.625 8.738 56.426 1.196 9.401 2.195 18.828 2.894 28.3.35 4.734.625 9.487.812 14.251a378.209 378.209 0 01.243 8.718c.034.55.072 1.201.072 1.201l-.055.004a229.684 229.684 0 01.023 2.628c.004.6.005 1.798.005 1.798l-1 .005s0-1.199-.005-1.797a356.77 356.77 0 00-.04-3.812 138.02 138.02 0 00-.147-2.037 123.117 123.117 0 00-1.118-9.411 120.42 120.42 0 00-2.46-11.736c-1.98-7.568-4.603-14.646-7.674-21.589-6.142-13.885-14.055-27.144-22.104-42.32-11.025-20.786-17.115-44.303-29.078-64.39-10.41-17.48-29.124-30.128-43.135-44.132l.707-.707c13.937 13.944 32.768 26.663 43.287 44.327 12.035 20.207 18.132 43.75 29.102 64.433 8.038 15.154 15.97 28.444 22.136 42.385 3.083 6.97 5.733 14.124 7.727 21.74a121.809 121.809 0 012.352 11.042 418.153 418.153 0 00-.647-10.528c-.698-9.455-1.694-18.856-2.889-28.246-2.389-18.782-5.568-37.49-8.732-56.388-3.576-21.36-4.11-44.198-12.298-64.317-10.506-25.813-27.345-48.597-39.857-73.568-2.762-5.51-16.362-20.11-16.43-25.4z" fill="none" stroke-width="8" stroke="#00450d"/><path d="M355.307 241.856c-6.427-12.869-22.102-29.835-18.047-46.113 2.31-9.271 23.383-11.072 23.383.206 0 1.881-.596-3.859 0-5.643 1.616-4.84 1.333-8.975 3.528-13.366 5.276-10.555 26.247-15.57 37.533-12.77 14.349 3.563 18.197 23.643 15.607 37.497-.81 4.329-4.767 12.111-8.258 14.881-2.377 1.885-9.622 6.28-6.59 6.28 4.809 0 11.437-1.376 15.628 1.346 7.893 5.125 12.925 19.27 1.183 22.207-10.087 2.521-41.434 6.915-51.55 1.742-3.43-1.754-9.226-6.268-12.417-6.267z" bx:origin="1.154 0.396" fill="#00450d"/><path d="M310.594 205.5c-6.427-12.869-22.102-29.835-18.047-46.113 2.31-9.271 23.383-11.072 23.383.206 0 1.881-.596-3.859 0-5.643 1.616-4.84 1.333-8.975 3.528-13.366 5.277-10.555 26.247-15.57 37.533-12.77 14.349 3.563 18.197 23.643 15.607 37.497-.81 4.329-4.767 12.111-8.258 14.881-2.377 1.885-9.622 6.28-6.59 6.28 4.809 0 11.437-1.376 15.628 1.346 7.893 5.125 12.925 19.27 1.183 22.207-10.087 2.521-41.434 6.915-51.55 1.742-3.43-1.754-9.226-6.268-12.417-6.267zm13.843 90.84c-6.427-12.868-22.102-29.834-18.047-46.112 2.31-9.271 23.383-11.072 23.383.206 0 1.881-.596-3.859 0-5.643 1.616-4.84 1.333-8.975 3.528-13.366 5.276-10.555 26.247-15.57 37.533-12.77 14.349 3.563 18.197 23.643 15.607 37.497-.81 4.329-4.767 12.111-8.258 14.881-2.377 1.885-9.622 6.28-6.59 6.28 4.809 0 11.437-1.376 15.628 1.346 7.893 5.125 12.925 19.27 1.183 22.207-10.087 2.521-41.434 6.915-51.55 1.742-3.43-1.754-9.226-6.268-12.417-6.267z" bx:origin="1.154 0.396" fill="#017115"/><path d="M290.985 277.208c-13.36-5.329-36.351-7.562-44.157-22.41-4.446-8.458 10.085-23.825 17.591-15.407 1.252 1.404-3.013-2.484-3.755-4.212-2.015-4.688-4.978-7.587-6.262-12.325-3.085-11.39 9.23-29.089 19.519-34.508 13.08-6.89 29.315 5.538 36.601 17.603 2.276 3.77 4.502 12.212 3.74 16.603-.521 2.988-3.004 11.09-.74 9.072 3.589-3.2 16.267-7.275 20.297-4.32 6.732 4.938 7.065 11.658.255 21.664-5.851 8.594-18.657 21.785-29.65 24.655-3.727.973-11.057 1.461-13.439 3.585z" bx:origin="1.154 0.396" fill="#002c08"/><path d="M240.446 214.684c-13.465-5.057-36.497-6.824-44.601-21.512-4.616-8.365 9.6-24.023 17.275-15.76 1.28 1.38-3.062-2.421-3.84-4.134-2.109-4.646-5.13-7.484-6.509-12.196-3.316-11.325 8.64-29.27 18.816-34.896 12.938-7.153 29.421 4.943 36.95 16.858 2.352 3.724 4.748 12.119 4.074 16.525-.46 2.998-2.778 11.148-.555 9.084 3.523-3.271 7.444-8.79 12.367-9.647 9.272-1.614 22.584 5.327 15.978 15.469-5.676 8.711-25.658 33.261-36.591 36.353-3.707 1.049-11.025 1.685-13.364 3.856z" bx:origin="1.154 0.396" fill="#017115"/><path d="M195.249 307.608c-13.978 3.394-34.013 14.89-48.977 7.305-8.522-4.32-5.576-25.263 5.418-22.748 1.833.42-3.895-.28-5.501-1.258-4.358-2.655-8.452-3.302-12.243-6.421-9.112-7.498-9.323-29.06-4.074-39.436 6.673-13.192 27.105-12.464 40.032-6.849 4.04 1.755 10.743 7.348 12.665 11.37 1.306 2.737 3.975 10.78 4.651 7.823 1.072-4.687 1.21-11.454 4.798-14.933 6.757-6.55 21.668-8.3 21.912 3.8.207 10.396-2.502 41.934-9.802 50.641-2.475 2.952-8.167 7.595-8.88 10.706zm2.031-76.116c-8.683-11.468-27.21-25.262-26.217-42.009.565-9.537 20.948-15.181 23.022-4.096.346 1.85-1.296-3.683-1.038-5.547.698-5.054-.34-9.067 1.01-13.787 3.246-11.345 22.938-20.13 34.546-19.452 14.759.863 22.233 19.893 22.235 33.988 0 4.404-2.459 12.78-5.382 16.146-1.99 2.289-8.303 7.941-5.321 7.383 4.726-.884 10.988-3.454 15.608-1.55 8.7 3.587 16.248 16.566 5.246 21.611-9.451 4.333-39.457 14.416-50.352 11.19-3.693-1.093-10.22-4.464-13.357-3.877z" bx:origin="1.154 0.396" fill="#002c08"/><path d="M224.952 300.547c-13.466-5.057-36.497-6.824-44.602-21.512-4.616-8.365 9.601-24.023 17.276-15.759 1.28 1.378-3.063-2.422-3.84-4.135-2.11-4.646-5.13-7.484-6.51-12.196-3.315-11.325 8.64-29.27 18.816-34.896 12.939-7.153 29.422 4.943 36.95 16.858 2.353 3.724 4.749 12.119 4.075 16.525-.46 2.998-2.778 11.148-.556 9.084 3.523-3.271 10.688-8.612 15.192-6.447 9.466 4.55 8.153 17.784 1.547 27.926-5.676 8.711-14.051 17.604-24.985 20.697-3.706 1.048-11.025 1.684-13.363 3.855zm1.49 80.962c-13.978 3.394-34.013 14.89-48.977 7.305-8.522-4.32-5.576-25.263 5.418-22.748 1.833.42-3.895-.28-5.501-1.258-4.358-2.655-8.452-3.302-12.243-6.421-9.112-7.498-9.323-29.06-4.074-39.436 6.673-13.192 27.105-12.464 40.032-6.849 4.04 1.755 10.743 7.348 12.665 11.37 1.306 2.737 3.975 10.78 4.651 7.823 1.072-4.687 1.21-11.454 4.798-14.933 6.757-6.55 21.668-8.3 21.912 3.8.207 10.396-2.502 41.934-9.802 50.641-2.475 2.952-8.167 7.595-8.88 10.706z" bx:origin="1.154 0.396" fill="#017115"/><path d="M293.462 341.658c-7.863-12.045-25.384-27.098-23.226-43.734 1.229-9.475 21.955-13.685 23.252-2.482.216 1.869-1.036-3.764-.649-5.605 1.049-4.994.293-9.069 1.97-13.683 4.028-11.092 24.283-18.484 35.817-16.998 14.662 1.89 20.793 21.395 19.81 35.455-.306 4.393-3.342 12.579-6.493 15.732-2.144 2.144-8.836 7.343-5.823 6.995 4.776-.553 14.977 1.106 16.736 5.784 4.558 12.127-6.586 17.106-17.913 21.373-9.731 3.664-19.783 5.939-30.427 1.962-3.608-1.348-9.884-5.166-13.054-4.8z" bx:origin="1.154 0.396" fill="#002c08"/></svg>