<svg height="496pt" viewBox="-88 0 496 496" width="496pt" xmlns="http://www.w3.org/2000/svg"><path d="m96 140.078125v-20.078125h-48v20.078125c-28 9.921875-48 36.5625-48 67.921875v272c0 8.800781 7.121094 16 16 16h112c8.800781 0 16-7.199219 16-16v-272c0-31.359375-20.078125-58-48-67.921875zm0 0" fill="#656d78"/><path d="m256 495.992188c-4.425781 0-8-3.578126-8-8v-95.929688c0-4.421875 3.574219-8 8-8s8 3.578125 8 8v95.929688c0 4.421874-3.574219 8-8 8zm0 0" fill="#ccd1d9"/><path d="m48 0h48v39.921875h-48zm0 0" fill="#ed5565"/><path d="m48 39.921875h48v80.078125h-48zm0 0" fill="#da4453"/><path d="m303.921875 224.078125 16 103.921875h-127.921875l16-103.921875zm0 0" fill="#e6e9ed"/><path d="m303.921875 224.078125h-16.019531l16 103.921875h16.019531zm0 0" fill="#ccd1d9"/><path d="m319.921875 328h.078125c0 35.359375-28.640625 64-64 64s-63.921875-28.558594-64-63.921875v-.078125zm0 0" fill="#ed5565"/><path d="m319.921875 328h-15.9375c0 32.640625-24.433594 59.503906-55.992187 63.449219 2.625.328125 5.289062.550781 8.007812.550781 35.359375 0 64-28.640625 64-64zm0 0" fill="#da4453"/><path d="m24 415.984375v-151.96875h96v151.96875zm0 0" fill="#ed5565"/><path d="m96 140.078125v-20.078125h-24.023438v28.089844c27.917969 9.917968 48 36.558594 48 67.917968v31.992188h.023438v184h-.023438v48c0 8.800781-7.199218 16-16 16h24.023438c8.800781 0 16-7.199219 16-16v-272c0-31.359375-20.078125-58-48-67.921875zm0 0" fill="#434a54"/><path d="m71.976562 39.921875h24.023438v80.078125h-24.023438zm0 0" fill="#d3374e"/><g fill="#da4453"><path d="m71.976562 0h24.023438v39.921875h-24.023438zm0 0"/><path d="m72 307.921875c0 6.636719-5.359375 12-12 12s-12-5.363281-12-12c0-6.5625 5.359375-12 12-12s12 5.4375 12 12zm0 0"/><path d="m72 316.671875c6.640625 0 12 5.441406 12 12 0 6.640625-5.359375 12-12 12s-12-5.359375-12-12c0-6.558594 5.359375-12 12-12zm0 0"/><path d="m72 307.921875c0-6.5625 5.359375-12 12-12s12 5.4375 12 12c0 6.636719-5.359375 12-12 12s-12-5.363281-12-12zm0 0"/><path d="m95.984375 367.960938h-48.015625c-4.425781 0-8-3.578126-8-8 0-4.425782 3.574219-8 8-8h48.015625c4.421875 0 8 3.574218 8 8 0 4.421874-3.578125 8-8 8zm0 0"/><path d="m79.96875 391.96875h-15.984375c-4.425781 0-8-3.578125-8-8 0-4.425781 3.574219-8 8-8h15.984375c4.421875 0 8 3.574219 8 8 0 4.421875-3.578125 8-8 8zm0 0"/></g><path d="m303.945312 495.992188h-95.96875c-4.425781 0-8-3.578126-8-8 0-4.425782 3.574219-8 8-8h95.96875c4.421876 0 8 3.574218 8 8 0 4.421874-3.578124 8-8 8zm0 0" fill="#e6e9ed"/></svg>