<svg height="200" width="200" xmlns="http://www.w3.org/2000/svg"><path d="M120.762 41.285a17.945 17.752 0 0014.932 9.728c11.29 1.081 14.567 11.529 14.02 19.454 0 0-32.595 4.863-28.952-29.182zm55.643 9.497a12.114 11.983 0 01-12.019 1.075c-7.065-2.919-12.389 2.263-14.615 7.15 0 0 17.823 13.177 26.634-8.225z" fill="#a9d13c"/><path d="M140.77 97.03a9.526 9.423 0 01-6.539-2.178 3.015 2.982 0 114.13-4.346c.749.698 3.995 1.003 6.835-.609 2.078-1.178 4.315-3.632 3.166-8.628-2.827-12.288-3.939-37.042 12.09-42.775a3.011 2.979 0 112.049 5.602c-11.116 3.976-10.97 24.1-8.268 35.85 1.512 6.574-.689 12.086-6.04 15.12a15.13 14.967 0 01-7.423 1.963z" fill="#94be24"/><path d="M137.93 104.333c-2.752 2.196-5.66 6.077-7.897 12.851-5.093 15.473-12.664 33.533-39.06 39.507-2.237.51-4.594.936-7.123 1.26a99.357 99.357 0 01-6.763.613c-12.836.714-24.502-3.83-34.258-11.252a62.247 62.247 0 01-4.63-3.864 83.97 83.065 0 01-19.305-26.723 9.187 9.088 0 014.026-11.626 132.283 130.858 0 0029.75-22.775A48.621 48.098 0 0167.693 71.84a44.752 44.27 0 015.713-2.077c13.009-3.813 26.912-1.804 39.163 3.183a76.751 75.924 0 017.588 3.575 73.718 72.924 0 0118.91 14.28 9.36 9.26 0 01-1.135 13.533z" fill="#febfad"/><path d="M42.829 147.312a62.247 62.247 0 01-4.63-3.864 3.249 3.214 0 01.345-.34 21.977 21.74 0 005.782-23.762 3.018 2.986 0 015.712-1.923 27.916 27.616 0 01-7.21 29.89zm48.144 9.379c-2.237.51-4.594.936-7.123 1.26a3.015 2.982 0 01.585-2.264c.155-.204 9.704-12.92 3.648-25.686a3.006 2.974 0 115.437-2.536c5.885 12.375.499 24.137-2.547 29.226zM74.988 91.6a3.018 2.986 0 01-2.805 1.856 2.822 2.792 0 01-1.118-.221 3.011 2.979 0 01-1.669-3.88 19.728 19.515 0 00-1.428-17.005c-.103-.17-.19-.34-.276-.511a44.752 44.27 0 015.713-2.077 25.833 25.554 0 011.583 21.839zm45.289 12.546a3.052 3.02 0 01-2.72 1.685 2.925 2.894 0 01-1.307-.306 3.003 2.97 0 01-1.41-3.967 26.316 26.033 0 00-1.962-25.668 3.042 3.01 0 01-.31-2.945 76.751 75.924 0 017.588 3.575 31.833 31.49 0 01.12 27.626z" fill="#f69583"/></svg>