<svg viewBox="0 0 512 512" xmlns="http://www.w3.org/2000/svg"><path d="M338.362 401.178H175.069a5.397 5.397 0 00-5.392 5.402v26.876a5.396 5.396 0 005.392 5.401h163.293a5.396 5.396 0 005.392-5.401V406.58a5.397 5.397 0 00-5.392-5.402z" fill="#f9ecd4"/><path d="M338.362 401.178h-25.881v37.679h25.881a5.396 5.396 0 005.392-5.401V406.58a5.397 5.397 0 00-5.392-5.402z" fill="#f7e0ba"/><path d="M363.458 79.373a19.992 19.992 0 00-16.437-8.621c-8.297 0-15.825 5.229-18.732 13.012l-24.695 66.076a5.41 5.41 0 00.618 4.972 5.39 5.39 0 004.431 2.324h31.201a5.39 5.39 0 005.049-3.507l20.859-55.812a20.07 20.07 0 00-2.294-18.444z" fill="#c6946a"/><path d="M363.458 79.373a19.992 19.992 0 00-16.437-8.621c-4.014 0-7.842 1.233-11.06 3.378a20 20 0 015.334 5.242 20.075 20.075 0 012.295 18.445l-20.859 55.812a5.393 5.393 0 01-5.049 3.507h22.163a5.39 5.39 0 005.05-3.507l20.859-55.812a20.077 20.077 0 00-2.296-18.444z" fill="#b27c57"/><path d="M375.971 170.672a5.389 5.389 0 00-3.962-1.736H141.42a5.39 5.39 0 00-3.961 1.736 5.41 5.41 0 00-1.415 4.094l17.392 218.98c.813 10.225 9.47 18.236 19.708 18.236h167.14c10.238 0 18.895-8.011 19.708-18.236l17.392-218.98a5.405 5.405 0 00-1.413-4.094z" fill="#73cdff"/><path d="M375.97 170.673a5.388 5.388 0 00-3.96-1.737h-31.572c1.505 0 2.94.63 3.962 1.737a5.408 5.408 0 011.414 4.093l-17.393 218.98c-.812 10.226-9.468 18.236-19.707 18.236h31.57c10.24 0 18.896-8.01 19.709-18.235l17.392-218.98a5.405 5.405 0 00-1.414-4.094zm-257.216-13.497c-2.237 0-3.564-.033-3.825-.04-2.976-.085-5.32-2.57-5.236-5.552s2.542-5.326 5.54-5.248c.35.01 35.415.87 75.34-7.87 23.26-5.092 43.586-12.397 60.42-21.712 20.713-11.462 36.138-26.014 45.846-43.254a5.387 5.387 0 017.345-2.05 5.407 5.407 0 012.047 7.358c-10.722 19.04-27.589 35.01-50.133 47.464-17.78 9.822-39.128 17.492-63.448 22.797-33.85 7.386-63.57 8.107-73.896 8.107z" fill="#36c2ff"/><path d="M369.814 248.191a5.387 5.387 0 00-3.961-1.736h-52.007c-13.395-18.115-34.54-28.844-57.131-28.844-22.592 0-43.736 10.729-57.132 28.844h-52.006a5.394 5.394 0 00-5.376 5.83l5.87 73.911a5.397 5.397 0 005.375 4.973h46.137c13.396 18.115 34.54 28.845 57.132 28.845 22.591 0 43.736-10.73 57.131-28.845h46.137a5.396 5.396 0 005.375-4.973l5.871-73.911a5.418 5.418 0 00-1.415-4.094z" fill="#f9ecd4"/><path d="M369.814 248.191a5.387 5.387 0 00-3.961-1.736H340.12l-6.729 84.715h26.591a5.398 5.398 0 005.376-4.973l5.87-73.911a5.414 5.414 0 00-1.414-4.095z" fill="#f7e0ba"/><path d="M398.35 146.333H115.081a5.397 5.397 0 00-5.392 5.402v22.602a5.397 5.397 0 005.392 5.402H398.35a5.397 5.397 0 005.391-5.402v-22.602a5.397 5.397 0 00-5.391-5.402z" fill="#f9ecd4"/><path d="M398.35 146.333h-25.881v33.407h25.881a5.397 5.397 0 005.391-5.402v-22.603a5.397 5.397 0 00-5.391-5.402z" fill="#f7e0ba"/></svg>