<svg viewBox="0 0 512 512" xmlns="http://www.w3.org/2000/svg"><circle cx="256" cy="248.19" r="157.617" transform="matrix(.24364 -1.03087 1.08411 .25622 -69.565 457.607)" fill="#e6cdb4"/><ellipse cx="236.068" cy="248.561" rx="129.783" ry="160.98" transform="rotate(-76.702 258.63 242.766)" fill="#d5ad93"/><ellipse cx="255.139" cy="239.625" rx="126.029" ry="152.955" transform="rotate(-76.702 257.224 241.953)" fill="#d2b9a8"/><path d="M194.438 179.456a9.706 9.706 0 01-2.37 4.421c-20.887 22.381-28.721 55.531-20.064 84.894 1.538 5.101-1.364 10.524-6.435 12.09-5.06 1.567-10.39-1.318-11.899-6.441-10.592-35.871-.998-76.466 24.533-103.8 3.643-3.906 9.698-4.1 13.523-.433 2.567 2.454 3.48 6.016 2.712 9.269z" fill="#e6cdb4"/><g fill="#c3a591"><path d="M352.356 300.614c-25.048 3.627-18.025 24.757-34.746 29.974-13.625 4.251-22.274-5.887-36.239-4.207-12.225 1.47-17.521 11.793-32.25 12.3-23.754.821-34.544-28.294-68.17-21.3-21.367 4.445-36.909.737-48.753-7.927 21.76 26.547 54.237 47.41 93.29 56.64 76.424 18.062 150.538-14.551 173.463-73.644-6.205 1.309-23.784 4.862-46.595 8.164zm15.237-64.47c-20.774-14.456-5.034-30.207-17.65-42.357-10.281-9.902-22.553-4.708-34.288-12.462-10.274-6.788-10.388-18.39-23.332-25.438-20.873-11.367-43.555 9.837-70.492-11.471-17.117-13.54-32.674-17.183-47.144-14.738 31.343-13.996 69.723-18.112 108.775-8.882 76.425 18.063 128.096 80.404 122.141 143.508-4.963-3.946-19.09-14.995-38.01-28.16z"/><path d="M319.598 258.837c-8.606 36.412-44.827 59.137-80.732 50.65s-58.12-45.021-49.515-81.433 44.827-59.136 80.732-50.65 58.12 45.022 49.515 81.433z"/></g><path d="M207.957 232.45c-6.147 26.01 9.719 52.106 35.367 58.168 25.65 6.062 51.52-10.17 57.667-36.18 6.148-26.01-9.719-52.105-35.368-58.167-25.649-6.062-51.518 10.169-57.666 36.18z" fill="#e6cdb4"/></svg>