<svg width="200" height="200" xmlns="http://www.w3.org/2000/svg"><path d="M108.914 28.092l-1.776-1.834a2.385 2.385 0 00-3.604.168c-3.043 3.786-9.282 12.674-12.876 25.656V54.6h12.206v-2.52c1.124-9.29 4.843-17.688 6.506-21.083a2.557 2.557 0 00-.456-2.906zm0 0" fill="#96cd82"/><path d="M107.922 27.067l-.784-.81a2.385 2.385 0 00-3.604.17c-3.043 3.785-9.282 12.673-12.876 25.655V54.6h4.882v-2.52c3.421-12.354 9.204-20.944 12.382-25.014zm0 0" fill="#7dbe81"/><path d="M97.982 173.017h14.647c33.707 0 61.033-13.766 61.033-60.467s-27.325-60.468-61.033-60.468H97.982zm0 0" fill="#345430"/><path d="M99.565 170.002h11.607c26.715 0 48.37-12.999 48.37-57.093 0-44.096-21.655-57.093-48.37-57.093H99.565zm0 0" fill="#ff8c5a"/><path d="M97.982 52.082H83.335c-33.709 0-61.034 13.767-61.034 60.468 0 46.7 27.325 60.467 61.034 60.467h14.647zm0 0" fill="#345430"/><path d="M99.565 55.816H87.957c-26.714 0-48.369 12.997-48.369 57.093 0 44.094 21.655 57.093 48.369 57.093h11.608zm0 0" fill="#ff8c5a"/><path d="M125.642 112.91c0-47.929-11.675-57.094-26.077-57.094-14.403 0-26.078 9.163-26.078 57.093 0 47.93 11.675 57.093 26.078 57.093 14.402 0 26.077-9.164 26.077-57.093zm0 0" fill="#ffaa5f"/><path d="M85.478 78.098c-1.515 3.884-.116 6.532.318 7.307.994 1.77 6.584 2.412 5.734-2.048-.566-2.97-2.44-4.045-6.052-5.259zm1.859 20.681c-3.937 1.358-5.047 4.14-5.355 4.973-.705 1.905 2.427 6.585 5.271 3.05 1.894-2.356 1.5-4.481.084-8.023zm16.395-11.81c-2.696 3.177-2.236 6.136-2.077 7.01.363 2 5.44 4.43 6.087-.064.432-2.993-.99-4.62-4.01-6.946zM112.46 71.5c-3.824 1.653-4.721 4.51-4.965 5.365-.56 1.952 2.916 6.383 5.485 2.642 1.712-2.491 1.157-4.581-.52-8.006zm.056 41.025c-1.515 3.883-.116 6.53.318 7.306.994 1.77 6.584 2.412 5.734-2.048-.566-2.97-2.44-4.044-6.052-5.258zm1.859 20.68c-3.937 1.358-5.047 4.14-5.355 4.973-.705 1.905 2.427 6.585 5.271 3.05 1.894-2.356 1.499-4.481.084-8.023zm-19.912-15.032c-2.696 3.177-2.236 6.137-2.077 7.011.363 1.999 5.44 4.429 6.088-.065.43-2.993-.99-4.62-4.01-6.946zm-4.11 24.782c-3.823 1.653-4.72 4.51-4.965 5.364-.56 1.953 2.916 6.383 5.486 2.643 1.711-2.492 1.157-4.581-.52-8.007zm13.164 11.425c-1.942 3.688-.85 6.476-.506 7.295.788 1.872 6.27 3.14 5.928-1.387-.229-3.016-1.97-4.295-5.422-5.908z" fill="#f4eed1"/></svg>