<svg viewBox="0 0 512 512" xmlns="http://www.w3.org/2000/svg"><path d="M364.41 214.329s3.89-4.003 3.89-22.558c0-26.928-9.738-46.342-9.738-46.342h-33.55s-9.739 19.413-9.739 46.342c0 18.554 3.89 22.558 3.89 22.558l-29.943 24.35c-4.831 3.929-7.645 9.891-7.645 16.199v190.213c0 6.77 5.374 12.259 12.003 12.259h96.417c6.629 0 12.003-5.489 12.003-12.259V254.878c0-6.308-2.814-12.27-7.645-16.199l-29.943-24.35z" fill="#fd9727"/><path d="M394.353 238.679l-29.943-24.35s3.89-4.003 3.89-22.558c0-26.928-9.738-46.342-9.738-46.342h-25.167c-.834 14.332-2.046 31.812-3.096 46.31-1.309 18.078 6.219 35.647 20.104 46.939 4.831 3.929 7.645 9.892 7.645 16.199V445.09c0 6.771-5.374 12.26-12.003 12.26h43.95c6.629 0 12.003-5.489 12.003-12.26V254.878c0-6.308-2.814-12.27-7.645-16.199z" fill="#e57f23"/><path d="M281.576 267.188h120.426v164.424H281.576zm86.704-77.283c-.433-25.953-9.718-44.475-9.718-44.475h-33.55s-9.285 18.523-9.718 44.475h52.986z" fill="#4a4256"/><path d="M175.846 218.223v-40.571h-30.385v40.571c0 12.615-9.205 23.252-21.462 24.8-12.497 1.579-21.881 12.423-21.881 25.284v177.819c0 6.199 4.92 11.224 10.989 11.224h95.092c6.069 0 10.989-5.025 10.989-11.224V268.307c0-12.861-9.385-23.705-21.881-25.284-12.256-1.548-21.461-12.185-21.461-24.8z" fill="#77d057"/><path d="M197.308 243.023c-12.257-1.548-21.462-12.185-21.462-24.8v-40.571h-21.319v268.474c0 6.199-4.92 11.224-10.989 11.224H208.2c6.069 0 10.989-5.025 10.989-11.224V268.307c0-12.861-9.385-23.705-21.881-25.284z" fill="#68b543"/><path d="M177.003 214.745h-32.699c-1.697 0-3.071-1.404-3.071-3.137v-30.82c0-1.732 1.374-3.136 3.071-3.136h32.699c1.696 0 3.071 1.404 3.071 3.136v30.82c0 1.733-1.375 3.137-3.071 3.137z" fill="#602952"/><path d="M123.999 243.023c-12.497 1.579-21.881 12.423-21.881 25.284v177.819c0 6.199 4.92 11.224 10.989 11.224h95.092c6.069 0 10.989-5.025 10.989-11.224V268.307c0-12.861-9.385-23.705-21.881-25.284-3.296-.416-70.011-.416-73.308 0z" fill="#306318"/><path d="M218.24 261.333a25.588 25.588 0 00-2.68-6.262c-2.935-4.924-7.47-8.767-12.922-10.754a24.58 24.58 0 00-5.33-1.294c-1.842-.233-23.471-.335-42.781-.308v203.411c0 6.199-4.92 11.224-10.988 11.224H208.2c2.655 0 5.091-.962 6.99-2.563a11.27 11.27 0 003.776-6.399c.147-.73.223-1.487.223-2.262V268.307c0-2.412-.331-4.752-.949-6.974z" fill="#2c5114"/><path d="M202.529 407.059V281.883c0-4.43-3.516-8.021-7.853-8.021H126.63c-4.337 0-7.853 3.591-7.853 8.021v125.176c0 3.184 2.528 5.767 5.645 5.767h72.461c3.118-.001 5.646-2.583 5.646-5.767z" fill="#e9eaeb"/><path d="M154.527 412.825h42.356c3.118 0 5.646-2.582 5.646-5.767V281.883c0-4.43-3.516-8.021-7.853-8.021h-40.15l.001 138.963z" fill="#b6d1c6"/><circle cx="138.908" cy="328.87" r="25.991" transform="matrix(.78067 0 0 .79736 52.209 49.102)" fill="#602952"/><path d="M154.527 331.092c1.933.626 3.99.964 6.126.964 11.206 0 20.291-9.278 20.291-20.724 0-11.445-9.084-20.724-20.291-20.724-2.136 0-4.193.339-6.126.964v39.52z" fill="#512047"/><path d="M177.516 399.913h-33.725c-3.281 0-5.942-2.717-5.942-6.068 0-3.352 2.661-6.069 5.942-6.069h33.725c3.281 0 5.941 2.717 5.941 6.069 0 3.351-2.659 6.068-5.941 6.068z" fill="#fff"/><path fill="#fc502a" d="M118.774 349.061h83.75v21.76h-83.75z"/><path fill="#e60d28" d="M154.529 349.061h48.003v21.76h-48.003z"/><path d="M300.482 424.504c-1.983-1.468-3.024-3.929-2.982-6.43L301.415 188a13.091 13.091 0 00-3.568-9.542l-22.968-24.15c-3.4-3.574-5.301-8.361-5.301-13.344V49.119h-39.789v91.846c0 4.983-1.902 9.769-5.301 13.344l-22.968 24.15c-2.421 2.546-3.711 5.996-3.569 9.542l3.915 230.074c.043 2.501-.998 4.962-2.982 6.43a5.361 5.361 0 00-2.153 4.472l.525 19.818c.125 4.762 3.942 8.555 8.606 8.555h87.643c4.664 0 8.48-3.793 8.606-8.555l.524-19.818a5.364 5.364 0 00-2.153-4.473z" fill="#cdeae0"/><path d="M300.482 424.504c-1.983-1.468-3.024-3.929-2.982-6.43L301.415 188a13.091 13.091 0 00-3.568-9.542l-22.968-24.15c-3.4-3.574-5.301-8.361-5.301-13.344V49.119h-39.789v89.49c0 1.536.451 3.035 1.294 4.306l23.587 35.543c2.421 2.546 3.711 5.996 3.569 9.542l-3.916 230.074c-.042 2.501.999 4.962 2.983 6.43a5.362 5.362 0 012.153 4.472l-.525 19.818c-.126 4.763-3.942 8.556-8.606 8.556h43.177c4.665 0 8.481-3.794 8.606-8.556l.525-19.818a5.367 5.367 0 00-2.154-4.472z" fill="#b6d1c6"/><path d="M268.424 128.203h-37.48c-1.817 0-3.289-1.504-3.289-3.36V52.461c0-1.855 1.472-3.359 3.289-3.359h37.48c1.817 0 3.289 1.504 3.289 3.359v72.382c0 1.856-1.473 3.36-3.289 3.36z" fill="#e60d28"/><path d="M222.192 231.151c17.638-11.839 37.335-11.839 54.982.023 1.645 1.106 3.84-.038 3.921-2.047l.472-11.708c.163-4.068-2.159-7.822-5.833-9.405-16.904-7.282-35.183-7.292-52.095-.019-3.677 1.581-6.002 5.336-5.838 9.407l.471 11.7c.082 2.009 2.276 3.153 3.92 2.049z" fill="#fc502a"/><path d="M272.204 394.464h-45.04c-3.281 0-5.942-2.717-5.942-6.069s2.66-6.068 5.942-6.068h45.04c3.282 0 5.942 2.717 5.942 6.068s-2.66 6.07-5.942 6.07zm0 19.032h-45.04c-3.281 0-5.942-2.718-5.942-6.07s2.66-6.068 5.942-6.068h45.04c3.282 0 5.942 2.718 5.942 6.069s-2.66 6.069-5.942 6.069z" fill="#fff"/><path d="M272.64 307.889h-45.912c-2.103 0-3.818-1.72-3.856-3.868l-.663-36.891c-.04-2.204 1.699-4.013 3.857-4.013h47.236c2.158 0 3.897 1.809 3.857 4.013l-.663 36.891c-.038 2.148-1.754 3.868-3.856 3.868z" fill="#fc502a"/><path fill="#e9eaeb" d="M227.654 64.546h44.061v12.137h-44.061z"/><path fill="#352f3f" d="M358.05 267.188h43.952v164.424H358.05z"/><g transform="matrix(.78067 0 0 .79736 52.209 49.102)" fill="#e9eaeb"><path d="M405.847 331.134c-23.548-10.506-46.219-10.53-69.824.001-2.788 1.244-6.068.171-7.625-2.455l-5.862-9.889c-1.832-3.091-.578-7.083 2.683-8.592 30.368-14.054 61.052-14.06 91.433 0 3.261 1.509 4.515 5.502 2.683 8.592l-5.862 9.889c-1.557 2.626-4.837 3.698-7.626 2.454z"/><ellipse cx="370.938" cy="382.34" rx="38.461" ry="26.367"/></g><path d="M372.931 408.125h-62.29c-3.281 0-5.942-2.717-5.942-6.068 0-3.352 2.661-6.069 5.942-6.069h62.29c3.282 0 5.942 2.717 5.942 6.069 0 3.351-2.66 6.068-5.942 6.068z" fill="#fff"/><path d="M358.048 336.297v35.339c8.28-3.744 13.764-10.256 13.764-17.67 0-7.413-5.485-13.926-13.764-17.67zm19.429-39.855c-6.462-3.055-12.941-5.27-19.429-6.66v19.326c3.644 1.007 7.305 2.346 10.993 4.026 2.177.992 4.738.137 5.953-1.957l4.577-7.885c1.43-2.463.45-5.647-2.094-6.85z" fill="#b6d1c6"/><path d="M368.279 189.905c-.392-23.511-8.048-40.925-9.486-43.992l-.032-.069c-.045-.096-.082-.175-.113-.237a17.986 17.986 0 00-.086-.178h-25.166c-.799 13.735-1.946 30.354-2.964 44.475l37.847.001z" fill="#352f3f"/><path d="M361.986 151.278h-40.398c-1.787 0-3.236-1.48-3.236-3.305v-36.104c0-1.825 1.449-3.305 3.236-3.305h40.398c1.787 0 3.235 1.48 3.235 3.305v36.104c0 1.825-1.448 3.305-3.235 3.305z" fill="#4a4256"/><path fill="#e9eaeb" d="M318.352 123.974h46.871v11.251h-46.871z"/><path d="M273.303 263.117H256.96l-.762 44.771h16.441c2.103 0 3.818-1.72 3.857-3.868l.662-36.891c.04-2.203-1.698-4.012-3.856-4.012zm2.432-55.102a66.676 66.676 0 00-17.754-4.903l-.338 19.894c6.647 1.21 13.22 3.926 19.53 8.168 1.644 1.106 3.84-.038 3.92-2.047l.472-11.708c.166-4.068-2.157-7.821-5.83-9.404z" fill="#e60d28"/></svg>