<svg width="200" height="200" xmlns="http://www.w3.org/2000/svg"><path d="M150.575 34.101c-2.412 1.56-6.926 4.678-11.363 8.787l1.95 13.227 11.52-6.254c.458-6.143.14-11.751-.109-14.698-.088-1.042-1.154-1.608-1.998-1.062zm0 0" fill="#afdc82"/><path d="M144.56 52.99l9.108-4.114c.855-.385 1.779.252 1.827 1.237.283 5.802-.454 12.562-2.643 17.162l-11.835-.041zm-2.593-1.381l-2.301-10.188c-.217-.956-1.251-1.361-2.028-.816-4.574 3.215-9.27 7.867-11.46 12.467l7.08 10.03zm0 0" fill="#96cd82"/><path d="M124.513 101.882c1.182.63 2.629.107 3.236-1.166 2.115-4.444 7.434-5.638 7.487-5.65 1.309-.265 2.182-1.61 1.954-3.005-.226-1.396-1.473-2.316-2.78-2.045-.313.065-7.708 1.638-10.938 8.423-.606 1.275-.14 2.815 1.041 3.443zm-11.338 23.821c1.182.63 2.629.107 3.236-1.167 2.116-4.446 7.434-5.64 7.487-5.65 1.309-.266 2.183-1.612 1.954-3.007-.224-1.397-1.473-2.314-2.78-2.045-.313.065-7.708 1.639-10.938 8.425-.606 1.275-.14 2.815 1.041 3.444zm-11.338 23.817c1.183.63 2.63.108 3.236-1.166 2.116-4.446 7.436-5.64 7.488-5.651 1.31-.266 2.183-1.612 1.954-3.006-.225-1.398-1.473-2.316-2.78-2.044-.314.064-7.708 1.638-10.939 8.424-.606 1.274-.14 2.814 1.041 3.444zm0 0" fill="#96d7a5"/><path d="M143.264 66.625c2.008-4.387 2.826-9.375 1.991-13.985a17.482 17.482 0 00-.838-2.977c-.912.26-1.833.59-2.76 1.062-3.962 2.016-7.237 5.634-9.375 9.9l1.94 10.559zm0 0" fill="#afdc82"/><path d="M154.992 67.554c-.69-.558-1.418-1.074-2.22-1.501-5.876-3.128-12.955-1.582-17.286 3.377-.31.355-.839.075-.753-.4 1.185-6.633-1.864-13.574-7.74-16.703-.802-.427-1.629-.737-2.462-.993a16.038 16.038 0 00-1.438 2.4c-2.832 5.95-1.77 12.862 2.166 17.436 1.34 1.558 1.523 3.905.613 5.817l-47.097 98.944c-.626 1.315-.145 2.909 1.075 3.559l4.42 2.352c1.22.65 2.717.11 3.343-1.205l47.098-98.944c.91-1.912 2.802-3.155 4.783-2.944 5.818.62 11.7-2.595 14.532-8.545.412-.865.715-1.754.966-2.65zm0 0" fill="#b4e6a0"/><path d="M85.848 162.018c-1.183-.629-1.649-2.169-1.041-3.444 2.116-4.446-.145-9.675-.169-9.727-.578-1.27-.075-2.815 1.12-3.45 1.194-.643 2.636-.129 3.208 1.144.138.305 3.347 7.524.116 14.31-.606 1.275-2.053 1.796-3.234 1.167zm0 0" fill="#78c3a5"/><path d="M125.259 71.17c1.34 1.558 1.523 3.905.613 5.817l-47.097 98.944c-.626 1.315-.145 2.909 1.075 3.559l2.25 1.197 52.903-111.139a.452.452 0 01-.27-.519c1.185-6.632-1.864-13.573-7.74-16.702a13.696 13.696 0 00-2.463-.992 16.024 16.024 0 00-1.437 2.399c-2.832 5.95-1.77 12.862 2.166 17.436zm0 0" fill="#96d7a5"/><path d="M90.5 22.935c-1.317 2.663-3.687 7.817-5.504 13.766l8.126 10.093 6.874-11.71c-2.6-5.451-5.608-10.014-7.258-12.367-.584-.831-1.777-.714-2.238.218zm0 0" fill="#afdc82"/><path d="M94.524 42.256l5.84-8.556c.55-.803 1.656-.78 2.178.027 3.072 4.746 5.732 10.87 6.089 15.982l-10.215 6.566zm-2.906.28l-6.947-7.329c-.653-.688-1.741-.454-2.144.441-2.374 5.27-4.152 11.822-3.795 16.932l10.987 4.53zm0 0" fill="#96cd82"/><path d="M102.131 113.325c1.324-.128 2.317-1.376 2.218-2.791-.344-4.937 3.655-8.913 3.695-8.952.998-.954 1.095-2.58.219-3.631-.876-1.054-2.398-1.137-3.392-.177-.238.228-5.841 5.683-5.315 13.22.099 1.415 1.25 2.457 2.575 2.33zm3.689 52.918c1.324-.128 2.315-1.375 2.218-2.791-.344-4.939 3.654-8.915 3.695-8.953.997-.956 1.094-2.58.217-3.632-.874-1.057-2.397-1.136-3.391-.178-.239.23-5.84 5.684-5.315 13.223.099 1.417 1.25 2.458 2.575 2.33zm0 0" fill="#96d7a5"/><path d="M100.054 54.507c-.41-4.83-2.135-9.503-5.1-12.933a15.772 15.772 0 00-2.174-2.05 17.041 17.041 0 00-1.86 2.437c-2.428 3.914-3.487 8.8-3.249 13.6l6.819 7.842zm0 0" fill="#afdc82"/><path d="M110.61 48.75c-.866-.085-1.747-.117-2.646-.03-6.585.633-11.929 5.89-13.242 12.496-.094.473-.686.531-.844.082-2.212-6.268-8.22-10.436-14.807-9.804-.898.087-1.762.286-2.605.536a16.579 16.579 0 00-.069 2.83c.46 6.608 4.745 11.86 10.365 13.53 1.914.57 3.215 2.451 3.363 4.577l7.66 109.91c.101 1.461 1.293 2.54 2.66 2.408l4.954-.475c1.368-.131 2.394-1.423 2.292-2.884l-7.66-109.911c-.149-2.125.876-4.23 2.686-5.158 5.312-2.721 8.813-8.72 8.352-15.328a16.254 16.254 0 00-.46-2.779zm0 0" fill="#b4e6a0"/><path d="M92.738 95.377c-1.325.127-2.476-.914-2.575-2.33-.345-4.937-4.841-8.097-4.886-8.128-1.117-.751-1.437-2.336-.718-3.54.717-1.207 2.208-1.58 3.321-.823.267.18 6.55 4.494 7.075 12.03.099 1.416-.893 2.663-2.217 2.79zm1.844 26.46c-1.325.128-2.477-.914-2.576-2.33-.344-4.938-4.84-8.1-4.885-8.13-1.118-.75-1.437-2.337-.719-3.54.717-1.21 2.21-1.576 3.322-.822.267.18 6.55 4.493 7.076 12.032.099 1.415-.893 2.664-2.218 2.79zm1.843 26.459c-1.324.126-2.476-.916-2.575-2.33-.344-4.94-4.84-8.1-4.886-8.13-1.117-.752-1.437-2.337-.718-3.541.718-1.21 2.209-1.58 3.322-.822.267.18 6.55 4.493 7.076 12.032.099 1.415-.893 2.664-2.219 2.79zm0 0" fill="#78c3a5"/><path d="M86.762 68.39c1.913.57 3.214 2.453 3.363 4.577l7.66 109.91c.102 1.461 1.294 2.54 2.661 2.408l2.521-.241-8.605-123.458a.413.413 0 01-.485-.289c-2.211-6.267-8.22-10.434-14.806-9.803-.9.087-1.763.286-2.605.536a16.579 16.579 0 00-.069 2.83c.46 6.608 4.745 11.86 10.365 13.53zm0 0" fill="#96d7a5"/><path d="M131.4 30.607c-2.412 1.56-6.926 4.679-11.363 8.788l1.95 13.227 11.52-6.255c.457-6.142.139-11.75-.11-14.698-.087-1.041-1.153-1.607-1.997-1.062zm0 0" fill="#afdc82"/><path d="M125.384 49.496l9.108-4.113c.856-.386 1.78.252 1.827 1.237.283 5.801-.453 12.562-2.642 17.162l-11.835-.042zm-2.592-1.381l-2.302-10.188c-.216-.956-1.25-1.361-2.027-.816-4.575 3.216-9.27 7.868-11.461 12.467l7.08 10.03zm0 0" fill="#96cd82"/><path d="M105.338 98.389c1.181.63 2.629.107 3.235-1.167 2.115-4.444 7.435-5.638 7.487-5.65 1.31-.264 2.182-1.61 1.954-3.005-.225-1.396-1.473-2.316-2.78-2.044-.313.064-7.708 1.638-10.937 8.422-.606 1.275-.141 2.815 1.04 3.444zM94 122.209c1.181.63 2.628.107 3.235-1.167 2.116-4.445 7.435-5.64 7.487-5.65 1.31-.265 2.184-1.611 1.955-3.007-.225-1.396-1.474-2.313-2.78-2.044-.314.064-7.708 1.638-10.938 8.424-.606 1.276-.141 2.816 1.04 3.444zm-11.338 23.818c1.183.63 2.63.108 3.235-1.166 2.117-4.446 7.436-5.64 7.489-5.652 1.309-.265 2.182-1.611 1.954-3.005-.225-1.398-1.473-2.317-2.78-2.045-.314.064-7.708 1.638-10.94 8.424-.605 1.275-.14 2.814 1.042 3.444zm0 0" fill="#96d7a5"/><path d="M124.088 63.131c2.009-4.387 2.827-9.375 1.992-13.985a17.482 17.482 0 00-.838-2.976c-.913.26-1.834.59-2.76 1.062-3.962 2.015-7.238 5.633-9.375 9.9l1.94 10.558zm0 0" fill="#afdc82"/><path d="M135.817 64.06c-.69-.557-1.419-1.074-2.221-1.501-5.875-3.128-12.955-1.581-17.286 3.378-.31.355-.838.074-.753-.401 1.186-6.633-1.864-13.574-7.739-16.702-.802-.427-1.63-.738-2.463-.993a16.038 16.038 0 00-1.437 2.4c-2.832 5.949-1.77 12.861 2.166 17.435 1.34 1.558 1.523 3.905.613 5.818L59.6 172.437c-.627 1.316-.145 2.91 1.075 3.56l4.42 2.352c1.22.65 2.716.11 3.343-1.206L115.535 78.2c.91-1.913 2.802-3.155 4.784-2.944 5.818.62 11.7-2.596 14.532-8.546.411-.865.714-1.754.966-2.65zm0 0" fill="#b4e6a0"/><path d="M66.672 158.524c-1.183-.629-1.648-2.169-1.04-3.444 2.115-4.445-.146-9.675-.17-9.726-.578-1.27-.075-2.815 1.12-3.451 1.195-.642 2.636-.128 3.208 1.144.138.305 3.348 7.524.117 14.31-.606 1.276-2.053 1.797-3.235 1.167zm0 0" fill="#78c3a5"/><path d="M106.084 67.676c1.34 1.558 1.523 3.905.613 5.818L59.6 172.437c-.627 1.316-.145 2.91 1.075 3.56l2.25 1.196 52.902-111.138a.452.452 0 01-.27-.52c1.186-6.632-1.864-13.573-7.739-16.701a13.696 13.696 0 00-2.463-.992 16.024 16.024 0 00-1.437 2.398c-2.832 5.95-1.77 12.862 2.166 17.436zm0 0" fill="#96d7a5"/><path d="M71.325 19.441c-1.318 2.664-3.687 7.817-5.505 13.766l8.127 10.094L80.82 31.59c-2.6-5.45-5.608-10.014-7.258-12.367-.584-.83-1.778-.714-2.238.218zm0 0" fill="#afdc82"/><path d="M75.348 38.763l5.841-8.557c.55-.802 1.656-.78 2.177.027 3.072 4.747 5.733 10.871 6.09 15.983L79.24 52.782zm-2.905.279l-6.947-7.328c-.654-.688-1.742-.454-2.145.44-2.374 5.271-4.151 11.822-3.794 16.933l10.986 4.53zm0 0" fill="#96cd82"/><path d="M82.956 109.831c1.324-.128 2.317-1.376 2.218-2.79-.345-4.937 3.655-8.914 3.695-8.953.998-.954 1.095-2.579.218-3.63-.875-1.054-2.398-1.138-3.391-.178-.239.229-5.842 5.683-5.316 13.22.1 1.415 1.25 2.457 2.576 2.331zm3.688 52.919c1.324-.128 2.316-1.376 2.218-2.792-.344-4.938 3.655-8.914 3.695-8.953.998-.955 1.095-2.58.218-3.631-.875-1.057-2.398-1.137-3.391-.179-.24.23-5.84 5.684-5.315 13.224.098 1.416 1.25 2.458 2.575 2.33zm0 0" fill="#96d7a5"/><path d="M80.879 51.013c-.41-4.83-2.135-9.503-5.101-12.933a15.772 15.772 0 00-2.173-2.049 17.041 17.041 0 00-1.86 2.436c-2.429 3.915-3.487 8.8-3.25 13.6l6.82 7.843zm0 0" fill="#afdc82"/><path d="M91.434 45.257c-.866-.086-1.746-.117-2.645-.03-6.585.632-11.93 5.89-13.242 12.495-.095.474-.687.532-.844.082-2.213-6.268-8.221-10.436-14.807-9.803-.899.087-1.763.285-2.605.535a16.579 16.579 0 00-.07 2.83c.461 6.609 4.745 11.86 10.365 13.53 1.914.57 3.215 2.452 3.363 4.577l7.66 109.91c.102 1.462 1.293 2.54 2.66 2.409l4.955-.476c1.367-.131 2.394-1.422 2.292-2.883L80.856 68.52c-.15-2.124.875-4.23 2.685-5.157 5.313-2.722 8.813-8.72 8.352-15.329a16.254 16.254 0 00-.459-2.778zm0 0" fill="#b4e6a0"/><path d="M73.563 91.883c-1.326.128-2.477-.914-2.576-2.33-.344-4.937-4.84-8.096-4.886-8.128-1.117-.751-1.437-2.336-.718-3.54.717-1.206 2.209-1.58 3.322-.823.267.18 6.55 4.494 7.075 12.03.099 1.416-.893 2.664-2.217 2.791zm1.843 26.46c-1.324.128-2.476-.914-2.575-2.33-.345-4.938-4.84-8.099-4.886-8.129-1.117-.75-1.437-2.337-.718-3.54.717-1.21 2.21-1.577 3.321-.823.268.18 6.55 4.493 7.076 12.033.1 1.415-.893 2.663-2.218 2.79zm1.844 26.459c-1.324.127-2.477-.915-2.575-2.33-.345-4.939-4.841-8.1-4.886-8.13-1.117-.751-1.437-2.336-.718-3.54.718-1.21 2.208-1.58 3.321-.823.267.18 6.55 4.493 7.076 12.032.1 1.415-.893 2.664-2.218 2.791zm0 0" fill="#78c3a5"/><path d="M67.586 64.897c1.914.57 3.215 2.452 3.364 4.576l7.66 109.91c.102 1.462 1.293 2.54 2.66 2.409l2.522-.242-8.606-123.458a.413.413 0 01-.484-.288C72.49 51.536 66.48 47.369 59.896 48c-.9.087-1.764.285-2.605.535a16.579 16.579 0 00-.07 2.83c.461 6.609 4.745 11.86 10.365 13.53zm0 0" fill="#96d7a5"/></svg>