<svg width="200" height="200" xmlns="http://www.w3.org/2000/svg"><g transform="matrix(.27852 0 0 .26505 28.7 32.148)"><path d="M344.337 92.731c-3.6-13.601-23.354-73.098-94.513-78.492-3.385-.257-6.161 2.643-5.738 6.011 2.631 20.927 17.458 85.871 99.771 75.388.154-.976.316-1.942.48-2.907z" fill="#3bbc56"/><path d="M264.691 20.25a5.303 5.303 0 01.968-3.785 121.85 121.85 0 00-15.835-2.225c-3.385-.257-6.161 2.643-5.738 6.011 2.559 20.357 16.668 82.354 93.2 76.069-58.562-5.379-70.285-57.693-72.595-76.07z" fill="#30aa44"/><path d="M351.147 120.877c8.887-28.232 27.701-65.87 59.218-91.573 3.424-2.793 3.352-8.048-.131-10.766l-21.07-16.441c-4.812-3.755-11.837-2.304-14.759 3.054-9.989 18.325-31.638 63.352-35.186 115.62a79.288 79.288 0 0111.928.106z" fill="#93603e"/><path d="M389.516 10.942a9.791 9.791 0 015.206-4.508l-5.557-4.336c-4.812-3.755-11.837-2.304-14.759 3.055-9.989 18.325-31.638 63.352-35.186 115.62a79.026 79.026 0 0111.928.106 212.042 212.042 0 015.654-15.711c6.9-42.912 24.118-78.457 32.714-94.226z" fill="#7f573c"/><path d="M498.354 383.065s-.002-.221-.009-.622a111.773 111.773 0 00-.461-9.582c-2.33-33.834-16.175-145.211-98.353-233.733-26.783-28.851-78.066-28.851-104.849 0-82.175 88.52-96.023 199.894-98.353 233.731a115.649 115.649 0 00-.471 10.206c0 71.21 67.716 128.936 151.248 128.936s151.248-57.727 151.248-128.936z" fill="#30aa44"/><path d="M336.276 372.861c-2.031-29.491-12.818-117.896-69.974-198.728-57.154 80.83-67.943 169.232-69.974 198.726a115.649 115.649 0 00-.471 10.206c0 45.877 28.111 86.152 70.444 109.005 42.334-22.854 70.444-63.129 70.445-109.005 0 0-.002-.221-.009-.622-.017-3.223-.17-6.419-.461-9.582z" fill="#269e35"/><path d="M316.142 383.065s-.002-.221-.009-.622a111.773 111.773 0 00-.461-9.582c-2.33-33.834-16.175-145.211-98.353-233.733-26.783-28.851-78.066-28.851-104.849 0-82.175 88.52-96.023 199.894-98.353 233.731a115.2 115.2 0 00-.471 10.206c0 71.209 67.716 128.936 151.248 128.936s151.248-57.727 151.248-128.936z" fill="#bad362"/><path d="M34.251 383.065c0-3.434.182-7.063.471-10.206 2.33-33.837 16.178-145.211 98.353-233.731 11.027-11.878 26.209-18.854 42.122-20.951-22.738-2.997-46.971 3.979-62.727 20.951-82.175 88.52-96.023 199.894-98.353 233.731a115.2 115.2 0 00-.471 10.206c0 71.209 67.716 128.936 151.248 128.936 3.464 0 6.897-.108 10.302-.304-78.725-4.516-140.945-60.375-140.945-128.632z" fill="#9ab748"/><circle cx="164.89" cy="372.871" r="77.3" fill="#93603e"/><path d="M108.204 372.87c0-39.193 29.178-71.551 66.992-76.591a77.98 77.98 0 00-10.302-.704c-42.689 0-77.295 34.606-77.295 77.295s34.606 77.295 77.295 77.295c3.495 0 6.93-.255 10.302-.704-37.814-5.04-66.992-37.397-66.992-76.591z" fill="#7f573c"/><path d="M192.502 360.716a7.756 7.756 0 006.206-3.128 7.562 7.562 0 001.046-1.937c.135-.376.247-.765.321-1.148a7.56 7.56 0 000-3.029 7.623 7.623 0 00-1.367-3.085 7.757 7.757 0 00-6.206-3.127 7.756 7.756 0 00-6.206 3.128 7.606 7.606 0 00-1.366 3.085c-.103.505-.155 1.01-.155 1.515s.052 1.01.155 1.514c.072.376.181.759.313 1.128.25.7.61 1.36 1.053 1.956.228.308.475.599.746.862a7.755 7.755 0 005.46 2.266zm0 40.353a7.76 7.76 0 006.206-3.128 7.562 7.562 0 001.046-1.937c.135-.376.247-.765.321-1.148a7.56 7.56 0 000-3.029 7.623 7.623 0 00-1.367-3.085 7.757 7.757 0 00-6.206-3.127 7.756 7.756 0 00-6.206 3.128 7.606 7.606 0 00-1.366 3.085c-.103.505-.155 1.01-.155 1.515s.052 1.01.155 1.514c.072.376.181.759.313 1.128.25.7.61 1.36 1.053 1.956.228.308.475.599.746.862a7.755 7.755 0 005.46 2.266zm22.847-20.185a7.754 7.754 0 005.349-2.519c.258-.275.491-.577.704-.895a7.593 7.593 0 001.222-3.145 7.55 7.55 0 00-.141-3.026 7.692 7.692 0 00-.375-1.135 7.553 7.553 0 00-1.134-1.883 6.973 6.973 0 00-.785-.825 7.754 7.754 0 00-5.56-2.009 7.761 7.761 0 00-6.054 3.413 7.614 7.614 0 00-1.22 3.145c-.079.509-.108 1.016-.084 1.52s.099 1.006.225 1.505c.089.373.216.75.366 1.112.283.687.672 1.33 1.143 1.905.242.297.503.576.785.826a7.748 7.748 0 005.559 2.011z" fill="#6d4a31"/></g></svg>