<svg height="426pt" viewBox="0 -42 426.66667 426" width="426pt" xmlns="http://www.w3.org/2000/svg"><path d="m74.667969.332031h-64c-5.890625 0-10.667969 4.777344-10.667969 10.667969v64c0 5.890625 4.777344 10.667969 10.667969 10.667969s10.664062-4.777344 10.664062-10.667969v-53.332031h53.335938c5.890625 0 10.664062-4.777344 10.664062-10.667969s-4.773437-10.667969-10.664062-10.667969zm0 0"/><path d="m74.667969 320.332031h-53.335938v-53.332031c0-5.890625-4.773437-10.667969-10.664062-10.667969s-10.667969 4.777344-10.667969 10.667969v64c0 5.890625 4.777344 10.667969 10.667969 10.667969h64c5.890625 0 10.664062-4.777344 10.664062-10.667969s-4.773437-10.667969-10.664062-10.667969zm0 0"/><path d="m416 .332031h-64c-5.890625 0-10.667969 4.777344-10.667969 10.667969s4.777344 10.667969 10.667969 10.667969h53.332031v53.332031c0 5.890625 4.777344 10.667969 10.667969 10.667969s10.667969-4.777344 10.667969-10.667969v-64c0-5.890625-4.777344-10.667969-10.667969-10.667969zm0 0"/><path d="m416 256.332031c-5.890625 0-10.667969 4.777344-10.667969 10.667969v53.332031h-53.332031c-5.890625 0-10.667969 4.777344-10.667969 10.667969s4.777344 10.667969 10.667969 10.667969h64c5.890625 0 10.667969-4.777344 10.667969-10.667969v-64c0-5.890625-4.777344-10.667969-10.667969-10.667969zm0 0"/><path d="m74.667969 64.332031c-5.890625 0-10.667969 4.777344-10.667969 10.667969v192c0 5.890625 4.777344 10.667969 10.667969 10.667969s10.664062-4.777344 10.664062-10.667969v-192c0-5.890625-4.773437-10.667969-10.664062-10.667969zm0 0"/><path d="m117.332031 64.332031h21.335938c5.890625 0 10.664062 4.777344 10.664062 10.667969v192c0 5.890625-4.773437 10.667969-10.664062 10.667969h-21.335938c-5.890625 0-10.664062-4.777344-10.664062-10.667969v-192c0-5.890625 4.773437-10.667969 10.664062-10.667969zm0 0"/><path d="m181.332031 64.332031c-5.890625 0-10.664062 4.777344-10.664062 10.667969v192c0 5.890625 4.773437 10.667969 10.664062 10.667969s10.667969-4.777344 10.667969-10.667969v-192c0-5.890625-4.777344-10.667969-10.667969-10.667969zm0 0"/><path d="m224 64.332031h21.332031c5.890625 0 10.667969 4.777344 10.667969 10.667969v192c0 5.890625-4.777344 10.667969-10.667969 10.667969h-21.332031c-5.890625 0-10.667969-4.777344-10.667969-10.667969v-192c0-5.890625 4.777344-10.667969 10.667969-10.667969zm0 0"/><path d="m288 64.332031c-5.890625 0-10.667969 4.777344-10.667969 10.667969v192c0 5.890625 4.777344 10.667969 10.667969 10.667969s10.667969-4.777344 10.667969-10.667969v-192c0-5.890625-4.777344-10.667969-10.667969-10.667969zm0 0"/><path d="m330.667969 64.332031h21.332031c5.890625 0 10.667969 4.777344 10.667969 10.667969v192c0 5.890625-4.777344 10.667969-10.667969 10.667969h-21.332031c-5.890625 0-10.667969-4.777344-10.667969-10.667969v-192c0-5.890625 4.777344-10.667969 10.667969-10.667969zm0 0"/></svg>