<svg width="200" height="200" xmlns="http://www.w3.org/2000/svg"><path d="M95.595 106.415c-.513-5.955-2.342-11.685-4.643-17.26-2.816-6.823-2.24-16.472 1.935-21.531 2.127-2.576 3.062-5.876 3.045-9.132-.119-21.097-12.36-26.13-15.772-27.124-.721-.21-1.332-.646-1.707-1.263-.77-1.256-1.214-2.95-1.468-4.563-.232-1.476-1.608-2.521-3.197-2.397a37.009 37.009 0 01-5.87 0c-1.59-.124-2.965.921-3.198 2.397-.254 1.613-.697 3.307-1.467 4.563-.376.614-.986 1.052-1.708 1.263-3.412.993-15.655 6.03-15.771 27.124-.017 3.256.915 6.556 3.044 9.132 4.178 5.06 4.752 14.708 1.935 21.532-2.3 5.571-4.127 11.304-4.643 17.26-.847 9.805-2.39 45.394-1.305 54.544 0 4.359 6.815 7.892 23.885 7.892s26.694-3.533 26.694-7.892c1.085-9.148 1.059-44.737.211-54.545z" fill="#dae7ef"/><path d="M45.82 57.43c-.01.361-.044.692-.046 1.062-.02 3.256.918 6.556 3.044 9.132 4.178 5.06 4.752 14.708 1.935 21.532-2.3 5.571-4.127 11.304-4.643 17.26-.029.332-.055.702-.084 1.045 6.355 1.607 15.117 2.607 24.827 2.607s18.472-1 24.827-2.605c-.03-.343-.056-.712-.085-1.046-.513-5.955-2.342-11.687-4.643-17.259-2.816-6.824-2.242-16.473 1.935-21.532 2.127-2.576 3.062-5.875 3.045-9.132-.003-.372-.036-.7-.046-1.061-6.37 1.633-15.22 2.655-25.033 2.655-9.814 0-18.666-1.022-25.033-2.657z" fill="#3dabef"/><path d="M62.025 162.892c-4.936 0-8.487-1.063-10.567-3.166-1.804-1.823-1.87-3.807-1.838-4.453v-2.54c0-1.254 1.082-2.268 2.422-2.268 1.339 0 2.422 1.014 2.422 2.268l-.017 2.866c.007 0 .026.554.651 1.132.741.682 2.79 1.816 8.09 1.605 1.363-.08 2.465.926 2.513 2.177.051 1.252-.988 2.307-2.325 2.354-.462.016-.913.025-1.351.025zm-9.985-15.785c-1.34 0-2.423-1.014-2.423-2.268v-2.653c0-1.254 1.083-2.268 2.422-2.268 1.34 0 2.422 1.014 2.422 2.268v2.653c0 1.254-1.082 2.268-2.422 2.268zm6.173-95.273c-.143 0-.284-.011-.431-.036-1.315-.223-2.192-1.4-1.957-2.633C57.428 40.78 65.253 37.15 65.583 37c1.216-.54 2.654-.068 3.235 1.054.58 1.125.08 2.479-1.119 3.026-.118.054-5.953 2.855-7.108 8.887-.208 1.095-1.228 1.866-2.378 1.866z" fill="#fff"/><path d="M70.853 15.37c-4.345 0-7.867 1.1-7.867 2.455v7.366c0 1.356 3.522 2.456 7.867 2.456 4.345 0 7.866-1.1 7.866-2.456v-7.366c0-1.356-3.521-2.456-7.866-2.456z" fill="#003879"/><path d="M70.485 21.787h-1.97c-.668 0-1.21-.508-1.21-1.134 0-.626.542-1.134 1.21-1.134h1.97c.668 0 1.21.508 1.21 1.134 0 .626-.542 1.134-1.21 1.134z" fill="#1a69b7"/><path d="M133.392 183.638H101.78c-21.483 0-20.43-93.401-20.43-93.401 0-4.94 72.474-4.94 72.474 0 0 0 1.145 93.401-20.43 93.401z" fill="#dae7ef"/><path d="M133.392 184.629H101.78c-2.21 0-4.281-.84-6.152-2.497-16.098-14.235-15.446-88.74-15.41-91.905 0-4.075 23.413-4.687 37.368-4.687 13.954 0 37.37.612 37.37 4.697.038 3.15.764 77.594-15.37 91.877-1.882 1.669-3.966 2.515-6.193 2.515zm-15.807-97.107c-22.556 0-34.141 1.696-35.162 2.901.048.59-.627 76.661 14.81 90.316 1.453 1.284 2.942 1.908 4.546 1.908h31.613c1.623 0 3.12-.63 4.585-1.926 15.475-13.7 14.724-89.71 14.715-90.474-.966-1.029-12.55-2.725-35.107-2.725z" fill="#bbd7ea"/><path d="M151.505 123.36c-.07.058-.14.12-.208.179-6.091 5.222-10.174 5.195-16.195-.046-6.205 5.4-11.308 5.44-17.397.14-6.207 5.402-11.31 5.441-17.4.144-6.204 5.399-11.307 4.882-17.398-.418l-.405.211c1.725 26.333 6.418 59.344 19.129 59.344h31.119c12.742 0 17.43-32.877 19.145-59.185l-.39-.37z" fill="#61aad7"/><path d="M98.501 93.6c-4.64 0-7.977.973-9.932 2.898-1.695 1.67-1.758 3.488-1.73 4.08v2.324c0 1.15 1.02 2.078 2.278 2.078 1.259 0 2.276-.928 2.276-2.078l-.014-2.623c.007 0 .024-.508.612-1.037.695-.625 2.623-1.664 7.603-1.47 1.283.073 2.318-.847 2.364-1.992.048-1.148-.928-2.114-2.185-2.157a40.92 40.92 0 00-1.272-.023zm-9.387 14.455c-1.257 0-2.276.93-2.276 2.077v2.429c0 1.15 1.02 2.077 2.276 2.077 1.26 0 2.277-.928 2.277-2.077v-2.43c0-1.147-1.017-2.076-2.277-2.076z" fill="#fff"/></svg>