<svg id="Capa_1" enable-background="new 0 0 497 497" height="512" viewBox="0 0 497 497" width="512" xmlns="http://www.w3.org/2000/svg"><g><path d="m315.372 114.648c2.157-3.052 4.535-5.435 5.149-9.149.15-.908 1.582-2.81 1.582-2.81.15-2.931-.223-5.939-1.184-8.898-2.488-7.659-8.36-13.269-15.421-15.724-1.214-.422-2.025-1.538-2.051-2.823-.153-7.475-3.674-14.792-10.189-19.525-6.515-4.733-14.563-5.821-21.719-3.657-1.23.372-2.542-.054-3.318-1.078-.2-.264-.405-.523-.615-.779 0 0-1.03-.885-1.477-1.35-4.499-4.674-10.776-7.133-17.777-7.133-8.053 0-14.888 4.23-19.405 10.188-.777 1.024-2.088 1.45-3.318 1.078-7.156-2.164-14.677-1.372-21.191 3.362-6.515 4.733-10.009 11.949-10.162 19.423-.026 1.285-.837 2.401-2.051 2.823-7.062 2.455-12.714 7.537-15.202 15.195-2.136 6.202-1.15 15.547 3.16 21.679z" fill="#fff0af"/><path d="m322.103 102.689-123.925-.152c-5.316-.007-7.971-6.385-4.277-10.209 2.722-2.818 6.07-5.086 9.599-6.26 1.22-.42 2.03-1.54 2.05-2.82.08-3.74 1-7.44 2.71-10.8 1.72-3.35 4.22-6.37 7.48-8.73 6.52-4.73 14.57-5.82 21.72-3.66 1.23.38 2.54-.05 3.32-1.08 4.52-5.95 11.67-9.8 19.72-9.8 2.47 0 4.855.356 7.105 1.026-4.53-5.51-11.405-9.026-19.105-9.026-8.05 0-15.2 3.85-19.72 9.8-.78 1.03-2.09 1.46-3.32 1.08-7.15-2.16-15.2-1.07-21.72 3.66-3.26 2.36-5.76 5.38-7.48 8.73-1.71 3.36-2.63 7.06-2.71 10.8-.02 1.28-.83 2.4-2.05 2.82-7.06 2.45-12.93 8.06-15.42 15.72-.513 1.677-1.331 5.159-1.169 8.72h-.011c.361 4.266 1.415 9.065 4.597 13.729l138.005-.284c2.68-3.799 4.361-8.544 4.601-13.264z" fill="#f6d190"/><g><g><path d="m348.5 115.701h-200s-5.222 1.463-7.543 2.936c-4.191 2.66-6.734 7.232-6.734 12.564l3.277 112.894 223.574 1.277 2.426-13.052v-22.37l-4.979-33.684 4.979-33.186v-12.378c0-8.285-6.716-15.001-15-15.001z" fill="#a36b5b"/></g><g><path d="m363.5 232.319v15h-230v-37.36l3.787-31.737-3.787-35.143v-12.38c0-8.28 6.72-14.998 15-14.998v112.618c0 2.209 1.791 4 4 4z" fill="#8e5644"/></g><g><path d="m363.5 143.079v66.87c-2.71 0-4.86.01-4.98.01-17.53.34-17.86 9.99-36.02 9.99-18.51 0-18.51-10-37.01-10s-18.5 10-37 10-18.5-10-36.99-10c-18.5 0-18.5 10-37 10-18.18 0-18.5-9.66-36.06-9.99h-4.94l3.66-34.417-3.66-32.462c2.84 0 5.06 0 5.2.01 17.31.42 17.71 9.99 35.8 9.99 18.5 0 18.5-10 37-10 18.49 0 18.49 10 36.99 10s18.5-10 37-10 18.5 10 37.01 10c18.33 0 18.5-9.82 36.5-10h4.5z" fill="#fff0af"/></g><g><path d="m148.5 144.639v66.87c-2.7-.87-5.89-1.47-10.06-1.55h-4.94v-66.88c2.84 0 5.06 0 5.2.01 4.04.1 7.16.7 9.8 1.55z" fill="#f6d190"/></g><g fill="#f6d190"><circle cx="322.5" cy="192.321" r="7.5"/><circle cx="285.5" cy="171.321" r="7.5"/><circle cx="248.5" cy="192.321" r="7.5"/><circle cx="211.5" cy="171.321" r="7.5"/><circle cx="174.5" cy="192.321" r="7.5"/></g></g><path d="m252.5 245.268h-215s-5.222 1.463-7.543 2.936c-4.191 2.66-6.734 7.232-6.734 12.564l3.277 112.893 223.574 1.277 2.426-13.052v-22.37l-4.979-33.684 4.979-33.186z" fill="#a36b5b"/><path d="m459.5 245.268h-200s-5.222 1.463-7.543 2.936c-4.191 2.66-6.734 7.232-6.734 12.564l3.277 112.894 223.574 1.277 2.426-13.052v-22.37l-4.979-33.684 4.979-33.186v-12.378c0-8.286-6.716-15.001-15-15.001z" fill="#a36b5b"/><path d="m474.5 361.886v15l-112.574 5.166-117.426-5.166v-131.618l7.5-2.577 7.5 2.577v112.618c0 2.209 1.791 4 4 4z" fill="#8e5644"/><path d="m252.5 361.886v15l-119 7.209-111-7.209v-37.36l3.787-31.737-3.787-35.143v-12.38c0-8.28 6.72-14.998 15-14.998v112.618c0 2.209 1.791 4 4 4z" fill="#8e5644"/><path d="m252.5 274.158v65.357c-2.71 0-4.86.01-4.98.01-1.068.021-2.072.076-3.02.161-14.616 1.318-15.946 9.828-33 9.828-18.51 0-18.51-10-37.01-10s-18.5 10-37 10-18.5-10-36.99-10c-18.5 0-18.5 10-37 10-18.18 0-18.5-9.66-36.06-9.99h-4.94l3.66-34.417-3.66-32.462c2.84 0 5.06 0 5.2.01 17.31.42 17.71 9.99 35.8 9.99 18.5 0 18.5-10 37-10 18.49 0 18.49 10 36.99 10s18.5-10 37-10 18.5 10 37.01 10c17.059 0 18.389-8.505 33-9.83 0 0 2.252 1.355 3.5 1.343z" fill="#fff0af"/><g fill="#f6d190"><path d="m37.5 274.206v66.87c-2.7-.87-5.89-1.47-10.06-1.55h-4.94v-66.88c2.84 0 5.06 0 5.2.01 4.04.1 7.16.7 9.8 1.55z"/><circle cx="211.5" cy="321.888" r="7.5"/><circle cx="174.5" cy="300.888" r="7.5"/><circle cx="137.5" cy="321.888" r="7.5"/><circle cx="100.5" cy="300.888" r="7.5"/><circle cx="63.5" cy="321.888" r="7.5"/></g><g><path d="m474.5 272.646v66.87c-2.71 0-4.86.01-4.98.01-17.53.34-17.86 9.99-36.02 9.99-18.51 0-18.51-10-37.01-10s-18.5 10-37 10-18.5-10-36.99-10c-18.5 0-18.5 10-37 10-13.866 0-17.342-5.619-26.002-8.433-2.694-.875-5.671-2.091-9.838-2.169l-4.436-.096 2.936-33.71-2.936-31.184c4.935.029 8.981.396 14.276.284 8.662 2.815 12.134 8.438 26.001 8.438 18.5 0 18.5-10 37-10 18.49 0 18.49 10 36.99 10s18.5-10 37-10 18.5 10 37.01 10c18.33 0 18.5-9.82 36.5-10z" fill="#fff0af"/></g><g><path d="m259.5 274.206v66.87c-.675-.217-1.642-.423-2.711-.609-3.921-.682-7.907-.923-11.885-.792l-.403.013v-66.871c4.124.011 9.132-.123 14.999 1.389z" fill="#f6d190"/></g><g fill="#f6d190"><circle cx="433.5" cy="321.888" r="7.5"/><circle cx="396.5" cy="300.888" r="7.5"/><circle cx="359.5" cy="321.888" r="7.5"/><circle cx="322.5" cy="300.888" r="7.5"/><circle cx="285.5" cy="321.888" r="7.5"/></g><g><path d="m415 455.821h-333c-.924 0-1.841-.029-2.75-.087-22.467-1.418-38.09-20.089-38.09-42.913v-.551h416.33v.551c0 6.604-.978 12.86-3.638 18.451-6.906 14.516-21.707 24.549-38.852 24.549z" fill="#e8e8e8"/><path d="m458 412.271v.55c0 6.61-1.49 12.86-4.15 18.45h-375.394c-3.731 0-6.525 3.362-5.912 7.042 1.009 6.063 3.358 12.536 6.706 17.422-22.47-1.42-40.25-20.084-40.25-42.914v-.55l217.138-8.844z" fill="#d8d8d8"/><path d="m465.074 410.321-431.83.638c-16.568.001-32.244-11.569-32.244-28.138 0-2.761 2.239-5 5-5l14.31-1h471.69c2.761 0 5 2.239 5 5v.449c0 4.659-1.062 9.069-2.957 13.003-4.844 10.057-17.059 15.048-28.969 15.048z" fill="#f8f7f7"/><path d="m494.04 395.271c-4.84 10.06-15.13 17-27.04 17h-437c-16.57 0-30-13.43-30-30v-.45c0-2.76 2.24-5 5-5h15.31c4.52 10.84 15.21 18.45 27.69 18.45z" fill="#e8e8e8"/></g></g></svg>