<svg height="512" viewBox="0 0 489.095 489.095" width="512" xmlns="http://www.w3.org/2000/svg"><path d="M154.784 91.855s17.674 7.368 32.071.167c9.997-5 15.786-15.71 18.392-21.79 1.035-2.416-.238-5.216-2.68-5.893-6.142-1.704-17.718-3.729-27.716 1.272-14.397 7.201-20.067 26.244-20.067 26.244z" fill="#9cc997"/><path d="M154.784 91.855s-16.419 10.067-31.683 5.214C112.5 93.7 105.245 84.023 101.8 78.422c-1.37-2.226-.512-5.194 1.805-6.248 5.83-2.652 16.985-6.476 27.584-3.107 15.265 4.854 23.595 22.788 23.595 22.788z" fill="#9cc997"/><path d="M151.332 117.564a5.066 5.066 0 01-1.896-.369c-2.742-1.099-4.116-4.322-3.068-7.199 7.314-20.083-.998-43.819-1.083-44.056-1.03-2.884.363-6.097 3.112-7.178 2.75-1.08 5.812.38 6.842 3.265.404 1.13 9.793 27.968 1.06 51.95-.81 2.222-2.827 3.587-4.967 3.587z" fill="#b78c7a"/><path d="M336.627 160.119s17.87 6.828 32.063-.808c9.268-4.985 14.677-14.906 17.315-21.19 1.273-3.034-.443-6.543-3.534-7.229-6.404-1.42-17.24-2.602-26.508 2.385-14.193 7.634-19.336 26.842-19.336 26.842z" fill="#9cc997"/><path d="M336.228 180.27c-.216 0-.434-.015-.655-.043-2.913-.376-4.985-3.158-4.627-6.214 2.104-17.965-3.873-36.885-3.934-37.074-.934-2.917.558-6.08 3.338-7.064 2.776-.984 5.793.578 6.734 3.493.28.867 6.819 21.46 4.414 42.005-.331 2.825-2.623 4.896-5.27 4.896z" fill="#b78c7a"/><circle cx="58.699" cy="105.269" fill="#d5717f" transform="scale(.7086 .74336) rotate(-45 203.585 23.778)" r="35.053"/><circle cx="195.104" cy="149.324" fill="#d5717f" transform="scale(.7086 .74337) rotate(-58.663 314.983 99.572)" r="32.655"/><circle cx="115.263" cy="100.854" fill="#dc8995" transform="scale(.7086 .74336) rotate(-45 260.158 19.363)" r="36.802"/><circle cx="37.343" cy="150.111" fill="#dc8995" transform="matrix(.47695 -.55017 .52444 .50036 .88 115.428)" r="36.802"/><circle cx="166.962" cy="200.245" fill="#dc8995" transform="matrix(.61232 -.37471 .35718 .64236 15.489 141.322)" r="32.655"/><path d="M219.538 129.783c.267 5.974-1.31 11.59-4.209 16.24-4.424 7.1-8.286 6.587-16.98 7.016-4.219.209-11.887 4.716-15.496 3.022-8.7-4.082-14.941-13.035-15.42-23.703-.677-15.094 10.437-27.907 24.826-28.618 14.387-.712 26.601 10.948 27.279 26.043z" fill="#dc8995"/><path d="M144.566 204.675c-.678-15.095-12.892-26.754-27.28-26.044-3.216.16-6.27.923-9.063 2.182-9.705 4.372-16.288 14.716-15.762 26.436.678 15.095 12.891 26.755 27.28 26.044 5.395-.266 10.33-2.235 14.357-5.387 6.708-5.254 10.892-13.797 10.468-23.23z" fill="#dc808d"/><path d="M173.642 196.839c5.532 13.952 2.717 24.518-10.582 30.322-6.9 3.01-14.063 7.212-20.388 4.25-5.867-2.747-10.783-7.76-13.446-14.475-5.533-13.952.764-29.967 14.063-35.771 13.301-5.803 24.82 1.722 30.353 15.674z" fill="#dc8995"/><path d="M219.538 129.783c-.678-15.094-12.892-26.755-27.28-26.044a24.993 24.993 0 00-9.404 2.347c8.7 4.083 14.944 13.028 15.423 23.697.52 11.58-5.906 21.811-15.421 26.27a24.91 24.91 0 0011.857 2.348c14.387-.711 25.502-13.524 24.825-28.618zm-42.15 66.137c-5.532-13.953-20.798-20.559-34.098-14.754-.208.09-.407.19-.612.286 5.867 2.747 10.787 7.753 13.45 14.467 5.446 13.735-.576 29.462-13.452 35.485 6.324 2.962 13.75 3.298 20.649.287 13.3-5.804 19.596-21.819 14.063-35.772z" fill="#d5717f"/><circle cx="144.962" cy="147.36" fill="#dc808d" transform="scale(.7086 .74336) rotate(-45 289.862 65.876)" r="36.802"/><circle cx="90.191" cy="147.622" fill="#d5717f" transform="matrix(.47695 -.55017 .52444 .50036 14.43 143.882)" r="36.802"/><circle cx="319.487" cy="190.909" fill="#d5717f" transform="scale(.7086 .74336) rotate(-45 464.413 109.43)" r="35.053"/><circle cx="455.891" cy="234.963" fill="#d5717f" transform="scale(.7086 .74337) rotate(-58.663 575.7 185.246)" r="32.655"/><circle cx="376.05" cy="186.494" fill="#dc8995" transform="scale(.7086 .74336) rotate(-45 520.984 105.016)" r="36.802"/><circle cx="298.13" cy="235.75" fill="#dc8995" transform="matrix(.47695 -.55017 .52444 .50036 16.417 279.64)" r="36.802"/><circle cx="427.749" cy="285.884" fill="#dc8995" transform="matrix(.61232 -.37471 .35718 .64236 10.104 247.789)" r="32.655"/><path d="M404.357 193.454c.268 5.974-1.31 11.59-4.208 16.24-4.425 7.1-8.287 6.587-16.98 7.016-4.22.209-11.888 4.716-15.496 3.022-8.7-4.082-14.942-13.035-15.42-23.703-.678-15.094 10.437-27.907 24.826-28.618 14.387-.712 26.6 10.948 27.278 26.043z" fill="#dc8995"/><path d="M329.385 268.345c-.677-15.094-12.89-26.754-27.279-26.044-3.217.16-6.27.923-9.064 2.182-9.704 4.372-16.288 14.716-15.761 26.436.677 15.095 12.89 26.755 27.28 26.044 5.395-.266 10.33-2.235 14.356-5.387 6.709-5.254 10.892-13.797 10.468-23.23z" fill="#dc808d"/><path d="M358.462 260.51c5.532 13.952 2.718 24.518-10.582 30.322-6.899 3.01-14.063 7.212-20.388 4.25-5.866-2.747-10.783-7.76-13.446-14.474-5.532-13.952.764-29.968 14.064-35.771 13.3-5.805 24.819 1.72 30.352 15.673z" fill="#dc8995"/><path d="M404.357 193.453c-.677-15.095-12.891-26.754-27.28-26.044a25.002 25.002 0 00-9.404 2.347c8.7 4.082 14.945 13.028 15.423 23.697.52 11.58-5.905 21.811-15.42 26.27a24.91 24.91 0 0011.856 2.348c14.388-.71 25.503-13.523 24.825-28.618zm-42.148 66.137c-5.532-13.952-20.8-20.558-34.099-14.753-.207.09-.407.19-.611.286 5.866 2.747 10.786 7.753 13.449 14.467 5.446 13.735-.576 29.462-13.452 35.485 6.324 2.962 13.75 3.298 20.65.287 13.299-5.805 19.595-21.82 14.063-35.772z" fill="#d5717f"/><circle cx="405.75" cy="233" fill="#dc808d" transform="scale(.7086 .74336) rotate(-45 550.69 151.528)" r="36.802"/><circle cx="350.979" cy="233.262" fill="#d5717f" transform="matrix(.47695 -.55017 .52444 .50036 29.966 308.096)" r="36.802"/><path d="M138.65 262.595c-2.44-.495-4.721 1.377-4.85 3.98-.372 7.468.108 22.347 8.289 33.317 11.359 15.233 33.263 17.163 33.263 17.163s3.486-22.767-7.873-38c-8.18-10.97-21.832-15.042-28.83-16.46z" fill="#9cc997"/><path d="M212.312 266.698c-.116-2.604-2.388-4.49-4.83-4.009-7.005 1.378-20.677 5.369-28.916 16.292-11.44 15.166-8.075 37.954-8.075 37.954s21.914-1.802 33.354-16.968c8.24-10.923 8.8-25.8 8.467-33.27z" fill="#9cc997"/><circle cx="91.735" cy="358.462" fill="#d5717f" transform="scale(.7086 .74336) rotate(-45 236.627 277.01)" r="35.053"/><circle cx="228.139" cy="402.517" fill="#d5717f" transform="scale(.7086 .74337) rotate(-58.663 347.962 352.72)" r="32.655"/><circle cx="148.298" cy="354.047" fill="#dc8995" transform="scale(.7086 .74336) rotate(-45 293.198 272.595)" r="36.802"/><circle cx="70.378" cy="403.304" fill="#dc8995" transform="scale(.70889 .74367) rotate(-47.715 209.077 329.243)" r="36.802"/><circle cx="199.997" cy="453.438" fill="#dc8995" transform="matrix(.61232 -.37471 .35718 .64236 -71.806 179.398)" r="32.655"/><path d="M242.95 318.025c.267 5.974-1.31 11.59-4.209 16.24-4.424 7.1-8.287 6.587-16.98 7.016-4.22.209-11.887 4.715-15.496 3.022-8.7-4.082-14.941-13.035-15.42-23.704-.677-15.093 10.437-27.906 24.826-28.617 14.388-.712 26.6 10.948 27.278 26.043z" fill="#dc8995"/><path d="M167.978 392.917c-.678-15.095-12.89-26.755-27.28-26.044-3.216.16-6.27.923-9.063 2.182-9.705 4.372-16.288 14.716-15.762 26.436.678 15.095 12.89 26.754 27.28 26.044 5.395-.266 10.33-2.235 14.356-5.387 6.71-5.255 10.892-13.797 10.469-23.231z" fill="#dc808d"/><path d="M197.054 385.08c5.533 13.953 2.718 24.519-10.581 30.323-6.9 3.01-14.064 7.212-20.388 4.25-5.867-2.747-10.784-7.76-13.446-14.475-5.533-13.952.764-29.967 14.063-35.771 13.3-5.803 24.82 1.722 30.352 15.674z" fill="#dc8995"/><path d="M242.95 318.025c-.678-15.094-12.892-26.755-27.28-26.044-3.35.166-6.518.994-9.404 2.347 8.7 4.082 14.944 13.028 15.422 23.697.52 11.58-5.905 21.811-15.42 26.27a24.91 24.91 0 0011.856 2.348c14.388-.711 25.503-13.524 24.825-28.618zm-42.149 66.137c-5.532-13.952-20.799-20.558-34.098-14.754-.208.091-.408.191-.612.287 5.867 2.747 10.786 7.753 13.449 14.467 5.446 13.735-.575 29.461-13.452 35.485 6.325 2.961 13.75 3.297 20.65.286 13.299-5.804 19.595-21.82 14.063-35.771z" fill="#d5717f"/><circle cx="177.998" cy="400.553" fill="#dc808d" transform="scale(.7086 .74336) rotate(-45 322.902 319.108)" r="36.802"/><circle cx="123.227" cy="400.815" fill="#d5717f" transform="scale(.70889 .74367) rotate(-47.715 261.892 326.764)" r="36.802"/></svg>