<svg height="512" width="512" xmlns="http://www.w3.org/2000/svg"><path d="M305.216 98.787c-6.047 27.392-15.835 49.022-27.668 60.71-6.094 25.696-12.58 198.077-16.928 223.914-1.15 6.835-5.082 6.835-6.232 0-4.348-25.837-11.22-198.218-17.315-223.914-11.833-11.688-21.62-33.318-27.668-60.71-4.913 13.281-11.101 23.62-18.078 29.916 12.676 64.094 27.475 162.433 33.915 293.455.805 16.376 6.452 28.674 13.132 28.674h37.873c6.68 0 12.327-12.298 13.132-28.674 6.44-131.022 21.239-229.361 33.915-293.455-6.977-6.294-13.165-16.635-18.078-29.916z" fill="#98db7c"/><path d="M305.216 98.787c-6.047 27.392-15.835 49.022-27.668 60.71-3.202 13.501-2.38 43.271-5.483 57.987l45.05-55.532a1509.922 1509.922 0 016.178-33.25c-6.976-6.293-13.164-16.634-18.077-29.915zm-68.143 60.71c-11.833-11.688-21.62-33.318-27.668-60.71-4.913 13.281-11.101 23.62-18.078 29.916a1490.82 1490.82 0 015.033 26.766l46.353 60.514c-3.452-16.79-1.977-41.039-5.64-56.486z" fill="#82d361"/><path d="M268.638 131.26c0-10.563-7.41-19.126-16.549-19.126-.434 0-.863.025-1.29.063l.002-.063c0-9.74-6.833-17.636-15.26-17.636-2.645 0-5.132.778-7.3 2.146-2.789-10.433-11.2-18.014-21.142-18.014-9.943 0-18.353 7.58-21.142 18.014-2.168-1.368-4.655-2.146-7.3-2.146-8.428 0-15.26 7.896-15.26 17.636l.002.063a14.462 14.462 0 00-1.29-.063c-9.14 0-16.55 8.562-16.55 19.125 0 8.09 4.348 15 10.488 17.796a24.607 24.607 0 00-.629 5.542c0 11.838 8.304 21.435 18.547 21.435 5.424 0 10.304-2.692 13.695-6.982 3.751 7.953 11.05 13.35 19.439 13.35 8.39 0 15.687-5.397 19.438-13.35 3.392 4.29 8.272 6.982 13.696 6.982 10.243 0 18.547-9.596 18.547-21.435 0-1.917-.221-3.773-.63-5.542 6.14-2.795 10.488-9.706 10.488-17.796z" fill="#348021"/><path d="M268.638 131.26c0-3.934-1.029-7.59-2.79-10.63.37 1.56.572 3.2.572 4.895 0 7.356-3.73 13.701-9.12 16.659-.57.312-.859 1.043-.734 1.756.23 1.32.351 2.684.351 4.082 0 11.411-8.004 20.662-17.878 20.662-4.625 0-8.84-2.03-12.013-5.361-.624-.655-1.604-.493-2.065.323-3.808 6.729-10.385 11.176-17.862 11.176-7.476 0-14.054-4.447-17.862-11.176-.461-.816-1.44-.978-2.064-.323-3.174 3.33-7.389 5.361-12.014 5.361-9.874 0-17.878-9.251-17.878-20.662 0-1.398.122-2.763.352-4.082.124-.713-.166-1.444-.734-1.756-5.391-2.958-9.12-9.303-9.12-16.66 0-1.695.201-3.335.572-4.894-1.762 3.04-2.79 6.695-2.79 10.63 0 8.088 4.347 15 10.487 17.795a24.69 24.69 0 00-.586 7.018c.626 10.625 8.041 19.203 17.235 19.91 5.93.455 11.31-2.312 14.964-6.934 3.751 7.953 11.05 13.35 19.438 13.35 8.39 0 15.688-5.397 19.439-13.35 3.653 4.621 9.033 7.388 14.96 6.934 9.196-.705 16.612-9.283 17.239-19.91a24.69 24.69 0 00-.586-7.019c6.14-2.794 10.487-9.705 10.487-17.795z" fill="#2e701b"/><path d="M227.385 122.179c-.947 5.431-5.098 9.522-10.076 9.522-2.938 0-5.587-1.425-7.46-3.71-.64-.78-1.733-.645-2.204.283-2.029 3.999-5.786 6.684-10.087 6.684-5.747 0-10.521-4.794-11.501-11.11-.236 1.047-.096 1.641-.096 1.641a15.675 15.675 0 00-.092 1.668c0 7.46 5.233 13.508 11.688 13.508 5.06 0 9.368-3.716 10.994-8.915 1.81 3.394 5.054 5.658 8.757 5.658 5.677 0 10.28-5.319 10.28-11.88 0 0 .144-1.507-.203-3.35z" fill="#2e701b"/><path d="M371.59 120.487c0-12.947-9.65-23.444-21.554-23.444-.566 0-1.125.031-1.68.078l.001-.078c0-11.939-8.898-21.618-19.875-21.618-3.445 0-6.684.954-9.509 2.63-3.631-12.788-14.586-22.08-27.536-22.08-12.95 0-23.904 9.292-27.537 22.08-2.824-1.676-6.063-2.63-9.508-2.63-10.977 0-19.875 9.679-19.875 21.618l.001.078a20.005 20.005 0 00-1.68-.078c-11.904 0-21.554 10.496-21.554 23.444 0 9.916 5.663 18.387 13.66 21.814a28.47 28.47 0 00-.82 6.794c0 14.51 10.815 26.275 24.157 26.275 7.065 0 13.42-3.3 17.838-8.56 4.885 9.749 14.391 16.364 25.318 16.364 10.927 0 20.432-6.615 25.318-16.364 4.417 5.26 10.773 8.56 17.838 8.56 13.341 0 24.157-11.764 24.157-26.275 0-2.35-.288-4.626-.82-6.794 7.997-3.427 13.66-11.898 13.66-21.814z" fill="#348021"/><path d="M371.59 120.487c0-4.822-1.34-9.303-3.635-13.03.483 1.912.746 3.923.746 6.001 0 9.017-4.858 16.795-11.88 20.42-.74.383-1.117 1.28-.955 2.153.3 1.617.458 3.29.458 5.003 0 13.989-10.425 25.328-23.286 25.328-6.024 0-11.513-2.489-15.647-6.572-.813-.802-2.088-.604-2.69.396-4.959 8.249-13.526 13.7-23.264 13.7s-18.305-5.451-23.264-13.7c-.601-1-1.877-1.198-2.69-.396-4.134 4.083-9.623 6.572-15.647 6.572-12.86 0-23.286-11.34-23.286-25.328 0-1.713.159-3.386.458-5.003.162-.874-.215-1.77-.955-2.153-7.022-3.625-11.88-11.403-11.88-20.42 0-2.079.264-4.09.747-6-2.295 3.726-3.635 8.207-3.635 13.029 0 9.915 5.662 18.387 13.66 21.814a28.54 28.54 0 00-.764 8.602c.816 13.024 10.474 23.54 22.449 24.406 7.722.558 14.73-2.834 19.49-8.5 4.885 9.749 14.39 16.364 25.318 16.364 10.927 0 20.432-6.615 25.318-16.364 4.758 5.665 11.765 9.057 19.486 8.5 11.976-.865 21.635-11.38 22.452-24.405a28.541 28.541 0 00-.763-8.604c7.996-3.426 13.659-11.897 13.659-21.813z" fill="#2e701b"/><path d="M317.859 109.356c-1.233 6.658-6.64 11.672-13.124 11.672-3.826 0-7.277-1.746-9.717-4.546-.834-.958-2.256-.791-2.87.346-2.642 4.901-7.536 8.193-13.138 8.193-7.485 0-13.703-5.877-14.98-13.618-.307 1.283-.124 2.011-.124 2.011-.077.67-.12 1.352-.12 2.045 0 9.145 6.816 16.558 15.223 16.558 6.59 0 12.201-4.556 14.32-10.929 2.357 4.161 6.583 6.936 11.406 6.936 7.394 0 13.388-6.52 13.388-14.562 0 0 .188-1.848-.264-4.106z" fill="#2e701b"/><path d="M169.483 184.304c4.2 20.778 4.822 38.176 1.644 48.87 3.712 19.575 47.096 144.094 51.784 163.424 1.241 5.114-.87 5.891-3.347 1.232-9.36-17.612-59.92-139.491-70.179-156.657-9.534-6.017-20.672-19.547-31.368-37.935.972 10.467.46 19.081-1.577 24.96 24.235 43.317 58.92 110.696 98.003 203.093 4.885 11.548 10.048 20.798 13.636 19.478l22.788.099c3.588-1.32 2.047-20.386-1.973-32.252-32.162-94.942-50.95-168.17-61.567-216.497-5.459-3.121-11.594-9.29-17.844-17.815z" fill="#98db7c"/><path d="M169.483 184.304c4.2 20.778 4.822 38.176 1.644 48.87 1.95 10.285 10.485 31.406 12.82 42.54l9.1-48.604a1499.488 1499.488 0 01-5.72-24.991c-5.459-3.121-11.594-9.29-17.844-17.815zm-20.098 56.869c-9.534-6.017-20.672-19.547-31.368-37.935.972 10.467.46 19.081-1.577 24.96a1496.34 1496.34 0 019.98 18.142l41.352 34.1c-6.419-11.32-12.22-28.948-18.387-39.267z" fill="#82d361"/><path d="M171.401 221.083c0-6.758-5.05-12.236-11.28-12.236-.295 0-.588.016-.879.04l.001-.04c0-6.232-4.656-11.284-10.4-11.284a9.721 9.721 0 00-4.976 1.373c-1.9-6.675-7.633-11.525-14.41-11.525s-12.51 4.85-14.41 11.525a9.721 9.721 0 00-4.976-1.373c-5.744 0-10.4 5.052-10.4 11.284v.04c-.29-.024-.583-.04-.88-.04-6.228 0-11.278 5.478-11.278 12.236 0 5.175 2.963 9.597 7.148 11.386a14.823 14.823 0 00-.43 3.545c0 7.574 5.66 13.714 12.642 13.714 3.697 0 7.023-1.722 9.335-4.467 2.556 5.088 7.53 8.541 13.249 8.541 5.718 0 10.692-3.453 13.249-8.54 2.311 2.744 5.637 4.466 9.335 4.466 6.981 0 12.64-6.14 12.64-13.714 0-1.226-.15-2.414-.428-3.545 4.185-1.789 7.148-6.21 7.148-11.386z" fill="#348021"/><path d="M171.401 221.083c0-2.517-.701-4.856-1.902-6.8.253.997.39 2.046.39 3.131 0 4.707-2.542 8.766-6.216 10.658-.388.2-.585.668-.5 1.124.156.844.24 1.717.24 2.611 0 7.301-5.456 13.22-12.186 13.22-3.153 0-6.025-1.3-8.188-3.43-.426-.42-1.093-.315-1.408.206-2.595 4.306-7.078 7.15-12.174 7.15-5.096 0-9.58-2.844-12.174-7.15-.315-.521-.982-.625-1.408-.206-2.163 2.131-5.036 3.43-8.188 3.43-6.73 0-12.186-5.919-12.186-13.22 0-.894.083-1.767.24-2.611.085-.456-.112-.924-.5-1.124-3.674-1.892-6.216-5.952-6.216-10.658 0-1.085.137-2.134.39-3.132a12.93 12.93 0 00-1.902 6.8c0 5.176 2.963 9.598 7.148 11.386a14.859 14.859 0 00-.4 4.49c.428 6.798 5.481 12.287 11.748 12.739 4.041.291 7.709-1.48 10.2-4.437 2.556 5.089 7.53 8.542 13.248 8.542 5.718 0 10.693-3.453 13.25-8.542 2.489 2.957 6.156 4.728 10.196 4.437 6.267-.451 11.322-5.94 11.75-12.738a14.86 14.86 0 00-.4-4.49c4.185-1.789 7.148-6.21 7.148-11.386z" fill="#2e701b"/><path d="M143.283 215.273c-.645 3.475-3.474 6.092-6.867 6.092-2.003 0-3.809-.911-5.085-2.373-.437-.5-1.18-.413-1.502.181-1.383 2.558-3.944 4.276-6.875 4.276-3.917 0-7.171-3.067-7.84-7.107-.16.67-.064 1.05-.064 1.05a9.42 9.42 0 00-.063 1.066c0 4.774 3.567 8.643 7.966 8.643 3.45 0 6.385-2.378 7.494-5.704 1.233 2.172 3.445 3.62 5.968 3.62 3.87 0 7.007-3.403 7.007-7.6 0 0 .098-.965-.139-2.144z" fill="#2e701b"/><path d="M217.663 195.875c0-6.758-5.05-12.236-11.28-12.236-.295 0-.588.016-.879.04l.001-.04c0-6.232-4.656-11.284-10.4-11.284a9.721 9.721 0 00-4.976 1.373c-1.9-6.675-7.633-11.525-14.41-11.525s-12.51 4.85-14.41 11.525a9.721 9.721 0 00-4.976-1.373c-5.744 0-10.4 5.052-10.4 11.284v.04c-.29-.024-.583-.04-.88-.04-6.228 0-11.278 5.478-11.278 12.236 0 5.175 2.963 9.597 7.148 11.386a14.823 14.823 0 00-.43 3.545c0 7.574 5.66 13.714 12.642 13.714 3.697 0 7.023-1.722 9.335-4.467 2.556 5.088 7.53 8.541 13.249 8.541 5.718 0 10.692-3.453 13.249-8.541 2.311 2.745 5.637 4.467 9.335 4.467 6.981 0 12.64-6.14 12.64-13.714 0-1.226-.15-2.414-.428-3.545 4.185-1.789 7.148-6.21 7.148-11.386z" fill="#348021"/><path d="M217.663 195.875c0-2.517-.701-4.856-1.902-6.8.253.997.39 2.046.39 3.131 0 4.707-2.542 8.766-6.216 10.658-.388.2-.585.668-.5 1.124.156.844.24 1.717.24 2.611 0 7.301-5.456 13.22-12.186 13.22-3.152 0-6.025-1.3-8.188-3.43-.426-.42-1.093-.315-1.408.206-2.595 4.306-7.078 7.15-12.174 7.15-5.096 0-9.58-2.844-12.174-7.15-.315-.521-.982-.625-1.408-.206-2.163 2.131-5.035 3.43-8.188 3.43-6.73 0-12.185-5.919-12.185-13.22 0-.894.082-1.767.24-2.611.084-.456-.113-.924-.5-1.124-3.675-1.892-6.217-5.952-6.217-10.658 0-1.085.137-2.134.39-3.132a12.93 12.93 0 00-1.902 6.8c0 5.176 2.963 9.598 7.148 11.386a14.859 14.859 0 00-.4 4.49c.428 6.798 5.481 12.287 11.748 12.739 4.041.291 7.709-1.48 10.2-4.437 2.556 5.089 7.53 8.541 13.248 8.541 5.718 0 10.693-3.452 13.25-8.54 2.49 2.956 6.156 4.727 10.196 4.436 6.268-.452 11.322-5.94 11.75-12.738a14.86 14.86 0 00-.4-4.49c4.185-1.789 7.148-6.21 7.148-11.386z" fill="#2e701b"/><path d="M189.545 190.065c-.645 3.475-3.474 6.092-6.867 6.092-2.003 0-3.808-.911-5.085-2.373-.436-.5-1.18-.413-1.502.181-1.383 2.558-3.944 4.276-6.875 4.276-3.917 0-7.171-3.067-7.84-7.107-.16.67-.064 1.05-.064 1.05a9.42 9.42 0 00-.063 1.066c0 4.774 3.567 8.643 7.966 8.643 3.45 0 6.385-2.378 7.494-5.704 1.233 2.172 3.445 3.62 5.969 3.62 3.869 0 7.006-3.403 7.006-7.6 0 0 .098-.965-.139-2.144z" fill="#2e701b"/><path d="M345.395 150.997c-4.199 20.778-4.822 38.176-1.644 48.87-3.712 19.574-47.095 144.094-51.784 163.424-1.24 5.114.871 5.891 3.347 1.231 9.36-17.611 59.92-139.49 70.18-156.656 9.533-6.018 20.671-19.547 31.367-37.935-.972 10.466-.459 19.08 1.577 24.96-24.235 43.317-114.978 255.182-118.567 253.861l-14.629-40.35c-3.588-1.32-3.278-11.227.742-23.094 32.163-94.941 50.95-168.17 61.567-216.497 5.459-3.12 11.594-9.29 17.844-17.814z" fill="#98db7c"/><path d="M345.395 150.997c-4.199 20.778-4.822 38.176-1.644 48.87-1.95 10.285-10.485 31.405-12.82 42.539l-9.1-48.603a1499.485 1499.485 0 005.72-24.992c5.459-3.12 11.594-9.29 17.844-17.814zm20.098 56.869c9.534-6.018 20.672-19.547 31.368-37.935-.972 10.466-.459 19.08 1.577 24.96a1496.34 1496.34 0 00-9.98 18.141l-41.352 34.101c6.419-11.32 12.22-28.948 18.387-39.267z" fill="#82d361"/><path d="M390.029 177.02c0-10.563-7.41-19.126-16.549-19.126-.435 0-.864.026-1.29.064l.001-.064c0-9.74-6.832-17.636-15.26-17.636-2.644 0-5.131.778-7.3 2.146-2.788-10.433-11.199-18.014-21.141-18.014-9.943 0-18.354 7.581-21.142 18.014-2.169-1.368-4.656-2.146-7.3-2.146-8.428 0-15.26 7.896-15.26 17.636l.001.064a14.462 14.462 0 00-1.29-.064c-9.14 0-16.549 8.563-16.549 19.126 0 8.089 4.348 15 10.488 17.796a24.607 24.607 0 00-.63 5.542c0 11.838 8.304 21.435 18.547 21.435 5.425 0 10.305-2.692 13.696-6.983 3.751 7.953 11.05 13.35 19.439 13.35s15.687-5.397 19.438-13.35c3.392 4.29 8.271 6.983 13.696 6.983 10.243 0 18.546-9.597 18.546-21.435 0-1.917-.22-3.774-.629-5.542 6.14-2.796 10.488-9.707 10.488-17.796z" fill="#348021"/><path d="M390.029 177.02c0-3.934-1.03-7.59-2.791-10.63.37 1.56.573 3.2.573 4.895 0 7.356-3.73 13.702-9.121 16.66-.569.311-.858 1.043-.734 1.755.23 1.32.352 2.684.352 4.082 0 11.412-8.004 20.662-17.878 20.662-4.625 0-8.84-2.03-12.014-5.36-.624-.656-1.603-.494-2.064.322-3.808 6.73-10.386 11.176-17.862 11.176-7.477 0-14.054-4.447-17.862-11.176-.461-.816-1.44-.978-2.065-.323-3.174 3.331-7.388 5.361-12.013 5.361-9.874 0-17.879-9.25-17.879-20.662 0-1.398.122-2.762.352-4.082.124-.712-.165-1.444-.733-1.756-5.392-2.957-9.121-9.303-9.121-16.659 0-1.696.202-3.336.573-4.895-1.762 3.04-2.791 6.696-2.791 10.63 0 8.088 4.347 15 10.487 17.795a24.69 24.69 0 00-.585 7.018c.626 10.625 8.04 19.204 17.235 19.91 5.929.456 11.31-2.312 14.964-6.934 3.75 7.953 11.049 13.35 19.438 13.35 8.39 0 15.687-5.397 19.439-13.35 3.653 4.622 9.033 7.389 14.96 6.934 9.195-.705 16.611-9.283 17.238-19.909a24.69 24.69 0 00-.585-7.02c6.14-2.794 10.487-9.705 10.487-17.794z" fill="#2e701b"/><path d="M348.775 167.939c-.946 5.432-5.097 9.522-10.076 9.522-2.937 0-5.587-1.425-7.46-3.709-.64-.78-1.732-.645-2.203.283-2.03 3.998-5.787 6.683-10.088 6.683-5.746 0-10.52-4.794-11.5-11.11-.237 1.047-.096 1.641-.096 1.641a15.675 15.675 0 00-.092 1.668c0 7.46 5.233 13.509 11.688 13.509 5.06 0 9.367-3.717 10.994-8.916 1.81 3.395 5.054 5.659 8.757 5.659 5.677 0 10.28-5.32 10.28-11.88 0 0 .143-1.508-.204-3.35z" fill="#2e701b"/><path d="M434.962 188.922c0-6.758-5.05-12.237-11.28-12.237-.296 0-.588.017-.879.041l.001-.04c0-6.232-4.657-11.284-10.4-11.284a9.721 9.721 0 00-4.976 1.373c-1.901-6.675-7.633-11.525-14.41-11.525s-12.51 4.85-14.41 11.525a9.721 9.721 0 00-4.976-1.373c-5.744 0-10.4 5.052-10.4 11.283v.041c-.29-.024-.583-.04-.88-.04-6.229 0-11.279 5.478-11.279 12.236 0 5.175 2.964 9.597 7.149 11.385a14.823 14.823 0 00-.43 3.546c0 7.574 5.66 13.714 12.642 13.714 3.697 0 7.023-1.722 9.335-4.467 2.556 5.088 7.53 8.54 13.249 8.54 5.718 0 10.692-3.452 13.249-8.54 2.311 2.745 5.637 4.467 9.334 4.467 6.982 0 12.642-6.14 12.642-13.714 0-1.226-.15-2.414-.43-3.546 4.186-1.788 7.149-6.21 7.149-11.385z" fill="#348021"/><path d="M434.962 188.922c0-2.517-.701-4.856-1.902-6.8.252.997.39 2.046.39 3.131 0 4.706-2.542 8.766-6.217 10.658-.387.2-.584.668-.5 1.124.157.844.24 1.717.24 2.611 0 7.301-5.455 13.22-12.185 13.22-3.153 0-6.025-1.3-8.189-3.43-.425-.42-1.092-.316-1.407.206-2.595 4.306-7.078 7.15-12.174 7.15-5.096 0-9.58-2.844-12.175-7.15-.314-.522-.981-.625-1.407-.206-2.163 2.13-5.036 3.43-8.188 3.43-6.73 0-12.186-5.919-12.186-13.22 0-.894.083-1.767.24-2.611.085-.456-.113-.924-.5-1.124-3.675-1.892-6.216-5.952-6.216-10.658 0-1.085.137-2.134.39-3.132-1.201 1.945-1.902 4.284-1.902 6.8 0 5.176 2.963 9.598 7.148 11.386a14.859 14.859 0 00-.4 4.49c.427 6.798 5.481 12.287 11.748 12.739 4.041.291 7.709-1.48 10.199-4.437 2.557 5.088 7.53 8.541 13.249 8.541 5.718 0 10.692-3.453 13.249-8.54 2.49 2.956 6.157 4.726 10.197 4.436 6.267-.452 11.322-5.94 11.75-12.738a14.86 14.86 0 00-.4-4.491c4.185-1.788 7.148-6.21 7.148-11.385z" fill="#2e701b"/><path d="M406.844 183.112c-.645 3.475-3.474 6.092-6.868 6.092-2.002 0-3.808-.911-5.084-2.373-.437-.5-1.181-.413-1.502.18-1.383 2.56-3.944 4.277-6.876 4.277-3.916 0-7.17-3.067-7.838-7.108-.161.67-.066 1.05-.066 1.05a9.42 9.42 0 00-.062 1.067c0 4.773 3.566 8.643 7.966 8.643 3.449 0 6.385-2.378 7.494-5.705 1.233 2.172 3.444 3.62 5.968 3.62 3.87 0 7.006-3.402 7.006-7.6 0 0 .099-.964-.138-2.143z" fill="#2e701b"/></svg>