<svg width="200" height="200" xmlns="http://www.w3.org/2000/svg"><path d="M127.804 29.474c-1.554 0-2.812-1.305-2.812-2.92v-5.839c0-1.615 1.258-2.922 2.812-2.922 1.554 0 2.81 1.307 2.81 2.922v5.839c0 1.615-1.256 2.92-2.81 2.92zm0 0" fill="#f7d291"/><path d="M125.166 26.705c-9.815 1.16-17.948 9.156-19.547 19.28a24.646 24.646 0 00.022 7.927c1.599 9.569 2.32 19.315.62 28.867-1.892 10.644-5.282 20.955-10.39 30.438-2.942 5.461-4.62 11.753-4.62 18.458 0 20.966 16.366 37.952 36.553 37.954V26.554c-.87 0-1.748.046-2.638.15zm0 0" fill="#ff8c5a"/><path d="M125.85 26.705c-7.266 1.16-13.289 9.156-14.47 19.28a33.134 33.134 0 00.013 7.927c1.185 9.569 1.72 19.315.461 28.867-1.4 10.644-3.91 20.955-7.694 30.438-2.177 5.461-3.42 11.753-3.42 18.458 0 20.966 12.118 37.952 27.064 37.954V26.554c-.644 0-1.295.046-1.954.15zm0 0" fill="#ffaa5f"/><path d="M130.442 26.705c9.814 1.16 17.948 9.156 19.546 19.28a24.646 24.646 0 01-.02 7.927c-1.6 9.569-2.322 19.315-.623 28.867 1.893 10.644 5.283 20.955 10.39 30.438 2.944 5.461 4.622 11.753 4.622 18.458 0 20.966-16.366 37.952-36.554 37.954V26.554c.87 0 1.749.046 2.64.15zm0 0" fill="#ffe17d"/><path d="M142.542 113.217c-2.358-9.483-3.922-19.794-4.796-30.438-.784-9.552-.451-19.298.288-28.867.194-2.526.207-5.19.01-7.927-.74-10.124-4.493-18.12-9.023-19.28a4.892 4.892 0 00-1.218-.151 4.87 4.87 0 00-1.216.15c-4.532 1.16-8.285 9.157-9.023 19.281a53.409 53.409 0 00.01 7.927c.738 9.569 1.07 19.315.286 28.867-.873 10.644-2.438 20.955-4.795 30.438-1.358 5.461-2.132 11.753-2.132 18.458 0 20.966 7.553 37.952 16.87 37.954 9.318-.002 16.871-16.988 16.871-37.954 0-6.705-.773-12.997-2.132-18.458zm0 0" fill="#ffc369"/><path d="M51.813 52.09c-1.47.473-3.054-.375-3.546-1.896L46.49 44.69c-.49-1.523.3-3.136 1.77-3.61 1.468-.474 3.055.372 3.546 1.895l1.776 5.503c.49 1.522-.301 3.137-1.77 3.611zm0 0" fill="#f7d291"/><path d="M107.465 121.285c-7.712-7.38-14.051-16.065-19.08-25.519-4.51-8.484-6.79-17.891-8.188-27.398a24.427 24.427 0 00-2.392-7.479c-4.59-9.053-14.71-14.109-24.34-12.209a21.97 21.97 0 00-2.539.662c-.822.265-1.639.576-2.448.947-8.923 4.087-14.18 14.104-12.612 24.132a24.398 24.398 0 002.43 7.467c4.423 8.53 8.07 17.497 9.368 27.017 1.448 10.61 1.38 21.363-.566 31.858-1.119 6.044-.794 12.487 1.246 18.805 6.377 19.763 27.012 30.78 46.095 24.626 19.079-6.158 29.384-27.16 23.008-46.923-2.04-6.317-5.54-11.737-9.982-15.986zm0 0" fill="#ffe17d"/><path d="M103.694 125.47c-7.9-7.557-14.699-16.647-20.212-27.016-4.256-8.008-7.063-17.329-8.827-29.339a18.428 18.428 0 00-1.809-5.642C69.45 56.77 61.786 52.93 54.63 54.342c-.63.125-1.258.29-1.926.506-.667.215-1.276.449-1.859.715C44.211 58.6 40.24 66.195 41.4 73.62a18.343 18.343 0 001.83 5.635c5.585 10.777 8.758 19.98 9.984 28.965 1.587 11.637 1.382 22.986-.61 33.735-.973 5.246-.608 10.745 1.055 15.898 5.385 16.69 22.882 26.036 39.003 20.837 16.12-5.204 24.854-23.013 19.468-39.703-1.662-5.154-4.58-9.829-8.436-13.517zm0 0" fill="#ffc369"/><path d="M101.5 142.418c-3.924-12.16-15.434-19.332-25.709-16.016-10.275 3.315-15.423 15.862-11.5 28.022 3.924 12.16 15.435 19.332 25.709 16.017 10.274-3.315 15.424-15.863 11.5-28.023zm0 0" fill="#ffaa5f"/><path d="M90.868 145.848c-1.96-6.08-7.122-9.856-11.524-8.436-4.405 1.421-6.384 7.502-4.422 13.581 1.961 6.08 7.122 9.859 11.526 8.437 4.402-1.42 6.383-7.502 4.42-13.582zm0 0" fill="#ffc369"/></svg>