<svg height="512" width="512" xmlns="http://www.w3.org/2000/svg"><g fill="#ffe09f"><path d="M108.658 188.35l-6.22 13.72.772 61.636 190.642-6.753V195.21c0-3.789-2.851-6.86-6.368-6.86z"/><path d="M315.555 190.655l-17.993 6.916c-3.312 1.274-5.039 5.198-3.858 8.767l16.764 50.615 11.359 9.938 22.448-9.938-20.582-62.142c-1.182-3.568-4.826-5.428-8.138-4.156z"/><path d="M361.744 211.391c-5.162-5.147-13.22-4.812-17.998.749l-10.14 11.801c-1.568 1.824-1.466 4.672.228 6.36l26.728 26.653 17.43 8.414 29.442-8.416z"/></g><path d="M108.658 236.373V188.35c-7.033 0-12.736 6.143-12.736 13.721v72.435h197.93v-17.553h-166.09c-10.551 0-19.104-9.214-19.104-20.58zm210.12 45.67l32.582-3.698-7.086-21.392h-33.805zm57.486-9.276l46.232-.652-15.061-15.162h-46.873z" fill="#f6d190"/><path d="M124.288 305.52l23.852 26.896h259.62c7.812 0 14.837-5.124 17.738-12.937l2.838-7.644-9.731-5.207z" fill="#f4dbb3"/><path d="M439.799 291.952H115.026l-12.736-7.558c0-7.578 5.703-13.72 12.736-13.72h324.773c7.034 0 12.736 6.143 12.736 13.72 0 7.578-5.702 7.558-12.736 7.558z" fill="#f9eac7"/><path d="M115.026 270.674H70.449c-7.033 0-12.736 6.142-12.736 13.72s5.703 13.721 12.736 13.721h369.35c7.034 0 12.736-6.143 12.736-13.721H127.762c-7.034 0-12.736-6.142-12.736-13.72z" fill="#f4dbb3"/><path d="M154.026 311.835h274.31l5.094-13.72H76.817l7.933 21.364c2.901 7.814 9.926 12.938 17.738 12.938h45.652l-2.618-7.05c-2.406-6.481 2.025-13.532 8.504-13.532z" fill="#eac89f"/></svg>