<svg height="512" viewBox="0 0 497.347 497.347" width="512" xmlns="http://www.w3.org/2000/svg"><path d="M327.263 331.898l14.747 36.436a7.5 7.5 0 0013.905-5.627l-11.802-29.159zM112.275 224.774l-34.467 32.788a7.503 7.503 0 00.454 11.269c2.955 2.41 7.305 2.053 10.067-.575l24.568-23.37zm153.157-50.437l28.575-11.475a7.499 7.499 0 004.165-9.754 7.498 7.498 0 00-9.754-4.165c-3.566 1.92-38.47 16.206-38.47 16.206zm47.421 18.71l26.386-10.594a7.5 7.5 0 00-5.589-13.919l-39.567 15.887zm89.565 62.838l33.46-13.435a7.5 7.5 0 00-5.589-13.919l-39.144 15.717z" fill="#8c5e5e"/><path d="M377.958 221.591c-28.498-21.199-169.88-81.339-204.917-87.165-49.765-8.276-87.594.021-111.867 6.774 8.159 39.648 43.163 89.095 76.972 103.477l172.716 73.468c49.691 21.137 116.658 7.215 145.443 1.175-.366-1.856-1.044-3.767-2.054-5.693-11.437-21.799-31.472-58.694-76.293-92.036z" fill="#ab7b64"/><path d="M315.862 308.145l-172.716-73.468c-33.809-14.381-63.626-54.26-81.972-93.477a632.404 632.404 0 00-7.348 2.099c-11.342 3.301-15.599 13.31-10.111 23.771 11.437 21.798 28.473 56.463 76.292 92.036 30.292 22.534 167.674 80.972 204.917 87.165 58.792 9.777 95.58-1.993 119.216-8.873 9.253-2.694 13.789-9.853 12.166-18.078-28.787 6.04-90.753 9.962-140.444-11.175zm19.756-86.778l-68.141-28.985a7.499 7.499 0 00-9.837 3.966 7.499 7.499 0 003.966 9.837l68.141 28.985a7.499 7.499 0 009.837-3.966 7.499 7.499 0 00-3.966-9.837z" fill="#8c5e5e"/><path d="M401.17 298.785a7.499 7.499 0 009.837-3.966 7.499 7.499 0 00-3.966-9.837l-24.456-10.403a7.499 7.499 0 00-9.837 3.966 7.499 7.499 0 003.966 9.837zm-111.362-55.521a7.499 7.499 0 003.966 9.837l58.484 24.878a7.499 7.499 0 009.837-3.966 7.499 7.499 0 00-3.966-9.837l-58.484-24.878a7.499 7.499 0 00-9.837 3.966zm-177.501-80.298a7.499 7.499 0 00-9.837 3.966 7.499 7.499 0 003.966 9.837l84.422 35.911a7.499 7.499 0 009.837-3.966 7.5 7.5 0 00-3.966-9.837zm121.941 139.535l14.747 36.436a7.5 7.5 0 0013.905-5.627l-11.802-29.159zM81.92 187.867l-37.232 12.6a7.5 7.5 0 004.807 14.208l29.797-10.083z" fill="#8c5e5e"/></svg>