<svg width="200" height="200" xmlns="http://www.w3.org/2000/svg"><path d="M172.714 31.42s-4.407 28.367-27.624 36.624c-22.194 7.894-41.978-13.45-50.093-11.769a3.426 3.426 0 00-1.022.366.06.06 0 00-.019.008l.005-.017c.274-.764 9.173-25.237 32.029-26.84 23.218-1.627 35.85 8.138 46.724 1.628z" fill="#2fcc6e"/><g fill="#23b75f"><path d="M119.556 113.037c-.308-.483-30.716-48.78-22.672-84.737.33-1.478-.698-2.923-2.3-3.228-1.6-.304-3.165.646-3.496 2.123-1.973 8.822-1.992 18.79-.077 29.806-.2 27.569-22.016 56.76-22.237 57.053-.936 1.237-.608 2.94.731 3.803a3.118 3.118 0 001.692.493c.934 0 1.853-.407 2.428-1.168.775-1.024 15.73-21.013 21.268-44.282a172.593 172.593 0 004.686 13.171c6.815 17.022 14.55 29.226 14.876 29.738.551.865 1.539 1.346 2.553 1.346.51 0 1.027-.122 1.498-.378 1.408-.765 1.879-2.44 1.05-3.74z"/><path d="M153.915 43.995c-.418-.82-1.475-1.171-2.362-.785-4.077 1.77-7.1 1.395-12.107.773-2.453-.305-5.351-.663-8.964-.832l3.246-2.996a1.551 1.551 0 000-2.318 1.882 1.882 0 00-2.51 0l-5.664 5.228c-14.371.388-31.858 11.748-32.607 12.24-.8.524-.987 1.547-.42 2.285.347.45.894.69 1.45.69.355 0 .714-.098 1.026-.303.116-.075 7.708-5.005 16.683-8.426l8.533 3.933a1.9 1.9 0 00.792.173c.652 0 1.28-.333 1.59-.908.438-.81.082-1.794-.796-2.198l-5.543-2.554c3.398-1.005 6.844-1.665 10.04-1.665 4.694 0 8.336.374 11.325.735l7.36 5.791a1.86 1.86 0 001.15.392c.503 0 1.001-.195 1.353-.576.636-.689.546-1.724-.2-2.31l-3.338-2.627c3.02.16 5.802-.122 9.114-1.56.886-.386 1.267-1.363.849-2.182z"/></g><path d="M89.486 162.223c-9.001 11.035-23.38 16.619-37.036 13.071-18.514-4.811-28.678-24.586-22.71-44.173 5.974-19.585 22.948-22.136 41.462-17.327 6.801 1.767 12.862 4.282 17.513 7.729" fill="#f94848"/><path d="M66.116 175.294c-18.514-4.811-28.678-24.586-22.709-44.173 3.534-11.589 10.922-17.212 20.199-18.877-15.418-2.222-28.721 2.012-33.866 18.877-5.967 19.587 4.197 39.362 22.71 44.173 5.076 1.318 10.253 1.374 15.215.358a32.032 32.032 0 01-1.549-.358z" fill="#e23d3d"/><path d="M151.829 139.649c0-20.346-15.591-27.047-34.824-27.047-19.232 0-34.822 6.701-34.822 27.047 0 20.347 15.59 36.841 34.822 36.841 19.233 0 34.824-16.494 34.824-36.841z" fill="#f94848"/><path d="M95.888 139.649c0-17.865 12.02-25.206 27.97-26.733a72.063 72.063 0 00-6.853-.314c-19.231 0-34.822 6.701-34.822 27.047 0 20.347 15.59 36.841 34.822 36.841 2.346 0 4.637-.247 6.853-.715-15.95-3.368-27.97-18.262-27.97-36.126z" fill="#e23d3d"/></svg>