<svg height="512" width="512" xmlns="http://www.w3.org/2000/svg"><path d="M191.246 276.314c64.144-6.62 104.332-80.3 123.53-126.946 11.485-27.905-1.32-59.43-29.708-72.212C234.182 54.247 169.02 60.972 169.02 60.972s-65.161 6.726-110.294 39.545c-25.18 18.31-31.276 51.786-14.335 76.757 28.32 41.742 82.71 105.66 146.854 99.04z" fill="#ffe4c1"/><path d="M285.068 77.157a150.412 150.412 0 00-8.266-3.418c6.29 13.508 7.039 29.341.942 44.154-19.198 46.646-59.386 120.326-123.53 126.946-26.05 2.689-50.492-6.258-72.233-20.628 29.108 30.296 67.076 56.458 109.265 52.103 64.144-6.62 104.332-80.3 123.53-126.946 11.485-27.904-1.32-59.43-29.708-72.211z" fill="#f1d0a5"/><path d="M317.241 141.95c-26.493-17.12-59.229-24.024-83.851-26.745-32.511-3.59-58.547-.87-58.813-.854l-.098.01c-.247.026-26.294 2.692-57.393 12.847-23.547 7.693-54.184 21.136-76.621 43.308a54.361 54.361 0 01-5.511-20.664c7.133-6.053 15.072-11.7 23.783-16.923 15.282-9.165 32.969-17.037 52.564-23.405 32.777-10.647 59.58-13.446 61.325-13.626 1.746-.186 28.555-2.915 62.816.814 20.483 2.232 39.405 6.325 56.236 12.176 9.594 3.333 18.519 7.24 26.739 11.708a54.395 54.395 0 01-1.176 21.355z" fill="#e2bcaf"/><path d="M307.996 164.912a372.153 372.153 0 01-8.44 17.155c-22.42-14.344-48.476-20.63-68.462-23.353-28.824-3.927-51.848-1.55-52.09-1.515l-.11.011c-.235.03-23.256 2.384-50.675 12.122-19.009 6.746-43.232 18.222-62.25 36.843a372.69 372.69 0 01-11.766-15.07c6.23-5.844 13.157-11.3 20.75-16.341 13.65-9.057 29.476-16.786 47.039-22.983 29.287-10.325 53.384-12.861 55.055-13.034 1.69-.158 25.773-2.61 56.557 1.515 18.458 2.48 35.529 6.813 50.741 12.891 8.465 3.384 16.36 7.31 23.651 11.759z" fill="#e2bcaf"/><path d="M318.415 120.596c-8.219-4.468-17.144-8.376-26.738-11.709a213.798 213.798 0 00-10.442-3.322 55.765 55.765 0 01-3.491 12.328 419.083 419.083 0 01-2.322 5.524c14.312 4.194 28.817 10.131 41.819 18.533a54.36 54.36 0 001.174-21.354zm-34.069 32.557c-6.269-2.505-12.858-4.708-19.725-6.613a335.77 335.77 0 01-9.218 16.92c14.549 3.766 30.068 9.596 44.153 18.607a372.69 372.69 0 008.44-17.155c-7.291-4.449-15.186-8.375-23.65-11.759z" fill="#d8a595"/><g fill="#e2bcaf"><path d="M256.904 241.422c-19.863-13.699-45.087-19.77-71.023-17.092s-49.388 13.77-66.035 31.237c-.13.137-.246.282-.353.43a160.545 160.545 0 007.194 4.461c15.18-15.674 36.464-25.635 60.026-28.067s46.432 2.973 64.493 15.216a160.1 160.1 0 006.131-5.837 4.261 4.261 0 00-.433-.348z"/><path d="M270.18 227.46c-.017-.011-.031-.024-.047-.036-.688-.489-1.393-.977-2.11-1.467-23.695-16.1-53.543-23.233-84.047-20.085s-58.267 16.227-78.183 36.838c-.592.615-1.183 1.237-1.756 1.856-.014.015-.025.031-.038.046 2.163 1.76 4.36 3.473 6.588 5.136a134.18 134.18 0 011.538-1.626c18.473-19.116 44.285-31.259 72.683-34.19s56.146 3.684 78.123 18.617c.621.425 1.24.854 1.848 1.286a201.24 201.24 0 005.4-6.374z"/><path d="M279.663 210.848c-27.603-18.758-62.261-27.08-97.592-23.434s-67.56 18.872-90.747 42.869a109.84 109.84 0 00-1.59 1.679 245.687 245.687 0 006.09 5.656c.053-.051.107-.1.157-.153a106.8 106.8 0 011.663-1.757c21.756-22.516 52.035-36.804 85.259-40.233s65.783 4.374 91.681 21.974c.669.454 1.332.913 1.985 1.378.06.043.123.079.184.118a246.812 246.812 0 004.807-6.781c-.627-.444-1.26-.885-1.897-1.316z"/></g><path d="M263.27 424.063c49.222 32.882 121.77 2.842 163.295-19.845 24.841-13.573 34.719-44.06 22.359-70.055-22.156-46.595-72.159-79.998-72.159-79.998s-50.003-33.404-101.53-36.03c-28.747-1.465-53.129 19.333-56.156 47.477-5.06 47.047-5.032 125.57 44.19 158.451z" fill="#ffe4c1"/><path d="M448.923 334.163a136.899 136.899 0 00-3.78-7.347c-3.665 13.535-12.636 25.506-25.822 32.711-41.524 22.688-114.074 52.727-163.296 19.846-19.99-13.355-31.867-34.237-38.584-57.482 2.362 39.174 13.453 80.545 45.828 102.172 49.223 32.882 121.772 2.843 163.296-19.845 24.841-13.573 34.719-44.06 22.358-70.055z" fill="#f1d0a5"/><path d="M432.754 400.265c-8.42-28.043-27.373-52.313-43.11-68.767-20.782-21.725-40.781-35.047-40.979-35.191l-.075-.05c-.19-.128-20.164-13.496-48.195-24.379-21.226-8.239-50.904-16.456-80.033-13.496a52.62 52.62 0 018.508-18.29c8.663-.215 17.652.338 26.93 1.655 16.278 2.308 33.478 6.97 51.121 13.851 29.51 11.512 50.097 25.227 51.437 26.122 1.343.891 21.893 14.662 43.826 37.516 13.111 13.665 24.004 27.768 32.37 41.923 4.767 8.066 8.72 16.158 11.838 24.244a52.651 52.651 0 01-13.638 14.862z" fill="#e2bcaf"/><path d="M412.459 411.553a352.904 352.904 0 01-16.245 7.533c-7.213-23.625-21.824-43.52-34.29-57.25-17.979-19.802-35.647-31.605-35.838-31.72l-.084-.057c-.185-.117-17.837-11.934-43.022-20.959-17.456-6.26-41.43-12.14-66.015-9.757.095-6.174.36-12.173.739-17.891 7.9-.595 16.06-.496 24.44.295 15.063 1.427 30.864 5.101 46.971 10.911 26.854 9.695 45.376 22.011 46.658 22.868 1.288.879 19.748 13.248 38.99 34.347 11.535 12.655 20.978 25.845 28.064 39.214 3.941 7.44 7.156 14.94 9.632 22.466z" fill="#e2bcaf"/><path d="M446.392 385.402c-3.118-8.086-7.07-16.178-11.84-24.244a193.504 193.504 0 00-5.373-8.557 53.508 53.508 0 01-9.858 6.926 399.095 399.095 0 01-4.952 2.658c7.581 11.467 14.253 24.317 18.385 38.079a52.618 52.618 0 0013.638-14.862zm-43.565 3.686c-2.92-5.51-6.246-10.987-9.948-16.41a317.402 317.402 0 01-16.653 6.904c8.005 11.294 15.456 24.662 19.987 39.504a353.413 353.413 0 0016.245-7.533c-2.475-7.526-5.69-15.026-9.63-22.465z" fill="#d8a595"/><g fill="#e2bcaf"><path d="M330.519 437.244c-5.795-21.653-19.948-40.9-39.851-54.195s-43.102-19.001-65.324-16.064a3.846 3.846 0 00-.507.105 147.956 147.956 0 002.4 7.478c20.11-2.494 41.101 2.763 59.182 14.841s30.973 29.458 36.37 48.99c2.603-.143 5.214-.363 7.827-.647a3.967 3.967 0 00-.097-.508z"/><path d="M348.26 434.88c-.005-.019-.007-.037-.012-.055-.191-.76-.396-1.53-.608-2.308-7.058-25.654-23.836-48.394-47.244-64.03s-50.84-22.431-77.253-19.127c-.787.1-1.577.206-2.352.32-.019.003-.036.008-.055.01.47 2.554.993 5.093 1.567 7.614.685-.1 1.379-.193 2.06-.28 24.5-3.065 49.993 3.265 71.785 17.822s37.4 35.685 43.946 59.478c.183.675.362 1.352.532 2.023 2.55-.435 5.095-.925 7.633-1.468z"/><path d="M364.915 428.354c-8.22-29.886-27.679-56.32-54.79-74.43s-58.982-25.967-89.735-22.119c-.712.088-1.422.186-2.129.288.259 2.567.558 5.135.904 7.7.068-.007.135-.01.202-.02.737-.11 1.48-.209 2.228-.302 28.854-3.61 58.785 3.781 84.28 20.813s43.784 41.852 51.497 69.893c.2.723.392 1.447.574 2.17.016.066.04.13.059.194 2.5-.663 4.988-1.369 7.459-2.113-.176-.692-.358-1.385-.549-2.074z"/></g></svg>