<?xml version="1.0" encoding="iso-8859-1"?>
<!-- Generator: Adobe Illustrator 21.0.0, SVG Export Plug-In . SVG Version: 6.00 Build 0)  -->
<svg version="1.1" id="Capa_1" xmlns="http://www.w3.org/2000/svg" xmlns:xlink="http://www.w3.org/1999/xlink" x="0px" y="0px"
	 viewBox="0 0 512 512" style="enable-background:new 0 0 512 512;" xml:space="preserve">
<path style="fill:#F5B97D;" d="M498.985,288.17c-3.838,0.564-7.762,0.862-11.757,0.862c-36.782,0-67.912-24.061-78.59-57.295
	c-1.826-5.681-6.465-10.055-12.327-11.171c-61.084-11.63-107.277-65.257-107.277-129.727c0-27.077,8.174-52.228,22.155-73.177
	c3.324-4.981,0.55-11.615-5.324-12.778C289.737,1.69,273.068,0,256.002,0c-141.385,0.001-256,114.615-256,256
	c0,141.384,114.615,256,256,256c127.423,0,232.787-92.752,252.604-214.608C509.505,291.863,504.526,287.357,498.985,288.17z"/>
<g>
	<circle style="fill:#CD916E;" cx="140.392" cy="173.42" r="33.03"/>
	<circle style="fill:#CD916E;" cx="156.902" cy="338.58" r="24.774"/>
</g>
<path style="fill:#A06E50;" d="M404.655,338.581c-3.032,0-5.944-1.669-7.395-4.565l-8.258-16.516
	c-2.04-4.081-0.387-9.04,3.694-11.081c4.073-2.032,9.032-0.387,11.081,3.694l8.258,16.516c2.04,4.081,0.387,9.04-3.694,11.081
	C407.155,338.299,405.897,338.581,404.655,338.581z"/>
<g>
	<path style="fill:#B67F5F;" d="M313.816,289.032c-3.032,0-5.944-1.669-7.395-4.565c-2.04-4.081-0.387-9.04,3.694-11.081
		l16.516-8.258c4.081-2.024,9.032-0.387,11.081,3.694c2.04,4.081,0.387,9.04-3.694,11.081l-16.516,8.258
		C316.316,288.75,315.058,289.032,313.816,289.032z"/>
	<path style="fill:#B67F5F;" d="M90.849,272.516c-3.032,0-5.944-1.669-7.395-4.565l-8.258-16.516
		c-2.04-4.081-0.387-9.04,3.694-11.081c4.073-2.024,9.032-0.387,11.081,3.694l8.258,16.516c2.04,4.081,0.387,9.04-3.694,11.081
		C93.349,272.234,92.091,272.516,90.849,272.516z"/>
	<path style="fill:#B67F5F;" d="M198.204,421.161c-3.032,0-5.944-1.669-7.395-4.565c-2.04-4.081-0.387-9.04,3.694-11.081
		l16.516-8.258c4.081-2.032,9.032-0.387,11.081,3.694c2.04,4.081,0.387,9.04-3.694,11.081l-16.516,8.258
		C200.704,420.879,199.446,421.161,198.204,421.161z"/>
	<path style="fill:#B67F5F;" d="M214.712,99.097c-2.113,0-4.226-0.806-5.839-2.419l-8.258-8.258c-3.226-3.226-3.226-8.452,0-11.677
		c3.226-3.226,8.452-3.226,11.677,0L220.55,85c3.226,3.226,3.226,8.452,0,11.677C218.938,98.291,216.825,99.097,214.712,99.097z"/>
</g>
<g>
	<path style="fill:#A06E50;" d="M198.196,289.032c-2.113,0-4.226-0.806-5.839-2.419l-8.258-8.258c-3.226-3.226-3.226-8.452,0-11.677
		c3.226-3.226,8.452-3.226,11.677,0l8.258,8.258c3.226,3.226,3.226,8.452,0,11.677C202.421,288.226,200.309,289.032,198.196,289.032
		z"/>
	<path style="fill:#A06E50;" d="M289.034,462.452c-4.565,0-8.258-3.694-8.258-8.258v-8.258c0-4.565,3.694-8.258,8.258-8.258
		c4.564,0,8.258,3.694,8.258,8.258v8.258C297.292,458.758,293.599,462.452,289.034,462.452z"/>
	<path style="fill:#A06E50;" d="M239.486,148.646c-2.113,0-4.226-0.806-5.839-2.419c-3.226-3.226-3.226-8.452,0-11.677l8.258-8.258
		c3.226-3.226,8.452-3.226,11.677,0c3.226,3.226,3.226,8.452,0,11.677l-8.258,8.258
		C243.712,147.839,241.599,148.646,239.486,148.646z"/>
</g>
<g>
	<path style="fill:#F5B97D;" d="M362.343,66.935l-2.369,14.215c-1.947,11.683,4.648,23.111,15.738,27.27l20.975,7.866
		c13.855,5.195,29.145-2.833,32.733-17.188l7.477-29.906c4.66-18.639-12.751-35.259-31.153-29.738l-26.083,7.825
		C370.613,49.992,363.896,57.616,362.343,66.935z"/>
	<path style="fill:#F5B97D;" d="M445.937,156.904l-9.973,4.987c-7.822,3.911-11.239,13.241-7.794,21.278l8.024,18.722
		c4.858,11.335,19.974,13.541,27.869,4.067l12.908-15.49c6.052-7.263,4.785-18.114-2.778-23.786l-10.958-8.219
		C458.229,154.71,451.533,154.106,445.937,156.904z"/>
	<circle style="fill:#F5B97D;" cx="495.482" cy="107.36" r="16.516"/>
</g>
<g>
	<path style="fill:#E3AA75;" d="M286.97,481.032c-141.385,0-256-114.615-256-256c0-62.808,22.623-120.333,60.158-164.874
		C35.404,107.119,0.002,177.423,0.002,256c0,141.384,114.615,256,256,256c78.626,0,148.85-35.315,195.763-90.992
		C407.273,458.48,349.801,481.032,286.97,481.032z"/>
	<path style="fill:#E3AA75;" d="M400.361,97.119c-13.852-5.195-22.09-19.468-19.658-34.06l2.824-16.941l-3.865,1.16
		c-9.048,2.715-15.765,10.339-17.319,19.657l-2.369,14.215c-1.947,11.683,4.648,23.111,15.738,27.27l20.975,7.866
		c11.124,4.171,23.165-0.172,29.34-9.48L400.361,97.119z"/>
	<path style="fill:#E3AA75;" d="M504.776,114.581c-9.121,0-16.516-7.395-16.516-16.516c0-2.14,0.411-4.198,1.152-6.074
		c-6.123,2.417-10.442,8.383-10.442,15.365c0,9.121,7.395,16.516,16.516,16.516c6.982,0,12.947-4.319,15.364-10.442
		C508.973,114.17,506.916,114.581,504.776,114.581z"/>
	<path style="fill:#E3AA75;" d="M453.814,191.249l-9.088-21.204c-1.707-3.982-1.849-8.223-0.815-12.129l-7.948,3.974
		c-7.822,3.911-11.239,13.241-7.794,21.279l8.024,18.722c4.858,11.335,19.974,13.541,27.868,4.068l3.208-3.85
		C461.594,200.949,456.405,197.294,453.814,191.249z"/>
</g>
<g>
	<path style="fill:#B67F5F;" d="M157.938,188.904c-18.243,0-33.032-14.789-33.032-33.032c0-4.569,0.929-8.92,2.606-12.878
		c-11.845,5.02-20.155,16.751-20.155,30.426c0,18.243,14.789,33.032,33.032,33.032c13.674,0,25.406-8.31,30.425-20.155
		C166.857,187.974,162.506,188.904,157.938,188.904z"/>
	<path style="fill:#B67F5F;" d="M169.809,350.452c-13.682,0-24.774-11.092-24.774-24.774c0-3.494,0.74-6.81,2.046-9.825
		c-8.789,3.806-14.949,12.54-14.949,22.728c0,13.682,11.092,24.774,24.774,24.774c10.188,0,18.922-6.16,22.728-14.949
		C176.619,349.711,173.303,350.452,169.809,350.452z"/>
</g>
<circle style="fill:#CD916E;" cx="313.812" cy="363.36" r="33.03"/>
<path style="fill:#B67F5F;" d="M331.357,378.839c-18.243,0-33.032-14.789-33.032-33.032c0-4.569,0.929-8.92,2.606-12.878
	c-11.845,5.02-20.155,16.751-20.155,30.426c0,18.243,14.789,33.032,33.032,33.032c13.674,0,25.406-8.31,30.425-20.155
	C340.277,377.909,335.925,378.839,331.357,378.839z"/>
<circle style="fill:#CD916E;" cx="247.402" cy="214.71" r="16.516"/>
<path style="fill:#B67F5F;" d="M256.174,222.452c-9.122,0-16.516-7.395-16.516-16.516c0-2.285,0.465-4.46,1.303-6.439
	c-5.922,2.51-10.077,8.376-10.077,15.213c0,9.121,7.394,16.516,16.516,16.516c6.837,0,12.703-4.155,15.213-10.077
	C260.634,221.987,258.458,222.452,256.174,222.452z"/>
<g>
</g>
<g>
</g>
<g>
</g>
<g>
</g>
<g>
</g>
<g>
</g>
<g>
</g>
<g>
</g>
<g>
</g>
<g>
</g>
<g>
</g>
<g>
</g>
<g>
</g>
<g>
</g>
<g>
</g>
</svg>
