<svg width="200" height="200" xmlns="http://www.w3.org/2000/svg"><path d="M79.355 83.138c-54.559 55.362-54.264 73.339-42.67 84.119 11.593 10.78 30.096 10.28 84.656-45.082s54.265-73.338 42.67-84.118c-11.594-10.78-30.096-10.28-84.656 45.081z" fill="#8ce16e"/><path d="M42.584 138.592c11.594 10.78 30.097 10.28 84.657-45.081 15.872-16.106 27.087-29.038 34.739-39.554 2.635-3.62 8.55-.929 7.507 3.405-3.091 12.84-16.232 32.43-48.146 64.813-54.56 55.362-73.063 55.861-84.657 45.082-6.09-5.663-9.041-13.324-2.579-27.336 1.483-3.215 5.77-3.862 8.422-1.382l.057.053z" fill="#7dc86e"/><path d="M94.289 131.173c1.266 1.177 3.257 1.177 4.48-.011a922.63 922.63 0 004.49-4.397c1.232-1.214 1.2-3.183-.07-4.397-1.28-1.068-3.301-1.218-4.53-.006a901.864 901.864 0 01-4.46 4.366c-1.24 1.206-1.221 3.175.04 4.398l.05.047z" fill="#64b464"/><path d="M71.28 109.784l.05.047c1.313 1.17 3.34 1.103 4.525-.153a899.443 899.443 0 014.296-4.518c1.195-1.244.973-3.21-.204-4.396-1.304-1.179-3.33-1.125-4.525.124a919.767 919.767 0 00-4.326 4.549c-1.169 1.238-1.082 3.17.184 4.347zm35.654-13.81c1.29 1.199 3.314 1.173 4.528-.059l2.195-2.228c1.214-1.23 1.153-3.197-.137-4.396-1.289-1.199-3.314-1.173-4.528.059l-2.195 2.227c-1.214 1.232-1.152 3.198.137 4.397zm14.818-33.178l.023.021c1.29 1.199 3.314 1.173 4.528-.059 1.213-1.231 1.152-3.197-.137-4.396s-3.326-1.184-4.54.048c-1.213 1.231-1.163 3.187.126 4.386zm5.214 21.922l.023.021c1.289 1.2 3.314 1.173 4.528-.058 1.213-1.232 1.152-3.198-.137-4.397-1.29-1.199-3.326-1.183-4.54.048-1.213 1.232-1.163 3.188.126 4.386z" fill="#7dc86e"/><path d="M120.906 108.965l.023.021c1.29 1.199 3.314 1.173 4.528-.059 1.214-1.231 1.152-3.197-.137-4.396-1.29-1.2-3.326-1.183-4.54.048-1.213 1.232-1.163 3.187.126 4.386z" fill="#64b464"/><path d="M135.473 67.016l.022.02c1.29 1.2 3.315 1.173 4.528-.058 1.214-1.231 1.153-3.198-.137-4.397s-3.326-1.183-4.54.049c-1.212 1.23-1.162 3.187.127 4.386zm-.435-13.211l.023.022c1.29 1.198 3.314 1.172 4.528-.06 1.213-1.23 1.152-3.197-.137-4.396s-3.326-1.183-4.54.048c-1.213 1.232-1.163 3.188.126 4.386zm-21.953 22.276c1.29 1.199 3.326 1.183 4.54-.048s1.163-3.187-.126-4.386l-.023-.021c-1.29-1.199-3.314-1.173-4.528.059s-1.152 3.198.137 4.396zM90.858 89.564c1.29 1.199 3.326 1.183 4.54-.048 1.213-1.231 1.163-3.187-.126-4.386l-.023-.021c-1.29-1.199-3.315-1.173-4.528.059-1.214 1.231-1.152 3.198.137 4.396zm57.924-31.518l.023.022c1.289 1.198 3.314 1.172 4.528-.06s1.152-3.197-.138-4.396c-1.289-1.198-3.325-1.183-4.539.049s-1.164 3.187.126 4.385zM36.684 167.257c-3.006-2.796-5.239-6.084-5.966-10.374 3.568-8.65 13.001-21.623 31.844-42.244 1.164-1.274 3.187-1.373 4.519-.222 1.375 1.124 1.47 3.118.305 4.39-20.916 22.89-31.558 37.978-31.833 45.061l60.267-61.153c1.213-1.231 3.238-1.258 4.528-.059 1.289 1.199 1.35 3.165.137 4.397l-60.267 61.153c7.273-.577 22.328-11.562 44.958-32.858 1.259-1.185 3.312-1.16 4.528.104 1.242 1.242 1.228 3.21-.031 4.394-20.387 19.186-33.318 28.906-42.06 32.747-4.442-.518-7.922-2.54-10.929-5.336z" fill="#7dc86e"/><path d="M36.684 167.257c-3.007-2.797-5.242-6.085-5.964-10.38 1.942-4.705 5.622-10.691 11.604-18.488.065.056.14.091.204.15l.057.053c1.51 1.404 3.14 2.61 4.949 3.534-7.797 10.164-11.814 17.44-11.98 21.742l19.534-19.821c3.149.107 6.765-.513 11.005-2.096l-25.875 26.255c7.274-.577 22.329-11.562 44.958-32.859 1.26-1.184 3.313-1.16 4.529.105 1.242 1.242 1.228 3.21-.031 4.394-20.387 19.186-33.318 28.906-42.06 32.747-4.443-.518-7.923-2.54-10.93-5.336z" fill="#64b464"/></svg>