<svg id="Capa_1" enable-background="new 0 0 512 512" height="512" viewBox="0 0 512 512" width="512" xmlns="http://www.w3.org/2000/svg"><g><g><path d="m69.998 319.857h239.994v122.143h-239.994z" fill="#80b6ff"/><path d="m69.998 197.715h239.994v122.143h-239.994z" fill="#a0c8ff" transform="matrix(-1 0 0 -1 379.991 517.572)"/><circle cx="441.989" cy="310" fill="#80b6ff" r="59.999"/><circle cx="397.99" cy="353.252" fill="#80b6ff" r="59.999"/><circle cx="353.991" cy="396.503" fill="#80b6ff" r="59.999"/><circle cx="441.989" cy="190" fill="#a0c8ff" r="59.999"/><circle cx="397.99" cy="233.252" fill="#a0c8ff" r="59.999"/><circle cx="353.991" cy="276.503" fill="#a0c8ff" r="59.999"/><g fill="#bfdbff"><circle cx="201.995" cy="70" r="59.999"/><circle cx="157.996" cy="113.252" r="59.999"/><circle cx="113.997" cy="156.503" r="59.999"/><circle cx="321.992" cy="70" r="59.999"/><circle cx="277.993" cy="113.252" r="59.999"/><circle cx="233.994" cy="156.503" r="59.999"/><circle cx="441.989" cy="70" r="59.999"/><circle cx="397.99" cy="113.252" r="59.999"/><circle cx="353.991" cy="156.503" r="59.999"/></g><circle cx="69.998" cy="442" fill="#80b6ff" r="59.999"/><circle cx="189.995" cy="442" fill="#80b6ff" r="59.999"/><circle cx="309.992" cy="442" fill="#80b6ff" r="59.999"/><circle cx="69.998" cy="319.857" fill="#a0c8ff" r="59.999"/><circle cx="189.995" cy="319.857" fill="#a0c8ff" r="59.999"/><circle cx="309.992" cy="319.857" fill="#a0c8ff" r="59.999"/><circle cx="69.998" cy="199.755" fill="#bfdbff" r="59.999"/><circle cx="189.995" cy="199.755" fill="#bfdbff" r="59.999"/><circle cx="309.992" cy="199.755" fill="#bfdbff" r="59.999"/></g><g><path d="m512 190c0-15.997-5.537-31.639-15.59-44.045-5.155-6.361-11.39-11.734-18.331-15.917 20.664-12.361 33.921-34.841 33.921-60.038 0-38.598-31.402-70-70.001-70-25.034 0-47.575 13.266-59.988 33.88-12.37-20.64-34.838-33.88-60.015-33.88-25.034 0-47.575 13.266-59.988 33.879-12.368-20.639-34.832-33.879-60.004-33.879-29.948 0-56.333 18.982-66.072 46.822-20.289 6.736-36.755 22.536-44.001 43.251-20.291 6.739-36.758 22.545-44.004 43.268-27.811 9.268-47.927 35.528-47.927 66.414 0 25.473 13.681 47.804 34.077 60.051-20.396 12.247-34.077 34.579-34.077 60.051 0 26.202 14.48 49.074 35.849 61.071-21.369 11.998-35.849 34.87-35.849 61.072 0 38.598 31.402 70 70 70 25.436 0 47.741-13.641 60-33.988 12.258 20.347 34.564 33.988 60 33.988s47.741-13.641 59.999-33.988c12.258 20.347 34.564 33.988 60 33.988 31.403 0 58.04-20.788 66.881-49.324 20.504-7.059 36.226-23.088 43.189-42.981 20.949-6.906 37-23.077 44.033-43.282 3.371-1.123 6.662-2.498 9.829-4.123 1.45-.74 2.91-1.561 4.34-2.42 2.28-1.38 3.89-3.57 4.53-6.16.64-2.601.23-5.28-1.15-7.57-1.83-3.02-5.03-4.83-8.57-4.83-1.788 0-3.545.492-5.091 1.41-.121-15.812-5.637-31.247-15.578-43.515-5.155-6.361-11.39-11.733-18.331-15.916 11.748-7.028 21.095-17.328 26.978-29.539 10.818 4.444 19.895 12.617 25.432 23.44 1.72 3.36 5.14 5.44 8.91 5.44 1.59 0 3.12-.37 4.55-1.1 4.91-2.521 6.85-8.551 4.34-13.461-5.974-11.649-15.024-21.338-26.185-28.046 20.648-12.364 33.894-34.836 33.894-60.023zm-70.001-170c27.571 0 50.001 22.43 50.001 50 0 17.915-9.378 33.905-24.013 42.758-.263-37.798-30.633-68.554-68.277-69.465 8.973-14.203 24.773-23.293 42.289-23.293zm-44.001 43.25c27.571 0 50.001 22.43 50.001 50 0 4.274-.927 9.819-1.938 13.803-.01.035-.008.027-.004.012-3.633 11.557-11.723 22.683-22.071 28.943-.263-37.798-30.633-68.554-68.277-69.465 8.973-14.203 24.773-23.293 42.289-23.293zm4.062 107.053c-.01.035-.008.027-.004.012-3.633 11.556-11.723 22.683-22.07 28.943-.266-37.796-30.634-68.549-68.276-69.459 8.974-14.206 24.774-23.298 42.288-23.298 27.571 0 50.001 22.43 50.001 50-.001 4.273-.928 9.817-1.939 13.802zm0 119.998c-.009.033-.007.025-.004.011-3.632 11.562-11.721 22.684-22.073 28.946-.214-25.222-13.827-47.302-34.062-59.452 11.647-6.994 21.104-17.274 27.074-29.554 18.369 7.593 31.004 25.883 31.004 46.248-.001 4.275-.927 9.815-1.939 13.801zm-152.062-126.558c-11.981-19.886-33.564-33.344-58.282-33.944 8.973-14.206 24.769-23.298 42.278-23.298 20.275 0 38.096 12.015 45.886 30.076-12.416 5.943-22.817 15.439-29.882 27.166zm60-13.988c27.57 0 49.999 22.43 49.999 50s-22.43 50-49.999 50c-27.57 0-50-22.43-50-50s22.43-50 50-50zm-70 50c0 27.57-22.43 50-49.999 50-27.57 0-49.999-22.43-49.999-50s22.43-50 49.999-50c27.57 0 49.999 22.43 49.999 50zm-85.922 60.051c-9.857 5.919-18.144 14.191-24.077 24.039-5.933-9.848-14.22-18.12-24.077-24.039 9.857-5.919 18.144-14.191 24.077-24.039 5.933 9.848 14.22 18.12 24.077 24.039zm35.923 10.051c27.569 0 49.999 22.43 49.999 50s-22.43 50-49.999 50c-27.57 0-49.999-22.43-49.999-50s22.429-50 49.999-50zm35.923-10.051c9.857-5.919 18.144-14.191 24.077-24.039 5.933 9.848 14.22 18.12 24.077 24.039-9.857 5.919-18.144 14.191-24.077 24.039-5.933-9.847-14.22-18.12-24.077-24.039zm84.076 10.051c27.57 0 49.999 22.43 49.999 50s-22.43 50-49.999 50c-27.57 0-50-22.43-50-50s22.43-50 50-50zm11.998-249.857c20.273 0 38.092 12.008 45.882 30.06-12.323 5.873-22.759 15.262-29.869 27.07-12.087-20.169-33.82-33.256-58.298-33.844 8.975-14.199 24.773-23.286 42.285-23.286zm-44 43.25c20.274 0 38.093 12.008 45.883 30.062-12.323 5.874-22.759 15.265-29.87 27.076-12.088-20.173-33.821-33.264-58.298-33.851 8.974-14.2 24.772-23.287 42.285-23.287zm-75.992-43.25c20.268 0 38.083 12.008 45.873 30.06-12.323 5.873-22.759 15.261-29.869 27.069-12.086-20.168-33.815-33.255-58.288-33.843 8.974-14.199 24.772-23.286 42.284-23.286zm-44.001 43.25c20.269 0 38.086 12.009 45.874 30.064-12.319 5.874-22.752 15.264-29.861 27.073-12.088-20.173-33.821-33.263-58.297-33.851 8.974-14.199 24.772-23.286 42.284-23.286zm-44.001 43.25c20.274 0 38.095 12.014 45.885 30.074-12.419 5.943-22.822 15.441-29.888 27.169-11.981-19.887-33.566-33.345-58.285-33.944 8.975-14.207 24.775-23.299 42.288-23.299zm-94.002 93.255c0-27.57 22.43-50 50-50s49.999 22.43 49.999 50-22.43 50-49.999 50c-27.57 0-50-22.43-50-50zm0 120.102c0-27.57 22.43-50 50-50s49.999 22.43 49.999 50-22.43 50-49.999 50c-27.57 0-50-22.429-50-50zm50 172.143c-27.57 0-50-22.43-50-50s22.43-50 50-50 49.999 22.43 49.999 50-22.429 50-49.999 50zm34.151-111.071c10.635-5.971 19.565-14.628 25.849-25.059 6.284 10.431 15.214 19.088 25.849 25.059-10.635 5.971-19.565 14.628-25.849 25.059-6.285-10.431-15.214-19.089-25.849-25.059zm85.848 111.071c-27.57 0-49.999-22.43-49.999-50s22.43-50 49.999-50 49.999 22.43 49.999 50-22.429 50-49.999 50zm34.151-111.071c10.635-5.971 19.564-14.628 25.849-25.059 6.284 10.431 15.214 19.088 25.849 25.059-10.635 5.971-19.565 14.628-25.849 25.059-6.285-10.431-15.214-19.089-25.849-25.059zm85.848 111.071c-27.57 0-50-22.43-50-50s22.43-50 50-50 49.999 22.43 49.999 50-22.429 50-49.999 50zm69.931-52.714c-.962-25.061-15.153-46.777-35.78-58.357 12.485-7.01 22.622-17.724 28.888-30.657 18.345 7.605 30.961 25.885 30.961 46.228 0 17.877-9.411 33.917-24.069 42.786zm68.07-86.036c0 17.914-9.377 33.903-24.011 42.757-.113-15.815-5.627-31.258-15.572-43.534-5.159-6.368-11.399-11.745-18.346-15.931 11.745-7.024 21.091-17.319 26.976-29.523 18.341 7.604 30.953 25.883 30.953 46.231zm-24.011-77.243c-.113-15.822-5.63-31.27-15.58-43.548-5.156-6.362-11.391-11.735-18.333-15.918 11.744-7.024 21.088-17.318 26.973-29.522 18.34 7.605 30.952 25.884 30.952 46.231-.001 17.914-9.379 33.903-24.012 42.757zm44-43.253c-.113-15.824-5.63-31.272-15.579-43.549-5.155-6.361-11.39-11.733-18.331-15.916 11.742-7.024 21.085-17.317 26.969-29.52 18.341 7.606 30.953 25.883 30.953 46.231 0 17.911-9.374 33.897-24.012 42.754z"/><circle cx="499.716" cy="326.359" r="10"/></g></g></svg>