<?xml version="1.0" encoding="iso-8859-1"?>
<!-- Generator: Adobe Illustrator 19.0.0, SVG Export Plug-In . SVG Version: 6.00 Build 0)  -->
<svg version="1.1" id="Layer_1" xmlns="http://www.w3.org/2000/svg" xmlns:xlink="http://www.w3.org/1999/xlink" x="0px" y="0px"
	 viewBox="0 0 512 512" style="enable-background:new 0 0 512 512;" xml:space="preserve">
<path style="fill:#E89C25;" d="M256,0C114.616,0,0,114.616,0,256s114.616,256,256,256s256-114.616,256-256S397.384,0,256,0z
	 M256,337.92c-45.24,0-81.92-36.675-81.92-81.92c0-45.24,36.68-81.92,81.92-81.92s81.92,36.68,81.92,81.92
	C337.92,301.245,301.24,337.92,256,337.92z"/>
<path style="fill:#F8BEB6;" d="M256,0C114.616,0,0,114.616,0,256c0,16.814,1.669,33.234,4.767,49.147
	c16.783,7.624,35.364,14.234,51.553,37.893c35.825,52.362,80.686-14.28,81.92-51.2c0.855-25.626,22.702-35.395,35.999-38.984
	C175.903,209.08,211.82,174.08,256,174.08c45.24,0,81.92,36.68,81.92,81.92c0,9.912-1.848,19.359-5.069,28.155
	c16.399,5.018,33.597-6.267,35.789-17.915c4.147-22.067,22.39-40.049,71.68,30.72c32.819,47.124,58.25-4.46,71.572-36.864L512,256
	C512,114.616,397.384,0,256,0L256,0z"/>
<path style="fill:#EBAB45;" d="M256.051,388.081c-35.098,0-70.211-17.813-92.129-45.041c17.219,35.579,51.999,61.46,92.129,61.46
	c40.141,0,74.921-25.882,92.134-61.46C326.267,370.263,291.159,388.081,256.051,388.081L256.051,388.081z"/>
<path style="fill:#FACEC8;" d="M255.928,49.654c63.918,0,127.872,30.479,168.986,77.45c-33.137-58.158-96.374-97.495-168.986-97.495
	c-72.607,0-135.844,39.337-168.98,97.495C128.067,80.133,192.01,49.654,255.928,49.654L255.928,49.654z"/>
<path style="fill:#E4776E;" d="M90.788,281.533c-2.816-4.787-9.057-6.42-13.937-3.661c-4.879,2.76-6.548,8.873-3.732,13.655
	l15.304,25.974c2.816,4.782,9.057,6.42,13.937,3.661s6.554-8.873,3.732-13.655L90.788,281.533z M209.597,27.305
	c-1.347-4.925-6.502-7.849-11.52-6.528l-27.259,7.173c-5.018,1.321-7.997,6.385-6.651,11.31s6.502,7.849,11.52,6.528l27.259-7.168
	C207.964,37.299,210.939,32.236,209.597,27.305z"/>
<path style="fill:#51B8DA;" d="M170.824,102.687l-30.126,8.033c-5.545,1.48-8.719,7.629-7.081,13.742
	c1.633,6.108,7.46,9.861,13.005,8.381l30.126-8.033c5.545-1.48,8.719-7.634,7.081-13.737
	C182.19,104.96,176.369,101.212,170.824,102.687z M394.158,143.319c-0.01-5.668-4.572-10.266-10.189-10.26
	c-5.622,0-10.168,4.593-10.168,10.266l0.036,30.797c0.005,5.668,4.567,10.266,10.189,10.26c5.622,0,10.173-4.598,10.163-10.266
	L394.158,143.319L394.158,143.319z"/>
<path style="fill:#75C9BA;" d="M486.011,222.351l-8.591-30.264c-1.582-5.571-7.639-8.878-13.537-7.383
	c-5.893,1.495-9.395,7.219-7.813,12.79l8.581,30.269c1.582,5.571,7.639,8.873,13.542,7.383
	C484.091,233.651,487.588,227.927,486.011,222.351z M58.854,94.869c-5.228-3.118-11.75-1.541-14.577,3.517l-15.329,27.469
	c-2.821,5.059-0.876,11.684,4.352,14.797c5.228,3.113,11.75,1.536,14.572-3.517l15.334-27.474
	C66.028,104.607,64.082,97.981,58.854,94.869z M302.259,93.573l-25.969,15.16c-4.787,2.79-6.38,9.057-3.558,13.988
	c2.821,4.936,8.98,6.676,13.763,3.886l25.969-15.16c4.782-2.79,6.374-9.057,3.558-13.988
	C313.201,92.518,307.041,90.783,302.259,93.573z"/>
<path style="fill:#F4F4F4;" d="M81.874,180.593c-4.879-2.76-11.116-1.121-13.937,3.661l-15.304,25.974
	c-2.816,4.787-1.147,10.895,3.732,13.66c4.879,2.76,11.121,1.121,13.937-3.661l15.304-25.979
	C88.428,189.471,86.753,183.357,81.874,180.593L81.874,180.593z M384.148,62.828l-26.061-15.36
	c-4.803-2.826-10.936-1.152-13.706,3.748c-2.77,4.895-1.126,11.162,3.676,13.983l26.061,15.36
	c4.797,2.826,10.931,1.152,13.701-3.748C390.589,71.921,388.951,65.659,384.148,62.828L384.148,62.828z"/>
<path style="fill:#D08C21;" d="M256,143.36c-56.556,0-102.4,45.844-102.4,102.4s45.844,102.4,102.4,102.4s102.4-45.844,102.4-102.4
	S312.556,143.36,256,143.36z M256,337.92c-45.24,0-81.92-36.675-81.92-81.92c0-45.24,36.68-81.92,81.92-81.92
	s81.92,36.68,81.92,81.92C337.92,301.245,301.24,337.92,256,337.92z"/>
<path style="fill:#D69022;" d="M256,484.767c-136.817,0-248.55-107.331-255.631-242.381C0.128,246.892,0,251.428,0,256
	c0,141.384,114.616,256,256,256s256-114.616,256-256c0-4.572-0.128-9.108-0.364-13.619C504.556,377.436,392.817,484.767,256,484.767
	z"/>
<g>
	<path style="fill:#64AB9E;" d="M312.458,106.332l-25.969,15.16c-4.782,2.79-10.941,1.055-13.763-3.886
		c-0.507-0.881-0.819-1.812-1.044-2.749c-0.671,2.55-0.379,5.376,1.044,7.869c2.821,4.936,8.98,6.676,13.763,3.886l25.969-15.16
		c3.932-2.294,5.652-6.927,4.603-11.244C316.411,102.712,314.829,104.945,312.458,106.332z M63.206,104.54l-15.334,27.474
		c-2.821,5.053-9.344,6.63-14.572,3.517c-2.775-1.654-4.593-4.311-5.294-7.188c-1.147,4.572,0.891,9.682,5.294,12.308
		c5.228,3.113,11.75,1.536,14.572-3.517l15.334-27.474c1.321-2.365,1.562-5.074,0.942-7.608
		C63.933,102.907,63.652,103.747,63.206,104.54z M478.188,230.026c-5.898,1.49-11.96-1.812-13.542-7.383l-8.581-30.269l-0.01-0.061
		c-0.43,1.654-0.492,3.415,0.01,5.181l8.581,30.269c1.582,5.571,7.639,8.873,13.542,7.383c5.878-1.49,9.37-7.178,7.828-12.733
		C485.084,225.987,482.227,229.002,478.188,230.026z"/>
</g>
<g>
	<path style="fill:#459DBA;" d="M176.748,119.685l-30.126,8.033c-5.545,1.48-11.372-2.273-13.005-8.381l-0.113-0.655
		c-0.399,1.828-0.42,3.794,0.113,5.775c1.633,6.108,7.46,9.861,13.005,8.381l30.126-8.033c5.35-1.423,8.443-7.199,7.194-13.082
		C183.112,115.538,180.495,118.692,176.748,119.685z M384.026,179.261c-5.627,0-10.184-4.593-10.189-10.26l-0.031-25.733
		l-0.005,0.056l0.036,30.797c0.005,5.668,4.567,10.266,10.189,10.26c5.622,0,10.173-4.598,10.163-10.266l-0.005-5.069
		C394.168,174.694,389.632,179.261,384.026,179.261L384.026,179.261z"/>
</g>
<g>
	<path style="fill:#D3D3D3;" d="M387.82,71.701c-2.77,4.9-8.904,6.574-13.701,3.748l-26.061-15.36
		c-2.401-1.413-4.009-3.686-4.675-6.221c-1.06,4.321,0.707,9.006,4.675,11.341l26.061,15.36c4.797,2.826,10.931,1.152,13.701-3.748
		c1.388-2.452,1.664-5.238,1.004-7.772C388.598,69.955,388.301,70.851,387.82,71.701L387.82,71.701z M85.612,189.133l-15.304,25.979
		c-2.816,4.782-9.057,6.42-13.937,3.661c-2.427-1.372-4.055-3.574-4.736-6.026c-1.116,4.239,0.676,8.847,4.736,11.146
		c4.879,2.76,11.121,1.121,13.937-3.661l15.304-25.979c1.418-2.406,1.695-5.146,1.004-7.634
		C86.385,187.479,86.083,188.329,85.612,189.133L85.612,189.133z"/>
</g>
<g>
	<path style="fill:#C5675F;" d="M102.354,316.047c-4.879,2.76-11.116,1.121-13.937-3.661l-15.304-25.974
		c-0.476-0.804-0.778-1.654-1.004-2.509c-0.691,2.483-0.415,5.228,1.004,7.629l15.304,25.974c2.816,4.782,9.057,6.42,13.937,3.661
		c4.06-2.294,5.857-6.907,4.736-11.146C106.409,312.469,104.781,314.675,102.354,316.047L102.354,316.047z M209.521,27.11
		c-0.881,3.011-3.267,5.519-6.574,6.39l-27.259,7.168c-4.946,1.3-10.015-1.536-11.443-6.333c-0.456,1.556-0.532,3.246-0.077,4.925
		c1.347,4.925,6.502,7.849,11.52,6.528l27.259-7.168c5.018-1.321,7.997-6.385,6.651-11.315
		C209.597,27.305,209.521,27.11,209.521,27.11z"/>
</g>
<g>
	<path style="fill:#DFABA3;" d="M511.636,242.396c-0.425,8.131-1.254,16.154-2.422,24.069c0.942-2.181,1.833-4.316,2.678-6.369
		L512,256c0-4.557-0.128-9.083-0.364-13.578L511.636,242.396L511.636,242.396z M1.101,279.306l0.128,1.684
		c0.804,8.172,1.992,16.225,3.533,24.156l8.069,3.61c-6.922-21.064-11.254-43.295-12.462-66.376C0.128,246.892,0,251.428,0,256
		c0,4.255,0.113,8.484,0.317,12.692C0.502,272.251,0.778,275.784,1.101,279.306L1.101,279.306z"/>
</g>
<path style="fill:#DFABA3;" d="M256,143.36c-56.556,0-102.4,45.844-102.4,102.4c0,5.381,0.538,10.619,1.336,15.775
	c6.472-4.495,13.655-7.153,19.302-8.678C175.903,209.08,211.82,174.08,256,174.08c45.24,0,81.92,36.68,81.92,81.92
	c0,9.912-1.848,19.359-5.069,28.155c6.252,1.91,12.611,1.444,18.222-0.497c4.675-11.735,7.327-24.499,7.327-37.898
	C358.4,189.205,312.556,143.36,256,143.36z"/>
<g>
	<path style="fill:#D69022;" d="M174.239,252.856c-13.297,3.589-35.144,13.358-35.999,38.984
		c-1.234,36.92-46.095,103.562-81.92,51.2c-16.189-23.66-34.77-30.269-51.553-37.893l1.106,5.54
		C22.656,318.31,40.131,324.5,56.32,348.16c35.825,52.362,80.686-14.28,81.92-51.2c0.855-25.626,22.492-35.405,35.789-38.994
		L174.239,252.856L174.239,252.856z M511.892,260.096c-13.322,32.404-38.753,83.988-71.572,36.864
		c-49.29-70.769-67.533-52.787-71.68-30.72c-2.12,11.29-19.881,22.103-35.809,18.207c-0.481,1.597-1.352,3.164-1.92,4.721
		c16.399,5.012,35.538-6.159,37.729-17.807c4.147-22.067,22.39-40.049,71.68,30.72c32.819,47.124,58.25-4.46,71.572-36.864
		L512,261.12l-0.067-2.581L511.892,260.096L511.892,260.096z"/>
</g>
<path style="fill:#BB7E1E;" d="M174.08,256l0.159-3.144c-5.652,1.526-12.831,4.183-19.302,8.678
	c0.236,1.521,0.394,3.067,0.696,4.562c6.205-4.157,12.984-6.671,18.396-8.131l0.067-1.608L174.08,256z M14.792,314.685
	c-0.696-1.956-1.311-3.948-1.961-5.929l-8.069-3.61l0.819,4.101l0.338,1.459L14.792,314.685L14.792,314.685z M332.831,284.447
	c-0.297,0.978-0.727,1.951-1.157,2.908l-0.451,1.06l-0.317,0.748c5.888,1.802,12.124,1.49,17.812-0.154
	c0.906-1.94,1.766-3.896,2.55-5.893C345.533,285.23,339.052,285.967,332.831,284.447L332.831,284.447z M511.933,258.54l-0.041,1.556
	c-0.845,2.053-1.741,4.188-2.678,6.369c-0.415,2.816-0.927,5.601-1.434,8.387c1.423-3.2,2.749-6.328,3.978-9.303
	c0.087-2.324,0.148-4.649,0.174-6.989L511.933,258.54L511.933,258.54z"/>
<g>
</g>
<g>
</g>
<g>
</g>
<g>
</g>
<g>
</g>
<g>
</g>
<g>
</g>
<g>
</g>
<g>
</g>
<g>
</g>
<g>
</g>
<g>
</g>
<g>
</g>
<g>
</g>
<g>
</g>
</svg>
