<svg id="Capa_1" enable-background="new 0 0 512 512" height="512" viewBox="0 0 512 512" width="512" xmlns="http://www.w3.org/2000/svg"><g><g><path clip-rule="evenodd" d="m191.197 235.955c62.257-35.188 69.528-81.064 67.308-149.513-.263-8.702.263-13.345-6.278-7.622-32.88 28.851-40.181 32.91-80.42 47.073-26.369 9.286-46.108 23.712-57.351 41.875 16.732 25.347 1.168 67.339 32.88 82.466z" fill="#95d6a4" fill-rule="evenodd"/></g><g><path clip-rule="evenodd" d="m410.643 71.695-122.586 164.26c-20.207 27.07-6.862 67.456 23.215 82.875 30.077 15.389 85.617-7.563 95.779-39.802l56.854-180.058c5.928-15.36 1.635-32.764-12.994-40.269-14.659-7.506-31.304-.789-40.268 12.994z" fill="#e0dfe1" fill-rule="evenodd"/></g><g><path clip-rule="evenodd" d="m420.659 235.955 38.37-121.596 4.877-15.389c5.928-15.36 1.635-32.764-12.994-40.269-9.899-5.052-20.674-3.65-29.405 2.015 6.891 8.79 8.118 21.317 3.709 32.677l-4.03 12.761-40.969 129.802-11.857 37.524c-5.169 16.382-22.105 30.399-41.436 38.167-6.161 2.453-12.556 4.293-18.893 5.373 1.051.642 2.132 1.226 3.241 1.81 17.9 9.169 44.882 4.731 65.907-7.184 14.25-8.089 25.755-19.594 29.873-32.618l13.345-42.255z" fill="#d3cfd2" fill-rule="evenodd"/></g><g><path clip-rule="evenodd" d="m504.319 80.018c6.395-14.893 6.015-31.158 0-45.175-5.081-11.914-14.192-22.164-26.602-28.501-28.208-14.455-62.811-3.3-77.237 24.909-8.936 17.433-8.089 37.32.526 53.352 5.315 9.929 13.608 18.397 24.383 23.916s22.485 7.3 33.64 5.84c18.075-2.395 34.691-13.316 43.626-30.749.613-1.198 1.168-2.395 1.664-3.592z" fill="#f0f0f0" fill-rule="evenodd"/></g><g><path clip-rule="evenodd" d="m504.319 80.018c6.395-14.893 6.015-31.158 0-45.175-5.081-11.914-14.192-22.164-26.602-28.501-13.578-6.979-28.675-8.001-42.254-4.03 11.534 6.424 20.061 16.265 24.908 27.625 13.491 31.567-3.504 67.982-36.647 77.677.526.321 1.11.613 1.664.905 10.775 5.519 22.485 7.3 33.64 5.84 18.075-2.395 34.691-13.316 43.626-30.749.614-1.198 1.169-2.395 1.665-3.592z" fill="#e0dfe1" fill-rule="evenodd"/></g><g><path clip-rule="evenodd" d="m191.197 235.955c62.257-35.188 69.528-81.064 67.308-149.513-.263-8.702.263-13.345-6.278-7.622-4.906 4.322-9.257 8.089-13.228 11.389.993 62.463-8.702 105.331-67.571 138.592l-21.959 7.154z" fill="#78c2a4" fill-rule="evenodd"/></g><g><path d="m144.035 224.741c-1.88 0-3.764-.675-5.259-2.043-3.177-2.906-3.398-7.837-.492-11.015l40.94-44.766c2.907-3.178 7.838-3.397 11.015-.492 3.177 2.906 3.398 7.837.492 11.015l-40.94 44.766c-1.538 1.682-3.644 2.535-5.756 2.535z" fill="#78c2a4"/></g><g><path clip-rule="evenodd" d="m114.457 167.769c-8.497-6.22-18.689-11.447-30.369-15.565-35.654-12.557-42.079-16.119-71.309-41.788-6.074-5.315-5.023-5.665-5.256 2.541-1.607 51.833 3.007 92.833 39.45 122.998l51.686 17.404 47.247-17.404-1.869-19.01-.088-.818c-1.927-19.302-12.293-35.83-29.492-48.358z" fill="#b3e59f" fill-rule="evenodd"/></g><g><path clip-rule="evenodd" d="m84.088 152.204c-35.654-12.557-42.079-16.119-71.309-41.788-6.074-5.315-5.023-5.665-5.256 2.541-.292 9.111-.38 17.872-.146 26.282 21.054 17.813 29.96 21.931 60.972 32.852 35.158 12.382 56.971 35.042 59.862 63.864h3.709 13.987l-1.869-19.01-.088-.818c-1.927-19.302-12.294-35.831-29.493-48.358-8.498-6.22-18.689-11.447-30.369-15.565z" fill="#95d6a4" fill-rule="evenodd"/></g><g><path d="m111.619 243.752c-1.697 0-3.406-.552-4.84-1.689l-45.729-36.269c-3.373-2.675-3.939-7.579-1.263-10.953 2.676-3.373 7.579-3.94 10.953-1.263l45.729 36.269c3.373 2.675 3.939 7.579 1.263 10.953-1.539 1.941-3.815 2.952-6.113 2.952z" fill="#95d6a4"/></g><g><path clip-rule="evenodd" d="m376.069 505.955v-43.89l-125.412-46.327-130.038 46.327v43.89c0 3.329 2.716 6.045 6.045 6.045h243.332c3.328 0 6.073-2.716 6.073-6.045z" fill="#e29d7b" fill-rule="evenodd"/></g><g><path clip-rule="evenodd" d="m420.659 235.955h-129.624-99.838-45.291-19.273-15.009-11.242-53.409-39.012c-2.716 0-4.935 2.219-4.935 4.935v11.944c0 20.266 2.482 39.948 7.154 58.812l243.595 75.209 232.732-75.209c4.672-18.864 7.154-38.546 7.154-58.812v-11.944c0-2.716-2.219-4.935-4.935-4.935z" fill="#e29d7b" fill-rule="evenodd"/></g><g><g><g><path clip-rule="evenodd" d="m376.069 462.065c54.226-33.319 94.699-87.138 110.438-150.419h-119.17-25.492-331.665c15.739 63.31 56.212 117.099 110.438 150.419z" fill="#e8b094" fill-rule="evenodd"/></g></g></g><g><path clip-rule="evenodd" d="m376.069 462.065c54.226-33.319 94.699-87.138 110.438-150.419h-71.046c-15.71 63.28-56.183 117.099-110.438 150.419z" fill="#e29d7b" fill-rule="evenodd"/></g><g><path clip-rule="evenodd" d="m493.661 252.834v-11.944c0-2.716-2.219-4.935-4.935-4.935h-68.068-2.949c.993 0 1.927.292 2.686.818 1.343.876 2.248 2.395 2.248 4.117v11.944c0 20.266-2.482 39.948-7.183 58.812h71.046c4.673-18.864 7.155-38.546 7.155-58.812z" fill="#ce8b6b" fill-rule="evenodd"/></g><g><path clip-rule="evenodd" d="m376.069 505.955v-43.89h-71.046v29.465 14.426c0 3.329-2.716 6.045-6.045 6.045h71.017c3.329-.001 6.074-2.717 6.074-6.046z" fill="#ce8b6b" fill-rule="evenodd"/></g></g></svg>