<svg viewBox="0 0 500 500" xmlns="http://www.w3.org/2000/svg" xmlns:bx="https://boxy-svg.com"><path d="M209.524 116.685s-62.556 4.248-85.463 17.73c-14.869 8.75-26.417 22.394-40.44 32.43-7.514 5.375-21.33 9.954-26.802 17.914-7.175 10.44-6.768 29.102-7.865 41.418-1.172 13.157-8.045 34.758.056 46.737 26.02 38.466 87.622 27.265 125.13 38.172 21.869 6.359 37.222 25.102 57.882 32.641 6.991 2.55 24.002-2.836 32.287-2.836 40.412 0 74.329-20.002 107.969-42.944 19.33-13.185 37.821-25.458 49.457-47.666 9.355-17.852 3.396-33.08-4.455-49.72-5.8-12.29-10.461-23.984-20.29-33.39-19.702-18.858-50.234-22.23-72.845-36.825-13.789-8.903-26.35-25.877-43.777-25.877-17.642 0-45.613-1.999-59.273 11.394-1.695 1.664-11.57.822-11.57.822z" fill="#ffb958"/><path d="M190.974 117.745s-44.006 3.188-66.913 16.67c-14.869 8.75-26.417 22.394-40.44 32.43-7.514 5.375-21.33 9.954-26.802 17.914-7.175 10.44-6.768 29.102-7.865 41.418-1.172 13.157-8.045 34.758.056 46.737 26.02 38.466 87.622 27.265 125.13 38.172 21.869 6.359 75.186 46.781 57.882 32.641-25.014-20.443-24.93-29.565-43.84-38.809-18.036-8.814-55.332-18.09-68.09-23.13-18.284-7.219-31.286-15.584-39.406-24.805-17.79-20.205-14.375-50.317-1.4-66.094 11.008-13.39 28.908-13.502 46.47-19.559 41.975-14.476-49.843-27.247 95.34-55.467 2.275-.44-30.122 1.882-30.122 1.882z" fill="#af7b33"/><path d="M146.086 271.526c3.012 1 2.488 9.02 7.525 10.248 10.548 2.577 19.635 14.962 29.99 17.492 10.267 2.51 18.984-2.896 28.634 7.89 6.004 6.712 7.237 12.845 11.223 22.016 3.113 7.163 7.949 12.634 6.918 23.152-.416 4.246-3.22 8.643-4.592 11.786-7.82 17.92-14.108 20.58-26.905 20.58-5.51 0-11.615 1.697-16.869-2.222-6.342-4.736-9.921-19.287-16.47-25.149-6.132-5.488-12.682-1.855-18.789-5.776-4.93-3.167-6.483-12.37-10.178-18.451-2.973-4.889-6.882-9.548-8.971-16.048-2.456-7.636-1.832-22.91 2.51-27.19.877-.864 4.18-.605 4.56-1.37 1.445-2.913 2.025-11.105 3.503-12.644 1.595-1.661 5.214-5.213 7.91-4.314z" fill="#4a2f1c"/><path d="M113.786 204.668c0-28.51 44.95-12.35 57.341-17.9 7.223-3.235 12.763-9.929 21.006-10.857 17.319-1.95 33.543 2.77 50.588 4.268 15.466 1.36 32.036-2.202 47.387-3.634 16.492-1.539 33.813-9.67 50.568-5.485 13.865 3.463 24.997 34.245 23.57 47.541-1.643 15.29-24.3 27.718-36.579 28.796-4.352.383-13.082-2.034-16.87 1.162-8.414 7.098-.753 17.907-4.567 25.962-2.334 4.925-23.45 2.347-27.028 2.977-31.19 5.495-49.727 11.022-78.362-3.895-5.854-3.05-5.09-11.425-5.09-17.24 0-1.046.774-7.919-.439-8.227-14.538-3.686-32.784 3.005-46.482 1.18-9.707-1.293-20.205-4.745-29.128-8.73-10.46-4.668-17.125-13.982-17.125-26.03 0-4.427 4.53-6.909 6.696-9.241.184-.2 3.448-6.43 3.448-3.886" fill="#eea033"/><path d="M253.104 199.897c-14.182 0-28.591-1.862-42.624-.01-4.012.53-11.14 8.643-7.169 12.756 5.554 5.753 14.337 1.192 19.185 6.33 5.676 6.015-2.286 18.594 8.903 20.836 17.883 3.584 30.424-3.61 44.145-14.601 6.289-5.04 16.549-11.095 11.124-22.554-1.05-2.218-7.011-2.7-9.007-3.084-6.734-1.299-11.3.322-17.35 2.508-2.647.959-5.648-2.181-7.207-2.181z" fill="#d58618"/><path d="M145.563 300.561c-.68 5.773-2.646 16.12-.644 21.346.874 2.284 3.406 2.332 4.656 2.576 3.397.66 7.337 1.013 10.576 3.305 12.069 8.549 20.181 36.712 34.269 34.861 3.206-.42 4.251-7.779 4.251-12.792 0-.754.29-4.792-.08-5.342-1.193-1.775-4.107-.915-4.875-2.442-1.174-2.332.382-5.031.14-7.21-.628-5.592-8.388-10.93-10.45-12.4-4.03-2.87-9.648-5.934-13.936-6.83-1.114-.236-2.602.324-3.648-.567-4.442-3.783-6.361-14.007-10.803-17.893-2.178-1.905-6.132-1.188-8.171.808-.47.461-1.16 2.58-1.285 2.58z" fill="#5c4423"/><path d="M214.213 331.118c-4.04-12.358-13.297-9.368-11.864-1.219.264 1.503-.654 6.196-.161 7.159 1.777 3.479 4.82-1.758 6.485 3.992.844 2.91 1.378 6.196 1.378 9.554 0 .385-.285 5.455-.242 5.499 3.69 3.7 6.598-3.594 6.997-9.872.292-4.61-1.327-11.238-2.593-15.113z" fill="#604b2e"/><path d="M130.352 290.996c-2.032 6.923 4.26 35.205 11.159 35.876 4.11.4 6.244 11.598 10.332 16.515 5.419 6.522 16.05 4.407 21.972 10.401 5.559 5.628 8.435 18.606 14.118 21.944 10.187 5.978 16.456.566 25.005-6.812 3.862-3.332 14.298-9.401 17.438-16.596 1.435-3.287-3.22 8.643-4.592 11.786-7.82 17.92-14.108 20.58-26.905 20.58-5.51 0-11.615 1.697-16.869-2.222-6.342-4.736-9.921-19.287-16.47-25.149-6.132-5.488-12.682-1.855-18.789-5.776-4.93-3.167-6.483-12.37-10.178-18.451-2.973-4.889-6.257-10.505-8.971-16.048-6.272-12.809 5.27-34.627 2.75-26.048z" fill="#31281c"/><path d="M414.596 253.605c-25.748 0-55.07-2.218-80.763-.75-7.511.43-15.69 5.042-22.29 8.362-15.427 7.757-39.57 20.551-50.475 35.368-10.404 14.136-9.193 39.039 3.695 49.747 38.506 31.99 87.959 21.75 131.374 11.282 13.74-3.312 46.444-2.107 54.613-15.726 3.543-5.904 2.792-12.724 3.406-19.254.671-7.155 4.381-14.745 2.91-22.075-2.777-13.84-19.155-23.57-27.333-33.884-2.566-3.236-15.137-11.908-15.137-13.07z" fill="#f9e66d"/><path d="M457.194 303.698c-2.597 2.099-8.65 23.057-12.022 24.99-53.409 30.62-196.47 38.844-184.104-32.103-5.787.302-13.266 36.5 3.695 49.747 42.877 33.485 87.05 19.75 131.374 11.282 14.743-2.818 45.289-3.552 54.613-15.726 4.629-6.04 7.557-39.09 6.444-38.19z" fill="#f9e147"/><path d="M317.72 304.846c-5.94 0-14.19 5.676-18.905 9.376-.102.083-5.861 4.504-5.698 4.681 1.559 1.708 15.26-2.912 17.811-3.859 1.118-.417 1.312-2.055 2.433-2.659 5.16-2.775 13.417-1.047 18.969-2.906 5.725-1.918 14.213 3.148 19.757.304 2.946-1.51 5.387-3.02 8.907-2.526 8.636 1.208 20.97 10.897 28.654 14.783 2.193 1.107 7.876 7.14 10.961 4.07.515-.51-5.126-4.453-5.413-4.665-4.904-3.581-8.196-8.214-12.45-11.6-1.347-1.071-3.962-.34-4.844-1.273-.37-.393-.067-4.137.256-4.32 12.602-7.13 27.345-5.8 40.75-7.508 4.777-.608 7.978.97 9.02-3.474.13-.562 1.499-.802 1.145-1.243-.397-.493-9.602 1.04-10.96 1.04-9.64 0-26.002 3.049-34.855-.18-2.233-.816-6.189-.008-7.876-1.795-3.144-3.333-1.388-11.964-3.978-14.708-2.397-2.54-5.463-5.861-8.856-7.692-.201-.109-.593 6.5-.653 7.09-.362 3.573-9.335 5.185-6.482 7.139 20.702 14.178-10.322 6.778-24.99 6.483-3.012-.06-7.424-1.645-9.695.726-3.6 3.758-3.009 11.26-3.009 14.716z" fill="#e4a650"/><path d="M55.633 272.334c3.12.512 3.734 8.523 8.888 8.94 10.793.873 21.528 11.677 32.123 12.536 10.506.852 18.36-5.876 29.425 3.258 6.885 5.683 8.971 11.552 14.207 19.987 4.09 6.588 9.644 11.23 10.111 21.794.189 4.264-1.962 9.056-2.875 12.38-5.202 18.96-11.043 22.587-23.695 24.617-5.448.875-11.245 3.522-16.993.48-6.94-3.676-12.534-17.495-19.838-22.252-6.837-4.454-12.8.178-19.392-2.73-5.322-2.35-8.157-11.202-12.67-16.629-3.63-4.362-8.153-8.348-11.137-14.443-3.506-7.16-5.048-22.362-1.358-27.283.744-.993 4.047-1.26 4.315-2.077 1.016-3.11.432-11.301 1.677-13.057 1.342-1.896 4.418-5.981 7.212-5.521z" fill="#4a2f1c"/><path d="M59.218 301.124c.143 5.816-.338 16.359 2.378 21.207 1.188 2.12 3.698 1.766 4.969 1.809 3.451.114 7.397-.163 10.923 1.59 13.14 6.537 25.14 33.096 38.807 29.031 3.11-.925 3.105-8.366 2.397-13.323-.107-.745-.392-4.784-.834-5.269-1.43-1.565-4.19-.252-5.165-1.64-1.49-2.12-.333-5.036-.881-7.152-1.41-5.43-9.838-9.476-12.084-10.602-4.39-2.199-10.377-4.337-14.744-4.543-1.134-.056-2.527.734-3.686.02-4.926-3.036-8.268-12.84-13.21-15.978-2.422-1.538-6.23-.202-7.964 2.095-.399.53-.782 2.735-.906 2.755z" fill="#5c4423"/><path d="M126.013 320.298c-5.74-11.577-14.47-7.153-11.902.678.473 1.444.228 6.23.851 7.104 2.249 3.157 4.518-2.504 6.976 2.918a34.316 34.316 0 012.712 9.227c.055.38.489 5.439.538 5.476 4.17 3.073 6.016-4.6 5.523-10.871-.362-4.605-2.899-10.9-4.698-14.532z" fill="#604b2e"/><path d="M42.828 294.08c-1.031 7.167 9.184 34.132 16.1 33.7 4.12-.255 7.812 10.478 12.55 14.69 6.278 5.59 16.49 1.812 23.193 6.799 6.291 4.682 10.968 17.058 17.058 19.456 10.918 4.295 16.35-2.051 23.761-10.702 3.348-3.907 12.81-11.564 14.898-19.176.955-3.478-1.962 9.057-2.875 12.381-5.202 18.96-11.043 22.587-23.696 24.617-5.448.874-11.244 3.522-16.992.48-6.94-3.676-12.534-17.496-19.838-22.252-6.838-4.454-12.8.178-19.392-2.731-5.322-2.348-8.158-11.202-12.67-16.628-3.63-4.362-7.67-9.393-11.137-14.443-8.01-11.67.32-35.074-.96-26.192z" fill="#31281c"/><path d="M309.554 329.327c-2.944-.545-5.869 6.523-10.603 5.235-9.919-2.7-22.726 3.631-32.462.984-9.655-2.626-14.69-11.268-27.298-6.562-7.845 2.93-11.452 7.579-18.638 13.537-5.612 4.654-11.957 7.069-15.506 16.498-1.432 3.807-.928 8.851-1.097 12.162-.963 18.88 3.188 24.059 13.91 29.992 4.616 2.555 9.018 6.83 15.064 5.929 7.3-1.09 16.4-11.816 24.346-13.768 7.44-1.83 11.403 4.3 18.164 3.795 5.46-.41 10.62-7.523 16.265-10.986 4.541-2.784 9.77-4.937 14.247-9.502 5.26-5.36 11.145-18.651 9.302-24.306-.372-1.143-3.25-2.453-3.246-3.281.012-3.15 2.963-10.39 2.368-12.387-.639-2.154-2.18-6.854-4.816-7.34z" bx:origin="-0.8 0.446" fill="#4a2f1c"/><path d="M297.814 354.284c-1.852 5.23-4.546 14.948-8.414 18.468-1.69 1.538-3.83.406-4.98.034-3.123-1.013-6.573-2.54-10.247-2.09-13.698 1.68-32.305 21.89-43.332 13.783-2.509-1.845-.298-8.593 1.804-12.86.316-.641 1.767-4.213 2.308-4.509 1.743-.957 3.824 1.126 5.108.182 1.962-1.44 1.79-4.46 2.908-6.203 2.871-4.469 11.611-5.413 13.955-5.709 4.58-.575 10.572-.577 14.54.648 1.033.315 2.045 1.482 3.294 1.21 5.307-1.162 11.204-8.974 16.555-10.221 2.625-.614 5.636 1.83 6.507 4.475.199.61-.112 2.734-.006 2.792z" bx:origin="-1.852 0.426" fill="#5c4423"/><path d="M232.358 350.075c8.569-8.645 15.07-1.808 10.45 4.463-.85 1.157-2.05 5.578-2.867 6.169-2.947 2.137-3.3-3.733-7.106.391a31.984 31.984 0 00-5.163 7.492c-.161.328-2.049 4.776-2.104 4.793-4.642 1.44-4.02-6.117-1.721-11.646 1.69-4.06 5.826-8.951 8.51-11.662z" bx:origin="-10.41 0.634" fill="#604b2e"/><path d="M314.57 353.194c-1.202 6.833-18.334 27.99-24.396 25.363-3.61-1.564-10.096 6.976-15.583 9.266-7.274 3.039-15.293-3.69-22.77-1.333-7.018 2.213-14.871 11.926-21.032 12.132-11.042.365-14.024-7.148-18.09-17.393-1.838-4.626-8.037-14.63-7.649-22.21.176-3.463-.927 8.849-1.096 12.16-.966 18.88 3.188 24.058 13.908 29.991 4.616 2.555 9.019 6.832 15.064 5.93 7.3-1.09 16.401-11.814 24.348-13.768 7.439-1.83 11.402 4.302 18.162 3.793 5.458-.408 10.62-7.522 16.267-10.985 4.54-2.782 9.647-6.04 14.246-9.499 10.628-7.996 10.109-31.918 8.621-23.447z" bx:origin="-0.791 0.528" fill="#31281c"/></svg>