<svg height="512" viewBox="0 0 497 497" width="512" xmlns="http://www.w3.org/2000/svg"><path d="M122.889 89.99c-.314 100.02-27.195 163.523 51.138 244.528 30.35 31.384 110.459 120.702 110.459 120.702l92.623-24.676s3.121-167.836-10.684-214.581c-17.524-59.346-55.538-105.174-108.28-135.804-34.44-19.997-59.396-22.225-89.768-30.749-15.484-4.347-45.518-13.493-47.008-10.363-.73 1.532 1.605 23.536 1.52 50.944z" fill="#fffbde"/><path d="M140.294 95.567c-.23 67.848-19.996 110.924 37.6 165.875 22.318 21.289 55.65 39.53 55.65 39.53l66.72 48.02 15.268-71.526s13.98-64.736 3.83-96.447c-12.887-40.257-40.837-71.344-79.617-92.122-25.323-13.565-43.673-15.076-66.005-20.859-11.384-2.948-33.469-9.151-34.563-7.03-.537 1.04 1.18 15.965 1.117 34.559z" fill="#fff395"/><path d="M149.996 90.893c-.161 46.693-13.975 76.339 26.282 114.157 15.598 14.65 38.895 27.206 38.895 27.206l46.634 33.047 10.67-49.226s9.772-44.551 2.677-66.375c-9.007-27.705-28.542-49.1-55.647-63.4-17.7-9.335-30.525-10.376-46.134-14.355-7.956-2.03-23.393-6.298-24.157-4.839-.376.717.824 10.989.78 23.785z" fill="#eadc75"/><path d="M157.843 89.58c-.109 29.273-9.41 47.859 17.694 71.567 10.501 9.185 26.185 17.055 26.185 17.055l31.396 20.718 7.185-30.86s6.578-27.93 1.802-41.61c-6.065-17.37-19.217-30.782-37.464-39.747-11.916-5.852-20.551-6.504-31.06-9-5.357-1.271-15.75-3.948-16.263-3.033-.253.45.554 6.889.525 14.91z" fill="#c9be6c"/></svg>