<svg width="200" height="200" xmlns="http://www.w3.org/2000/svg"><path d="M113.73 76.936H78.568L111.164 21.9H70.099L31.6 104.453h30.285L31.6 181.503l82.13-104.567z" fill="#b9ffa6"/><path d="M111.093 21.907H99.385L67.17 77.036h11.709l32.214-55.129zm-7.618 55.053l-61.598 78.425-10.266 26.142 82.13-104.567h-10.266z" fill="#83ff60"/><path d="M86.09 170.592V56.215h18.71v114.377z" fill="#cdcdcd"/><path d="M95.525 170.592V56.215h9.274v114.377z" fill="#b4b6bb"/><path d="M120.661 156.127c0 4.573-4.404 8.28-9.835 8.28H80.064c-5.432 0-9.836-3.707-9.836-8.28 0-4.573 4.404-8.281 9.836-8.281h30.762c5.432 0 9.835 3.708 9.835 8.28z" fill="#636978"/><path d="M130.576 141.039c0 4.573-4.404 8.28-9.836 8.28H70.15c-5.433 0-9.836-3.707-9.836-8.28 0-4.574 4.403-8.281 9.835-8.281h50.591c5.432 0 9.836 3.707 9.836 8.28z" fill="#555a66"/><path d="M70.228 70.68c0-4.574 4.404-8.282 9.836-8.282h30.762c5.432 0 9.835 3.708 9.835 8.281 0 4.574-4.403 8.281-9.835 8.281H80.064c-5.432 0-9.836-3.707-9.836-8.28z" fill="#636978"/><path d="M60.314 85.767c0-4.573 4.403-8.28 9.835-8.28h50.591c5.432 0 9.836 3.707 9.836 8.28 0 4.574-4.404 8.281-9.836 8.281H70.15c-5.433 0-9.836-3.707-9.836-8.28z" fill="#555a66"/><path d="M95.525 164.408h15.3c5.432 0 9.836-3.708 9.836-8.281s-4.404-8.281-9.835-8.281h-15.3z" fill="#414952"/><path d="M95.525 149.32h25.215c5.432 0 9.836-3.708 9.836-8.281 0-4.574-4.404-8.281-9.836-8.281H95.525z" fill="#333940"/><path d="M95.525 78.96h15.3c5.432 0 9.836-3.707 9.836-8.28 0-4.574-4.404-8.282-9.835-8.282h-15.3z" fill="#414952"/><path d="M95.525 94.048h25.215c5.432 0 9.836-3.707 9.836-8.28 0-4.574-4.404-8.281-9.836-8.281H95.525z" fill="#333940"/></svg>