<svg height="512" viewBox="0 0 497 497" width="512" xmlns="http://www.w3.org/2000/svg"><path d="M202.382 283.783c-41.996 0-76.041-34.045-76.041-76.041 0-43.249 28.107-68.075 67.97-132.25-3.601-3.047-9.398-2.417-12.067 1.918-43.518 70.684-74.375 97.294-74.375 144.133 0 42.554 32.718 77.466 74.37 80.954 2.265.19 70.597-21.063 82.468-51.214-13.748 19.642-36.528 32.5-62.325 32.5z" fill="#e69642"/><path d="M202.382 283.783c25.796 0 48.577-12.857 62.325-32.5 3.628-9.213-1.277-69.563-13.183-89.498-13.237-22.165-32.639-47.162-55.551-84.375a8.03 8.03 0 00-1.663-1.918c-39.863 64.175-67.97 89.002-67.97 132.25.001 41.996 34.046 76.041 76.042 76.041z" fill="#ffc250"/><path d="M394.752 221.378l-96.832-55.906a15.002 15.002 0 00-15 0l-84.332 48.689-10 43.094 91.832 141.847a14.998 14.998 0 0015 0l106.832-65.906v-98.827c0-2.68-5.179-11.652-7.5-12.991z" fill="#f7f9fa"/><path d="M198.589 214.161l-12.5 7.217a15 15 0 00-5.49 5.49l17.99 20.387zm91.832 174.94l-10 15.865 10 12.119c2.59 0 5.18-.67 7.5-2.01l96.832-55.906a15 15 0 007.5-12.99v-12.984l-96.832 55.906a14.998 14.998 0 01-15 0z" fill="#dce6eb"/><path d="M402.252 234.368c0-2.679-.715-5.257-2.01-7.5a14.986 14.986 0 00-5.49-5.49l-111.831 64.566-84.332-48.689-10 100.167a14.999 14.999 0 007.5 12.99l94.332 38.689v-90.167z" fill="#dce6eb"/><path d="M206.089 340.412a14.999 14.999 0 01-7.5-12.99v-90.167l-17.99-10.387a14.991 14.991 0 00-2.01 7.5V346.18a14.999 14.999 0 007.5 12.99l96.832 55.906c2.32 1.34 4.91 2.01 7.5 2.01v-27.984z" fill="#b9c3cd"/></svg>