<svg width="200" height="200" xmlns="http://www.w3.org/2000/svg"><path d="M93.195 68.927c.365-2.252.018-5.291-.966-7.457-.97-2.132-4.516-4.071-4.254-4.138 1.264-.318 4.912 1.35 4.81.792-.312-1.687-1.511-3.596-2.523-4.955-.34-.456-2.288-1.549-2.025-1.582 1.838-.23 5.205 2.062 6.516 3.194.432.373.957.823 1.309 1.291.203.269.127-1.615.077-2.024a754.22 754.22 0 01-.78-6.756c-.118-1.057-1.08-4.63-.706-4.417 1.65.94 4.603 7.345 5.044 8.994.083.313.106 2.04.414 2.253.05.033.624-1.874.88-2.324.224-.396 3.486-5.55 4.507-4.845.35.24-.454 1.471-.541 1.654-.87 1.817-1.52 3.737-2.364 5.565-.205.443-1.43 1.738-1.247 1.704 1.614-.297 3.653-.216 4.629.042.424.113 3.248.87 2.857 1.43-.19.27-1.782.328-2.049.377-1.572.29-5.918.14-6.945 1.606-.068.098 1.01.694 1.11.75.458.265 3.132 2.33 3.443 3.702.039.174-5.977-1.294-7.858.099-.472.35-3.385 4.792-3.338 5.045zm31.669 19.903c1.475-1.739 2.747-4.521 3.022-6.884.27-2.327-1.766-5.818-1.507-5.74 1.247.38 3.51 3.69 3.71 3.161.605-1.606.563-3.86.397-5.546-.056-.566-1.16-2.508-.917-2.4 1.693.75 3.393 4.453 3.932 6.099.177.542.395 1.199.454 1.781.035.335.943-1.317 1.112-1.694a740.4 740.4 0 012.818-6.189c.445-.966 1.466-4.522 1.676-4.147.927 1.657.15 8.667-.323 10.307-.09.311-.962 1.802-.808 2.143.025.054 1.502-1.283 1.952-1.536.398-.224 5.851-2.953 6.363-1.823.175.386-1.149 1.026-1.318 1.137-1.683 1.108-3.231 2.416-4.897 3.547-.404.273-2.121.75-1.947.815 1.535.579 3.24 1.7 3.941 2.426.306.315 2.333 2.422 1.71 2.699-.302.133-1.696-.64-1.95-.735-1.496-.563-5.14-2.935-6.777-2.21-.109.05.507 1.116.563 1.216.256.463 1.48 3.613 1.038 4.948-.056.17-4.45-4.193-6.781-3.972-.584.056-5.372 2.357-5.463 2.598z" fill="#456c0b"/><path d="M128.742 104.837c.924-2.086 1.357-5.114.953-7.458-.398-2.31-3.339-5.082-3.068-5.08 1.304.012 4.41 2.548 4.452 1.983.126-1.711-.55-3.862-1.186-5.432-.214-.527-1.822-2.078-1.558-2.044 1.836.242 4.513 3.313 5.495 4.74.323.47.718 1.038.94 1.58.128.311.531-1.53.587-1.939.307-2.246.625-4.486.954-6.733.154-1.052.127-4.752.435-4.452 1.358 1.328 2.594 8.27 2.604 9.978 0 .324-.414 2-.17 2.284.04.045 1.079-1.655 1.439-2.026.318-.326 4.778-4.486 5.588-3.546.277.321-.812 1.308-.943 1.463-1.3 1.539-2.417 3.23-3.695 4.786-.31.377-1.823 1.319-1.637 1.333 1.636.12 3.588.715 4.466 1.212.383.216 2.923 1.664 2.403 2.106-.252.213-1.807-.133-2.078-.153-1.594-.118-5.76-1.363-7.125-.204-.09.077.802.926.883 1.007.377.371 2.441 3.047 2.394 4.452-.006.178-5.454-2.764-7.627-1.893-.544.218-4.487 3.78-4.506 4.036z" fill="#456c0b"/><path d="M88.821 85.319c14.045-8.115 20.779-36.6 21.653-40.546l-.003-.002.022-.086.08-.373.018.004 5.114-19.549c.472-1.804 2.094-2.871 3.695-2.432l15.581 4.276c1.729.476 2.757 2.514 2.247 4.465l-5.016 19.174.012.003-.083.27-.048.182-.007-.001c-1.169 3.865-9.244 31.981-1.042 46.202 10.831 11.527 15.601 28.999 11.077 46.288-6.704 25.625-31.275 41.145-54.881 34.667-23.608-6.479-37.312-32.502-30.607-58.128 4.521-17.291 17.179-29.978 32.188-34.414zm0 0" fill="#b5d01f"/><path d="M103.391 88.91c-11.518-11.561-10.824-40.863-10.67-44.906h.003v-.088c.009-.25.017-.383.017-.383h-.017v-20.02c0-1.958-1.388-3.546-3.101-3.546h-16.18c-1.713 0-3.102 1.588-3.102 3.546v20.02h-.012s.006.1.012.284v.187h.007c.155 4.043.847 33.345-10.669 44.906-13.375 8.263-22.397 23.874-22.397 41.773 0 26.529 19.813 48.034 44.252 48.034 24.44 0 44.254-21.505 44.254-48.034-.002-17.899-9.022-33.51-22.397-41.773zm0 0" fill="#b5d01f"/><path d="M104.624 164.767c-.711 0-1.412-.371-1.869-1.071-.767-1.18-.552-2.845.478-3.722 8.421-7.158 13.248-17.833 13.248-29.291 0-6.521-1.621-12.976-4.688-18.666-.674-1.249-.334-2.89.758-3.66 1.095-.771 2.528-.383 3.202.87 3.52 6.527 5.381 13.947 5.381 21.456 0 13.157-5.512 25.388-15.125 33.559a2.12 2.12 0 01-1.385.525zm0 0" fill="#e3ffb8"/><path d="M66.537 93.349c-.767-2.148-.976-5.2-.4-7.508.567-2.273 3.704-4.822 3.434-4.84-1.301-.084-4.586 2.216-4.586 1.65 0-1.716.834-3.811 1.583-5.33.252-.51 1.97-1.938 1.705-1.923-1.849.106-4.745 2.97-5.83 4.32-.357.446-.792.984-1.053 1.508-.151.3-.418-1.565-.443-1.977a740.4 740.4 0 00-.455-6.785c-.076-1.061.223-4.75-.106-4.472-1.452 1.224-3.197 8.057-3.332 9.759-.025.323.265 2.025 0 2.29-.042.042-.953-1.73-1.285-2.126-.293-.35-4.434-4.826-5.311-3.95-.3.3.713 1.366.832 1.53 1.184 1.63 2.172 3.4 3.332 5.045.282.399 1.721 1.45 1.535 1.45-1.641 0-3.631.449-4.544.88-.397.187-3.037 1.444-2.551 1.923.235.23 1.812 0 2.083 0 1.599 0 5.846-.934 7.121.322.085.084-.868.865-.955.939-.403.343-2.659 2.859-2.716 4.264-.007.178 5.643-2.355 7.746-1.326.527.258 4.196 4.1 4.196 4.357z" fill="#456c0b"/><path d="M60.544 130.683c0-17.899 9.022-33.51 22.397-41.773 6.731-6.757 9.29-19.572 10.224-29.864-.664-7.317-.508-13.36-.445-15.042h.003v-.088c.01-.25.017-.383.017-.383h-.017v-20.02c0-1.958-1.389-3.546-3.102-3.546H73.443c-1.713 0-3.102 1.588-3.102 3.546v20.02h-.014s.007.1.014.284v.187h.007c.153 4.043.847 33.345-10.669 44.906-13.375 8.263-22.397 23.874-22.397 41.773 0 26.529 19.812 48.034 44.252 48.034 4.026 0 11.895 1.534 15.6.441-18.796-5.544-36.59-26.316-36.59-48.475zm0 0" fill="#899e12"/><path d="M124.233 61.202c-.22 0-.445-.036-.667-.113-1.231-.421-1.931-1.903-1.563-3.309l6.356-24.325c.368-1.407 1.663-2.207 2.894-1.787 1.232.421 1.931 1.903 1.565 3.311l-6.358 24.323c-.299 1.153-1.225 1.9-2.227 1.9zm0 0" fill="#e3ffb8"/><path d="M83.49 88.153c15.999-6.672 26.441-39.19 26.984-43.38l-.003-.002.022-.086.08-.373.018.004 5.114-19.549c.472-1.804 2.094-2.871 3.695-2.432l5.222 1.311c1.729.476-8.939 38.472-16.697 54.386-8.316 13.995-25.612 8.532-24.435 10.121z" fill="#899e12"/><path d="M106.868 57.446c-.228-2.27-1.348-5.116-2.858-6.954-1.487-1.81-5.414-2.769-5.178-2.9 1.14-.634 5.094.035 4.851-.476-.736-1.55-2.388-3.086-3.715-4.137-.447-.352-2.611-.906-2.365-1.006 1.716-.697 5.56.65 7.12 1.404.513.249 1.136.548 1.597.91.265.207-.294-1.593-.448-1.976a740.401 740.401 0 01-2.498-6.325c-.386-.991-2.238-4.195-1.822-4.085 1.837.483 6.343 5.908 7.195 7.387.161.281.629 1.943.982 2.07.056.02.12-1.972.25-2.472.114-.441 1.936-6.261 3.104-5.845.4.142-.059 1.539-.096 1.738-.37 1.98-.504 4.003-.847 5.986-.084.482-.933 2.048-.765 1.968 1.482-.703 3.473-1.15 4.482-1.153.44-.001 3.363.002 3.13.644-.114.309-1.638.776-1.882.893-1.445.685-5.682 1.662-6.296 3.344-.04.112 1.156.41 1.266.439.511.137 3.628 1.442 4.282 2.687.082.158-6.108.292-7.567 2.124-.365.459-2.032 5.503-1.922 5.735zM90.699 83.492c.767-2.148.976-5.2.4-7.508-.567-2.273-3.704-4.822-3.434-4.84 1.301-.084 4.586 2.216 4.586 1.65 0-1.716-.834-3.811-1.583-5.33-.252-.51-1.97-1.938-1.705-1.923 1.849.106 4.745 2.971 5.83 4.321.357.445.792.983 1.053 1.507.151.301.418-1.565.443-1.977a740.4 740.4 0 01.455-6.785c.076-1.061-.223-4.749.106-4.472 1.452 1.224 3.197 8.057 3.332 9.759.025.323-.265 2.025 0 2.29.042.042.953-1.73 1.285-2.126.293-.349 4.434-4.826 5.311-3.949.3.3-.713 1.365-.832 1.529-1.184 1.63-2.172 3.4-3.332 5.045-.282.399-1.721 1.45-1.535 1.45 1.641 0 3.631.449 4.544.88.397.187 3.037 1.444 2.551 1.923-.235.231-1.812 0-2.083 0-1.599 0-5.846-.934-7.121.322-.085.084.868.865.955.939.403.343 2.659 2.859 2.716 4.264.007.178-5.643-2.355-7.746-1.326-.527.258-4.196 4.1-4.196 4.357zm-19.6-1.83c.141-2.276 1.151-5.164 2.59-7.058 1.417-1.866 5.305-2.973 5.064-3.095-1.163-.59-5.089.23-4.866-.291.677-1.577 2.269-3.174 3.556-4.275.432-.37 2.574-1.005 2.324-1.096-1.74-.63-5.531.861-7.06 1.675-.504.268-1.116.591-1.562.97-.258.217.232-1.603.372-1.992a740.4 740.4 0 002.255-6.415c.348-1.005 2.076-4.277 1.665-4.152-1.817.553-6.114 6.145-6.908 7.656-.15.287-.555 1.966-.903 2.105-.055.022-.194-1.965-.343-2.46-.132-.436-2.174-6.183-3.325-5.722-.394.157.117 1.535.162 1.733.446 1.964.657 3.98 1.075 5.95.102.477 1.01 2.01.84 1.937-1.51-.647-3.515-1.018-4.524-.982-.439.016-3.36.13-3.102.763.125.305 1.665.714 1.914.82 1.47.63 5.741 1.445 6.418 3.102.045.11-1.138.453-1.248.487-.505.156-3.57 1.58-4.176 2.849-.077.16 6.114.059 7.642 1.833.383.445 2.24 5.422 2.14 5.658z" fill="#456c0b"/><path d="M72.888 97.757c1.06-2.02 3.163-4.241 5.25-5.382 2.057-1.123 6.057-.543 5.887-.753-.82-1.014-4.737-1.872-4.32-2.255 1.261-1.163 3.367-1.97 4.992-2.447.546-.16 2.76.135 2.57-.05-1.331-1.287-5.4-1.476-7.129-1.36-.569.04-1.26.084-1.821.247-.324.093.867-1.368 1.153-1.665a740.4 740.4 0 004.682-4.932c.73-.775 3.644-3.054 3.218-3.108-1.885-.239-8.092 3.108-9.436 4.162-.254.2-1.31 1.567-1.684 1.551-.06-.002.627-1.873.693-2.385.058-.452.545-6.531-.694-6.582-.424-.017-.52 1.45-.56 1.648-.397 1.975-1.03 3.9-1.454 5.869-.102.477.1 2.248-.026 2.111-1.112-1.207-2.79-2.366-3.726-2.746-.407-.165-3.12-1.255-3.143-.573-.01.33 1.228 1.333 1.412 1.532 1.083 1.176 4.647 3.667 4.588 5.456-.005.119-1.225-.053-1.338-.067-.525-.064-3.904-.018-4.976.892-.136.115 5.555 2.555 6.223 4.798.168.563-.172 5.864-.361 6.039z" fill="#456c0b"/></svg>