<svg height="512" viewBox="0 0 128 128" width="512" xmlns="http://www.w3.org/2000/svg"><g><path d="m101.414 13.426a7.426 7.426 0 0 0 -10.48.684l-10.055 11.442 9.361 11.867 11.857-13.5a7.442 7.442 0 0 0 -.683-10.49z" fill="#ffaa5f"/><path d="m28.388 73.4 3.863 29.533 1.17 9.6a3.857 3.857 0 0 0 3.821 3.386h53.516a3.857 3.857 0 0 0 3.821-3.386l1.17-9.6.943-7.228 1.977-15.1.943-7.207 1.8-14.725h-74.826z" fill="#ffc369"/><path d="m37.408 120.277a3.719 3.719 0 0 0 3.72 3.72h45.744a3.719 3.719 0 0 0 3.72-3.72v-4.36h-53.184z" fill="#e6646e"/><path d="m104.883 50.974h-81.766a3.853 3.853 0 0 0 0 7.705h81.766a3.853 3.853 0 0 0 0-7.705z" fill="#e6646e"/><path d="m32.251 102.937h63.498l.943-7.228 1.977-15.098.943-7.207h-71.224z" fill="#fff6d8"/><path d="m90.24 37.419a16.926 16.926 0 0 0 -9.361-11.867 15.428 15.428 0 0 0 -2.019-.8 14.988 14.988 0 0 0 -4.142-7.746 15.227 15.227 0 0 0 -4.981-3.306c5.188-3.981 1.45-9.7 1.45-9.7a29.234 29.234 0 0 1 -12.22 9.413 15.447 15.447 0 0 0 -9.827 11.342 16.9 16.9 0 0 0 -11.567 13.745c-.2.166-.372.353-.559.528a16.888 16.888 0 0 0 -4.95 11.95h63.872a16.842 16.842 0 0 0 -5.509-12.478z" fill="#fff6d8"/><path d="m90.24 37.419a16.926 16.926 0 0 0 -9.361-11.867 15.428 15.428 0 0 0 -2.019-.8c-3.573.621-7.052 4.225-7.052 4.225-5.384 5.683-9.061 15.132-10.525 21.994h34.653a16.842 16.842 0 0 0 -5.509-12.471z" fill="#f9ecca"/><path d="m66.962 35.876c-13.131-4.319-28.426 2.268-29.389 2.62-.2.166-.372.353-.559.528a16.888 16.888 0 0 0 -4.95 11.95h53.2c-2.848-4.074-9.41-12.174-18.302-15.098z" fill="#fffcf3"/><path d="m83.085 82.817a7.556 7.556 0 0 0 5.343 12.892h8.264l1.977-15.1h-10.241a7.583 7.583 0 0 0 -5.343 2.208z" fill="#ffc369"/></g></svg>