<svg width="200" height="200" xmlns="http://www.w3.org/2000/svg"><path d="M96.339 114.695c-5.426-18.19-19.528-29.58-29.078-33.249-11.486-4.413-20.57 7.211-13.756 16.252 8.942 11.863 34.823 17.343 31.046 39.609-2.903 17.112 12.545 17.435 12.545 17.435l7.193-20.502zm0 0" fill="#f7d291"/><path d="M96.339 114.695c-3.196-10.716-9.327-19.02-15.84-24.809.021-.009-.02.009 0 0a52.16 52.16 0 00-4.743-3.777c-10.338 4.903-14.947 12.02-16.932 16.821 1.564 1.243 3.265 2.447 5.024 3.651 1.058-3.416 4.316-10.45 13.732-15.328 3.841 4.712 6.858 9.669 9.104 15.006-6.282 2.061-10.012 5.607-11.922 8.12 1.533 1.268 2.971 2.603 4.261 4.041.895-1.489 3.681-5.093 9.528-7.11 2.061 6.511 3.077 13.613 3.118 21.518-2.65.009-4.962.404-6.757.951a26.195 26.195 0 01-.361 3.528 25.9 25.9 0 00-.306 2.531c.654-.37 3.385-1.738 7.315-1.774-.082 1.772-.19 3.569-.359 5.424l-1.025 9.224c3.376 1.959 6.922 2.03 6.922 2.03l7.193-20.502zm0 0" fill="#f0c382"/><path d="M142.604 79.832c-2.461-5.651-8.749-1.839-12.117-7.75-3.218-5.65 10.98-28.414 1.769-37.887-2.898-2.977-11.328-5.679-17.985-2.004-6.128-15.288-21.942-17.77-32.246-11.772-15.902 9.256-22.457 40.191 0 67.161 14.787 17.758 16.947 37.36 15.214 56.326l-1.204 10.837c-.856 5.302-2.244 11.78-3.227 16.833-.917 4.721 3.361 8.999 8.97 8.999h8.403c4.601 0 8.498-2.94 9.016-6.839 6.944-52.2 26.318-87.22 23.407-93.904zm0 0" fill="#ffe1a0"/><g fill="#f7d291"><path d="M107.955 171.576c.982-5.053 2.368-11.532 3.224-16.834l1.204-10.837c1.734-18.966-.427-38.568-15.212-56.325-22.458-26.972-15.901-57.906 0-67.162 1.3-.757 2.22-1.234 3.652-1.735-6.349-2.374-13.102-1.58-18.796 1.735-15.902 9.256-22.459 40.19 0 67.162 14.785 17.757 16.945 37.359 15.212 56.325l-1.204 10.837c-.857 5.302-2.243 11.78-3.226 16.834-.916 4.72 3.36 8.998 8.97 8.998h8.403a10.5 10.5 0 003.422-.57c-3.837-1.295-6.372-4.71-5.65-8.428zm24.299-137.382c-3.748-3.852-16.785-7.317-23.22 3.015-6.494 10.425 2.036 22.642-.29 33.21-.547 2.496 1.404 5.047 4.296 5.398 1.62.197 3.618-.98 3.744-3.944.282-6.616-5.39-26.627 0-33.158 7.068-8.565 15.47-4.52 15.47-4.52zm0 0"/><path d="M135.816 106.07c.603-1.788 1.184-3.5 1.736-5.125-22.52-9.382-43.3-5.616-49.088-4.242a64.434 64.434 0 012.598 4.871c6.294-1.31 25.068-4 44.754 4.496zm0 0"/></g><path d="M102.491 94.863c-6.624.284-11.625 1.27-14.028 1.84a64.122 64.122 0 012.599 4.871c2.745-.571 7.887-1.404 14.423-1.459a65.48 65.48 0 00-2.994-5.252zm0 0" fill="#f0c382"/><path d="M112.307 60.296c-20.881-4.423-36.01 2.663-42.098 6.334a57.467 57.467 0 002.002 5.243c3.654-2.479 17.921-10.837 38.664-6.455 1.615.343 3.263-.526 3.66-1.938.396-1.417-.602-2.839-2.228-3.184zm0 0" fill="#f7d291"/><path d="M83.834 60.915c-6.199 1.678-10.857 4.046-13.625 5.715a57.762 57.762 0 002.002 5.243c1.831-1.243 6.334-3.963 12.98-5.814a54.126 54.126 0 01-1.357-5.144zm0 0" fill="#f0c382"/><path d="M71.067 33.358c-.78 1.74-1.473 3.56-2.004 5.504 7.428-.943 25.881-1.594 38.242 12.538l4.821-3.191c-12.84-14.676-31.219-15.607-41.059-14.851zm0 0" fill="#f7d291"/><path d="M85.873 33.999c-5.7-.978-10.966-.941-14.861-.641a37.456 37.456 0 00-1.962 5.511c3.329-.424 8.871-.797 15.088.202a38.18 38.18 0 011.735-5.072zm0 0" fill="#f0c382"/><path d="M130.531 65.867c-9.61-4.775-18.111-2.6-21.446-1.387.131 1.857.086 3.689-.252 5.473.597.052 1.192-.005 1.749-.276.412-.195 9.642-4.479 20.018 2.599l-.113-.194c-.733-1.29-.552-3.504.044-6.215zm0 0" fill="#f7d291"/><path d="M116.586 68.267c-.169-1.554-.423-3.333-.7-5.255a26.62 26.62 0 00-6.801 1.468v.003c.06.873.068 1.736.041 2.594l-.016.326a18.26 18.26 0 01-.277 2.55c.597.052 1.192-.006 1.749-.276.2-.095 2.506-1.159 6.004-1.41zm0 0" fill="#f0c382"/><path d="M117.356 122.597c-8.865-1.67-16.339-.635-20.232.205.216 1.781.361 3.565.461 5.349 2.712-.668 9.871-2.027 18.487-.403 1.636.312 3.248-.598 3.604-2.018.354-1.423-.688-2.825-2.32-3.133zm0 0" fill="#f7d291"/><path d="M97.124 122.802c.216 1.781.361 3.565.461 5.349 2.345-.579 8.034-1.671 15.1-.905a82.788 82.788 0 00-.522-5.354c-6.536-.546-11.939.241-15.039.91zm0 0" fill="#f0c382"/><path d="M120.675 163.914c.309-1.844.63-3.66.967-5.455-10.648-4.299-20.547-3.661-25.755-2.819a244.11 244.11 0 01-1.022 5.595c3.04-.687 14.199-2.606 25.81 2.679zm0 0" fill="#f7d291"/><path d="M95.887 155.64a233.979 233.979 0 01-1.024 5.595c2.085-.471 7.984-1.517 15.229-.431.344-1.789.667-3.563.946-5.229-6.315-.946-11.746-.485-15.151.065zm0 0" fill="#f0c382"/></svg>