<svg id="Capa_1" enable-background="new 0 0 512 512" height="512" viewBox="0 0 512 512" width="512" xmlns="http://www.w3.org/2000/svg"><g><g><path clip-rule="evenodd" d="m204.508 45.945c-5.431 105.184-32.442 180.437-69.732 241.965 22.923-14.397 40.795-30.225 56.565-49.423 14.61-17.785 24.944-30.219 34.483-62.098 12.44-46.255 9.461-73.88 4.147-126.735-3.971-26.895-24.295-26.281-25.463-3.709z" fill="#3bc3a4" fill-rule="evenodd"/></g><g><path clip-rule="evenodd" d="m111.533 312.206 5.127 26.626 27.432 2.722c4.614-5.315 80.612-51.547 85.079-56.978 42.458-51.424 50.909-117.764 50.909-117.764 29.697-45.379 42.078-85.094 40.881-153.367-.292-17.229-16.732-16.937-19.973-4.585-15.097 64.185-41.494 118.062-75.163 167.53-26.514 38.955-57.526 75.165-91.048 111.521-4.351 4.731-8.789 9.491-13.257 14.25-3.738 3.971-6.717 7.066-9.987 10.045z" fill="#7fdbae" fill-rule="evenodd"/></g><g><path clip-rule="evenodd" d="m144.092 341.553-32.559-29.348c-2.424 2.219-5.023 4.38-8.205 6.862l-73.878 57.381c-33.085 25.697-12.177 68.04 17.345 76.275 2.394-13.141 10.395-27.099 26.164-40.24 26.017-21.696 49.32-45.67 71.133-70.93z" fill="#ffe5c1" fill-rule="evenodd"/></g><g><path clip-rule="evenodd" d="m280.08 166.811c-42.4 51.599-79.923 107.199-122.381 158.623l6.858 29.978 33.643 3.662c66.753-95.314 203.939-180.846 301.207-255.719v-1.08c-8.293-2.716-121.505 20.675-186.535 84.159 35.596-44.562 61.293-88.89 183.177-172.173 1.051-.555 3.358-4.935 3.358-8.118 0-.029 0-.029 0-.058 0-2.628-1.606-4.409-6.862-2.424-93.559 35.422-157.159 95.869-212.465 163.15z" fill="#a7e9a6" fill-rule="evenodd"/></g><g><path clip-rule="evenodd" d="m198.201 359.074-40.502-33.64c-4.468 5.431-8.994 10.805-13.608 16.119-21.813 25.259-45.115 49.234-71.133 70.931-15.768 13.141-23.769 27.099-26.164 40.24-9.928 54.519 76.419 95.606 106.408 10.25 13.637-38.897 40.56-97.592 44.999-103.9z" fill="#ffe5c1" fill-rule="evenodd"/></g><g><path clip-rule="evenodd" d="m144.092 341.553-32.559-29.348-.321.292 15.973 14.396c-21.813 25.23-45.115 49.234-71.133 70.931-15.768 13.141-23.799 27.07-26.193 40.24-2.803-.788-5.548-1.898-8.176-3.241 6.278 8.527 15.214 15.126 25.113 17.901 2.394-13.141 10.395-27.099 26.164-40.24 26.016-21.697 49.319-45.671 71.132-70.931z" fill="#fed1a3" fill-rule="evenodd"/></g><g><path clip-rule="evenodd" d="m259.668 162.139c-45.641 55.512-85.471 109.681-132.192 164.464l16.615 14.951c4.614-5.315 9.14-10.688 13.608-16.119 42.458-51.425 79.981-107.025 122.381-158.624 29.697-45.379 42.078-85.094 40.881-153.367-.292-17.229-16.732-16.937-19.973-4.585-.117.496-.263.993-.38 1.489.204 63.777-12.352 108.076-40.94 151.791z" fill="#3bc3a4" fill-rule="evenodd"/></g><g><path clip-rule="evenodd" d="m198.201 359.074-40.502-33.64 20.236 16.82c-4.409 6.308-31.332 65.003-44.999 103.899-16.966 48.329-51.977 56.126-77.382 43.919 21.842 29.932 75.338 36.414 97.648-27.099 13.637-38.896 40.56-97.591 44.999-103.899z" fill="#fed1a3" fill-rule="evenodd"/></g><g><path clip-rule="evenodd" d="m177.935 342.254 20.265 16.82c66.753-95.314 203.939-180.846 301.207-255.719v-1.08c-167.058 67.31-293.818 200.528-321.472 239.979z" fill="#7fdbae" fill-rule="evenodd"/></g></g></svg>