<svg width="200" height="200" xmlns="http://www.w3.org/2000/svg"><path d="M156.308 76.639c-1.553-13.446-13.119-23.907-26.778-24.519-.051-.002-.094.005-.146.002-1.129-5.25-9.621-9.599-21.115-11.247l-9.207-.701c-.321-.006-.638-.02-.962-.02-16.414 0-29.867 5.27-31.287 11.989-13.546.735-24.974 11.136-26.516 24.496-.564 4.884-.16 11.72 2.601 18.557 9.67 23.931 9.67 21.537 12.088 40.683 1.146 9.079 8.947 35.753 30.745 23.467 3.764 3.314 7.894 5.25 12.369 5.25 4.598 0 8.689-2.036 12.281-5.523 22.178 12.973 30.081-14.047 31.237-23.194 2.417-19.146 2.417-16.752 12.088-40.683 2.764-6.837 3.165-13.673 2.602-18.557zm0 0" fill="#7bcb21"/><path d="M87.999 67.783c.01-.005.019-.005.03-.01 2.449-1.122 5.194-1.677 7.939-1.677.681 0 1.349.048 2.007.117a18.872 18.872 0 011.663.254c1.871.348 3.682.932 5.314 1.816a4.855 4.855 0 002.318.589c.274 0 .537-.061.803-.106.964-1.158 2.229-2.149 3.687-2.956a4.748 4.748 0 00-2.164-5.923 27.526 27.526 0 00-6.395-2.469l6.758-22.05c-.303-3.463-9.594-2.908-9.214 0l-7.448 21.284c-3.219.29-6.39 1.087-9.333 2.432a4.773 4.773 0 00-2.007 1.733c3.109 1.598 5.351 4.07 6.042 6.966zm0 0" fill="#23a24d"/><path d="M98.1 166.989c-.86 0-1.734-.07-2.592-.208-12.327-2.02-21.584-17.874-21.584-36.886l-.015-1.825c-.037-3.482-.12-11.638.015-23.33.014-1.322 1.066-2.322 2.444-2.365 1.334.017 2.406 1.098 2.391 2.422-.135 11.64-.05 19.757-.014 23.225l.014 1.873c0 16.425 7.681 30.551 17.487 32.158 1.276.205 2.44.2 3.657.007.06-.01.196-.032.254-.036 6.72-1.118 12.97-8.802 15.737-19.554.329-1.28 1.649-2.054 2.94-1.728 1.293.325 2.077 1.63 1.745 2.91-3.29 12.783-10.881 21.64-19.814 23.115a16.63 16.63 0 01-2.665.222zm21.758-31.11c-1.333 0-2.417-1.07-2.417-2.394v-2.392c0-1.324 1.084-2.394 2.417-2.394 1.335 0 2.419 1.07 2.419 2.394v2.392c0 1.324-1.084 2.394-2.419 2.394zM107.12 72.504c-.611 0-1.206-.23-1.655-.648-2.295-2.14-5.757-3.365-9.497-3.365-2.454 0-4.819.536-6.84 1.546a2.43 2.43 0 01-2.125.027 2.396 2.396 0 01-1.324-1.647c-.869-3.899-5.813-6.725-11.755-6.725-1.335 0-2.418-1.07-2.418-2.393 0-1.324 1.083-2.393 2.418-2.393 7.076 0 13.03 3.113 15.504 7.833 5.652-1.876 12.562-1.068 17.247 1.989 3.02-3.194 7.882-5.036 13.54-5.036 1.334 0 2.417 1.07 2.417 2.394 0 1.323-1.083 2.392-2.417 2.392-5.026 0-9.246 1.853-11.008 4.84a2.415 2.415 0 01-1.74 1.158 1.904 1.904 0 01-.347.028zm0 0" fill="#239b2b"/></svg>