<svg viewBox="0 0 500 500" xmlns="http://www.w3.org/2000/svg"><path d="M165.634 251.553c-3.201-1.894-13.348-6.567-14.834-11.07-6.512-19.711 9.967-42.878 28.73-44.075 7.188-.459 12.04-.134 17.824 4.511 6.795 5.454 8.61 15.134 14.984 20.923 13.922 12.643 40.566 15.213 51.257-3.008 14.052-23.948-13.923-35.256-32.735-33.935-4.451.312-5.504 7.44-5.504 10.975v5.267c0-8.916-10.38-25.329-6.52-33.468 1.52-3.202 12.576-2.137 15.159-2.137 16.667 0 30.187 9.354 45.721 13.717 4.974 1.397 12.782 1.013 17.128-1.955 6.328-4.319 12.712-17.979 15.946-3.395 5.913 26.669-20.397 67.375-45.835 73.054-8.901 1.987-17.022-.385-25.664-2.35-.998-.227-8.295-2.705-9.264-.843-2.914 5.591-5.578 15.701-3.568 22.019 4.277 13.438 23.197 24.602 6.367 37.197-18.028 13.492-44.2 6.02-56.344-12.224-2.952-4.436-.839-15.245-3.823-18.417-3.181-3.38-15.368 3.014-18.023 4.343-12.51 6.261-27.239 30.103-43.533 23.909-10.245-3.894-19.665-16.895-22.693-27.494-5.649-19.773 6.874-39.841 26.362-39.841 6.684 0 18.793 1.215 22.457 8.886 1.44 3.018-15.015-3.108-16.3-4.138-8.892-7.122-14.788-17.631-21.24-26.942-1.665-2.401-5.135-8.775-3.106-12.165 7.216-12.061 25.54-29.608 39.945-31.126 6.566-.692 13.924-.129 18.872 5.051.424.444 5.035 6.57 3.591 7.362-3.89 2.134-8.549-9.377-8.873-11.754-1.232-9.016.381-27.886 9.193-33.15 5.801-3.463 17.861-.473 24.268-.473 24.595 0 45.887-.856 68.916 8.52 18.405 7.493 37.085 9.475 56.837 7.392 5.024-.529 20.792-8.777 25.563-6.281 1.595.836 2.105 6.389 2.431 8.044 1.793 9.059 1.156 18.673 1.156 27.867 0 30.577 1.35 72.491-14.811 99.994-4.742 8.069-12.449 18.862-22.232 20.031-12.707 1.521-27.563-12.043-25.519 11.516.728 8.407 8.242 10.262 13.454 13.747 11.579 7.743 24.558 13.821 35.382 22.612 3.427 2.784 11.466 16.772 7.703 21.281-3.264 3.909-10.272 2.965-14.648 2.965-13.206 0-22.631-4.61-31.998-14.416-4.78-5.004-7.931-14.265-14.511-17.168-20.145-8.886-45.724.506-66.92-2.668-13.03-1.952-29.115-12.747-42.883-8.435-7.158 2.242-13.29 14.462-14.584 21.388-.433 2.319.335 9.575-2.797 10.388-14.119 3.67-27.317-6.853-29.279-20.004-.093-.625-6.392.49-6.886.574-7.567 1.296-16.389 4.712-24.196 2.975-11.439-2.547-13.229-32.146-10.838-41.389 1.711-6.615 15.726-7.07 20.109-4.749 6.497 3.443 10.819 10.115 17.045 14.022 12.494 7.843 28.182 10.867 42.179 6.281 5.722-1.873 17.636-4.01 18.458-12.153.761-7.529-5.586-14.44-9.578-20.233-10.163-14.75-22.182-27.388-38.353-34.97-5.678-2.661-21.8-1.277-25.488-6.834-3.562-5.369-2.699-12.765-3.079-18.923-.11-1.779-3.29-1.093-4.705-2.082a139.125 139.125 0 01-10.91-8.456c-5.658-4.846-11.156-10.108-16.042-15.824-2.699-3.158-7.125-8.276-8.523-12.382-3.46-10.163 3.698-33.545 13.946-37.588 17.648-6.961 19.705 31.888 33.417 11.678 7.812-11.514-12.243-19.581-19.498-22.344-1.424-.542-7.929-1.658-8.742-3.347-2.53-5.255 7.381-16.341 10.405-19.997 4.926-5.962 16.146-1.58 20.743 3.227 9.33 9.752-.747 23.972 16.201 25.443 2.169.188 5.094.383 7.262 0 2.989-.529 1.703-6.687 1.703-8.706 0-6.919-3.81-26.436 8.41-26.585.121-.001 2.261 6.274 2.312 6.447 1.737 5.764 2.747 11.809 5.653 17.102 8.94 16.281 16.07 30.022 35.702 28.213 18.923-1.745 19.925-34.462 27.31-47.338 5.054-8.809 15.618-10.135 23.805-13.584 5.055-2.132 13.171-5.669 18.792-3.168 4.163 1.853 7.902 5.735 11.172 8.887 2.282 2.2 8.558 6.419 8.685 10.095.622 17.797-28.344 27.439-30.489 6.309-1.309-12.912 14.302-14.097 23.204-13.497 19.807 1.336 31.102 24.537 52.835 20.538 10.135-1.864 26.176-16.797 24.014-28.667-1.532-8.411-18.136-5.173-21.969-1.179-6.686 6.964-3.471 29.311 3.38 35.34 5.225 4.598 16.068 2.32 22.316 2.32 4.254 0 20.988 5.559 24.379 1.976 1.929-2.037 3.476-7.326 4.773-10.059 3.4-7.175-12.615-12.954-14.001-8.071-5.569 19.622 13.593 38.5 20.33 54.159 3.828 8.902 4.74 29.682 2.324 39.662-.856 3.535-9.102 3.764-11.658 3.764-8.237 0-22.607.881-24.976 12.212-1.704 8.14 4.281 11.96 10.43 14.899 11.353 5.425 23.231 7.438 31.534 17.778 4.557 5.674 4.67 20.832-2.946 23.976-11.457 4.731-16.358-8.11-24.511-12.41-3.091-1.629-9.107-1.216-12.606-.76-9.325 1.215-18.445 15.816-13.881 25.205 5.646 11.615 21.578 23.381 34.2 20.069 14.099-3.701 5.841-31.047-10.095-20.209-1.842 1.252-.648 9.401-.648 11.273 0 5.612-1.129 12.451 1.263 17.629 3.4 7.365 15.537 15.189 3.357 20.383-29.078 12.398-43.347-21.159-44.729-47.035-.441-8.252.831-18.708-3.319-26.102-4.218-7.515-39.462-15.332-39.462-.485" fill="none" stroke="#cf0000" stroke-width="20" stroke-linejoin="round" stroke-linecap="round"/><path d="M254.896 302.212c2.628-1.567 10.954-5.436 12.173-9.163 5.343-16.316-8.179-35.494-23.574-36.486-5.898-.379-9.88-.11-14.625 3.734-5.576 4.516-7.065 12.528-12.297 17.321-11.422 10.466-33.285 12.593-42.058-2.49-11.53-19.824 11.425-29.185 26.861-28.092 3.652.26 4.516 6.16 4.516 9.086v4.36c0-7.38 8.517-20.968 5.351-27.706-1.248-2.65-10.32-1.769-12.439-1.769-13.677 0-24.769 7.744-37.517 11.357-4.08 1.155-10.488.837-14.054-1.619-5.192-3.576-10.432-14.884-13.084-2.81-4.853 22.076 16.736 55.771 37.61 60.473 7.303 1.645 13.967-.319 21.06-1.947.816-.187 6.804-2.239 7.6-.697 2.39 4.63 4.577 12.998 2.927 18.228-3.509 11.124-19.034 20.365-5.224 30.79 14.792 11.17 36.268 4.983 46.232-10.118 2.423-3.672.69-12.619 3.137-15.246 2.611-2.797 12.61 2.495 14.79 3.595 10.265 5.184 22.35 24.92 35.72 19.793 8.407-3.223 16.136-13.987 18.621-22.76 4.635-16.368-5.64-32.98-21.63-32.98-5.487 0-15.422 1.006-18.427 7.355-1.183 2.5 12.32-2.573 13.373-3.424 7.297-5.897 12.135-14.595 17.43-22.303 1.365-1.988 4.212-7.263 2.548-10.07-5.92-9.984-20.958-24.51-32.777-25.767-5.389-.572-11.425-.106-15.486 4.183-.348.367-4.13 5.44-2.946 6.093 3.192 1.767 7.014-7.763 7.281-9.729 1.01-7.463-.313-23.083-7.544-27.442-4.76-2.866-14.656-.39-19.912-.39-20.183 0-37.653-.71-56.55 7.052-15.102 6.203-30.429 7.843-46.637 6.12-4.122-.439-17.06-7.267-20.976-5.2-1.309.69-1.726 5.288-1.994 6.658-1.472 7.5-.949 15.458-.949 23.068 0 25.311-1.107 60.006 12.153 82.775 3.892 6.68 10.216 15.612 18.242 16.581 10.427 1.258 22.617-9.97 20.94 9.532-.598 6.96-6.763 8.495-11.04 11.381-9.5 6.41-20.15 11.44-29.032 18.717-2.81 2.305-9.409 13.885-6.32 17.617 2.677 3.236 8.428 2.455 12.02 2.455 10.834 0 18.568-3.818 26.254-11.935 3.923-4.142 6.51-11.809 11.907-14.21 16.53-7.356 37.52.418 54.912-2.21 10.691-1.615 23.89-10.55 35.186-6.982 5.875 1.857 10.906 11.971 11.968 17.704.354 1.921-.276 7.927 2.294 8.6 11.586 3.038 22.415-5.673 24.026-16.56.077-.517 5.244.406 5.65.476 6.21 1.072 13.448 3.901 19.854 2.462 9.386-2.108 10.855-26.61 8.892-34.26-1.403-5.476-12.904-5.853-16.5-3.932-5.33 2.85-8.876 8.373-13.986 11.607-10.25 6.493-23.123 8.996-34.61 5.2-4.695-1.55-14.472-3.32-15.145-10.06-.625-6.233 4.584-11.954 7.86-16.749 8.338-12.21 18.2-22.672 31.47-28.949 4.658-2.202 17.887-1.057 20.914-5.655 2.923-4.446 2.215-10.568 2.526-15.665.091-1.473 2.7-.906 3.861-1.724a114.887 114.887 0 008.952-7c4.643-4.012 9.154-8.367 13.163-13.098 2.214-2.615 5.847-6.85 6.993-10.25 2.84-8.414-3.034-27.769-11.442-31.115-14.483-5.764-16.17 26.396-27.42 9.667-6.41-9.532 10.045-16.21 15.998-18.496 1.17-.45 6.507-1.373 7.174-2.772 2.075-4.35-6.057-13.526-8.538-16.553-4.043-4.936-13.248-1.307-17.022 2.672-7.656 8.073.615 19.843-13.293 21.06-1.779.157-4.18.318-5.958 0-2.453-.436-1.397-5.535-1.397-7.206 0-5.727 3.126-21.884-6.9-22.006-.102 0-1.858 5.194-1.899 5.336-1.425 4.772-2.254 9.775-4.639 14.158-7.336 13.476-13.185 24.851-29.295 23.353-15.527-1.443-16.35-28.526-22.408-39.186-4.148-7.29-12.816-8.389-19.534-11.244-4.149-1.765-10.807-4.692-15.419-2.623-3.416 1.534-6.485 4.748-9.168 7.357-1.873 1.822-7.022 5.314-7.127 8.356-.51 14.733 23.257 22.714 25.018 5.222 1.075-10.688-11.734-11.669-19.039-11.17-16.253 1.105-25.52 20.31-43.354 17-8.316-1.543-21.479-13.905-19.705-23.73 1.258-6.963 14.882-4.282 18.027-.977 5.486 5.765 2.848 24.264-2.773 29.254-4.288 3.806-13.186 1.92-18.312 1.92-3.49 0-17.222 4.602-20.003 1.637-1.584-1.687-2.854-6.066-3.917-8.327-2.79-5.94 10.351-10.724 11.488-6.68 4.57 16.241-11.154 31.87-16.682 44.831-3.14 7.37-3.888 24.57-1.907 32.832.704 2.927 7.47 3.117 9.567 3.117 6.758 0 18.55.727 20.493 10.108 1.4 6.738-3.513 9.901-8.558 12.333-9.316 4.491-19.063 6.157-25.876 14.716-3.738 4.698-3.83 17.245 2.418 19.848 9.402 3.916 13.422-6.714 20.112-10.273 2.537-1.349 7.473-1.007 10.344-.63 7.652 1.007 15.136 13.093 11.39 20.865-4.632 9.615-17.706 19.355-28.062 16.613-11.569-3.063-4.793-25.7 8.284-16.729 1.51 1.036.532 7.783.532 9.332 0 4.645.925 10.307-1.038 14.593-2.79 6.097-12.749 12.573-2.754 16.873 23.86 10.263 35.567-17.515 36.703-38.935.361-6.83-.682-15.487 2.722-21.607 3.461-6.22 32.381-12.69 32.381-.4" fill="none" stroke="#ed3030" stroke-width="20" stroke-linejoin="round" stroke-linecap="round"/><path d="M211.594 236.968c-3.179 1.936-13.255 6.714-14.731 11.319-6.465 20.152 9.898 43.84 28.529 45.065 7.138.468 11.956.136 17.699-4.612 6.747-5.577 8.55-15.475 14.881-21.394 13.823-12.927 40.281-15.554 50.897 3.076 13.954 24.485-13.825 36.048-32.505 34.698-4.421-.319-5.466-7.609-5.466-11.222v-5.386c0 9.117-10.308 25.898-6.475 34.221 1.51 3.274 12.489 2.185 15.053 2.185 16.551 0 29.975-9.565 45.402-14.027 4.938-1.427 12.691-1.034 17.006 1.999 6.284 4.417 12.625 18.385 15.836 3.472 5.871-27.269-20.254-68.888-45.516-74.695-8.837-2.032-16.902.393-25.484 2.404-.989.232-8.236 2.766-9.199.861-2.892-5.717-5.539-16.054-3.542-22.514 4.247-13.74 23.034-25.155 6.322-38.031-17.902-13.796-43.89-6.155-55.949 12.497-2.932 4.535-.834 15.587-3.795 18.832-3.16 3.455-15.262-3.083-17.898-4.441-12.423-6.402-27.048-30.779-43.229-24.448-10.173 3.982-19.527 17.276-22.534 28.113-5.608 20.217 6.826 40.737 26.178 40.737 6.638 0 18.661-1.243 22.298-9.086 1.431-3.087-14.908 3.177-16.184 4.23-8.831 7.282-14.685 18.027-21.092 27.548-1.653 2.455-5.099 8.971-3.085 12.439 7.166 12.33 25.363 30.272 39.666 31.824 6.522.707 13.826.132 18.741-5.165.42-.454 4.998-6.718 3.565-7.526-3.863-2.183-8.488 9.588-8.812 12.016-1.222 9.22.379 28.512 9.13 33.897 5.76 3.54 17.736.483 24.097.483 24.425 0 45.567.876 68.435-8.713 18.276-7.661 36.824-9.687 56.439-7.558 4.988.542 20.646 8.975 25.384 6.423 1.584-.853 2.089-6.532 2.413-8.225 1.782-9.263 1.149-19.093 1.149-28.493 0-31.263 1.34-74.118-14.708-102.241-4.709-8.25-12.362-19.283-22.075-20.48-12.619-1.554-27.371 12.314-25.341-11.774.723-8.596 8.185-10.492 13.359-14.057 11.497-7.917 24.387-14.13 35.133-23.119 3.404-2.846 11.387-17.15 7.65-21.76-3.24-3.997-10.2-3.032-14.545-3.032-13.112 0-22.472 4.715-31.774 14.741-4.747 5.117-7.876 14.586-14.409 17.553-20.003 9.086-45.404-.516-66.453 2.728-12.937 1.996-28.91 13.032-42.58 8.625-7.11-2.294-13.198-14.787-14.483-21.868-.429-2.372.333-9.79-2.777-10.621-14.021-3.753-27.126 7.007-29.075 20.453-.093.639-6.346-.501-6.838-.587-7.514-1.324-16.274-4.818-24.026-3.042-11.36 2.604-13.137 32.868-10.761 42.318 1.697 6.764 15.615 7.23 19.967 4.856 6.452-3.52 10.742-10.342 16.926-14.337 12.405-8.019 27.983-11.112 41.883-6.422 5.683 1.915 17.514 4.1 18.328 12.426.757 7.698-5.546 14.765-9.51 20.688-10.091 15.081-22.026 28.004-38.085 35.756-5.637 2.72-21.646 1.305-25.309 6.986-3.538 5.491-2.681 13.052-3.057 19.348-.11 1.819-3.268 1.118-4.673 2.13a139.242 139.242 0 00-10.833 8.646c-5.618 4.955-11.078 10.334-15.93 16.179-2.679 3.23-7.076 8.462-8.463 12.66-3.436 10.391 3.672 34.299 13.847 38.432 17.527 7.118 19.569-32.603 33.184-11.941 7.757 11.775-12.157 20.022-19.362 22.846-1.413.557-7.873 1.697-8.681 3.424-2.51 5.372 7.33 16.707 10.332 20.447 4.893 6.095 16.033 1.613 20.599-3.302 9.265-9.971-.743-24.51 16.088-26.013 2.152-.193 5.058-.392 7.21 0 2.969.54 1.691 6.837 1.691 8.902 0 7.072-3.783 27.029 8.351 27.181.122.001 2.247-6.416 2.297-6.591 1.724-5.894 2.728-12.074 5.613-17.487 8.878-16.646 15.958-30.697 35.453-28.845 18.79 1.782 19.786 35.234 27.117 48.4 5.02 9.007 15.51 10.363 23.64 13.89 5.02 2.178 13.077 5.795 18.659 3.239 4.134-1.896 7.848-5.864 11.095-9.088 2.266-2.25 8.497-6.562 8.625-10.32.617-18.198-28.146-28.056-30.277-6.451-1.301 13.202 14.201 14.413 23.041 13.798 19.669-1.366 30.885-25.087 52.466-20.999 10.063 1.907 25.993 17.175 23.846 29.313-1.522 8.598-18.009 5.287-21.816 1.205-6.639-7.121-3.446-29.971 3.356-36.134 5.189-4.702 15.958-2.371 22.161-2.371 4.224 0 20.841-5.685 24.207-2.021 1.917 2.083 3.453 7.491 4.74 10.283 3.377 7.338-12.526 13.246-13.901 8.253-5.531-20.061 13.497-39.366 20.188-55.376 3.8-9.102 4.704-30.347 2.306-40.552-.851-3.616-9.038-3.85-11.577-3.85-8.179 0-22.448-.899-24.801-12.486-1.692-8.321 4.252-12.229 10.358-15.233 11.274-5.547 23.069-7.605 31.313-18.176 4.524-5.804 4.637-21.301-2.925-24.516-11.378-4.837-16.243 8.293-24.34 12.689-3.069 1.666-9.043 1.244-12.518.778-9.259-1.244-18.317-16.171-13.784-25.772 5.606-11.876 21.429-23.907 33.961-20.52 14 3.783 5.8 31.745-10.025 20.664-1.829-1.281-.644-9.613-.644-11.528 0-5.737-1.12-12.73 1.255-18.024 3.377-7.531 15.429-15.53 3.334-20.842-28.874-12.676-43.043 21.635-44.417 48.092-.438 8.438.826 19.129-3.295 26.688-4.188 7.684-39.185 15.676-39.185.496" fill="none" stroke="#ff8e8e" stroke-width="20" stroke-linejoin="round" stroke-linecap="round"/><path d="M322.863 260.613c3.336-2.005 13.911-6.955 15.46-11.724 6.784-20.875-10.388-45.412-29.94-46.68-7.49-.485-12.548-.14-18.575 4.777-7.08 5.777-8.973 16.03-15.618 22.16-14.507 13.392-42.273 16.113-53.416-3.186-14.643-25.362 14.51-37.34 34.115-35.94 4.64.33 5.736 7.88 5.736 11.623v5.58c0-9.445 10.817-26.827 6.794-35.449-1.583-3.39-13.106-2.262-15.797-2.262-17.37 0-31.459 9.907-47.649 14.53-5.182 1.477-13.319 1.071-17.847-2.072-6.594-4.575-13.249-19.044-16.619-3.596-6.162 28.246 21.256 71.357 47.767 77.372 9.276 2.104 17.74-.407 26.745-2.49 1.038-.24 8.645-2.865 9.654-.892 3.035 5.921 5.813 16.63 3.72 23.32-4.46 14.233-24.176 26.057-6.636 39.395 18.787 14.29 46.062 6.376 58.717-12.945 3.076-4.698.874-16.146 3.983-19.507 3.315-3.579 16.016 3.193 18.783 4.6 13.037 6.632 28.386 31.882 45.37 25.324 10.674-4.125 20.491-17.895 23.648-29.12 5.885-20.942-7.165-42.197-27.474-42.197-6.967 0-19.585 1.287-23.402 9.411-1.502 3.198 15.647-3.29 16.986-4.38 9.267-7.544 15.41-18.674 22.134-28.537 1.735-2.543 5.353-9.29 3.238-12.884-7.519-12.772-26.617-31.357-41.629-32.965-6.844-.732-14.51-.137-19.668 5.35-.44.47-5.245 6.96-3.74 7.796 4.053 2.261 8.908-9.93 9.247-12.447 1.283-9.549-.398-29.533-9.582-35.11-6.045-3.668-18.614-.502-25.289-.502-25.633 0-47.82-.907-71.82 9.025-19.18 7.936-38.648 10.036-59.232 7.83-5.236-.56-21.669-9.297-26.64-6.653-1.664.883-2.193 6.766-2.534 8.52-1.87 9.594-1.204 19.776-1.204 29.513 0 32.383-1.407 76.774 15.434 105.905 4.942 8.546 12.975 19.975 23.17 21.214 13.242 1.61 28.723-12.755 26.592 12.196-.758 8.904-8.589 10.868-14.02 14.562-12.065 8.2-25.593 14.635-36.87 23.946-3.572 2.948-11.95 17.765-8.03 22.54 3.402 4.14 10.705 3.141 15.266 3.141 13.761 0 23.583-4.884 33.346-15.27 4.981-5.3 8.265-15.108 15.122-18.182 20.992-9.41 47.651.535 69.74-2.825 13.58-2.068 30.342-13.499 44.688-8.935 7.461 2.377 13.851 15.317 15.2 22.652.45 2.457-.35 10.141 2.914 11.002 14.715 3.887 28.468-7.257 30.514-21.186.098-.662 6.66.52 7.176.608 7.885 1.371 17.08 4.99 25.215 3.151 11.921-2.698 13.787-34.046 11.293-43.835-1.78-7.006-16.388-7.488-20.955-5.029-6.77 3.645-11.274 10.712-17.763 14.85-13.02 8.306-29.367 11.51-43.956 6.653-5.963-1.984-18.38-4.248-19.235-12.872-.794-7.974 5.821-15.294 9.98-21.428 10.591-15.623 23.117-29.009 39.971-37.039 5.915-2.817 22.717-1.352 26.561-7.236 3.712-5.687 2.814-13.52 3.21-20.042.114-1.884 3.427-1.158 4.902-2.205a146.051 146.051 0 0011.37-8.957c5.896-5.132 11.625-10.704 16.717-16.759 2.812-3.344 7.426-8.765 8.882-13.113 3.606-10.764-3.853-35.528-14.532-39.81-18.395-7.373-20.538 33.772-34.826 12.37-8.14-12.197 12.76-20.74 20.32-23.665 1.484-.577 8.263-1.757 9.11-3.547 2.634-5.565-7.69-17.306-10.843-21.179-5.135-6.314-16.825-1.672-21.618 3.42-9.724 10.328.78 25.388-16.883 26.945-2.26.2-5.31.406-7.567 0-3.116-.559-1.776-7.082-1.776-9.22 0-7.327 3.971-27.999-8.764-28.156-.127 0-2.357 6.646-2.41 6.827-1.81 6.105-2.864 12.507-5.89 18.115-9.318 17.241-16.749 31.796-37.208 29.878-19.72-1.846-20.765-36.497-28.459-50.135-5.268-9.33-16.277-10.735-24.809-14.387-5.27-2.257-13.725-6.004-19.583-3.356-4.339 1.964-8.236 6.074-11.643 9.414-2.379 2.33-8.919 6.797-9.053 10.69-.647 18.85 29.54 29.062 31.775 6.683 1.365-13.677-14.904-14.93-24.18-14.294-20.642 1.415-32.414 25.986-55.063 21.752-10.56-1.976-27.279-17.79-25.026-30.364 1.597-8.906 18.901-5.476 22.895-1.247 6.968 7.375 3.617 31.044-3.52 37.428-5.446 4.87-16.749 2.457-23.258 2.457-4.434 0-21.873 5.888-25.405 2.093-2.012-2.158-3.625-7.759-4.976-10.652-3.544-7.6 13.146-13.72 14.59-8.549 5.805 20.78-14.164 40.777-21.187 57.361-3.988 9.428-4.937 31.434-2.42 42.005.893 3.745 9.485 3.988 12.15 3.988 8.583 0 23.558.931 26.028 12.933 1.775 8.62-4.463 12.667-10.87 15.78-11.832 5.746-24.21 7.877-32.863 18.828-4.748 6.01-4.867 22.063 3.07 25.394 11.94 5.01 17.047-8.59 25.543-13.145 3.222-1.725 9.491-1.288 13.138-.806 9.718 1.29 19.223 16.751 14.466 26.696-5.883 12.302-22.488 24.764-35.64 21.255-14.693-3.918-6.087-32.882 10.52-21.403 1.92 1.326.675 9.956.675 11.94 0 5.944 1.176 13.186-1.317 18.671-3.543 7.8-16.192 16.086-3.498 21.588 30.303 13.13 45.172-22.41 46.615-49.816.46-8.74-.867-19.814 3.457-27.644 4.396-7.959 41.125-16.238 41.125-.513" fill="none" stroke="#9e0000" stroke-width="20" stroke-linejoin="round" stroke-linecap="round"/></svg>