<svg clip-rule="evenodd" fill-rule="evenodd" height="512" image-rendering="optimizeQuality" shape-rendering="geometricPrecision" text-rendering="geometricPrecision" viewBox="0 0 512 512" width="512" xmlns="http://www.w3.org/2000/svg"><g id="Layer_x0020_1"><g id="_403106968"><path d="m256 82c-3 0-7-3-7-7 0-32 17-51 31-61 15-10 29-14 30-14 4-1 8 2 8 5 1 4-1 8-5 9-2 0-49 11-49 61 0 4-4 7-8 7z" fill="#a54b33"/><path d="m254 512c-1 0-3-1-4-2-24-21-44-31-67-43-9-4-18-9-28-14-69-37-108-115-108-214-1-31 7-59 22-83 5-7 10-15 16-21h342c6 7 11 14 16 21 15 24 23 52 22 83 0 41-7 80-20 113-16 39-39 69-71 91-16 11-33 19-49 27-22 11-44 22-66 40-1 2-3 2-5 2z" fill="#a54b33"/><path d="m143 135h113 113c4 7 8 14 11 21 10 24 15 52 15 83 0 41-5 80-14 113-10 39-26 69-47 91-11 11-22 19-32 27-15 11-29 22-44 40-1 1-1 2-2 2h-1c-1 0-2-1-3-2-16-21-29-31-45-43-5-4-11-9-18-14-46-37-72-115-72-214 0-31 5-59 15-83 3-7 7-15 11-21z" fill="#984731"/><path d="m206 135h50 50c2 7 4 14 5 21 5 24 7 52 7 83 0 41-2 80-6 113-5 39-12 69-21 91-5 11-10 19-15 27-6 11-13 22-19 40 0 1-1 2-1 2s0 0-1 0c0 0-1-1-1-2-7-21-13-31-20-43-2-4-5-9-8-14-20-37-32-115-32-214 0-31 2-59 7-83 1-7 3-15 5-21z" fill="#8c432f"/><path d="m85 135c12-13 26-25 43-34 36-21 81-32 128-32s92 11 128 32c17 9 31 21 43 34-32 30-97 49-171 49s-139-19-171-49z" fill="#ffda96"/><path d="m200 163c-24-3-45-8-64-15-10-4-19-9-27-13-5-3-10-6-14-10-4 3-7 6-10 10 11 10 27 20 45 27 19 8 42 14 67 18 19 2 39 4 59 4 21 0 40-2 59-4 25-4 48-10 67-18 18-7 34-16 45-27-3-3-6-6-8-9-5 3-9 6-14 9-9 5-18 9-29 13-19 7-40 12-64 16-17 2-36 3-54 3-21 0-40-1-58-4z" fill="#fdd08d"/></g></g></svg>