<svg width="200" height="200" xmlns="http://www.w3.org/2000/svg"><path d="M117.526 56.041c2.923-4.558 4.94-11.255 2.802-21.161-.147-.682-1.129-.692-1.278-.01-.791 3.628-3.666 9.635-11.488 15.87a59.74 59.74 0 019.964 5.301z" fill="#93603e"/><path d="M121.033 46.01c.366-3.169.219-6.85-.705-11.13-.147-.682-1.129-.692-1.278-.01-.791 3.628-3.666 9.635-11.488 15.87a59.593 59.593 0 016.367 3.104c3.22-2.74 5.506-5.413 7.104-7.834z" fill="#7f573c"/><path d="M84.89 45.868c-35.64 0-63.074 30.87-59.592 65.698 3.47 35.924 37.866 60.559 72.92 52.558 24.813-5.641 43.765-26.693 46.262-52.558 3.465-34.967-24.055-65.698-59.59-65.698z" fill="#9ab748"/><path d="M31.436 111.566c-3.382-33.82 22.393-63.907 56.522-65.619a61.206 61.206 0 00-3.069-.08c-35.638 0-63.073 30.872-59.59 65.699 3.126 32.385 31.388 55.59 62.606 53.988-28.702-1.5-53.549-23.741-56.47-53.988z" fill="#8ca532"/><path d="M160.181 67.973l-8.257 8.257a.982.982 0 00-.282.787c3.516 37.412-27.815 68.757-65.24 65.24a.98.98 0 00-.787.282l-8.257 8.257a.986.986 0 00.07 1.461c23.514 19.107 58.143 17.718 80.037-4.176 21.895-21.895 23.284-56.523 4.177-80.039a.986.986 0 00-1.46-.069z" fill="#fcb960"/><path d="M151.933 76.222a.98.98 0 00-.29.795c3.515 37.413-27.816 68.757-65.24 65.24a.98.98 0 00-.796.291c45.667 14.214 80.528-20.698 66.326-66.326z" fill="#ffa92c"/><path d="M111.978 76.656a2.264 2.264 0 001.543-3.92c-16.437-15.3-37.739-22.891-56.182-20.175a59.575 59.575 0 00-4.136 2.363 2.262 2.262 0 002.689 2.47c17.558-3.466 38.458 3.68 54.545 18.655.435.406.989.607 1.541.607zM74.28 75.103c-.302 0-.608-.06-.901-.188-10.748-4.67-21.712-6.168-31.705-4.334a2.265 2.265 0 01-.817-4.453c10.88-1.997 22.75-.394 34.325 4.635a2.264 2.264 0 01-.903 4.34z" fill="#8ca532"/><path d="M81.517 147.102a.971.971 0 01-.214-.25l-3.944 3.944a.986.986 0 00.068 1.46c23.516 19.108 58.145 17.718 80.039-4.176a61.27 61.27 0 001.125-1.158c-22.346 18.332-54.663 18.39-77.074.18z" fill="#ffa92c"/></svg>