<svg width="200" height="200" xmlns="http://www.w3.org/2000/svg"><path d="M147.749 119.704c-8.538 11.896-33.445 32.95-58.429 44.283-24.831 12.014-49.74 14.302-54.802 4.393-5.415-10.12 7.232-29.641 19.557-50.262 12.865-20.408 25.41-41.916 32.256-51.11 13.635-17.515 37.787-24.624 56.938-13.395 19.082 11.126 22.893 42.208 4.48 66.09z" fill="#4da317"/><path d="M101.705 83.23c13.074-16.794 35.812-24.01 54.544-14.679-2.783-6.316-7.173-11.553-12.979-14.938-19.15-11.23-43.302-4.12-56.938 13.395-6.846 9.193-19.39 30.702-32.256 51.11-12.325 20.62-24.972 40.14-19.558 50.262 2.048 4.008 7.344 6.02 14.568 6.2 2.163-10.659 11.343-25.153 20.362-40.24 12.865-20.408 25.41-41.918 32.257-51.11z" fill="#3a840d"/><path d="M171.959 47.752a3.425 3.425 0 00-.899-2.735l-8.37-8.834a3.04 3.04 0 00-2.59-.947c-.957.122-1.807.698-2.309 1.565L142.885 57.13c-.755 1.306 1.263 5.294 2.288 6.375 1.025 1.081 4.358 2.754 5.596 1.96l19.706-15.277c.823-.527 1.37-1.425 1.484-2.435z" fill="#3a840d"/><path d="M117.584 135.898c-.713-1.063-.528-2.52.461-3.297a178.842 178.842 0 004.553-3.692c.966-.81 2.37-.64 3.137.378.768 1.019.607 2.5-.359 3.31a183.437 183.437 0 01-4.668 3.786c-.4.314-2.124 1.005-3.124-.485zm-33.939 20.404c-.93-2.108 1.27-3.139 1.27-3.139 8.625-3.911 18.016-9.468 27.158-16.068 1.018-.736 2.407-.46 3.103.614.697 1.074.436 2.54-.582 3.275-9.376 6.77-19.03 12.478-27.917 16.51l-.1.045c-.287.13-2.007.86-2.932-1.237z" fill="#2b600b"/></svg>