<svg height="512" viewBox="0 0 508.451 508.451" width="512" xmlns="http://www.w3.org/2000/svg"><path d="M332.353 210.802c14.517 27.428-4.787 43.943-31.921 58.042-27.135 14.099-56.837 10.972-66.342-6.986-9.504-17.957 4.787-43.943 31.922-58.043 27.134-14.098 49.13-25.528 66.341 6.987z" fill="#c6814e"/><path d="M411.675 298.289c-15.895 26.667-40.23 19.099-66.612 3.663-26.383-15.436-39.334-42.103-28.927-59.563 10.406-17.46 40.23-19.099 66.613-3.663 26.381 15.436 47.769 27.95 28.926 59.563z" fill="#c6814e"/><path d="M411.675 298.289c13.358-22.41 6.495-35.222-8.028-46.282-40.793-2.891-51.2 34.702-18.808 63.918 10.329-.296 19.485-5.304 26.836-17.636z" fill="#f0a567"/><path d="M148.559 145.699c31.127 2.831 34.63 27.863 31.828 58.092-2.801 30.23-21.593 53.233-41.973 51.379-20.38-1.854-34.63-27.862-31.829-58.091 2.8-30.23 5.072-54.736 41.974-51.38z" fill="#fdaa6a"/><path d="M174.725 230.206c-1.941-18.143-10.14-31.212-32.112-33.21-19.296-1.755-29.12 4.11-34.506 14.429 4.173 47.963 46.427 59.995 66.618 18.781z" fill="#fcbc80"/><path d="M321.478 180.608c13.972-27.704 38.782-21.844 66.19-8.275 27.41 13.568 42.213 39.27 33.066 57.41-9.147 18.139-38.78 21.844-66.19 8.275-27.408-13.568-49.628-24.567-33.066-57.41z" fill="#f0a567"/><path d="M246.835 208.716c0 30.97-24.84 36.714-55.478 36.714-30.639 0-55.478-16.437-55.478-36.714 0-20.277 24.84-36.714 55.478-36.714 30.639 0 55.478 0 55.478 36.714z" fill="#c6814e"/><path d="M258.878 185.932c-15.895 26.667-40.23 19.1-66.612 3.663-26.383-15.435-39.333-42.103-28.926-59.562 10.405-17.46 40.23-19.1 66.612-3.664 26.382 15.436 47.77 27.95 28.926 59.563zm7.467 108.633c-19.339-24.331-3.411-44.07 20.66-62.85 24.07-18.782 53.849-21.093 66.51-5.163 12.663 15.93 3.412 44.07-20.658 62.85-24.072 18.782-43.586 34.007-66.512 5.163z" fill="#f0a567"/><path d="M353.516 226.552c-11.277-14.188-36.127-13.895-58.434-.396-15.01 15.342-21.282 31.773-5.99 51.013 16.094 20.248 30.544 19.261 45.985 10.439 22.41-18.74 30.704-45.625 18.439-61.056z" fill="#fdaa6a"/><path d="M328.915 215.982c-10.689 13.53-13.566 28.045-.364 44.655 6.297 7.922 12.341 12.582 18.293 14.805 22.077-28.476 13.442-59.096-17.929-59.46z" fill="#fcbc80"/><path d="M186.597 248.172c14.874 27.24-4.213 44.001-31.16 58.447-26.949 14.445-56.69 11.698-66.427-6.136-9.74-17.834 4.212-44 31.16-58.447 26.949-14.445 48.794-26.155 66.427 6.136z" fill="#f0a567"/><path d="M89.01 300.483c8.672 15.882 33.21 19.787 57.511 10.25 17.427-12.587 26.433-27.718 14.67-49.258-12.377-22.668-26.786-24.133-43.52-18.045-25.302 14.685-38.095 39.779-28.661 57.053z" fill="#fdaa6a"/><path d="M111.434 315.05c12.858-11.529 18.188-25.347 8.034-43.94-4.842-8.87-9.998-14.481-15.48-17.677-26.65 24.335-23.403 55.965 7.446 61.616z" fill="#fcbc80"/><path d="M227.972 125.255c-25.879-14.222-54.485-12.247-64.634 4.778-8.264 13.867-1.785 33.537 14.446 48.781 21.747 10.574 41.322 12.608 54.815-10.03 12.265-20.578 7.482-33.062-4.627-43.529z" fill="#fdaa6a"/><path d="M230.375 127.462a53.352 53.352 0 00-2.404-2.207c-22.823-12.543-55.239-14.517-65.585 6.555 2.712 4.053 6.057 7.994 9.977 11.675 26.457 12.864 45.521 10.598 58.012-16.023zm161.966 83.025c10.46 5.178 21.24 7.832 31.085 8.137.314-16.422-13.598-35.323-35.757-46.292-11.263-5.575-22.087-9.847-31.9-11.026-9.07 26.58 11.593 36.816 36.572 49.181z" fill="#fcbc80"/><path d="M337.191 131.315c0 30.97-24.838 36.714-55.478 36.714-30.639 0-55.477-16.438-55.477-36.714 0-20.277 24.838-36.714 55.477-36.714 30.64 0 55.478 0 55.478 36.714z" fill="#f0a567"/><path d="M281.713 94.6c-8.372 0-16.305 1.236-23.422 3.433-9.253 23.569 17.857 45.972 53.696 45.972 8.58 0 16.704-.452 23.957-1.78.81-3.237 1.248-6.852 1.248-10.91-.001-36.714-24.84-36.714-55.479-36.714z" fill="#fdaa6a"/><path d="M337.185 130.754c-.228-32.24-19.93-35.73-45.813-36.107.03 18.076 19.802 33.08 45.813 36.107z" fill="#f7caa9"/><path d="M255.23 267.387c0 30.97-24.838 36.714-55.478 36.714-30.639 0-55.478-16.437-55.478-36.714 0-20.277 24.84-36.715 55.478-36.715 30.64 0 55.478 0 55.478 36.715z" fill="#f0a567"/><path d="M199.752 230.672c-8.372 0-16.305 1.235-23.423 3.433-9.253 23.568 17.857 45.972 53.697 45.972 8.579 0 16.704-.452 23.957-1.78.81-3.236 1.247-6.852 1.247-10.91 0-36.715-24.838-36.715-55.478-36.715z" fill="#fdaa6a"/><path d="M255.223 266.825c-.227-32.238-19.928-35.729-45.812-36.106.03 18.075 19.802 33.08 45.812 36.106z" fill="#f7caa9"/><path d="M242.608 221.137c-19.339-24.331-3.411-44.07 20.66-62.85 24.071-18.782 53.85-21.093 66.511-5.163 12.662 15.93 3.412 44.07-20.66 62.85-24.07 18.782-43.584 34.007-66.51 5.163z" fill="#fdaa6a"/><path d="M329.779 153.124c-11.275-14.188-36.126-13.895-58.434-.396-15.01 15.343-21.281 31.773-5.99 51.013 16.094 20.248 30.544 19.261 45.986 10.439 22.41-18.74 30.703-45.625 18.438-61.056z" fill="#fcbc80"/><path d="M305.247 142.555c-10.688 13.529-13.566 28.044-.364 44.654 6.297 7.922 12.341 12.582 18.292 14.805 22.078-28.476 13.442-59.096-17.928-59.46z" fill="#f7caa9"/><path d="M337.254 422.152c0 3.681-2.962 6.663-6.617 6.663H178.709c-3.655 0-6.617-2.982-6.617-6.663v-21.628C116.143 376.9 72.29 329.996 52.486 271.847H456.86c-19.804 58.149-63.657 105.053-119.606 128.677z" fill="#3cb0f3"/></svg>