<svg width="200" height="200" xmlns="http://www.w3.org/2000/svg"><path d="M129.948 29.86c-16-5.082-27.799 7.91-37.444 12.44 0 0 20.456 12.335 26.82 18.632 3.152 3.117 6.17 8.593 8.165 12.682 8.29-3.493 19.512-6.37 28.996-5.992 4.487.18 7.768-1.857 11.972-.781 3.819-32.213-16.038-29.843-38.509-36.98z" fill="#70c449"/><path d="M116.472 64.898a2.466 2.466 0 01-2.075-.52c-1.129-.92-1.35-2.627-.496-3.811.315-.437 7.942-10.733 27.243-13.64 1.4-.21 2.709.822 2.925 2.308.217 1.484-.742 2.85-2.142 3.071-17.27 2.607-23.873 11.504-23.939 11.593a2.494 2.494 0 01-1.516 1z" fill="#43a838"/><path d="M122.736 59.364a2.383 2.383 0 01-.711.04c-1.412-.125-2.475-1.439-2.373-2.932l.793-11.708c.1-1.496 1.329-2.606 2.741-2.48 1.413.125 2.475 1.44 2.375 2.934l-.795 11.708c-.084 1.236-.938 2.21-2.03 2.438z" fill="#43a838"/><path d="M32.356 59.433l-3.851 7.484c11.292.866 29.608 19.688 28.513 10.809 1.147 9.302 1.671 2.038 1.538 1.993 5.321-16.054 18.464-34.546 35.323-33.877-33.935-22.354-53.74.677-61.523 13.59z" fill="#6ab742"/><path d="M97.018 101.02c7.471-13.182 21.473-25.706 28.833-33.628 5.83-12.786-30.714-38.687-46.719-34.685-5.074 1.27-30.595 21.766-22.114 39.75 22.707 13.063 38.01 42.865 40 28.562z" fill="#b0e046"/><path d="M84.493 57.548a4.3 4.3 0 012.106-2.138c2.252-1.056 5.01-.06 6.156 2.226 4.306 8.557 8.202 22.288 2.316 39.127-.82 2.352-3.425 3.513-5.813 2.602-2.394-.907-3.667-3.548-2.847-5.894 3.89-11.13 3.28-21.896-1.808-32.01-.65-1.297-.644-2.725-.11-3.913z" fill="#a0c638"/><path d="M93.984 170.044c11.348-17.261-2.113-22.976.934-37.216 4.269-19.931 7.341-25.111-1.491-36.229 0 0-17.423-26.718-66.904-29.82-.827-.009-3.762.223-4.346 3.93a94.395 94.395 0 00-.663 8.303 95.07 95.07 0 00-.052 3.611c.947 11.756 3.639 28.245 10.914 43.558 12.962 24.136 36.321 41.287 63.856 44.33.263-.012.526-.013.787-.028a73.934 73.934 0 01-3.035-.439z" fill="#4baa3d"/><path d="M38.265 128.503c-7.558-15.91-10.356-33.046-11.34-45.26-.004-1.246.01-2.496.055-3.753.102-2.915.336-5.793.688-8.628.37-2.347 1.646-3.352 2.784-3.778a149.93 149.93 0 00-3.93-.305c-.826-.009-3.761.223-4.345 3.93a94.395 94.395 0 00-.663 8.303 97.237 97.237 0 00-.052 3.611c.947 11.756 3.64 28.245 10.914 43.558 9.022 16.801 23.085 30.216 40.085 37.843-14.32-8.223-26.175-20.583-34.196-35.52z" opacity=".15" fill="#231f20"/><path d="M84.023 138.382c-.318 0-.639-.063-.951-.196-22.196-9.436-33.376-25.47-33.842-26.147-.832-1.215-.581-2.915.562-3.8 1.143-.885 2.744-.618 3.578.596.164.236 10.903 15.5 31.605 24.301 1.313.558 1.952 2.141 1.425 3.535-.4 1.064-1.361 1.71-2.377 1.71z" fill="#368c2a"/><path d="M175.597 70.717c-.825-2.685-2.533-3.86-3.565-4.34a62.677 62.677 0 00-19.314-3.862c-36.571-1.452-67.33 28.857-68.698 67.695-.513 14.592 3.194 28.313 9.965 39.834a69.29 69.29 0 008.79.93c16.703.664 32.307-4.668 44.975-14.18l5.59-4.641c14.862-13.62 24.56-33.51 25.351-55.985a82.03 82.03 0 00-3.094-25.451z" fill="#43a838"/><path d="M73.266 132.83c-1.188 0-2.252-.883-2.504-2.166l-4.38-22.325c-.288-1.47.6-2.91 1.986-3.217 1.385-.305 2.74.638 3.028 2.109l4.38 22.324c.288 1.47-.6 2.91-1.985 3.217a2.44 2.44 0 01-.525.058zm47.119 17.2a2.504 2.504 0 01-2.048-1.089c-.435-.615-10.584-15.31-7.397-36.464.224-1.483 1.538-2.495 2.934-2.255 1.396.237 2.347 1.632 2.124 3.115-2.834 18.801 6.35 32.217 6.442 32.35.841 1.205.606 2.908-.526 3.803a2.45 2.45 0 01-1.529.54zm19.82-20.894c-1.22 0-2.3-.928-2.519-2.248-.244-1.48.686-2.89 2.08-3.15l13.539-2.528c1.391-.26 2.72.728 2.965 2.208.245 1.479-.687 2.889-2.079 3.15l-13.54 2.527a2.49 2.49 0 01-.446.041z" fill="#368c2a"/><path d="M97.824 167.653c-.385.22-3.224-4.838-2.65-5.151 41.14-22.39 53.47-61.141 53.584-61.52.433-1.43 1.876-2.218 3.222-1.758 1.346.459 2.088 1.99 1.655 3.42-.124.414-3.15 10.257-11.466 23.168-7.644 11.867-22.156 29.173-44.345 41.841z" fill="#368c2a"/><path d="M89.483 131.108c1.327-37.176 29.562-66.635 64.311-68.54-.358-.02-.716-.04-1.076-.053-36.571-1.452-67.33 28.857-68.698 67.695-.513 14.592 3.194 28.313 9.965 39.834 1.743.293 3.508.52 5.29.687-6.67-11.52-10.307-25.146-9.792-39.623z" opacity=".15" fill="#231f20"/></svg>