<svg width="200" height="200" xmlns="http://www.w3.org/2000/svg"><path d="M68.692 63.783a2.565 2.565 0 01-2.566-2.566c0-11.797-6.613-20.069-6.679-20.151a2.565 2.565 0 013.97-3.251c.32.39 7.84 9.706 7.84 23.402a2.565 2.565 0 01-2.565 2.566zm0 0" fill="#cdf5a0"/><path d="M81.313 29.234c-7.618 4.277-12.846 10.951-15.04 18.089 7.237 1.844 15.656.854 23.275-3.422 6.48-3.638 11.23-9.01 13.855-14.927a2.72 2.72 0 00-2.131-3.797c-6.419-.84-13.479.419-19.96 4.057zm0 0" fill="#96d7a5"/><path d="M101.273 25.177c-6.42-.84-13.48.419-19.959 4.057-7.619 4.277-12.847 10.951-15.04 18.089l37.017-20.774a2.702 2.702 0 00-2.018-1.372zm0 0" fill="#78c3a5"/><path d="M63.416 37.815a2.565 2.565 0 00-3.969 3.251c.042.053 2.801 3.521 4.757 9.138a2.573 2.573 0 002.97 1.664c1.516-.328 2.404-1.926 1.893-3.39-2.246-6.451-5.443-10.412-5.65-10.663zm0 0" fill="#b4e6a0"/><path d="M68.548 162.977c3.104 0 5.86-.876 7.63-5.42.766-1.971 2.436-3.454 4.45-4.099 18.174-5.818 31.469-24.427 31.469-46.493 0-26.723-19.497-48.387-43.549-48.387C44.497 58.578 25 80.242 25 106.965c0 22.066 13.295 40.675 31.469 46.493 2.014.645 3.684 2.128 4.45 4.1 1.769 4.543 4.526 5.419 7.63 5.419zm0 0" fill="#afdc82"/><path d="M89.01 144.14c-18.897 2.66-38.958-8.324-48.548-28.197-7.783-16.13-6.682-34.03 1.405-47.222C31.604 77.574 25 91.412 25 106.965c0 22.066 13.295 40.675 31.469 46.493 2.014.645 3.684 2.128 4.45 4.1 1.769 4.543 4.526 5.419 7.63 5.419 3.103 0 5.86-.876 7.629-5.42.766-1.971 2.436-3.454 4.45-4.099 5.096-1.631 9.788-4.298 13.932-7.737-1.527-1.298-3.555-1.86-5.55-1.58zm0 0" fill="#96cd82"/><path d="M175 129.106c0 25.387-18.323 45.967-48.387 45.967-30.065 0-48.387-20.58-48.387-45.967 0-25.388 18.322-45.968 48.387-45.968 30.064 0 48.387 20.58 48.387 45.968zm0 0" fill="#afdc82"/><path d="M126.613 88.068c25.583 0 43.45 16.875 43.45 41.038 0 24.162-17.867 41.037-43.45 41.037-25.583 0-43.451-16.875-43.451-41.037 0-24.163 17.868-41.038 43.45-41.038" fill="#fff6d8"/><path d="M131.452 129.106a4.839 4.839 0 11-9.678 0 4.839 4.839 0 019.678 0zm0 0" fill="#fff"/><path d="M117.017 131.525h-29.83c-2.201 0-3.923 1.952-3.614 4.13 1.053 7.398 3.888 13.928 8.173 19.265 1.342 1.671 3.865 1.765 5.381.25l20.99-20.99c.98-.98.286-2.655-1.1-2.655zm3.135-43.127c-6.92.81-13.141 2.918-18.419 6.125-1.993 1.211-2.275 4.006-.626 5.655l20.431 20.431c.98.98 2.656.287 2.656-1.1V92.018c0-2.165-1.892-3.872-4.042-3.62zm8.88 3.62v27.491c0 1.387 1.676 2.08 2.656 1.1l20.431-20.431c1.649-1.649 1.367-4.444-.626-5.655-5.278-3.207-11.5-5.315-18.42-6.125-2.15-.252-4.04 1.455-4.04 3.62zm-10.915 32.012l-20.99-20.99c-1.516-1.514-4.04-1.42-5.38.251-4.285 5.337-7.121 11.867-8.174 19.264-.31 2.18 1.413 4.131 3.613 4.131h29.83c1.387 0 2.081-1.676 1.1-2.655zm16.993 10.15l20.989 20.99c1.515 1.515 4.039 1.421 5.38-.25 4.285-5.337 7.12-11.867 8.174-19.264.31-2.18-1.413-4.131-3.613-4.131h-29.831c-1.386 0-2.08 1.676-1.1 2.655zm1.099-7.494h29.832c2.2 0 3.922-1.952 3.612-4.13-1.052-7.398-3.888-13.928-8.174-19.265-1.341-1.671-3.865-1.765-5.38-.25l-20.99 20.99c-.98.98-.286 2.655 1.1 2.655zm-7.177 12.016v27.491c0 2.165 1.892 3.872 4.042 3.62 6.92-.81 13.141-2.919 18.419-6.125 1.993-1.21 2.275-4.006.626-5.656l-20.431-20.43c-.98-.98-2.656-.286-2.656 1.1zm-7.494-1.1l-20.431 20.432c-1.649 1.648-1.367 4.443.626 5.654 5.278 3.207 11.499 5.315 18.42 6.125 2.15.252 4.04-1.455 4.04-3.62v-27.491c0-1.386-1.675-2.08-2.655-1.1zm0 0" fill="#e1f587"/></svg>