<svg height="512" width="512" xmlns="http://www.w3.org/2000/svg"><path d="M152.58 165.401l28.302-41.202V71.907l20.204 13.073v39.219l31.84 41.202z" fill="#91591c"/><path d="M221.291 156.881l20.205-13.073 13.47 13.073 20.205-6.536 6.735 19.609h20.204l-13.47 19.609 20.205 19.61v183.021l-74.084 13.073-47.144-13.073-20.205 13.073-13.47-13.073h-13.47l-6.735-13.073h-20.205v-19.609H93.328l6.735-19.61-13.47-6.536v-13.073l-20.205-6.537 13.47-26.146-20.205-6.536 13.47-13.073-13.47-13.073 13.47-19.609-13.47-13.073 20.205-13.073-13.47-13.073 20.205-13.073-6.735-13.073 20.205-6.536-6.735-19.61h20.204l13.47-13.073 13.47 13.073 13.47-13.073 13.47 13.073 13.47-6.536 13.47 26.146 20.204-13.073z" fill="#ef5e3b"/><path d="M234.761 307.22v-19.61c0-50.54 42.215-91.51 94.289-91.51s94.289 40.97 94.289 91.51v19.61z" fill="#ffeaab"/><path d="M295.375 307.22v-1.105c0-16.386 4.589-32.463 13.275-46.513 4.299-6.955 12.043-11.21 20.4-11.21s16.101 4.255 20.4 11.21c8.686 14.05 13.275 30.127 13.275 46.513v1.105z" fill="#b1712c"/><path d="M128.975 253.014l-15.443-14.988-15.443 14.988-9.524-9.245 20.205-19.61a6.736 6.538 0 019.524 0l20.205 19.61zm47.144-26.146l-15.443-14.988-15.442 14.988-9.525-9.245 20.205-19.61a6.736 6.538 0 019.525 0l20.204 19.61zm67.349-6.537l-15.442-14.988-15.443 14.988-9.524-9.244 20.205-19.61a6.736 6.538 0 019.524 0l20.205 19.61zm-101.024-26.146l-15.442-14.988-15.443 14.988-9.524-9.244 20.205-19.61a6.736 6.538 0 019.524 0l20.205 19.61zm60.615 78.438l-15.443-14.988-15.442 14.988-9.525-9.245 20.205-19.609a6.736 6.538 0 019.524 0l20.205 19.61zm-53.879 19.609l-15.443-14.988-15.443 14.988-9.524-9.244 20.205-19.61a6.736 6.538 0 019.524 0l20.205 19.61zm0 45.756L133.736 323l-15.443 14.988-9.524-9.245 20.205-19.61a6.736 6.538 0 019.524 0l20.205 19.61z" fill="#e04f2b"/><path d="M342.52 431.413l13.47 13.073 13.47-13.073 13.469 13.073 13.47-13.073h20.205l-6.735-19.61 20.205-6.536-6.735-13.073 20.205-13.073-13.47-13.073 20.205-13.073-13.47-13.073 13.47-19.609-13.47-13.073H221.291l-20.205 13.073 13.47 13.073-13.47 6.536 13.47 19.61-6.735 13.072 13.47 13.073-13.47 19.61h20.205l6.735 19.609 20.205-6.536 6.735 19.609 20.205-6.536 13.469 19.609 13.47-13.073 13.47 13.073z" fill="#f5714f"/><path d="M277.143 364.134l-15.442-14.988-15.443 14.988-9.524-9.245 20.205-19.609c2.63-2.552 6.893-2.552 9.524 0l20.205 19.609zm47.145 19.609l-15.443-14.988-15.442 14.988-9.525-9.244 20.205-19.61c2.631-2.551 6.894-2.551 9.524 0l20.205 19.61zm-40.41 26.146l-15.442-14.988-15.443 14.988-9.524-9.244 20.204-19.61c2.631-2.552 6.894-2.552 9.525 0l20.205 19.61zm121.229-32.682l-15.443-14.988-15.442 14.988-9.525-9.245 20.205-19.609c2.631-2.552 6.894-2.552 9.525 0l20.204 19.609zm-26.94 32.682l-15.442-14.988-15.443 14.988-9.524-9.244 20.204-19.61c2.631-2.552 6.894-2.552 9.525 0l20.205 19.61zm-13.47-52.292l-15.442-14.988-15.443 14.988-9.524-9.244 20.205-19.61c2.63-2.551 6.894-2.551 9.524 0l20.205 19.61z" fill="#ef5e3b"/><path d="M355.225 256.238c-3.292-5.291-8.203-9.454-14.048-11.908-3.485-3.772-5.406-8.663-5.392-13.729v-14.892h-13.47v14.892c.014 5.066-1.907 9.957-5.392 13.729-5.845 2.454-10.756 6.617-14.048 11.908-9.313 15.067-14.234 32.307-14.235 49.877v1.105h13.47v-1.105c.001-15.201 4.258-30.116 12.315-43.15 6.624-10.716 22.626-10.716 29.25 0 8.057 13.034 12.314 27.949 12.315 43.15v1.105h13.47v-1.105c-.001-17.57-4.921-34.81-14.235-49.877z" fill="#ffd873"/></svg>