<svg viewBox="0 0 512 512" xmlns="http://www.w3.org/2000/svg"><path d="M306.861 118.878V59.521h-94.443v59.357c0 13.842-3.576 27.395-10.306 39.056l-18.54 32.122c-6.477 11.222-9.919 24.263-9.919 37.585v192.617c0 30.044 21.977 54.4 49.085 54.4h73.805c27.108 0 49.085-24.356 49.085-54.4V227.641c0-13.32-3.442-26.363-9.919-37.585l-18.54-32.122c-6.731-11.661-10.308-25.214-10.308-39.056z" fill="#f3f3f3"/><path d="M345.63 227.638v192.614c0 30.044-21.974 54.409-49.083 54.409h-36.91V59.522h47.23v59.354c0 13.842 3.575 27.402 10.299 39.053l18.541 32.122c6.48 11.222 9.923 24.274 9.923 37.587z" fill="#ebebeb"/><path fill="#7fc8f1" d="M173.648 243.011h171.975v106.695H173.648z"/><path fill="#009ae5" d="M259.64 243.011h85.993v106.695H259.64z"/><path d="M319.588 75.934H199.693V56.111c0-11.198 8.191-20.275 18.295-20.275h83.305c10.104 0 18.295 9.077 18.295 20.275v19.823z" fill="#7fc8f1"/><path d="M319.59 56.113v19.826h-59.954V35.836h41.657c10.107-.001 18.297 9.076 18.297 20.277z" fill="#009ae5"/><path d="M226.44 319.482v-30.61l-10.755 22.795h-4.407l-10.754-22.794v30.61h-8.109v-46.24h8.697l12.34 26.31 12.458-26.31h8.64v46.24h-8.11zm16.805 0v-46.24h8.11v46.24h-8.11z" fill="#fff"/><path d="M259.637 319.482v-46.24h8.11v38.36h21.272v7.88h-29.382zm34.733 0v-46.174h8.108v21.947l17.512-22.013h8.932l-15.984 20.515 16.982 25.724h-9.108l-12.987-19.993-5.348 6.187v13.806h-8.108v.001z" fill="#fff5cb"/></svg>