<svg height="512" viewBox="0 0 511.97 511.97" width="512" xmlns="http://www.w3.org/2000/svg"><path d="M124.475 315.893l4.252 8.213s67.429 51.205 125.183 51.205c57.755 0 125.488-51.205 125.488-51.205l3.943-8.213h.001c-6.483-18.118-14.444-42.992-20.028-69.263l-12.34-6.49H155.033l-10.533 6.487c-5.584 26.272-13.546 51.147-20.028 69.265z" fill="#365e7d"/><path d="M474.984 184.325l-209.808-66.314a37.508 37.508 0 00-22.531 0L32.838 184.325c-5.417 1.712-5.895 8.702-.756 11.046l206.409 94.111c9.732 4.437 21.107 4.437 30.839 0l206.409-94.111c5.139-2.344 4.661-9.334-.755-11.046z" fill="#477b9e"/><path d="M440.405 358.769h-23.82l-2.833 41.202c-.234 3.414 2.581 6.308 6.137 6.308H437.1c3.557 0 6.372-2.894 6.137-6.308z" fill="#ffd064"/><path d="M434.008 329.156h-11.027c-5.494 0-9.989 4.203-9.989 9.341v18.543c0 1.686 1.463 3.054 3.266 3.054h24.473c1.803 0 3.265-1.368 3.265-3.054v-18.543c0-5.138-4.495-9.341-9.988-9.341z" fill="#ffe07d"/><path d="M430.53 357.04v-18.543c0-4.071 2.827-7.547 6.734-8.819a10.529 10.529 0 00-3.256-.522h-11.027c-5.494 0-9.989 4.203-9.989 9.341v18.543c0 1.687 1.463 3.054 3.266 3.054h17.538c-1.804.001-3.266-1.367-3.266-3.054z" fill="#ffd064"/><path d="M255.314 158.81c-13.081-.742-23.938 8.961-23.938 21.034v.107c.029 5.429 4.894 9.757 10.7 9.757h23.67c5.612 0 11.022-4.061 10.671-10.897-.543-10.632-9.742-19.358-21.103-20.001z" fill="#3f6d8e"/><path d="M383.342 315.893c-23.646 18.176-62.096 38.519-103.635 51.037-16.464 4.963-34.713 5.09-51.597 0-41.444-12.49-79.88-32.787-103.635-51.038a608.49 608.49 0 01-6.106 16.335c-2.993 7.658-.415 16.265 6.439 21.303 37.977 27.914 78.061 43.165 103.302 50.772 8.335 2.511 17.041 3.768 25.799 3.768 8.757 0 17.463-1.257 25.798-3.768 25.241-7.607 65.326-22.859 103.302-50.772 6.854-5.038 9.432-13.645 6.44-21.303a603.227 603.227 0 01-6.107-16.334z" fill="#ffe07d"/><path d="M379.331 147.288c-3.558-1.119-7.916 10.931-4.357 12.056m0 0l97.102 30.691-45.707 20.84a21.37 21.37 0 00-6.337-2.68l-137.1-33.509c-4.358-20.967-31.962-29.767-48.917-14.845-5.868 5.164-9.233 12.448-9.233 19.981v.14c.048 8.871 7.899 16.088 17.503 16.088h23.67c6.113 0 12.226-2.983 15.396-8.598l127.854 31.249-142.648 65.042a30.011 30.011 0 01-24.876 0l-205.52-93.708 208.87-66.017a30.406 30.406 0 0118.175 0l81.548 25.775m0 0c3.561 1.125 7.917-10.931 4.357-12.055m0 0l-81.548-25.776c-8.671-2.74-18.218-2.74-26.889 0L30.868 178.274c-11.147 3.526-12.153 17.964-1.559 22.794l107.675 49.094c-5.924 26.337-14.968 54.693-24.797 79.86-4.024 10.292-.557 21.741 8.625 28.491 31.073 22.84 67.789 40.484 105.419 51.825 17.684 5.329 37.402 5.534 55.771 0 37.643-11.346 74.362-28.996 105.419-51.825 9.216-6.776 12.636-18.23 8.625-28.491-9.622-24.61-18.789-53.15-24.796-79.857l50.649-23.094v95.764c-8.657.619-15.502 7.39-15.502 15.642v18.542c0 2.754 1.279 5.229 3.301 6.953l-2.527 35.734c-.493 6.981 5.442 12.915 12.926 12.915h17.212c7.48 0 13.418-5.931 12.925-12.915l-2.527-35.734c2.023-1.724 3.302-4.198 3.302-6.953v-18.543c0-8.252-6.846-15.023-15.503-15.642v-95.9c0-1.956-.329-3.85-.917-5.648l44.339-20.217c10.581-4.825 9.607-19.264-1.558-22.795l-98.039-30.986m-113.376 36.036h-23.67c-2.102 0-3.887-1.568-3.896-3.395v-.107c0-4.099 1.758-7.903 4.952-10.715 9.797-8.624 25.854-2.416 26.49 9.987.151 2.97-1.894 4.23-3.876 4.23zm-28.991 192.198c3.696.657 6.241-11.841 2.551-12.499m0 0c-16.963-3.025-69.307-21.864-106.888-49.359 5.525-15.802 11.928-36.11 16.961-57.754l86.13 39.269a44.335 44.335 0 0036.802 0l86.125-39.269c5.033 21.645 11.435 41.953 16.962 57.755-36.759 26.905-88.925 46.151-106.893 49.355m0 0c-3.691.658-1.131 13.159 2.549 12.5m0 0c18.795-3.353 70.29-22.067 108.947-49.123a653.291 653.291 0 003.056 7.993c1.996 5.107.286 10.779-4.253 14.117-36.639 26.93-75.248 41.902-101.184 49.718-15.492 4.669-32.319 4.554-47.424 0-25.937-7.817-64.545-22.788-101.184-49.718-4.539-3.337-6.251-9.007-4.253-14.118l.119-.308a603.872 603.872 0 002.936-7.686c37.744 26.409 89.099 45.587 108.941 49.127m183.83 24.373l2.366-33.459h11.084l2.365 33.459h-15.815zm16.607-61.42v15.235h-17.397v-15.235c0-1.614 1.457-2.978 3.184-2.978h11.028c1.726.001 3.185 1.364 3.185 2.978z"/></svg>