<svg height="512" width="512" xmlns="http://www.w3.org/2000/svg"><g transform="matrix(.7264 0 0 .71905 68.845 68.083)"><path d="M476.521 289.625a884.634 884.634 0 01-5.264 24.395c-14.371 62.614-35.119 124.621-48.573 162.119-7.139 19.883-25.095 33.635-45.812 35.613-1.71.165-3.431.247-5.172.247H140.3c-1.741 0-3.472-.082-5.182-.247-20.727-1.978-38.673-15.731-45.802-35.613-13.228-36.87-33.512-97.445-47.852-158.988a892.62 892.62 0 01-5.985-27.526s15.061-6.748 54.342-13.053a625.193 625.193 0 0115.195-2.256c20.181-2.72 45.41-5.192 76.491-6.768 4.996-.247 10.137-.474 15.442-.68 17.884-.69 37.519-1.082 59.05-1.082 21.521 0 41.166.391 59.04 1.082 5.305.206 10.446.433 15.442.68 31.091 1.576 56.32 4.049 76.501 6.768a625.193 625.193 0 0115.195 2.256c39.282 6.305 54.344 13.053 54.344 13.053z" fill="#f4ddb1"/><path d="M192.126 512h-51.828c-22.86 0-43.257-14.34-50.984-35.861-15.195-42.361-39.713-116.029-53.837-186.514 0 0 26.61-11.919 101.37-18.904 7.943 76.378 19.604 152.395 27.135 198.124C168.247 494.744 179.507 512 192.126 512z" fill="#f1d59d"/><path d="M422.179 276.573c-.01.247-.031.484-.062.721-13.3 99.114-37.519 202.647-45.245 234.459-1.71.165-3.431.247-5.172.247h-10.796c6.366-25.92 32.08-133.779 45.894-236.767.041-.319.103-.618.186-.917.968-3.729 4.595-6.233 8.499-5.707a7.718 7.718 0 016.696 7.964zM151.086 512H140.3c-1.741 0-3.472-.082-5.182-.247-7.716-31.812-31.936-135.345-45.235-234.459a7.715 7.715 0 016.634-8.684c3.904-.536 7.531 1.978 8.499 5.707.082.299.144.597.186.917C119.017 378.221 144.73 486.08 151.086 512zm179.468-245.791c-.021.443-.052.896-.072 1.339-5.8 105.305-15.999 213.783-18.976 244.452h-15.535c2.771-28.32 13.186-138.353 19.069-245.132.031-.505.051-.999.082-1.504.237-4.265 3.894-7.52 8.138-7.294 4.265.238 7.531 3.874 7.294 8.139zM216.029 512h-15.535c-2.977-30.669-13.176-139.147-18.986-244.452-.021-.443-.051-.896-.072-1.339a7.736 7.736 0 017.294-8.138 7.712 7.712 0 018.139 7.294c.031.505.051.999.082 1.504C202.843 373.647 213.258 483.68 216.029 512z" fill="#efcb84"/><path d="M476.521 289.625a884.634 884.634 0 01-5.264 24.395c-14.299-5.687-71.381-24.199-207.643-24.199-151.468 0-205.233 22.952-210.868 25.569a20.522 20.522 0 01-11.28 1.762 892.62 892.62 0 01-5.985-27.526s15.061-6.748 54.342-13.053a625.193 625.193 0 0115.195-2.256c20.181-2.72 45.41-5.192 76.491-6.768 4.996-.247 10.137-.474 15.442-.68 17.884-.69 37.519-1.082 59.05-1.082 21.521 0 41.166.391 59.04 1.082 5.305.206 10.446.433 15.442.68 31.091 1.576 56.32 4.049 76.501 6.768a625.193 625.193 0 0115.195 2.256c39.28 6.304 54.342 13.052 54.342 13.052z" fill="#efcb84"/><path d="M494.264 287.513c-3.503 7.489-10.93 11.888-18.677 11.888-2.926 0-5.893-.628-8.715-1.947-5.604-2.617-59.143-25.59-210.919-25.59-151.467 0-205.233 22.952-210.868 25.569-10.322 4.79-22.571.319-27.372-10.003-4.79-10.322-.309-22.571 10.003-27.372A110.266 110.266 0 0134 257.431a60.407 60.407 0 01-.381-1.35 185.025 185.025 0 01-7.088-50.788C26.531 92.304 128.55.639 254.685.01c.443-.01.876-.01 1.319-.01 126.733 0 229.463 91.913 229.463 205.294 0 9.014-.649 17.884-1.906 26.589s-3.121 17.235-5.563 25.569a105.493 105.493 0 016.325 2.668c10.302 4.822 14.762 17.081 9.941 27.393z" fill="#e7a561"/><path d="M87.126 285.36c-27.011 5.512-39.477 10.889-42.041 12.074-10.322 4.79-22.571.319-27.372-10.003-4.79-10.322-.309-22.571 10.003-27.372A110.266 110.266 0 0134 257.432s2.768-17.105 8.576-23.894c8.532-9.973 21.108-11.227 20.477-14.377l24.064 24.271s-29.628 21.417 0 41.918c-.001 0 .009 0 .009.01z" fill="#e49542"/><path d="M143.22 233.233s-65.643 5.295-109.601 22.85a185.025 185.025 0 01-7.088-50.788C26.531 92.304 128.55.639 254.685.01 189.279 1.205 115.951 90.975 143.22 233.233z" fill="#e49542"/><circle cx="315.81" cy="74.796" fill="#c6865c" r="34.259"/><circle cx="116.131" cy="151.758" fill="#c6865c" r="34.259"/><circle cx="229.176" cy="134.399" fill="#c6865c" r="20.33"/><circle cx="359.11" cy="179.703" fill="#c6865c" r="28.049"/><path d="M323.799 108.12a34.635 34.635 0 01-7.994.938c-18.914 0-34.254-15.34-34.254-34.264 0-18.914 15.34-34.254 34.254-34.254 2.751 0 5.429.33 7.994.938-15.071 3.595-26.28 17.152-26.28 33.316.001 16.174 11.209 29.731 26.28 33.326zm-199.68 76.965a34.013 34.013 0 01-7.984.938c-18.924 0-34.264-15.34-34.264-34.264 0-18.925 15.339-34.254 34.264-34.254 2.751 0 5.419.319 7.984.937-15.071 3.595-26.28 17.142-26.28 33.316s11.209 29.731 26.28 33.327zm111.497-31.4a20.132 20.132 0 01-6.439 1.051c-11.229 0-20.336-9.107-20.336-20.336s9.107-20.325 20.336-20.325c2.256 0 4.419.371 6.439 1.051-8.077 2.678-13.887 10.302-13.887 19.275s5.81 16.595 13.887 19.284zm131.482 52.91a27.966 27.966 0 01-7.984 1.154c-15.494 0-28.052-12.558-28.052-28.041 0-15.494 12.558-28.052 28.052-28.052 2.771 0 5.46.402 7.984 1.164-11.6 3.43-20.068 14.165-20.068 26.888 0 12.712 8.468 23.446 20.068 26.887zm-95.512 16.849a7.725 7.725 0 01-7.726-7.726v-.515a7.726 7.726 0 1115.452 0v.515a7.726 7.726 0 01-7.726 7.726zm145.811-32.094a7.725 7.725 0 01-7.726-7.726v-.515a7.726 7.726 0 1115.452 0v.515a7.725 7.725 0 01-7.726 7.726zM255.999 72.176a7.725 7.725 0 01-7.726-7.726v-.515a7.726 7.726 0 1115.452 0v.515a7.726 7.726 0 01-7.726 7.726zm-95.793-13.847a7.725 7.725 0 01-7.726-7.726v-.515a7.726 7.726 0 1115.452 0v.515a7.725 7.725 0 01-7.726 7.726zm7.842 73.307a7.725 7.725 0 01-7.726-7.726v-.515a7.726 7.726 0 1115.452 0v.515a7.725 7.725 0 01-7.726 7.726zm-94.104 78.452a7.725 7.725 0 01-7.726-7.726v-.515a7.726 7.726 0 1115.452 0v.515a7.727 7.727 0 01-7.726 7.726z" fill="#b16e3d"/></g></svg>