<svg height="512pt" viewBox="0 -27 512.131 512" width="512pt" xmlns="http://www.w3.org/2000/svg"><path d="M133.6 265.319c-37.958-9.022-70.109-25.395-70.109-54.797 0-71.707 90.017-74.139 155.906-92.064 27.475-7.47 53.83-25.449 80.112-33.856 34.068-10.898 42.435-6.439 71.042-4.945 33.472 1.732 56.331 27.07 67.868 53.661.852 2.03 1.645 4.064 2.437 6.095 9.386 24.361 7.168 51.155-6.128 73.978-19.148 31.015-57.325 46.971-93.958 54.858a386.362 386.362 0 01-73.338 7.828L133.6 265.319zm0 0" fill="#5e5f62"/><path d="M239.749 252.413c1.379.06 2.767.06 4.214.06 5.943 0 9.487-.118 9.686-.118h.926c60.221 0 106.869-9.922 135.005-28.625 19.3-11.724 30.809-31.432 30.64-52.467 0-26.353-15.946-62.268-47.644-67.823-25.892-4.543-34.675-9.967-69.805 5.343-19.65 8.563-31.654 20.947-67.429 30.686-37.698 13.242-53.536 11.844-83.217 20.617-48.409 8.047-62.28 29.761-62.28 50.436 0 13.327 20.557 24.8 54.029 32.39l95.875 9.501zm0 0" fill="#fdd7ad"/><path d="M393.662 162.42c-3.282-.002-6.064-2.186-6.531-5.127-.357-7.986-4.862-15.35-12.15-19.864-12.685-6.489-31.365.537-31.552.598-3.346 1.264-7.191-.151-8.614-3.165-1.426-3.017.102-6.51 3.424-7.825 1.005-.388 24.782-9.4 43.173-.06 10.996 6.237 17.991 16.886 18.795 28.605.275 1.719-.289 3.462-1.546 4.773-1.256 1.314-3.08 2.068-4.999 2.065zm0 0" fill="#5e5f62"/><path d="M63.491 309.003v.179c.263 44.4 85.844 80.312 191.499 80.312s191.236-35.912 191.499-80.312v-.179zm0 0" fill="#2c2f38"/><path d="M446.489 309.003v.179c.012.299-.011.601-.067.897-1.452 9.022-24.037 17.09-59.563 22.886-.66.119-1.253.18-1.914.299a872.004 872.004 0 01-129.955 8.723 885.539 885.539 0 01-124.739-7.946h-.132c-39.488-5.796-64.846-14.342-66.561-23.904a4.56 4.56 0 01-.067-.955v-.179c.199-10.339 28.198-19.6 71.844-25.518h.132l132.731-7.11h.526c99.118 1.195 177.368 15.297 177.765 32.628zm0 0" fill="#5e5f62"/><path d="M386.134 332.965l-1.189.299a872.004 872.004 0 01-129.955 8.723 885.539 885.539 0 01-124.739-7.946h-.132c-1.253-5.616-3.103-21.334 15.981-21.334-4.789-9.345-8.398-19.144-10.765-29.222a65.288 65.288 0 01-1.715-18.166c-.064-8.411 3.626-16.489 10.233-22.407 7.793-6.394 20.671-9.861 41.008-8.007 34.007 3.107 47.016 9.919 54.876 17.508 8.582 8.305 10.893 17.51 27.666 23.663.266.119.529.18.795.299h.131a111.224 111.224 0 0025.028 5.199c69.731 7.768 62.005 31.133 62.005 31.133s28.195 0 30.772 20.258zm0 0" fill="#fac176"/><path d="M287.346 325.722a1099.272 1099.272 0 01-106.155-7.689c-2.367-.257-4.398-1.645-5.315-3.633-.918-1.992-.579-4.274.885-5.977 1.464-1.7 3.828-2.554 6.186-2.234.964.114 98.093 11.754 129.604 6.034 3.551-.595 6.97 1.502 7.677 4.704.71 3.205-1.558 6.328-5.088 7.016a167.564 167.564 0 01-27.794 1.779zm0 0" fill="#f18d46"/></svg>