<svg viewBox="0 0 512 512" xmlns="http://www.w3.org/2000/svg"><path d="M306.861 118.878V59.521h-94.443v59.357c0 13.842-3.576 27.395-10.306 39.056l-18.54 32.122c-6.477 11.222-9.919 24.263-9.919 37.585v192.617c0 30.044 21.977 54.4 49.085 54.4h73.805c27.108 0 49.085-24.356 49.085-54.4V227.641c0-13.32-3.442-26.363-9.919-37.585l-18.54-32.122c-6.731-11.661-10.308-25.214-10.308-39.056z" fill="#f3f3f3"/><path d="M345.63 227.638v192.614c0 30.044-21.974 54.409-49.083 54.409h-36.91V59.522h47.23v59.354c0 13.842 3.575 27.402 10.299 39.053l18.541 32.122c6.48 11.222 9.923 24.274 9.923 37.587z" fill="#ebebeb"/><path fill="#7fc8f1" d="M173.648 243.011h171.975v106.695H173.648z"/><path fill="#009ae5" d="M259.64 243.011h85.993v106.695H259.64z"/><path d="M319.588 75.934H199.693V56.111c0-11.198 8.191-20.275 18.295-20.275h83.305c10.104 0 18.295 9.077 18.295 20.275v19.823z" fill="#7fc8f1"/><path d="M319.59 56.113v19.826h-59.954V35.836h41.657c10.107-.001 18.297 9.076 18.297 20.277z" fill="#009ae5"/><path d="M254.767 280.94c10.063-3.04 9.272-8.972 19.172-15.42 14.618-9.523 33.437-3.178 39.121 15.641 5.685 18.82-6.476 34.522-23.921 34.684-11.814.11-14.439-5.268-24.502-2.228-10.065 3.04-9.274 8.972-19.173 15.42-14.618 9.523-33.438 3.178-39.122-15.642-5.684-18.82 6.476-34.521 23.921-34.684 11.814-.11 14.44 5.269 24.504 2.229z" fill="#ffaa5c"/><path d="M264.636 313.616c10.064-3.04 12.69 2.34 24.503 2.229 17.445-.162 29.606-15.864 23.921-34.684-.22-.73-.463-1.44-.723-2.134 4.149 17.837-7.733 32.35-24.5 32.505-11.813.11-14.44-5.268-24.503-2.228-10.064 3.04-9.273 8.972-19.173 15.42-14.05 9.152-31.98 3.644-38.398-13.507.168.72.358 1.447.579 2.177 5.684 18.82 24.504 25.165 39.122 15.643 9.9-6.448 9.108-12.38 19.172-15.42z" fill="#ff9838"/><path d="M246.262 314.814c1.548-.873 2.818-1.667 4.046-2.435 3.388-2.117 6.063-3.789 12.246-5.657s9.337-1.956 13.33-2.068c3.113-.087 6.642-.187 12.254-1.163 9.478-1.648 19.574-5.497 26.144-9.818v-.002a28.33 28.33 0 00.159-4.675v-.004c-5.887 4.602-16.99 9.074-27.032 10.82-5.394.94-8.806 1.035-11.815 1.12-4.053.114-7.554.212-14.125 2.197s-9.541 3.84-12.98 5.99c-1.2.75-2.44 1.525-3.927 2.364-.825.465-1.098 1.645-.592 2.56.48.866 1.51 1.212 2.292.77zm-36.733 5.865a28.136 28.136 0 002.698 3.782c5.688-.082 12.529-1.41 17.333-2.738.897-.248 1.397-1.258 1.116-2.256a2.571 2.571 0 00-.011-.039c-.294-.974-1.236-1.563-2.122-1.319-6.868 1.898-14.293 2.886-19.016 2.567l.002.003zm-4.566-15.116a28.114 28.114 0 01.158-4.678c6.569-4.324 16.667-8.172 26.146-9.82 5.61-.975 9.139-1.076 12.254-1.162 3.99-.112 7.144-.202 13.328-2.07s8.858-3.538 12.246-5.654a100.912 100.912 0 013.708-2.244c.81-.465 1.853-.098 2.328.82.472.92.2 2.04-.613 2.502-1.346.77-2.493 1.488-3.603 2.181-3.439 2.148-6.41 4.004-12.98 5.989s-10.073 2.083-14.126 2.198c-3.01.086-6.42.18-11.814 1.12-10.04 1.745-21.144 6.215-27.032 10.818zm104.911-31.688a28.158 28.158 0 00-2.71-3.795c-7.035.06-16.47 1.996-24.51 5.154-.855.336-1.27 1.416-.911 2.374s1.373 1.476 2.229 1.14c8.77-3.446 19.185-5.383 25.902-4.872v-.001zm-102.939 41.302l106.62-32.204c-.181-.598-.313-1.212-.494-1.812a25.21 25.21 0 00-.592-1.782l-106.62 32.204c.273 1.23.723 2.392 1.086 3.594z" fill="#ff811a"/></svg>