<svg height="512" viewBox="0 0 64 64" width="512" xmlns="http://www.w3.org/2000/svg"><path d="M37.007 35.518a18.788 18.788 0 00-3.427-4.588l-.867-.852a10.248 10.248 0 01-2.518-3.988 10.324 10.324 0 00-4.287-5.385l-2.407-1.511a7.951 7.951 0 00-3.485-1.179l-2.313-.215a6.242 6.242 0 00-4.958 1.747 3.01 3.01 0 00-.749 1.195l-.178.53c-.151.45-.408.859-.748 1.194l-.503.493a3.115 3.115 0 01-2.199.888 3.12 3.12 0 00-2.201.889 3.375 3.375 0 00-1.014 2.424l.001.274c.002.555.118 1.104.342 1.615l.586 1.332a9.228 9.228 0 003.141 3.827 9.419 9.419 0 005.382 1.713l.909.004.562.278a21.058 21.058 0 004.219 1.547c1.416.353 2.791.852 4.099 1.489h.028c.302-.192.635-.333.984-.417l7.461-1.82a20.835 20.835 0 004.14-1.481z" fill="#878787"/><path d="M25.184 38.46l-1.338.87a3.224 3.224 0 00-1.295 1.653l-.213.625a3.122 3.122 0 000 2.025 3.253 3.253 0 002.319 2.094l.669.163c.83.203 1.646.459 2.441.769a19.347 19.347 0 007.036 1.322h1.227c1.615 0 3.207.367 4.652 1.071a10.64 10.64 0 006.906.829l2.79-.606a7.913 7.913 0 003.312-1.586l1.79-1.455a6.036 6.036 0 002.249-4.681c0-.474-.112-.94-.33-1.364l-.256-.499a3.006 3.006 0 01-.329-1.365v-.697c0-.809.328-1.585.916-2.156a3.013 3.013 0 00.915-2.156c0-.907-.37-1.778-1.027-2.419l-.198-.192a4.2 4.2 0 00-1.405-.904l-1.373-.534a9.503 9.503 0 00-4.975-.525 9.368 9.368 0 00-5.039 2.529l-.645.629-.597.194a20.937 20.937 0 00-4.098 1.838 20.962 20.962 0 01-5.62 2.269l-7.461 1.82a3.25 3.25 0 00-1.023.439z" fill="#878787"/><path d="M37.282 34.045a18.788 18.788 0 00-3.427-4.588l-.867-.852a10.248 10.248 0 01-2.518-3.988 10.324 10.324 0 00-4.287-5.385l-2.407-1.511a7.951 7.951 0 00-3.485-1.179l-2.313-.215a6.242 6.242 0 00-4.958 1.747 3.01 3.01 0 00-.749 1.195l-.178.53c-.151.45-.408.859-.748 1.194l-.503.493a3.115 3.115 0 01-2.199.888 3.12 3.12 0 00-2.201.889 3.375 3.375 0 00-1.014 2.424l.001.274c.002.555.118 1.104.342 1.615l.586 1.332a9.228 9.228 0 003.141 3.827 9.419 9.419 0 005.382 1.713l.909.004.562.278a21.058 21.058 0 004.219 1.547c1.416.353 2.791.852 4.099 1.489h.028c.302-.192.635-.333.984-.417l7.461-1.82a20.835 20.835 0 004.14-1.481z" fill="#c3c3c3"/><path d="M25.594 23.9l-3.31-1.081a39.73 39.73 0 00-2.831-.82l-.791-.197a6.366 6.366 0 00-3.197.009 4.145 4.145 0 00-2.21 1.451c-.708.916-5.147 3.467-4.676 4.644a4.298 4.298 0 001.364 1.792 7.288 7.288 0 011.944 2.278l.23.422c.624 1.153 5.796.884 6.856 1.704l3.064 1.507s1.863 1.022 2.32 1.24l6.898 3.278c.338.16.694.267 1.053.313l1.536.202c.698.091 1.378.91 1.933.573l.512-.313c.538-.328.93-.833 1.113-1.437.29-.955.032-2.051-.683-2.907l-.44-.525a21.064 21.064 0 01-1.507-2.04 21.295 21.295 0 00-4.836-5.246l-.97-.752a11.635 11.635 0 01-3.09-3.608 9.953 9.953 0 00-.282-.486z" fill="#d0d0d0"/><path d="M25.963 22.81l-3.31-1.082a39.73 39.73 0 00-2.831-.82l-.791-.197a6.366 6.366 0 00-3.197.009 4.145 4.145 0 00-2.21 1.451c-.708.916-5.147 3.467-4.676 4.644a4.298 4.298 0 001.364 1.792 7.288 7.288 0 011.944 2.278l.23.422c.624 1.153 5.796.884 6.856 1.704l3.064 1.507s1.863 1.022 2.32 1.24l6.898 3.278c.338.16.694.267 1.053.313l1.536.202c.698.091 1.378.91 1.933.573l.512-.313c.538-.328.93-.833 1.113-1.437.29-.955.032-2.051-.683-2.907l-.44-.525a21.064 21.064 0 01-1.507-2.04 21.295 21.295 0 00-4.836-5.246l-.97-.752a11.635 11.635 0 01-3.09-3.608 9.953 9.953 0 00-.282-.486z" fill="#e7e7e7"/><path d="M24.658 37.789l-1.338.87a3.224 3.224 0 00-1.295 1.653l-.213.625a3.122 3.122 0 000 2.025 3.253 3.253 0 002.319 2.094l.669.163c.83.203 1.646.459 2.441.769a19.347 19.347 0 007.036 1.322h1.227c1.615 0 3.207.367 4.652 1.071a10.64 10.64 0 006.906.829l2.79-.606a7.913 7.913 0 003.312-1.586l1.79-1.455a6.036 6.036 0 002.249-4.681c0-.474-.112-.94-.33-1.364l-.256-.499a3.006 3.006 0 01-.329-1.365v-.697c0-.809.328-1.585.916-2.156a3.013 3.013 0 00.915-2.156c0-.907-.37-1.778-1.027-2.419l-.198-.192a4.2 4.2 0 00-1.405-.904l-1.373-.534a9.503 9.503 0 00-4.975-.525 9.368 9.368 0 00-5.039 2.529l-.645.629-.597.194a20.937 20.937 0 00-4.098 1.838 20.962 20.962 0 01-5.62 2.269l-7.461 1.82a3.25 3.25 0 00-1.023.439z" fill="#c3c3c3"/><path d="M45.698 48.113l3.279-1.171a39.73 39.73 0 002.741-1.086l.746-.329a6.366 6.366 0 002.522-1.964 4.145 4.145 0 00.858-2.5c0-1.158-.655-2.238-1.747-2.88a4.298 4.298 0 00-2.176-.582 7.288 7.288 0 01-2.932-.61l-.44-.194a9.591 9.591 0 00-3.862-.804h-5.058l.001-.001c-.482.14-.971.264-1.466.371l-7.461 1.633c-.365.08-.712.214-1.024.397l-1.338.781c-.608.355-1.063.877-1.295 1.484l-.213.561a2.533 2.533 0 000 1.818c.355.932 1.23 1.641 2.319 1.88l.669.146c.83.181 1.646.412 2.441.689a21.295 21.295 0 007.036 1.188h1.227c1.615 0 3.207.329 4.652.961.17.075.345.146.521.212z" fill="#d0d0d0"/><path d="M44.944 47.363l3.279-1.171a39.73 39.73 0 002.741-1.086l.746-.329a6.366 6.366 0 002.522-1.964 4.145 4.145 0 00.858-2.5c0-1.158-.655-2.238-1.747-2.88a4.298 4.298 0 00-2.176-.582 7.288 7.288 0 01-2.932-.61l-.44-.194a9.591 9.591 0 00-3.862-.804h-5.058l.001-.001c-.482.14-.971.264-1.466.371l-7.461 1.633c-.365.08-.712.214-1.024.397l-1.338.781c-.608.355-1.063.877-1.295 1.484l-.213.561a2.533 2.533 0 000 1.818c.355.932 1.23 1.641 2.319 1.88l.669.146c.83.181 1.646.412 2.441.689a21.295 21.295 0 007.036 1.188h1.227c1.615 0 3.207.329 4.652.961.17.075.345.146.521.212z" fill="#e7e7e7"/><path d="M37.702 43.972c.692.342 3.28.48 6.034.495 1.504.008 3.015-1.011 4.336-1.064 1.812-.072 3.228.801 3.436.673l.53-.329c.724-.45 1.341-1.128 1.789-1.964a5.323 5.323 0 00.609-2.5c0-1.158-.465-2.238-1.24-2.88a2.409 2.409 0 00-1.544-.582c-.722 0-.678-.062-1.323-.463l-1.069-.341c-.851-.529-2.133-.676-3.084-.676l-3.246-.128.001-.001c-.342.14-.689.264-1.041.371l-3.271.756c-.259.08-2.528 1.091-2.749 1.274l-.357 1.437c-.432.355-1.347.221-1.512.828l-.151.561a3.503 3.503 0 000 1.818c.252.932.873 1.641 1.646 1.88l.474.146c.589.181 1.168.412 1.732.689z" fill="#e7c790"/><path d="M37.563 42.937c.692.342 3.28.48 6.034.495 1.504.008 3.015-1.011 4.336-1.064 1.812-.072 3.228.801 3.436.673l.53-.329c.724-.45 1.341-1.128 1.789-1.964a5.323 5.323 0 00.609-2.5c0-1.158-.465-2.238-1.24-2.88a2.409 2.409 0 00-1.544-.582c-.722 0-.678-.062-1.323-.463l-1.069-.341c-.851-.529-2.133-.676-3.084-.676l-3.246-.128.001-.001c-.342.14-.689.264-1.041.371l-3.271.756c-.259.08-2.528 1.091-2.749 1.274l-.357 1.437c-.432.355-1.347.221-1.512.828l-.151.561a3.503 3.503 0 000 1.818c.252.932.873 1.641 1.646 1.88l.474.146c.589.181 1.168.412 1.732.689z" fill="#ffe6ba"/><path d="M15.263 31.384c.496.608 2.829 1.74 5.366 2.81 1.386.585 3.205.145 4.446.6 1.704.623 2.648 2.04 2.894 1.99l.626-.125c.856-.172 1.707-.615 2.469-1.28a6.16 6.16 0 001.601-2.267c.482-1.16.501-2.418.053-3.358-.264-.556-.676-.964-1.184-1.175-.667-.277-.6-.322-1.03-.972l-.845-.75c-.566-.856-1.689-1.496-2.567-1.86l-2.944-1.373c-.373.007-.745-.001-1.115-.029l-3.335-.498c-.272-.02-2.788.121-3.068.22l-.927 1.301c-.546.189-1.336-.296-1.74.248l-.373.504a4.103 4.103 0 00-.756 1.82c-.155 1.029.124 1.977.738 2.513l.377.327c.469.407.908.86 1.314 1.354z" fill="#e7c790"/><path d="M15.11 30.394c.496.608 2.829 1.74 5.366 2.81 1.386.585 3.205.145 4.446.6 1.704.623 2.648 2.04 2.894 1.99l.626-.125c.856-.172 1.707-.615 2.469-1.28a6.16 6.16 0 001.601-2.267c.482-1.16.501-2.418.053-3.358-.264-.556-.676-.964-1.184-1.175-.667-.277-.6-.322-1.03-.972l-.845-.75c-.566-.856-1.689-1.496-2.567-1.86l-2.944-1.373c-.373.007-.745-.001-1.115-.029l-3.335-.498c-.272-.02-2.788.121-3.068.22l-.927 1.301c-.546.189-1.336-.296-1.74.248l-.373.504a4.103 4.103 0 00-.756 1.82c-.155 1.029.124 1.977.738 2.513l.377.327c.469.407.908.86 1.314 1.354z" fill="#ffe6ba"/></svg>