<?xml version="1.0" encoding="iso-8859-1"?>
<!-- Generator: Adobe Illustrator 19.0.0, SVG Export Plug-In . SVG Version: 6.00 Build 0)  -->
<svg version="1.1" id="Layer_1" xmlns="http://www.w3.org/2000/svg" xmlns:xlink="http://www.w3.org/1999/xlink" x="0px" y="0px"
	 viewBox="0 0 512.005 512.005" style="enable-background:new 0 0 512.005 512.005;" xml:space="preserve">
<path style="fill:#FFB657;" d="M511.934,301.713c-0.276-4.819-0.845-11.265-1.883-15.979c-0.837-3.806-2.069-8.867-3.311-12.561
	c-1.394-4.143-3.58-9.564-5.462-13.509c-2.398-5.028-6.326-11.362-9.293-16.078c-1.568-2.491-4.059-5.54-5.805-7.911
	c-1.915-2.601-4.763-5.849-6.976-8.202c-3.238-3.443-7.69-7.913-11.178-11.103c-5.88-5.376-14.251-11.99-20.889-16.395
	c-4.334-2.877-10.183-6.613-14.67-9.243c-4.097-2.401-9.687-5.385-13.932-7.516c-4.762-2.39-11.224-5.351-16.124-7.443
	c-4.698-2.005-11.022-4.556-15.854-6.208c-5.121-1.75-11.953-4.086-17.136-5.643c-5.15-1.547-12.076-3.421-17.299-4.705
	c-5.359-1.319-12.552-2.888-17.97-3.94c-5.46-1.061-12.758-2.416-18.277-3.1c-5.571-0.691-12.988-1.718-18.574-2.274
	c-5.635-0.56-13.162-1.263-18.822-1.446c-5.677-0.183-13.243-0.553-18.923-0.61c-5.691-0.057-13.276,0.159-18.967,0.228
	c-5.675,0.069-13.222,0.711-18.887,1.067c-5.679,0.357-13.223,1.212-18.869,1.924c-5.75,0.724-13.398,1.857-19.106,2.86
	c-12.499,2.197-24.746,4.929-36.957,8.387c-10.007,2.835-23.193,7.236-32.823,11.162c-5.368,2.188-12.442,5.309-17.673,7.805
	c-4.351,2.075-9.975,5.196-14.249,7.424l0,0c-5.083,2.922-11.802,6.938-16.641,10.25c-5.163,3.535-11.943,8.437-16.66,12.548
	c-5.347,4.659-12.219,11.186-17.016,16.41c-3.81,4.149-8.35,10.165-11.607,14.761c-1.702,2.401-3.754,5.755-5.219,8.308
	c-1.479,2.578-3.301,6.1-4.585,8.779c-2.247,4.69-4.539,11.26-6.148,16.204c-1.177,3.614-2.257,8.595-2.805,12.357
	c-0.697,4.79-1.221,11.24-1.332,16.079c-0.075,3.291,0.265,7.682,0.565,10.961c0.22,2.406,0.795,5.583,1.166,7.97
	c0.594,3.827,1.985,8.826,3.147,12.521c1.297,4.125,3.358,9.534,5.242,13.426c2.41,4.978,5.934,11.49,9.034,16.071
	c3.384,5.001,8.345,11.371,12.312,15.923c3.518,4.036,8.632,9.046,12.59,12.652c5.874,5.353,14.431,11.656,20.845,16.348
	c3.418,2.5,8.284,5.389,11.893,7.605c4.861,2.984,11.512,6.713,16.678,9.133c4.825,2.259,11.224,5.352,16.124,7.443
	c4.698,2.005,11.013,4.579,15.855,6.208c5.129,1.727,11.953,4.086,17.136,5.643c5.15,1.547,12.077,3.421,17.299,4.705
	c5.359,1.319,12.552,2.888,17.97,3.94c5.46,1.061,12.78,2.26,18.277,3.1c5.539,0.846,12.964,1.716,18.541,2.271
	c5.646,0.561,13.191,1.141,18.855,1.449c5.672,0.309,13.244,0.553,18.923,0.61c5.69,0.057,13.277-0.153,18.967-0.228
	c5.675-0.075,13.229-0.619,18.887-1.067c5.672-0.449,13.209-1.341,18.869-1.924c5.765-0.594,13.417-1.756,19.106-2.86
	c10.701-2.075,24.953-5.025,35.448-7.965c5.495-1.539,12.773-3.777,18.18-5.602c4.896-1.652,11.323-4.145,16.152-5.983
	c5.417-2.062,12.442-5.309,17.673-7.805c4.351-2.075,9.982-5.185,14.25-7.424c5.192-2.724,11.791-6.955,16.64-10.25
	c3.438-2.336,7.973-5.533,11.212-8.138c4.452-3.581,10.166-8.628,14.4-12.464c4.516-4.092,9.895-10.24,13.688-15.01
	c1.881-2.366,4.288-5.603,5.982-8.106c1.819-2.689,4.199-6.317,5.719-9.186c1.25-2.357,3.042-5.445,4.083-7.9
	c2.031-4.787,4.649-11.226,6.148-16.205c1.096-3.639,2.109-8.619,2.803-12.357c0.443-2.383,0.878-5.598,0.987-8.019
	C511.826,310.238,512.143,305.36,511.934,301.713z"/>
<path style="fill:#FF9911;" d="M92.545,189.921c92.907-52.134,241.432-50.633,331.739,3.352s88.199,140.011-4.708,192.145
	s-241.432,50.633-331.739-3.352S-0.363,242.054,92.545,189.921z"/>
<path style="fill:#FFA834;" d="M76.806,417.877c-3.609-2.215-8.475-5.103-11.893-7.605c-6.414-4.693-14.97-10.995-20.845-16.348
	c-3.958-3.607-9.072-8.615-12.59-12.652c-3.967-4.553-8.928-10.922-12.312-15.923c-3.1-4.581-6.625-11.093-9.034-16.071
	c-1.884-3.892-3.946-9.301-5.242-13.426c-1.161-3.695-2.553-8.694-3.146-12.521c-0.37-2.388-0.946-5.564-1.166-7.97
	c-0.3-3.279-0.641-7.668-0.565-10.961c0.11-4.839,0.635-11.289,1.332-16.079c0.548-3.762,1.628-8.743,2.805-12.357
	c1.609-4.944,3.902-11.516,6.148-16.204c1.284-2.68,3.106-6.203,4.585-8.779c1.465-2.553,3.517-5.907,5.219-8.308
	c3.258-4.595,7.797-10.612,11.607-14.761c4.796-5.223,11.669-11.75,17.016-16.41c4.717-4.111,11.497-9.013,16.66-12.548
	c4.838-3.312,11.557-7.329,16.64-10.25c2.704-1.517,6.422-1.232,10.52,1.218c-92.908,52.133-95.016,138.16-4.709,192.144
	s238.831,55.486,331.739,3.352s95.016-138.16,4.708-192.145s-238.831-55.486-331.739-3.352c-4.098-2.45-7.816-2.736-10.52-1.218l0,0
	c4.275-2.228,9.899-5.349,14.25-7.424c5.231-2.495,12.306-5.617,17.673-7.805c9.632-3.926,22.816-8.327,32.823-11.162
	c12.211-3.459,24.457-6.191,36.957-8.387c5.708-1.003,13.356-2.136,19.106-2.86c5.646-0.711,13.19-1.566,18.869-1.924
	c5.663-0.356,13.212-0.998,18.887-1.067c5.691-0.069,13.276-0.285,18.967-0.228c5.68,0.057,13.246,0.426,18.923,0.61
	c5.66,0.183,13.187,0.886,18.822,1.446c5.586,0.556,13.003,1.583,18.574,2.274c5.519,0.683,12.818,2.04,18.277,3.1
	c5.418,1.052,12.611,2.622,17.97,3.94c5.222,1.285,12.148,3.158,17.299,4.705c5.184,1.558,12.015,3.892,17.136,5.643
	c4.834,1.652,11.156,4.203,15.854,6.208c4.9,2.092,11.362,5.053,16.124,7.443c4.244,2.131,9.835,5.115,13.932,7.516
	c4.488,2.63,10.336,6.367,14.67,9.243c6.638,4.405,15.01,11.02,20.889,16.395c3.488,3.19,7.94,7.66,11.178,11.103
	c2.213,2.353,5.059,5.602,6.976,8.202c1.746,2.37,4.237,5.419,5.805,7.911c2.967,4.715,6.895,11.049,9.293,16.078
	c1.882,3.946,4.067,9.366,5.462,13.509c1.242,3.694,2.474,8.755,3.311,12.561c1.038,4.714,1.607,11.16,1.883,15.979
	c0.209,3.648-0.109,8.525-0.273,12.175c-0.109,2.421-0.543,5.636-0.987,8.019c-0.695,3.737-1.707,8.717-2.803,12.357
	c-1.499,4.979-4.117,11.419-6.148,16.205c-1.043,2.457-2.835,5.543-4.083,7.9c-1.52,2.868-3.9,6.497-5.719,9.186
	c-1.694,2.503-4.101,5.741-5.982,8.106c-3.793,4.77-9.173,10.918-13.688,15.01c-4.234,3.837-9.948,8.883-14.4,12.464
	c-3.238,2.605-7.774,5.802-11.212,8.138c-4.849,3.296-11.448,7.526-16.64,10.25c-4.268,2.239-9.899,5.349-14.25,7.424
	c-5.231,2.495-12.256,5.744-17.673,7.805c-4.829,1.838-11.256,4.331-16.152,5.983c-5.407,1.824-12.684,4.061-18.18,5.602
	c-10.496,2.94-24.748,5.889-35.448,7.965c-5.689,1.103-13.34,2.266-19.106,2.86c-5.66,0.582-13.197,1.474-18.869,1.924
	c-5.657,0.448-13.212,0.992-18.887,1.067c-5.691,0.075-13.276,0.285-18.967,0.228c-5.68-0.057-13.251-0.301-18.923-0.61
	c-5.664-0.308-13.21-0.888-18.855-1.449c-5.577-0.555-13.001-1.424-18.541-2.271c-5.498-0.84-12.818-2.04-18.277-3.1
	c-5.418-1.052-12.611-2.622-17.97-3.94c-5.222-1.285-12.148-3.158-17.299-4.705c-5.184-1.558-12.007-3.916-17.136-5.643
	c-4.841-1.63-11.157-4.203-15.855-6.208c-4.9-2.092-11.298-5.184-16.124-7.443C88.317,424.591,81.667,420.861,76.806,417.877z"/>
<path style="fill:#FFB657;" d="M511.934,252.603c-0.276-4.819-0.845-11.265-1.883-15.979c-0.837-3.806-2.069-8.867-3.311-12.561
	c-1.394-4.143-3.58-9.564-5.462-13.509c-2.398-5.028-6.326-11.362-9.293-16.078c-1.568-2.491-4.059-5.54-5.805-7.911
	c-1.915-2.601-4.763-5.849-6.976-8.202c-3.238-3.443-7.69-7.913-11.178-11.103c-5.88-5.376-14.251-11.99-20.889-16.395
	c-4.334-2.877-10.183-6.613-14.67-9.243c-4.097-2.401-9.687-5.385-13.932-7.516c-4.762-2.39-11.224-5.351-16.124-7.443
	c-4.698-2.005-11.022-4.556-15.854-6.208c-5.121-1.75-11.953-4.086-17.136-5.643c-5.15-1.547-12.076-3.421-17.299-4.705
	c-5.359-1.319-12.552-2.888-17.97-3.94c-5.46-1.061-12.758-2.416-18.277-3.1c-5.571-0.691-12.988-1.718-18.574-2.274
	c-5.635-0.56-13.162-1.263-18.822-1.446c-5.677-0.183-13.243-0.553-18.923-0.61c-5.691-0.057-13.276,0.159-18.967,0.228
	c-5.675,0.068-13.222,0.711-18.887,1.067c-5.679,0.357-13.223,1.212-18.869,1.924c-5.75,0.724-13.398,1.857-19.106,2.86
	c-12.499,2.197-24.746,4.929-36.957,8.387c-10.007,2.835-23.193,7.236-32.823,11.162c-5.368,2.188-12.442,5.309-17.673,7.805
	c-4.351,2.075-9.975,5.196-14.249,7.424l0,0c-5.083,2.922-11.802,6.938-16.641,10.25c-5.163,3.535-11.943,8.437-16.66,12.548
	c-5.347,4.659-12.219,11.186-17.016,16.41c-3.81,4.149-8.35,10.165-11.607,14.761c-1.702,2.401-3.754,5.755-5.219,8.308
	c-1.479,2.578-3.301,6.1-4.585,8.779c-2.247,4.689-4.539,11.261-6.148,16.204c-1.177,3.614-2.257,8.595-2.805,12.357
	c-0.697,4.79-1.221,11.24-1.332,16.079c-0.075,3.291,0.265,7.682,0.565,10.961c0.22,2.406,0.795,5.583,1.166,7.97
	c0.594,3.827,1.985,8.826,3.147,12.521c1.297,4.125,3.358,9.534,5.242,13.426c2.41,4.978,5.934,11.49,9.034,16.071
	c3.384,5.001,8.345,11.371,12.312,15.923c3.518,4.036,8.632,9.046,12.59,12.652c5.874,5.353,14.431,11.656,20.845,16.348
	c3.418,2.5,8.284,5.389,11.893,7.605c4.861,2.984,11.512,6.713,16.678,9.133c4.825,2.259,11.224,5.352,16.124,7.443
	c4.698,2.005,11.013,4.579,15.855,6.208c5.129,1.727,11.953,4.086,17.136,5.643c5.15,1.547,12.077,3.421,17.299,4.705
	c5.359,1.319,12.552,2.888,17.97,3.94c5.46,1.061,12.78,2.26,18.277,3.1c5.539,0.846,12.964,1.716,18.541,2.271
	c5.646,0.561,13.191,1.141,18.855,1.449c5.672,0.309,13.244,0.553,18.923,0.61c5.69,0.057,13.277-0.153,18.967-0.228
	c5.675-0.075,13.229-0.619,18.887-1.067c5.672-0.449,13.209-1.341,18.869-1.924c5.765-0.594,13.417-1.756,19.106-2.86
	c10.701-2.075,24.953-5.025,35.448-7.965c5.495-1.539,12.773-3.777,18.18-5.602c4.896-1.652,11.323-4.145,16.152-5.983
	c5.417-2.062,12.442-5.309,17.673-7.805c4.351-2.075,9.982-5.185,14.25-7.424c5.192-2.724,11.791-6.955,16.64-10.25
	c3.438-2.336,7.973-5.533,11.212-8.138c4.452-3.581,10.166-8.628,14.4-12.464c4.516-4.092,9.895-10.24,13.688-15.01
	c1.881-2.366,4.288-5.603,5.982-8.106c1.819-2.689,4.199-6.317,5.719-9.186c1.25-2.357,3.042-5.445,4.083-7.9
	c2.031-4.787,4.649-11.226,6.148-16.205c1.096-3.639,2.109-8.619,2.803-12.357c0.443-2.383,0.878-5.598,0.987-8.019
	C511.826,261.128,512.143,256.25,511.934,252.603z"/>
<path style="fill:#FF9911;" d="M92.545,140.81c92.907-52.134,241.432-50.633,331.739,3.352s88.199,140.011-4.708,192.145
	s-241.432,50.633-331.739-3.352S-0.363,192.943,92.545,140.81z"/>
<g>
	<path style="fill:#FFB657;" d="M76.806,368.766c-3.609-2.215-8.475-5.103-11.893-7.605c-6.414-4.693-14.97-10.995-20.845-16.348
		c-3.958-3.607-9.072-8.615-12.59-12.652c-3.967-4.553-8.928-10.922-12.312-15.923c-3.1-4.581-6.625-11.093-9.034-16.071
		c-1.884-3.892-3.946-9.301-5.242-13.426c-1.161-3.695-2.553-8.694-3.146-12.521c-0.37-2.388-0.946-5.564-1.166-7.97
		c-0.3-3.279-0.641-7.669-0.565-10.961C0.122,250.45,0.648,244,1.345,239.21c0.548-3.762,1.628-8.743,2.805-12.357
		c1.609-4.944,3.902-11.516,6.148-16.204c1.284-2.68,3.106-6.203,4.585-8.779c1.465-2.553,3.517-5.907,5.219-8.308
		c3.258-4.595,7.797-10.612,11.607-14.761c4.796-5.223,11.669-11.75,17.016-16.41c4.717-4.111,11.497-9.013,16.66-12.548
		c4.838-3.312,11.557-7.329,16.64-10.25c2.704-1.517,6.422-1.232,10.52,1.218c-92.908,52.133-95.016,138.16-4.709,192.144
		s238.831,55.486,331.739,3.352s95.016-138.16,4.708-192.145S185.452,88.676,92.545,140.81c-4.098-2.45-7.816-2.736-10.52-1.218l0,0
		c4.275-2.228,9.899-5.349,14.25-7.424c5.231-2.495,12.306-5.617,17.673-7.805c9.632-3.926,22.816-8.327,32.823-11.162
		c12.211-3.459,24.457-6.191,36.957-8.387c5.708-1.003,13.356-2.136,19.106-2.86c5.646-0.711,13.19-1.566,18.869-1.924
		c5.663-0.356,13.212-0.998,18.887-1.067c5.691-0.069,13.276-0.285,18.967-0.228c5.68,0.057,13.246,0.426,18.923,0.61
		c5.66,0.183,13.187,0.885,18.822,1.446c5.586,0.556,13.003,1.583,18.574,2.274c5.519,0.683,12.818,2.04,18.277,3.1
		c5.418,1.052,12.611,2.622,17.97,3.94c5.222,1.285,12.148,3.158,17.299,4.705c5.184,1.558,12.015,3.892,17.136,5.643
		c4.834,1.652,11.156,4.203,15.854,6.208c4.9,2.092,11.362,5.053,16.124,7.443c4.244,2.131,9.835,5.115,13.932,7.516
		c4.488,2.63,10.336,6.367,14.67,9.243c6.638,4.405,15.01,11.019,20.889,16.395c3.488,3.19,7.94,7.66,11.178,11.103
		c2.213,2.353,5.059,5.602,6.976,8.202c1.746,2.37,4.237,5.419,5.805,7.911c2.968,4.715,6.895,11.049,9.293,16.078
		c1.882,3.946,4.067,9.366,5.462,13.509c1.242,3.694,2.474,8.755,3.311,12.561c1.038,4.714,1.607,11.16,1.883,15.979
		c0.209,3.648-0.109,8.525-0.273,12.175c-0.109,2.421-0.543,5.636-0.987,8.019c-0.695,3.737-1.707,8.717-2.803,12.357
		c-1.499,4.979-4.117,11.419-6.148,16.205c-1.043,2.457-2.835,5.543-4.083,7.9c-1.52,2.868-3.9,6.497-5.719,9.186
		c-1.694,2.503-4.101,5.741-5.982,8.106c-3.793,4.77-9.173,10.918-13.688,15.01c-4.234,3.837-9.948,8.883-14.4,12.464
		c-3.238,2.605-7.774,5.802-11.212,8.138c-4.849,3.296-11.448,7.526-16.64,10.25c-4.268,2.239-9.899,5.349-14.25,7.424
		c-5.231,2.495-12.256,5.744-17.673,7.805c-4.83,1.838-11.256,4.331-16.152,5.983c-5.407,1.824-12.684,4.062-18.18,5.602
		c-10.496,2.94-24.748,5.889-35.448,7.965c-5.689,1.103-13.34,2.266-19.106,2.86c-5.66,0.582-13.197,1.474-18.869,1.924
		c-5.657,0.448-13.212,0.992-18.887,1.067c-5.691,0.075-13.276,0.285-18.967,0.228c-5.68-0.057-13.251-0.301-18.923-0.61
		c-5.664-0.308-13.21-0.888-18.855-1.449c-5.577-0.555-13.001-1.424-18.541-2.271c-5.498-0.84-12.818-2.04-18.277-3.1
		c-5.418-1.052-12.611-2.622-17.97-3.94c-5.222-1.285-12.148-3.158-17.299-4.705c-5.184-1.558-12.007-3.916-17.136-5.643
		c-4.841-1.63-11.157-4.203-15.855-6.208c-4.9-2.092-11.298-5.184-16.124-7.443C88.317,375.481,81.667,371.751,76.806,368.766z"/>
	<path style="fill:#FFB657;" d="M511.934,203.493c-0.276-4.819-0.845-11.265-1.883-15.979c-0.837-3.806-2.069-8.867-3.311-12.561
		c-1.394-4.143-3.58-9.564-5.462-13.509c-2.398-5.028-6.326-11.362-9.293-16.078c-1.568-2.491-4.059-5.54-5.805-7.911
		c-1.915-2.601-4.763-5.849-6.976-8.202c-3.238-3.443-7.69-7.913-11.178-11.103c-5.88-5.376-14.251-11.99-20.889-16.395
		c-4.334-2.877-10.183-6.613-14.67-9.243c-4.097-2.401-9.687-5.385-13.932-7.516c-4.762-2.39-11.224-5.351-16.124-7.443
		c-4.698-2.005-11.022-4.556-15.854-6.208c-5.121-1.75-11.953-4.086-17.136-5.643c-5.15-1.547-12.076-3.421-17.299-4.705
		c-5.359-1.319-12.552-2.888-17.97-3.94c-5.46-1.061-12.758-2.416-18.277-3.1c-5.571-0.691-12.988-1.718-18.574-2.274
		c-5.635-0.56-13.162-1.263-18.822-1.446c-5.677-0.183-13.243-0.553-18.923-0.61c-5.691-0.057-13.276,0.159-18.967,0.228
		c-5.675,0.069-13.222,0.711-18.887,1.067c-5.679,0.357-13.223,1.212-18.869,1.924c-5.75,0.724-13.398,1.857-19.106,2.86
		c-12.499,2.197-24.746,4.929-36.957,8.387c-10.007,2.835-23.193,7.236-32.823,11.162c-5.368,2.188-12.442,5.309-17.673,7.805
		c-4.351,2.075-9.975,5.196-14.249,7.424l0,0c-5.083,2.922-11.802,6.938-16.641,10.25c-5.163,3.535-11.943,8.437-16.66,12.548
		c-5.347,4.659-12.219,11.186-17.016,16.41c-3.81,4.149-8.35,10.165-11.607,14.761c-1.702,2.401-3.754,5.755-5.219,8.308
		c-1.479,2.578-3.301,6.1-4.585,8.779c-2.247,4.689-4.539,11.261-6.148,16.204c-1.177,3.614-2.257,8.595-2.805,12.357
		c-0.697,4.79-1.221,11.24-1.332,16.079c-0.075,3.291,0.265,7.682,0.565,10.961c0.22,2.406,0.795,5.583,1.166,7.97
		c0.594,3.827,1.985,8.826,3.147,12.521c1.297,4.125,3.358,9.534,5.242,13.426c2.41,4.978,5.934,11.49,9.034,16.071
		c3.384,5.001,8.345,11.371,12.312,15.923c3.518,4.036,8.632,9.046,12.59,12.652c5.874,5.353,14.431,11.656,20.845,16.348
		c3.418,2.5,8.284,5.389,11.893,7.605c4.861,2.984,11.512,6.713,16.678,9.133c4.825,2.259,11.224,5.352,16.124,7.443
		c4.698,2.005,11.013,4.579,15.855,6.208c5.129,1.727,11.953,4.086,17.136,5.643c5.15,1.547,12.077,3.421,17.299,4.705
		c5.359,1.319,12.552,2.888,17.97,3.94c5.46,1.061,12.78,2.26,18.277,3.1c5.539,0.846,12.964,1.716,18.541,2.271
		c5.646,0.561,13.191,1.141,18.855,1.449c5.672,0.309,13.244,0.553,18.923,0.61c5.69,0.057,13.277-0.153,18.967-0.228
		c5.675-0.075,13.229-0.619,18.887-1.067c5.672-0.449,13.209-1.341,18.869-1.924c5.765-0.594,13.417-1.757,19.106-2.86
		c10.701-2.075,24.953-5.025,35.448-7.965c5.495-1.539,12.773-3.777,18.18-5.602c4.896-1.652,11.323-4.145,16.152-5.983
		c5.417-2.062,12.442-5.309,17.673-7.805c4.351-2.075,9.982-5.185,14.25-7.424c5.192-2.724,11.791-6.955,16.64-10.25
		c3.438-2.336,7.973-5.533,11.212-8.138c4.452-3.581,10.166-8.628,14.4-12.464c4.516-4.092,9.895-10.24,13.688-15.01
		c1.881-2.366,4.288-5.603,5.982-8.106c1.819-2.689,4.199-6.317,5.719-9.186c1.25-2.357,3.042-5.445,4.083-7.9
		c2.031-4.787,4.649-11.226,6.148-16.205c1.096-3.639,2.109-8.619,2.803-12.357c0.443-2.383,0.878-5.598,0.987-8.019
		C511.826,212.018,512.143,207.139,511.934,203.493z"/>
</g>
<path style="fill:#FF9911;" d="M92.545,91.7c92.907-52.134,241.432-50.633,331.739,3.352s88.199,140.011-4.708,192.145
	s-241.432,50.633-331.739-3.352S-0.363,143.833,92.545,91.7z"/>
<path style="fill:#D07400;" d="M118.251,105.641c19.936-11.187,43.023-22.446,67.477-27.738c23.008-4.978,48.339,7.299,72.579,7.512
	c24.306,0.213,51.582-18.88,74.425-13.475c24.432,5.781,42.411,30.137,61.965,41.826c23.437,14.011,57.183,19.667,65.759,37.193
	c10.59,21.642-16.729,46.465-28.664,67.839c-9.511,17.034-5.755,56.186-29.484,69.501c-19.936,11.187-55.303-10.344-79.759-5.053
	c-23.008,4.978-51.015,17.235-75.255,17.021c-24.306-0.213-37.762-25.005-60.604-30.411c-24.432-5.781-54.396,14.794-73.951,3.104
	c-23.437-14.011-25.478-40.721-34.054-58.247c-10.59-21.642-27.606-42.907-15.671-64.281
	C72.527,133.4,94.524,118.955,118.251,105.641z"/>
<path style="fill:#FEC377;" d="M76.806,319.656c-3.609-2.215-8.475-5.103-11.893-7.605c-6.414-4.693-14.97-10.995-20.845-16.348
	c-3.958-3.607-9.072-8.615-12.59-12.652c-3.967-4.553-8.928-10.922-12.312-15.923c-3.1-4.581-6.625-11.093-9.034-16.071
	c-1.884-3.892-3.946-9.301-5.242-13.426c-1.161-3.695-2.553-8.694-3.146-12.521c-0.37-2.389-0.946-5.564-1.166-7.97
	c-0.3-3.279-0.641-7.669-0.565-10.961c0.11-4.839,0.635-11.289,1.332-16.079c0.548-3.762,1.628-8.743,2.805-12.357
	c1.609-4.944,3.902-11.516,6.148-16.204c1.284-2.68,3.106-6.203,4.585-8.779c1.465-2.553,3.517-5.907,5.219-8.308
	c3.258-4.595,7.797-10.612,11.607-14.761c4.796-5.223,11.669-11.75,17.016-16.41c4.717-4.111,11.497-9.013,16.66-12.548
	c4.838-3.312,11.557-7.329,16.64-10.25c2.704-1.517,6.422-1.232,10.52,1.218c-92.908,52.133-95.016,138.16-4.709,192.144
	s238.831,55.486,331.739,3.352s95.016-138.16,4.708-192.145S185.452,39.566,92.545,91.7c-4.098-2.45-7.816-2.736-10.52-1.218l0,0
	c4.275-2.228,9.899-5.349,14.25-7.424c5.231-2.495,12.306-5.617,17.673-7.805c9.632-3.926,22.816-8.327,32.823-11.162
	c12.211-3.459,24.457-6.191,36.957-8.387c5.708-1.003,13.356-2.136,19.106-2.86c5.646-0.711,13.19-1.566,18.869-1.924
	c5.663-0.356,13.212-0.998,18.887-1.067c5.691-0.069,13.276-0.285,18.967-0.228c5.68,0.057,13.246,0.426,18.923,0.61
	c5.66,0.183,13.187,0.885,18.822,1.446c5.586,0.556,13.003,1.583,18.574,2.274c5.519,0.683,12.818,2.04,18.277,3.1
	c5.418,1.052,12.611,2.622,17.97,3.94c5.222,1.285,12.148,3.158,17.299,4.705c5.184,1.558,12.015,3.892,17.136,5.643
	c4.834,1.652,11.156,4.203,15.854,6.208c4.9,2.092,11.362,5.053,16.124,7.443c4.244,2.131,9.835,5.115,13.932,7.516
	c4.488,2.63,10.336,6.367,14.67,9.243c6.638,4.405,15.01,11.019,20.889,16.395c3.488,3.19,7.94,7.66,11.178,11.103
	c2.213,2.353,5.059,5.602,6.976,8.202c1.746,2.37,4.237,5.419,5.805,7.911c2.968,4.715,6.895,11.049,9.293,16.078
	c1.882,3.946,4.067,9.366,5.462,13.509c1.242,3.694,2.474,8.755,3.311,12.561c1.038,4.714,1.607,11.16,1.883,15.979
	c0.209,3.648-0.109,8.525-0.273,12.175c-0.109,2.421-0.543,5.636-0.987,8.019c-0.695,3.737-1.707,8.717-2.803,12.357
	c-1.499,4.979-4.117,11.419-6.148,16.205c-1.043,2.457-2.835,5.543-4.083,7.9c-1.52,2.868-3.9,6.497-5.719,9.186
	c-1.694,2.503-4.101,5.741-5.982,8.106c-3.793,4.77-9.173,10.918-13.688,15.01c-4.234,3.837-9.948,8.883-14.4,12.464
	c-3.238,2.605-7.774,5.802-11.212,8.138c-4.849,3.296-11.448,7.526-16.64,10.25c-4.268,2.239-9.899,5.349-14.25,7.424
	c-5.231,2.495-12.256,5.744-17.673,7.805c-4.83,1.838-11.256,4.331-16.152,5.983c-5.407,1.824-12.684,4.062-18.18,5.602
	c-10.496,2.94-24.748,5.889-35.448,7.965c-5.689,1.103-13.34,2.266-19.106,2.86c-5.66,0.582-13.197,1.474-18.869,1.924
	c-5.657,0.448-13.212,0.992-18.887,1.067c-5.691,0.075-13.276,0.285-18.967,0.228c-5.68-0.057-13.251-0.301-18.923-0.61
	c-5.664-0.308-13.21-0.888-18.855-1.449c-5.577-0.555-13.001-1.424-18.541-2.271c-5.498-0.84-12.818-2.04-18.277-3.1
	c-5.418-1.052-12.611-2.622-17.97-3.94c-5.222-1.285-12.148-3.158-17.299-4.705c-5.184-1.558-12.007-3.916-17.136-5.643
	c-4.841-1.63-11.157-4.203-15.855-6.208c-4.9-2.092-11.298-5.184-16.124-7.443C88.317,326.371,81.667,322.64,76.806,319.656z"/>
<g>
	<polygon style="fill:#FED322;" points="256.79,121.555 203.185,152.707 203.009,185.194 257.14,216.345 310.57,185.193 
		310.745,152.705 	"/>
	<polygon style="fill:#FED322;" points="310.745,152.705 310.57,185.193 257.14,216.345 257.14,183.858 	"/>
</g>
<polygon style="fill:#FEDA44;" points="257.14,183.858 257.14,216.345 203.009,185.194 203.185,152.707 "/>
<polygon style="fill:#FFE577;" points="310.745,152.705 257.14,183.858 203.185,152.707 256.79,121.555 "/>
<ellipse transform="matrix(-0.3958 -0.9183 0.9183 -0.3958 124.326 312.282)" style="fill:#F18700;" cx="164.891" cy="115.243" rx="19.442" ry="46.287"/>
<g>
</g>
<g>
</g>
<g>
</g>
<g>
</g>
<g>
</g>
<g>
</g>
<g>
</g>
<g>
</g>
<g>
</g>
<g>
</g>
<g>
</g>
<g>
</g>
<g>
</g>
<g>
</g>
<g>
</g>
</svg>
