<svg height="367pt" viewBox="0 -13 367.451 367" width="367pt" xmlns="http://www.w3.org/2000/svg"><path d="M179.204 271.155a71.739 71.739 0 01-23.655 13.731 87.247 87.247 0 01-26.576 3.938 87.775 87.775 0 01-26.624-3.938c-23.351-7.922-40.722-28.521-49.284-51.375-14.052-38.09-4.89-81.072 23.388-109.715 8.728-8.294 19.148-14.493 30.511-18.149l47.593 1.15a78.595 78.595 0 0126.897 16.999c9.109 8.972 16.326 19.757 21.217 31.688zm0 0" fill="#802d40"/><path d="M318.891 224.051c0 43.753-34.675 79.225-77.446 79.225-42.774 0-77.447-35.472-77.447-79.225 0-43.755 34.673-79.224 77.447-79.224 42.771 0 77.446 35.469 77.446 79.224zm0 0" fill="#d75e72"/><path d="M309.503 224.051c0 38.452-30.47 69.621-68.058 69.621-37.589 0-68.061-31.169-68.061-69.621 0-38.451 30.472-69.622 68.061-69.622 37.588 0 68.058 31.171 68.058 69.622zm0 0" fill="#f5efca"/><path d="M241.445 284.07c-32.403 0-58.672-26.872-58.672-60.019 0-33.15 26.269-60.018 58.672-60.018s58.673 26.868 58.673 60.018c-.039 33.132-26.285 59.981-58.673 60.019zm0 0" fill="#f3d55b"/><path d="M229.712 197.644c0 2.651-2.101 4.8-4.695 4.8-2.592 0-4.693-2.149-4.693-4.8 0-2.653 2.101-4.803 4.693-4.803 2.594 0 4.695 2.15 4.695 4.803zm9.386-14.407c0 2.654-2.102 4.804-4.693 4.804s-4.693-2.15-4.693-4.804c0-2.65 2.102-4.8 4.693-4.8s4.693 2.15 4.693 4.8zm-18.774 4.803c0 2.651-2.102 4.801-4.693 4.801-2.594 0-4.696-2.15-4.696-4.8 0-2.654 2.102-4.804 4.696-4.804 2.591 0 4.693 2.15 4.693 4.804zm-4.693 14.405c0 2.65-2.101 4.8-4.696 4.8-2.59 0-4.692-2.15-4.692-4.8 0-2.654 2.101-4.8 4.692-4.8 2.595 0 4.696 2.146 4.696 4.8zm-9.388 14.405c0 2.65-2.102 4.8-4.693 4.8-2.594 0-4.696-2.15-4.696-4.8 0-2.651 2.102-4.801 4.696-4.801 2.591 0 4.693 2.15 4.693 4.8zm9.388 14.404c0 2.65-2.101 4.8-4.696 4.8-2.59 0-4.692-2.15-4.692-4.8 0-2.651 2.101-4.8 4.692-4.8 2.595 0 4.696 2.149 4.696 4.8zm-14.081 4.8c0 2.651-2.102 4.8-4.696 4.8-2.591 0-4.693-2.149-4.693-4.8 0-2.65 2.102-4.8 4.693-4.8 2.594 0 4.696 2.15 4.696 4.8zm14.081 9.604c0 2.651-2.101 4.8-4.696 4.8-2.59 0-4.692-2.149-4.692-4.8 0-2.65 2.101-4.8 4.692-4.8 2.595 0 4.696 2.15 4.696 4.8zm14.081 19.205c0 2.65-2.101 4.8-4.695 4.8-2.592 0-4.693-2.15-4.693-4.8s2.101-4.8 4.693-4.8c2.594 0 4.695 2.15 4.695 4.8zm14.082-9.601c0 2.65-2.102 4.8-4.696 4.8-2.591 0-4.693-2.15-4.693-4.8 0-2.654 2.102-4.803 4.693-4.803 2.594 0 4.696 2.15 4.696 4.803zm4.692 14.404c0 2.651-2.101 4.801-4.692 4.801-2.595 0-4.696-2.15-4.696-4.8 0-2.654 2.101-4.804 4.696-4.804 2.59 0 4.692 2.15 4.692 4.803zm9.389-9.603c0 2.65-2.102 4.8-4.696 4.8-2.591 0-4.693-2.15-4.693-4.8 0-2.651 2.102-4.8 4.693-4.8 2.594 0 4.696 2.149 4.696 4.8zm18.774-4.801c0 2.65-2.102 4.8-4.693 4.8-2.594 0-4.696-2.15-4.696-4.8 0-2.654 2.102-4.803 4.696-4.803 2.591 0 4.693 2.15 4.693 4.803zm-4.693-14.404c0 2.65-2.102 4.8-4.696 4.8-2.591 0-4.693-2.15-4.693-4.8 0-2.654 2.102-4.804 4.693-4.804 2.594 0 4.696 2.15 4.696 4.804zm14.081-14.405c0 2.651-2.101 4.8-4.696 4.8-2.59 0-4.692-2.149-4.692-4.8 0-2.653 2.101-4.803 4.692-4.803 2.595 0 4.696 2.15 4.696 4.803zm0 14.405c0 2.65-2.101 4.8-4.696 4.8-2.59 0-4.692-2.15-4.692-4.8 0-2.654 2.101-4.804 4.692-4.804 2.595 0 4.696 2.15 4.696 4.804zm-4.696-38.413c0 2.65-2.101 4.8-4.692 4.8-2.592 0-4.693-2.15-4.693-4.8 0-2.654 2.101-4.8 4.693-4.8 2.591 0 4.692 2.146 4.692 4.8zm-14.081 0c0 2.65-2.101 4.8-4.693 4.8s-4.692-2.15-4.692-4.8c0-2.654 2.101-4.8 4.692-4.8s4.693 2.146 4.693 4.8zm-9.385-14.405c0 2.651-2.102 4.801-4.696 4.801-2.591 0-4.693-2.15-4.693-4.8 0-2.654 2.102-4.804 4.693-4.804 2.594 0 4.696 2.15 4.696 4.804zm14.081 0c0 2.651-2.102 4.801-4.696 4.801-2.591 0-4.693-2.15-4.693-4.8 0-2.654 2.102-4.804 4.693-4.804 2.594 0 4.696 2.15 4.696 4.804zm0 0" fill="#527f72"/><path d="M84.204 255.262a4.663 4.663 0 01-3.658-1.803c-.814-1.04-19.933-26.072-15.078-70.75 1.182-14.89 6.579-29.108 15.53-40.912a4.622 4.622 0 016.603-.688c2.012 1.678 2.311 4.702.672 6.757-7.797 10.382-12.478 22.858-13.475 35.911-4.397 40.494 12.916 63.477 13.09 63.702a4.895 4.895 0 01.548 5.073c-.789 1.657-2.432 2.71-4.232 2.71zm14.649-118.07c-2.145 0-4.017-1.485-4.548-3.608-.533-2.127.409-4.35 2.29-5.406a33.775 33.775 0 014.859-2.297 4.617 4.617 0 014.611.91 4.87 4.87 0 011.53 4.539c-.318 1.685-1.49 3.069-3.075 3.63a25.83 25.83 0 00-3.417 1.64 4.6 4.6 0 01-2.25.592zm0 0" fill="#d75e72"/><path d="M121.755 101.614s-8.638-34.528 11.37-56.268a4.156 4.156 0 015.699-.425l6.485 4.938c2.248 1.864 2.75 5.168 1.156 7.643-3.829 5.937-9.073 19.039-5.936 44.112zm0 0" fill="#cb9080"/><path d="M154.61 106.415c0-5.305-10.507-9.604-23.47-9.604-12.959 0-23.467 4.299-23.467 9.604 0 5.304 10.508 9.604 23.467 9.604 12.963 0 23.47-4.3 23.47-9.604zm0 0" fill="#af8066"/></svg>