<svg height="512" viewBox="0 0 511.921 511.921" width="512" xmlns="http://www.w3.org/2000/svg"><path d="M431.303 327.8c0-11.454-10.613-16.748-19.333-22.257 8.758-5.533 19.333-10.901 19.333-22.257 0-9.379-7.99-14.954-10.608-16.78-20.224-14.138-48.294-13.16-68.232 2.435-8.74 7.063-27.62 25.474-45.103 25.474-14.495 0-26.32-10.296-45.103-25.474-33.344-26.053-78.84-5.908-78.84 14.345 0 11.454 10.613 16.749 19.334 22.257-8.759 5.533-19.333 10.902-19.333 22.257 0 11.454 10.612 16.749 19.333 22.257-8.759 5.533-19.333 10.902-19.333 22.257 0 11.454 10.612 16.749 19.333 22.257-8.759 5.533-19.333 10.902-19.333 22.257 0 16.416 25.503 27.488 42.737 27.488 12.731 0 25.55-4.162 36.103-12.4 8.74-7.062 27.62-26.216 45.103-26.216 14.495 0 26.317 11.04 45.103 26.216 33.294 26.008 78.84 5.232 78.84-15.088 0-11.454-10.613-16.748-19.333-22.257 8.758-5.533 19.332-10.901 19.332-22.257 0-11.454-10.612-16.748-19.332-22.257 8.757-5.533 19.332-10.901 19.332-22.257z" fill="#ffd480"/><path d="M431.303 416.828c0-11.454-10.613-16.748-19.333-22.257 8.758-5.533 19.333-10.901 19.333-22.257 0-11.454-10.613-16.748-19.333-22.257 8.758-5.533 19.333-10.901 19.333-22.257 0-11.454-10.613-16.748-19.333-22.257 8.758-5.533 19.333-10.901 19.333-22.257 0-9.379-7.99-14.954-10.608-16.78-20.224-14.138-48.294-13.16-68.232 2.435-8.74 7.063-27.62 25.474-45.103 25.474V405.7c14.495 0 26.317 11.04 45.103 26.216 33.294 26.008 78.84 5.232 78.84-15.088z" fill="#ffb366"/><path d="M341.163 136.486c0-11.454-10.613-17.49-19.333-23 8.758-5.532 19.333-10.9 19.333-22.256 0-20.31-45.507-40.367-78.84-14.346-8.74 7.062-27.62 25.474-45.103 25.474-14.495 0-26.317-10.298-45.103-25.474-33.256-25.99-78.84-5.971-78.84 14.346 0 11.454 10.613 16.748 19.334 22.257-8.758 5.533-19.333 11.643-19.333 22.999 0 11.454 10.612 16.748 19.333 22.257-8.759 5.533-19.333 10.901-19.333 22.257 0 11.454 10.612 16.748 19.333 22.257-8.759 5.533-19.333 10.901-19.333 22.257 0 20.257 45.495 40.36 78.84 14.345 8.74-7.063 27.62-25.474 45.102-25.474 14.496 0 26.32 10.296 45.103 25.474 10.553 8.238 23.371 12.39 36.092 12.39 17.336 0 42.748-10.296 42.748-26.735 0-11.454-10.613-16.749-19.333-22.257 8.758-5.533 19.333-10.902 19.333-22.257 0-11.454-10.613-16.749-19.333-22.257 8.758-5.533 19.333-10.902 19.333-22.257z" fill="#ffd480"/><path d="M298.415 252.248c17.336 0 42.748-10.295 42.748-26.734 0-11.454-10.613-16.749-19.333-22.257 8.758-5.533 19.333-10.902 19.333-22.257 0-11.454-10.613-16.749-19.333-22.257 8.758-5.533 19.333-10.902 19.333-22.257 0-11.454-10.613-17.49-19.333-23 8.758-5.532 19.333-10.9 19.333-22.256 0-20.31-45.507-40.367-78.84-14.346-8.74 7.062-27.62 25.474-45.103 25.474v112.027c14.496 0 26.32 10.296 45.103 25.474 10.553 8.237 23.372 12.39 36.092 12.39z" fill="#ffb366"/><path d="M287.544 143.278l-13.755-18.37c-14.283 10.857-32.174 22.706-56.569 22.706s-42.286-11.849-56.569-22.705l-13.754 18.37c6.888 5.238 14.91 10.791 24.24 15.464-9.33 4.674-17.352 10.227-24.229 15.443l13.732 17.65c14.305-10.869 32.197-21.965 56.58-21.965s42.275 11.096 56.58 21.963l13.732-17.649c-6.877-5.216-14.899-10.77-24.23-15.442 9.332-4.673 17.353-10.227 24.242-15.465z" fill="#ffb366"/><path d="M287.532 174.185c-6.877-5.216-14.898-10.77-24.23-15.442 9.332-4.673 17.353-10.227 24.242-15.465l-13.755-18.37c-14.283 10.857-32.174 22.706-56.569 22.706v22.257c24.384 0 42.275 11.096 56.58 21.963z" fill="#fd9662"/><path d="M353.443 350.057c9.33-4.673 17.352-10.226 24.23-15.442l-13.733-17.65c-14.304 10.868-32.195 21.964-56.58 21.964s-42.274-11.096-56.578-21.963l-13.732 17.649c6.876 5.216 14.898 10.77 24.23 15.442-9.332 4.673-17.354 10.227-24.242 15.465l13.755 17.628c14.283-10.857 32.174-21.964 56.569-21.964s42.286 11.107 56.568 21.964l13.755-17.628c-6.89-5.238-14.911-10.792-24.242-15.465z" fill="#ffb366"/><path d="M377.684 365.522c-6.889-5.238-14.91-10.792-24.241-15.465 9.33-4.673 17.352-10.226 24.23-15.442l-13.733-17.65c-14.304 10.868-32.195 21.964-56.58 21.964v22.257c24.396 0 42.287 11.107 56.57 21.963z" fill="#fd9662"/></svg>