<?xml version="1.0" encoding="iso-8859-1"?>
<!-- Generator: Adobe Illustrator 19.0.0, SVG Export Plug-In . SVG Version: 6.00 Build 0)  -->
<svg version="1.1" id="Capa_1" xmlns="http://www.w3.org/2000/svg" xmlns:xlink="http://www.w3.org/1999/xlink" x="0px" y="0px"
	 viewBox="0 0 512 512" style="enable-background:new 0 0 512 512;" xml:space="preserve">
<path style="fill:#CE8951;" d="M361.926,94.126V69.218H261.682h-11.361H150.078v24.908c0,21.597-9.232,41.591-24.286,52.593l0,0
	c-15.053,11.002-24.286,30.996-24.286,52.593v272.651c0,22.112,14.519,40.037,32.43,40.037h116.385h11.361h116.386
	c17.911,0,32.43-17.925,32.43-40.037V199.312c0-21.597-9.232-41.591-24.286-52.593l0,0
	C371.159,135.717,361.926,115.723,361.926,94.126z"/>
<path style="fill:#C4773D;" d="M410.495,199.313v272.65c0,22.116-14.52,40.035-32.428,40.035h-36.709
	c17.909,0,32.428-17.919,32.428-40.035v-272.65c0-21.598-9.224-41.59-24.282-52.596c-7.524-5.503-13.597-13.245-17.784-22.324
	c-4.187-9.068-6.498-19.473-6.498-30.262V69.217h36.708v24.915c0,10.789,2.311,21.194,6.498,30.262
	c4.187,9.079,10.26,16.82,17.784,22.324C401.26,157.723,410.495,177.715,410.495,199.313z"/>
<path style="fill:#FFD04F;" d="M371.441,69.218H140.563c-2.648,0-4.794-2.146-4.794-4.794V4.794c0-2.648,2.146-4.794,4.794-4.794
	h230.878c2.648,0,4.794,2.146,4.794,4.794v59.629C376.235,67.071,374.088,69.218,371.441,69.218z"/>
<path style="fill:#F9BD16;" d="M371.441,69.218h-46.219V0h46.219c2.648,0,4.794,2.146,4.794,4.794v59.629
	C376.235,67.071,374.088,69.218,371.441,69.218z"/>
<rect x="101.502" y="218.93" style="fill:#FFD04F;" width="308.99" height="195.85"/>
<rect x="373.782" y="218.93" style="fill:#F9BD16;" width="36.712" height="195.85"/>
<path style="fill:#EEA33E;" d="M213.62,290.465c-6.255-1.783-11.254-6.41-13.662-12.453c-1.535-3.852-3.829-7.557-6.878-10.867
	c-11.803-12.817-30.429-14.864-41.603-4.574c-11.174,10.29-10.664,29.022,1.139,41.838c3.049,3.31,6.552,5.902,10.265,7.748
	c5.824,2.896,10.025,8.258,11.288,14.639c1.387,7.008,4.805,13.95,10.231,19.841c14.046,15.252,36.211,17.689,49.508,5.444
	c13.297-12.246,12.69-34.536-1.356-49.788C227.128,296.401,220.49,292.423,213.62,290.465z"/>
<path style="fill:#DF862A;" d="M233.906,352.085c-4.56,4.197-10.156,6.664-16.116,7.483c11.804-12.488,10.726-33.682-2.788-48.368
	c-5.431-5.897-12.063-9.866-18.935-11.825c-6.26-1.783-11.255-6.415-13.659-12.457c-1.534-3.855-3.835-7.555-6.882-10.872
	c-7.306-7.928-17.214-11.732-26.355-11.037c0.705-0.86,1.472-1.669,2.301-2.435c11.182-10.291,29.806-8.25,41.611,4.57
	c3.047,3.316,5.337,7.016,6.871,10.872c2.415,6.042,7.41,10.664,13.67,12.447c6.861,1.959,13.504,5.939,18.924,11.836
	C246.602,317.543,247.203,339.835,233.906,352.085z"/>
<g>
	<path style="fill:#EEA33E;" d="M337.649,281.306h-47.447c-4.143,0-7.5-3.357-7.5-7.5s3.357-7.5,7.5-7.5h47.446
		c4.143,0,7.5,3.357,7.5,7.5S341.791,281.306,337.649,281.306z"/>
	<path style="fill:#EEA33E;" d="M376.235,308.251h-86.033c-4.143,0-7.5-3.357-7.5-7.5s3.357-7.5,7.5-7.5h86.032
		c4.143,0,7.5,3.357,7.5,7.5S380.377,308.251,376.235,308.251z"/>
	<path style="fill:#EEA33E;" d="M366.169,335.196h-75.967c-4.143,0-7.5-3.357-7.5-7.5s3.357-7.5,7.5-7.5h75.967
		c4.143,0,7.5,3.357,7.5,7.5S370.312,335.196,366.169,335.196z"/>
	<path style="fill:#EEA33E;" d="M328.055,362.143h-37.853c-4.143,0-7.5-3.357-7.5-7.5s3.357-7.5,7.5-7.5h37.853
		c4.143,0,7.5,3.357,7.5,7.5S332.197,362.143,328.055,362.143z"/>
	<path style="fill:#EEA33E;" d="M165.837,54.507c-4.143,0-7.5-3.357-7.5-7.5V21.098c0-4.143,3.357-7.5,7.5-7.5s7.5,3.357,7.5,7.5
		v25.909C173.337,51.149,169.98,54.507,165.837,54.507z"/>
	<path style="fill:#EEA33E;" d="M195.892,54.507c-4.143,0-7.5-3.357-7.5-7.5V21.098c0-4.143,3.357-7.5,7.5-7.5s7.5,3.357,7.5,7.5
		v25.909C203.392,51.149,200.034,54.507,195.892,54.507z"/>
	<path style="fill:#EEA33E;" d="M225.947,54.507c-4.143,0-7.5-3.357-7.5-7.5V21.098c0-4.143,3.357-7.5,7.5-7.5s7.5,3.357,7.5,7.5
		v25.909C233.447,51.149,230.09,54.507,225.947,54.507z"/>
	<path style="fill:#EEA33E;" d="M256.002,54.507c-4.143,0-7.5-3.357-7.5-7.5V21.098c0-4.143,3.357-7.5,7.5-7.5s7.5,3.357,7.5,7.5
		v25.909C263.502,51.149,260.145,54.507,256.002,54.507z"/>
	<path style="fill:#EEA33E;" d="M286.057,54.507c-4.143,0-7.5-3.357-7.5-7.5V21.098c0-4.143,3.357-7.5,7.5-7.5s7.5,3.357,7.5,7.5
		v25.909C293.557,51.149,290.199,54.507,286.057,54.507z"/>
	<path style="fill:#EEA33E;" d="M316.112,54.507c-4.143,0-7.5-3.357-7.5-7.5V21.098c0-4.143,3.357-7.5,7.5-7.5s7.5,3.357,7.5,7.5
		v25.909C323.612,51.149,320.254,54.507,316.112,54.507z"/>
	<path style="fill:#EEA33E;" d="M346.167,54.507c-4.143,0-7.5-3.357-7.5-7.5V21.098c0-4.143,3.357-7.5,7.5-7.5s7.5,3.357,7.5,7.5
		v25.909C353.667,51.149,350.31,54.507,346.167,54.507z"/>
</g>
<g>
</g>
<g>
</g>
<g>
</g>
<g>
</g>
<g>
</g>
<g>
</g>
<g>
</g>
<g>
</g>
<g>
</g>
<g>
</g>
<g>
</g>
<g>
</g>
<g>
</g>
<g>
</g>
<g>
</g>
</svg>
