<?xml version="1.0" encoding="iso-8859-1"?>
<!-- Generator: Adobe Illustrator 19.0.0, SVG Export Plug-In . SVG Version: 6.00 Build 0)  -->
<svg xmlns="http://www.w3.org/2000/svg" xmlns:xlink="http://www.w3.org/1999/xlink" version="1.1" id="Layer_1" x="0px" y="0px" viewBox="0 0 488.48 488.48" style="enable-background:new 0 0 488.48 488.48;" xml:space="preserve" width="512" height="512">
<g>
	<path style="fill:#FFCA5E;" d="M392.802,339.4c0,64.45-40.77,119.36-97.84,140.16c-12.8,4.67-26.42,7.62-40.59,8.58   c-0.87,0.06-1.75,0.12-2.63,0.16c-2.48,0.12-4.98,0.18-7.5,0.18s-5.02-0.06-7.5-0.18c-78.57-3.93-141.06-69.1-141.06-148.9   c0-2.59,0.07-5.16,0.2-7.72c0.43-8.55,1.58-16.91,3.4-25.02c4.34-19.48,12.49-37.51,23.61-53.29c2.9-4.11,5.45-8.39,7.63-12.79   c2.42-4.87,4.38-9.89,5.89-15c5.7-19.28,4.9-39.92-3.01-59c-0.67-1.62-1.3-3.24-1.9-4.9v-0.01c-2.16-5.92-3.86-12.06-5.07-18.39   c-1.43-7.4-2.17-15.05-2.17-22.88c0-63.96,49.7-116.28,112.48-120.16c2.48-0.16,4.98-0.24,7.5-0.24s5.02,0.08,7.5,0.24   c0.48,0.03,0.96,0.06,1.44,0.11c13.02,0.95,25.46,4,36.99,8.8c43.47,18.09,74.04,61.09,74.04,111.25c0,7.82-0.74,15.47-2.17,22.87   c-1.2,6.33-2.91,12.48-5.07,18.41c-0.6,1.65-1.23,3.29-1.9,4.9c-7.91,19.08-8.71,39.73-3.01,59c1.51,5.12,3.48,10.13,5.89,15   c2.18,4.4,4.73,8.68,7.63,12.79c11.12,15.77,19.27,33.8,23.62,53.27c1.81,8.11,2.97,16.48,3.4,25.03   C392.732,334.23,392.802,336.81,392.802,339.4z"/>
	<path style="fill:#E8A328;" d="M243.118,488.467c-81.53-0.6-147.44-67.11-147.44-149.07c0-32.04,10.08-61.72,27.22-86.02   c18.21-25.82,22.41-58.08,10.51-86.8c-5.89-14.22-9.15-29.82-9.15-46.18c0-66.49,53.72-120.39,119.98-120.39   c-38.8,0-70.25,53.9-70.25,120.39c0,16.36,1.91,31.96,5.36,46.18c6.96,28.72,4.51,60.98-6.16,86.8   c-10.03,24.3-15.93,53.98-15.93,86.02C157.258,421.097,195.588,487.437,243.118,488.467z"/>
	<path style="fill:#E8A328;" d="M362.042,143.27c-1.2,6.33-2.91,12.48-5.07,18.41l-0.67-1.13c-14.84-24.9-60.93-42.29-112.06-42.29   s-97.21,17.38-112.06,42.28l-0.68,1.13c-2.16-5.92-3.86-12.06-5.07-18.39c21.89-24.3,67.15-40.02,117.81-40.02   C294.892,103.26,340.162,118.97,362.042,143.27z"/>
	<path style="fill:#E8A328;" d="M392.602,331.67c-10.23,13.19-26.2,24.89-46.63,33.95c-28.54,12.64-64.66,19.61-101.73,19.61   s-73.2-6.97-101.74-19.61c-20.43-9.05-36.39-20.75-46.62-33.94c0.43-8.55,1.58-16.91,3.4-25.02l0.84,2.34   c5.89,16.43,23.1,31.67,48.46,42.91c26.66,11.81,60.63,18.32,95.66,18.32c35.02,0,68.99-6.51,95.65-18.32   c25.36-11.24,42.57-26.48,48.46-42.91l0.85-2.36C391.012,314.75,392.172,323.12,392.602,331.67z"/>
	<path style="fill:#E8A328;" d="M338.722,342.67c0,42.45-9.39,82.49-26.44,112.72c-5.26,9.32-11.07,17.4-17.32,24.17   c-12.8,4.67-26.42,7.62-40.59,8.58c16.67-4.01,32.31-17.91,44.84-40.12c15.81-28.02,24.51-65.44,24.51-105.35   c0-31.16-5.32-60.97-15.4-86.2c-11.28-28.25-13.71-63.5-6.49-94.27c3.42-14.59,5.16-30.08,5.16-46.05   c0-31.99-6.97-61.96-19.61-84.37c-9.64-17.08-21.54-27.94-34.2-31.43c13.02,0.95,25.46,4,36.99,8.8   c3.65,4.52,7.09,9.61,10.27,15.26c13.9,24.62,21.55,57.21,21.55,91.74c0,17.12-1.87,33.76-5.56,49.47   c-6.54,27.9-4.36,59.78,5.82,85.29C333.032,277.89,338.722,309.62,338.722,342.67z"/>
	<path style="fill:#E8A328;" d="M357.952,240.58h-227.43c2.42-4.87,4.38-9.89,5.89-15h215.65   C353.572,230.7,355.542,235.71,357.952,240.58z"/>
	<path style="fill:#E8A328;" d="M251.742,0.24V488.3c-2.48,0.12-4.98,0.18-7.5,0.18s-5.02-0.06-7.5-0.18V0.24   c2.48-0.16,4.98-0.24,7.5-0.24S249.262,0.08,251.742,0.24z"/>
</g>















</svg>
