<svg height="512" viewBox="0 0 58 58" width="512" xmlns="http://www.w3.org/2000/svg"><g id="Page-1" fill="none" fill-rule="evenodd"><g id="048---Pecan" fill-rule="nonzero" transform="translate(-1 -1)"><path id="Shape" d="m12.22 47.78c-1.4720392 1.6759998-1.4720392 4.1840002 0 5.86 1.46 1.47 11.78 13.25 28.57-3.64s19.78-33 17.58-35.18-4.4 1.46-6.6-.73 0-5.86 0-5.86-3.66 2.19-5.86 0 1.47-4.4-.73-6.6-18.25.8-35.18 17.58-5.11 27.11-3.64 28.57c1.6759998 1.4720392 4.1840002 1.4720392 5.86 0z" fill="#cb8252"/><path id="Shape" d="m21.52 15.73c-.3147573 0-.6111456-.1481942-.8-.4-.1591299-.2121732-.2274568-.4788704-.1899495-.7414214.0375073-.2625509.1777763-.4994487.3899495-.6585786.61-.45 1.2-.88 1.79-1.29.4530449-.3140152 1.0747628-.2021954 1.39.25.3140152.4530449.2021954 1.0747628-.25 1.39-.57.4-1.15.82-1.73 1.25-.1730962.1298221-.3836298.2-.6.2z" fill="#cf976a"/><path id="Shape" d="m5.14 37.34c-.55228475 0-1-.4477153-1-1 0-4.56 2.74-9.57 8.09-14.89 1.77-1.76 3.6-3.42 5.44-5 .2040826-.1700589.4674438-.251926.7319715-.2275369s.5084803.1530298.6780285.3575369c.17914.1982437.2714944.459933.2564652.7267023-.0150293.2667692-.1361922.5164293-.3364652.6932977-1.8 1.5-3.58 3.12-5.31 4.83-5 4.94-7.49 9.47-7.5 13.48.00873888.2792804-.09976722.5494794-.2992355.7451483s-.47170378.2989592-.7507645.2848517z" fill="#cf976a"/><g fill="#a56a43"><path id="Shape" d="m46.76 8.84-30.15 30.16c-.5233941.5233941-1.2862576.7278028-2.0012272.5362272-.7149697-.1915755-1.2734245-.7500303-1.465-1.465-.1915756-.7149696.0128331-1.4778331.5362272-2.0012272l32.16-32.16c-.29 1.44-1.36 2.88.07 4.32.2486449.24776886.5356738.45375426.85.61z"/><path id="Shape" d="m56.09 14.16-32.15 32.16c-.8090972.8118586-2.1231414.8140972-2.935.005s-.8140972-2.1231414-.005-2.935l30.16-30.15c.1562457.3143262.3622311.6013551.61.85 1.44 1.43 2.88.36 4.32.07z"/></g></g></g></svg>