<svg width="1em" height="1em" viewBox="0 0 16 16" class="bi bi-pencil" fill="currentColor" xmlns="http://www.w3.org/2000/svg"><path d="M-76.23 75.738c7.937-6.37 155.213-159.02 155.552-158.664 15.295 16.065 57.707 61.871 57.163 62.385C128.19-12.696-3.379 127.598-10.953 133.572c-3.292 2.597-7.27 5.635-11.247 7.117-.051.019 1.776-18.414-3.71-26.741-1.222-1.855-6.104-.222-7.883-.816-5.08-1.697-9.77-1.288-14.633-3.272-.344-.14-1.001-9.368-1.104-9.979-.922-5.458-3.754-19.167-4.369-19.55-5.63-3.509-10.308-.626-16.121-.626-1.311 0-6.21-2.414-6.21-3.967z" stroke="#000" fill="#ffb957" transform="matrix(.04344 0 0 .04241 6.622 6.93)"/><path d="M-116.667 175.806c-.432-10.044 20.421-79.367 26.85-87.044 1.447-1.729 10.311-15.499 15.964-14.43 2.153.407 6.757 14.537 9.349 14.86 1.195.149 10.353-2.476 10.686-1.778 2.278 4.774.562 11.299 3.076 16.327.034.069 23.051 1.485 23.675 10.25.533 7.503.57 32.022-.6 35.503-1.237 3.679-89 33.263-89 26.312z" stroke="#000" fill="#ffebd6" transform="matrix(.04344 0 0 .04241 6.622 6.93)"/><path d="M75.035-85.023s42.581-44.936 47.787-47.578c.665-.338 62.46 62.837 62.46 62.837l-46.96 49.786-63.287-65.045z" stroke="#000" fill="#faa" transform="matrix(.04344 0 0 .04241 6.622 6.93)"/><path d="M2.108 12.735c.472-.02.971.138 1.091.635.018.073.086.538.024.604-.154.166-1.525.534-1.543.516-.06-.062.229-1.746.428-1.755z" fill="#4c4c4c"/><path fill-rule="evenodd" d="M11.294 1.252a1 1 0 011.414 0l2 2a1 1 0 010 1.414l-9 9a.99.99 0 01-.39.241l-3 1a1 1 0 01-1.266-1.265l1-3a.998.998 0 01.242-.39l9-9zM12 1.96l2 2-9 9-3 1 1-3 9-9z" fill="#000"/><path fill-rule="evenodd" d="M12.147 6.313l-2.5-2.5.708-.708 2.5 2.5-.707.708zM3 9.958v.5a.5.5 0 00.5.5H4v.5a.5.5 0 00.5.5H5v.5a.5.5 0 00.5.5H6v-1.5a.5.5 0 00-.5-.5H5v-.5a.5.5 0 00-.5-.5H3z" fill="#000"/></svg>