<svg width="512" height="512" xmlns="http://www.w3.org/2000/svg"><g transform="matrix(.72548 0 0 .71486 65.062 74.26)"><circle cx="269.392" cy="77.264" r="77.264" fill="#f57c7c"/><path d="M269.392 0c-5.292 0-10.46.535-15.453 1.549 35.266 7.159 61.811 38.336 61.811 75.715 0 37.379-26.544 68.556-61.811 75.715a77.578 77.578 0 0015.453 1.549c42.672 0 77.264-34.592 77.264-77.264S312.064 0 269.392 0z" fill="#ef6161"/><circle cx="434.736" cy="200.37" r="77.264" fill="#f57c7c"/><path d="M434.736 123.107c-5.292 0-10.46.535-15.453 1.549 35.266 7.159 61.811 38.336 61.811 75.715 0 37.379-26.545 68.556-61.811 75.715a77.578 77.578 0 0015.453 1.549c42.672 0 77.264-34.592 77.264-77.264s-34.592-77.264-77.264-77.264z" fill="#ef6161"/><circle cx="77.264" cy="190.068" r="77.264" fill="#f57c7c"/><path d="M77.264 112.805c-5.292 0-10.46.535-15.453 1.549 35.266 7.159 61.811 38.336 61.811 75.715 0 37.379-26.545 68.556-61.811 75.715a77.578 77.578 0 0015.453 1.549c42.672 0 77.264-34.592 77.264-77.264s-34.593-77.264-77.264-77.264z" fill="#ef6161"/><circle cx="112.805" cy="418.19" r="77.264" fill="#f57c7c"/><path d="M112.805 340.926c-5.292 0-10.46.535-15.453 1.549 35.266 7.159 61.811 38.336 61.811 75.715 0 37.379-26.545 68.556-61.811 75.715a77.578 77.578 0 0015.453 1.548c42.672 0 77.264-34.592 77.264-77.264s-34.593-77.263-77.264-77.263z" fill="#ef6161"/><circle cx="413.618" cy="434.736" r="77.264" fill="#f57c7c"/><path d="M413.618 357.473a77.66 77.66 0 00-15.453 1.548c35.266 7.159 61.811 38.336 61.811 75.715s-26.545 68.556-61.811 75.715a77.578 77.578 0 0015.453 1.548c42.672 0 77.264-34.592 77.264-77.264s-34.593-77.262-77.264-77.262z" fill="#ef6161"/><circle cx="261.151" cy="281.512" r="77.264" fill="#f57c7c"/><path d="M261.151 204.249c-5.292 0-10.46.535-15.453 1.549 35.266 7.159 61.811 38.336 61.811 75.715s-26.545 68.556-61.811 75.715a77.578 77.578 0 0015.453 1.549c42.672 0 77.264-34.592 77.264-77.264-.001-42.672-34.593-77.264-77.264-77.264z" fill="#ef6161"/><path d="M237.113 98.944a7.5 7.5 0 007.5-7.5v-3.863c0-4.143-3.358-7.5-7.5-7.5s-7.5 3.357-7.5 7.5v3.863a7.5 7.5 0 007.5 7.5zm22.813-55.825l3.444-1.749a7.501 7.501 0 00-6.791-13.375l-3.444 1.749a7.501 7.501 0 006.791 13.375zm12.925 70.096a7.5 7.5 0 10-9.834 11.328l2.917 2.532a7.474 7.474 0 004.914 1.836 7.501 7.501 0 004.92-13.164l-2.917-2.532zm39.058-52.068a7.5 7.5 0 00-9.466 4.786l-1.205 3.67a7.501 7.501 0 0014.252 4.68l1.205-3.67a7.5 7.5 0 00-4.786-9.466zM266.47 71.394l.695 3.8a7.502 7.502 0 008.727 6.028 7.5 7.5 0 006.028-8.728l-.695-3.8a7.504 7.504 0 00-8.728-6.028 7.5 7.5 0 00-6.027 8.728zm143.487 143.157v-3.863c0-4.143-3.357-7.5-7.5-7.5s-7.5 3.357-7.5 7.5v3.863c0 4.143 3.357 7.5 7.5 7.5s7.5-3.358 7.5-7.5zm22.05-60.156a7.499 7.499 0 00-10.082-3.293l-3.445 1.749a7.5 7.5 0 00-3.293 10.082 7.497 7.497 0 0010.082 3.293l3.445-1.749a7.5 7.5 0 003.293-10.082zm-3.646 93.254l2.917 2.532a7.474 7.474 0 004.914 1.836 7.501 7.501 0 004.92-13.164l-2.917-2.532a7.501 7.501 0 00-9.834 11.328zm48.891-63.395a7.502 7.502 0 00-9.465 4.787l-1.205 3.671a7.5 7.5 0 0014.252 4.678l1.205-3.671a7.5 7.5 0 00-4.787-9.465zM431.814 194.5l.695 3.8a7.502 7.502 0 008.727 6.028 7.5 7.5 0 006.028-8.728l-.695-3.8c-.745-4.074-4.659-6.766-8.728-6.028a7.503 7.503 0 00-6.027 8.728zm-386.83-1.614a7.5 7.5 0 00-7.5 7.5v3.863c0 4.143 3.358 7.5 7.5 7.5s7.5-3.357 7.5-7.5v-3.863a7.5 7.5 0 00-7.5-7.5zm29.55-48.794a7.498 7.498 0 00-10.083-3.292l-3.445 1.749a7.5 7.5 0 006.791 13.375l3.445-1.749a7.5 7.5 0 003.292-10.083zm4.185 97.624a7.501 7.501 0 004.92-13.164l-2.917-2.532a7.501 7.501 0 00-9.833 11.328l2.917 2.532a7.47 7.47 0 004.913 1.836zm35.178-49.841a7.483 7.483 0 002.34.376 7.505 7.505 0 007.125-5.163l1.205-3.671a7.5 7.5 0 00-14.252-4.678l-1.205 3.671a7.5 7.5 0 004.787 9.465zm-24.8-10.376a7.5 7.5 0 10-14.755 2.7l.695 3.8a7.502 7.502 0 008.728 6.028 7.5 7.5 0 006.027-8.728l-.695-3.8zm-8.571 239.508a7.5 7.5 0 00-7.5 7.5v3.863c0 4.143 3.358 7.5 7.5 7.5s7.5-3.357 7.5-7.5v-3.863a7.5 7.5 0 00-7.5-7.5zm29.548-48.793a7.497 7.497 0 00-10.083-3.292l-3.445 1.749a7.5 7.5 0 003.402 14.189 7.476 7.476 0 003.39-.814l3.445-1.749a7.5 7.5 0 003.291-10.083zm9.107 84.461l-2.917-2.533a7.501 7.501 0 00-9.835 11.326l2.917 2.533a7.474 7.474 0 004.914 1.837 7.501 7.501 0 004.921-13.163zm36.14-54.602a7.5 7.5 0 00-9.465 4.787l-1.205 3.671a7.5 7.5 0 007.128 9.841 7.505 7.505 0 007.125-5.163l1.205-3.671a7.501 7.501 0 00-4.788-9.465zm-30.683 7.547c-.746-4.074-4.652-6.764-8.728-6.028a7.5 7.5 0 00-6.027 8.728l.695 3.8a7.502 7.502 0 008.728 6.028 7.5 7.5 0 006.027-8.728l-.695-3.8zm272.954 48.642a7.5 7.5 0 00-12.944 7.58l1.952 3.334a7.496 7.496 0 0010.262 2.682 7.5 7.5 0 002.682-10.262l-1.952-3.334zm-9.249-46.106l2.089-3.25a7.5 7.5 0 00-12.619-8.109l-2.089 3.25a7.5 7.5 0 0012.619 8.109zm50.367 54.672l-3.798-.712c-4.065-.755-7.99 1.918-8.754 5.99a7.502 7.502 0 005.99 8.754l3.798.712a7.502 7.502 0 002.764-14.744zm12.513-59.63a7.498 7.498 0 00-8.914-5.748 7.5 7.5 0 00-5.748 8.914l.815 3.776a7.502 7.502 0 008.914 5.748 7.5 7.5 0 005.748-8.914l-.815-3.776zm-31.579 16.266a7.499 7.499 0 00-10.577-.79 7.5 7.5 0 00-.79 10.577l2.521 2.928a7.481 7.481 0 005.687 2.606 7.5 7.5 0 005.681-12.393l-2.522-2.928zm-173.249-117.37a7.5 7.5 0 00-12.513 8.272l2.13 3.223a7.49 7.49 0 006.263 3.365 7.5 7.5 0 006.25-11.637l-2.13-3.223zm-11.749-45.534l1.909-3.359a7.5 7.5 0 00-2.816-10.226 7.498 7.498 0 00-10.226 2.815l-1.909 3.359a7.5 7.5 0 006.514 11.206 7.499 7.499 0 006.528-3.795zm53.272 51.846l-3.83-.504a7.5 7.5 0 00-1.957 14.871l3.83.504a7.501 7.501 0 008.414-6.457 7.5 7.5 0 00-6.457-8.414zm9.245-60.223a7.501 7.501 0 00-14.469 3.959l1.02 3.727a7.503 7.503 0 007.23 5.522 7.501 7.501 0 007.238-9.482l-1.019-3.726zm-30.645 17.963a7.5 7.5 0 00-10.818 10.39l2.676 2.786a7.478 7.478 0 005.41 2.305 7.5 7.5 0 005.408-12.695l-2.676-2.786z" fill="#fab2b2"/></g></svg>