<svg height="511pt" viewBox="0 -41 512 511" width="511pt" xmlns="http://www.w3.org/2000/svg"><path d="M165.183 66.041c3.059 10.263 9.324 29.047 17.98 43.676l31.967 16.004 43.588-.405c-32.886-44.648-72.699-60.297-88.591-65.015-3.143-.93-5.959 2.333-4.944 5.74zm189.221 0c-3.056 10.263-9.319 29.047-17.975 43.676l-31.969 16.004-43.589-.405c32.888-44.648 72.701-60.297 88.594-65.015 3.141-.93 5.955 2.333 4.939 5.74zm0 0" fill="#afdc82"/><path d="M351.402 107.05c-14.178-1.617-27.765.496-40.115 5.59-16.875 6.948-34.761 9.997-52.569 9.41-17.806.587-35.695-2.462-52.565-9.41-12.355-5.094-25.938-7.211-40.116-5.59-53.792 6.145-89.282 66.573-80.287 127.969 11.479 78.354 70.55 140.324 122.96 140.324 13.914 0 22.52-1.216 33.546-4.812a53.083 53.083 0 0116.462-2.628c5.545 0 11.087.876 16.465 2.628 11.025 3.596 19.632 4.812 33.545 4.812 52.407 0 111.476-61.97 122.957-140.324 8.995-61.396-26.491-121.824-80.283-127.969zm0 0" fill="#ffaa5f"/><path d="M342.057 125.721c2.496 0 5.035.145 7.548.431 18.862 2.152 35.993 13.038 48.243 30.647 14.508 20.851 20.566 48.246 16.624 75.165-8.589 58.615-55.634 124.175-105.747 124.175-12.318 0-19.265-.976-28.59-4.018a68.948 68.948 0 00-21.417-3.42 68.902 68.902 0 00-21.414 3.42c-9.329 3.042-16.277 4.018-28.594 4.018-50.113 0-97.158-65.56-105.747-124.175-3.944-26.919 2.115-54.314 16.622-75.165 12.252-17.609 29.387-28.495 48.245-30.647a66.993 66.993 0 017.548-.431c8.47 0 16.766 1.648 24.663 4.904 17.228 7.099 35.523 10.701 54.366 10.701 1.434 0 2.873-.023 4.311-.064 1.437.041 2.871.064 4.311.064 18.842 0 37.137-3.602 54.368-10.704 7.893-3.253 16.19-4.901 24.66-4.901" fill="#ff8c5a"/><path d="M331.686 126.549a65.445 65.445 0 00-14.289 4.073c-17.231 7.102-35.526 10.704-54.368 10.704-1.436 0-2.874-.023-4.311-.064-1.438.041-2.872.064-4.311.064-18.843 0-37.138-3.602-54.366-10.701a64.973 64.973 0 00-14.222-4.047l6.111 8.643c6.664 9.382 15.163 16.79 24.251 23.25 11.023 7.841 18.607 20.569 19.956 35.449l3.407 37.502c1.096 12.071 11.236 20.942 22.577 18.784 8.71-1.656 14.99-10.233 15.869-19.913l3.304-36.373c1.347-14.88 8.931-27.608 19.959-35.449 9.085-6.456 17.584-13.868 24.246-23.25zm0 0" fill="#ffc369"/></svg>