<?xml version="1.0" encoding="iso-8859-1"?>
<!-- Generator: Adobe Illustrator 19.0.0, SVG Export Plug-In . SVG Version: 6.00 Build 0)  -->
<svg version="1.1" id="Capa_1" xmlns="http://www.w3.org/2000/svg" xmlns:xlink="http://www.w3.org/1999/xlink" x="0px" y="0px"
	 viewBox="0 0 512 512" style="enable-background:new 0 0 512 512;" xml:space="preserve">
<path style="fill:#B02721;" d="M417.687,104.565c-8.282-4.069-13.896-5.758-13.896-5.758s-84.911-35.93-147.788,26.947
	c-62.877-62.877-147.788-26.947-147.788-26.947s-5.614,1.689-13.896,5.758c-54.47,26.777-77.222,92.367-53.598,148.273
	c13.249,31.313,35.633,85.019,35.633,142.39C76.353,459.776,128.577,512,193.125,512h62.877h62.877
	c64.548,0,116.772-52.224,116.772-116.772c0-57.371,22.384-111.077,35.624-142.399C494.909,196.931,472.147,131.332,417.687,104.565
	z"/>
<path style="fill:#23A24D;" d="M229.253,107.789l-0.072,6.369c9.171,5.255,18.207,11.965,26.822,20.579
	c8.83-8.83,18.091-15.647,27.495-20.956l-0.548-5.991C280.884,63.039,211.279,0,211.279,0l-35.93,35.93
	C175.358,35.93,229.253,62.877,229.253,107.789z"/>
<path style="fill:#DD352E;" d="M366.909,147.95c-1.078-1.455-2.174-2.865-3.288-4.231c-22.806-27.837-64.449-41.544-96.543-25.268
	c-7.635,3.862-11.075,7.303-11.075,7.303s-3.44-3.44-11.066-7.303c-32.094-16.276-73.746-2.569-96.543,25.268
	c-1.123,1.365-2.219,2.776-3.288,4.231c-15.692,21.324-18.648,49.457-10.294,74.581c10.509,31.618,31.367,86.986,31.367,118.802
	v98.807c0,39.72,50.104,71.86,89.825,71.86s89.825-32.139,89.825-71.86v-98.807c0-31.816,20.857-87.184,31.376-118.802
	C385.547,197.407,382.601,169.274,366.909,147.95z"/>
<g>
	<path style="fill:#ED5A5A;" d="M256.002,485.053c-4.904,0-8.911-3.943-8.982-8.866c-0.063-4.958,3.907-9.027,8.866-9.099
		c11.147-0.153,37.879-3.306,45.379-29.427c1.374-4.77,6.351-7.527,11.111-6.153c4.77,1.365,7.518,6.342,6.153,11.111
		c-7.518,26.148-30.846,42.02-62.41,42.433C256.083,485.053,256.038,485.053,256.002,485.053z"/>
	<path style="fill:#ED5A5A;" d="M312.242,401.049c-4.851,0-8.848-3.871-8.973-8.749c-0.189-7.204-0.611-14.408-1.033-21.603
		c-0.719-12.342-1.455-25.115-1.051-37.879c0.153-4.868,4.141-8.704,8.973-8.704c0.09,0,0.189,0,0.287,0.009
		c4.958,0.153,8.848,4.303,8.695,9.252c-0.377,11.965,0.341,24.324,1.033,36.271c0.431,7.393,0.853,14.785,1.051,22.178
		c0.135,4.958-3.782,9.081-8.74,9.216C312.403,401.049,312.322,401.049,312.242,401.049z"/>
	<path style="fill:#ED5A5A;" d="M318.889,296.421c-0.728,0-1.464-0.09-2.201-0.269c-4.815-1.213-7.725-6.099-6.512-10.905
		c4.985-19.761,11.039-42.774,18.18-63.596c1.608-4.689,6.71-7.177,11.408-5.587c4.689,1.617,7.195,6.719,5.587,11.417
		c-6.925,20.202-12.863,42.765-17.749,62.159C326.56,293.708,322.904,296.421,318.889,296.421z"/>
</g>
<g>
	<path style="fill:#B02721;" d="M417.687,104.565c-8.282-4.069-13.896-5.758-13.896-5.758s-84.911-35.93-147.788,26.947
		c0,0,3.44-3.44,11.066-7.303c32.094-16.276,73.746-2.56,96.543,25.268c1.123,1.365,2.219,2.776,3.288,4.231
		c15.692,21.324,18.648,49.457,10.294,74.581c-10.509,31.618-31.367,86.986-31.367,118.802v98.807
		c0,39.72-50.104,71.86-89.825,71.86h62.877c64.548,0,116.772-52.224,116.772-116.772c0-57.371,22.384-111.077,35.624-142.399
		C494.909,196.931,472.147,131.332,417.687,104.565z"/>
	<path style="fill:#B02721;" d="M166.178,440.14v-98.807c0-31.816-20.857-87.184-31.367-118.802
		c-8.354-25.124-5.398-53.257,10.294-74.581c1.069-1.455,2.165-2.865,3.288-4.231c22.806-27.837,64.449-41.544,96.543-25.268
		c7.626,3.862,11.066,7.303,11.066,7.303c-62.877-62.877-147.788-26.947-147.788-26.947s-5.614,1.689-13.896,5.758
		c-54.47,26.777-77.222,92.367-53.598,148.273c13.249,31.313,35.633,85.019,35.633,142.39C76.353,459.776,128.577,512,193.125,512
		h62.877C216.282,512,166.178,479.861,166.178,440.14z"/>
</g>
<g>
</g>
<g>
</g>
<g>
</g>
<g>
</g>
<g>
</g>
<g>
</g>
<g>
</g>
<g>
</g>
<g>
</g>
<g>
</g>
<g>
</g>
<g>
</g>
<g>
</g>
<g>
</g>
<g>
</g>
</svg>
