<svg width="200" height="200" xmlns="http://www.w3.org/2000/svg"><path d="M71.497 31.332C67.912 36.391 66.12 46.25 66.12 46.25h14.515s-1.792-9.86-5.377-14.918c-.916-1.292-2.847-1.292-3.76 0zm0 0" fill="#ff8087"/><path d="M80.635 48.67a2.419 2.419 0 01-2.42-2.42c0-10.565 8.39-14.18 8.748-14.329a2.42 2.42 0 011.876 4.459c-.28.124-5.785 2.632-5.785 9.87a2.418 2.418 0 01-2.419 2.42zm0 0" fill="#e6646e"/><path d="M66.12 48.67a2.418 2.418 0 01-2.42-2.42c0-7.268-5.55-9.768-5.786-9.871a2.424 2.424 0 01-1.269-3.17 2.415 2.415 0 013.147-1.289c.357.149 8.747 3.765 8.747 14.33a2.42 2.42 0 01-2.42 2.42zm0 0" fill="#dc4655"/><path d="M73.387 135.766C43.323 135.766 25 115.186 25 89.799 25 64.41 43.323 43.83 73.387 43.83s48.387 20.58 48.387 45.968c0 25.387-18.323 45.967-48.387 45.967zm0 0" fill="#e6646e"/><path d="M85.484 123.67c-30.063 0-48.388-20.581-48.388-45.968 0-9.558 2.64-18.477 7.482-25.831C32.082 60.159 25 74.073 25 89.799c0 25.387 18.323 45.967 48.387 45.967 18.745 0 32.922-8.004 40.944-20.183-7.679 5.092-17.406 8.086-28.847 8.086zm0 0" fill="#dc4655"/><path d="M124.733 65.203c-3.586 5.06-5.378 14.918-5.378 14.918h14.516s-1.792-9.859-5.377-14.918c-.916-1.292-2.846-1.292-3.76 0zm0 0" fill="#ff8087"/><path d="M133.871 82.54a2.418 2.418 0 01-2.42-2.419c0-10.565 8.39-14.18 8.748-14.33a2.42 2.42 0 011.875 4.46c-.279.124-5.784 2.632-5.784 9.87a2.419 2.419 0 01-2.419 2.42zm0 0" fill="#e6646e"/><path d="M119.355 82.54a2.419 2.419 0 01-2.42-2.419c0-7.268-5.55-9.768-5.785-9.871a2.425 2.425 0 01-1.27-3.17 2.415 2.415 0 013.148-1.29c.357.15 8.746 3.766 8.746 14.33a2.42 2.42 0 01-2.419 2.42zm0 0" fill="#dc4655"/><path d="M126.613 169.637c-30.063 0-48.387-20.58-48.387-45.968 0-25.387 18.324-45.967 48.387-45.967 30.064 0 48.387 20.58 48.387 45.967s-18.323 45.968-48.387 45.968zm0 0" fill="#e6646e"/><path d="M126.613 82.54c25.64 0 43.548 16.913 43.548 41.13 0 24.215-17.907 41.129-43.548 41.129-25.64 0-43.548-16.914-43.548-41.13s17.908-41.129 43.548-41.129" fill="#fff6d8"/><path d="M144.857 90.983c-5.25-2.312-11.346.59-13.034 6.073l-2.445 7.948c-.419 1.362-1.592 2.043-2.765 2.043-1.174 0-2.347-.68-2.766-2.043l-2.446-7.948c-1.686-5.482-7.784-8.385-13.033-6.073-12.707 5.596-20.466 17.363-20.466 32.686 0 21.707 15.557 36.291 38.71 36.291 23.154 0 38.71-14.584 38.71-36.29 0-15.324-7.757-27.09-20.465-32.687zm0 0" fill="#e6646e"/><path d="M102.42 138.336c-.62 0-1.24-.236-1.712-.708l-2.42-2.42a2.418 2.418 0 113.423-3.42l2.419 2.42a2.42 2.42 0 01-1.71 4.128zm2.116-13.456a2.419 2.419 0 01-1.71-4.13l2.419-2.42a2.42 2.42 0 013.42 3.422l-2.419 2.42a2.414 2.414 0 01-1.71.707zm0 0" fill="#dc4655"/><path d="M113.306 134.355a2.41 2.41 0 01-1.711-.71l-2.42-2.418a2.42 2.42 0 013.423-3.422l2.419 2.42a2.419 2.419 0 01-1.71 4.13zm1.21-19.153a2.42 2.42 0 01-2.42-2.42v-2.418a2.42 2.42 0 114.839 0v2.419a2.418 2.418 0 01-2.42 2.42zm0 0" fill="#ff8087"/><path d="M104.082 111.573a2.41 2.41 0 01-1.71-.709l-2.419-2.42a2.417 2.417 0 010-3.42 2.417 2.417 0 013.42 0l2.42 2.42a2.418 2.418 0 01-1.711 4.13zm0 0" fill="#dc4655"/><path d="M137.3 129.114h-2.42a2.419 2.419 0 110-4.84h2.42a2.42 2.42 0 110 4.84zm0 0" fill="#ff9ba0"/><path d="M122.18 123.717a2.419 2.419 0 01-1.71-4.13l1.71-1.71a2.417 2.417 0 013.421 0 2.417 2.417 0 010 3.42l-1.71 1.711a2.409 2.409 0 01-1.71.709zm-8.874 25.356a2.42 2.42 0 01-1.71-4.13l2.42-2.42a2.418 2.418 0 113.42 3.42l-2.42 2.42a2.413 2.413 0 01-1.71.71zm10.686-11.29a2.418 2.418 0 01-2.419-2.42v-2.419a2.42 2.42 0 014.839 0v2.42a2.418 2.418 0 01-2.42 2.419zm11.391 4.486a2.41 2.41 0 01-1.711-.71l-2.42-2.42a2.419 2.419 0 113.422-3.42l2.42 2.42a2.417 2.417 0 01-1.711 4.13zm2.923-23.035a2.41 2.41 0 01-1.711-.71l-1.711-1.71a2.419 2.419 0 113.422-3.422l1.71 1.712a2.42 2.42 0 01-1.71 4.13zm0 0" fill="#dc4655"/><path d="M143.548 111.573a2.418 2.418 0 01-2.42-2.419v-2.42a2.42 2.42 0 014.84 0v2.42a2.418 2.418 0 01-2.42 2.42zm0 0" fill="#ff9ba0"/><path d="M149.343 122.36a2.42 2.42 0 01-1.71-4.13l2.42-2.42a2.42 2.42 0 013.42 3.422l-2.419 2.42a2.41 2.41 0 01-1.71.707zm0 0" fill="#dc4655"/><path d="M146.875 144.234a2.413 2.413 0 01-1.711-.709l-2.42-2.42a2.417 2.417 0 010-3.42 2.418 2.418 0 013.422 0l2.42 2.42a2.42 2.42 0 01-1.711 4.129zm3.931-10.887a2.42 2.42 0 01-2.42-2.42v-2.419a2.42 2.42 0 014.84 0v2.42a2.418 2.418 0 01-2.42 2.419zm0 0" fill="#ff8087"/><path d="M133.871 152.702h-2.42a2.418 2.418 0 110-4.838h2.42a2.419 2.419 0 110 4.838zm0 0" fill="#dc4655"/><path d="M133.871 152.318c-23.153 0-38.71-14.585-38.71-36.29 0-8.058 2.17-15.147 6.051-20.856-8.389 6.373-13.309 16.32-13.309 28.497 0 21.707 15.556 36.291 38.71 36.291 14.55 0 26.103-5.766 32.677-15.434-6.56 4.984-15.263 7.792-25.419 7.792zm0 0" fill="#dc4655"/></svg>