<svg width="200" height="200" xmlns="http://www.w3.org/2000/svg"><path d="M140.08 144.49c-5.99 20.67-38.744 20.67-38.744 20.67s-32.751 0-38.742-20.67c-4.846-16.708 5.939-37.096 10.246-53.914 1.024-3.987 1.68-7.771 1.68-11.258l26.816-44.826 26.818 44.826c0 3.487.656 7.271 1.68 11.258 4.308 16.818 15.093 37.206 10.246 53.914z" fill="#e6e6e6"/><path d="M101.336 89.1c10.116 0 19.749.774 28.498 1.476-1.024-3.987-1.68-7.771-1.68-11.258l-26.818-44.826-.003.006.002-.006-26.816 44.827c0 18.207-17.919 44.506-11.926 65.173 5.99 20.669 38.742 20.669 38.742 20.669s-14.639 0-17.318-20.67c-1.71-13.182.93-28.655 3.065-42.858 1.08-7.19 7.07-12.53 14.125-12.534h.129zm23.58 58.38c-2.047 0-3.066-2.677-1.56-4.111 1.522-1.451 4.044-.153 3.848 1.972-.11 1.2-1.122 2.14-2.288 2.14zm-1.052-8.479c-2.042 0-3.066-2.68-1.56-4.111a2.27 2.27 0 012.644-.35c.866.473 1.348 1.502 1.182 2.497-.187 1.122-1.163 1.964-2.266 1.964zm7.018 2.757c-2.058 0-3.065-2.712-1.543-4.129a2.27 2.27 0 012.745-.265c.779.49 1.203 1.442 1.072 2.37-.161 1.148-1.152 2.024-2.274 2.024z" fill="#ccc"/><path d="M172.596 86.143c0-28.472-32.466-51.553-72.516-51.553-40.05 0-72.516 23.081-72.516 51.553 0 28.472 32.466 16.32 72.516 16.32 40.05 0 72.516 12.152 72.516-16.32z" fill="#ad7136"/><path d="M67.768 86.143c0 10.653 2.024 15.62 5.496 17.662-26.775 2.134-45.7 4.074-45.7-17.662 0-28.471 32.465-51.552 72.516-51.552-17.846 0-32.312 23.08-32.312 51.552z" fill="#8c531f"/></svg>