<?xml version="1.0" encoding="iso-8859-1"?>
<!-- Generator: Adobe Illustrator 19.0.0, SVG Export Plug-In . SVG Version: 6.00 Build 0)  -->
<svg version="1.1" id="Capa_1" xmlns="http://www.w3.org/2000/svg" xmlns:xlink="http://www.w3.org/1999/xlink" x="0px" y="0px"
	 viewBox="0 0 512 512" style="enable-background:new 0 0 512 512;" xml:space="preserve">
<path style="fill:#ECB53A;" d="M0,363.947c0,32.433,9.181,42.277,43.832,42.277c1.083,0,2.203-0.038,3.345-0.097
	c0.32-0.018,0.637-0.038,0.954-0.06c0.554-0.037,1.121-0.088,1.687-0.136c39.243-3.754,62.88-44.461,86.065-94.763
	c10.525-22.833,20.961-47.64,32.718-71.861v-0.002C39.991,239.305,0,330.284,0,363.947z"/>
<path style="fill:#F6E27B;" d="M334.777,105.776c-187.182,0-177.044,289.831-284.959,300.155
	c39.598-3.368,110.027-37.182,154.082-37.182c72.031,0,94.037,20.962,158.193,20.962c64.153,0,149.907-31.126,149.907-136.569
	C512,168.522,426.214,105.776,334.777,105.776z"/>
<g>
	<path style="fill:#ECB53A;" d="M303.359,295.149c-3.949,0-7.819-1.6-10.609-4.39s-4.391-6.66-4.391-10.61
		c0-3.949,1.601-7.819,4.391-10.609c2.79-2.79,6.66-4.391,10.609-4.391c3.95,0,7.81,1.601,10.601,4.391
		c2.8,2.8,4.399,6.66,4.399,10.609c0,3.95-1.6,7.82-4.399,10.61C311.17,293.55,307.31,295.149,303.359,295.149z"/>
	<path style="fill:#ECB53A;" d="M374.04,238.55c-3.94,0-7.81-1.6-10.61-4.39c-2.79-2.79-4.39-6.66-4.39-10.61s1.6-7.81,4.39-10.61
		c2.8-2.79,6.66-4.39,10.61-4.39c3.95,0,7.819,1.6,10.609,4.39c2.79,2.801,4.391,6.67,4.391,10.61c0,3.95-1.6,7.81-4.391,10.61
		C381.849,236.95,377.99,238.55,374.04,238.55z"/>
</g>
<g>
</g>
<g>
</g>
<g>
</g>
<g>
</g>
<g>
</g>
<g>
</g>
<g>
</g>
<g>
</g>
<g>
</g>
<g>
</g>
<g>
</g>
<g>
</g>
<g>
</g>
<g>
</g>
<g>
</g>
</svg>
