<svg height="512pt" viewBox="-37 0 512 512" width="512pt" xmlns="http://www.w3.org/2000/svg"><g fill="#e5646e"><path d="M229.48 296.925c-.908 0-1.83-.213-2.69-.652-2.876-1.479-3.998-4.983-2.51-7.833l8.46-16.21a5.872 5.872 0 015.206-3.138h37.972c3.237 0 5.86 2.602 5.86 5.812s-2.623 5.812-5.86 5.812H241.51l-6.82 13.067a5.87 5.87 0 01-5.21 3.142zm-14.113-21.983c-.889 0-1.79-.2-2.638-.625-2.889-1.449-4.046-4.945-2.585-7.81l6.455-12.665a5.86 5.86 0 014.917-3.183l34.213-1.815c3.198-.171 5.99 2.287 6.163 5.49.173 3.207-2.308 5.945-5.539 6.116l-30.824 1.638-4.926 9.665c-1.032 2.024-3.097 3.19-5.236 3.19zm0 0"/><path d="M201.963 260.46a5.945 5.945 0 01-1.594-.219c-3.115-.873-4.926-4.083-4.049-7.172l4.471-15.713a5.848 5.848 0 015.36-4.228l30.257-1.43c3.26-.14 5.979 2.321 6.134 5.528.151 3.204-2.341 5.927-5.575 6.08l-26.044 1.234-3.326 11.686c-.725 2.56-3.075 4.233-5.634 4.233zm108.311 83.456a5.86 5.86 0 01-2.14-.404l-19.029-7.399-4.167 2.646c-2.725 1.73-6.348.941-8.095-1.764-1.743-2.702-.948-6.296 1.78-8.028l6.68-4.24a5.89 5.89 0 015.296-.512l21.813 8.479c3.014 1.17 4.498 4.543 3.317 7.532-.904 2.289-3.117 3.69-5.455 3.69zm0 0"/><path d="M309.964 359.992a5.914 5.914 0 01-2.38-.501l-15.272-6.736-5.783 2.753c-2.918 1.387-6.42.168-7.817-2.726-1.399-2.894-.167-6.367 2.748-7.753l8.225-3.912a5.895 5.895 0 014.915-.071l17.747 7.824c2.957 1.304 4.29 4.738 2.975 7.67-.973 2.166-3.115 3.452-5.358 3.452zm-5.976 17.708a5.894 5.894 0 01-2.48-.549l-12.76-5.927-4.694 1.96c-2.98 1.244-6.416-.14-7.672-3.099-1.258-2.959.14-6.366 3.124-7.611l7.092-2.965a5.909 5.909 0 014.762.094l15.118 7.022c2.93 1.36 4.194 4.82 2.823 7.726a5.871 5.871 0 01-5.313 3.349zm-53.81 46.095c-3.439-8.134-10.9-13.896-19.696-15.209-14.576-2.177-41.355-10.568-81.808-39.557-32.645-23.393-35.016 81.563 106.24 65.974zm0 0"/><path d="M147.207 411.882c17.825 16.359 51.323 29.343 107.704 23.12 2.787 6.595-1.63 13.985-8.803 14.714-23.31 2.363-70.153 4.29-101.554-13.126-17.56-9.739-13.285-19.22 2.653-24.708zm0 0"/></g><path d="M255.431 441.642a10.472 10.472 0 00-.521-6.639c-56.379 6.223-89.878-6.762-107.703-23.121-2.463.847-4.644 1.791-6.512 2.815 19.984 17.658 55.967 31.606 114.736 26.945zm0 0" fill="#e04955"/><path d="M294.597 388.732c15.751-19.236 17.271-46.326 3.772-67.178l-28.76-44.428a11.842 11.842 0 01-.223-12.532l11.74-19.621 33.645-56.225c3.798-6.346 12.47-7.819 18.123-3.015 32.324 27.463 52.804 68.239 52.804 113.761 0 73.842-53.893 135.19-124.794 147.494-3.342.581-6.639-1.251-7.951-4.351l-9.569-22.653c-2.027-4.791 1.54-10.008 6.779-10.048 16.899-.142 33.319-7.631 44.434-21.204zm0 0" fill="#ef9aa0"/><path d="M332.894 185.733c-5.653-4.804-14.325-3.331-18.123 3.018l-5.5 9.187c28.162 27.205 45.662 65.207 45.662 107.275 0 64.666-41.334 119.751-99.225 140.703a7.242 7.242 0 005.194 1.072c70.903-12.3 124.796-73.652 124.796-147.494 0-45.522-20.484-86.298-52.804-113.761zm0 0" fill="#ea7f87"/><path d="M281.126 244.973l-8.073 13.49c-3.863 6.458-12.711 7.812-18.357 2.808l-125.87-111.526h105.88c28.076 0 54.36 7.603 76.879 20.844 5.735 3.369 7.654 10.694 4.251 16.38l-1.065 1.782zm0 0" fill="#e5646e"/><path d="M311.585 170.589c-22.519-13.241-48.803-20.844-76.879-20.844h-105.88l23.052 20.422h72.666c28.079 0 54.363 7.603 76.882 20.843a11.953 11.953 0 015.921 10.147l7.422-12.406v-.003l1.067-1.782c3.403-5.683 1.484-13.008-4.251-16.377zm0 0" fill="#e04955"/><path d="M270.067 155.461c0 8.121-6.64 14.706-14.832 14.706-8.191 0-14.83-6.585-14.83-14.706 0-8.126 6.639-14.711 14.83-14.711 8.192 0 14.832 6.585 14.832 14.711zm0 0" fill="#ffb454"/><path d="M132.64 160.564c-5.43 0-12.592-.632-20.714-2.929-16.03-4.533-39.185-16.693-58.446-48.891-1.652-2.76-.736-6.324 2.049-7.961 2.781-1.637 6.378-.729 8.028 2.032 22.519 37.639 50.244 45.084 65.569 46.016-6.954-8.577-15.417-22.322-15.81-38.743-.375-15.799 6.723-30.595 21.106-43.98 2.362-2.195 6.068-2.077 8.281.263a5.775 5.775 0 01-.264 8.213c-11.822 11.005-17.679 22.833-17.409 35.159.488 22.241 20.586 39.621 20.787 39.796a5.784 5.784 0 011.875 5.803 5.836 5.836 0 01-4.37 4.275c-.298.067-4.283.947-10.682.947zm0 0" fill="#ef9aa0"/><path d="M295.203 314.213a76.9 76.9 0 01-5.937-.23c-3.228-.247-5.641-3.041-5.39-6.242.249-3.198 3.061-5.585 6.294-5.346 53.801 4.125 79.503-58.917 79.756-59.554 1.19-2.986 4.59-4.45 7.6-3.272 3.011 1.177 4.489 4.552 3.302 7.538-.291.728-7.264 18.026-21.805 34.937-18.172 21.133-40.132 32.169-63.82 32.169zm23.07 86.234c-9.202 0-18.595-1.767-26.759-6.774-2.751-1.688-3.605-5.269-1.9-7.998 1.702-2.732 5.313-3.572 8.064-1.885 21.647 13.276 58.011-3.75 58.377-3.923 2.916-1.388 6.416-.169 7.817 2.72 1.401 2.891.175 6.36-2.737 7.753-1.201.574-21.495 10.107-42.862 10.107zm0 0" fill="#e5646e"/></svg>