<?xml version="1.0" encoding="iso-8859-1"?>
<!-- Generator: Adobe Illustrator 19.0.0, SVG Export Plug-In . SVG Version: 6.00 Build 0)  -->
<svg version="1.1" id="Capa_1" xmlns="http://www.w3.org/2000/svg" xmlns:xlink="http://www.w3.org/1999/xlink" x="0px" y="0px"
	 viewBox="0 0 511.999 511.999" style="enable-background:new 0 0 511.999 511.999;" xml:space="preserve">
<path style="fill:#8D663D;" d="M202.379,105.844c-71.312,10.914-130.421,59.68-155.401,126.026
	c-1.101,2.924-2.117,5.418-5.423,11.834c-3.433,6.663-1.714,15.35,5.013,19.938c22.057,15.042,64.444,26.853,93.321,32.487
	c36.713,7.163,76.938,10.452,116.607,10.385l80.94-66.061L202.379,105.844z"/>
<path style="fill:#674230;" d="M472.999,250.295c-0.387-2.292-0.784-4.581-0.973-6.898c-2.513-30.803-20.162-58.721-47.646-73.503
	c-16.699-8.982-38.242-15.675-65.363-15.675c-41.344,0-75.203-13.735-86.689-40.382c-6.152-14.273-1.198-30.318,10.27-37.785
	c5.007-3.259,4.155-10.875-1.486-12.845c-25.397-8.875-54.763,0.36-69.854,24.452c-3.437,5.488-6.432,11.583-8.881,18.187
	c-15.849,42.746-8.545,106.992,53.62,168.567c10.582,6.936,11.728,22.012,2.316,30.468l-1.818,1.634
	c86.212-0.148,169.788-16.171,208.934-42.871C471.41,259.563,473.798,255.031,472.999,250.295z"/>
<path style="fill:#C2D5BF;" d="M31.487,246.068c-20.845,0-35.993,19.507-30.266,39.116c14.039,48.064,53.44,89.357,107.587,116.239
	l-0.008,0.008h0.022l54.055,30.905l64-186.269C155.354,246.068,35.127,246.068,31.487,246.068z"/>
<path style="fill:#A6C1AD;" d="M480.542,246.068c-8.815,0-188.277,0-317.667,0v186.269l240.332-30.905h0.022
	c54.082-26.851,93.443-68.083,107.527-116.072C516.531,265.685,501.465,246.068,480.542,246.068z"/>
<path style="fill:#8BAD9C;" d="M108.821,401.433c0,28.531,24.192,50.673,52.622,50.673c8.311,0,180.849,0,189.143,0
	c28.426,0,52.621-22.139,52.621-50.673H108.821z"/>
<path style="fill:#B69362;" d="M40.581,246.068c0,12.705,6.181,36.056,6.181,36.056c1.912,5.468,4.247,10.835,6.987,16.082
	c21.733,41.617,65.362,67.17,112.312,67.17h179.906c46.953,0,90.588-25.554,112.315-67.177c2.738-5.245,5.072-10.609,6.983-16.075
	c0,0,7.061-23.35,7.061-36.056L40.581,246.068L40.581,246.068z"/>
<path style="fill:#A57D48;" d="M231.227,246.068c7.053,9.453,15.268,18.929,24.773,28.343c13.766,9.023,7.826,29.894-8,31.541
	l-17.324,1.804c-26.729,3.549-64.615,15.932-64.615,57.62h179.906c46.961,0,90.6-25.563,112.326-67.197
	c9.952-19.071,14.033-43.8,14.033-52.112C468.924,246.068,235.947,246.068,231.227,246.068z"/>
<g>
</g>
<g>
</g>
<g>
</g>
<g>
</g>
<g>
</g>
<g>
</g>
<g>
</g>
<g>
</g>
<g>
</g>
<g>
</g>
<g>
</g>
<g>
</g>
<g>
</g>
<g>
</g>
<g>
</g>
</svg>
