<svg width="200" height="200" xmlns="http://www.w3.org/2000/svg"><path d="M136.545 82.84a1.82 1.82 0 01-.712-.701c-.547-.959-.248-2.27.672-2.932l13.432-9.672c.918-.663 2.11-.43 2.659.532.55.957.25 2.271-.672 2.932l-13.43 9.673c-.62.447-1.362.484-1.95.168zm0 0" fill="#b3e59f"/><path d="M129.788 79.204c-.671-.36-1.08-1.153-.97-2.04l4.159-33.973c.143-1.16 1.12-2.041 2.182-1.965 1.052.073 1.808 1.08 1.663 2.242l-4.16 33.973c-.142 1.162-1.119 2.04-2.18 1.965a1.716 1.716 0 01-.694-.202zm0 0" fill="#95d6a4"/><path d="M153.188 41.08l6.5 3.498c1.03.554 1.303 2.003.584 3.071l-23.721 35.175-5.07-2.728zm0 0" fill="#ccf49f"/><path d="M153.188 41.081l-6.501-3.497c-1.029-.554-2.332.046-2.76 1.27l-14.134 40.334 5.068 2.728zM89.58 70.045a1.77 1.77 0 01-.85-.51c-.747-.8-.75-2.147-.002-3.014l10.898-12.636c.744-.866 1.956-.925 2.706-.12.748.797.752 2.146.003 3.012L91.437 69.414c-.503.583-1.215.798-1.857.631zm0 0" fill="#b3e59f"/><path d="M82.192 68.134c-.733-.19-1.308-.863-1.401-1.752l-3.563-34.047c-.122-1.163.633-2.254 1.682-2.435 1.04-.183 2.001.615 2.12 1.78l3.563 34.048c.123 1.163-.632 2.253-1.682 2.435-.246.043-.492.03-.72-.03zm0 0" fill="#95d6a4"/><path d="M96.415 25.435l7.106 1.84c1.125.291 1.716 1.635 1.256 2.847L89.581 70.039l-5.541-1.434zm0 0" fill="#ccf49f"/><path d="M96.415 25.435l-7.107-1.84c-1.124-.29-2.257.607-2.4 1.902l-4.715 42.63 5.541 1.434zm0 0" fill="#b3e59f"/><path d="M86.381 67.068c-18.363-4.754-34.77 5.832-38.923 23.05-3.721 15.43 4.692 29.15 18.447 37.43l.047.03c2.044 1.252 2.898 4.032 2.277 6.608l-4.752 19.702c-.276 1.147.327 2.29 1.348 2.555 1.02.264 2.07-.452 2.347-1.599l4.752-19.702c.622-2.575 2.64-4.612 5.012-4.721l.053-.003c15.898-.604 29.552-8.613 33.275-24.043 4.152-17.217-5.52-34.553-23.883-39.307zm0 0" fill="#e5646e"/><path d="M77.691 127.476c.614-2.54-.366-5.156-2.386-6.38-13.755-8.28-22.168-22.002-18.447-37.432 1.453-6.025 4.414-11.243 8.425-15.269-8.761 3.786-15.389 11.592-17.819 21.67-3.722 15.43 4.692 29.15 18.447 37.43 2.02 1.226 2.999 3.842 2.386 6.382l-4.813 19.957c-.278 1.147.326 2.292 1.346 2.557 1.02.264 2.072-.454 2.348-1.601l4.752-19.7c.61-2.528 2.639-4.64 5.064-4.726zm0 0" fill="#db4655"/><path d="M69.844 135.6c1.02.265 1.623 1.408 1.346 2.556l-4.01 16.628c-.278 1.148-1.328 1.865-2.348 1.6-1.022-.264-1.624-1.408-1.347-2.557l4.01-16.627c.277-1.148 1.329-1.864 2.35-1.6zm0 0" fill="#ff8086"/><path d="M100.69 97.212l-11.082-2.869c-1.02-.264-1.623-1.406-1.345-2.556.277-1.149 1.327-1.866 2.348-1.601l11.082 2.869c1.022.264 1.624 1.408 1.346 2.557-.277 1.15-1.327 1.864-2.349 1.6zm0 0" fill="#db4655"/><path d="M64.832 156.385c-1.022-.264-1.624-1.41-1.348-2.557l.502-2.078c.277-1.149 1.329-1.865 2.35-1.6 1.02.263 1.622 1.408 1.344 2.557l-.5 2.078c-.278 1.147-1.328 1.864-2.348 1.6zm0 0" fill="#ff9a9f"/><path d="M57.388 105.88c.276-1.147-.326-2.292-1.348-2.557l-9.239-2.391c.195 1.591.516 3.143.96 4.664l7.277 1.884c1.021.264 2.073-.45 2.35-1.6zm0 0" fill="#bd4150"/><path d="M134.073 79.31c-16.799-9.039-35.128-2.686-43.023 13.064-7.076 14.113-1.965 29.483 9.56 40.844l.039.039c1.708 1.71 1.916 4.62.735 6.976l-9.036 18.021c-.526 1.05-.195 2.307.738 2.81.934.501 2.116.058 2.642-.991l9.035-18.022c1.181-2.356 3.601-3.852 5.933-3.388.017.002.036.007.052.01 15.6 3.233 30.676-1.274 37.752-15.388 7.895-15.75 2.37-34.937-14.427-43.975zm0 0" fill="#e5646e"/><path d="M112.115 135.862c1.165-2.323.799-5.104-.892-6.78-11.525-11.36-16.635-26.73-9.56-40.844 2.764-5.511 6.812-9.875 11.616-12.827-9.37 1.576-17.565 7.575-22.187 16.794-7.076 14.114-1.966 29.484 9.56 40.845 1.69 1.676 2.055 4.457.891 6.78l-9.151 18.255c-.527 1.05-.197 2.308.737 2.81.933.503 2.115.058 2.642-.992l9.034-18.02c1.16-2.312 3.606-3.88 5.986-3.378zm0 0" fill="#db4655"/><path d="M102.665 141.861c.933.503 1.263 1.76.737 2.81l-7.625 15.21c-.527 1.05-1.71 1.494-2.643.992-.933-.502-1.264-1.76-.737-2.81l7.625-15.21c.526-1.05 1.71-1.494 2.643-.992zm0 0" fill="#ff8086"/><path d="M141.268 111.935l-10.137-5.454c-.934-.503-1.263-1.759-.736-2.81.527-1.05 1.709-1.495 2.642-.993l10.138 5.455c.934.502 1.263 1.76.736 2.811-.526 1.051-1.708 1.494-2.643.991zm0 0" fill="#db4655"/><path d="M93.134 160.874c-.934-.502-1.264-1.76-.737-2.81l.953-1.9c.527-1.052 1.71-1.496 2.644-.994.933.503 1.263 1.76.736 2.812l-.953 1.9c-.527 1.05-1.71 1.494-2.643.992zm0 0" fill="#ff9a9f"/><path d="M97.204 109.97c.526-1.05.196-2.309-.738-2.811l-8.452-4.548a29.623 29.623 0 00-.11 4.768l6.656 3.581c.934.503 2.117.06 2.644-.99zm0 0" fill="#bd4150"/></svg>