<svg width="200" height="200" xmlns="http://www.w3.org/2000/svg"><path d="M145.753 67.349c-.702 3.683-2.919 7.751-5.415 12.505-4.2 7.984-9.2 17.904-9.2 31.183 0 27.25-5.562 48.508-14.65 60.464-5.291 6.962-11.778 10.77-19.06 10.77-19.788 0-33.712-28.117-33.712-71.234 0-27.843-21.985-40.916-12.459-52.355 1.71-2.056 3.622-2.961 5.607-3.063 3.588-.185 6.357-3.727 6.251-8.038-.127-5.04 1.029-10.513 5.733-13.538 3.481-2.24 6.242-2.455 8.376-1.756 3.225 1.05 6.565-.885 7.822-4.601 1.828-5.416 5.402-10.849 12.381-10.849 6.981 0 10.556 5.433 12.383 10.849 1.254 3.716 4.594 5.651 7.82 4.601 2.134-.699 4.898-.483 8.379 1.756 4.7 3.025 5.86 8.497 5.733 13.538a9.71 9.71 0 00.031 1.043c.321 3.83 2.924 6.824 6.22 6.995 1.983.102 3.894 1.007 5.603 3.063 2.278 2.735 2.756 5.564 2.157 8.667z" fill="#702d8c"/><path d="M104.648 90.53l-26.64 41.626-13.746-6.773a183.09 183.09 0 01-.546-14.346c0-27.843-21.985-40.916-12.456-52.355 1.71-2.056 3.618-2.96 5.604-3.061 3.588-.186 6.36-3.728 6.25-8.039-.126-5.04 1.03-10.514 5.733-13.539 3.481-2.238 6.245-2.455 8.377-1.759-11.042 0-13.874 47.517-5.078 47.517 8.792 0 17.588-10.562 27.48-10.562 0 3.347 2.35 11.112 5.022 21.29z" fill="#4d1d61"/><path d="M97.427 182.271c-2.424 0-4.72-.324-6.892-.925a25.896 25.896 0 01-4.29-1.614c-2.916-1.398-5.576-3.325-7.983-5.645-12.825-12.337-18.575-35.764-18.575-49.849 0-19.801-12.093-28.161-3.663-34.319 2.856-2.087 5.418-1.75 7.558-.388.64.407 1.304.739 1.979.999 3.888 1.486 8.207.523 11.62-2.387 2.61-2.229 5.72-2.907 8.89.894 2.423 2.91 3.306 5.923 3.356 8.708.079 4.463 2.393 8.35 5.742 10.286 2.198 1.27 4.091 4.181 4.825 10.045 2.197 17.6-18.89 44.596-2.567 64.195z" fill="#4d1d61"/><path d="M97.427 182.271c-16.322-19.598 4.767-46.594 2.568-64.194-.735-5.865-2.626-8.775-4.825-10.045-3.349-1.938-5.663-5.824-5.742-10.287-.05-2.785-.933-5.796-3.357-8.707 3.663-9.68 12.709-9.69 16.955-4.591 6.754 25.071 19.193 71.788-5.599 97.824z" fill="#702d8c"/><path d="M99.953 182.038c-1.918-.452-3.36 1.448-13.672-1.89-12.95-12.296-16.74-37.949-16.74-52.102 0-16.743-13.131-31.485-10.7-39.696 3.89 1.486 14.724-.704 18.138-3.614 2.61-2.229 5.72-2.906 8.888.895 2.424 2.91 4.963 5.656 5.014 8.442.078 4.463.736 8.614 4.085 10.553 2.199 1.269 5.66 4.822 7.266 10.5 5.274 18.657-15.806 48.272-2.279 66.912z" fill="#f3d6ff"/><path d="M97.426 182.271a25.72 25.72 0 01-6.891-.925c-12.95-12.295-19.556-35.898-18.758-50.028.947-16.743-10.43-32.453-10.185-40.664 3.889 1.486 12.176.4 15.59-2.511 2.61-2.229 5.72-2.906 8.888.894 2.424 2.91 3.307 5.923 3.357 8.708.079 4.463 2.393 8.35 5.742 10.287 2.198 1.27 4.091 4.18 4.825 10.044 2.196 17.6-18.89 44.597-2.568 64.195z" fill="#702d8c"/><path d="M144.305 68.415c-1.739 3.173-3.84 7.11-5.462 12.802-4.238 8.175-9.282 18.331-9.282 31.926 0 27.898-5.611 49.665-14.778 61.905-5.426 4.598-12.12 7.312-20.337 7.312 32.159-34.277 2.217-103.563 2.217-115.726 0-7.197 4.664-9.188 8.467-9.616 2.774-.31 5.316-2.087 6.908-4.873 4.595-8.044 11.98-5.774 15.994-3.689.7.362 7.402 5.13 8.143 5.289.324 3.92-3.023 2.485.3 2.661 2.002.104 3.93 1.03 5.654 3.135 2.298 2.8 2.78 5.696 2.176 8.874z" fill="#f3d6ff"/><path d="M138.833 104.437c0 12.876-1.195 27.373-4.569 40.335-1.661 6.39-3.852 12.41-6.691 17.674-6.361 11.8-15.969 19.825-30.146 19.825 31.88-33.478 2.2-101.15 2.2-113.032 0-7.03 4.621-8.974 8.392-9.393 2.75-.303 5.27-2.038 6.847-4.76 4.555-7.856 11.876-5.638 15.855-3.602 1.786.912 3.755 1.185 5.658.726 3.627-.878 9.785-1.073 12.898 6.25 4.58 10.78-10.444 12.538-10.444 45.977z" fill="#702d8c"/><path d="M91.33 181.683c-2.907-.742-5.46-4.945-7.866-7.265-5.032-13.143-5.507-31.081-5.871-45.02-.206-7.783-.4-15.13-1.435-17.862-.48-1.272-.011-2.774 1.049-3.351 1.06-.58 2.308-.018 2.793 1.256 1.38 3.653 1.568 10.776 1.807 19.793.439 16.743.924 41.159 9.522 52.449zm42.934-36.911c-1.661 6.39-3.852 12.41-6.691 17.674 6.388-25.227-.431-58.479-4.514-78.399-.194-.951-.385-1.876-.565-2.768-.275-1.357.416-2.728 1.55-3.059 1.13-.33 2.272.5 2.547 1.857.18.888.37 1.81.565 2.759 3.228 15.756 8.126 39.646 7.108 61.936z" fill="#f3d6ff"/></svg>