<svg width="200" height="200" xmlns="http://www.w3.org/2000/svg"><path d="M145.457 147.539c19.036-19.22 24.614-49.629 12.447-74.037-1.081-2.166-1.519-4.664-.862-7.006.462-1.645 1.307-3.319 2.854-4.123 0 0-4.613-8.767-14.439 2.505 0 0-18.249 14.821 0 40.078 0 0 9.174 8.845 2.406 32.564l-2.406 10.019z" fill="#942a9b"/><path d="M145.457 147.539l2.406-10.019c6.768-23.719-2.406-32.564-2.406-32.564-18.249-25.257 0-40.078 0-40.078 1.523-1.748 2.907-2.968 4.182-3.86-11.024-12.988-27.134-21.189-45.094-21.189-3.581 0-7.085.346-10.493.97-5.983.501-15.253 3.862-14.622 4.749-6.618 3.169-12.591 7.542-17.65 12.862a63.11 63.11 0 00-7.383 8.342c.221.032.445.065.662.092-19.352-2.975-22.242 5.266-22.661 7.583-.062.34-.067.689-.026 1.034.642 5.566 4.322 8.562 6.712 9.942 1.217.704 1.788 2.169 1.504 3.592-11.59 57.993 55.909 100.824 99.733 64.08.279-.235.491-.514.672-.809 1.432-1.137 4.683-4.947 4.464-4.727z" fill="#f7d0fa"/><path d="M139.446 153.57c16.387-12.205 21.989-44.86 9.604-69.173-1.099-2.157-1.562-4.65-.926-6.997.446-1.65 1.276-3.331 2.816-4.15 0 0-4.694-8.724-14.416 2.638 0 0-18.112 14.988.368 40.076 0 0 9.255 8.76 2.705 32.541l-.15 5.066z" fill="#f785ff"/><path d="M52.706 67.208c.089.016.166.032.253.056 1.648.426 18.182 5.313 23.786 31.072 0 0 1.16 11.224 12.166 13.752.476.109.962-.022 1.449-.053 7.075-.481 22.667-5.393 22.52 14.513 0 0-5.403 26.855 21.927 25.744a2.954 2.954 0 011.74.476c.04.026 4.406-.578 4.444-.55 13.516-40.973-20.597-44.731-20.597-44.731s-34.294-1.661-28.879-39.87c5.414-38.208-9.627-34.553-9.627-34.553-6.016 0-5.896 12.675-5.896 12.675-9.891 4.437-18.523 11.869-24.997 21.209.57.09 1.11.152 1.711.26z" fill="#c64ccf"/><path d="M140.321 153.075c-43.824 36.744-111.323-6.087-99.731-64.077.284-1.423-.284-2.889-1.504-3.592-2.39-1.381-6.069-4.376-6.712-9.942a3.52 3.52 0 01.027-1.035c.426-2.359 3.376-10.894 23.709-7.434.089.015.166.03.253.05 1.648.401 18.182 5.007 23.786 29.282 0 0 1.16 10.578 12.166 12.96.476.103.962-.02 1.449-.05 7.075-.453 22.667-5.082 22.52 13.677 0 0-5.403 25.309 21.927 24.262a3.09 3.09 0 011.74.448c1.908 1.183 2.098 4.001.37 5.451z" fill="#942a9b"/></svg>