<svg height="511pt" viewBox="0 -23 511.999 511" width="511pt" xmlns="http://www.w3.org/2000/svg"><path d="M263.796 190.733c-5.925-9.616-12.403-17.96-18.403-24.397-43.11-46.295-30.812-85.349-77.21-95.837C77.763 50.057 36.943 180.55 52.135 243.662c15.196 63.11 59.115 137.653 147.588 124.264 12.42-1.881 44.38-18.236 54.221-34.973l17.103-40.437c14.029-33.163 11.709-71.018-7.251-101.783zm0 0" fill="#cd487d"/><path d="M127.662 171.848a6.639 6.639 0 01-4.638-1.869l-6.558-6.375a6.247 6.247 0 010-9.016c2.562-2.494 6.713-2.494 9.276 0l6.558 6.374a6.248 6.248 0 010 9.017 6.639 6.639 0 01-4.638 1.869zm6.562-44.633h-.065c-3.627 0-6.562-2.856-6.562-6.377 0-3.52 2.935-6.375 6.562-6.375 3.626 0 6.592 2.855 6.592 6.375 0 3.521-2.901 6.377-6.527 6.377zm19.678 76.511h-.062c-3.626 0-6.562-2.852-6.562-6.375 0-3.52 2.936-6.377 6.562-6.377 3.623 0 6.589 2.857 6.589 6.377 0 3.523-2.9 6.375-6.527 6.375zm-58.976-12.752h-.062c-3.627 0-6.561-2.855-6.561-6.375 0-3.521 2.934-6.376 6.561-6.376 3.624 0 6.59 2.855 6.59 6.376.003 3.52-2.901 6.375-6.528 6.375zm0 0" fill="#ff95c0"/><path d="M88.613 237.296c-16.278-32.21-20.556-88.287-5.42-131.91-29.29 39.272-40.098 100.713-31.058 138.276 15.196 63.11 59.115 137.653 147.588 124.264 12.42-1.881 44.38-18.236 54.221-34.973l2.109-4.989c-80.462 27.889-138.65-33.69-167.44-90.668zm0 0" fill="#a73764"/><path d="M337.583 211.696c-13.628 3.045-26.091 7.349-37.318 12.923-14.953 7.43-27.847 18.252-38.609 30.787-7.101 8.272-13.384 17.248-17.9 27.087-4.967 10.815-8.699 22.811-11.135 36-11.478 62.165 40.089 108.393 101.681 108.393 61.59 0 121.36-48.529 121.36-108.393 0-59.863-36.08-125.128-118.079-106.797zm0 0" fill="#cd487d"/><path d="M364.475 221.302c24.726 0 44.395 9.985 58.461 29.671 12.459 17.441 19.606 42.052 19.606 67.52 0 50.055-51.592 95.641-108.24 95.641-28.698 0-55.818-11.606-72.547-31.043-10.417-12.104-21.685-32.743-16.218-62.345 2.22-12.035 5.655-23.156 10.2-33.055 3.645-7.942 8.876-15.83 15.993-24.116 10.39-12.1 22.001-21.388 34.507-27.6 10.17-5.05 21.704-9.041 34.288-11.853 8.367-1.87 16.426-2.82 23.95-2.82" fill="#fff6d8"/><path d="M344.142 400.585c-28.697 0-55.818-11.605-72.546-31.042-10.417-12.104-21.685-32.744-16.219-62.346 2.221-12.034 5.653-23.154 10.201-33.053 1.389-3.034 3.177-6.224 5.047-9.266-6.48 7.748-11.46 15.344-14.888 22.813-4.545 9.899-7.98 21.023-10.2 33.055-5.467 29.602 5.804 50.244 16.218 62.348 16.729 19.437 43.849 31.04 72.547 31.04 39.911 0 77.254-22.53 95.872-53.405-20.318 23.71-52.245 39.856-86.032 39.856zm0 0" fill="#ffedb1"/></svg>