<svg height="200pt" viewBox="0 0 200 200" width="200pt" xmlns="http://www.w3.org/2000/svg"><path d="M158.083 140.533c-.18 1.59-13.904 4.281-19.83 7.101-7.005 3.334-15.329 5.82-26.483 5.82-6.85.046-19.757-3.541-26.37-5.392 0 0-13.19-2.1-18.287-6.64-1.544-1.376-3.346-3.092-3.933-4.916 7.287-4.73 18.714-13.558 20.446-22.287 2.241-11.295 20.628-14.563 27.924-14.016 12.533.94 17.303 1.674 27.62 13.908 2.252 2.671 19.413 28.732 18.913 26.422z" fill="#027037"/><path d="M75.483 59.67v9.487l14.102 80.166c.135.769.203 1.548.203 2.33 0 6.837-5.086 12.378-11.36 12.378H30.247c-6.273 0-11.36-5.541-11.36-12.377 0-.783.068-1.564.203-2.33l14.102-80.167V59.67zm0 0" fill="#b9d7ff"/><path d="M28.251 151.237a2.498 2.498 0 00-.035.417c0 1.22.911 2.212 2.03 2.212h48.182c1.12 0 2.031-.993 2.031-2.212 0-.14-.013-.28-.036-.418L70.461 94.61c-.28-1.596-1.561-2.751-3.053-2.751h-26.14c-1.492 0-2.773 1.155-3.055 2.751zm0 0" fill="#fff"/><path d="M80.423 151.236L70.461 94.61c-.28-1.596-1.561-2.751-3.053-2.751h-3.96l10.444 59.377c.025.137.038.277.038.418 0 1.22-.912 2.212-2.031 2.212h6.529c1.12 0 2.031-.993 2.031-2.212 0-.14-.013-.28-.036-.418zm0 0" fill="#d2d2d2"/><path d="M89.585 149.323L75.483 69.157V59.67H70.82v8.844c0 .429.037.856.11 1.275l13.992 79.534c.134.769.203 1.548.203 2.33 0 6.837-5.086 12.378-11.36 12.378h4.664c6.274 0 11.36-5.541 11.36-12.377 0-.783-.068-1.562-.203-2.33zm0 0" fill="#79b3ff"/><path d="M75.483 46.116l1.91-2.081c1.167-1.27 1.822-2.995 1.822-4.792v-2.614c0-10.012-11.138-18.297-24.877-18.297-13.74 0-24.878 8.285-24.878 18.297v2.614c0 1.797.656 3.522 1.822 4.792l1.91 2.081zm0 0" fill="#9da5a8"/><path d="M54.338 18.332c-.947 0-1.88.043-2.8.12 12.422 1.034 22.08 8.856 22.08 18.177v2.614c0 1.797-.656 3.522-1.822 4.792l-1.91 2.081h5.597l1.91-2.081c1.167-1.27 1.822-2.995 1.822-4.792v-2.614c0-10.012-11.138-18.297-24.877-18.297zm0 0" fill="#8d949b"/><path d="M33.192 46.116h42.291V59.67H33.192zm0 0" fill="#9da5a8"/><path d="M71.441 46.116v5.76c0 1.871-1.393 3.389-3.11 3.389H33.19v4.405h42.292V46.116zM56.67 18.414v10.083c0 1.403-1.044 2.54-2.332 2.54-1.287 0-2.332-1.137-2.332-2.54V18.414a33.564 33.564 0 014.664 0zm9.33 2.07v8.013c0 1.403-1.046 2.54-2.333 2.54-1.288 0-2.333-1.137-2.333-2.54v-9.423c1.632.352 3.194.826 4.665 1.41zm-18.66-1.41v9.423c0 1.403-1.045 2.54-2.332 2.54s-2.332-1.137-2.332-2.54v-8.013a29.6 29.6 0 014.664-1.41zm0 0" fill="#8d949b"/><path d="M158.034 140.675a.365.365 0 00.05-.142c.024.113.006.158-.05.142zm-18.865-26.564c2.143 2.54 17.772 26.24 18.865 26.564-.394.685-3.008 1.554-6.323 2.539-1.335-2.754-3.796-5.174-4.981-7.638-1.1-2.285-2.205-4.41-3.661-6.53-1.048-1.527-2.594-2.756-3.509-4.374-.446-.79-.634-1.776-1.174-2.563-.63-.918-1.692-1.387-2.285-2.372-.878-1.453-1.296-3.11-2.285-4.495-1.03-1.44-2.663-3.067-3.952-4.209-.49-.433-1.683-.73-2.016-1.112-.926-1.062-1.5-2.648-2.471-3.759-1.878-2.146-4.18-3.925-6.7-5.267 7.709 1.092 12.39 3.607 20.492 13.216z" fill="#024e27"/><path d="M181.569 152.753c-.158 1.296-12.172 3.491-17.36 5.792-6.132 2.719-13.418 4.745-23.183 4.745-5.995.038-17.295-2.887-23.084-4.397 0 0-11.546-1.712-16.008-5.416-1.352-1.122-2.93-2.521-3.443-4.01 6.38-3.855 16.269-11.082 17.898-18.175 2.272-9.886 20.307-21.213 29.807-20.127 11.106 1.396 13.01 8.512 18.815 20.038.344.687 5.945 12.879 6.22 13.034.606 2.307 10.338 8.516 10.338 8.516z" fill="#ebc64a"/><path d="M130.878 170.145c-.158 1.296-12.172 3.491-17.36 5.792-6.132 2.718-13.419 4.745-23.183 4.745-5.996.038-17.295-2.888-23.084-4.397 0 0-11.546-1.712-16.009-5.416-1.351-1.122-2.928-2.521-3.442-4.01 6.379-3.856 16.269-11.082 17.898-18.175 2.272-9.887 20.307-21.213 29.807-20.127 11.106 1.396 13.01 8.512 18.815 20.038.344.687 5.944 12.879 6.22 13.034.606 2.307 10.338 8.516 10.338 8.516z" fill="#c24b2d"/><path d="M130.878 170.145c-.087.712-3.752 1.695-7.898 2.818a18.472 18.472 0 00-2.074-1.264c-2.832-1.471-6.396-5.19-7.95-7.95-2.726-4.839-5.675-10.428-8.03-15.323-1.024-2.13-1.891-5.065-3.526-6.764-1.757-1.826-1.654-5.66-3.823-7.352-3.87-3.017-7.679-3.63-12.474-3.669 3.801-1.59 7.5-2.416 10.402-2.084 11.106 1.396 13.01 8.512 18.815 20.038.344.687 5.944 12.879 6.22 13.034.606 2.307 10.338 8.516 10.338 8.516z" fill="#933821"/><path d="M181.569 152.753c-.081.668-3.31 1.574-7.132 2.61-1.004-.897-2.162-1.698-2.991-2.723-1.388-1.715-2.515-3.832-3.445-5.765-.935-1.944-3.173-3.138-4.25-5.05-.874-1.55-.885-3.591-1.654-5.19-.853-1.774-2.326-3.4-2.927-5.314-.754-2.402-1.627-5.16-2.792-7.394-1.883-3.612-5.123-7.192-7.918-10.097-.853-.886-2.392-1.794-3.188-2.731.316.01.624.032.924.066 11.106 1.396 13.01 8.512 18.815 20.038.344.687 5.945 12.879 6.22 13.034.606 2.307 10.338 8.516 10.338 8.516z" fill="#c8a738"/></svg>