<svg width="512" height="512" xmlns="http://www.w3.org/2000/svg"><path d="M320.592 366.38l-14.607 33.975c-6.601 15.352-1.014 33.011 12.478 39.442l43.43 20.7z" fill="#c1d439"/><path d="M325.754 246.402l18.43-22.973c5.263-6.562 8.221-15.462 8.221-24.743 0-11.7-4.69-22.626-12.5-29.116l-17.482-14.53H89.23l-17.482 14.53c-7.81 6.49-12.5 17.416-12.5 29.116 0 9.28 2.957 18.18 8.222 24.743l18.428 22.973z" fill="#acc221"/><path d="M279.9 296.236c20.56 0 40.006-11.651 52.85-31.665 4.097-6.385 6.33-14.318 6.33-22.494 0-7.966-2.118-15.706-6.024-22.01l-14.298-23.08H92.896l-14.299 23.08c-3.905 6.304-6.023 14.044-6.023 22.01 0 8.176 2.232 16.109 6.33 22.494 12.843 20.014 32.289 31.665 52.85 31.665z" fill="#93ad10"/><path d="M312.43 204.874l6.328-7.887c8.745-10.904 13.66-25.691 13.66-41.11 0-16.49-5.255-32.303-14.608-43.961-16.244-20.249-38.275-31.624-61.246-31.624H155.09c-22.972 0-45.003 11.375-61.246 31.624-9.353 11.658-14.607 27.472-14.607 43.96 0 15.42 4.914 30.207 13.66 41.11l6.328 7.888z" fill="#b9cd2a"/><path d="M305.766 196.568v29.947c0 12.967-3.079 25.645-8.849 36.434-11.121 20.796-29.844 33.287-49.893 33.287H164.63c-20.05 0-38.771-12.491-49.893-33.287-5.77-10.789-8.849-23.467-8.849-36.434v-29.947z" fill="#acc221"/><path d="M264.385 229.791c14.07 0 27.945-4.083 40.528-11.926 4.607-2.871 7.517-8.74 7.517-15.16 0-3.965-1.116-7.804-3.152-10.85l-18.176-27.188c-7.595-11.362-18.845-17.931-30.71-17.931h-109.13c-11.865 0-23.116 6.569-30.712 17.93l-18.175 27.19c-2.036 3.045-3.151 6.884-3.151 10.85 0 6.419 2.91 12.288 7.515 15.159 12.585 7.843 26.46 11.926 40.529 11.926z" fill="#cde046"/><path d="M246.532 405.51l-47.502-22.64 9.96-23.165c11.001-25.587 38.149-37.64 60.636-26.922l-13.572-6.47c-18.738-8.93-26.498-33.457-17.331-54.778l6.64-15.443 74.646 35.58 17.33 54.78z" fill="#c1d439"/><path d="M296.33 289.69l26.56-61.772c12.834-29.85 44.506-43.913 70.74-31.409l13.573 6.47L357.404 318.8z" fill="#c1d439"/><path d="M327.526 388.293l9.808 43.76c2.663 11.875 10.024 21.516 20.093 26.316l31.611 15.067 10.762-37.474c3.59-12.5 1.86-25.802-4.69-36.047l-23.841-37.29 33.446 15.941c9 4.29 19.38 4.335 28.855.128l35.73-15.863-14.036-31.985c-4.282-9.758-11.523-17.413-20.533-21.708-8.584-4.092-18.3-4.905-27.688-2.318l-22.64 6.24 23.522-26.106c14.01-15.547 18.118-38.654 10.24-57.605l-10.962-26.37-26.053 8.727c-18.723 6.272-32.504 24.768-34.354 46.11l-3.11 35.837-9.98-20.967c-4.676-9.824-12.195-17.514-21.427-21.914-8.425-4.016-17.881-5.104-27.178-3.128l-39.738 8.448 18.527 44.568c3.611 8.688 9.935 15.518 17.874 19.302l35.217 16.786-42.345 5.743c-11.633 1.579-22.268 8.986-28.82 20.075l-19.642 33.241 31.61 15.067c10.07 4.8 21.807 4.261 32.038-1.467z" fill="#e1f26b"/></svg>