<svg height="200pt" viewBox="0 0 200 200" width="200pt" xmlns="http://www.w3.org/2000/svg"><path d="M165.637 90.104H28.125c-1.726 0-3.125 1.477-3.125 3.299 0 41.904 32.182 75.873 71.881 75.873s71.881-33.97 71.881-75.873c0-1.822-1.399-3.3-3.125-3.3z" fill="#86b8d2"/><g transform="matrix(.293 0 0 .30927 25 20.835)" fill="#fafafa"><ellipse cx="245.333" cy="234.644" rx="234.667" ry="64"/><path d="M480 234.644c0 11.733-11.733 22.827-32 32.427-40.533 18.773-116.053 31.573-202.667 31.573S83.2 285.844 42.667 267.071c-20.267-9.6-32-20.693-32-32.427 0-35.413 104.96-64 234.667-64S480 199.231 480 234.644z"/></g><path d="M156.261 103.299v.132c-11.876 5.806-34.003 9.765-59.38 9.765-25.377 0-47.504-3.96-59.38-9.765v-.132c0-12.997 29.878-19.793 59.38-19.793 29.503 0 59.38 6.796 59.38 19.793z" fill="#ffd451"/><path d="M96.881 116.495C61.159 116.495 25 108.578 25 93.403 25 78.228 61.159 70.31 96.881 70.31s71.881 7.917 71.881 23.092c0 15.175-36.159 23.092-71.881 23.092zm0-39.586c-40.066 0-65.631 9.764-65.631 16.494 0 6.729 25.565 16.494 65.631 16.494s65.631-9.765 65.631-16.494c0-6.73-25.565-16.494-65.631-16.494z" fill="#648fa3"/><path d="M163.231 30.725c-3.337-.004-6.517 1.488-8.751 4.103L100.794 97.79c-1.156 1.353-1.055 3.439.226 4.659a3.03 3.03 0 002.099.85h12.501a3.031 3.031 0 002.076-.831l53.361-50.07c4.85-4.552 5.286-12.391.974-17.511-2.235-2.652-5.438-4.167-8.8-4.162z" fill="#cfd8dc"/><path d="M125.009 103.299H96.881c-1.726 0-3.125-1.477-3.125-3.3 0-1.82 1.399-3.298 3.125-3.298h28.128c1.726 0 3.125 1.478 3.125 3.299 0 1.822-1.399 3.299-3.125 3.299z" fill="#ffbe28"/></svg>