<svg width="200" height="200" xmlns="http://www.w3.org/2000/svg"><g transform="translate(-3.693 .273)"><path d="M106.238 68.491a47.985 47.985 0 01-5.337 1.409s-1.057-2.545-1.723-6.488c-1.48-8.763-1.031-24.44 17.25-34.442a53.169 53.169 0 013.47-1.73c2.375-1.077 5.144.335 5.684 2.886.235 1.116.467 2.396.658 3.799 1.403 10.519.299 27.884-20.002 34.566z" fill="#368b4c"/><path d="M99.178 63.412c-1.48-8.763-1.031-24.44 17.25-34.442.045.276.086.557.124.845 1.339 10.046.393 26.334-17.374 33.597z" fill="#3fa45a"/><path d="M89.048 77.623c-.686 0-1.363-.32-1.792-.92l-21.184-29.6a2.202 2.202 0 113.58-2.563l21.185 29.6a2.202 2.202 0 01-1.79 3.483zm-8.897 7.129c-14.77 25.154-36.665 15.856-45.607 10.53-2.24-1.336-2.683-4.41-.899-6.309 1.5-1.597 3-3.006 4.495-4.242 18.061-14.96 35.238-4.935 40.426-1.21a23.56 23.56 0 011.585 1.23z" fill="#368b4c"/><path d="M78.566 83.522c-14.133 14.371-31.583 6.782-39.325 2.17a4.02 4.02 0 01-1.101-.96c18.061-14.961 35.238-4.936 40.426-1.21z" fill="#3fa45a"/><path d="M91.213 79.075C67.075 95.453 51.289 77.657 45.5 69.005c-1.45-2.167-.528-5.132 1.9-6.083a49.59 49.59 0 015.311-1.753c20.075-5.366 31.292 6.491 35.934 13.396 1.752 2.607 2.568 4.51 2.568 4.51z" fill="#4cba68"/><path d="M88.644 74.565c-18.075 6.876-30.356-5.622-35.934-13.396 20.075-5.366 31.293 6.491 35.934 13.396z" fill="#64c37d"/><path d="M92.123 78.557c23.228-17.646 11.403-38.287 5.052-46.536-1.59-2.066-4.694-2.139-6.371-.142a49.788 49.788 0 00-3.356 4.473c-11.495 17.311-3.84 31.728 1.222 38.33 1.911 2.494 3.453 3.875 3.453 3.875z" fill="#4cba68"/><path d="M88.67 74.682c12.287-14.934 4.364-30.562-1.222-38.33-11.495 17.311-3.84 31.727 1.222 38.33z" fill="#64c37d"/><path d="M160.632 159.086a20.471 20.471 0 01-1.118 2.522c-3.793 7.204-11.588 11.576-19.875 10.903-31.921-2.598-60.753-22.978-60.753-22.978-22.976-15.248-25.829-48.355-5.429-62.955l.696-.496 14.893-10.663 15.589-11.156c20.401-14.599 50.871-1.235 57.838 25.445 8.226 31.489 3.212 55.553-1.841 69.378z" fill="#c70024"/><path d="M160.632 159.086a20.471 20.471 0 01-1.118 2.522 20.554 20.554 0 01-11.288 2.316c-31.921-2.598-60.753-22.978-60.753-22.978-19.374-12.859-24.441-38.412-13.32-54.864l14.893-10.663 15.589-11.156c20.401-14.599 50.871-1.235 57.838 25.445 8.226 31.489 3.212 55.553-1.841 69.378z" fill="#ff0c38"/><ellipse transform="rotate(144.409 165.221 211.208)" cx="183.356" cy="333.987" rx="2.645" ry="4.763"/><ellipse transform="rotate(144.409 177.267 152.441)" cx="217.38" cy="248.573" rx="2.645" ry="4.763"/><ellipse transform="rotate(144.409 237.276 178.078)" cx="301.002" cy="303.436" rx="2.645" ry="4.763"/><ellipse transform="rotate(144.409 299.237 82.9)" cx="420.154" cy="176.55" rx="2.645" ry="4.763"/><ellipse transform="rotate(144.409 294.917 152.227)" cx="394.939" cy="279.98" rx="2.645" ry="4.763"/><ellipse transform="rotate(144.409 338.573 202.247)" cx="447.313" cy="367.22" rx="2.645" ry="4.763"/><ellipse transform="rotate(144.409 270.226 245.314)" cx="332.581" cy="413.763" rx="2.645" ry="4.763"/><ellipse transform="rotate(144.409 326.936 263.777)" cx="413.161" cy="456.914" rx="2.645" ry="4.763"/><ellipse transform="rotate(144.409 236.775 102.831)" cx="320.54" cy="189.774" rx="2.645" ry="4.763"/><ellipse transform="rotate(144.409 202.3 258.054)" cx="226.662" cy="414.664" rx="2.645" ry="4.763"/></g></svg>