<svg width="200" height="200" xmlns="http://www.w3.org/2000/svg"><path d="M132.26 73.251c3.619 20.08 1.07 39.252-5.963 53.89-7.044 14.661-18.743 24.975-33.19 27.223-14.447 2.248-29.123-3.963-40.922-15.691-11.781-11.711-20.91-29.066-24.528-49.146-3.618-20.08-1.07-39.25 5.964-53.89 7.044-14.66 18.743-24.974 33.19-27.222 14.447-2.248 29.123 3.963 40.922 15.69 11.781 11.713 20.91 29.066 24.528 49.146zm-25.376-48.423C95.235 13.248 81.124 7.264 67 9.461 52.875 11.66 41.63 21.588 34.676 36.063c-6.965 14.497-9.472 33.354-5.88 53.286 3.592 19.934 12.57 37.004 24.237 48.6 11.65 11.583 25.76 17.566 39.885 15.369 14.125-2.198 25.37-12.127 32.324-26.603 6.965-14.496 9.472-33.353 5.88-53.287-3.59-19.932-12.57-37.002-24.238-48.6z" fill="none"/><path d="M117.568 25.525c2.136-.936 4.247-2.108 6.506-2.86.234-.077 2.037-.67 2.194-.478.205.252 1.168 8.76 1.064 8.838-.709.53-2.289.02-3.154.214-1.363.305-2.681.694-4.042.998-.44.1-1.255.316-1.648.067-.094-.06.122-.628.13-.689.128-.817.326-1.725.298-2.557-.043-1.258-1.1-2.429-1.348-3.533z" fill="#937600"/><path d="M116.378 22.114c-9.721 2.178-19.943 3.35-28.516 8.518-5.547 3.343-13 7.762-17.453 12.653-4.208 4.623-8.074 8.871-11.157 14.317-8.689 15.353-7.949 35.536-2.459 52.118 1.884 5.69 4.608 10.975 5.305 17.092 2.048 17.94 2.341 32.047 19.286 48.339 7.63 7.337 32.58 5.486 44.048-3.48 9.694-7.579 17.125-23.009 12.655-36.47-4.777-14.389-18.54-22.9-29.557-31.575-7.076-5.573-10.916-12.641-14.841-20.523-3.182-6.387-7.315-12.257-7.75-20.028-.725-12.919 11.965-19.423 21.884-23.257 4.005-1.547 12.347-1.689 14.336-6.145 1.373-3.076.924-5.365-.909-9.154-.485-1.003-1.002-2.802-4.872-2.405z" fill="#fff759"/><path d="M107.993 178.848s-29.908-10.9-29.913-30.307c-.006-23.285-35.768-88.593 9.782-117.91 5.447-3.505-13 7.763-17.453 12.654-4.209 4.624-8.074 8.872-11.157 14.318-8.69 15.352-7.949 35.536-2.459 52.118 1.884 5.69 4.606 10.975 5.305 17.091 2.048 17.94-.761 36.694 17.55 49.264 1.676 1.15 4.722 1.798 8.135 2.568 8.388 1.893 18.8.76 20.21.204z" fill="#f3e706"/></svg>