<svg xmlns="http://www.w3.org/2000/svg" viewBox="0 0 512 512"><path d="M428.127 285.873c0-94.993-77.007-172-172-172s-172 77.007-172 172h344z" fill="#f5b955"/><path d="M502 276h-64.143c-5.146-95.781-84.687-172.127-181.73-172.127S79.543 180.219 74.397 276H10c-5.523 0-10 4.477-10 10s4.477 10 10 10h492c5.523 0 10-4.477 10-10s-4.477-10-10-10zM256.127 123.873c86.011 0 156.569 67.381 161.69 152.127H94.437c5.12-84.746 75.679-152.127 161.69-152.127zm136.444 296.126h-49.88c-5.523 0-10 4.477-10 10s4.477 10 10 10h49.88c5.523 0 10-4.477 10-10s-4.477-10-10-10zm-90.571 10c0-5.523-4.477-10-10-10H119.166c-5.523 0-10 4.477-10 10s4.477 10 10 10H292c5.523 0 10-4.477 10-10zM373.9 492c-2.63 0-5.21 1.07-7.07 2.93-1.86 1.86-2.93 4.44-2.93 7.07s1.07 5.21 2.93 7.07c1.86 1.86 4.44 2.93 7.07 2.93s5.21-1.07 7.07-2.93c1.86-1.86 2.93-4.44 2.93-7.07s-1.07-5.21-2.93-7.07a10.076 10.076 0 00-7.07-2.93zm-179.852 0H142.64c-5.523 0-10 4.477-10 10s4.477 10 10 10h51.408c5.523 0 10-4.477 10-10s-4.477-10-10-10zm124.963 0h-79.344c-5.523 0-10 4.477-10 10s4.477 10 10 10h79.344c5.523 0 10-4.477 10-10s-4.477-10-10-10zM47.19 348c-2.64 0-5.21 1.07-7.07 2.93s-2.93 4.44-2.93 7.07 1.07 5.21 2.93 7.07c1.86 1.86 4.44 2.93 7.07 2.93s5.21-1.07 7.07-2.93 2.93-4.44 2.93-7.07-1.07-5.21-2.93-7.07a10.076 10.076 0 00-7.07-2.93zm413.804 0H416c-5.523 0-10 4.477-10 10s4.477 10 10 10h44.994c5.523 0 10-4.477 10-10s-4.477-10-10-10zm-97.983 10c0-5.523-4.477-10-10-10H90.001c-5.523 0-10 4.477-10 10s4.477 10 10 10h263.01c5.523 0 10-4.477 10-10zM256.022 86.987c5.523 0 10-4.477 10-10V10c0-5.523-4.477-10-10-10s-10 4.477-10 10v66.987c0 5.523 4.478 10 10 10zM101.15 145.261c1.953 1.952 4.512 2.929 7.071 2.929s5.119-.977 7.071-2.929c3.905-3.905 3.905-10.237 0-14.143L66.087 81.913c-3.905-3.905-10.237-3.905-14.143 0-3.905 3.905-3.905 10.237 0 14.143l49.206 49.205zm302.661 2.961a9.97 9.97 0 007.071-2.929l53.21-53.211c3.905-3.905 3.905-10.237 0-14.142s-10.237-3.905-14.143 0l-53.21 53.211c-3.905 3.905-3.905 10.237 0 14.142a9.969 9.969 0 007.072 2.929zm-71.57-46.053a9.977 9.977 0 003.763.739c3.948 0 7.688-2.354 9.267-6.236l11.752-28.906c2.08-5.116-.381-10.95-5.498-13.03-5.115-2.079-10.949.381-13.03 5.498L326.743 89.14c-2.08 5.116.382 10.949 5.498 13.029zm-165.467-5.506a10.003 10.003 0 009.264 6.229 9.967 9.967 0 003.771-.742c5.114-2.084 7.571-7.92 5.487-13.035l-11.772-28.889c-2.085-5.115-7.919-7.572-13.035-5.487-5.114 2.084-7.571 7.92-5.487 13.035l11.772 28.889z"/><path d="M256.934 150.112l-.807-.002c-5.523 0-10 4.477-10 10s4.477 10 10 10l.689.002h.06c5.495 0 9.966-4.438 9.999-9.941.032-5.523-4.418-10.026-9.941-10.059zm126.304 87.975c-14.391-38.262-46.171-68.663-85.012-81.32-5.253-1.71-10.896 1.159-12.606 6.409-1.711 5.251 1.158 10.896 6.409 12.606 33.119 10.793 60.218 36.716 72.49 69.346a10.003 10.003 0 009.361 6.482c1.169 0 2.36-.207 3.519-.643 5.169-1.944 7.784-7.711 5.839-12.88z"/></svg>