<svg viewBox="0 0 500 500" xmlns="http://www.w3.org/2000/svg"><path d="M249.58 283.18c3.033-9.923 15.923-21.436 22.616-29.672 5.373-6.609 10.373-11.186 14.742-17.746 8.62-12.946-16.037-7.687-16.037-7.687s8.44-17.746 12.294-24.441c8.028-13.94 14.958-26.265 16.937-41.228 1.17-8.845.2-14.68-6.393-14.68-.208 0-13.968 11.915-13.968 11.915s5.878-26.395 6.343-33.666c.538-8.396-.52-32.622-1.449-36.634-1.308-5.656-8.54-7.668-13.873-5.99-1.288.404-5.874 6.221-9.324 13.709-.052.112-2.877-15.773-4.016-19.043-3.82-10.969-8.558-17.374-15.802-23.795-5.127-4.544-14.397-14.306-24.096-7.623-9.522 6.56-14.408 22.772-14.408 22.772s-27.505-7.793-36.384-.484c-3.161 2.603-5.271 8.646-6.44 12.47-3.291 10.768 2.509 28.93 3.074 38.347.067 1.086-14.997-.869-21.206 6.434-3.87 4.552-5.405 10.75-4.734 17.098 2.395 22.708 30.02 42.746 30.02 42.746s-26.901 10.007-34.093 20.805c-6.447 9.683.278 13.067 4.133 15.424 9.071 5.55 17.115 8.51 28.031 10.188 2.25.344 10.158 4.317 12.285 4.317 1.391 0-14.816 2.511-19.738 10.102-5.979 9.222-6.977 23.18-3.113 29.518 3.682 6.043 11.965 8.06 18.19 9.947 17.341 5.25 39.513-.706 57.223 3.683 3.696.916 6.85 2.046 10.076 3.288 1.602.618 2.222 4.846 4.11 3.112 1.02-.938 1.164-5.167 1.522-6.343.908-2.968 2.81-4.656 3.478-6.843z" fill="#002901"/><path d="M259.696 448.165c-1.21 1.286-11.059 2.155-12.376-.55-.68-1.399 2.307-10.855 4.248-32.32 1.04-11.516-.424-47.823-1.471-58.543-2.084-21.353-6.08-41.03-11.204-60.047-5.238-19.44-45.144-178.68-39.834-181.839.562-.333 37.723 140.92 49.497 179.059 3.98 12.893 7.993 26.218 10.038 40.728 2.457 17.447 6.13 69.718 5.685 87.948-.062 2.563-1.232 22.006-4.583 25.564z" fill="#fcbd47"/><path d="M236.322 318.471c0-8.382 9.176-18.106 13.265-25.063 3.282-5.583 6.808-9.45 9.123-14.99 4.566-10.936-18-6.494-18-6.494s2.952-14.99 4.723-20.645c3.688-11.775 6.785-22.186 4.246-34.825-1.5-7.471-4.198-12.4-10.652-12.4-.203 0-10.11 10.065-10.11 10.065s-2.143-22.296-3.863-28.438c-1.987-7.093-10.27-27.555-12.38-30.945-2.973-4.778-10.657-6.477-15.376-5.06-1.14.342-3.888 5.256-5.027 11.58-.017.095-7.537-13.323-9.63-16.085-7.022-9.266-13.576-14.675-22.59-20.1-6.38-3.839-18.376-12.084-25.873-6.44-7.36 5.542-7.293 19.237-7.293 19.237s-29.261-6.583-35.767-.41c-2.316 2.2-2.574 7.304-2.574 10.535 0 9.095 11.113 24.436 14.484 32.39.39.918-14.943-.733-18.837 5.436-2.427 3.844-2.075 9.08.48 14.442 9.14 19.181 42.182 36.108 42.182 36.108S103.51 244.82 99.7 253.943c-3.415 8.179 4.181 11.037 8.66 13.028 10.543 4.688 19.303 7.189 30.494 8.605 2.306.292 11.236 3.648 13.32 3.648 1.361 0-13.756 2.12-16.303 8.533-3.094 7.79.105 19.58 5.784 24.934 5.413 5.103 14.127 6.808 20.785 8.401 18.55 4.436 38.476-.595 57.128 3.111 3.893.774 7.319 1.729 10.85 2.778 1.753.522 3.625 4.093 4.954 2.629.719-.793-.407-4.365-.407-5.358 0-2.508 1.357-3.933 1.357-5.781z" fill="#003c01"/><path d="M289.184 445.016c-.8 1.086-10.183 1.82-12.281-.465-1.085-1.182-.99-9.169-5.512-27.3-2.427-9.728-14.725-40.396-18.957-49.452-8.43-18.036-18.23-34.658-28.936-50.72-10.945-16.421-97.663-150.932-93.409-153.6.45-.281 79.098 119.034 102.037 151.25 7.755 10.891 15.672 22.147 22.015 34.404 7.626 14.737 26.862 58.89 31.881 74.29.706 2.164 5.378 18.587 3.162 21.593z" fill="#fed77c"/><path d="M260.806 299.867c-2.042-10.305-16.242-22.261-23.208-30.814-5.592-6.865-11.08-11.618-15.414-18.43-8.553-13.446 21.624-7.984 21.624-7.984s-7.46-18.43-11.12-25.384c-7.626-14.476-14.155-27.277-13.961-42.816.114-9.186 2.39-15.246 10.71-15.246.263 0 15.488 12.374 15.488 12.374s-2.67-27.413-1.95-34.964c.833-8.72 6.527-33.879 8.42-38.047 2.669-5.873 12.161-7.963 18.59-6.22 1.553.42 6.294 6.461 9.303 14.237.045.117 6.47-16.38 8.495-19.776 6.795-11.393 13.927-18.044 24.226-24.713 7.289-4.72 20.746-14.857 31.787-7.917 10.838 6.813 14.09 23.65 14.09 23.65s36.12-8.093 46.01-.502c3.523 2.702 5.1 8.978 5.887 12.951 2.216 11.182-8.373 30.044-10.78 39.824-.28 1.128 19.085-.901 25.609 6.683 4.065 4.726 4.888 11.163 2.9 17.757-7.11 23.582-45.583 44.394-45.583 44.394s32.155 10.392 39.289 21.606c6.396 10.057-2.702 13.57-7.99 16.019-12.45 5.763-23.135 8.838-37.216 10.58-2.902.358-13.598 4.484-16.284 4.484-1.755 0 18.25 2.608 23.097 10.491 5.887 9.578 4.636 24.074-1.38 30.656-5.736 6.275-16.554 8.372-24.75 10.33-22.834 5.453-49.75-.732-72.893 3.825-4.83.952-9.014 2.126-13.31 3.416-2.133.64-3.677 5.032-5.747 3.231-1.12-.974-.54-5.366-.781-6.587-.611-3.083-2.707-4.835-3.158-7.108z" fill="#005601"/><path d="M223.492 455.453c1.295 1.335 13.571 2.238 15.72-.571 1.11-1.453-.96-11.273.453-33.565.758-11.961 9.14-49.667 12.39-60.801 6.471-22.176 15.057-42.612 24.945-62.36 10.109-20.19 89.13-185.57 82.996-188.85-.65-.346-72.969 146.352-94.692 185.961-7.344 13.39-14.808 27.229-19.999 42.299-6.24 18.119-20.28 72.405-23 91.338-.382 2.662-2.402 22.853 1.187 26.549z" fill="#fe7c7c"/></svg>