<svg width="200" height="200" xmlns="http://www.w3.org/2000/svg"><path d="M166.142 104.633a61.592 61.592 0 01-3.665 20.977c-8.43 23.333-30.528 40.6-57.175 43.095a71.157 71.157 0 01-6.679.314c-37.289 0-67.52-28.829-67.52-64.386 0-11.841 3.354-21.762 9.204-29.728 4.8-6.534 11.28-11.752 18.964-15.636.357-.18.721-.359 1.084-.534 10.876-5.244 24.061-7.892 38.268-7.892 2.254 0 4.481.067 6.679.202 11.258.678 21.698 3.105 30.642 7.244.363.164.724.337 1.081.509 17.594 8.532 29.117 23.88 29.117 45.835z" fill="#cd2a00"/><path d="M166.142 104.633a61.592 61.592 0 01-3.665 20.977c-10.853 16.282-29.164 27.6-50.346 29.583a70.888 70.888 0 01-6.68.314c-37.29 0-67.52-28.828-67.52-64.385 0-5.883.828-11.29 2.376-16.217 4.8-6.535 11.28-11.752 18.964-15.636 11.08-5.597 24.668-8.426 39.352-8.426 2.254 0 4.481.066 6.678.202 11.713.706 22.544 3.303 31.723 7.752 17.595 8.533 29.118 23.881 29.118 45.836z" fill="#ff3501"/><path d="M137.751 80.409l-15.096-13.41c-1.928-1.715-1.18-4.916 1.307-5.569l11.18-2.931c.271-.071.305-.443.05-.557-8.714-3.922-18.847-6.588-29.696-7.267-2.22 0-6.698-12.056-6.698-16.942 0-3.34-3.915-6.267-7.719-6.267-3.805 0-4.93 4.865-5.266 8.073-.563 5.389.675 11.317 4.049 15.14-10.908.685-19.215 3.347-27.955 7.327-.516.233-.436.983.116 1.11l9.52 2.184c2.6.595 3.381 3.959 1.316 5.663l-14.37 11.874c-1.321 1.089-.168 3.223 1.453 2.682l28.056-9.383c1.734-.578 3.596.428 4.084 2.208l4.942 18.039c.422 1.532 2.574 1.514 2.969-.025l4.58-17.859c.479-1.874 2.466-2.903 4.249-2.206l27.36 10.738c1.601.631 2.858-1.472 1.569-2.622z" fill="#5eac24"/></svg>