<svg viewBox="0 0 512 512" xmlns="http://www.w3.org/2000/svg"><g fill="#f9bc43"><path d="M358.686 134.379a163.4 163.4 0 0112.441 10.953c63.642 62.043 63.634 162.616-.01 224.649s-166.824 62.043-230.476 0a163.097 163.097 0 01-11.209-12.089v-.009"/><path d="M381.816 156.923a163.4 163.4 0 0112.441 10.953c63.642 62.043 63.633 162.616-.01 224.65s-166.824 62.042-230.476 0a163.097 163.097 0 01-11.209-12.09v-.009"/></g><g fill="#e8aa3d"><path d="M347.378 123.356a163.54 163.54 0 0112.44 10.953c63.643 62.043 63.634 162.616-.009 224.65s-166.825 62.042-230.476 0a163.097 163.097 0 01-11.21-12.09v-.009"/><path d="M368.708 144.147a163.54 163.54 0 0112.44 10.953c63.643 62.043 63.634 162.616-.009 224.65s-166.824 62.042-230.476 0a163.097 163.097 0 01-11.209-12.09v-.009"/></g><path d="M373.088 371.906c-63.644 62.025-166.827 62.043-230.479 0a156.966 156.966 0 01-6.337-6.54 154.844 154.844 0 01-4.657-5.301c64.017 51.101 158.597 47.524 218.339-10.707 59.743-58.231 63.413-150.421 10.994-212.819a153.779 153.779 0 015.413 4.513 160.161 160.161 0 016.736 6.202c63.643 62.043 63.635 162.618-.009 224.652z" fill="#f9bc43"/><path d="M366.361 141.052a159.991 159.991 0 00-11.492-11.349 157.864 157.864 0 016.079 6.835c52.419 62.398 48.748 154.587-10.994 212.819-59.741 58.232-154.322 61.809-218.339 10.707a153.999 153.999 0 01-7.012-5.934 152.427 152.427 0 004.898 4.998 161.44 161.44 0 006.772 6.237c63.999 55.728 162.277 53.64 223.707-6.237 61.438-59.885 63.571-155.695 6.381-218.076z" fill="#e8aa3d"/><path d="M71.128 258.698c5.048 32.287 20.334 63.351 45.842 88.214 63.652 62.034 166.835 62.034 230.479 0 63.643-62.043 63.652-162.609 0-224.652-32.635-31.819-75.686-47.308-118.452-46.485l-1.636 1.594L69.289 231.454a155.48 155.48 0 001.839 27.244z" fill="#fcc854"/><path d="M71.128 258.698c39.994-1.204 79.623-16.693 110.16-46.449 31.009-30.225 46.908-69.589 47.709-109.186-.249-9.217-.809-17.767-1.636-25.693L69.289 231.454a155.48 155.48 0 001.839 27.244z" fill="#f9bc43"/><path d="M69.284 231.454c40.62-.777 81-16.273 112.007-46.496 31.007-30.222 46.905-69.581 47.709-109.181-40.641.771-158.931 116.071-159.716 155.677z" fill="#fcdb75"/><g transform="matrix(.728 0 0 .70959 69.253 75.744)" fill="#e8aa3d"><circle cx="336.004" cy="311.32" r="9.156"/><circle cx="392.736" cy="184.306" r="9.156"/><circle cx="269.677" cy="104.355" r="9.156"/><circle cx="245.627" cy="236.801" r="9.156"/></g><g transform="matrix(.728 0 0 .70959 69.253 75.744)" fill="#fcc854"><circle cx="168.154" cy="69.203" r="9.156"/><circle cx="113.486" cy="122.594" r="9.156"/></g><circle cx="142.603" cy="330.658" r="9.156" transform="matrix(.728 0 0 .70959 69.253 75.744)" fill="#e8aa3d"/></svg>