<svg height="512" viewBox="0 0 500.225 500.225" width="512" xmlns="http://www.w3.org/2000/svg"><path d="M491.45 285.822a50.524 50.524 0 010-40.06l7.38-17.12c6.72-15.58-12.34-29.48-25.13-18.32l-51.34 44.84s-10.851 10.534-9.888 10.63 9.888 10.63 9.888 10.63l51.34 44.84c12.79 11.16 31.85-2.74 25.13-18.32z" fill="#f9de58"/><g fill="#f9de58"><path d="M367.24 226.999l3.813-36.22c1.268-12.048-12.969-19.333-21.998-11.255l-33.749 30.191-42.184 32.288 89.076 25.913z"/><path d="M367.24 304.585l3.813 36.22c1.268 12.048-12.969 19.333-21.998 11.255l-33.749-30.191-39.042-36.28 87.756-20.797zm-126.079 41.908v31.699c0 7.922-7.675 13.577-15.241 11.23l-4.178-1.296a58.442 58.442 0 01-36.344-32.657l-18.273-50.885h74.036zm46.334-148.383l-26.249-21.984a44.122 44.122 0 01-15.599-29.698l-1.464-15.586c-1.819-19.357-25.566-27.59-38.977-13.514l-62.437 65.538-54.271 56.4 226.808 14.61 7.193-39.677z"/></g><path d="M422.36 255.162l-14.62-6.21-179.164-31.055-154.086 4.118-68.77 24.557c-3.81 5.51-5.72 11.96-5.72 18.42 0 9.46 4.1 18.93 12.3 25.43 81.05 64.27 190.75 79.1 285.96 38.68l124.1-52.68z" fill="#f8f7f8"/><path d="M406.479 248.733L298.26 294.672c-95.21 40.42-204.91 25.59-285.96-38.68a32.472 32.472 0 01-7.357-8.198A32.394 32.394 0 000 264.992c0 9.46 4.1 18.93 12.3 25.43 81.05 64.27 190.75 79.1 285.96 38.68l124.1-52.68v-21.26l-14.62-6.21z" fill="#efedee"/><path d="M107.622 214.2c-.8-1.099-5.986-10.995-11.346-19.947a282.292 282.292 0 00-83.626 45.029l-.16.12a32.708 32.708 0 00-6.77 7.17h114.656c-4.151-11.052-11.677-30.892-12.754-32.372z" fill="#f6f8f9"/><circle cx="63.105" cy="255.381" fill="#998f98" r="14.016"/><path d="M296.94 201.922c-64.579-27.421-135.847-29.416-200.334-7.778 6.159 10.084 13.536 22.821 13.536 22.821l10.401 29.607H234.13l173.6 2.38z" fill="#bfbfbf"/><path d="M206.23 243.112c0 1.07-.38 2.14-1.19 3.01l-15.22 16.46a41.307 41.307 0 01-33.05 13.16l-34.78-2.32h-.01c1.21-7.47 1.44-15.05.7-22.52l.43-.02 3.15-2.32a79.825 79.825 0 0177.18-9.59c1.79.72 2.79 2.42 2.79 4.14z" fill="#fbe88c"/><path d="M130.144 253.169a94.216 94.216 0 00-.905-6.597c-3.352-19.757-12.875-38.083-27.269-52.165l-1.555-1.515a282.28 282.28 0 00-15.774 5.571l5.148 5.014 1.696 1.656c11.512 11.262 19.326 25.751 22.504 41.439.539 2.66.96 5.35 1.227 8.07a79.662 79.662 0 01-.643 20.594c-1.737 10.846-5.628 21.064-11.567 30.372a7.5 7.5 0 0012.646 8.068c7.049-11.048 11.669-23.184 13.73-36.055a94.578 94.578 0 00.762-24.452z" fill="#e4e1e5"/></svg>