<svg width="200" height="200" xmlns="http://www.w3.org/2000/svg"><path d="M110.141 71.322a2.204 2.204 0 01-1.053-.624c-.927-.976-.932-2.62-.004-3.678l13.522-15.423c.922-1.057 2.427-1.13 3.356-.147.928.973.933 2.62.004 3.677l-13.52 15.424c-.624.712-1.508.974-2.305.77zm0 0" fill="#b3e59f"/><path d="M100.975 68.988c-.909-.231-1.622-1.052-1.737-2.138l-4.42-41.557c-.152-1.42.784-2.751 2.086-2.972 1.29-.224 2.483.75 2.631 2.173l4.42 41.558c.152 1.42-.784 2.75-2.087 2.972a2.14 2.14 0 01-.893-.036zm0 0" fill="#95d6a4"/><path d="M118.621 16.871l8.816 2.246c1.397.355 2.13 1.996 1.56 3.474l-18.854 48.723-6.875-1.75zm0 0" fill="#ccf49f"/><path d="M118.621 16.87l-8.817-2.245c-1.394-.355-2.8.74-2.978 2.32l-5.849 52.034 6.875 1.751zm0 0" fill="#b3e59f"/><path d="M106.173 67.688c-22.783-5.803-43.138 7.118-48.29 28.133-4.618 18.834 5.821 35.582 22.886 45.689l.058.035c2.536 1.528 3.596 4.922 2.826 8.066l-5.896 24.048c-.343 1.4.405 2.796 1.672 3.119 1.266.322 2.568-.551 2.912-1.952l5.896-24.047c.77-3.144 3.274-5.63 6.217-5.764l.067-.003c19.723-.738 36.664-10.513 41.283-29.346 5.151-21.016-6.849-42.176-29.63-47.978zm0 0" fill="#8c009b"/><path d="M70.202 115.062c.343-1.4-.405-2.799-1.672-3.121l-11.463-2.92a35.21 35.21 0 001.192 5.694l9.027 2.299c1.268.322 2.572-.55 2.916-1.952zm49.398 4.991c.653-1.281.244-2.818-.915-3.431l-10.486-5.55a35.575 35.575 0 00-.137 5.82l8.258 4.37c1.16.614 2.627.074 3.28-1.209zm0 0" fill="#bd4150"/><path d="M135.804 115.665c-3.643 20.946-22.377 30.917-41.224 29.513-.195-.015-5.094 2.49-5.951 5.62l-6.095 24.086c-.343 1.4-1.957 2.616-3.223 2.294-1.267-.322-2.105-2.119-1.763-3.519l5.704-24.067c.627-3.07-1.43-7.727-2.425-8.048-6.806-2.196-29.973-19.466-22.945-45.723 1.808-6.754 79.141 12.836 77.922 19.844z" fill="#facfff"/></svg>