<svg id="Walnut" enable-background="new 0 0 64 64" height="512" viewBox="0 0 64 64" width="512" xmlns="http://www.w3.org/2000/svg"><g><g><path d="m42.05712 21.32826c2.78824 9.72375-.67693 18.68218-6.79754 25.15576-1.11111 1.17546-3.21552 3.3477-4.72776 4.97604-.9694 1.03826-2.44135 1.46033-3.81364 1.09354-2.14534-.57955-5.08116-1.30653-6.64633-1.71457-8.62105-2.24648-16.30693-8.00739-19.09517-17.73115-2.78822-9.72368.67693-18.68217 6.79754-25.15576 1.11111-1.17545 3.21559-3.34772 4.72782-4.97606.9694-1.03826 2.44135-1.46033 3.81364-1.09354 2.14534.57955 5.08109 1.30655 6.64626 1.71459 8.62106 2.24648 16.30696 8.00746 19.09518 17.73115z" fill="#f7bb90"/><path d="m35.26365 46.47744c-1.10701 1.18077-3.22859 3.35775-4.72296 4.98127-.97786 1.03315-2.45376 1.45755-3.81897 1.08855-2.14016-.57192-5.09196-1.29146-6.64174-1.71575-1.69728-.44276-3.35775-1.01468-4.94434-1.73422-3.87612-9.42222 1.32622-34.15066 20.44162-38.59557 2.93334 2.8043 5.22112 6.42036 6.47565 10.82972 2.78582 9.72259-.66427 18.67046-6.78926 25.146z" opacity=".09"/><g fill="#d08867"><path d="m27.15604 47.80095c-.39732 0-.7625-.26072-.87768-.6625l-11.28035-39.3375c-.13929-.48482.14107-.99107.62679-1.13036.48214-.13661.99196.14018 1.13036.62679l11.28036 39.3375c.13928.48571-.14107.99107-.62679 1.13036-.08394.02499-.16876.03571-.25269.03571z"/><path d="m10.34444 31.33666c-.27054 0-.5375-.11875-.71786-.34732-1.11696-1.41161-1.64107-2.84643-1.55893-4.2625.05982-1.04822.43661-1.74821.73929-2.31161.28661-.53214.47589-.88482.43839-1.47232-.04018-.64107-.33036-1.09464-.66518-1.61964-.39464-.61696-.84107-1.31697-.88661-2.33304-.03036-.69554.13482-2.47411 2.31607-3.99643.41696-.28839.98393-.18661 1.27321.22679.28839.41429.1875.98393-.22679 1.27322-1.4375 1.00268-1.55268 2.02321-1.53571 2.41518.02411.52678.27857.925.60089 1.43036.39107.6125.87857 1.37589.94911 2.4875.07054 1.10982-.31429 1.82411-.65268 2.45447-.26161.48661-.4875.90625-.525 1.55089-.05536.95625.33839 1.97322 1.16786 3.02321.31339.39643.24643.97143-.15 1.28393-.16785.13302-.36785.19731-.56606.19731z"/><path d="m33.0989 30.23666c-.12679 0-.25357-.02589-.375-.08036-.46071-.20804-.66607-.74911-.45893-1.20893.72143-1.60179.85893-2.94286.40714-3.98571-.20893-.48304-.45714-.70804-.80268-1.01964-.40625-.36518-.91161-.82054-1.35982-1.71428-.65982-1.31161-.60536-2.40357-.5625-3.28125.03572-.71786.06429-1.28393-.24375-1.93661-.46339-.98036-1.52857-1.75804-3.16696-2.31071-.47857-.16071-.73572-.67946-.57411-1.15804.15982-.47946.67768-.74107 1.15804-.57411 2.12768.71696 3.55268 1.81518 4.23661 3.26161.50268 1.06696.45714 1.99196.41696 2.80803-.03929.79911-.07321 1.48839.36964 2.37054.29464.58571.59821.85982.95 1.17678.41786.37679.89107.80268 1.25714 1.65179.66429 1.53393.52322 3.37232-.41785 5.46161-.15357.33928-.48571.53928-.83393.53928z"/><path d="m18.74265 43.9188c-.01161 0-.02232 0-.03393 0-.32232-.0125-3.19464-.18571-4.68393-2.67143-.87768-1.46429-.80625-2.95-.68482-3.70536.07946-.5.54643-.83571 1.04732-.75893.49911.08036.83839.55.75804 1.04821-.08125.50893-.13214 1.50893.44732 2.47678 1.01071 1.68571 3.09375 1.78036 3.18214 1.78215.50447.01786.89911.44286.88036.94643-.01696.49465-.42321.88215-.9125.88215z"/></g></g><g><path d="m63.01894 42.67174c-2.78824 9.72376-10.47411 15.48467-19.09516 17.73115-1.56517.40804-4.50092 1.13504-6.64626 1.71459-1.37229.36679-2.84424-.05529-3.81364-1.09354-1.51224-1.62834-3.61672-3.80061-4.72783-4.97606-6.12061-6.47358-9.58579-15.43201-6.79754-25.15576 2.78822-9.72369 10.47412-15.48466 19.09517-17.73114 1.56517-.40804 4.50099-1.13503 6.64633-1.71457 1.3723-.3668 2.84424.05527 3.81364 1.09354 1.51224 1.62834 3.61665 3.80059 4.72776 4.97604 6.1206 6.47357 9.58576 15.43207 6.79753 25.15575z" fill="#d08867"/><path d="m63.0252 42.66967c-2.78583 9.72259-10.47907 15.47869-19.09476 17.72954-1.56824.40583-4.50158 1.14383-6.66009 1.71575-1.36533.369-2.84123-.0554-3.80051-1.08855-.95939-1.03314-2.17709-2.30613-3.21024-3.39457 3.24706-.60885 18.44908-4.22491 24.64806-18.87338 3.74511-8.85565 2.25074-17.15774.84859-21.71461.16609.16598.31372.33207.46123.47969 6.12511 6.4572 9.59355 15.42343 6.80772 25.14613z" opacity=".09"/></g><g><path d="m36.49752 50.59555 8.23092-28.70461c.31077-1.0838-.16005-2.3022-1.19552-2.74828-2.25002-.9693-4.60688.99125-4.78164 2.81515-2.66148-2.53155-7.39566-.0839-6.24725 4.33628-5.02321 1.17035-7.90332 10.6203-1.72767 13.53026-3.87856 1.78104-2.79551 7.12751.79115 7.83768-.92291 2.21807.46526 4.25469 2.34313 4.61921 1.15034.22329 2.26388-.55927 2.58688-1.68569z" fill="#ffefb4"/><g fill="#ffdc6e"><path d="m36.60604 32.3572c-.32143 0-.63572-.17143-.80179-.47411-.57321-1.04464-.63036-2.27143-.15714-3.36518.475-1.09286 1.40893-1.89018 2.5625-2.18571.49464-.12411.9875.16964 1.1125.65893s-.16964.9875-.65893 1.1125c-.60178.15446-1.08928.57054-1.3375 1.14196-.24821.57054-.21786 1.21161.08214 1.75714.24286.44286.08036.99821-.3625 1.24196-.13928.0759-.28928.11251-.43928.11251z"/><path d="m34.36855 45.71523c-.24107 0-.48393-.09643-.6625-.28572-.60357-.63571-.87321-1.49821-.74107-2.36428.13393-.86786.65-1.60893 1.41785-2.03393.4375-.24107.99821-.08572 1.24286.35714.24464.44107.08572.99821-.35714 1.24286-.26786.14822-.44822.40893-.49643.7125-.04643.30357.04821.60535.25893.82857.34821.36607.33393.94464-.03393 1.29107-.17679.16786-.40179.25179-.62857.25179z"/></g></g><g><path d="m40.23097 51.6661 8.22541-28.68541c.34517-1.20375 1.584-1.96474 2.79622-1.65063 2.1847.56611 3.02398 3.29054 2.24278 4.85555 3.59858-.7365 6.31633 3.84795 3.00008 6.98791 3.63973 3.65441 1.07449 13.19464-5.7048 12.38984 2.34541 3.56573-1.40628 7.52587-4.82427 6.22749-.39272 2.3701-2.6492 3.36164-4.43489 2.67564-1.09388-.42023-1.62353-1.67397-1.30053-2.80039z" fill="#ffefb4"/><g fill="#ffdc6e"><path d="m45.12926 48.80095c-.40714 0-.77857-.27321-.88571-.68571-.125-.48928.16785-.9875.65714-1.11428.29821-.07679.5375-.28214.65893-.56429.12143-.28393.10536-.6-.04286-.86786-.24464-.44107-.08571-.99821.35714-1.24286.4375-.24107.99643-.08572 1.24286.35714.425.76607.46965 1.66964.12321 2.475-.34643.80714-1.03214 1.39464-1.88214 1.61428-.07679.01965-.15357.02858-.22857.02858z"/><path d="m50.3114 36.28666c-.31964 0-.63036-.16786-.79821-.46786-.24643-.44107-.08929-.99821.35178-1.24464.54286-.30357.90714-.83036 1-1.44553.09286-.61607-.1-1.22768-.53036-1.67768-.34821-.36607-.33393-.94464.03214-1.29286.36429-.34822.94286-.33393 1.29286.03036.82143.86339 1.19107 2.03393 1.01429 3.21339-.17857 1.17768-.87679 2.18661-1.91607 2.76875-.14107.07857-.29464.11607-.44643.11607z"/></g></g></g></svg>