<svg width="200" height="200" xmlns="http://www.w3.org/2000/svg"><g transform="matrix(.27 0 0 .27 31.765 31.758)"><path d="M57.096 372.271c-76.128-76.128-76.128-199.555 0-275.683l39.492-39.492c76.128-76.128 199.555-76.128 275.683 0 76.128 76.128 76.128 199.555 0 275.683l-39.492 39.492c-76.128 76.127-199.555 76.127-275.683 0z" fill="#97de3d"/><path d="M373.469 58.257C345.38 30.189 298.241 17.23 248.045 29.075c-47.611 11.238-96.536 40.113-137.759 81.305-41.224 41.193-70.12 90.079-81.367 137.655-11.856 50.155 1.113 97.264 29.203 125.331 19.512 19.498 53.73 35.577 86.667 35.592l31.02-16.801 143.732-66.593c.988-.964 2.089-2.039 3.067-3.017 41.224-41.192 67.812-95.412 79.059-142.987 11.856-50.155-.109-93.234-28.198-121.303z" fill="#59c36a"/><ellipse cx="217.999" cy="218.001" fill="#97de3d" rx="222.85" ry="94.673" transform="rotate(-45 217.976 218.058)"/><ellipse cx="217.999" cy="218.001" fill="#59c36a" rx="222.85" ry="35.788" transform="rotate(-45 217.976 218.058)"/><path d="M375.545 60.455l-315.09 315.09c76.357 72.833 197.305 71.744 272.324-3.275l39.492-39.492c75.018-75.018 76.108-195.966 3.274-272.323z" fill="#59c36a"/><path d="M60.422 375.577c19.824 18.487 52.685 33.366 84.366 33.38l31.02-16.801 143.732-66.593c.989-.964 2.09-2.039 3.067-3.017 41.224-41.192 67.812-95.412 79.059-142.987 11.555-48.882.476-91.036-26.097-119.13z" fill="#00a66c"/><path d="M375.578 60.422L60.42 375.58c36.972 36.972 137.495-3.606 224.523-90.635 87.028-87.028 127.607-187.551 90.635-224.523z" fill="#59c36a"/><path d="M375.578 60.422L60.42 375.58c13.976 13.976 95.856-45.245 182.885-132.273S389.554 74.398 375.578 60.422z" fill="#00a66c"/><path d="M121.442 316.19v.532C121.442 424.398 209.045 512 316.721 512 424.398 512 512 424.398 512 316.721v-.532h-42.224L313.442 358l-150-41.81z" fill="#97de3d"/><path d="M469.776 316.19l-153.054 40.933V512C424.398 512 512 424.398 512 316.721v-.532h-42.224z" fill="#59c36a"/><path d="M163.661 316.19v.417c0 84.398 68.663 153.06 153.06 153.06s153.06-68.663 153.06-153.06v-.417z" fill="#fc445f"/><path d="M316.721 316.19v153.477c84.397 0 153.06-68.663 153.06-153.06v-.417zm-55.08 57.603c-5.878 5.878-15.407 5.878-21.285 0s-5.878-15.407 0-21.285 30.613-9.328 30.613-9.328-3.45 24.735-9.328 30.613zm40.029 17.766c0 8.312 6.739 15.051 15.051 15.051v-43.294s-15.051 19.931-15.051 28.243z" fill="#e1105a"/><path d="M316.721 363.316v43.294c8.312 0 15.051-6.739 15.051-15.051s-15.051-28.243-15.051-28.243zm55.081 10.477c5.878 5.878 15.407 5.878 21.285 0s5.878-15.407 0-21.285-30.613-9.328-30.613-9.328 3.45 24.735 9.328 30.613z" fill="#a1073d"/></g></svg>