<svg width="200" height="200" xmlns="http://www.w3.org/2000/svg"><path d="M30.461 105.75c-13.469-13.599-13.228-39.241 2.594-55.207 15.822-15.966 41.234-16.21 54.709-2.618a26.359 26.359 0 017.36 14.679c.706 4.691-3.504 8.654-8.099 7.642-6.173-1.359-13.069-.527-19.171 2.622l22.749 15.625c5.165 3.548 5.855 10.959 1.439 15.416l-6.101 6.157c-4.417 4.457-11.762 3.76-15.278-1.451L55.178 85.659c-3.121 6.157-3.944 13.115-2.597 19.344 1.003 4.637-2.924 8.884-7.574 8.172a25.935 25.935 0 01-14.546-7.425zm0 0" stroke="#ddab60" fill="#fff3dd"/><path d="M126.009 141.182c-.194 18.171-17.572 35.146-38.79 35.146-21.219 0-38.242-16.975-38.056-35.146a25.138 25.138 0 014.972-14.773c2.683-3.611 8.136-3.421 10.506.353 3.182 5.072 8.316 9.167 14.479 11.177l-4.602-25.785c-1.045-5.853 3.473-11.273 9.396-11.273h8.183c5.923 0 10.328 5.42 9.162 11.273l-5.14 25.785c6.204-2.01 11.423-6.105 14.713-11.177 2.447-3.774 7.904-3.966 10.512-.353 2.986 4.135 4.722 9.242 4.665 14.773zm0 0" transform="matrix(-.95253 .3017 -.30721 -.95253 213.595 244.205)" stroke="#ddab60" fill="#fff"/><path d="M172.205 92.483c.202 18.165-16.814 35.134-38.038 35.134-21.226 0-38.624-16.969-38.833-35.134-.063-5.529 1.67-10.636 4.652-14.769 2.605-3.61 8.065-3.42 10.517.354 3.294 5.07 8.518 9.164 14.728 11.173l-5.165-25.776c-1.172-5.852 3.23-11.27 9.154-11.27h8.186c5.925 0 10.449 5.418 9.41 11.27l-4.581 25.776c6.163-2.009 11.294-6.103 14.475-11.173 2.366-3.774 7.821-3.965 10.507-.354a25.137 25.137 0 014.988 14.769zm0 0" transform="matrix(-.94286 -.33018 .3362 -.94286 229.67 218.843)" stroke="#ddab60" fill="#fff7ec"/></svg>