<svg viewBox="0 0 511.52 511.52" xmlns="http://www.w3.org/2000/svg"><path d="M284.454 99.83c-91.489 97.733-139.069 226.232-130.068 358.001 2.685-.167 5.356-.32 8.041-.487-8.863-129.756 37.991-256.291 128.083-352.537-2.014-1.655-4.042-3.309-6.056-4.977z" fill="#f3c432"/><g fill="#e4bb18"><path d="M105.654 246.834c-21.084 59.376 10.522 113.763 55.856 117.47 6.617-51.259-12.865-102.543-55.856-117.47z"/><path d="M262.589 295.656c-14.783 40.575-55.458 72.559-101.08 68.648 7.44-54.272 58.486-83.614 101.08-68.648zM147.905 155.474c-31.784 55.042-10.672 113.328 33.25 124.42 15.947-48.975 6.289-102.708-33.25-124.42zm145.44 73.676c-22.098 37.561-68.007 62.094-112.19 50.758 17.304-51.81 73.008-72.457 112.19-50.759zM207.391 71.347c-41.963 49.284-32.044 110.096 9.097 128.255 24.866-45.564 25.715-100.35-9.097-128.255zm129.26 96.567c-29.044 33.586-78.789 50.13-120.15 31.688 26.743-48.129 85.681-59.555 120.15-31.688zM347.31 47.84c-11.604 47.373-49.252 86.205-97.997 100.504-5.343-48.411 45.128-100.388 97.997-100.503z"/></g><path d="M181.73 376.55c-7.068 3.86-13.48 9.183-19.056 15.12a459.296 459.296 0 00-1.288 38.409c3.617-18.723 13.248-33.882 25.496-43.718 18.536-15.081 38.552-16.915 59.98-13.76-21.88-6.823-42.882-8.285-65.131 3.95zm-44.223 8.644c6.151 5.412 11.55 11.888 16.344 18.506a465.52 465.52 0 00-.246 39.126c-4.521-19.3-12.714-35.305-22.99-47.808-17.987-21.853-36.51-27.752-55.663-28.996 20.263-3.026 40.498-.423 62.555 19.172zm264.905-161.726c-59.691 63.762-90.736 147.607-84.872 233.593l5.247-.308c-5.781-84.665 24.797-167.24 83.57-230.027-1.301-1.09-2.63-2.168-3.945-3.258z" fill="#f3c432"/><g fill="#ffd83b"><path d="M285.756 319.393c-13.755 38.742 6.863 74.227 36.442 76.65 4.315-33.458-8.398-66.916-36.442-76.65z"/><path d="M388.15 351.236c-9.645 26.469-36.196 47.347-65.952 44.795 4.85-35.408 38.155-54.554 65.952-44.795zm-74.844-91.462c-20.741 35.907-6.96 73.944 21.701 81.19 10.412-31.958 4.11-67.02-21.7-81.19zm94.901 48.078c-14.413 24.507-44.375 40.511-73.2 33.112 11.303-33.805 47.65-47.283 73.2-33.112zm-56.074-102.966c-27.387 32.163-20.907 71.841 5.932 83.678 16.22-29.727 16.782-65.48-5.932-83.678zm84.337 63.005c-18.947 21.917-51.402 32.715-78.405 20.673 17.454-31.394 55.923-38.845 78.405-20.673zm6.96-78.343c-7.563 30.907-32.14 56.247-63.938 65.57-3.494-31.586 29.427-65.493 63.938-65.57z"/></g><path d="M335.391 404.033c-4.617 2.514-8.795 5.989-12.44 9.875-.63 8.31-.918 16.671-.835 25.058 2.37-12.311 8.644-22.109 16.632-28.534 11.891-9.682 24.824-11.08 39.14-8.977-13.905-4.347-27.687-5.578-42.497 2.578zm-28.866 5.63c4.014 3.54 7.535 7.759 10.672 12.08a304.672 304.672 0 00-.164 25.52c-2.96-12.657-8.302-23.032-15.002-31.2-11.617-14.107-23.7-18.096-36.319-18.917 13.276-1.974 26.524-.192 40.813 12.517z" fill="#f3c432"/></svg>