<svg height="511pt" viewBox="0 -15 511.997 511" width="511pt" xmlns="http://www.w3.org/2000/svg"><path d="M219.045 55.588c64.596 0 95.304 47.043 95.304 76.444l-171.547-29.401c0-29.107 40.663-47.043 76.243-47.043z" fill="#7ab9e8"/><path d="M301.582 129.845l12.768 2.187c0-29.401-30.708-76.444-95.304-76.444-2.015 0-4.046.06-6.085.174 58.55 3.009 87.208 45.649 88.621 74.083z" fill="#61aae4"/><path d="M98.327 149.674c0-5.88 51.203-70.564 114.366-70.564 63.161 0 114.365 64.684 114.365 70.564 0 5.881-51.204 70.564-114.365 70.564-63.163 0-114.366-64.683-114.366-70.564z" fill="#d1e5f5"/><path d="M125.329 146.734c0-4.054 3.563-7.35 7.942-7.35 4.38 0 7.942 3.297 7.942 7.35 0 4.053-3.562 7.35-7.942 7.35-4.379 0-7.942-3.297-7.942-7.35z" fill="#7ab9e8"/><path d="M133.271 139.383a8.427 8.427 0 00-3.177.618c2.802 1.137 4.766 3.725 4.766 6.733 0 3.007-1.964 5.595-4.766 6.732a8.446 8.446 0 003.177.617c4.38 0 7.942-3.297 7.942-7.349 0-4.054-3.562-7.351-7.942-7.351z" fill="#61aae4"/><path d="M284.851 212.662c-16.59-9.264-27.684-26.107-27.684-45.346 31.582 0 57.183 23.693 57.183 52.922-10.792 0-20.886-2.767-29.499-7.576" fill="#7ab9e8"/><path d="M301.625 218.922a61.85 61.85 0 0012.724 1.316c0-29.229-25.6-52.923-57.182-52.923 0 .44.006.88.018 1.317 25.012 5.261 43.791 25.694 44.44 50.29z" fill="#61aae4"/><path d="M384.24 96.75c0 29.23-25.602 52.924-57.184 52.924 0-29.229 25.602-52.923 57.183-52.923zm0 105.848c-31.582 0-57.184-23.695-57.184-52.924 31.582 0 57.183 23.695 57.183 52.924z" fill="#98c8ed"/><path d="M371.514 98.068c-.649 24.596-19.429 45.029-44.44 50.29-.01.437-.017.876-.017 1.316 31.581 0 57.183-23.694 57.183-52.923-4.375 0-8.633.456-12.726 1.317zm0 103.212a61.781 61.781 0 0012.725 1.317c0-29.229-25.601-52.923-57.183-52.923 0 .44.007.879.018 1.317 25.011 5.261 43.79 25.694 44.44 50.289z" fill="#7ab9e8"/><path d="M158.848 93.933c16.047-8.674 34.375-14.823 53.845-14.823 63.161 0 114.365 64.684 114.365 70.564 0 5.881-51.204 70.564-114.365 70.564-19.47 0-37.798-6.149-53.845-14.824 4.711-14.294 9.369-33.937 9.369-55.74 0-21.803-4.659-41.446-9.369-55.741z" fill="#b4d8f1"/><path d="M167.694 136.957c30.643-15.539 69.874-11.304 95.827 12.717-25.953 24.02-65.184 28.257-95.827 12.717.332-4.138.523-8.383.523-12.717 0-4.335-.191-8.578-.523-12.717z" fill="#98c8ed"/><path d="M197.185 128.304c17.464 1.858 34.401 8.972 47.798 21.37-13.397 12.399-30.333 19.512-47.798 21.369 23.622 2.516 48.215-4.597 66.336-21.369-18.121-16.771-42.714-23.884-66.336-21.37z" fill="#7ab9e8"/><path d="M212.693 79.11c-3.218 0-6.403.17-9.553.49 58.712 5.926 104.857 64.491 104.857 70.074 0 5.582-46.145 64.147-104.857 70.073 3.15.32 6.335.491 9.553.491 63.161 0 114.365-64.683 114.365-70.564 0-5.88-51.204-70.564-114.365-70.564z" fill="#98c8ed"/><path d="M133.27 139.383c-4.38 0-7.941 3.298-7.941 7.35s3.562 7.35 7.942 7.35 7.941-3.296 7.941-7.35-3.562-7.35-7.941-7.35z"/><path d="M350.876 149.674c22.37-8.656 38.128-29.117 38.128-52.923 0-2.436-2.133-4.41-4.765-4.41-29.125 0-53.616 18.7-60.202 43.808-.691-.863-4.011-4.808-4.956-5.873-.613-16.885-9.956-36.075-24.697-50.52-13.303-13.038-37.174-28.579-75.339-28.579-28.318 0-56.788 10.602-70.844 26.383-1.674 1.88-1.384 4.659.646 6.208 2.031 1.55 5.034 1.281 6.708-.597 12.346-13.86 37.86-23.173 63.49-23.173 53.534 0 80.864 32.844 88.363 58.284a201.204 201.204 0 00-10.695-9.402c-19.089-15.593-49.16-34.181-84.021-34.181-57.183 0-102.134 50.418-109.14 58.762-6.63 7.894-9.992 13.348-9.992 16.213s3.362 8.32 9.99 16.213c7.007 8.344 52.594 58.762 109.14 58.762 34.862 0 64.934-18.588 84.022-34.181.36-.294.718-.593 1.077-.89 6.583 7.449 10.582 16.456 11.56 26.03-7.795-.687-15.329-2.977-22.037-6.722-2.253-1.258-5.182-.587-6.542 1.498-1.36 2.086-.635 4.795 1.618 6.054 9.619 5.372 20.67 8.21 31.96 8.21 2.632 0 4.765-1.974 4.765-4.41 0-13.545-5.07-26.42-14.363-36.711 6.26-5.697 12.145-11.764 17.08-17.64.782-.93 1.515-1.825 2.206-2.688 6.585 25.108 31.077 43.808 60.202 43.808 2.632 0 4.765-1.974 4.765-4.41.001-23.806-15.758-44.267-38.127-52.923zm28.36-48.294c-2.368 23.064-22.258 41.472-47.178 43.665 2.37-23.064 22.26-41.472 47.179-43.665zM103.27 149.674c1.993-4.118 13.944-20.02 33.362-35.517 4.777-3.813 10.296-7.824 16.422-11.643 3.396 7.616 10.397 25.89 10.397 47.16 0 21.271-7.002 39.546-10.397 47.161-6.126-3.819-11.645-7.83-16.422-11.643-19.418-15.498-31.368-31.4-33.362-35.518zm109.422 66.154c-19.007 0-36.622-6.212-51.449-14.23 2.489-5.31 7.472-17.265 10.072-32.62 9.918 4.127 20.728 6.505 31.632 6.917.067.002.132.004.198.004 2.541 0 4.653-1.858 4.757-4.23.108-2.434-1.937-4.487-4.567-4.586-10.695-.404-21.287-2.935-30.818-7.334.295-3.26.463-6.625.463-10.075 0-3.452-.168-6.819-.464-10.08 27.483-12.698 61.003-8.608 84.038 10.082-9.284 7.55-20.398 12.892-32.414 15.543-2.56.565-4.14 2.944-3.53 5.313.521 2.026 2.475 3.39 4.631 3.39a5.22 5.22 0 001.11-.122c15.325-3.382 29.343-10.646 40.538-21.007 1.86-1.722 1.86-4.515 0-6.237-13.338-12.344-30.242-20.106-48.886-22.447-15.847-1.99-32.186.231-46.69 6.258-2.6-15.352-7.583-27.307-10.071-32.617 14.827-8.017 32.441-14.23 51.45-14.23 61.841 0 107.164 61.843 109.421 66.155-1.992 4.117-48.002 66.153-109.42 66.153zm119.368-61.524c24.92 2.193 44.81 20.6 47.178 43.664-24.92-2.193-44.809-20.6-47.178-43.664z"/><path d="M435.925 294.992c0 43.299-32.115 78.728-71.364 78.728h-41.872c-10.874 0-21.209-2.722-30.454-7.581-26.7-14.006-40.91-43.069-40.91-71.147 0-20.565 8.765-38.98 22.386-50.912 7.834-6.871 13.992-15.57 18.183-25.303 3.021-7.007 5.02-14.542 5.909-22.336.348-3.039.523-6.122.523-9.227 0-27.483 20.39-49.965 45.3-49.965 12.457 0 23.784 5.621 31.993 14.677 8.211 9.058 13.305 21.549 13.305 35.288 0 22.086 8.949 43.122 24.621 56.866 6.803 5.966 12.402 13.555 16.296 22.217 3.893 8.671 6.084 18.413 6.084 28.695zm0 0" fill="#35e298"/><path d="M339.776 270.033c-.554 14.891-5.477 29.475-13.88 42.772l-33.661 53.334c-26.7-14.006-40.91-43.069-40.91-71.147 0-20.565 8.767-38.98 22.389-50.912 7.831-6.871 13.989-15.57 18.182-25.303 3.019-7.007 5.018-14.542 5.907-22.336 13.339 6.238 27.575 17.85 36.087 39.406 4.391 11.122 6.323 22.676 5.886 34.186zm0 0" fill="#1ab975"/><path d="M398.834 297.702c0 25.881-24.075 46.861-53.772 46.861-29.699 0-53.772-20.98-53.772-46.861 0-25.882 24.073-46.862 53.772-46.862 29.697 0 53.772 20.98 53.772 46.862zm0 0" fill="#ae583e"/><path d="M338.356 251.201c-47.463 5.148-63.968 57.985-26.282 83.508l13.822-21.904c8.403-13.297 13.326-27.881 13.88-42.772a83.64 83.64 0 00-1.42-18.832zm0 0" fill="#7c3f2c"/><path d="M294.263 312.805l-39.072 61.907c-10.106 14.43-33.096 19.669-51.237 11.427-9.296-4.228-20.266-4.228-29.572 0-17.725 8.051-40.855 3.368-51.231-11.427l-39.077-61.907c-16.008-25.352-17.616-52.55-7.997-76.96 12.008-30.413 35.432-41.024 51.612-44.689 7.428-1.684 13.335-1.905 15.916-1.905.92 0 1.415.026 1.415.026 7.315 0 14.326 1.072 20.788 3.027 6.454 1.955 12.379 4.799 17.524 8.343 1.679 1.25 3.76 1.881 5.838 1.881 2.083 0 4.161-.631 5.844-1.881 5.144-3.544 11.058-6.388 17.52-8.343 6.465-1.955 13.466-3.027 20.787-3.027 0 0 49.474-2.747 68.939 46.568 9.695 24.568 7.921 51.77-7.997 76.96zm0 0" fill="#c42d2d"/><path d="M294.263 312.805l-39.072 61.907c-10.106 14.43-33.096 19.669-51.237 11.427-9.296-4.228-20.266-4.228-29.572 0-4.991 2.265-10.326 3.49-15.539 3.811-.3-.519-31.323-59.982-39.236-75.14-23.657-45.325-14.485-95.833 8.082-123.654 7.428-1.684 13.335-1.905 15.916-1.905.92 0 1.415.026 1.415.026 7.315 0 14.326 1.072 20.788 3.027 6.454 1.955 12.379 4.799 17.524 8.343 1.679 1.25 3.76 1.881 5.838 1.881 2.083 0 4.161-.631 5.844-1.881 5.144-3.544 11.058-6.388 17.52-8.343 6.465-1.955 13.466-3.027 20.787-3.027 0 0 49.474-2.747 68.939 46.568 9.695 24.568 7.921 51.77-7.997 76.96zm0 0" fill="#f44545"/><path d="M118.693 328.212c-6.235 2.867-8.619 9.593-5.329 15.025 3.855 6.37 8.732 11.901 14.127 16.693l-42.56-4.133c-7.005-.682-13.314 3.715-14.097 9.818-.779 6.105 4.265 11.602 11.271 12.285l42.559 4.131c-6.47 3.639-12.626 8.1-17.997 13.575-4.581 4.666-3.951 11.686 1.403 15.677 5.357 3.992 13.408 3.444 17.989-1.222 14.581-14.859 41.011-21.228 63.38-21.867 8.876-.249 14.771-8.167 11.377-15.336-1.537-3.253-4.845-5.804-9.014-6.616-.405-.081-40.844-8.571-55.871-33.385-3.29-5.432-11.009-7.51-17.238-4.645zm0 0" fill="#1ab975"/><path d="M434.51 400.992c-1.82 14.243-15.625 25.032-32.076 25.056-94.312.16-28.395.05-180.195.304-31.536.05-56.103-23.831-52.611-51.141.768-5.999 2.822-11.58 5.87-16.575 9.046-14.785 26.941-24.386 46.566-24.386 3.893 0 7.861.374 11.835 1.169 133.75 26.631 144.124 28.694 152.812 30.425l10.912 2.174 11.948 2.381c13.037 2.586 22.564 11.781 24.689 22.779.495 2.524.593 5.147.25 7.814zm0 0" fill="#ffa90b"/><path d="M434.26 393.178c-5.923 6.748-15.252 11.052-25.629 11.063-94.307.164-28.39.054-180.186.304-29.509.045-52.91-20.849-52.947-45.909 9.046-14.785 26.938-24.386 46.563-24.386 2.112 0 4.235.111 6.375.341 1.815.188 3.644.468 5.463.828l5.455 1.082c141.272 28.137 15.33 3.055 147.357 29.343l10.912 2.174 11.948 2.381c13.037 2.586 22.564 11.781 24.689 22.779zm0 0" fill="#ffb52d"/><path d="M84.384 360.61c.025.003.058.006.09.011l-.09-.011zm.216.024c.018 0 .029.002.035.002-.006 0-.015-.002-.035-.002zm0 0"/><path d="M410.807 367.47l-4.1-.82c39.74-28.374 48.208-91.372 10.778-124.197-14.407-12.624-23.008-32.607-23.008-53.452 0-30.217-22.808-54.806-50.851-54.806-28.035 0-50.85 24.589-50.85 54.806a75.84 75.84 0 01-2.704 20.07c-26.123-26.274-67.609-29.288-95.348-12.49l-.299-10.417c.677-1.935-2.487-4.962-5.553-4.839-3.067.122-5.552 2.167-5.552 4.839l.298 10.417c-32.608-19.747-87.212-12.657-109.643 32.367-1.222 2.454.074 5.298 2.887 6.363 2.812 1.064 6.078-.058 7.301-2.511 20.528-41.198 69.615-44.528 95.651-26.655 5.421 3.973 13.325 3.954 18.713 0 29.642-20.347 80.916-11.491 98.483 33.023 9.444 23.974 7.558 49.043-8.837 74.98a3378.365 3378.365 0 00-16.31 25.655c-34.389-6.455-39.294-8.813-50.999-8.592-3.064.053-5.499 2.257-5.433 4.929.057 2.677 2.581 4.806 5.661 4.741a54.426 54.426 0 016.714.311l-3.332 26.062c-.34 2.654 1.857 5.047 4.905 5.343 3.059.296 5.794-1.626 6.134-4.273l3.22-25.194c22.179 4.412 36.615 7.289 53.813 10.714l-1.59 12.43c-.34 2.656 1.857 5.047 4.906 5.345 3.059.293 5.794-1.626 6.13-4.274l1.449-11.33c3.428.684 82.234 16.372 83.224 16.569l-4.288 33.548c-.339 2.656 1.855 5.048 4.903 5.345 3.059.294 5.794-1.627 6.133-4.273l4.15-32.453 10.775 2.152c13.356 2.656 22.175 13.469 20.652 25.34-1.51 11.804-12.931 20.728-26.561 20.754l-56.83.094 2.019-15.777c.339-2.656-1.854-5.049-4.903-5.345-3.051-.295-5.794 1.617-6.133 4.273l-2.156 16.87-54.472.09 1.897-14.833c.34-2.654-1.857-5.047-4.905-5.342-3.04-.298-5.79 1.615-6.131 4.271-.472 3.698-1.987 15.531-2.032 15.924l-26.078.043 3.3-25.82c.339-2.654-1.857-5.046-4.905-5.344-3.051-.297-5.792 1.618-6.133 4.274l-3.44 26.909h-.126.002-.074l-9.196.015c-21.794 0-40.477-12.955-45.787-30.857-5.449-18.287 4.093-38.705 25.569-47.598 2.77-1.148 3.951-4.032 2.634-6.446-1.317-2.413-4.626-3.446-7.395-2.298-10.824 4.479-19.558 11.537-25.369 20.168-11.237-4.883-24.091-12.567-30.946-23.884-8.859-14.665-34.412-9.156-34.498 7.4l-17.397-27.561c-11.924-18.883-16.292-40.074-11.102-61.946.621-2.62-1.311-5.18-4.315-5.721-3.006-.542-5.938 1.14-6.559 3.761-5.569 23.47-1.341 47.049 12.243 68.572l23.72 37.572-17.382-1.689c-10.059-.975-19.108 5.325-20.226 14.096-1.117 8.741 6.13 16.652 16.168 17.624l28.781 2.794c-7.137 5.569-12.883 10.616-12.16 18.575 1.247 14.065 21.558 19.929 32.172 9.128 8.735-8.907 22.386-14.411 36.222-17.381 7.523 20.491 29.612 35.366 55.627 35.366 8.46-.011 170.096-.285 180.312-.302 20.989-.033 37.823-14.855 37.823-33.044-.004-15.481-12.116-28.708-29.461-32.158zm-18.581-3.704l-109.068-21.717a2628.244 2628.244 0 0110.541-16.694c10.282 15.436 29.456 25.837 51.363 25.837 28.182 0 52.651-17.457 58.172-41.509.6-2.62-1.355-5.168-4.36-5.688-3.013-.525-5.929 1.172-6.53 3.79-4.486 19.541-24.37 33.73-47.282 33.73-20.284 0-37.681-10.975-44.795-26.464 9.225-15.302 13.645-31.471 13.494-47.509 27.859-20.759 70.81-7.665 78.427 23.005.652 2.614 3.598 4.273 6.602 3.704 3-.566 4.903-3.142 4.25-5.754-2.82-11.361-10.104-21.691-20.49-29.084-19.738-14.035-47.944-15.619-69.669-3.343-1.848-12.715-6.7-25.969-14.451-37.01 3.562-9.354 5.448-19.536 5.448-30.059 0-22.326 15.956-45.127 39.748-45.127 23.536 0 39.746 22.496 39.746 45.127 0 23.692 9.564 45.659 26.236 60.278 28.916 25.34 26.119 72.387.997 100.099-5.454 6.021-11.665 10.86-18.379 14.388zm-228.084 24.315c-15.818 3.352-31.823 9.943-42.299 20.619-2.584 2.632-7.145 2.942-10.164.692-3.029-2.266-3.382-6.224-.794-8.854 4.837-4.925 10.625-9.209 16.79-12.658 4.37-2.463 2.787-8.37-2.398-8.871-4.808-.465-38.92-3.78-42.557-4.134-3.949-.381-6.805-3.497-6.37-6.935.438-3.4 3.933-5.929 7.968-5.547l.066.004-.031-.002c.025.002.068.005.132.013-.004 0-.009 0-.011-.004.06.009.103.011.128.014a.502.502 0 01-.08-.008l38.46 3.737c1.766-.099 7.146 1.894 9.498-2.311 1.03-1.844.615-4.045-1.029-5.51-5.389-4.787-9.823-10.025-13.176-15.56-1.861-3.065-.504-6.871 3.005-8.491h.006c3.549-1.625 7.876-.431 9.736 2.627 8.181 13.509 23.185 22.496 36.097 28.089-2.948 7.246-4.052 15.294-2.977 23.09z"/></svg>