<svg id="Capa_1" enable-background="new 0 0 511.984 511.984" height="512" viewBox="0 0 511.984 511.984" width="512" xmlns="http://www.w3.org/2000/svg"><g><g><g><path d="m467.238 261.614c-63.242-4.61-126.484-4.61-189.726 0-17.751 1.294-32.044 15.201-33.655 32.926-4.799 52.788-4.799 105.577 0 158.366 1.611 17.725 15.904 31.632 33.655 32.926 63.242 4.61 126.484 4.61 189.726 0 17.751-1.294 32.044-15.202 33.655-32.926 4.799-52.789 4.799-105.577 0-158.366-1.611-17.725-15.904-31.632-33.655-32.926z" fill="#ececec"/></g><g><path d="m246.975 173.475-27.966 74.636-9.965 26.59c-4.882 12.999-17.961 21.035-31.763 19.488l-61.869-6.931-.06-47.836-.08-65.947z" fill="#db5b6f"/><path d="m246.975 173.475-27.966 74.636c-30.789-1.245-67.524-3.747-103.657-8.689l-.08-65.947z" fill="#d54653"/><path d="m173.594 236.007c-40.914 63.084-47.243 139.037-47.243 139.037l9.252 9.241c6.449 6.459 9.885 15.088 9.885 23.878 0 4.229-.794 8.488-2.431 12.567-5.886 14.666-21.165 23.264-36.765 20.743-31.813-5.143-54.897-18.162-66.952-26.449-5.997-4.119-9.573-10.939-9.473-18.212 1.125-76.545 13.832-139.569 23.205-176.063 5.615-21.889 10.035-34.234 10.035-34.234l137.65 15.62c-10.427 10.427-19.418 21.918-27.163 33.872z" fill="#407093"/><path d="m200.757 202.134c-10.427 10.427-19.417 21.919-27.162 33.873-38.343-2.431-81.688-6.951-120.523-15.259 5.615-21.889 10.035-34.234 10.035-34.234z" fill="#365e7d"/><path d="m200.75 202.137c-3.827 3.827-7.464 7.795-10.909 11.884l-107.615-12.216s-31.442 87.866-33.24 210.308c-.05 3.687.844 7.263 2.531 10.427-4.832-2.682-8.91-5.274-12.175-7.514-5.997-4.119-9.573-10.939-9.473-18.212 1.798-122.442 33.24-210.298 33.24-210.298z" fill="#365e7d"/><path d="m358.948 76.367c-1.604 27.161-5.844 67.283-16.909 106.223-4.265 15.011-17.96 25.364-33.565 25.269-42.479-.257-129.832-3.067-195.053-20.332-12.474-3.302-22.046-13.317-24.845-25.914-3.551-15.982-8.037-40.321-10.08-68.376-1.256-17.249 10.459-32.752 27.377-36.343 43.109-9.15 129.641-23.687 221.033-17.118 18.893 1.36 33.159 17.683 32.042 36.591z" fill="#db5b6f"/><path d="m343.289 178.046c-.402 1.517-.824 3.034-1.256 4.54-4.259 15.018-17.961 25.364-33.561 25.274-42.481-.261-129.835-3.064-195.059-20.332-12.466-3.305-22.039-13.32-24.842-25.917-3.546-15.982-8.036-40.322-10.075-68.378-.774-10.588 3.345-20.523 10.558-27.444-.382 2.491-.492 5.053-.301 7.655 2.049 28.057 6.529 52.396 10.085 68.378 2.793 12.597 12.366 22.612 24.842 25.907 65.224 17.268 152.577 20.081 195.049 20.332 9.442.06 18.181-3.706 24.56-10.015z" fill="#d54653"/><path d="m323.938 70.401c-1.809 30.637-6.592 75.893-19.072 119.816-4.811 16.932-20.259 28.609-37.861 28.503-47.916-.29-146.446-3.46-220.014-22.934-14.071-3.725-24.867-15.021-28.024-29.23-4.005-18.028-9.065-45.481-11.37-77.126-1.417-19.456 11.797-36.943 30.88-40.993 48.626-10.321 146.231-26.718 249.318-19.308 21.311 1.531 37.403 19.943 36.143 41.272z" fill="#407093"/><path d="m106.974 207.742c-20.784-3.074-41.196-6.981-59.98-11.954-14.073-3.727-24.872-15.017-28.026-29.232-4.008-18.021-9.071-45.475-11.371-77.127-1.417-19.447 11.792-36.936 30.878-40.984 12.416-2.632 28.016-5.666 46.088-8.599-5.083 1.005-9.814 1.979-14.184 2.903-20.543 4.36-34.767 23.175-33.24 44.119 2.481 34.063 7.926 63.616 12.245 83.024 3.395 15.289 15.018 27.454 30.156 31.462 8.85 2.34 18.031 4.459 27.434 6.388z" fill="#365e7d"/><path d="m262.503 135.912h-192.322c-7.072 0-12.806-5.733-12.806-12.806 0-7.072 5.733-12.806 12.806-12.806h192.322c7.072 0 12.806 5.733 12.806 12.806-.001 7.073-5.734 12.806-12.806 12.806z" fill="#ececec"/></g><g fill="#ca7967"><path d="m408.603 122.755v2.078c0 7.328 5.674 13.404 12.984 13.905l22.486 1.542c8.054.552 14.892-5.832 14.892-13.905v-5.163c0-8.073-6.838-14.458-14.892-13.905l-22.486 1.542c-7.31.502-12.984 6.579-12.984 13.906z"/><path d="m391.251 189.592-1.039 1.799c-3.664 6.346-1.788 14.445 4.292 18.535l18.703 12.579c6.699 4.506 15.813 2.395 19.849-4.596l2.581-4.471c4.037-6.992 1.307-15.94-5.944-19.488l-20.245-9.907c-6.581-3.222-14.533-.797-18.197 5.549z"/><path d="m390.212 56.196 1.039 1.799c3.664 6.346 11.616 8.771 18.197 5.55l20.245-9.907c7.252-3.549 9.981-12.497 5.944-19.488l-2.581-4.471c-4.037-6.992-13.15-9.102-19.849-4.596l-18.703 12.579c-6.08 4.089-7.956 12.189-4.292 18.534z"/></g></g><g><path d="m508.37 293.86c-1.949-21.449-19.014-38.154-40.574-39.721-63.315-4.615-127.516-4.616-190.819 0-21.562 1.567-38.626 18.272-40.575 39.721-3.574 39.28-4.51 79.115-2.784 118.399.182 4.139 3.71 7.346 7.822 7.164 4.138-.182 7.346-3.684 7.164-7.822-1.697-38.614-.776-77.77 2.737-116.382 1.281-14.102 12.52-25.086 26.725-26.119 62.582-4.562 126.05-4.562 188.642 0 14.204 1.032 25.443 12.017 26.726 26.119 4.736 52.093 4.736 104.919 0 157.012-1.282 14.102-12.521 25.086-26.727 26.119-62.592 4.562-126.06 4.562-188.642 0-14.204-1.032-25.443-12.017-26.725-26.126-.333-3.628-.643-7.325-.92-10.988-.312-4.13-3.908-7.224-8.043-6.914-4.13.312-7.226 3.913-6.914 8.043.283 3.745.599 7.524.939 11.224 1.949 21.449 19.013 38.154 40.574 39.721 31.656 2.308 63.525 3.461 95.407 3.461 31.873 0 63.759-1.154 95.412-3.46 21.562-1.567 38.626-18.272 40.575-39.721 4.818-52.996 4.818-106.736 0-159.73z"/><path d="m296.175 441.932v-136.418c0-4.142-3.357-7.5-7.5-7.5s-7.5 3.358-7.5 7.5v136.417c0 4.142 3.357 7.5 7.5 7.5s7.5-3.357 7.5-7.499z"/><path d="m316.578 426.512c4.143 0 7.5-3.358 7.5-7.5v-113.498c0-4.142-3.357-7.5-7.5-7.5s-7.5 3.358-7.5 7.5v113.498c0 4.142 3.357 7.5 7.5 7.5z"/><path d="m344.48 426.512c4.143 0 7.5-3.358 7.5-7.5v-113.498c0-4.142-3.357-7.5-7.5-7.5s-7.5 3.358-7.5 7.5v113.498c0 4.142 3.358 7.5 7.5 7.5z"/><path d="m372.384 426.512c4.143 0 7.5-3.358 7.5-7.5v-113.498c0-4.142-3.357-7.5-7.5-7.5s-7.5 3.358-7.5 7.5v113.498c0 4.142 3.357 7.5 7.5 7.5z"/><path d="m309.078 441.932c0 4.142 3.357 7.5 7.5 7.5s7.5-3.358 7.5-7.5v-.52c0-4.142-3.357-7.5-7.5-7.5s-7.5 3.358-7.5 7.5z"/><path d="m336.98 441.932c0 4.142 3.357 7.5 7.5 7.5s7.5-3.358 7.5-7.5v-.52c0-4.142-3.357-7.5-7.5-7.5s-7.5 3.358-7.5 7.5z"/><path d="m364.884 441.932c0 4.142 3.357 7.5 7.5 7.5s7.5-3.358 7.5-7.5v-.52c0-4.142-3.357-7.5-7.5-7.5s-7.5 3.358-7.5 7.5z"/><path d="m420.69 441.932c0 4.142 3.357 7.5 7.5 7.5s7.5-3.358 7.5-7.5v-.52c0-4.142-3.357-7.5-7.5-7.5s-7.5 3.358-7.5 7.5z"/><path d="m448.594 441.932c0 4.142 3.357 7.5 7.5 7.5s7.5-3.358 7.5-7.5v-.52c0-4.142-3.357-7.5-7.5-7.5s-7.5 3.358-7.5 7.5z"/><path d="m407.787 441.932v-136.418c0-4.142-3.357-7.5-7.5-7.5s-7.5 3.358-7.5 7.5v136.417c0 4.142 3.357 7.5 7.5 7.5s7.5-3.357 7.5-7.499z"/><path d="m428.19 426.512c4.143 0 7.5-3.358 7.5-7.5v-113.498c0-4.142-3.357-7.5-7.5-7.5s-7.5 3.358-7.5 7.5v113.498c0 4.142 3.358 7.5 7.5 7.5z"/><path d="m456.094 426.512c4.143 0 7.5-3.358 7.5-7.5v-113.498c0-4.142-3.357-7.5-7.5-7.5s-7.5 3.358-7.5 7.5v113.498c0 4.142 3.357 7.5 7.5 7.5z"/><path d="m266.964 226.219c.097 0 .192.001.289.001 11.21 0 21.737-4.078 29.946-10.984 3.595.055 7.294.097 11.239.125h.242c18.767-.001 35.436-12.604 40.587-30.725 11.272-39.683 15.563-80.539 17.179-107.827 1.351-22.894-16.141-42.864-39-44.517-4.925-.35-9.464-.621-13.823-.832-7.048-5.549-15.742-9.128-25.284-9.813-79.02-5.679-154.792 2.688-204.444 10.707-4.089.661-6.869 4.511-6.208 8.6.661 4.09 4.516 6.869 8.6 6.208 48.865-7.892 123.4-16.129 200.977-10.553 17.114 1.229 30.214 16.188 29.2 33.347-1.77 29.957-6.47 74.782-18.808 118.213-3.881 13.659-16.499 23.159-30.6 23.05-50.618-.306-146.266-3.66-218.134-22.68-11.395-3.021-20.062-12.065-22.621-23.608-3.851-17.314-8.923-44.562-11.221-76.044-1.132-15.616 9.601-29.851 24.962-33.11 5.831-1.234 11.369-2.357 16.932-3.434 4.067-.787 6.725-4.722 5.938-8.789-.787-4.066-4.725-6.726-8.789-5.938-5.649 1.094-11.271 2.234-17.191 3.487-22.656 4.806-38.483 25.816-36.811 48.872 2.364 32.389 7.58 60.41 11.538 78.207 3.776 17.037 16.583 30.393 33.423 34.857 1.552.411 3.119.812 4.691 1.208-9.253 32.569-26.096 103.579-27.397 192.461-.135 9.774 4.623 18.932 12.723 24.495 11.616 7.986 36.158 22.201 70.004 27.673 2.263.366 4.515.544 6.741.544 16.666 0 31.797-9.989 38.182-25.896 1.972-4.91 2.971-10.078 2.971-15.361 0-11.015-4.289-21.376-12.084-29.184l-6.712-6.706c1.16-9.766 5.418-39.37 17.405-73.412l24.85 2.78c1.423.16 2.839.238 4.244.238 15.605 0 29.78-9.643 35.378-24.546l19.361-51.655c11.703.33 22.348.485 31.525.541zm64.474-155.378c.498-8.428-1.325-16.49-4.895-23.571 14.625 1.15 25.794 13.967 24.927 28.655-1.57 26.54-5.73 66.232-16.633 104.611-3.301 11.611-13.919 19.703-25.898 19.814 1.279-2.56 2.343-5.257 3.146-8.082 12.709-44.734 17.539-90.724 19.353-121.427zm-210.378 309.509 9.245 9.235c4.96 4.968 7.692 11.565 7.692 18.578 0 3.359-.636 6.647-1.892 9.773-4.606 11.477-16.367 18.109-28.608 16.133-30.951-5.004-53.32-17.953-63.902-25.228-3.96-2.719-6.285-7.178-6.22-11.919 1.286-87.812 18.012-157.72 27.018-189.244 34.962 7.628 73.562 12.182 109.321 14.868-47.11 65.396-54.52 148.185-54.827 151.875-.184 2.2.611 4.369 2.173 5.929zm80.972-108.285c-3.682 9.804-13.513 15.835-23.908 14.671l-21.031-2.354c8.324-20.453 19.512-41.685 34.494-60.627 9.702.585 19.092 1.041 28.031 1.392z"/><path d="m49.884 123.107c0 11.197 9.109 20.306 20.306 20.306h192.322c11.196 0 20.306-9.109 20.306-20.306s-9.109-20.306-20.306-20.306h-192.322c-11.197-.001-20.306 9.109-20.306 20.306zm20.306-5.307h192.322c2.926 0 5.306 2.38 5.306 5.306s-2.38 5.306-5.306 5.306h-192.322c-2.926 0-5.306-2.38-5.306-5.306s2.38-5.306 5.306-5.306z"/><path d="m443.569 99.825-22.486 1.542c-11.198.768-19.971 10.163-19.971 21.388v2.078c0 11.225 8.772 20.62 19.971 21.388l22.486 1.542c.485.033.97.05 1.453.05 5.404 0 10.674-2.061 14.645-5.768 4.326-4.04 6.808-9.75 6.808-15.669v-5.163c0-5.918-2.481-11.629-6.807-15.668-4.325-4.041-10.197-6.127-16.099-5.72zm5.862 16.683c1.318 1.23 2.044 2.902 2.044 4.705v5.163c0 1.804-.726 3.475-2.044 4.706-1.319 1.231-3.041 1.84-4.834 1.717l-22.486-1.542c-3.363-.23-5.998-3.052-5.998-6.423v-2.078c0-3.371 2.635-6.192 5.998-6.423l22.485-1.542c.152-.01.305-.016.455-.016 1.633-.001 3.173.606 4.38 1.733z"/><path d="m390.327 216.149 18.703 12.579c3.559 2.394 7.753 3.646 11.988 3.646 1.608 0 3.224-.181 4.812-.548 5.766-1.335 10.771-5.041 13.73-10.167l2.581-4.471c2.959-5.126 3.666-11.312 1.939-16.974-1.727-5.661-5.767-10.399-11.082-13.001l-20.245-9.907c-10.083-4.935-22.376-1.184-27.989 8.536l-1.039 1.8c-5.612 9.721-2.711 22.243 6.602 28.507zm6.389-21.007 1.039-1.799c1.184-2.049 3.355-3.215 5.593-3.215.949 0 1.91.21 2.812.652l20.245 9.907c1.62.792 2.802 2.179 3.328 3.904s.319 3.536-.582 5.098l-2.581 4.47c-.902 1.562-2.366 2.647-4.124 3.054-1.759.408-3.549.076-5.045-.93l-18.703-12.579c-2.797-1.883-3.667-5.643-1.982-8.562z"/><path d="m383.725 59.947 1.039 1.799c3.94 6.825 11.174 10.706 18.623 10.706 3.161 0 6.362-.699 9.366-2.169l20.245-9.907c5.315-2.602 9.355-7.34 11.082-13.001s1.02-11.848-1.939-16.973l-2.581-4.472c-2.96-5.125-7.964-8.831-13.73-10.166-5.767-1.336-11.89-.206-16.8 3.097l-18.704 12.579c-9.312 6.263-12.212 18.785-6.601 28.507 0-.001 0 0 0 0zm14.973-16.062 18.703-12.579c1.497-1.006 3.286-1.337 5.046-.93 1.757.407 3.221 1.491 4.123 3.053l2.581 4.472c.901 1.562 1.108 3.372.582 5.097s-1.708 3.112-3.328 3.904l-20.245 9.908c-3.029 1.48-6.72.355-8.405-2.564l-1.039-1.798c-1.685-2.92-.815-6.682 1.982-8.563z"/></g></g></svg>