<svg height="512" viewBox="0 0 256 256" width="512" xmlns="http://www.w3.org/2000/svg"><path d="M221.4 81.42H14.989a9.487 9.487 0 00-9.48 9.48v115.92a9.487 9.487 0 009.48 9.48H221.4a9.481 9.481 0 009.48-9.48V90.9a9.481 9.481 0 00-9.48-9.48z" fill="#72c1e8"/><path d="M180.842 132.9a16.8 16.8 0 110-29.1 16.8 16.8 0 000 29.1z" fill="#fc5d3d"/><path d="M189.242 118.349a16.785 16.785 0 01-8.4 14.55 16.8 16.8 0 010-29.1 16.785 16.785 0 018.4 14.55z" fill="#f0ab20"/><path d="M206.042 118.349a16.813 16.813 0 01-25.2 14.55 16.8 16.8 0 000-29.1 16.813 16.813 0 0125.2 14.55z" fill="#f9e5af"/><rect fill="#f9e5af" height="32.195" rx="4.542" width="45.718" x="23.08" y="102.252"/><path d="M241.022 42.609H34.612a9.472 9.472 0 00-9.47 9.48v29.33h196.25a9.483 9.483 0 019.49 9.48v86.58h10.14a9.47 9.47 0 009.47-9.47V52.089a9.466 9.466 0 00-9.47-9.48z" fill="#afafaf"/><path d="M250.489 64.86v27.73h-19.61V90.9a9.481 9.481 0 00-9.48-9.48H25.139V64.86z" fill="#4c4945"/><path d="M248.023 22.787c-3.683-1.217-7.487-2.281-9.623-11.481-1.967 8.474-5.118 9.992-9.622 11.481 7.346 2.427 8.455 6.447 9.622 11.48 2.013-8.676 5.343-10.067 9.623-11.48zm-32.359-5.252c-3.683-1.217-7.487-2.281-9.622-11.481-1.967 8.474-5.119 9.992-9.623 11.481 7.347 2.427 8.455 6.447 9.623 11.48 2.013-8.676 5.342-10.066 9.622-11.48zM38.038 238.459c-3.683-1.217-7.487-2.281-9.622-11.48-1.968 8.473-5.119 9.992-9.623 11.48 7.346 2.428 8.455 6.448 9.623 11.481 2.012-8.677 5.342-10.067 9.622-11.481z" fill="#f0c020"/><path d="M218.835 207.292h-47.664a2.5 2.5 0 010-5h45.164V96.457a2.5 2.5 0 015 0v108.335a2.5 2.5 0 01-2.5 2.5zm-57.664 0h-.5a2.5 2.5 0 010-5h.5a2.5 2.5 0 010 5zM150.335 95.618h-3.255a2.5 2.5 0 010-5h3.255a2.5 2.5 0 010 5zm-13.255 0h-114a2.5 2.5 0 010-5h114a2.5 2.5 0 010 5z" fill="#c5e5ff"/><path d="M235.38 56.234h-3.98a2.5 2.5 0 010-5h3.983a2.5 2.5 0 010 5zm-13.983 0H41.4a2.5 2.5 0 010-5h180a2.5 2.5 0 010 5z" fill="#efefef"/><path d="M235.991 34.826a2.474 2.474 0 004.819 0c1.771-7.637 4.379-8.5 7.989-9.691a2.476 2.476 0 000-4.7c-3.468-1.142-6.176-1.881-7.99-9.691a2.475 2.475 0 00-4.818 0c-1.773 7.637-4.246 8.454-7.989 9.692a2.475 2.475 0 000 4.7c6.217 2.053 6.922 5.091 7.989 9.69zm2.419-16.3a12.612 12.612 0 003.7 4.279 12.239 12.239 0 00-3.658 4.129 12.852 12.852 0 00-3.873-4.095 12.266 12.266 0 003.831-4.309zm-42.767 1.358c6.218 2.054 6.922 5.092 7.989 9.69a2.474 2.474 0 004.819 0c1.772-7.636 4.38-8.5 7.989-9.69a2.476 2.476 0 000-4.7c-3.468-1.142-6.176-1.881-7.989-9.691a2.475 2.475 0 00-4.818 0c-1.774 7.637-4.247 8.455-7.99 9.692a2.476 2.476 0 000 4.699zm10.408-6.6a12.623 12.623 0 003.7 4.279 12.238 12.238 0 00-3.659 4.128 12.86 12.86 0 00-3.872-4.095 12.261 12.261 0 003.831-4.317zM26.006 250.5a2.474 2.474 0 004.819 0c1.771-7.637 4.38-8.5 7.989-9.691a2.476 2.476 0 000-4.7c-3.468-1.142-6.176-1.881-7.989-9.692a2.476 2.476 0 00-4.819 0c-1.773 7.638-4.246 8.455-7.989 9.692a2.476 2.476 0 000 4.7c6.217 2.053 6.922 5.091 7.989 9.691zm2.419-16.3a12.633 12.633 0 003.7 4.279 12.246 12.246 0 00-3.658 4.128 12.84 12.84 0 00-3.873-4.094 12.266 12.266 0 003.831-4.313zm-5.346-55.26a2.5 2.5 0 000 5h9.1a2.5 2.5 0 000-5h-2.05v-11.15a2.5 2.5 0 00-3.62-2.23l-4.28 2.15a2.5 2.5 0 00-1.121 3.35 2.561 2.561 0 003.361 1.12l.66-.33v7.09zm33.35-2.05v-4.55a7.045 7.045 0 10-14.09 0v4.55a7.045 7.045 0 1014.09 0zm-9.09 0v-4.55a2.045 2.045 0 114.09 0v4.55a2.045 2.045 0 11-4.09 0zm23.8-11.6a7.059 7.059 0 00-7.04 7.05v4.55a7.045 7.045 0 1014.089 0v-4.55a7.06 7.06 0 00-7.049-7.05zm2.049 11.6a2.05 2.05 0 11-4.1 0v-4.55a2.05 2.05 0 114.1 0zm15.161 2.05a2.5 2.5 0 100 5h9.1a2.5 2.5 0 100-5H95.4v-11.15a2.5 2.5 0 00-3.619-2.23l-4.28 2.15a2.494 2.494 0 00-1.11 3.35 2.532 2.532 0 003.35 1.11l.659-.33v7.1zm33.36-2.05v-4.55a7.051 7.051 0 00-14.1 0v4.55a7.051 7.051 0 0014.1 0zm-9.1 0v-4.55a2.051 2.051 0 014.1 0v4.55a2.051 2.051 0 01-4.1 0zm16.76 4.55a2.507 2.507 0 002.5 2.5h9.09a2.5 2.5 0 000-5h-2.05v-11.15a2.5 2.5 0 00-3.62-2.23l-4.28 2.15a2.491 2.491 0 00-1.111 3.35 2.545 2.545 0 003.361 1.11l.65-.33.007 7.1h-2.047a2.5 2.5 0 00-2.5 2.5zM97.03 198.243a2.5 2.5 0 002.5 2.5h43.489a2.5 2.5 0 000-5H99.53a2.5 2.5 0 00-2.5 2.5zm-73.062-2.5a2.5 2.5 0 100 5H84.56a2.5 2.5 0 000-5zm136.701-16.593a2.5 2.5 0 100 5h11.81a2.5 2.5 0 100-5zm33.57.01a2.5 2.5 0 100 4.99h11.8a2.5 2.5 0 100-4.99zm-10-13.38l-4.52 15.16a2.5 2.5 0 004.79 1.43l4.52-15.17a2.494 2.494 0 00-1.68-3.1 2.542 2.542 0 00-3.11 1.68z"/><path d="M22.642 52.089V78.92h-7.653A12 12 0 003.009 90.9v18.7a2.5 2.5 0 005 0V90.9a7.005 7.005 0 016.98-6.98H221.4a7.012 7.012 0 016.981 6.98v115.92a7 7 0 01-6.981 6.98H14.989a6.992 6.992 0 01-6.98-6.98V129.6a2.5 2.5 0 00-5 0v77.22a12 12 0 0011.98 11.98H221.4a12 12 0 0011.981-11.98v-26.841h7.642a11.983 11.983 0 0011.97-11.97V52.089a11.988 11.988 0 00-11.97-11.98H34.611a11.988 11.988 0 00-11.969 11.98zm225.349 115.92a6.978 6.978 0 01-6.97 6.97h-7.639v-79.89h14.609zm0-77.92h-14.637a12.039 12.039 0 00-11.962-11.17H27.642v-11.56h220.349zm0-38v10.27H27.642v-10.27a6.983 6.983 0 016.969-6.98h206.41a6.983 6.983 0 016.97 6.98z"/><circle cx="5.509" cy="119.6" r="2.5"/><path d="M123.148 131.95H92.9a2.5 2.5 0 100 4.99h30.25a2.5 2.5 0 100-4.99zM64.257 99.751H27.621a7.049 7.049 0 00-7.041 7.042v23.112a7.048 7.048 0 007.041 7.041h36.636a7.048 7.048 0 007.041-7.041v-23.112a7.049 7.049 0 00-7.041-7.042zm-38.677 7.042a2.044 2.044 0 012.041-2.042h5.867l3.8 6.417H25.58zm7.908 25.153h-5.867a2.044 2.044 0 01-2.041-2.041v-4.376h11.708zm5.412-11.417H25.58v-4.361H38.9zm9.432 4.241l4.25 7.176H39.3l4.25-7.176a2.5 2.5 0 00.35-1.27v-10.3a2.5 2.5 0 00-.348-1.274l-4.25-7.177h13.28l-4.25 7.177a2.5 2.5 0 00-.349 1.274v10.3a2.506 2.506 0 00.346 1.27zm17.968 5.135a2.044 2.044 0 01-2.041 2.041H58.39l-3.8-6.417H66.3zm0-9.376H52.98v-4.361H66.3zm0-9.361H54.59l3.8-6.417h5.867a2.044 2.044 0 012.041 2.042zm114.541-10.192a19.3 19.3 0 100 34.746 19.3 19.3 0 100-34.746zm-22.7 17.373a14.315 14.315 0 0117.705-13.89 19.285 19.285 0 000 27.779 14.314 14.314 0 01-17.704-13.889zm22.7 11.563a14.279 14.279 0 010-23.126 14.282 14.282 0 010 23.126zm4.994 2.327a19.289 19.289 0 000-27.78 14.3 14.3 0 110 27.78z"/></svg>