<svg viewBox="-40 0 512 512" xmlns="http://www.w3.org/2000/svg"><path d="M402.34 504.5H29.94c-12.393 0-22.44-10.047-22.44-22.441V29.94C7.5 17.547 17.547 7.5 29.941 7.5H402.34c12.394 0 22.441 10.047 22.441 22.441V482.06c0 12.394-10.047 22.441-22.441 22.441zm0 0" fill="#596674"/><path d="M37.5 482.059V29.94C37.5 17.547 47.547 7.5 59.941 7.5h-30C17.547 7.5 7.5 17.547 7.5 29.941V482.06c0 12.394 10.047 22.441 22.441 22.441h30c-12.394 0-22.441-10.047-22.441-22.441zm0 0" fill="#565c62"/><path d="M57.5 79.941v64.118c0 12.394 10.047 22.441 22.441 22.441H352.34c12.394 0 22.441-10.047 22.441-22.441V79.94c0-12.394-10.047-22.441-22.441-22.441H79.94C67.547 57.5 57.5 67.547 57.5 79.941zm0 0" fill="#85cdea"/><path d="M87.5 144.059V79.94c0-12.394 10.047-22.441 22.441-22.441h-30C67.547 57.5 57.5 67.547 57.5 79.941v64.118c0 12.394 10.047 22.441 22.441 22.441h30c-12.394 0-22.441-10.047-22.441-22.441zm0 0" fill="#78b7d2"/><path d="M79.941 201.5H176.2c12.395 0 22.442 10.047 22.442 22.441v64.118c0 12.394-10.047 22.441-22.442 22.441H79.941c-12.394 0-22.441-10.047-22.441-22.441V223.94c0-12.394 10.047-22.441 22.441-22.441zm0 0" fill="#d9d7d8"/><path d="M87.5 288.059V223.94c0-12.394 10.047-22.441 22.441-22.441h-30c-12.394 0-22.441 10.047-22.441 22.441v64.118c0 12.394 10.047 22.441 22.441 22.441h30c-12.394 0-22.441-10.047-22.441-22.441zm0 0" fill="#bab8b9"/><path d="M256.082 201.5h96.258c12.394 0 22.441 10.047 22.441 22.441v64.118c0 12.394-10.047 22.441-22.441 22.441h-96.258c-12.395 0-22.441-10.047-22.441-22.441V223.94c0-12.394 10.046-22.441 22.441-22.441zm0 0" fill="#fadc60"/><path d="M263.64 288.059V223.94c0-12.394 10.048-22.441 22.442-22.441h-30c-12.394 0-22.441 10.047-22.441 22.441v64.118c0 12.394 10.047 22.441 22.441 22.441h30c-12.394 0-22.441-10.047-22.441-22.441zm0 0" fill="#e6cb59"/><path d="M79.941 345.5H176.2c12.395 0 22.442 10.047 22.442 22.441v64.118c0 12.394-10.047 22.441-22.442 22.441H79.941c-12.394 0-22.441-10.047-22.441-22.441V367.94c0-12.394 10.047-22.441 22.441-22.441zm0 0" fill="#58b78c"/><path d="M87.5 432.059V367.94c0-12.394 10.047-22.441 22.441-22.441h-30c-12.394 0-22.441 10.047-22.441 22.441v64.118c0 12.394 10.047 22.441 22.441 22.441h30c-12.394 0-22.441-10.047-22.441-22.441zm0 0" fill="#46926f"/><path d="M256.082 345.5h96.258c12.394 0 22.441 10.047 22.441 22.441v64.118c0 12.394-10.047 22.441-22.441 22.441h-96.258c-12.395 0-22.441-10.047-22.441-22.441V367.94c0-12.394 10.046-22.441 22.441-22.441zm0 0" fill="#fd6f71"/><path d="M263.64 432.059V367.94c0-12.394 10.048-22.441 22.442-22.441h-30c-12.394 0-22.441 10.047-22.441 22.441v64.118c0 12.394 10.047 22.441 22.441 22.441h30c-12.394 0-22.441-10.047-22.441-22.441zm0 0" fill="#e36465"/><path d="M286.367 132.16h-11.496a7.5 7.5 0 01-7.5-7.5 7.5 7.5 0 017.5-7.5h11.496c4.145 0 7.5 3.356 7.5 7.5 0 4.145-3.355 7.5-7.5 7.5zm-128.957 0h-11.496a7.497 7.497 0 01-7.5-7.5c0-4.144 3.356-7.5 7.5-7.5h11.496a7.5 7.5 0 017.5 7.5 7.5 7.5 0 01-7.5 7.5zm0 0" fill="#fd6f71"/><path d="M402.34 0H29.94C13.434 0 0 13.434 0 29.941V482.06C0 498.57 13.434 512 29.941 512H402.34c16.508 0 29.937-13.434 29.937-29.941V29.94C432.281 13.434 418.847 0 402.34 0zm14.941 482.059c0 8.238-6.703 14.941-14.941 14.941H29.94C21.703 497 15 490.297 15 482.059V29.94C15 21.703 21.703 15 29.941 15H402.34c8.238 0 14.937 6.703 14.937 14.941V482.06zm0 0"/><path d="M352.34 50H79.94C63.43 50 50 63.434 50 79.941v64.118C50 160.566 63.434 174 79.941 174H352.34c16.508 0 29.937-13.434 29.937-29.941V79.94C382.281 63.434 368.847 50 352.34 50zm14.941 94.059c0 8.238-6.703 14.941-14.941 14.941H79.94C71.703 159 65 152.297 65 144.059V79.94C65 71.703 71.703 65 79.941 65H352.34c8.238 0 14.937 6.703 14.937 14.941v64.118zM176.2 194H79.94C63.43 194 50 207.434 50 223.941v64.118C50 304.566 63.434 318 79.941 318H176.2c16.512 0 29.942-13.434 29.942-29.941V223.94c0-16.507-13.434-29.941-29.942-29.941zm14.94 94.059c0 8.238-6.702 14.941-14.94 14.941H79.94C71.703 303 65 296.297 65 288.059V223.94c0-8.237 6.703-14.94 14.941-14.94H176.2c8.238 0 14.942 6.703 14.942 14.941zM352.34 194h-1.13c-4.144 0-7.5 3.355-7.5 7.5s3.356 7.5 7.5 7.5h1.13c8.238 0 14.937 6.703 14.937 14.941v64.118c0 8.238-6.699 14.941-14.937 14.941h-96.262c-8.234 0-14.937-6.703-14.937-14.941V223.94c0-8.238 6.703-14.941 14.937-14.941h67.133c4.14 0 7.5-3.355 7.5-7.5s-3.36-7.5-7.5-7.5h-67.133c-16.508 0-29.937 13.434-29.937 29.941v64.118c0 16.507 13.43 29.941 29.937 29.941h96.262c16.508 0 29.937-13.434 29.937-29.941V223.94c.004-16.507-13.43-29.941-29.937-29.941zM176.2 338h-34.13c-4.14 0-7.5 3.355-7.5 7.5s3.36 7.5 7.5 7.5h34.13c8.238 0 14.94 6.703 14.94 14.941v64.118c0 8.238-6.702 14.941-14.94 14.941H79.94C71.703 447 65 440.297 65 432.059V367.94c0-8.237 6.703-14.94 14.941-14.94h34.696c4.14 0 7.5-3.355 7.5-7.5s-3.36-7.5-7.5-7.5H79.94C63.43 338 50 351.434 50 367.941v64.118C50 448.566 63.434 462 79.941 462H176.2c16.512 0 29.942-13.434 29.942-29.941V367.94c0-16.507-13.434-29.941-29.942-29.941zm176.14 0h-96.262c-16.508 0-29.937 13.434-29.937 29.941v64.118c0 16.507 13.43 29.941 29.937 29.941h96.262c16.508 0 29.937-13.434 29.937-29.941V367.94c.004-16.507-13.43-29.941-29.937-29.941zm14.941 94.059c0 8.238-6.703 14.941-14.941 14.941h-96.262c-8.234 0-14.937-6.703-14.937-14.941V367.94c0-8.238 6.703-14.941 14.937-14.941h96.262c8.238 0 14.937 6.703 14.937 14.941v64.118zm0 0"/><path d="M236.848 116.242a7.502 7.502 0 00-10.243 2.766c-2.152 3.738-6.16 6.062-10.464 6.062s-8.317-2.324-10.465-6.062a7.498 7.498 0 00-10.242-2.766 7.496 7.496 0 00-2.762 10.238c4.816 8.383 13.808 13.586 23.469 13.586 9.656 0 18.648-5.203 23.468-13.582a7.505 7.505 0 00-2.761-10.242zm43.769-32.308a7.5 7.5 0 00-7.5 7.5v11.496a7.5 7.5 0 1015 0V91.434c0-4.145-3.355-7.5-7.5-7.5zm-128.957 0a7.5 7.5 0 00-7.5 7.5v11.496a7.5 7.5 0 1015 0V91.434c0-4.145-3.355-7.5-7.5-7.5zM147.07 248.5h-11.5V237a7.5 7.5 0 00-7.5-7.5 7.5 7.5 0 00-7.5 7.5v11.5h-11.5c-4.14 0-7.5 3.355-7.5 7.5s3.36 7.5 7.5 7.5h11.5V275a7.5 7.5 0 007.5 7.5 7.5 7.5 0 007.5-7.5v-11.5h11.5c4.14 0 7.5-3.355 7.5-7.5s-3.36-7.5-7.5-7.5zm176.137 0h-37.996c-4.145 0-7.5 3.355-7.5 7.5s3.355 7.5 7.5 7.5h37.996c4.145 0 7.5-3.355 7.5-7.5s-3.355-7.5-7.5-7.5zM146.809 381.262c-2.93-2.926-7.68-2.93-10.61 0l-8.129 8.133-8.129-8.133c-2.93-2.926-7.68-2.93-10.605 0a7.497 7.497 0 000 10.605l8.129 8.133-8.13 8.133a7.497 7.497 0 000 10.605 7.47 7.47 0 005.302 2.196c1.922 0 3.84-.73 5.304-2.196l8.13-8.133 8.132 8.133a7.473 7.473 0 005.305 2.196 7.47 7.47 0 005.3-2.196 7.497 7.497 0 000-10.605L138.677 400l8.133-8.133a7.497 7.497 0 000-10.605zm176.398-2.196h-37.996a7.497 7.497 0 00-7.5 7.5 7.5 7.5 0 007.5 7.5h37.996a7.5 7.5 0 007.5-7.5c0-4.144-3.355-7.5-7.5-7.5zm0 26.868h-37.996a7.5 7.5 0 00-7.5 7.5c0 4.144 3.355 7.5 7.5 7.5h37.996c4.145 0 7.5-3.356 7.5-7.5a7.5 7.5 0 00-7.5-7.5zm0 0"/></svg>