<svg width="85" height="125" xmlns="http://www.w3.org/2000/svg"><path d="M-375.54-17.243c-1.67-4.766-.482-11.627-.482-11.627l-.366-4.576c-.206-16.974 4.704-33.486 8.86-44.348 4.893-12.795 5.98-19.124 6.495-19.982.11-.61.992-4.681 5.26-6.447 4.763-3.167 14.891-8.501 22.795-8.501 3.37 0 6.077.954 8.05 2.834 6.67 6.356 7.767 10.65 7.513 13.136-.229 2.236-1.52 3.49-2.17 3.988l.105.425c.305 1.253-.008 3.832-5.526 7.03-2.483 1.44-4.89 2.14-7.364 2.14-3.355 0-6.16-1.344-8.436-2.435-.355-.171-.71-.34-1.069-.505-.834-.384-1.622-.418-2.322-.09-1.383.646-2.258 2.578-2.554 3.588.32 1.797 4.401 28.113.8 42.273-.108-3.65 44.95-1.25 45.707 2.783l-.365 2.356c-1.442 9.29-.07 30.229-13.23 44.478l-1.1 1.19-1.526-.537C-325.764 13-360.483-.368-366.413-8.932c-2.345-3.386-7.61-3.982-9.128-8.31z" fill="#fccc9a"/><path d="M-317.414-96.754c-.229 2.236-1.52 3.49-2.17 3.988l.105.425c.305 1.253-.008 3.832-5.526 7.03-2.483 1.44-4.89 2.14-7.364 2.14-3.355 0-6.16-1.344-8.436-2.435-.355-.171-.71-.34-1.069-.505-.02-.01-.04-.016-.06-.025 1.037.243 2.097.369 3.162.373 2.608 0 5.216-.777 7.977-2.378 3.671-2.13 4.894-3.663 5.27-4.278a4.85 4.85 0 01-.298-2.992c.317-1.421 1.162-2.575 2.39-3.265.198-.153.857-.743.978-1.923.11-1.072-.107-4.782-6.266-11.51 1.466.473 2.736 1.21 3.793 2.219 6.67 6.356 7.768 10.65 7.514 13.136zm-25.988 10.34a2.357 2.357 0 00-.794.213c-1.383.647-2.258 2.578-2.554 3.588.318 1.788 4.728 27.83 1.215 42.033l-.163.075-.007.003c-.028.013-.057.028-.092.043l-.02.01c-.01.004-.019.01-.029.013-.158.075-.37.177-.616.303l-.009.004-.288.148-.012.006c-.226.118-.45.239-.674.363-1.293.72-2.823 1.725-3.174 2.603l-.017.044-.06-.01c4.998-12.537.58-36.106-.378-43.118-.959-7.012 7.672-6.321 7.672-6.321z" fill="#202121" opacity=".19"/><path d="M-321.557 8.78l.852-.872c6.492-6.657 11.677-16.135 15.41-28.168 2.422-7.8 3.521-14.43 3.96-17.685l.063-.454c.14-1.038 1.07-1.817 2.173-1.817h5.475c1.21 0 2.192.932 2.192 2.08v48.33c0 1.15-.98 2.082-2.192 2.082h-26.325c-.87 0-1.66-.49-2.008-1.248a2 2 0 01.4-2.246z" fill="#6094bc"/><path d="M-295.502-17.78a125.563 125.563 0 004.07-17.264v45.25c0 1.142-.98 2.069-2.192 2.069h-17.95c6.72-7.306 12.125-17.406 16.073-30.055z" opacity=".19" fill="#432dce"/><path d="M64.576 46.025l22.282 36.558L64.576 128l-60.745-.158c-2.116 0-3.831-1.433-3.831-3.202l15.541-75.413c0-1.769 1.715-3.202 3.83-3.202h45.205z" fill="#b3ccff"/><path d="M113.544 49.132l18.252 75.576c0 1.769-1.712 3.202-3.825 3.202l-63.395-.017V45.93h45.143c2.113 0 3.825 1.434 3.825 3.202z" fill="#99f"/><path d="M64.314 120.015l5.555-13.926-5.555-14.477c-.958 0-1.917-.037-2.873-.11a37.266 37.266 0 01-8.65-1.688c-2.388-.772-5.07.14-6.116 2.06l-10.163 18.667c-1.139 2.097.099 4.467 2.543 5.309 8.049 2.764 16.546 4.165 25.259 4.165z" fill="#fff5f5"/><path d="M92.116 110.491L81.953 91.727c-1.055-1.947-3.753-2.84-6.116-2.071a37.102 37.102 0 01-8.65 1.697c-.956.074-1.915.11-2.873.11v28.552c8.713 0 17.21-1.409 25.258-4.187 2.445-.846 3.683-3.228 2.544-5.337z" fill="#e6f0f2"/><path d="M57.308 113.664l4.632-12.416 2.642-15.599c-.94 0-1.865-.06-2.77-.18l-6.3 24.26c-.564 2.172.241 3.935 1.796 3.935z" fill="#e62e6b"/><path d="M61.147 109.729l6.3-24.26c-.97.12-1.926.18-2.865.18l-7.274 28.015c1.555 0 3.275-1.763 3.84-3.935z" fill="#b32453"/><path d="M35.208 49.357c-1.593 3.884-2.993 8.196-3.562 13.247-2.185 19.414 12.802 34.934 32.383 34.934 19.58 0 35.452-15.837 35.452-35.371 0-3.606-1.696-8.74-1.696-8.74-1.547 10.223-10.053 16.01-10.053 16.01 5.22-13.695 2.457-26.068-3.867-35.105C69.56 13.887 73.232 0 73.232 0 54.094 16.973 55.254 35.683 55.254 35.683 53.497 24.334 39.127 19.82 39.127 19.82c4.739 8.02 3.034 14.233-.147 21.098a303.92 303.92 0 00-3.772 8.438z" fill="#fddb33"/><g fill="#f9c032"><path d="M55.263 34.638c-2.166-10.401-16.135-14.817-16.135-14.817 1.235 2.09 2.029 4.058 2.476 5.946 4.604 1.414 13.66 8.872 13.66 8.872zm20.729-.306c6.323 9.037 12.932 16.988 11.75 35.044 1.576-4.122 2.756-9.617 2.73-14.046.045-8.019-2.546-15.196-6.607-20.998C69.56 13.887 73.232 0 73.232 0c-3.22 2.856-5.864 5.762-8.037 8.62.732 6.057 3.287 14.981 10.797 25.712z"/><path d="M97.785 53.427c-.864 5.706-3.895 10.03-6.404 12.736-1.846 16.368-14.886 29.354-31.303 31.158a36.15 36.15 0 003.95.217c19.58 0 35.453-15.837 35.453-35.371 0-3.606-1.696-8.74-1.696-8.74z"/></g><path d="M72.734 66.86c4.681 8.622 1.345 15.823.715 17.782-.603 1.875-5.832 9.223-11.708 9.223s-11.96-5.022-13.056-9.537c-1.715-7.07 3.316-15.01.264-17.574 2.853-.924 8.213 4.226 8.213 4.226s5.453-5.407 4.579-8.803c-.147-.047 5.34 3.83 4.998 7.797-.178 1.737.71 2.723.71 2.723s5.064-3.689 5.285-5.837z" fill="#ff7373"/></svg>