<svg width="85" height="125" xmlns="http://www.w3.org/2000/svg"><path d="M4.714 63.254C2.724 68.232.975 73.758.264 80.231-2.465 105.111 16.256 125 40.715 125S85 104.705 85 79.67c0-4.621-2.118-11.2-2.118-11.2-1.932 13.101-12.558 20.517-12.558 20.517 6.52-17.55 3.07-33.407-4.83-44.988C47.624 17.797 52.212 0 52.212 0 28.305 21.752 29.754 45.73 29.754 45.73 27.559 31.186 9.609 25.401 9.609 25.401c5.92 10.277 3.79 18.24-.184 27.038-2.896 6.413-4.711 10.814-4.711 10.814z" fill="#fddb33"/><g fill="#f9c032"><path d="M29.765 44.391C27.06 31.061 9.61 25.402 9.61 25.402c1.543 2.679 2.535 5.2 3.094 7.62 5.751 1.812 17.062 11.37 17.062 11.37zm25.894-.392c7.898 11.581 16.154 21.77 14.678 44.91 1.968-5.282 3.443-12.325 3.409-18.001.057-10.276-3.18-19.474-8.252-26.909C47.624 17.797 52.212 0 52.212 0c-4.023 3.66-7.326 7.384-10.04 11.046.915 7.764 4.106 19.2 13.487 32.953z"/><path d="M82.882 68.47c-1.079 7.312-4.865 12.853-8 16.322-2.306 20.976-18.594 37.618-39.102 39.93 1.615.182 3.26.278 4.934.278C65.172 125 85 104.705 85 79.67c0-4.621-2.118-11.2-2.118-11.2z"/></g><path d="M51.59 85.685c5.847 11.049 1.68 20.278.893 22.788-.754 2.404-7.285 11.82-14.626 11.82-7.34 0-14.939-6.435-16.308-12.222-2.143-9.06 4.142-19.237.329-22.522 3.564-1.184 10.26 5.416 10.26 5.416s6.811-6.929 5.719-11.282c-.183-.06 6.67 4.908 6.244 9.993-.223 2.226.886 3.49.886 3.49s6.327-4.728 6.602-7.481z" fill="#ff7373"/></svg>