<svg width="200" height="200" xmlns="http://www.w3.org/2000/svg"><path d="M113.73 76.936H78.568L111.164 21.9H70.099L31.6 104.453h30.285L31.6 181.503l82.13-104.567z" fill="#b9ffa6"/><path d="M111.093 21.907H99.385L67.17 77.036h11.709l32.214-55.129zm-7.618 55.053l-61.598 78.425-10.266 26.142 82.13-104.567h-10.266z" fill="#83ff60"/><path d="M79.716 116.777c-1.952 4.865-3.666 10.265-4.362 16.592-2.677 24.315 15.678 43.755 39.66 43.755s43.423-19.836 43.423-44.304c0-4.516-2.077-10.946-2.077-10.946-1.895 12.805-12.313 20.052-12.313 20.052 6.393-17.152 3.01-32.65-4.736-43.968-17.522-25.609-13.023-43.003-13.023-43.003-23.441 21.26-22.02 44.693-22.02 44.693-2.153-14.212-19.753-19.866-19.753-19.866 5.806 10.043 3.717 17.827-.18 26.425-2.84 6.268-4.62 10.57-4.62 10.57z" fill="#fddb33"/><g fill="#f9c032"><path d="M104.279 98.34c-2.652-13.027-19.764-18.558-19.764-18.558 1.514 2.618 2.486 5.081 3.034 7.447 5.64 1.77 16.73 11.112 16.73 11.112zm25.388-.383c7.745 11.32 15.84 21.278 14.393 43.892 1.929-5.162 3.375-12.044 3.342-17.592.056-10.044-3.119-19.033-8.091-26.3-17.522-25.608-13.023-43.002-13.023-43.002-3.945 3.578-7.183 7.217-9.845 10.796.898 7.588 4.027 18.764 13.224 32.206z"/><path d="M156.36 121.874c-1.058 7.147-4.77 12.562-7.845 15.952-2.26 20.502-18.231 36.766-38.338 39.026a43.5 43.5 0 004.837.272c23.982 0 43.422-19.836 43.422-44.304 0-4.516-2.076-10.946-2.076-10.946z"/></g><path d="M125.677 138.699c5.734 10.799 1.65 19.82.877 22.272-.74 2.35-7.144 11.553-14.341 11.553-7.198 0-14.648-6.29-15.99-11.946-2.101-8.854 4.06-18.801.322-22.011 3.495-1.158 10.061 5.293 10.061 5.293s6.678-6.772 5.607-11.027c-.18-.058 6.54 4.797 6.122 9.767-.218 2.175.869 3.412.869 3.412s6.203-4.622 6.473-7.313z" fill="#ff7373"/></svg>