<svg xmlns="http://www.w3.org/2000/svg" viewBox="0 0 512 512"><path d="M504.673 232.525l.027.137c2.145 10.862-4.925 21.398-15.776 23.541l-165.811 32.744-7.792-39.456 165.811-32.744c10.852-2.141 21.396 4.917 23.541 15.778z" fill="#d63030"/><path d="M504.673 232.525l.014.069-92.71 18.308c-12.297 2.429-24.301-3.902-29.551-14.661l98.706-19.492c10.852-2.143 21.396 4.915 23.541 15.776z" fill="#f44545"/><path d="M361.445 216.773l.074.374c2.549 12.906 2.392 25.713-.094 37.846-7.52 36.852-36.425 67.407-75.634 75.15l-164.455 32.476C69.222 372.911 18.632 339.007 8.34 286.892l-.074-.374c-1.073-5.435 2.463-10.698 7.888-11.771l333.519-65.863c5.427-1.07 10.698 2.454 11.772 7.889z" fill="#5a5555"/><path d="M361.445 216.773l.074.374c2.549 12.906 2.392 25.713-.094 37.846-11.936 9.894-26.435 17.047-42.712 20.261l-164.445 32.474c-39.229 7.747-77.581-9.547-98.541-40.795l293.947-58.048c5.426-1.071 10.697 2.453 11.771 7.888z" fill="#736e6e"/><path d="M40.666 44.237c-2.036-8.299 1.017-17.369 8.401-22.627 9.665-6.882 23.08-4.627 29.963 5.039 6.882 9.665 4.627 23.08-5.039 29.963a21.739 21.739 0 01-2.469 1.507l35.133 49.338c3.19 4.481 2.135 10.756-2.345 13.947l-11.54 8.218c-4.48 3.19-10.756 2.135-13.947-2.345L43.691 77.936a21.783 21.783 0 01-2.231 1.841c-9.666 6.882-23.08 4.627-29.963-5.039s-4.627-23.08 5.039-29.963c7.384-5.259 16.953-5.177 24.13-.538z" fill="#ebe1dc"/><path d="M220.772 113.408c-17.055 14.454-19.164 39.997-4.709 57.051 14.454 17.055 39.997 19.163 57.051 4.709 8.68-7.355 13.478-17.584 14.203-28.103a31.183 31.183 0 0012.326-6.412c13.187-11.176 14.817-30.926 3.641-44.113s-30.926-14.817-44.113-3.642a31.185 31.185 0 00-8.347 11.107c-10.497-1.01-21.374 2.047-30.052 9.403z" fill="#6e9213"/><g fill="#d63030"><circle cx="185.134" cy="49.968" r="23.656"/><circle cx="43.067" cy="216.214" r="23.656"/></g><path d="M170.566 190.74c-2.565 7.124-6.923 13.215-13.055 17.584-20.048 14.277-51.448 4.579-70.144-21.661-18.686-26.25-30.158-80.835-10.099-95.102 6.392-4.549 15.199-4.459 24.858-1.373 20.65 6.603 45.116 26.891 57.851 44.766 12.974 18.224 16.411 39.625 10.589 55.786z" fill="#f77026"/><path d="M170.566 190.74c-16.852-.25-35.388-10.45-48.062-28.244-12.905-18.125-22.363-49.765-20.379-72.308 20.65 6.603 45.116 26.891 57.851 44.766 12.975 18.224 16.412 39.625 10.59 55.786z" fill="#ff883e"/><path d="M326.986 402.916H179.213a55.83 55.83 0 01-5.981-9.468c-5.731-11.332-8.106-24.828-6.813-37.472 2.395-23.325 14.277-44.345 26.631-64.413 1.453-2.355 4.879-2.334 6.292.04 8.136 13.676 16.271 27.342 24.407 41.008 6.252-5.711 11.201-12.825 14.448-20.65 1.182-2.855 5.24-3.016 6.633-.24 6.663 13.245 7.144 29.597.842 43.062 19.577-15.359 35.127-35.829 44.665-58.823 1.773-4.278 5.19-9.598 9.568-8.095 7.474 2.545 33.344 46.429 13.396 90.153 13.656-6.583 25.659-16.542 34.706-28.715 1.874-2.515 5.791-1.703 6.533 1.343 4.748 19.538-8.397 41.971-27.554 52.27z" fill="#fb5858"/><path d="M323.91 402.916H179.213a55.83 55.83 0 01-5.981-9.468c.01-.24.04-.491.06-.731 2.104-20.439 12.514-38.854 23.345-56.448 1.272-2.064 4.268-2.044 5.511.04 7.134 11.973 8.647 22.333 15.78 34.316 5.47-5.02 10.63-18.51 13.466-25.364 1.042-2.515 4.599-2.645 5.821-.22 5.841 11.612 11.061 34.832 5.531 46.634 17.163-13.466 30.789-31.4 39.145-51.549 1.553-3.747 4.549-8.416 8.386-7.094 6.553 2.224 19.107 27.322 1.623 65.646 11.973-5.771 29.597-11.883 37.532-22.553 1.633-2.204 5.07-1.493 5.721 1.182 1.722 7.084-3.428 16.432-11.243 25.609z" fill="#ff883e"/><path d="M392.284 471.021v22.635a7.077 7.077 0 01-7.074 7.074H126.79a7.077 7.077 0 01-7.074-7.074v-22.635a7.077 7.077 0 017.074-7.074h258.422a7.076 7.076 0 017.072 7.074z" fill="#d63030"/><path d="M392.284 478.094v15.562a7.077 7.077 0 01-7.074 7.074H144.237v-15.562a7.077 7.077 0 017.074-7.074h240.973z" fill="#f44545"/><path d="M479.067 209.226l-31.961 6.332a7.51 7.51 0 00-5.911 8.837c.802 4.068 4.759 6.703 8.827 5.911 33.847-6.63 32.334-6.583 34.416-6.583 5.951 0 11.111 4.248 12.263 10.089l.03.15c1.347 6.819-3.103 13.39-9.849 14.718l-123.587 24.477a103.59 103.59 0 006.462-26.952l50.777-10.059c4.078-.812 6.723-4.769 5.911-8.837-.802-4.068-4.759-6.713-8.827-5.911l-47.471 9.398c-.408-8.279-1.66-13.865-1.934-15.57-1.623-8.186-8.857-14.127-17.193-14.127-3.207 0 12.995-2.794-257.533 50.677a7.5 7.5 0 00-5.911 8.827c.802 4.068 4.759 6.713 8.827 5.911l254.116-50.336c1.473-.26 2.691.683 2.946 1.974 1.557 10.029 2.737 18.277.751 31.13-3.46 22.462-15.54 42.862-33.414 56.638-13.502-33.68-30.082-30.494-37.412-12.835a138.112 138.112 0 01-20.018 33.704l-6.082 1.202c-.741-6.883-2.695-13.576-5.751-19.658-4.3-8.532-16.656-8.006-20.289.751a50.832 50.832 0 01-6.232 10.961l-19.217-32.282c-4.333-7.265-14.753-7.277-19.147-.14-3.236 5.24-7.023 11.492-10.62 18.095-1.994 3.637-.651 8.206 2.996 10.19a7.503 7.503 0 0010.189-2.986c2.284-4.178 4.669-8.246 6.923-11.993l20.86 35.037c.128.141 1.564 3.475 5.641 4.078a7.509 7.509 0 006.172-1.884 65.77 65.77 0 0012.284-15.229c2.546 9.322 1.931 19.725-2.234 28.665-3.344 7.165 5.258 13.968 11.442 9.097 35.182-27.597 46.027-60.773 48.202-64.323 10.406 12.492 22.44 46.763 7.955 78.53-2.912 6.379 3.771 12.931 10.099 9.889 11.823-5.711 22.513-13.756 31.35-23.535-.992 13.015-10.059 26.581-22.904 34.145H183.04c-9.146-13.65-12.88-32.859-5.37-56.358a7.52 7.52 0 00-4.889-9.438 7.52 7.52 0 00-9.438 4.889c-1.373 4.348-2.455 8.566-3.236 12.744-37.706 7.049-43.935 9.779-58.081 9.779-42.141 0-78.671-30.048-86.876-71.467l-.07-.371c-.276-1.168.479-2.653 1.964-2.946l49.875-9.879a7.5 7.5 0 005.911-8.827c-.802-4.078-4.759-6.713-8.827-5.911l-49.875 9.879C4.88 269.315-1.557 278.329.332 288.112l.08.361c9.588 48.423 52.32 83.57 101.614 83.57 16.083 0 24.57-3.284 56.538-9.178.014 11.511 2.638 22.915 7.393 32.803H88.394c-10.957 0-19.871 8.914-19.871 19.871v42.415c0 10.957 8.914 19.871 19.871 19.871h22.829v16.532a7.513 7.513 0 007.514 7.514h274.525a7.513 7.513 0 007.514-7.514V477.83h22.829c10.957 0 19.871-8.914 19.871-19.871v-42.415c0-10.957-8.914-19.871-19.871-19.871h-75.554c11.431-12.848 17.774-30.51 13.79-46.8-2.226-9.197-14.17-11.69-19.868-4.048a87.215 87.215 0 01-15.349 15.93c2.521-13.267 1.972-26.676-1.092-39.776 3.17-1.542 18.41-13.103 29.316-30.819l134.948-26.731C502.662 260.874 512 249.523 512 236.418c0-17.439-15.83-30.573-32.933-27.192zM88.394 462.801a4.847 4.847 0 01-4.842-4.842v-42.415a4.847 4.847 0 014.842-4.842h160.091v52.1l-160.091-.001zm297.354 24.046H126.252v-9.017h259.497v9.017zm37.858-76.146a4.847 4.847 0 014.842 4.842v42.415a4.847 4.847 0 01-4.842 4.842H263.515v-52.1l160.091.001zM210.33 175.318c26.512 31.285 76.976 16.733 83.865-22.642 21.502-8.838 30.366-34.603 19.118-54.785l22.67-19.213a7.514 7.514 0 00.875-10.59 7.512 7.512 0 00-10.59-.875l-22.671 19.213c-18.037-14.384-44.913-9.919-57.178 9.874-39.915.342-62.637 47.694-36.089 79.018zm39.772-63.833a7.515 7.515 0 007.583-4.418c5.771-12.943 21.754-18.086 34.074-10.609l-46.391 39.316c-5.348 4.532-2.089 13.247 4.862 13.247 4.985 0 2.958-1.03 51.245-41.099 5.35 13.368-2.324 28.299-16.052 31.873a7.516 7.516 0 00-5.605 6.756c-2.046 29.739-39.135 41.34-58.024 19.051-19.099-22.536-.978-56.945 28.308-54.117zm-64.964-30.347c17.188 0 31.171-13.983 31.171-31.17s-13.983-31.17-31.171-31.17c-17.187 0-31.17 13.983-31.17 31.17s13.983 31.17 31.17 31.17zm0-47.311c8.901 0 16.142 7.242 16.142 16.141s-7.242 16.141-16.142 16.141c-8.9 0-16.141-7.242-16.141-16.141s7.242-16.141 16.141-16.141zM11.897 216.214c0 17.187 13.983 31.17 31.17 31.17s31.17-13.983 31.17-31.17-13.983-31.17-31.17-31.17-31.17 13.983-31.17 31.17zm47.311 0c0 8.9-7.242 16.141-16.141 16.141s-16.141-7.242-16.141-16.141c0-8.899 7.242-16.141 16.141-16.141s16.141 7.241 16.141 16.141zM41.83 88.284l17.714 24.868c-2.344 24.054 7.696 58.181 21.712 77.869 20.382 28.612 56.272 40.75 80.614 23.425 21.647-15.416 26.962-51.898 4.228-83.85-13.576-19.056-43.563-44.776-68.912-49.395L81.907 59.739c10.032-9.922 11.578-25.749 3.246-37.452C70.468 1.668 37.98 8.478 33.073 33.569 15.407 31.084 0 44.81 0 62.294c0 21.265 22.486 35.564 41.83 25.99zm39.796 9.388c7.779-5.551 22.557.605 31.079 5.32 15.389 8.496 31.611 22.924 41.149 36.32 7.695 10.811 11.933 23.224 11.933 34.977 0 40.522-46.413 44.34-72.298 8.015-17.35-24.384-26.76-74.056-11.863-84.632zM36.59 50.552c5.72 3.68 12.983-1.529 11.372-8.106-2.139-8.882 4.566-17.313 13.546-17.313 14.323 0 19.561 19.28 6.512 26.34-4.026 2.108-5.255 7.313-2.615 11.001l13.977 19.628a25.589 25.589 0 00-6.472 3.336h-.01c-3.256 2.324-5.961 5.4-8.085 9.198l-14.999-21.06a7.528 7.528 0 00-6.122-3.156c-3.529 0-5.017 2.096-6.593 3.236-9.341 6.633-22.072-.178-22.072-11.362 0-11.074 12.256-17.768 21.561-11.742z"/></svg>