<svg xmlns="http://www.w3.org/2000/svg" viewBox="0 0 512.001 512.001"><path d="M447.99 59.672V42.005c0-17.673-14.327-31.999-31.999-31.999H95.998c-17.673 0-31.999 14.327-31.999 31.999v427.991c0 17.673 14.327 31.999 31.999 31.999h319.993c17.673 0 31.999-14.327 31.999-31.999V59.672z" fill="#fff"/><path d="M447.99 317.703c-5.522 0-10 4.477-10 10v142.292c0 12.131-9.869 22-22 22H95.998c-12.131 0-22-9.869-22-22v-22h24.167c18.748 0 33.999-15.252 33.999-33.999s-15.252-33.999-33.999-33.999h-1c-5.522 0-10 4.477-10 10s4.478 10 10 10h1c7.72 0 14 6.28 14 14s-6.28 14-14 14H73.998v-137.87h24.167c18.748 0 33.999-15.252 33.999-33.999s-15.252-33.999-33.999-33.999h-1c-5.522 0-10 4.477-10 10s4.478 10 10 10h1c7.72 0 14 6.28 14 14s-6.28 14-14 14H73.998v-137.87h24.167c18.748 0 33.999-15.252 33.999-33.999s-15.252-33.999-33.999-33.999h-1c-5.522 0-10 4.477-10 10s4.478 10 10 10h1c7.72 0 14 6.28 14 14s-6.28 14-14 14H73.998V42.005c0-12.131 9.869-22 22-22h319.993c12.131 0 22 9.869 22 22v17.667c0 5.523 4.478 10 10 10s10-4.477 10-10V42.005c0-23.159-18.841-41.999-41.999-41.999H95.998c-23.159 0-41.999 18.841-41.999 41.999v70.252h-20c-7.72 0-14-6.28-14-14s6.28-14 14-14c5.522 0 10-4.477 10-10s-4.478-10-10-10C15.252 64.258 0 79.51 0 98.258s15.252 33.999 33.999 33.999h20v137.87h-20c-7.72 0-14-6.28-14-14s6.28-14 14-14c5.522 0 10-4.477 10-10s-4.478-10-10-10C15.252 222.128 0 237.38 0 256.127s15.252 33.999 33.999 33.999h20v137.87h-20c-7.72 0-14-6.28-14-14s6.28-14 14-14c5.522 0 10-4.477 10-10s-4.478-10-10-10C15.252 379.998 0 395.249 0 413.997s15.252 33.999 33.999 33.999h20v22c0 23.159 18.841 41.999 41.999 41.999h319.993c23.158 0 41.999-18.841 41.999-41.999V327.703c0-5.523-4.478-10-10-10z"/><path d="M229.925 379.177a10.093 10.093 0 00-2.93 7.07c0 2.64 1.069 5.21 2.93 7.08 1.86 1.86 4.44 2.92 7.07 2.92s5.21-1.06 7.069-2.92a10.1 10.1 0 002.931-7.08c0-2.63-1.07-5.2-2.931-7.07a10.072 10.072 0 00-7.069-2.93 10.065 10.065 0 00-7.07 2.93zm-70.725-2.925c-5.522 0-10 4.477-10 10s4.478 10 10 10h39.796c5.522 0 10-4.477 10-10s-4.478-10-10-10H159.2zm106.794-77.999c0-5.523-4.478-10-10-10H159.2c-5.522 0-10 4.477-10 10s4.478 10 10 10h96.795c5.521 0 9.999-4.477 9.999-10zm38.025-87.998c0-5.523-4.478-10-10-10H159.2c-5.522 0-10 4.477-10 10s4.478 10 10 10h134.82c5.523 0 9.999-4.477 9.999-10zm35.025-87.998c0-5.523-4.478-10-10-10H159.2c-5.522 0-10 4.477-10 10s4.478 10 10 10h169.844c5.522 0 10-4.477 10-10z"/><path d="M281.915 354.254v93.742l81.183-46.871 135.523-234.733c6.934-12.01 2.819-27.366-9.191-34.3l-37.692-21.762c-12.01-6.934-27.366-2.819-34.3 9.191L281.915 354.254z" fill="#f5c86e"/><path d="M489.431 132.092l-37.692-21.762c-12.01-6.934-27.366-2.819-34.3 9.191l-19.883 34.437 3.373 2.979 72.165 41.665 5.319 2.791 20.208-35c6.934-12.011 2.819-27.368-9.19-34.301z" fill="#ff5a5a"/><path fill="#fae196" d="M363.098 401.125l-81.183-46.871v93.742z"/><path d="M510.789 144.75c-2.427-9.059-8.236-16.63-16.358-21.319l-37.691-21.763c-16.767-9.679-38.281-3.913-47.961 12.852L273.256 349.254a9.997 9.997 0 00-1.34 5v93.742a9.999 9.999 0 0015 8.66l81.183-46.871a9.991 9.991 0 003.66-3.66l135.522-234.733c4.689-8.122 5.936-17.583 3.508-26.642zM331.051 408.081l-39.135-22.42v-14.088l51.184 29.55-12.049 6.958zm-39.135.63l19.097 10.94-19.097 11.026v-21.966zm67.522-21.245l-63.863-36.871L400.77 168.391l63.863 36.871-105.195 182.204zm130.523-226.075l-15.329 26.55-63.863-36.871 15.329-26.549c4.166-7.215 13.426-9.695 20.642-5.531l37.691 21.762a15.012 15.012 0 017.04 9.175 15.005 15.005 0 01-1.51 11.464z"/></svg>