<svg height="512" width="512" xmlns="http://www.w3.org/2000/svg"><path d="M398.464 327.777c62.031-23.94 106.036-84.137 106.036-154.61v-.277c-.009-5.67-7.769-7.24-10.087-2.064-18.189 40.608-59.048 68.846-106.479 68.606-63.296-.32-115.046-52.07-115.366-115.366-.24-47.431 27.999-88.29 68.606-106.479 5.175-2.318 3.606-10.077-2.065-10.087h-.277c-91.495 0-165.666 74.17-165.667 165.665 0 23.617 4.956 46.089 13.885 66.431V355.4H398z" fill="#ffe07d"/><path d="M398.464 327.777c62.031-23.94 106.036-84.137 106.036-154.61v-.277c-.009-5.67-7.769-7.24-10.087-2.064-18.189 40.608-59.048 68.846-106.479 68.606-63.296-.32-115.046-52.07-115.366-115.366-.24-47.431 27.999-88.29 68.606-106.479 5.175-2.318 3.606-10.077-2.065-10.087h-.277c-91.495 0-165.666 74.17-165.667 165.665 0 23.617 4.956 46.089 13.885 66.431V355.4H398z" fill="#ffe07d"/><path d="M318.174 17.587c-40.608 18.189-68.846 59.048-68.606 106.479.32 63.296 52.07 115.046 115.366 115.366a117.35 117.35 0 0012.094-.576c-58.228-5.804-104.158-55.171-104.46-114.79-.24-47.431 27.999-88.29 68.606-106.479 5.175-2.318 3.606-10.077-2.065-10.087h-.277c-6.576 0-13.059.396-19.435 1.141 2.739 2.241 2.73 7.175-1.223 8.946zM504.5 172.89c-.009-5.67-7.769-7.24-10.087-2.064a115.909 115.909 0 01-14.291 23.749c-7.881 61.073-49.013 111.726-104.658 133.202L375 355.4h23l.464-27.623C460.495 303.837 504.5 243.64 504.5 173.166v-.276z" fill="#ffd064"/><path d="M438.233 371.967h-.023c-1.221 0-2.271-.821-2.613-1.993-8.026-27.564-33.476-47.707-63.631-47.707-11.275 0-21.887 2.825-31.179 7.795-3.642 1.948-8.163.93-10.478-2.49-8.934-13.197-24.04-21.872-41.176-21.872-4.008 0-7.903.477-11.635 1.374-4.043.972-8.218-1.2-9.524-5.148-12.002-36.299-46.202-62.492-86.524-62.492-50.322 0-91.117 40.794-91.117 91.117 0 1.143.029 2.278.077 3.409a4.729 4.729 0 01-1.009 3.1l-.071.091c-.863 1.106-2.17 1.758-3.571 1.835-44.09 2.402-79.009 39.259-78.247 84.123.771 45.352 38.501 81.391 83.861 81.391h345.872c36.419 0 66.776-28.97 67.249-65.387.48-37.001-29.37-67.146-66.261-67.146z" fill="#ecf4ff"/><path d="M438.233 371.967h-.023c-1.221 0-2.271-.821-2.613-1.993-8.026-27.564-33.476-47.707-63.631-47.707-11.275 0-21.887 2.825-31.179 7.795-3.642 1.948-8.163.93-10.478-2.49-8.934-13.197-24.04-21.872-41.176-21.872-4.008 0-7.903.477-11.635 1.374-4.043.972-8.218-1.2-9.524-5.148-12.002-36.299-46.202-62.492-86.524-62.492-50.322 0-91.117 40.794-91.117 91.117 0 1.143.029 2.278.077 3.409a4.729 4.729 0 01-1.009 3.1l-.071.091c-.863 1.106-2.17 1.758-3.571 1.835-44.09 2.402-79.009 39.259-78.247 84.123.771 45.352 38.501 81.391 83.861 81.391h345.872c36.419 0 66.776-28.97 67.249-65.387.48-37.001-29.37-67.146-66.261-67.146z" fill="#ecf4ff"/><path d="M438.233 371.967h-.023c-1.22 0-2.271-.821-2.613-1.993-8.026-27.564-33.476-47.707-63.631-47.707-3.921 0-7.759.349-11.492 1.004 24.976 4.375 45.142 22.728 52.123 46.703.341 1.172 1.392 1.993 2.613 1.993h.023c36.891 0 66.741 30.145 66.261 67.146-.472 36.417-30.829 65.387-67.249 65.387h23c36.419 0 66.776-28.97 67.249-65.387.48-37.001-29.37-67.146-66.261-67.146z" fill="#ddeafb"/><path d="M106.434 497H90.333C48.794 497 15 463.206 15 421.667c0-41.516 33.758-75.296 75.266-75.333.139.005.278.009.418.009h.005c41.375.193 74.978 33.905 74.978 75.324 0 4.142 3.357 7.5 7.5 7.5s7.5-3.358 7.5-7.5c0-47.275-36.506-86.18-82.809-90.017-.005-.365-.025-.738-.025-1.1 0-14.038 3.544-27.919 10.248-40.146a7.5 7.5 0 00-13.153-7.212c-7.913 14.43-12.096 30.806-12.096 47.357 0 .363.002.727.007 1.092C36.522 335.463 0 374.38 0 421.667 0 471.477 40.523 512 90.333 512h16.101a7.5 7.5 0 000-15z"/><path d="M480.893 272.217C501.243 243.081 512 208.83 512 173.167v-.289c-.011-6.049-4.15-11.153-10.067-12.412-5.968-1.268-11.871 1.729-14.364 7.294-17.56 39.2-56.645 64.415-99.597 64.172-59.199-.299-107.605-48.704-107.903-107.904-.218-42.944 24.972-82.038 64.173-99.596 5.564-2.493 8.563-8.399 7.294-14.364C350.275 4.15 345.172.01 339.11 0h-.277C243.35 0 165.668 77.681 165.667 173.164c-.001 20.32 3.476 40.092 10.321 58.936-22.449 1.238-43.774 10.06-60.553 25.187a7.5 7.5 0 0010.045 11.14c15.373-13.861 35.251-21.494 55.97-21.494 36.938 0 68.924 23.783 79.77 58.52-17.757 9.918-29.286 28.845-29.286 49.947 0 4.142 3.357 7.5 7.5 7.5s7.5-3.358 7.5-7.5c0-17.243 10.432-32.515 25.98-38.969.023-.009.047-.015.071-.025a41.957 41.957 0 0116.149-3.206c16.235 0 31.217 9.493 38.167 24.186a7.5 7.5 0 0011.073 2.941c9.894-6.909 21.51-10.561 33.593-10.561 26.854 0 50.263 18.141 56.927 44.116.871 3.401 3.944 5.733 7.498 5.633 0 0 1.393-.049 1.842-.049 32.404 0 58.767 26.363 58.767 58.767S470.638 497 438.233 497s-58.767-26.363-58.767-58.767c0-4.142-3.357-7.5-7.5-7.5s-7.5 3.358-7.5 7.5c0 23.962 11.491 45.283 29.244 58.767H136.434c-4.143 0-7.5 3.358-7.5 7.5s3.357 7.5 7.5 7.5h301.8C478.908 512 512 478.909 512 438.233c0-39.499-31.201-71.845-70.253-73.684-5.049-14.74-14.51-27.147-26.658-35.889 26.285-12.883 48.845-32.165 65.804-56.443zm-82.435 47.466a73.73 73.73 0 00-26.491-4.916c-12.419 0-24.447 3.074-35.219 8.95-10.508-15.722-28.413-25.516-47.614-25.516-4.739 0-9.4.574-13.932 1.712-5.936-18.111-17.154-34.361-32.147-46.371-14.584-11.683-32.324-18.944-50.836-20.992-7.666-18.858-11.552-38.813-11.551-59.385.001-83.896 65.658-152.745 148.288-157.859-39.345 21.689-64.117 63.35-63.887 108.798.34 67.387 55.44 122.487 122.827 122.828l.627.002c45.195-.003 86.571-24.717 108.162-63.87-3.832 60.025-42.235 113.793-98.227 136.619zM156.6 48.133h9.067V57.2c0 4.142 3.357 7.5 7.5 7.5s7.5-3.358 7.5-7.5v-9.067h9.066c4.143 0 7.5-3.358 7.5-7.5s-3.357-7.5-7.5-7.5h-9.066v-9.066c0-4.142-3.357-7.5-7.5-7.5s-7.5 3.358-7.5 7.5v9.066H156.6c-4.143 0-7.5 3.358-7.5 7.5s3.357 7.5 7.5 7.5zm-66.267 91.118a7.5 7.5 0 007.5-7.5v-16.567c0-4.142-3.357-7.5-7.5-7.5s-7.5 3.358-7.5 7.5v16.567a7.5 7.5 0 007.5 7.5zm0 66.267a7.5 7.5 0 007.5-7.5v-16.567c0-4.142-3.357-7.5-7.5-7.5s-7.5 3.358-7.5 7.5v16.567a7.5 7.5 0 007.5 7.5zm24.851-41.417h16.566c4.143 0 7.5-3.358 7.5-7.5s-3.357-7.5-7.5-7.5h-16.566c-4.143 0-7.5 3.358-7.5 7.5s3.357 7.5 7.5 7.5zm-66.267 0h16.566c4.143 0 7.5-3.358 7.5-7.5s-3.357-7.5-7.5-7.5H48.917c-4.143 0-7.5 3.358-7.5 7.5s3.357 7.5 7.5 7.5z"/><path d="M421.667 89.55a7.5 7.5 0 007.5-7.5V65.483c0-4.142-3.357-7.5-7.5-7.5s-7.5 3.358-7.5 7.5V82.05a7.5 7.5 0 007.5 7.5zm0 66.267a7.5 7.5 0 007.5-7.5V131.75c0-4.142-3.357-7.5-7.5-7.5s-7.5 3.358-7.5 7.5v16.567a7.5 7.5 0 007.5 7.5zm24.85-41.417h16.566c4.143 0 7.5-3.358 7.5-7.5s-3.357-7.5-7.5-7.5h-16.566a7.5 7.5 0 00-7.5 7.5c0 4.143 3.357 7.5 7.5 7.5zm-66.267 0h16.566c4.143 0 7.5-3.358 7.5-7.5s-3.357-7.5-7.5-7.5H380.25a7.5 7.5 0 00-7.5 7.5c0 4.143 3.357 7.5 7.5 7.5z"/></svg>