<svg xmlns="http://www.w3.org/2000/svg" width="512" height="512"><path d="M196.804 452.13l-19.509-50.893-34.778 12.837 29.888 80.826c20.499-11.53 29.151-30.303 24.769-41.747l-.37-1.023z" fill-rule="evenodd" clip-rule="evenodd" fill="#ededed"/><path d="M297.293 410.013l18.888-39.22c-16.541-9.542-58.076-27.746-63.986-67.99l-9.811 50.922-5.288 27.49-59.801 20.022 19.509 50.893 86.805-29.99c8.086-2.812 11.083-6.732 13.684-12.127z" fill-rule="evenodd" clip-rule="evenodd" fill="#ffa21f"/><path d="M400.553 348.584l-46.484-45.781H252.195c5.91 40.244 47.445 58.448 63.986 67.99l38.058 21.386-.027 71.852h52.082v-94.685c-.001-11.276.875-14.258-5.741-20.762z" fill-rule="evenodd" clip-rule="evenodd" fill="#ffa21f"/><path d="M442.938 501.915c6.786-22.322-24.43-37.885-36.617-37.885h-52.11v.652l-.113 37.232h88.84z" fill-rule="evenodd" clip-rule="evenodd" fill="#ededed"/><path d="M354.154 254.892l.085-48.194-30.593-48.165c-7.832 3.605-16.173 5.595-24.372 5.595-11.283 0-20.923-2.131-29.096-5.965l-21.913 31.667c11.649-3.124 23.977 3.35 27.907 14.966 4.101 12.099-2.375 25.36-14.42 29.48l-21.631 7.412 12.074 61.115h101.874l.085-47.911z" fill-rule="evenodd" clip-rule="evenodd" fill="#fc4250"/><path d="M261.752 234.275c12.044-4.119 18.521-17.381 14.42-29.48-3.93-11.616-16.258-18.09-27.907-14.966-.481.142-.989.282-1.471.453l-60.819 20.846c-8.991 3.067-15.296 11.56-15.635 21.072v60.719c0 12.808 10.744 23.203 23.439 23.147 12.725-.058 23.101-10.566 23.045-23.346l-.17-42.998 23.468-8.036 21.63-7.411zm149.913 11.389l33.647-47.883c7.323-10.451 4.524-25.077-5.967-32.319-10.488-7.241-24.966-4.572-32.176 5.965l-24.26 35.414-28.671-.143-.085 48.194 35.91-.028c10.802-.028 14.957-.057 21.602-9.2zm-88.019-87.131c22.111-10.112 40.348-32.889 40.348-59.385 0-16.841-6.391-32.206-16.852-43.766-14.845 9.941-36.956 14.741-53.525 15.99-36.615 2.812-53.948 53.079-53.948 53.079 6.276 14.883 16.088 26.951 30.508 33.711 8.172 3.834 17.813 5.965 29.096 5.965 8.2.001 16.54-1.988 24.373-5.594z" fill-rule="evenodd" clip-rule="evenodd" fill="#fdd99b"/><path d="M347.142 55.383c14.505-9.684 22.083-24.31 10.772-45.296-39.33 19.68-62.854 6.787-84.994 14.653-38.228 13.575-50.329 47.598-33.251 99.712 0 0 17.333-50.268 53.948-53.079 16.569-1.249 38.681-6.049 53.525-15.99z" fill-rule="evenodd" clip-rule="evenodd" fill="#b3b3b3"/><path d="M406.321 453.946h-42.022l.023-61.764a10.086 10.086 0 00-5.145-8.796L321.119 362c-1.851-1.064-3.962-2.217-6.199-3.435-15.641-8.523-40.413-22.032-49.672-45.678h84.688l43.547 42.888c2.815 2.768 2.815 2.768 2.746 9.961-.01 1.106-.022 2.303-.022 3.608v15.79c0 5.569 4.515 10.084 10.084 10.084s10.084-4.515 10.084-10.084v-15.79c0-1.236.011-2.369.021-3.416.087-9.151.15-15.763-8.769-24.529l-43.468-42.811.06-33.618 25.87-.021c11.648-.03 20.063-.053 29.732-13.355l.094-.131 33.654-47.894c5.052-7.21 6.967-16.008 5.394-24.772-1.592-8.867-6.525-16.551-13.889-21.634-7.299-5.039-16.136-6.922-24.889-5.301-8.75 1.621-16.327 6.547-21.335 13.864l-21.239 31.003-17.815-.088-21.907-34.49c20.469-13.125 36.188-35.901 36.188-63.003a75.163 75.163 0 00-12.9-42.163c3.043-2.995 5.68-6.348 7.736-10.109 4.658-8.521 8.071-22.652-2.123-41.573a10.08 10.08 0 00-13.389-4.234c-19.768 9.891-34.667 10.719-48.234 10.72-1.67 0-3.308-.015-4.916-.028-1.608-.013-3.189-.026-4.746-.026-7.79 0-16.861.271-25.961 3.504-25.495 9.055-64.504 35.662-39.523 112.151l.011.034.054.17c.085.262.182.517.287.768l.005.013c6.013 14.248 14.551 25.297 25.329 32.979L241.904 181.3l-59.184 20.284c-12.944 4.417-21.969 16.576-22.457 30.259-.004.12-.006.238-.006.358v11.046h-57.663c-5.569 0-10.084 4.515-10.084 10.084s4.515 10.084 10.084 10.084h57.663v29.505c0 18.324 14.993 33.232 33.421 33.232l.147-.001c18.322-.083 33.163-15.1 33.082-33.47l-.141-35.762 5.701-1.953 9.455 47.86-7.858 40.813h-57.362c-5.569 0-10.083 4.515-10.083 10.084s4.514 10.085 10.083 10.085h53.478l-1.87 9.713-54.216 18.152c-.052.018-.101.041-.152.06-.045.017-.091.026-.137.043l-34.779 12.836a10.086 10.086 0 00-5.966 12.958l29.887 80.827a10.085 10.085 0 0014.4 5.292c19.529-10.984 31.502-28.972 31.043-44.894l78.53-27.133c11.751-4.085 16.295-10.716 19.457-17.274l14.179-29.442 17.286 9.95a10.13 10.13 0 002.443 1.008l3.867 2.173-.025 65.917v.005l-.113 37.885a10.086 10.086 0 0010.084 10.115h88.84c4.44 0 8.357-2.903 9.648-7.151 3.034-9.98 1.13-19.986-5.505-28.939-9.737-13.139-28.936-21.963-40.76-21.963zM382.86 216.925c3.315.029 6.479-1.627 8.368-4.385l24.263-35.418c1.96-2.863 4.932-4.791 8.369-5.428 3.439-.635 6.904.098 9.758 2.067 2.909 2.009 4.861 5.062 5.497 8.6.617 3.436-.115 6.856-2.052 9.621l-33.6 47.816c-3.602 4.956-3.643 4.955-13.406 4.981l-25.801.02.05-27.968 18.554.094zM353.91 99.148c0 30.915-29.371 54.895-54.637 54.895-9.248 0-17.355-1.587-24.379-4.786a9.978 9.978 0 00-.883-.417c-10-4.813-17.745-12.991-23.388-24.643 4.49-10.514 19.521-40.908 43.759-42.769 6.446-.491 30.331-2.929 50.226-12.932a55.03 55.03 0 019.302 30.652zM245.104 63.384c4.686-13.82 14.889-23.351 31.192-29.141 5.485-1.948 11.417-2.34 19.21-2.34 1.501 0 3.025.013 4.576.025 1.664.015 3.358.028 5.087.028 13.941 0 29.245-1.125 47.386-8.4 1.297 5.14.848 9.648-1.337 13.645-7.707 14.101-35.658 22.385-58.372 24.115-23.327 1.792-39.637 18.778-49.769 34.209-1.697-12.387-1.024-23.143 2.027-32.141zm-31.718 176.799a10.085 10.085 0 00-6.816 9.58l.17 43.002c.032 7.255-5.803 13.184-13.005 13.217h-.058c-7.184 0-13.254-5.982-13.254-13.063v-38.534c.036-.347.056-.698.056-1.055s-.02-.708-.056-1.055v-19.869c.253-5.233 3.855-10.044 8.82-11.738l60.811-20.843a12.779 12.779 0 014.142-.691 13.107 13.107 0 0112.425 8.898c2.331 6.878-1.317 14.369-8.138 16.701l-45.097 15.45zm51.629 3.634c17.309-5.919 26.599-24.876 20.708-42.258-3.206-9.461-10.383-16.734-19.295-20.255l7.504-10.846c7.724 2.488 16.19 3.753 25.341 3.753 6.706 0 13.561-1.16 20.27-3.33l24.607 38.74-.08 45.276v.004l-.067 37.816h-83.521l-8.761-44.348 13.294-4.552zm-87.716 235.246l-21.825-59.022 15.966-5.892 16.316 42.612c1.779 4.644-1.311 13.968-10.457 22.302zm110.911-73.429c-1.74 3.61-2.943 5.253-7.893 6.974l-77.605 26.813-12.237-31.96 49.823-16.682a10.085 10.085 0 006.701-7.656l8.814-45.773c13.476 18.654 33.5 30.194 47.145 37.664l-14.748 30.62zm76.002 86.197l.053-17.717h42.056c4.919 0 18.311 5.376 24.557 13.805 1.04 1.403 1.742 2.707 2.198 3.912h-68.864z"/><path d="M139.152 363.525c5.569 0 10.084-4.516 10.084-10.085 0-5.569-4.515-10.084-10.084-10.084h-.254c-5.569 0-10.083 4.515-10.083 10.084s4.514 10.085 10.083 10.085h.254zM62.839 243.247h-.255c-5.569 0-10.084 4.515-10.084 10.084s4.515 10.084 10.084 10.084h.255c5.569 0 10.083-4.515 10.083-10.084s-4.514-10.084-10.083-10.084zM406.321 413.76c-5.569 0-10.084 4.515-10.084 10.084v.255c0 5.569 4.515 10.084 10.084 10.084s10.084-4.515 10.084-10.084v-.255c0-5.57-4.515-10.084-10.084-10.084z"/></svg>