<svg height="512" viewBox="0 0 511.983 511.983" width="512" xmlns="http://www.w3.org/2000/svg"><path d="M330.694 230.215a2695.709 2695.709 0 01-211.702 0c-2.964-9.61-4.792-19.221-5.492-28.831-1.146-15.592.691-31.184 5.492-46.776a2694.227 2694.227 0 01175.709-1.172c11.998.315 23.996.7 35.994 1.172 7.765 25.202 7.765 50.404-.001 75.607z" fill="#f1d333"/><path d="M330.694 230.215a2695.709 2695.709 0 01-211.702 0c-2.964-9.61-4.792-19.221-5.492-28.831 43.934 2.781 126.379 6.716 153.217-.831 21.582-6.069 27.126-28.954 27.983-47.117 11.998.315 23.996.7 35.994 1.172 7.766 25.202 7.766 50.404 0 75.607z" fill="#e7a52e"/><path d="M107.725 90.91a366.785 366.785 0 00-68.134 0C23.06 92.449 10.1 105.855 9.262 122.437a1384.485 1384.485 0 000 139.941c.838 16.582 13.798 29.988 30.33 31.527a366.785 366.785 0 0068.134 0c16.531-1.539 29.491-14.945 30.33-31.527a1384.485 1384.485 0 000-139.941c-.84-16.582-13.799-29.988-30.331-31.527z" fill="#f1d333"/><path d="M137.848 264.714c-1.863 15.487-14.376 27.721-30.126 29.19a366.407 366.407 0 01-68.131 0c-16.536-1.539-29.496-14.945-30.336-31.525a1388.64 1388.64 0 010-139.943c.822-16.23 13.248-29.417 29.286-31.403-.096.77-.157 1.539-.201 2.326a1383.353 1383.353 0 000 139.943c.839 16.58 13.799 29.986 30.327 31.525a368.052 368.052 0 0068.139 0 33.23 33.23 0 001.042-.113z" fill="#e7a52e"/><path d="M410.097 90.91a366.785 366.785 0 00-68.134 0c-16.531 1.539-29.491 14.945-30.33 31.527a1384.485 1384.485 0 000 139.941c.838 16.582 13.798 29.988 30.33 31.527a366.785 366.785 0 0068.134 0c16.531-1.539 29.491-14.945 30.33-31.527a1384.485 1384.485 0 000-139.941c-.839-16.582-13.799-29.988-30.33-31.527z" fill="#f1d333"/><path d="M440.219 264.714c-1.863 15.487-14.376 27.721-30.126 29.19a366.407 366.407 0 01-68.131 0c-16.536-1.539-29.496-14.945-30.336-31.525a1388.64 1388.64 0 010-139.943c.822-16.23 13.248-29.417 29.286-31.403-.096.77-.157 1.539-.201 2.326a1383.353 1383.353 0 000 139.943c.839 16.58 13.799 29.986 30.327 31.525a368.052 368.052 0 0068.139 0 33.23 33.23 0 001.042-.113z" fill="#e7a52e"/><path d="M392.991 357.382a2695.709 2695.709 0 01-211.702 0c-2.964-9.611-4.792-19.221-5.492-28.832-1.146-15.592.691-31.184 5.492-46.776a2694.227 2694.227 0 01175.709-1.172c11.998.315 23.996.7 35.994 1.172 7.764 25.203 7.764 50.406-.001 75.608z" fill="#b97ab7"/><path d="M392.991 357.382a2695.709 2695.709 0 01-211.702 0c-2.964-9.611-4.792-19.221-5.492-28.832 43.934 2.781 126.379 6.716 153.217-.831 21.582-6.069 27.126-28.954 27.983-47.117 11.998.315 23.996.7 35.994 1.172 7.765 25.203 7.765 50.406 0 75.608z" fill="#845caf"/><path d="M170.022 218.077a366.785 366.785 0 00-68.134 0c-16.531 1.539-29.491 14.945-30.33 31.527a1384.485 1384.485 0 000 139.941c.838 16.582 13.798 29.988 30.33 31.527a366.785 366.785 0 0068.134 0c16.531-1.539 29.491-14.945 30.33-31.527a1384.485 1384.485 0 000-139.941c-.839-16.582-13.799-29.988-30.33-31.527z" fill="#b97ab7"/><path d="M200.144 391.881c-1.863 15.487-14.376 27.721-30.126 29.19a366.407 366.407 0 01-68.131 0c-16.536-1.539-29.496-14.945-30.336-31.525a1388.64 1388.64 0 010-139.943c.822-16.23 13.248-29.417 29.286-31.403-.096.77-.157 1.539-.201 2.326a1383.353 1383.353 0 000 139.943c.839 16.58 13.799 29.986 30.327 31.525a368.052 368.052 0 0068.139 0 33.23 33.23 0 001.042-.113z" fill="#845caf"/><path d="M472.393 218.077a366.785 366.785 0 00-68.134 0c-16.531 1.539-29.491 14.945-30.33 31.527a1384.485 1384.485 0 000 139.941c.838 16.582 13.798 29.988 30.33 31.527a366.785 366.785 0 0068.134 0c16.531-1.539 29.491-14.945 30.33-31.527a1384.485 1384.485 0 000-139.941c-.839-16.582-13.799-29.988-30.33-31.527z" fill="#b97ab7"/><path d="M502.516 391.881c-1.863 15.487-14.376 27.721-30.126 29.19a366.407 366.407 0 01-68.131 0c-16.536-1.539-29.496-14.945-30.336-31.525a1388.64 1388.64 0 010-139.943c.822-16.23 13.248-29.417 29.286-31.403-.096.77-.157 1.539-.201 2.326a1383.353 1383.353 0 000 139.943c.839 16.58 13.799 29.986 30.327 31.525a368.052 368.052 0 0068.139 0 33.23 33.23 0 001.042-.113z" fill="#845caf"/><path d="M510.213 249.226c-1.018-20.139-16.979-36.74-37.125-38.615a374.589 374.589 0 00-23.517-1.422c.357-28.921-.192-58.19-1.659-87.122-.68-13.556-8.046-25.85-19.706-32.886a7.5 7.5 0 00-7.75 12.843c7.382 4.455 12.045 12.229 12.475 20.799a1372.659 1372.659 0 011.64 86.221c-10.362.103-20.717.609-31.007 1.567-20.146 1.875-36.107 18.476-37.125 38.615-.406 8.024-.716 16.072-.982 24.128-14.474-.421-28.99-.724-43.532-.91a25.686 25.686 0 01-2.803-10.44 1382.984 1382.984 0 010-139.182c.646-12.744 10.764-23.252 23.535-24.442a360.19 360.19 0 0152.082-1.058 7.5 7.5 0 10.786-14.98 375.13 375.13 0 00-54.259 1.102c-20.145 1.877-36.104 18.479-37.125 38.619-.406 8.022-.716 16.068-.983 24.123a2705.846 2705.846 0 00-156.608-.001c-.267-8.058-.602-16.105-1.009-24.126-1.02-20.141-16.98-36.743-37.126-38.618a376.495 376.495 0 00-69.519 0C18.751 85.317 2.791 101.92 1.771 122.06a1397.72 1397.72 0 000 140.698c1.02 20.14 16.98 36.742 37.122 38.618a372.234 372.234 0 0023.51 1.44c-.347 29.08.204 58.219 1.665 87.108 1.018 20.139 16.978 36.74 37.125 38.616a375.477 375.477 0 0034.762 1.61c11.614 0 23.229-.537 34.762-1.61 20.146-1.875 36.106-18.477 37.125-38.616.405-8.016.715-16.057.981-24.105 6.003.175 12.021.337 17.991.471l.171.002a7.501 7.501 0 00.165-14.998c-5.941-.133-11.93-.295-17.905-.469.464-20.808.464-41.67 0-62.478a2691.94 2691.94 0 01155.791 0 1402.159 1402.159 0 000 62.475 2697.681 2697.681 0 01-107.991.98h-.085a7.5 7.5 0 00-.082 15c9.923.111 19.881.166 29.859.166a2714.2 2714.2 0 0078.72-1.161c.266 8.053.576 16.097.982 24.118 1.018 20.139 16.978 36.74 37.125 38.616 11.533 1.073 23.147 1.61 34.762 1.61s23.229-.537 34.762-1.61c20.146-1.875 36.106-18.477 37.125-38.616a1398.33 1398.33 0 000-140.699zm-207.476-88.045a1401.89 1401.89 0 000 62.469 2700 2700 0 01-104.849 1.001c-6.739-7.772-16.349-13.033-27.172-14.04a374.511 374.511 0 00-23.516-1.422c.197-15.936.116-31.974-.243-48.009a2691.56 2691.56 0 01155.78.001zM64.068 249.226a1387.461 1387.461 0 00-1.394 38.594 357.138 357.138 0 01-22.387-1.378c-12.772-1.19-22.89-11.698-23.536-24.441a1382.984 1382.984 0 010-139.182c.646-12.745 10.764-23.252 23.534-24.441a361.595 361.595 0 0166.741 0c12.771 1.188 22.89 11.696 23.535 24.442a1372.754 1372.754 0 011.64 86.224c-10.362.103-20.718.609-31.008 1.567-20.146 1.875-36.107 18.476-37.125 38.615zm128.793 139.941c-.645 12.743-10.762 23.249-23.534 24.438a360.841 360.841 0 01-66.744 0c-12.772-1.189-22.89-11.695-23.535-24.438a1383.596 1383.596 0 010-139.183c.645-12.743 10.762-23.249 23.535-24.438 11.072-1.031 22.222-1.546 33.372-1.546s22.3.516 33.372 1.546c12.772 1.188 22.89 11.694 23.534 24.438a1383.596 1383.596 0 010 139.183zm15.963-115.813c-.266-8.056-.576-16.104-.982-24.128a40.19 40.19 0 00-1.645-9.504c6.111.042 12.229.07 18.361.07a2720 2720 0 0078.602-1.157c.266 8.057.577 16.105.983 24.13a40.74 40.74 0 001.648 9.511c-32.367-.224-64.78.142-96.967 1.078zm286.408 115.813c-.645 12.743-10.762 23.249-23.534 24.438a360.841 360.841 0 01-66.744 0c-12.772-1.189-22.89-11.695-23.535-24.438a1384.188 1384.188 0 010-139.183c.645-12.743 10.762-23.249 23.535-24.438 11.072-1.031 22.222-1.546 33.372-1.546s22.3.516 33.372 1.546c12.772 1.188 22.89 11.694 23.534 24.438a1383.596 1383.596 0 010 139.183z"/></svg>