<svg xmlns="http://www.w3.org/2000/svg" viewBox="0 0 512.002 512.002"><path fill="#48c1e1" d="M66.52 80.18h50.26v30.693H66.52z"/><path d="M127.146 75.176c0 2.75-2.25 5-5 5H61.154c-2.75 0-5-2.25-5-5V39.137c0-2.75 2.25-5 5-5h60.991c2.75 0 5 2.25 5 5l.001 36.039z" fill="#046699"/><path d="M77.009 75.176V39.137c0-2.75 2.25-5 5-5H61.154c-2.75 0-5 2.25-5 5v36.039c0 2.75 2.25 5 5 5h20.854c-2.749 0-4.999-2.25-4.999-5z" opacity=".1"/><path d="M50.57 349.825c-.477-.846-.751-1.723-.751-2.626 0-6.655 13.663-12.049 30.515-12.049 5.98 0 11.552.684 16.258 1.857-3.578-14.285-5.396-29.028-5.396-44.13a5.025 5.025 0 015.02-5.03h8.746a32.714 32.714 0 01-.191-3.49c0-14.381 9.426-26.554 22.423-30.657a30.26 30.26 0 01-2.527-7.908c-2.397-13.835 5.006-27.105 17.198-32.73a29.977 29.977 0 01-1.32-5.004c-1.955-11.277 2.604-22.183 10.961-28.876v-40.411c0-15.347-12.527-27.902-27.84-27.902h-64.03c-15.312 0-27.839 12.556-27.839 27.902v222.25c5.557-4.569 11.883-8.356 18.773-11.196z" fill="#a2dff9"/><path d="M127.192 253.701a30.26 30.26 0 01-2.527-7.908c-2.397-13.835 5.006-27.105 17.198-32.73a29.977 29.977 0 01-1.32-5.004c-1.955-11.277 2.604-22.183 10.961-28.876v-17.495H31.797v103.285h79.467c3.97-5.254 9.513-9.247 15.928-11.272z" fill="#046699"/><path d="M50.57 349.825c-.477-.846-.751-1.723-.751-2.626 0-4.112 5.22-7.74 13.181-9.914V138.771c0-15.347 12.527-27.902 27.839-27.902H59.636c-15.312 0-27.839 12.556-27.839 27.902v222.25c5.557-4.569 11.883-8.356 18.773-11.196z" opacity=".1"/><path d="M243.891 190.067a30.4 30.4 0 01.442 5.157c12.634 1.11 23.526 10.1 26.711 22.758 5.028-4.691 11.56-7.781 18.793-8.463a54.4 54.4 0 0115.869-36.698c.362-.363.733-.715 1.104-1.067-2.295-13.132-8.474-25.709-18.572-35.831a5.231 5.231 0 00-7.408 0l-41.922 42.018a30.157 30.157 0 014.983 12.126z" fill="#ef5050"/><path d="M292.877 209.371c14.63 0 26.962 9.824 30.811 23.246a27.557 27.557 0 012.953 1.916c4.024-6.071 10.438-10.546 18.185-11.896a27.521 27.521 0 016.121-.368 54.819 54.819 0 002.108-1.991c.197-.198.385-.402.579-.602a32.197 32.197 0 019.634-13.625 54.487 54.487 0 001.843-44.343 1.72 1.72 0 00-.968-.971 54.156 54.156 0 00-58.438 12.085 54.403 54.403 0 00-15.869 36.698 32.2 32.2 0 013.041-.149z" fill="#89c947"/><path d="M390.777 250.874a49.754 49.754 0 0124.305-13.413c.453-2.152.707-4.378.707-6.666 0-17.748-14.355-32.137-32.064-32.137-14.815 0-27.279 10.076-30.957 23.762 11.723 1.386 21.638 10.284 23.755 22.497.271 1.565.397 3.122.399 4.658 4.158.365 8.1 1.686 11.577 3.76a51.119 51.119 0 012.278-2.461zm-263.585 2.827c-12.997 4.102-22.423 16.275-22.423 30.657 0 1.18.068 2.343.191 3.49h45.659a50.037 50.037 0 01-5.964-18.594c-7.578-2.616-13.934-8.18-17.463-15.553z" fill="#ffc502"/><path d="M445.336 240.668a1.603 1.603 0 00-.89-.893 49.738 49.738 0 00-53.669 11.098 49.806 49.806 0 00-2.28 2.464c6.63 3.942 11.571 10.626 12.991 18.819a27.238 27.238 0 01-1.917 15.69h40.23a50.026 50.026 0 005.535-47.178z" fill="#89c947"/><path d="M127.192 253.701c-12.997 4.102-22.423 16.275-22.423 30.657 0 1.18.068 2.343.191 3.49h45.659a50.037 50.037 0 01-5.964-18.594c-7.578-2.616-13.934-8.18-17.463-15.553z" fill="#ffc502"/><path d="M147.848 245.08a1.595 1.595 0 01.891-.892 49.736 49.736 0 0153.668 11.098 50.148 50.148 0 014.674 5.41 67.263 67.263 0 01-1.246-12.866 5.242 5.242 0 015.236-5.249h49.77c-.012-.356-.027-.712-.027-1.071 0-9.292 3.939-17.658 10.23-23.526-3.185-12.659-14.077-21.648-26.711-22.758a30.503 30.503 0 00-.442-5.157c-2.859-16.498-18.572-27.544-35.094-24.667-8.576 1.493-15.676 6.448-20.133 13.169-6.454-4.821-14.807-7.086-23.383-5.594-16.524 2.877-27.599 18.585-24.738 35.082a29.951 29.951 0 001.32 5.004c-12.192 5.625-19.596 18.896-17.198 32.73 1.951 11.26 9.893 19.975 19.991 23.461a49.988 49.988 0 013.192-24.174zm253.64 27.078c-2.166-12.495-12.491-21.521-24.566-22.582a27.578 27.578 0 00-.399-4.658c-2.583-14.902-16.775-24.878-31.696-22.28-7.747 1.35-14.16 5.824-18.185 11.896a27.557 27.557 0 00-2.953-1.916 32.247 32.247 0 011.253 8.892c0 .359-.016.715-.027 1.071h9.753a5.243 5.243 0 015.237 5.249c0 14.982-4.922 28.833-13.225 40.019h72.892a27.25 27.25 0 001.916-15.691z" fill="#368c0e"/><path d="M324.914 242.58c.012-.356.027-.712.027-1.071 0-17.749-14.355-32.137-32.064-32.137-17.707 0-32.064 14.388-32.064 32.137 0 .359.016.715.027 1.071h64.074z" fill="#f7931e"/><path d="M207.08 260.695a50.148 50.148 0 00-4.674-5.41 49.736 49.736 0 00-53.668-11.098 1.595 1.595 0 00-.891.892 50.04 50.04 0 002.772 42.768h66.313a50.197 50.197 0 00-.339-3.573 66.88 66.88 0 01-9.513-23.579z" fill="#89c947"/><path d="M326.68 287.848c8.303-11.187 13.225-25.037 13.225-40.019a5.243 5.243 0 00-5.237-5.249H211.07a5.241 5.241 0 00-5.236 5.249c0 14.982 4.922 28.833 13.225 40.019H326.68z" fill="#ef5050"/><path d="M105.299 340.275c5.521-3.099 14.645-5.125 24.967-5.125 16.852 0 30.514 5.395 30.514 12.049 0 .903-.273 1.779-.751 2.625 22.626 9.325 39.129 28.949 42.446 52.388L355.711 344a27.023 27.023 0 0122.784 1.677 26.818 26.818 0 0113.288 18.51l1.335 7.208 52.407-30.936c4.177-15.356 6.283-31.262 6.283-47.581a5.025 5.025 0 00-5.021-5.03H96.215a5.025 5.025 0 00-5.02 5.03c0 15.102 1.818 29.845 5.396 44.13 3.421.853 6.386 1.964 8.708 3.267z" fill="#fff"/><path d="M105.299 340.275c4.991-2.801 12.929-4.72 22.031-5.064-3.286-13.723-4.943-27.866-4.943-42.333a5.025 5.025 0 015.02-5.03H96.215a5.025 5.025 0 00-5.02 5.03c0 15.102 1.818 29.845 5.396 44.13 3.421.853 6.386 1.964 8.708 3.267z" opacity=".1"/><path d="M126.895 455.918l-.259-1.394c-2.355-12.721 4.746-25.303 16.882-29.914l58.957-22.397c-3.317-23.439-19.82-43.064-42.446-52.388-2.408 4.272-10.541 7.691-21.076 8.926 7.722 6.177 11.255 12.668 8.108 16.219-4.166 4.704-18.47 2.47-31.944-4.988-3.78-2.095-7.097-4.376-9.817-6.681-2.719 2.305-6.033 4.586-9.816 6.681-13.473 7.458-27.777 9.693-31.945 4.988-3.145-3.551.389-10.042 8.107-16.219-10.53-1.235-18.665-4.654-21.074-8.926-25.38 10.459-43.07 33.873-43.07 61.1 0 36.97 32.598 66.94 72.807 66.94h49.986c5.027 0 9.936-.469 14.676-1.36-9.146-2.995-16.252-10.734-18.076-20.587z" fill="#ef5050"/><path d="M126.895 455.918c2.355 12.72 13.496 21.952 26.484 21.947l227.111-.088a26.966 26.966 0 0020.684-9.662 26.724 26.724 0 005.781-22.014l-15.172-81.915a26.818 26.818 0 00-13.288-18.51 27.027 27.027 0 00-22.784-1.677l-212.193 80.61c-12.136 4.611-19.237 17.193-16.882 29.914l.259 1.395z" fill="#f7931e"/><path d="M39 410.925c0-21.495 11.032-40.61 28.16-52.858-8.322-1.577-14.535-4.599-16.59-8.242-25.38 10.459-43.07 33.873-43.07 61.1 0 36.97 32.598 66.94 72.807 66.94h31.5c-40.209 0-72.807-29.97-72.807-66.94z" opacity=".1"/><path d="M160.779 347.2c0-6.655-13.662-12.049-30.514-12.049-10.322 0-19.445 2.026-24.967 5.125-5.519-3.099-14.641-5.125-24.965-5.125-16.852 0-30.515 5.395-30.515 12.049 0 5.462 9.209 10.072 21.825 11.551-7.719 6.177-11.252 12.668-8.107 16.219 4.168 4.705 18.473 2.47 31.945-4.988 3.783-2.095 7.098-4.376 9.816-6.681 2.721 2.305 6.037 4.586 9.817 6.681 13.475 7.458 27.778 9.692 31.944 4.988 3.146-3.551-.387-10.042-8.108-16.219 12.623-1.48 21.829-6.09 21.829-11.551z" fill="#368c0e"/><path d="M504.387 390.308l-1.954-10.546c-.673-3.641-4.183-6.046-7.839-5.376l-75.454 13.86 48.177-32.205a6.7 6.7 0 002.871-6.781 6.727 6.727 0 00-.756-2.07l-5.453-9.656a6.747 6.747 0 00-9.297-2.481l-61.563 36.342 12.018 64.891 70.611 12.689a6.752 6.752 0 005.117-1.149 6.697 6.697 0 002.734-4.462l1.625-10.902a6.662 6.662 0 00-.035-2.199 6.717 6.717 0 00-5.111-5.316l-56.545-12.97 75.455-13.861c3.659-.672 6.072-4.166 5.399-7.808z" fill="#89c947"/><path d="M405.594 438.754a26.787 26.787 0 01-4.42 7.497 26.963 26.963 0 01-20.684 9.662l-227.111.088a26.914 26.914 0 01-25.001-16.881c-2.031 4.723-2.734 10.047-1.742 15.404l.259 1.394c2.355 12.72 13.496 21.952 26.484 21.947l227.111-.088a26.966 26.966 0 0020.684-9.662 26.724 26.724 0 005.781-22.014l-1.361-7.347z" opacity=".1"/><path d="M164.775 221.844l.13.001a7.5 7.5 0 007.496-7.374 8.328 8.328 0 018.482-8.191 8.234 8.234 0 016.007 2.704 7.5 7.5 0 1011.075-10.117 23.4 23.4 0 00-16.847-7.585c-12.859-.165-23.497 10.087-23.715 22.936a7.5 7.5 0 007.372 7.626zm37.712 12.058c.86.319 1.741.47 2.607.47a7.503 7.503 0 007.033-4.894c1.232-3.322 4.945-5.022 8.265-3.797a6.335 6.335 0 013.67 3.499 7.5 7.5 0 0013.805-5.87 21.485 21.485 0 00-12.281-11.702c-11.074-4.085-23.419 1.592-27.522 12.653a7.5 7.5 0 004.423 9.641zm71.351-57.125a7.477 7.477 0 005.309-2.202l7.07-7.084a7.5 7.5 0 00-.011-10.606 7.498 7.498 0 00-10.606.011l-7.07 7.084a7.5 7.5 0 005.308 12.797zm-34.293 76.932h-9.996c-4.143 0-7.5 3.358-7.5 7.5s3.357 7.5 7.5 7.5h9.996c4.143 0 7.5-3.358 7.5-7.5s-3.357-7.5-7.5-7.5zm66.647 15h9.997a7.5 7.5 0 000-15h-9.997a7.5 7.5 0 000 15z"/><path d="M511.761 388.942l-1.953-10.542c-1.245-6.736-7.127-11.625-13.986-11.625-.861 0-1.729.079-2.583.236l-39.76 7.304 18.006-12.037a14.197 14.197 0 006.075-14.393 14.205 14.205 0 00-1.598-4.381l-5.449-9.649a14.283 14.283 0 00-8.726-6.754 14.29 14.29 0 00-5.518-.348 189.717 189.717 0 003.039-33.873c0-5.105-3.07-9.498-7.455-11.449 5.73-13.628 6.121-29.23.457-43.518a9.037 9.037 0 00-2.024-3.083 9.083 9.083 0 00-3.064-2.02 57.057 57.057 0 00-23.983-4.005c-1.039-20.933-18.364-37.644-39.514-37.644-2.785 0-5.501.296-8.124.848A61.798 61.798 0 00372.105 159a9.255 9.255 0 00-2.072-3.179 9.174 9.174 0 00-3.113-2.05 61.459 61.459 0 00-22.839-4.388c-11.816 0-23.119 3.322-32.877 9.498a74.176 74.176 0 00-17.658-28.255c-2.406-2.41-5.606-3.738-9.011-3.738s-6.605 1.328-9.014 3.74l-36.313 36.396a37.698 37.698 0 00-25.161-9.577c-2.178 0-4.377.191-6.536.567-7.823 1.362-15.022 5.191-20.541 10.799-7.077-3.415-15.184-4.58-22.975-3.224a38.053 38.053 0 00-4.991 1.23v-28.046c0-19.314-15.523-35.055-34.725-35.387V87.48c5.878-1.017 10.366-6.14 10.366-12.304V39.137c0-6.892-5.607-12.5-12.5-12.5H61.154c-6.893 0-12.5 5.608-12.5 12.5v36.039c0 6.164 4.488 11.287 10.366 12.304v15.904c-19.202.331-34.724 16.072-34.724 35.387v218.896C9.322 371.19 0 390.059 0 410.925c0 41.046 36.025 74.44 80.307 74.44l300.187-.088c10.246-.004 19.882-4.507 26.436-12.353a34.117 34.117 0 007.534-27.343l59.957 10.775c.83.149 1.68.225 2.523.225 2.99 0 5.855-.918 8.281-2.652a14.27 14.27 0 005.793-9.46l1.624-10.897a14.125 14.125 0 00-.077-4.674 14.207 14.207 0 00-10.81-11.261l-21.133-4.848 39.721-7.297a14.136 14.136 0 009.152-5.922 14.089 14.089 0 002.266-10.628zm-85.74-145.207c4.515 0 8.954.715 13.222 2.124 3.814 11.614 2.386 24.141-3.586 34.489h-20.204l6.447-6.462c2.926-2.932 2.92-7.681-.013-10.607s-7.682-2.921-10.606.012l-3.411 3.419a34.785 34.785 0 00-8.061-13.846c7.444-5.911 16.582-9.129 26.212-9.129zm-42.296-37.576c13.545 0 24.564 11.052 24.564 24.637 0 .252-.012.501-.019.751-7.906 2.571-15.193 6.866-21.408 12.699a34.415 34.415 0 00-3.022-1.008 34.793 34.793 0 00-20.732-25.789c4.379-6.784 11.977-11.29 20.617-11.29zm-39.645-41.778c5.094 0 10.1.824 14.924 2.454a46.988 46.988 0 01-1.855 34.637 39.83 39.83 0 00-9.608 13.321 35.396 35.396 0 00-4.001.456c-5.877 1.023-11.357 3.573-15.943 7.271a39.69 39.69 0 00-5.673-7.875l17.199-17.238a7.498 7.498 0 00-.013-10.606 7.5 7.5 0 00-10.607.012l-18.798 18.841a39.202 39.202 0 00-11.506-3.417 46.863 46.863 0 0112.816-24.117c8.839-8.86 20.582-13.739 33.065-13.739zm-57.47 115.967h-6.501c-1.095-2.786-3.802-4.761-6.977-4.761s-5.882 1.976-6.977 4.761h-7.648c1.776-2.892 1.417-6.724-1.09-9.226a7.5 7.5 0 00-10.607.011l-7.069 7.084a7.465 7.465 0 00-1.482 2.131h-15.265c-5.717-8.773-9.206-19.128-9.619-30.268h118.986c-.413 11.14-3.902 21.495-9.619 30.268h-15.885a7.47 7.47 0 00-1.482-2.132l-7.068-7.084a7.5 7.5 0 00-10.606-.012c-2.509 2.502-2.868 6.335-1.091 9.228zm-17.443-45.268c2.827-10.477 12.384-18.208 23.71-18.208 11.327 0 20.884 7.732 23.711 18.208h-47.421zm15.337-92.221a59.31 59.31 0 0114.164 26.486 61.772 61.772 0 00-9.519 13.652 7.451 7.451 0 00-3.907-1.107h-9.994a7.5 7.5 0 000 15h8.767a62.114 62.114 0 00-1.154 6.279 39.224 39.224 0 00-8.484 3.314c-4.999-8.627-13.277-15.056-23.085-17.635a37.968 37.968 0 00-3.024-9.67l36.236-36.319zm-117.938 37.506a23.136 23.136 0 013.955-.344c4.941 0 9.663 1.576 13.654 4.557a7.502 7.502 0 0010.74-1.864c3.521-5.311 8.908-8.835 15.168-9.925a23.139 23.139 0 013.964-.344 22.747 22.747 0 0122.454 18.905c.218 1.255.33 2.563.332 3.888a7.5 7.5 0 006.844 7.458c8.385.737 15.523 6.014 18.832 13.448a39.542 39.542 0 00-8.667 18.936H211.07c-5.318 0-9.881 3.283-11.784 7.929-9.41-6.409-20.5-9.862-32.122-9.862a57.084 57.084 0 00-21.206 4.075 9.052 9.052 0 00-3.06 2.017 8.972 8.972 0 00-2.021 3.077 57.46 57.46 0 00-3.499 13.331 22.696 22.696 0 01-5.322-11.135c-1.764-10.176 3.563-20.308 12.95-24.64a7.5 7.5 0 003.92-9.337 22.636 22.636 0 01-.992-3.758c-2.151-12.401 6.209-24.249 18.632-26.412zm4.718 97.932l2.046 2.051h-18.013c-4.044-9.382-4.658-20.061-1.375-30.077a42.05 42.05 0 0113.222-2.125c11.301 0 21.932 4.417 29.933 12.436a42.427 42.427 0 012.986 3.34 74.091 74.091 0 005.74 16.425H194.52l-12.617-12.646c-2.927-2.931-7.676-2.939-10.606-.012a7.5 7.5 0 00-.013 10.608zm-47.049-15.059a37.706 37.706 0 0013.678 11.336 58.004 58.004 0 001.431 5.774h-26.737c1.192-7.265 5.562-13.458 11.628-17.11zM63.654 41.637h55.991v31.039H63.654V41.637zm45.625 46.039v15.693H74.021V87.676h35.258zm-69.982 81.511H88c4.143 0 7.5-3.358 7.5-7.5s-3.357-7.5-7.5-7.5H39.297v-15.416c0-11.25 9.124-20.402 20.339-20.402h64.028c11.216 0 20.34 9.152 20.34 20.402v15.416H130c-4.143 0-7.5 3.358-7.5 7.5s3.357 7.5 7.5 7.5h14.004v6.657c-8.593 8.425-13.056 20.78-10.852 33.489l.013.077c-12.032 8.255-18.443 22.931-15.89 37.664.149.86.336 1.706.54 2.543a39.77 39.77 0 00-9.996 7.856H39.297v-88.286zm0 103.285H99.11a39.346 39.346 0 00-1.632 7.876h-1.264c-6.903 0-12.52 5.621-12.52 12.53 0 11.909 1.107 23.6 3.252 35.038a82.704 82.704 0 00-6.613-.266c-9.07 0-17.712 1.439-24.331 4.053-10.125 3.998-12.924 9.675-13.535 13.603a83.144 83.144 0 00-3.171 1.675v-74.509h.001zm94.97 92.135c2.701 2.161 4.352 3.998 5.309 5.323l-.279.002c-4.245 0-11.872-1.711-20.545-6.512-3.229-1.789-6.204-3.81-8.604-5.843a7.5 7.5 0 00-9.697.001c-2.4 2.035-5.374 4.055-8.6 5.84-8.675 4.803-16.302 6.514-20.546 6.514l-.281-.002c.956-1.325 2.607-3.163 5.309-5.325a7.5 7.5 0 00-3.814-13.304c-7.319-.858-11.947-2.721-14.114-4.077 2.715-1.691 9.579-4.574 21.931-4.574 10.23 0 17.707 2.151 21.293 4.165a7.503 7.503 0 007.343.001c3.588-2.014 11.066-4.165 21.296-4.165 12.353 0 19.216 2.884 21.93 4.574-2.166 1.357-6.795 3.219-14.116 4.077a7.5 7.5 0 00-6.337 5.384 7.49 7.49 0 002.522 7.921zM15 410.925c0-22.399 13.688-41.935 33.844-52.065 2.315 1.728 5.201 3.218 8.625 4.42-1.358 2.319-2.304 4.813-2.527 7.414-.296 3.458.762 6.742 2.982 9.248 2.933 3.312 7.435 4.991 13.381 4.991 7.924 0 18.321-3.137 27.811-8.391a73.966 73.966 0 006.185-3.82 74.439 74.439 0 006.185 3.821c9.49 5.253 19.887 8.389 27.811 8.39h.001c5.944 0 10.446-1.679 13.378-4.99 2.221-2.506 3.28-5.79 2.983-9.249-.223-2.601-1.169-5.095-2.527-7.414 3.424-1.203 6.311-2.693 8.626-4.42 15.985 8.034 27.896 21.985 32.143 38.588l-53.045 20.151c-15.527 5.9-24.608 22.004-21.592 38.294l.258 1.39a34.157 34.157 0 005.401 13.082H80.307c-36.01 0-65.307-26.664-65.307-59.44zm380.418 52.382a19.406 19.406 0 01-14.931 6.97l-7.872.003-4.918-26.555a7.498 7.498 0 00-8.741-6.009 7.5 7.5 0 00-6.009 8.74l4.414 23.829-25.806.01-3.325-17.957a7.5 7.5 0 00-14.75 2.731l2.82 15.232-60.025.023-4.518-24.388a7.5 7.5 0 00-14.75 2.733l4.013 21.661-87.644.034h-.006c-9.372 0-17.404-6.65-19.102-15.816l-.258-1.39c-1.695-9.156 3.423-18.213 12.17-21.537l29.477-11.198 2.196 11.852a7.502 7.502 0 008.741 6.008 7.5 7.5 0 006.007-8.741l-2.693-14.533 43.755-16.622a7.5 7.5 0 00-5.326-14.023l-20.361 7.735c-5.712-20.223-20.386-37.116-39.845-46.794-.611-3.928-3.41-9.605-13.534-13.603-6.619-2.614-15.261-4.053-24.331-4.053-6.242 0-12.203.689-17.465 1.944v-4.53a7.5 7.5 0 00-7.5-7.5 7.46 7.46 0 00-4.634 1.61 175.207 175.207 0 01-1.955-23.827H343c4.143 0 7.5-3.358 7.5-7.5s-3.357-7.5-7.5-7.5h-3.069a74.244 74.244 0 007.474-32.519c0-6.617-5.063-12.068-11.515-12.687a19.767 19.767 0 0110.223-5.116c1.145-.199 2.307-.3 3.455-.3a19.818 19.818 0 0119.564 16.469c.191 1.105.289 2.245.29 3.39a7.5 7.5 0 006.844 7.462c8.963.787 16.296 7.528 17.833 16.392a19.603 19.603 0 01-.052 6.909H386c-4.143 0-7.5 3.358-7.5 7.5s3.357 7.5 7.5 7.5h58.292c-.186 13.758-1.958 27.197-5.263 40.236l-40.646 23.994a34.222 34.222 0 00-16.225-20.447 34.433 34.433 0 00-29.11-2.143l-83.711 31.802a7.5 7.5 0 005.326 14.023l11.028-4.189 3.424 18.487a7.503 7.503 0 008.741 6.009 7.5 7.5 0 006.009-8.74l-3.921-21.17 58.429-22.197a19.466 19.466 0 0116.459 1.21 19.27 19.27 0 019.576 13.331l15.173 81.915a19.183 19.183 0 01-4.163 15.84zm26.76-58.706a7.5 7.5 0 00-.322 14.686l55.84 12.808-1.395 9.359-64.734-11.633-10.119-54.634 56.384-33.284 4.697 8.317-47.558 31.791a7.5 7.5 0 005.524 13.612l74.706-13.723 1.664 8.98-74.687 13.721z"/></svg>