<svg width="600" height="600" xmlns="http://www.w3.org/2000/svg"><path d="M172.241 14.475c-11.929 8.965-12.4 18.152-15.68 48.049-2.925 26.663 55.584 101.654 66.461 93.988 6.55-4.616 7.135-15.435 8.621-23.331 7.64-40.607-7.689-71.133-34.542-97.986-7.667-7.667-17.071-14.541-24.86-20.72z" stroke="#000" fill="#6ab636"/><path d="M197.055 154.075c-8.525-2.829-24.677-13.137-33.37-14.598-44.838-7.535-102.019-11.563-126.33 36.755-9.994 19.864-25.19 63.476-25.956 66.246-2.36 8.53 12.288 79.57 11.952 88.818-.746 20.508 55.881 158.847 95.721 164.218 12.628 1.703 51.382 9.309 73.526 5.386 11.623-2.059 35.234-18.39 35.361-18.161 3.33 6.003 34.688 20.135 45.04 20.994 22.264 1.846 24.709-8.733 45.339-20.501 24.402-13.92 98.211-101.09 108.828-125.795 3.783-8.802 3.576-58.59 7.47-82.053 5.085-30.632 4.473-62.214-13.061-90.526-38.962-62.91-100.568-69.812-131.751-49.754-10.825 6.963-78.5 28.5-92.769 18.971z" fill="#ed4c4c"/><path d="M344.348 119.327c-31.538-5.134-63.01 1.662-89.668 19.172 7.952-17.633 20.396-33.581 37.225-47.64 20.048-16.749 39.069-24.381 39.225-24.443 7.873-3.071 11.788-12.003 8.744-19.95-3.043-7.944-11.889-11.896-19.766-8.824-2.409.94-40.27 16.133-70.172 51.603-1.121-5.584-2.687-11.203-4.805-16.774-17.792-46.778-66.671-70.073-68.742-71.042a15.165 15.165 0 00-11.902-.406 15.352 15.352 0 00-8.577 8.339c-.898 2.12-21.775 52.439-3.983 99.217a103.61 103.61 0 005.514 12.071c-15.458-3.449-31.565-3.949-47.69-1.324C39.038 130.842-9.491 199.723 1.572 272.88c7.873 52.072 19.385 96.796 34.218 132.928 16.822 40.984 38.07 71.116 63.15 89.563 19.861 14.605 41.982 21.952 65.99 21.95 6.64 0 13.429-.562 20.35-1.69 15.971-2.599 29.962-8.508 41.769-17.613 11.808 9.105 25.8 15.015 41.77 17.613 31.934 5.2 60.984-1.617 86.338-20.26 25.082-18.446 46.33-48.578 63.151-89.563 14.833-36.134 26.344-80.857 34.218-132.928 11.063-73.157-37.467-142.038-108.178-153.553zM178.816 38.599c12.652 8.835 29.8 23.95 37.78 44.927 7.928 20.845 5.183 43.757 1.647 58.924-12.651-8.834-29.799-23.948-37.779-44.926-7.929-20.844-5.184-43.756-1.648-58.925zm243.495 229.627c-15.536 102.746-44.98 172.669-85.154 202.211-18.784 13.814-39.547 18.637-63.471 14.74-14.663-2.387-26.245-8.416-35.411-18.431a15.225 15.225 0 00-11.228-4.957 15.22 15.22 0 00-11.226 4.957c-9.165 10.015-20.749 16.043-35.411 18.431-23.926 3.892-44.686-.926-63.472-14.74-40.173-29.542-69.618-99.465-85.154-202.211-8.541-56.483 28.618-109.617 82.832-118.444a96.858 96.858 0 0115.569-1.266c21.106 0 41.575 6.999 58.882 20.344 22.361 17.245 53.598 17.245 75.96 0 21.543-16.611 47.984-23.389 74.449-19.078h.001c54.216 8.828 91.374 61.962 82.834 118.444z"/><path d="M505.682 248.033c13.613-13.356 35.744-13.356 49.358 0L600 292.151v98.463L410.999 585.696s-8.484 6.609-13.613 8.287L378.987 600H246.908c-.434-3.541-.303-7.252.487-11.05a32.532 32.532 0 011.082-4.042l34.904-102.753a34.208 34.208 0 018.448-13.392z" fill="#fff"/><path d="M330.372 485.912c7.937-6.37 155.213-159.02 155.552-158.664 15.295 16.065 57.707 61.871 57.163 62.385-8.295 7.845-139.864 148.139-147.438 154.113-3.292 2.597-7.27 5.635-11.247 7.117-.051.019 1.776-18.414-3.71-26.741-1.222-1.855-6.104-.222-7.883-.816-5.08-1.697-9.77-1.288-14.633-3.272-.344-.14-1.001-9.368-1.104-9.979-.922-5.458-3.754-19.167-4.369-19.55-5.63-3.509-10.308-.626-16.121-.626-1.311 0-6.21-2.414-6.21-3.967z" stroke="#000" fill="#ffb957"/><path d="M289.935 585.98c-.432-10.044 20.421-79.367 26.85-87.044 1.447-1.729 10.311-15.499 15.964-14.43 2.153.407 6.757 14.537 9.349 14.86 1.195.149 10.353-2.476 10.686-1.778 2.278 4.774.562 11.299 3.076 16.327.034.069 23.051 1.485 23.675 10.25.533 7.503.57 32.022-.6 35.503-1.237 3.679-89 33.263-89 26.312z" stroke="#000" fill="#ffebd6"/><path d="M481.637 325.151s42.581-44.936 47.787-47.578c.665-.338 62.46 62.837 62.46 62.837l-46.96 49.786-63.287-65.045z" stroke="#000" fill="#faa"/><path d="M302.682 547.062c10.884-.481 22.368 3.247 25.132 14.984.401 1.702 1.971 12.669.555 14.227-3.555 3.911-35.129 12.596-35.544 12.163-1.392-1.45 5.283-41.172 9.857-41.374z" fill="#4c4c4c"/><path fill-rule="evenodd" d="M514.166 276.319a22.657 22.657 0 0132.552 0l46.044 47.153c8.979 9.195 8.979 24.142 0 33.337L385.566 568.993a22.722 22.722 0 01-8.978 5.705l-69.066 23.576c-16.805 5.752-33.405-9.266-29.859-27.042.184-.944.414-1.862.713-2.781l23.023-70.728a23.703 23.703 0 015.57-9.219l207.197-212.185zm16.277 16.668l46.043 47.153L369.29 552.324l-69.066 23.577 23.022-70.729 207.197-212.185z"/><path fill-rule="evenodd" d="M533.804 395.638l-57.555-58.94 16.3-16.692 57.553 58.94-16.275 16.692zm-210.558 85.958v11.789c0 6.507 5.157 11.787 11.51 11.787h11.512v11.788c0 6.507 5.156 11.788 11.511 11.788h11.511v11.789c0 6.506 5.157 11.787 11.51 11.787h11.511V516.96c0-6.506-5.157-11.788-11.511-11.788h-11.51v-11.787c0-6.508-5.157-11.789-11.511-11.789h-34.533z"/></svg>