<svg height="512" width="512" xmlns="http://www.w3.org/2000/svg"><path d="M410.617 99.132c3.716-5.93 6.694-12.648 8.661-19.987 5.601-20.904 1.678-41.583-8.825-55.324h-55.437l-71.399 266.464 50.944 16.768c15.967-6.648 29.704-22.596 35.305-43.5 1.928-7.196 2.719-14.363 2.511-21.233 19.978-10.933 37.562-34.468 45.593-64.44 8.05-30.045 4.554-59.291-7.353-78.748z" fill="#ffb357"/><path d="M325.714 251.723l49.412-184.408c5.604-20.913 19.351-36.856 35.327-43.494-5.58-7.299-13.013-12.644-21.87-15.017a38.577 38.577 0 00-6.451-1.138c-23.579-2.185-47.445 17.383-55.303 46.708l-49.412 184.408c-7.858 29.326 3.027 58.205 24.539 68.102a38.643 38.643 0 006.156 2.239c8.857 2.373 17.967 1.462 26.449-2.07-10.516-13.736-14.451-34.416-8.847-55.33z" fill="#fc8a3d"/><path d="M257.877 64.146h-61.294c-12.426 0-22.5 10.073-22.5 22.5v42.325l32.616 87.608h73.677V86.646c.001-12.426-10.073-22.5-22.499-22.5z" fill="#88c5fd"/><path d="M355.807 282.053H206.699v-81.051c0-13.716 6.549-26.475 17.352-33.806l56.325-38.224 57.744 38.277c10.994 7.287 17.686 20.164 17.686 34.031v80.773z" fill="#add8ff"/><path d="M140.998 13.037a15.06 15.06 0 00-15.285-5.097c-12.412 3.043-15.86 14.319-7.856 24.28.469.584.919 1.178 1.38 1.766-3.786-.699-7.6-1.263-11.442-1.663-4.612-.48-9.286 1.036-12.556 4.324-7.909 7.953-4.504 21.034 5.209 24.647l-.013.004c-3.355.976-6.305 3.087-8.168 6.043-7.799 12.378 3.836 26.753 16.801 22.747a116.315 116.315 0 0111.946-3.01c11.868-2.328 23.045 6.74 23.067 18.834v14.456l30 .424v-14.666c.002-34.471-11.927-67.163-33.083-93.089z" fill="#00bd9d"/><path d="M188.02 111.459h-40V256h46.83l24.752-69.989A59.89 59.89 0 00223.02 166c0-24.212-14.349-45.059-35-54.541z" fill="#ff8f71"/><path d="M194.85 256a19.318 19.318 0 01-18.213-12.878l-20.198-57.112a59.89 59.89 0 01-3.418-20.011c0-24.212 14.349-45.059 35-54.541-8.724-4.006-18.564-6-28.938-5.332-30.393 1.956-54.737 26.871-56.008 57.3-.332 7.944.881 15.564 3.364 22.583l28.291 79.995C138.849 277.655 149.96 286 163.02 286c10.442 0 19.627-5.344 25-13.437a29.879 29.879 0 003.291-6.558z" fill="#ff6f4d"/><path d="M421.666 440.618l-13-200.528c-1.113-17.164-21.938-25.011-34.101-12.848L355.807 246l-28.787-28.787c-11.715-11.716-30.71-11.716-42.426 0L255.807 246h-49.108v258.5h155.092c34.665 0 62.117-29.29 59.875-63.882z" fill="#e8b5b1"/><path d="M218.634 440.618l8.512-131.302A98.563 98.563 0 01255.807 246l-23.061-23.062-5.725-5.725c-11.716-11.716-30.711-11.716-42.427 0L155.807 246l-18.758-18.758c-12.163-12.163-32.988-4.316-34.1 12.848l-13 200.528c-2.242 34.592 25.21 63.882 59.874 63.882h128.685c-34.664 0-62.117-29.29-59.874-63.882z" fill="#d6948c"/><path d="M177.659 335.176c-15.972 0-28.919 10.311-28.919 23.03s12.948 23.03 28.919 23.03 28.919-10.311 28.919-23.03-12.947-23.03-28.919-23.03zm156.754 0c-15.972 0-28.92 10.311-28.92 23.03s12.948 23.03 28.92 23.03 28.919-10.311 28.919-23.03-12.947-23.03-28.919-23.03z" fill="#ffdbe0"/><path d="M188.249 333.146c0-3.454 2.811-6.265 6.265-6.265s6.265 2.811 6.265 6.265c0 4.143 3.357 7.5 7.5 7.5s7.5-3.357 7.5-7.5c0-11.726-9.539-21.265-21.265-21.265s-21.265 9.539-21.265 21.265c0 4.143 3.357 7.5 7.5 7.5s7.5-3.358 7.5-7.5zm123.045 0c0-3.454 2.811-6.265 6.265-6.265s6.265 2.811 6.265 6.265c0 4.143 3.357 7.5 7.5 7.5s7.5-3.357 7.5-7.5c0-11.726-9.539-21.265-21.265-21.265s-21.265 9.539-21.265 21.265c0 4.143 3.357 7.5 7.5 7.5s7.5-3.358 7.5-7.5zm-35.728 10.435a7.498 7.498 0 00-10.582.725c-4.742 5.44-13.158 5.436-17.896 0a7.501 7.501 0 00-11.307 9.857c18.672 21.416 52.082.138 39.785-10.582z"/><path d="M416.15 239.605c-.506-7.805-4.097-14.59-9.568-19.232 6.248-8.961 11.507-19.188 15.367-30.049a7.5 7.5 0 00-14.134-5.023c-3.761 10.58-8.977 20.456-15.199 28.84-8.924-1.258-17.298 1.743-23.354 7.799l-5.954 5.955V201.28c0-16.489-7.866-31.548-21.043-40.281L311.492 140.6l22.583-84.281c10.4-38.812 49.796-54.921 70.421-27.94 12.065 15.784 13.187 41.115 2.465 62.011l-24.4-6.539a7.5 7.5 0 00-3.883 14.489l26.991 7.233c8.381 15.405 10.39 34.832 8.477 52.251a7.5 7.5 0 0014.91 1.638c2.229-20.297-.202-42.234-9.775-60.271C443.437 55.165 421.777 0 378.53 0c-26.435 0-50.673 21.562-58.944 52.435l-21.281 79.422-10.428-6.913V86.647c0-16.542-13.458-30-30-30h-61.294c-7.975 0-15.228 3.134-20.606 8.228-5.681-20.583-15.567-39.924-29.167-56.59-5.471-6.706-14.451-9.706-22.882-7.641-12.905 3.165-19.352 13.384-17.595 24.079-18.895-.165-29.665 20.987-18.512 36.05-14.904 17.209 2.068 43.082 23.462 36.47a108.879 108.879 0 0111.176-2.815c6.494-1.264 12.772 3.025 13.926 9.472-30.472 13.036-49.645 48.912-37.017 84.613l10.175 28.771c-7.959 4.366-13.443 12.54-14.078 22.322l-9.57 147.623a7.501 7.501 0 006.999 7.97c4.129.263 7.701-2.866 7.97-6.999l9.57-147.623c.693-10.69 13.686-15.658 21.312-8.029l18.758 18.758a7.502 7.502 0 0010.607 0l28.786-28.787c8.792-8.79 23.027-8.794 31.819 0l28.787 28.787a7.502 7.502 0 0010.607 0l28.787-28.788c8.793-8.793 23.026-8.794 31.818.001l28.787 28.787a7.502 7.502 0 0010.607 0l18.758-18.758c7.653-7.656 20.622-2.635 21.312 8.029l13 200.528C416.152 471.601 391.87 497 361.792 497H149.823c-30.078 0-54.361-25.399-52.39-55.896l1.489-22.968a7.5 7.5 0 00-6.999-7.97c-4.115-.264-7.701 2.865-7.97 6.999l-1.489 22.968C79.923 479.186 111.029 512 149.823 512h211.969c38.798 0 69.899-32.818 67.358-71.867zm-186.665-85.164a67.821 67.821 0 00-5.824-17.97h32.305l-26.481 17.97zm-32.902-82.794h61.294c8.271 0 15 6.729 15 15v34.824h-59.161c-8.641-9.93-19.729-16.937-32.133-20.429V86.647c0-8.272 6.728-15 15-15zm-77.01 8.06a124.472 124.472 0 00-12.719 3.203c-6.296 1.95-12.349-5.061-8.24-11.582.847-1.344 2.237-2.352 3.896-2.835 6.939-1.981 7.325-11.722.554-14.24-7.6-2.829-5.676-15.478 3.957-14.481 3.505.364 7.158.896 10.855 1.578 6.327 1.162 11.998-5.924 6.762-12.648-.308-.396-.616-.794-.934-1.189-4.428-5.512-3.447-10.523 3.794-12.3 2.88-.704 5.826.274 7.689 2.555 18.662 22.871 29.587 51.32 31.183 80.82a68.881 68.881 0 00-15.564.993c-3.37-13.72-17.068-22.656-31.233-19.874zm59.718 132.202l-23.483 23.484-13.454-13.455c-4.917-4.916-11.304-7.744-18.098-8.045l-10.747-30.384c-12.106-34.229 13.364-70.01 49.512-70.01 36.439 0 61.512 36.078 49.512 70.01l-6.165 17.432c-10.341-.161-19.942 3.835-27.077 10.968zm100 0l-23.483 23.484-23.483-23.484a37.491 37.491 0 00-11.196-7.72l5.545-15.677a66.966 66.966 0 003.566-16.452c2.826-1.923 47.028-31.916 50.187-34.059l53.465 35.441.087.057c8.839 5.859 14.33 16.504 14.33 27.779v26.615l-15.983-15.984c-14.657-14.655-38.378-14.657-53.035 0z"/></svg>