<?xml version="1.0" encoding="iso-8859-1"?>
<!-- Generator: Adobe Illustrator 19.0.0, SVG Export Plug-In . SVG Version: 6.00 Build 0)  -->
<svg xmlns="http://www.w3.org/2000/svg" xmlns:xlink="http://www.w3.org/1999/xlink" version="1.1" id="Layer_1" x="0px" y="0px" viewBox="0 0 512 512" style="enable-background:new 0 0 512 512;" xml:space="preserve" width="512" height="512">
<g>
	<g>
		<g id="XMLID_215_">
			<g>
				<g>
					<path style="fill:#801518;" d="M461.52,380.358v-54.18c0-2.78-2.25-5.03-5.02-5.03h-23v-23.79l32.7-0.21       c11.21,0,20.3,9.09,20.3,20.3v73.91L461.52,380.358z"/>
				</g>
			</g>
		</g>
		<g id="XMLID_209_">
			<g>
				<path style="fill:#33AE4A;" d="M189.5,95.358c-13.25,0-24,10.75-24,24v24.59v59.579h48v-57.628v-26.54      C213.5,106.108,202.75,95.358,189.5,95.358z"/>
			</g>
		</g>
		<path style="fill:#21A049;" d="M189.5,119.358c0-8.878,4.83-16.627,12-20.779c-3.531-2.045-7.628-3.221-12-3.221    c-13.25,0-24,10.75-24,24v24.59v59.579h24v-59.579V119.358z"/>
		<g id="XMLID_210_">
			<g>
				<path style="fill:#9CB43B;" d="M419.86,31.788l-21.58-5.62l-19.37,21.43l-6.47-28.15l-21.58-5.62c-2.97-0.77-6,1.01-6.78,3.97      l-5.89,22.65c-3.3,12.67-0.32,25.5,7,35.2l49.48,12.88c11.12-4.9,19.97-14.65,23.27-27.32l5.9-22.65      C424.61,35.598,422.83,32.558,419.86,31.788z"/>
			</g>
		</g>
		<g>
			<g>
				<g>
					<path style="fill:#2F9145;" d="M321.31,91.898v128.96H235.5v-90.5v-11c0-8.39,4.94-15.62,12.05-18.98       c-0.67-1.88-1.05-3.9-1.05-6.02c0-9.94,8.06-18,18-18c2.7,0,5.25,0.61,7.55,1.67c1.94-7.84,9-13.67,17.45-13.67       c9.35,0,17.03,7.13,17.91,16.26C313.79,81.658,319.04,86.028,321.31,91.898z"/>
				</g>
			</g>
		</g>
		<path style="fill:#1A8743;" d="M261.773,156.631v-11c0-8.39,4.94-15.62,12.05-18.98c-0.67-1.88-1.05-3.9-1.05-6.02    c0-9.94,8.06-18,18-18c2.7,0,5.25,0.61,7.55,1.67c1.94-7.84,9-13.67,17.45-13.67c1.864,0,3.656,0.294,5.347,0.82    c-2.36-5.642-7.495-9.82-13.71-10.833c-0.88-9.13-8.56-16.26-17.91-16.26c-8.45,0-15.51,5.83-17.45,13.67    c-2.3-1.06-4.85-1.67-7.55-1.67c-9.94,0-18,8.06-18,18c0,2.12,0.38,4.14,1.05,6.02c-7.11,3.36-12.05,10.59-12.05,18.98v11v90.5    h26.273V156.631z"/>
		<g>
			<g id="XMLID_206_">
				<path style="fill:#F48131;" d="M371.75,75.078c-4.13-1.07-8.26-1.59-12.32-1.59c-22.7,0-43.19,15.98-47.8,39.35l-14.56,73.9      l-3.57,15.269l85.845,24.351l6.475-27.55l20.01-61.45C414.53,110.658,398.93,82.148,371.75,75.078z"/>
			</g>
		</g>
		<path style="fill:#F16839;" d="M335.128,202.007l3.57-15.269l14.56-73.9c3.126-15.847,13.558-28.288,27.025-34.661    c-2.696-1.268-5.539-2.321-8.533-3.099c-4.13-1.07-8.26-1.59-12.32-1.59c-22.7,0-43.19,15.98-47.8,39.35l-14.56,73.9l-3.57,15.269    l85.845,24.351l2.602-11.07L335.128,202.007z"/>
		<g id="XMLID_208_">
			<g>
				<path style="fill:#EF555E;" d="M143.5,138.358c-25.41,0-46,20.59-46,46c0,5.25,0.89,10.29,2.51,14.99v15.918h87.807      l1.233-24.538c0.29-2.08,0.45-4.21,0.45-6.37C189.5,158.948,168.91,138.358,143.5,138.358z"/>
			</g>
		</g>
		<path style="fill:#E43043;" d="M137,184.358c0-18.34,10.728-34.164,26.25-41.553c-5.984-2.849-12.679-4.447-19.75-4.447    c-25.41,0-46,20.59-46,46c0,5.25,0.89,10.29,2.51,14.99v15.918h39.5v-15.918C137.89,194.648,137,189.608,137,184.358z"/>
		<g id="XMLID_207_">
			<g>
				<g>
					<path style="fill:#FFC966;" d="M281.5,184.358c0-21.593-33.217-46.926-43.198-54.05c-1.68-1.199-3.925-1.199-5.605,0       c-9.98,7.124-43.198,32.457-43.198,54.05c0,2.39,0.18,4.73,0.53,7.02v20.723c0,0,90.812-0.244,90.812,0       s-0.142-19.203-0.142-19.203C281.22,190.128,281.5,187.278,281.5,184.358z"/>
				</g>
			</g>
		</g>
		<g>
			<path style="fill:#F8A563;" d="M272.667,212.011c5.063,0.017,8.175,0.045,8.175,0.09c0,0.011,0-0.032-0.001-0.1     C278.137,212.003,275.4,212.007,272.667,212.011z"/>
			<path style="fill:#F8A563;" d="M228.418,212.02v-20.642c-0.35-2.29-0.53-4.63-0.53-7.02c0-14.113,14.189-29.821,26.806-41.001     c-6.688-5.926-12.934-10.582-16.391-13.049c-1.68-1.199-3.925-1.199-5.605,0c-9.98,7.124-43.198,32.457-43.198,54.05     c0,2.39,0.18,4.73,0.53,7.02v20.723C190.03,212.101,208.281,212.052,228.418,212.02z"/>
		</g>
		<g id="XMLID_204_">
			<g>
				<g>
					<path style="fill:#F9AA5C;" d="M402.051,187.991L379,203.358l-26.556-17.704c-1.177-0.785-2.711-0.785-3.888,0L322,203.358       l-28.5-19l-10.747,10.747v303.253H293.5h3.005H367.5h40v-272v-35.451C407.5,188.108,404.38,186.438,402.051,187.991z"/>
				</g>
				<g>
					<path style="fill:#FCC58B;" d="M265,203.358l-25.629-17.086c-1.738-1.159-4.003-1.159-5.741,0L208,203.358l-25.629-17.086       c-1.738-1.159-4.003-1.159-5.741,0L151,203.358l-25.629-17.086c-1.738-1.159-4.003-1.159-5.741,0L94,203.358l-4.5-3v51v247h34       h170v-314L265,203.358z"/>
				</g>
			</g>
		</g>
		<g id="XMLID_205_">
			<g>
				<g>
					<path style="fill:#F9AA5C;" d="M140.104,498.358c3.432-6.152,5.396-13.229,5.396-20.76V299.417       c0-25.342-13.179-48.512-34-61.686v-46.041L94,203.358l-4.5-3v51v247h34H140.104z"/>
					<path style="fill:#FFC966;" d="M123.5,299.418v178.18c0,11.46-9.3,20.76-20.76,20.76H28.26c-11.46,0-20.76-9.3-20.76-20.76       v-178.18c0-10.8,3.41-21.02,9.36-29.44c5.96-8.41,14.46-15.02,24.64-18.62v-138h48v138       C109.87,258.548,123.5,277.808,123.5,299.418z"/>
				</g>
			</g>
		</g>
		<path style="fill:#F8A563;" d="M38.5,477.598v-178.18c0-10.8,3.41-21.02,9.36-29.44c5.96-8.41,14.46-15.02,24.64-18.62v-138h-31    v138c-10.18,3.6-18.68,10.21-24.64,18.62c-5.95,8.42-9.36,18.64-9.36,29.44v178.18c0,11.46,9.3,20.76,20.76,20.76h31    C47.8,498.358,38.5,489.058,38.5,477.598z"/>
		<g id="XMLID_212_">
			<g>
				<g>
					<path style="fill:#FFF0CE;" d="M98.5,301.298v157.62c0,7.97-6.47,14.44-14.44,14.44H46.94c-7.97,0-14.44-6.47-14.44-14.44       v-157.62c0-7.97,6.47-14.44,14.44-14.44h37.12C92.03,286.858,98.5,293.328,98.5,301.298z"/>
				</g>
			</g>
		</g>
		<path style="fill:#FCE0AC;" d="M84.06,286.858H46.94c-7.97,0-14.44,6.47-14.44,14.44v2.774h34.346c7.97,0,14.44,6.47,14.44,14.44    v154.846h2.774c7.97,0,14.44-6.47,14.44-14.44v-157.62C98.5,293.328,92.03,286.858,84.06,286.858z"/>
		<g id="XMLID_213_">
			<g>
				<g>
					<path style="fill:#D67728;" d="M96.5,103.378v3.96c0,5.53-4.49,10.02-10.02,10.02H46.52c-5.53,0-10.02-4.49-10.02-10.02v-3.96       c0-5.53,4.49-10.02,10.02-10.02h39.96C92.01,93.358,96.5,97.848,96.5,103.378z"/>
				</g>
			</g>
		</g>
		<path style="fill:#C65A2E;" d="M59.5,107.338v-3.96c0-5.53,4.49-10.02,10.02-10.02h-23c-5.53,0-10.02,4.49-10.02,10.02v3.96    c0,5.53,4.49,10.02,10.02,10.02h23C63.99,117.358,59.5,112.868,59.5,107.338z"/>
		<g id="XMLID_214_">
			<g>
				<g>
					<path style="fill:#801518;" d="M504.5,402.198v84.57c0,6.401-5.189,11.59-11.59,11.59h-118.1c-4.037,0-7.31-3.273-7.31-7.31       v-189.69c0-4.97,2.02-9.47,5.27-12.73c3.26-3.25,7.76-5.27,12.73-5.27v-40h33v40c9.94,0,18,8.06,18,18v63l61.13,27.25       C501.81,393.468,504.5,397.618,504.5,402.198z"/>
				</g>
			</g>
		</g>
		<g id="XMLID_217_">
			<g>
				<g>
					<path style="fill:#D67728;" d="M427.5,234.398v6.92c0,4.44-3.6,8.04-8.04,8.04h-34.92c-4.44,0-8.04-3.6-8.04-8.04v-6.92       c0-4.44,3.6-8.04,8.04-8.04h34.92C423.9,226.358,427.5,229.958,427.5,234.398z"/>
				</g>
			</g>
		</g>
		<g id="XMLID_216_">
			<g>
				<g>
					<path style="fill:#FFF0CE;" d="M479.5,412.358v58.75c0,1.242-1.007,2.25-2.25,2.25H394.75c-1.242,0-2.25-1.007-2.25-2.25       v-88.501c0-1.242,1.007-2.25,2.25-2.25h16.75v0.23l66.666,29.715C478.977,410.665,479.5,411.47,479.5,412.358z"/>
				</g>
			</g>
		</g>
		<path style="fill:#FCE0AC;" d="M478.166,410.303L411.5,380.588v-0.23h-16.75c-1.242,0-2.25,1.007-2.25,2.25v6.843h9.908v0.23    l66.666,29.716c0.811,0.362,1.334,1.167,1.334,2.055v51.907h6.843c1.242,0,2.25-1.007,2.25-2.25v-58.75    C479.5,411.47,478.977,410.665,478.166,410.303z"/>
	</g>
	<g>
		<path d="M500.684,384.758L494,381.779v-64.326c0-15.332-12.473-27.805-27.858-27.805l-24.917,0.176    c-3.108-6.099-8.587-10.795-15.225-12.841v-21.589c5.306-2.477,9-7.848,9-14.08v-6.912c0-8.571-6.973-15.544-15.544-15.544H415    v-34.5c0-2.766-1.522-5.308-3.961-6.612c-2.438-1.306-5.398-1.163-7.699,0.372l-3.693,2.462l13.317-40.896    c4.852-14.899,3.382-30.677-4.14-44.423c-0.865-1.581-1.804-3.103-2.797-4.576c9.406-6.57,16.218-16.24,19.171-27.586    l5.896-22.647c0.878-3.375,0.39-6.889-1.375-9.896c-1.765-3.007-4.595-5.146-7.969-6.024l-21.583-5.618    c-2.705-0.706-5.578,0.154-7.452,2.228l-9.72,10.751l-3.245-14.125c-0.626-2.725-2.715-4.875-5.42-5.579L352.747,6.57    c-3.374-0.881-6.888-0.391-9.895,1.374c-3.007,1.765-5.147,4.595-6.025,7.969l-5.895,22.647    c-2.953,11.347-1.722,23.111,3.287,33.433c-1.585,0.801-3.146,1.672-4.672,2.63c-2.609,1.639-5.045,3.466-7.309,5.451    c-2.413-2.333-5.272-4.193-8.421-5.433c-3.269-10.434-12.941-17.784-24.317-17.784c-9.084,0-17.229,4.768-21.756,12.207    c-1.07-0.138-2.152-0.207-3.244-0.207c-14.061,0-25.5,11.439-25.5,25.5c0,0.817,0.04,1.634,0.12,2.446    c-6.897,5.334-11.12,13.666-11.12,22.554v5.063c-1.841,1.306-4.249,3.067-7,5.207v-10.269c0-17.369-14.131-31.5-31.5-31.5    s-31.5,14.131-31.5,31.5v13.513c-4.615-1.302-9.474-2.013-14.5-2.013c-19.9,0-37.284,10.929-46.5,27.093v-36.637    c4.241-3.201,7-8.267,7-13.978v-3.957c0-9.661-7.86-17.521-17.521-17.521H46.521C36.86,85.858,29,93.718,29,103.379v3.957    c0,4.757,1.912,9.072,5,12.232v126.747c-20.539,9.466-34,30.172-34,53.098v178.181c0,15.585,12.679,28.264,28.264,28.264l0,0l0,0    l0,0h464.648l0,0c10.525,0,19.088-8.563,19.088-19.089v-84.576C512,394.665,507.558,387.823,500.684,384.758z M454.021,363.868    L444,359.462v-30.814h10.021V363.868z M466.195,304.648c7.061,0,12.805,5.744,12.805,12.805v57.411l-9.979-4.39v-44.3    c0-6.906-5.619-12.525-12.526-12.525H444v-8.843L466.195,304.648z M420,234.402v6.912c0,0.3-0.244,0.544-0.544,0.544H418.5h-33    h-0.956c-0.3,0-0.544-0.244-0.544-0.544v-6.912c0-0.3,0.244-0.544,0.544-0.544h34.911C419.756,233.858,420,234.102,420,234.402z     M345.448,42.339l5.404-20.763l15.297,3.981l5.448,23.717c0.626,2.725,2.715,4.875,5.42,5.579    c2.706,0.706,5.578-0.154,7.453-2.228l16.32-18.051l15.297,3.981l-5.405,20.763c-2.194,8.429-7.467,15.524-14.741,20.06    c-6.361-5.419-13.919-9.378-22.299-11.559c-8.38-2.181-16.909-2.41-25.105-0.78C344.398,59.534,343.254,50.768,345.448,42.339z     M337.525,87.326c2.98-1.871,6.125-3.331,9.373-4.379c0.306-0.072,0.61-0.162,0.908-0.274c7.099-2.11,14.658-2.262,22.059-0.336    c7.4,1.927,13.924,5.744,19.092,11.046c0.183,0.216,0.385,0.411,0.589,0.603c2.355,2.519,4.413,5.355,6.12,8.475    c5.517,10.082,6.595,21.652,3.036,32.579l-9.144,28.08l-20.728-5.396c-4.01-1.045-8.104,1.359-9.148,5.368    c-1.043,4.009,1.36,8.104,5.369,9.147l19.854,5.169l-5.407,16.605L379,194.344l-24.34-16.227c-2.52-1.68-5.801-1.68-8.32,0    L322,194.344l-16.601-11.067l9.23-46.857l19.145,4.984c0.633,0.165,1.269,0.244,1.894,0.244c3.332,0,6.375-2.237,7.253-5.612    c1.043-4.009-1.36-8.104-5.369-9.147l-20.019-5.211l1.455-7.387c1.278-6.487,4.006-12.405,7.94-17.431    c0.117-0.133,0.226-0.272,0.333-0.413C330.105,92.91,333.547,89.825,337.525,87.326z M197.103,187.08    c-0.063-0.905-0.103-1.814-0.103-2.722c0-9.525,9.829-21.934,21.233-32.644c0.247-0.201,0.477-0.42,0.696-0.65    c5.338-4.954,10.977-9.516,16.093-13.229c0.159,0.01,0.316,0.024,0.478,0.024c0.164,0,0.324-0.014,0.485-0.024    C252.315,149.67,274,170.172,274,184.358c0,1.371-0.086,2.757-0.237,4.145L265,194.344l-24.34-16.227    c-2.52-1.68-5.801-1.68-8.32,0L208,194.344L197.103,187.08z M250.758,107.161c3.484-1.646,5.154-5.664,3.863-9.295    c-0.412-1.157-0.621-2.338-0.621-3.508c0-5.79,4.71-10.5,10.5-10.5c1.511,0,2.99,0.33,4.395,0.979    c2.032,0.941,4.377,0.925,6.396-0.044s3.499-2.788,4.036-4.962c1.161-4.694,5.344-7.974,10.174-7.974    c5.436,0,9.927,4.073,10.447,9.474c0.326,3.391,2.896,6.136,6.258,6.685c2.418,0.395,4.58,1.64,6.163,3.429    c-3.901,5.968-6.667,12.694-8.096,19.946l-12.962,65.802c-0.093,0.028-0.184,0.059-0.276,0.091    c-0.153,0.053-0.301,0.119-0.451,0.182c-0.164,0.069-0.327,0.137-0.486,0.219c-0.044,0.023-0.091,0.038-0.135,0.061    c-0.107,0.057-0.202,0.129-0.305,0.191c-0.104,0.063-0.214,0.113-0.316,0.181l-0.893,0.595    c-4.446-23.39-34.667-46.65-45.447-54.293v-5.063C243,114.174,246.045,109.387,250.758,107.161z M173,119.358    c0-9.098,7.402-16.5,16.5-16.5s16.5,7.402,16.5,16.5v23.221c-5.375,5.195-10.691,11.079-14.95,17.306    c-4.211-8.149-10.448-15.084-18.05-20.129V119.358z M143.5,145.858c18.746,0,34.397,13.471,37.804,31.238    c-2.01-0.499-4.177-0.169-5.964,1.022L151,194.344l-24.34-16.227c-2.52-1.68-5.801-1.68-8.32,0l-13.245,8.83    c-0.058-0.861-0.095-1.724-0.095-2.59C105,163.129,122.271,145.858,143.5,145.858z M44,103.379c0-1.391,1.131-2.521,2.521-2.521    h39.957c1.39,0,2.521,1.131,2.521,2.521v3.957c0,1.391-1.131,2.521-2.521,2.521H46.521c-1.39,0-2.521-1.131-2.521-2.521V103.379z     M102.736,490.858H28.264c-7.313,0-13.264-5.95-13.264-13.264V299.414c0-18.392,11.653-34.861,28.996-40.983    c2.999-1.059,5.004-3.893,5.004-7.072v-126.5h33v126.5c0,0.01,0-0.01,0,0l0,0c0,3.18,2.005,6.014,5.004,7.072    C104.347,264.552,116,281.022,116,299.414v59.444c0,4.143,3.358,7.5,7.5,7.5s7.5-3.357,7.5-7.5v-59.444    c0-22.926-13.461-43.632-34-53.098v-36.097c0.399-0.175,0.789-0.374,1.16-0.621l24.34-16.227l24.34,16.227    c2.52,1.68,5.801,1.68,8.32,0l24.34-16.227l24.34,16.227c2.52,1.68,5.801,1.68,8.32,0l24.34-16.227l24.34,16.227    c2.52,1.68,5.801,1.68,8.32,0L286,198.372v292.486H127.685c2.113-3.958,3.315-8.472,3.315-13.264v-88.736    c0-4.143-3.358-7.5-7.5-7.5s-7.5,3.357-7.5,7.5v88.736C116,484.908,110.05,490.858,102.736,490.858L102.736,490.858z M301,198.372    l16.84,11.227c2.52,1.68,5.801,1.68,8.32,0l24.34-16.227l24.34,16.227c2.52,1.68,5.801,1.68,8.32,0L400,198.372v20.486h-15.456    c-8.571,0-15.544,6.973-15.544,15.544v6.912c0,6.231,3.694,11.603,9,14.08v21.589c-10.412,3.21-18,12.923-18,24.375v189.5h-59    V198.372z M497,486.769c0,2.255-1.834,4.089-4.088,4.089H375v-189.5c0-5.79,4.71-10.5,10.5-10.5c4.142,0,7.5-3.357,7.5-7.5v-26.5    h18v26.5c0,4.143,3.358,7.5,7.5,7.5c5.79,0,10.5,4.71,10.5,10.5l0,0v63c0,0.371,0.027,0.737,0.081,1.097c0,0.001,0,0.002,0,0.003    c0.018,0.122,0.056,0.237,0.08,0.357c0.047,0.234,0.088,0.47,0.156,0.698c0.043,0.143,0.107,0.278,0.158,0.418    c0.072,0.196,0.135,0.396,0.223,0.585c0.069,0.149,0.159,0.287,0.238,0.431c0.092,0.168,0.175,0.342,0.279,0.503    c0.096,0.147,0.211,0.28,0.317,0.42c0.109,0.144,0.208,0.295,0.327,0.431c0.12,0.137,0.259,0.257,0.389,0.386    c0.125,0.123,0.24,0.254,0.374,0.368c0.139,0.119,0.294,0.219,0.443,0.328c0.143,0.105,0.278,0.22,0.429,0.315    c0.151,0.095,0.317,0.17,0.475,0.255c0.16,0.085,0.311,0.182,0.479,0.257l61.13,27.251c1.472,0.656,2.423,2.121,2.423,3.733    V486.769z"/>
		<path d="M360.893,130.058l14.011,3.647c0.634,0.165,1.269,0.244,1.895,0.244c3.332,0,6.375-2.237,7.253-5.612    c1.043-4.009-1.36-8.104-5.369-9.147l-14.011-3.647c-4.011-1.043-8.104,1.36-9.148,5.368    C354.481,124.919,356.885,129.015,360.893,130.058z"/>
		<path d="M106,301.299c0-12.099-9.843-21.941-21.942-21.941H46.942c-12.099,0-21.942,9.843-21.942,21.941v157.617    c0,12.099,9.843,21.941,21.942,21.941h37.116c12.099,0,21.942-9.843,21.942-21.941V301.299z M91,458.916    c0,3.827-3.114,6.941-6.942,6.941H46.942c-3.828,0-6.942-3.114-6.942-6.941V301.299c0-3.827,3.114-6.941,6.942-6.941h37.116    c3.828,0,6.942,3.114,6.942,6.941V458.916z"/>
		<path d="M482.554,404.047l-66.485-29.638c-1.265-0.973-2.85-1.552-4.569-1.552h-19c-4.142,0-7.5,3.357-7.5,7.5v93    c0,4.143,3.358,7.5,7.5,7.5h87c4.142,0,7.5-3.357,7.5-7.5v-62.46C487,407.937,485.258,405.253,482.554,404.047z M472,465.858h-72    v-78h9.396L472,415.766V465.858z"/>
	</g>
</g>















</svg>
