<svg height="500" width="500" xmlns="http://www.w3.org/2000/svg"><path d="M342.546 331.286c62.069-70.996 23.73-182.318-69.02-200.376-92.749-18.065-170.345 70.685-139.672 159.746a122.317 122.317 0 0023.606 40.695" fill="#fcd462"/><path d="M351.412 319.939c35.673-87.176-36.757-180.137-130.373-167.33-34.452 4.716-65.284 23.763-84.83 52.432 35.55-87.248 152.564-103.442 210.622-29.145 32.768 41.922 34.618 100.14 4.581 144.043z" fill="#f7be56"/><path d="M157.467 334.602a3.257 3.257 0 01-2.45-1.113c-63.759-72.83-24.473-187.129 70.719-205.721 95.184-18.6 174.89 72.448 143.459 163.87a125.389 125.389 0 01-24.185 41.78c-1.647 1.892-4.725 1.292-5.542-1.07a3.235 3.235 0 01.621-3.192c60.422-69.111 23.101-177.472-67.184-195.06-90.285-17.582-165.822 68.807-135.959 155.499a118.901 118.901 0 0022.978 39.618c1.648 1.886.636 4.84-1.828 5.331a3.7 3.7 0 01-.629.058z" fill="#333"/><path d="M471.626 402.78c-25.507 11.695-25.333 12.439-53.398 12.439-28.065 0-28.036-13.03-56.136-13.03-28.094 0-28.029 13.03-56.064 13.03-28.029 0-28.029-13.03-56.108-13.03-28.079 0-28.036 13.03-56.064 13.03-28.036 0-28.036-13.03-56.071-13.03-28.029 0-28.029 13.03-56.065 13.03-28.028 0-27.905-.766-53.405-12.431V316.45c25.5 11.673 25.312 12.424 53.348 12.424 28.043 0 28.035-13.03 56.064-13.03 28.035 0 28.035 13.03 56.071 13.03 28.029 0 28.029-13.03 56.064-13.03 28.029 0 28.029 13.03 56.108 13.03 28.079 0 28.035-13.03 56.064-13.03 28.036 0 28.036 13.03 56.136 13.03 28.094 0 27.891-.759 53.398-12.438z" fill="#87e6f2"/><path d="M28.301 381.877c15.116 6.811 17.703 7.36 40.897 7.36 28.094 0 28.094-13.052 56.13-13.052 28.035 0 28.035 13.052 56.064 13.052 28.035 0 28.1-13.052 56.129-13.052 28.035 0 28.035 13.052 56.071 13.052 28.029 0 28.094-13.052 56.13-13.052 28.028 0 28.028 13.052 56.063 13.052 28.036 0 27.834-.773 65.84-15.717v22.045c-26.38 9.419-30.744 9.939-53.173 9.939-28.1 0-28.1-13.052-56.13-13.052-28.035 0-28.035 13.052-56.063 13.052-28.036 0-28.036-13.052-56.072-13.052-28.028 0-28.028 13.052-56.129 13.052-28.093 0-28.028-13.052-56.064-13.052-28.035 0-28.1 13.052-56.129 13.052-24.517 0-26.208-.65-53.542-10.149zm443.151-56.08c-15.087 6.818-17.674 7.367-40.84 7.367-28.056 0-28.056-13.052-56.063-13.052-28 0-28 13.052-55.992 13.052-27.992 0-28.065-13.052-56.064-13.052-27.993 0-27.993 13.052-55.992 13.052-27.992 0-28.057-13.052-56.057-13.052-28 0-28 13.052-56 13.052-27.991 0-27.804-.78-65.76-15.717v22.045c26.352 9.419 30.702 9.939 53.109 9.939 28.064 0 28.064-13.06 56.057-13.06 28.006 0 28.006 13.06 56.006 13.06s28-13.06 55.999-13.06c27.985 0 27.985 13.06 56.042 13.06 28.072 0 28-13.06 56.007-13.06 27.992 0 28.064 13.06 56.064 13.06 24.473 0 26.164-.65 53.47-10.156z" fill="#4bc3ca"/><path d="M418.235 332.117a60.527 60.527 0 01-29.437-6.819 60.42 60.42 0 00-53.355 0 66.89 66.89 0 01-58.853 0 54.412 54.412 0 00-26.692-6.168 54.25 54.25 0 00-26.662 6.219 60.607 60.607 0 01-29.423 6.768 60.444 60.444 0 01-29.416-6.819 54.302 54.302 0 00-26.663-6.168 54.313 54.313 0 00-26.656 6.212 60.514 60.514 0 01-29.423 6.775c-27.03 0-28.794-.809-50.305-10.705l-4.393-2.022c-2.254-1.112-2.457-4.226-.361-5.612a3.259 3.259 0 013.085-.29l4.4 2.03c21.15 9.744 21.974 10.105 47.574 10.105a54.288 54.288 0 0026.656-6.204 60.539 60.539 0 0129.423-6.783 60.506 60.506 0 0129.416 6.819 54.32 54.32 0 0026.663 6.168 54.322 54.322 0 0026.662-6.211 60.614 60.614 0 0129.423-6.776 60.59 60.59 0 0129.438 6.819 60.358 60.358 0 0053.347 0 66.922 66.922 0 0158.868 0 54.403 54.403 0 0026.684 6.168c25.644 0 26.475-.382 47.646-10.12l4.394-2.014c2.305-.983 4.82.895 4.508 3.373a3.246 3.246 0 01-1.784 2.52l-4.386 2.023c-21.554 9.925-23.31 10.712-50.378 10.712zm0 86.353a60.608 60.608 0 01-29.437-6.82 60.374 60.374 0 00-53.355 0 66.89 66.89 0 01-58.853 0 54.383 54.383 0 00-26.677-6.218 54.328 54.328 0 00-26.663 6.219 60.533 60.533 0 01-29.423 6.818 60.506 60.506 0 01-29.416-6.818 54.313 54.313 0 00-26.655-6.212 54.313 54.313 0 00-26.656 6.212 60.524 60.524 0 01-29.416 6.818c-27.038 0-28.794-.809-50.312-10.712l-4.393-2.022c-2.305-.975-2.681-4.081-.68-5.584.99-.73 2.305-.86 3.404-.31l4.4 2.03c21.15 9.736 21.98 10.112 47.596 10.112 9.27.238 18.447-1.9 26.655-6.212a60.506 60.506 0 0129.416-6.819 60.524 60.524 0 0129.416 6.819 54.313 54.313 0 0026.655 6.212 54.328 54.328 0 0026.663-6.22 60.533 60.533 0 0129.423-6.818 60.58 60.58 0 0129.43 6.819 60.358 60.358 0 0053.348 0 66.922 66.922 0 0158.867 0 54.41 54.41 0 0026.685 6.219c25.651 0 26.475-.383 47.653-10.127l4.386-2.015c2.248-1.112 4.856.621 4.697 3.12a3.233 3.233 0 01-1.973 2.774l-4.371 2.015c-21.583 9.91-23.34 10.72-50.414 10.72zm-14.184-45.997a59.69 59.69 0 01-27.053-5.757 59.82 59.82 0 00-48.961 0 66.384 66.384 0 01-54.113 0 53.368 53.368 0 00-24.48-5.237 53.348 53.348 0 00-24.467 5.237 59.6 59.6 0 01-27.031 5.757 59.62 59.62 0 01-27.032-5.757 53.315 53.315 0 00-24.437-5.23 53.299 53.299 0 00-24.459 5.237 59.714 59.714 0 01-27.031 5.757c-24.835 0-26.446-.65-46.216-9.044l-4.032-1.704c-2.312-.975-2.702-4.081-.693-5.584a3.25 3.25 0 013.23-.397l4.046 1.705c19.401 8.212 20.152 8.53 43.68 8.53a53.411 53.411 0 0024.458-5.237 59.56 59.56 0 0127.017-5.756 59.57 59.57 0 0127.024 5.756 53.421 53.421 0 0024.466 5.237 53.421 53.421 0 0024.467-5.237 59.65 59.65 0 0127.038-5.756 59.65 59.65 0 0127.039 5.756 59.786 59.786 0 0048.946 0 66.384 66.384 0 0154.114 0 53.53 53.53 0 0024.487 5.237c23.542 0 24.293-.318 43.73-8.538l4.032-1.697c2.29-1.018 4.834.809 4.574 3.301a3.247 3.247 0 01-2.038 2.68l-4.017 1.704c-19.806 8.358-21.453 9.037-46.288 9.037z" fill="#333"/><path d="M158.45 269.977a4.225 4.225 0 01-4.14-3.323 93.436 93.436 0 012.117-49.363c.968-3.106 4.957-3.994 7.168-1.596a4.22 4.22 0 01.925 4.117 84.908 84.908 0 00-1.959 45.072c.579 2.637-1.437 5.121-4.147 5.114zm9.357-65.528c-3.251.281-5.578-3.056-4.198-5.996.05-.1.101-.21.16-.303a19.373 19.373 0 013.085-4.738c1.958-2.6 6.004-2.102 7.283.888a4.207 4.207 0 01-.513 4.19 14.225 14.225 0 00-2.5 3.85 4.233 4.233 0 01-3.317 2.109z" fill="#fff"/><path d="M249.973 112.905a3.26 3.248 0 01-3.26-3.248V84.761a3.26 3.248 0 016.52 0v24.896a3.26 3.248 0 01-3.26 3.248zm-57.689 12.218a3.26 3.248 0 01-2.98-1.949l-10.163-22.733a3.26 3.248 0 015.952-2.638l10.164 22.734a3.26 3.248 0 01-1.65 4.287 3.194 3.183 0 01-1.323.299zm-47.721 34.542a3.26 3.248 0 01-2.177-.832l-18.573-16.66a3.26 3.248 0 114.361-4.826l18.573 16.66a3.26 3.248 0 01-2.177 5.664zm-29.466 50.891a3.26 3.248 0 01-1.004-.156l-23.77-7.697a3.26 3.248 0 112.015-6.177l23.769 7.69a3.26 3.248 0 01-1.004 6.34zm-31.045 61.043a3.264 3.252 0 01-.339-6.496l24.858-2.598a3.26 3.248 0 11.652 6.457L84.37 271.56zm223.609-146.476a3.194 3.183 0 01-1.303-.28 3.26 3.248 0 01-1.65-4.286l10.164-22.734a3.26 3.248 0 115.952 2.637l-10.164 22.734a3.26 3.248 0 01-2.999 1.929zm47.721 34.542a3.26 3.248 0 01-2.177-5.664l18.573-16.66a3.26 3.248 0 114.361 4.825l-18.573 16.661a3.26 3.248 0 01-2.184.838zm29.493 50.891a3.26 3.248 0 01-1.004-6.34l23.77-7.69a3.26 3.248 0 012.014 6.177l-23.77 7.69a3.26 3.248 0 01-1.01.163zm31.025 61.043h-.345L390.703 269a3.26 3.248 0 11.652-6.457l24.852 2.598a3.264 3.252 0 01-.34 6.496z" fill="#333"/></svg>