<svg height="512" width="512" xmlns="http://www.w3.org/2000/svg"><path d="M141.867 502h303.456c11.301 0 20.463-9.161 20.463-20.463V27.096c0-9.442-7.654-17.096-17.096-17.096H141.867" fill="#c4ead9"/><path d="M390.595 221.464V71.643L328.953 10H66.676c-11.301 0-20.463 9.162-20.463 20.463v451.074c0 11.301 9.162 20.463 20.463 20.463h303.456c11.301 0 20.463-9.162 20.463-20.463V325.269" fill="#e5ecec"/><path d="M328.953 71.643h61.642L328.953 10z" fill="#9bc6ff"/><path d="M390.6 282c-4.237 0-8.113-2.769-9.47-6.786-1.353-4.005.013-8.573 3.379-11.145 3.234-2.471 7.738-2.712 11.23-.637 3.579 2.126 5.492 6.448 4.661 10.528-.939 4.609-5.084 8.04-9.8 8.04z"/><path d="M103.582 408.087V178.162c0-63.414 51.408-114.822 114.822-114.822 63.415 0 114.822 51.408 114.822 114.822v229.925" fill="#8481e2"/><path d="M295.788 197.501h-1.456l-.004-27.857h-24.492l-21.095-30.926-22.081 30.926h-84.696l-.004 27.857h-.939c-8.209 0-15.2 6.383-15.492 14.587-.306 8.613 6.585 15.691 15.129 15.691h2.675l1.319 6.051c0 43.302 52.049 61.686 58.447 62.602l-7.597 28.837h45.286l-7.597-28.838c6.396-.915 58.448-19.092 58.448-62.601l1.319-6.051h3.192c8.544 0 15.435-7.079 15.129-15.691-.292-8.204-7.283-14.587-15.491-14.587z" fill="#ffcbbe"/><path d="M103.582 408.087v-54.838c0-15.453 12.527-27.98 27.98-27.98h173.682c15.454 0 27.982 12.528 27.982 27.983v54.835z" fill="#f5737f"/><path d="M181.708 231.464c-5.522 0-10-4.477-10-10v-12.556c0-5.523 4.478-10 10-10 5.523 0 10 4.477 10 10v12.556c0 5.523-4.478 10-10 10zm73.393 0c-5.523 0-10-4.477-10-10v-12.556c0-5.523 4.477-10 10-10 5.522 0 10 4.477 10 10v12.556c0 5.523-4.478 10-10 10zm-36.679 42.15c-7.937 0-15.338-4.271-19.316-11.145-2.767-4.78-1.134-10.897 3.646-13.664 4.781-2.768 10.898-1.133 13.664 3.646.158.272.769 1.163 2.006 1.163s1.848-.889 2.005-1.161c2.766-4.781 8.884-6.414 13.663-3.649 4.781 2.766 6.415 8.883 3.65 13.664-3.978 6.875-11.38 11.146-19.318 11.146z"/><path d="M218.404 375.777l-37.508-50.508h75.017z" fill="#e5ecec"/><path d="M448.691 0H66.677C49.879 0 36.213 13.665 36.213 30.463v451.074c0 16.797 13.666 30.463 30.464 30.463h378.647c16.797 0 30.463-13.665 30.463-30.463V27.096C475.787 12.155 463.632 0 448.691 0zm-82.238 61.643h-27.5v-27.5l13.75 13.75zm89.334 419.894c0 5.769-4.693 10.463-10.463 10.463h-46.58a30.31 30.31 0 001.851-10.463V325.27c0-5.523-4.478-10-10-10s-10 4.477-10 10v156.268c0 5.769-4.693 10.463-10.463 10.463H66.677c-5.77 0-10.464-4.694-10.464-10.463V30.463C56.213 24.694 60.907 20 66.677 20h252.276v51.643c0 5.523 4.478 10 10 10h51.643v139.821c0 5.523 4.478 10 10 10s10-4.477 10-10V71.643c0-2.61-1.058-5.237-2.929-7.071L353.096 20h95.596c3.912 0 7.096 3.183 7.096 7.096v454.441z"/><path d="M218.404 53.34c-68.827 0-124.822 55.995-124.822 124.822v229.925c0 5.523 4.478 10 10 10h229.645c5.522 0 10-4.477 10-10V178.162c0-68.827-55.996-124.822-124.823-124.822zM113.582 353.249c0-9.914 8.065-17.979 17.979-17.979h44.305l34.51 46.47a10.001 10.001 0 0016.056 0l34.51-46.47h44.302c9.915 0 17.982 8.067 17.982 17.982v44.835H113.582zm97.899-62.335c-1.577-2.378-4.046-3.962-6.87-4.366-6.227-1.153-49.958-17.887-49.958-52.717 0-.716-.077-1.43-.23-2.13l-1.319-6.052a10 10 0 00-9.771-7.87h-2.676a5.108 5.108 0 01-3.698-1.571 5.118 5.118 0 01-1.436-3.766c.097-2.725 2.563-4.941 5.497-4.941h.939c5.522 0 9.999-4.477 10-9.999l.002-17.858h74.697c3.23 0 6.262-1.561 8.139-4.189l13.755-19.266 13.021 19.089a9.996 9.996 0 008.261 4.365h14.493l.003 17.859c.001 5.522 4.478 9.999 10 9.999h1.455c2.935 0 5.401 2.217 5.498 4.941.068 1.911-.871 3.179-1.437 3.766s-1.8 1.571-3.698 1.571h-3.191a10.001 10.001 0 00-9.771 7.87l-1.319 6.052c-.152.7-.23 1.413-.23 2.13 0 14.805-7.472 27.864-22.206 38.816-11.972 8.898-25.099 13.414-27.659 13.886a9.998 9.998 0 00-8.253 12.447l4.292 16.29h-19.335l4.291-16.29c.729-2.758.291-5.688-1.286-8.066zm24.55 44.356l-17.627 23.735-17.627-23.735zm87.196-15.466a37.75 37.75 0 00-17.982-4.534h-56.748l-3.21-12.184c7.272-2.853 16.685-7.517 25.43-13.909 19.162-14.008 29.769-31.918 30.835-51.973 4.801-1.042 9.185-3.477 12.688-7.107 4.78-4.953 7.278-11.475 7.033-18.365-.378-10.637-7.32-19.469-16.941-22.804l-.003-19.286c-.001-5.522-4.478-9.999-10-9.999H275.12l-18.118-26.561a9.999 9.999 0 00-8.153-4.365 9.959 9.959 0 00-8.246 4.189l-19.09 26.737h-79.549c-5.522 0-9.999 4.477-10 9.999l-.002 19.471c-9.353 3.468-16.055 12.174-16.426 22.619-.245 6.889 2.253 13.411 7.032 18.364 3.376 3.498 7.571 5.887 12.169 6.989 1.034 20.018 11.64 37.943 30.828 52.007 8.771 6.429 18.18 11.113 25.444 13.979l-3.214 12.199H131.56c-6.5 0-12.624 1.643-17.979 4.533v-141.64c0-57.799 47.023-104.822 104.822-104.822s104.822 47.023 104.822 104.822v141.641zm10 142.536H103.582c-5.522 0-10-4.477-10-10s4.478-10 10-10h229.645c5.522 0 10 4.477 10 10s-4.478 10-10 10z"/></svg>