<svg width="200" height="200" xmlns="http://www.w3.org/2000/svg"><path d="M113.739 76.908H78.577l32.596-55.036H70.108l-38.5 82.553h30.286l-30.285 77.05 82.13-104.567z" fill="#b9ffa6"/><path d="M111.102 21.88H99.394L67.179 77.007h11.709l32.214-55.129zm-7.618 55.052l-61.598 78.425L31.62 181.5l82.13-104.567h-10.266z" fill="#83ff60"/><path d="M81.75 141.543c-1.664-4.107-.48-10.02-.48-10.02l-.364-3.943c-.206-14.627 4.684-28.856 8.823-38.216 4.874-11.026 5.955-16.48 6.469-17.22.108-.525.988-4.034 5.238-5.555 4.745-2.73 14.832-7.326 22.703-7.326 3.355 0 6.052.822 8.016 2.442 6.644 5.477 7.737 9.179 7.483 11.32-.227 1.927-1.514 3.008-2.16 3.437l.104.366c.304 1.08-.008 3.302-5.503 6.059-2.473 1.24-4.872 1.844-7.334 1.844-3.341 0-6.135-1.159-8.402-2.1-.365-.15-.72-.298-1.064-.435-.83-.33-1.616-.36-2.313-.078-1.377.558-2.248 2.222-2.543 3.093.317 1.548 4.383 24.225.797 36.428-.108-3.146 44.765-1.078 45.52 2.399l-.364 2.03c-1.437 8.006-.07 26.049-13.176 38.328l-1.096 1.027-1.519-.464c-9.261 2.645-43.838-8.875-49.744-16.254-2.335-2.918-7.579-3.432-9.09-7.162z" fill="#fccc9a"/><path d="M139.638 73.025c-.227 1.927-1.514 3.008-2.16 3.437l.104.366c.304 1.08-.008 3.302-5.503 6.059-2.473 1.24-4.872 1.844-7.334 1.844-3.341 0-6.135-1.159-8.402-2.1-.365-.15-.72-.298-1.064-.435-.02-.008-.04-.014-.06-.02a16.11 16.11 0 003.149.32c2.597 0 5.195-.67 7.944-2.05 3.656-1.834 4.875-3.156 5.25-3.685-.412-.824-.52-1.715-.298-2.579.315-1.224 1.157-2.22 2.38-2.814.197-.132.854-.64.974-1.656.109-.924-.106-4.122-6.24-9.918 1.46.407 2.725 1.043 3.777 1.91 6.644 5.478 7.736 9.18 7.483 11.32zm-25.882 8.91a2.643 2.643 0 00-.79.183c-1.377.558-2.248 2.222-2.543 3.093.316 1.541 4.708 23.983 1.21 36.221l-.163.065-.007.003-.091.036-.021.01-.028.01c-.158.065-.368.153-.614.261l-.008.004-.288.128-.012.005a27.415 27.415 0 00-.67.312c-1.288.621-2.812 1.487-3.161 2.243l-.002.001h.001l-.017.038-.06-.01c4.979-10.803.58-31.113-.376-37.156-.955-6.042 7.64-5.447 7.64-5.447z" fill="#202121" opacity=".19"/><path d="M135.512 163.97l.849-.754c6.465-5.736 11.63-13.904 15.348-24.273 2.41-6.722 3.506-12.434 3.944-15.24l.061-.391c.14-.895 1.067-1.566 2.165-1.566h5.452c1.206 0 2.183.803 2.183 1.794v41.647c0 .99-.977 1.793-2.183 1.793h-26.217c-.867 0-1.652-.422-2-1.075-.347-.653-.191-1.413.398-1.936z" fill="#6094bc"/><path d="M161.462 141.08a96.047 96.047 0 004.052-14.876v38.994c0 .984-.977 1.782-2.183 1.782h-17.877c6.693-6.296 12.076-15 16.008-25.9z" opacity=".19" fill="#432dce"/></svg>