<svg width="85" height="125" xmlns="http://www.w3.org/2000/svg"><path d="M.892 95.481C-.778 90.715.41 83.854.41 83.854l-.366-4.576c-.206-16.974 4.704-33.486 8.86-44.348 4.893-12.795 5.979-19.124 6.495-19.982.109-.609.992-4.681 5.26-6.447C25.422 5.334 35.55 0 43.454 0c3.369 0 6.077.954 8.05 2.834 6.67 6.356 7.767 10.651 7.513 13.136-.229 2.236-1.521 3.491-2.17 3.988l.105.425c.305 1.253-.008 3.832-5.526 7.031-2.483 1.44-4.891 2.14-7.364 2.14-3.355 0-6.16-1.345-8.436-2.436a71.363 71.363 0 00-1.069-.505c-.834-.384-1.622-.418-2.322-.09-1.383.646-2.258 2.578-2.554 3.588.32 1.797 4.401 28.113.8 42.273-.108-3.65 44.95-1.25 45.707 2.783l-.365 2.356c-1.442 9.29-.07 30.229-13.23 44.478l-1.1 1.191-1.526-.538c-9.299 3.07-44.018-10.298-49.948-18.862-2.345-3.386-7.61-3.982-9.128-8.31z" fill="#fccc9a"/><path d="M59.018 15.97c-.229 2.236-1.521 3.491-2.17 3.988l.105.425c.305 1.253-.008 3.832-5.526 7.031-2.483 1.44-4.891 2.14-7.364 2.14-3.355 0-6.16-1.345-8.436-2.436a71.363 71.363 0 00-1.069-.505c-.02-.01-.04-.016-.06-.025a14.08 14.08 0 003.162.373c2.608 0 5.216-.777 7.977-2.378 3.671-2.13 4.894-3.663 5.27-4.278a4.854 4.854 0 01-.298-2.992c.317-1.421 1.162-2.575 2.389-3.265.199-.153.858-.743.979-1.923.11-1.072-.107-4.782-6.266-11.509 1.466.472 2.736 1.21 3.793 2.218 6.67 6.356 7.768 10.651 7.514 13.136zM33.03 26.31a2.36 2.36 0 00-.794.213c-1.383.647-2.258 2.578-2.554 3.588.318 1.788 4.728 27.831 1.215 42.033l-.163.075-.007.003c-.028.013-.057.028-.092.043l-.021.01c-.01.004-.018.01-.028.013-.158.075-.37.177-.616.303l-.009.004a28.46 28.46 0 00-.288.148l-.012.006a25.984 25.984 0 00-.674.363c-1.293.72-2.823 1.725-3.174 2.603l-.017.044a16.85 16.85 0 00-.06-.01c4.998-12.537.58-36.106-.378-43.118-.959-7.012 7.672-6.321 7.672-6.321z" fill="#202121" opacity=".19"/><path d="M54.875 121.505l.852-.873c6.492-6.657 11.677-16.135 15.41-28.168 2.422-7.8 3.521-14.43 3.96-17.685l.063-.454c.14-1.038 1.07-1.817 2.173-1.817h5.475c1.21 0 2.192.932 2.192 2.081v48.33c0 1.149-.981 2.081-2.192 2.081H56.483c-.87 0-1.66-.49-2.008-1.248a2 2 0 01.4-2.246z" fill="#6094bc"/><path d="M80.93 94.945A125.517 125.517 0 0085 77.68v45.25c0 1.142-.981 2.069-2.192 2.069H64.857c6.721-7.306 12.126-17.406 16.074-30.055z" opacity=".19" fill="#432dce"/></svg>