<svg width="600" height="600" xmlns="http://www.w3.org/2000/svg"><circle cx="272.065" cy="272.065" r="255.061" fill="#fff"/><path d="M544.13 272.065c0 73.907-31.387 144.079-79.686 192.379-48.3 48.299-118.472 79.686-192.379 79.686-73.908 0-144.079-31.387-192.379-79.686C31.387 416.144 0 345.972 0 272.065c0-73.908 31.387-144.079 79.686-192.379C127.986 31.387 198.157 0 272.065 0c73.907 0 144.079 31.387 192.379 79.686 48.299 48.3 79.686 118.471 79.686 192.379zM440.396 103.733c-44.014-44.014-101.372-69.725-168.331-69.725-66.959 0-124.317 25.711-168.332 69.725-44.014 44.015-69.725 101.373-69.725 168.332 0 66.959 25.711 124.317 69.725 168.331 44.015 44.014 101.373 69.726 168.332 69.726 66.959 0 124.317-25.712 168.331-69.726 44.014-44.014 69.726-101.372 69.726-168.331 0-66.959-25.712-124.317-69.726-168.332z"/><path d="M261.504 70.613c20.379-6.685 49.879 9.639 62.418 13.018 5.28 1.424 8.89 8.686 12.126 12.468 6.24 7.295 16.459 16.028 24.166 22.102 9.445 7.443 28.746 12.339 34.853 22.679 2.864 4.848 6.787 10.414 8.984 15.61 3.408 8.064.26 16.186 6.44 23.504 7.62 9.023 14.549 9.43 24.01 14.817 20.933 11.917 38.888 37.044 45.73 59.71 5.455 18.067 7.803 37.992-1.735 54.81-3.694 6.517-9.937 9.35-12.561 16.799-2.106 5.978-26.594 60.93-49.428 62.94-27.366 2.409-62.188-3.68-82.35-23.9-11.712-11.75-14.89-27.71-28.24-38.271-23.594-18.664-61.85-8.572-81.181-31.933-5.142-6.214-11.897-14.444-14.253-22.342-2.265-7.595-.942-20.09-4.746-26.946-9.358-16.872-28.487-40.073-23.133-61.46 6.404-25.577 34.623-22.973 42.773-46.638 2.707-7.86 3.2-31.591 4.14-36.517 2.163-11.334 21.68-27.07 31.987-30.45z" fill="#fff5f5"/><path d="M256.96 56.764c26.179-6.137 49.175 2.368 70.755 12.795 7.757 3.748 17.16 14.776 19.408 17.066 5.439 6.493 14.629 14.24 22.11 20.13 6.727 6.102 27.793 13.015 38.382 26.713 2.548 4.357 6.908 10.791 9.859 17.348 2.279 6.752 2.645 19.413 4.152 19.773 2.48 6.451 7.447 5.227 20.088 11.556 23.254 14.014 44.58 43.367 52.47 68.165 5.715 19.32 7.426 44.944-3.01 66.211-7.022 9.558-12.731 11.218-11.493 14.452-1.248 3.485-8.527 20.208-18.34 35.858-4.884 7.791-11.13 16.378-17.48 22.715-6.583 6.57-17.011 12.376-26.077 14.043-29.26 2.33-69.881-5.874-93.948-28.129-13.7-15.472-16.237-30.86-26.962-37.13-8.277-7.829-20.53-8.512-35.77-11.299-15.255-2.789-33.954-8.638-47.597-22.773-5.161-6.237-13.302-17.354-16.991-27.468-2.776-7.609-.837-16.402-3.525-24.042-3.796-10.792-11.594-18.008-17.378-29.597-5.813-11.643-9.718-27.858-7.148-42.472 6.242-17.09 18.124-27.26 27.187-32.882 9.062-5.62 15.107-7.064 15.944-14.964 2.31-5.638 2.537-28.36 3.605-34.5 2.55-8.858 10.199-19.758 17.525-26.328 7.308-6.553 17.42-12.76 24.235-15.24zm-4.773 36.944c-5.55 4.976-6.628 6.076-8.353 10.086-5.113 11.886-1.574 28.451-4.678 38.533-7.312 15.765-13.188 27.777-28.138 30.241-14.95 2.463-25.206 22.848-9.325 37.564 7.85 7.275 11.676 19.352 16.788 28.475 4.679 11.16 2.079 20.48 5.968 29.851 2.647 6.377 6.393 11.025 11.516 17.218 5.688 9.225 15.78 10.011 30.384 12.681 14.62 2.674 33.292 6.277 48.61 17.112 15.978 14.854 19.793 31.384 29.52 39.411 16.255 18.188 45.278 22.162 70.749 19.672 2.35.663 3.549-1.154 8.043-5.64 4.729-4.719 9.02-10.62 13.374-17.566 8.667-13.823 14.684-27.563 15.542-30.058 6.487-11.664 13.264-15.67 13.63-19.144 8.64-12.372 5.656-26.597.46-43.409-5.794-20.536-20.38-41.437-38.986-51.259-6.285-4.444-20.852-9.542-27.934-18.077-9.455-11.395-5.376-35.438-16.84-41.105-10.892-5.386-19.161-9.863-31.324-18.646-7.932-6.257-19.177-15.977-26.221-24.074-4.221-5.274-44.346-28.345-58.925-21.112-3.493.902-8.292 4.252-13.86 9.246z"/><path d="M178.594 357.175c-29.478-25.147-43.666-45.336-53.389-84.677-3.31-13.392-7.748-28.993-18.98-35.82-18.74-11.39-32.208 2.85-37.795 20.916-5.325 17.22 3.15 46.53 7.852 63.133 4.091 14.439 8.973 30.236 17.123 42.605 7.724 11.722 30.083 35.566 40.028 44.662 28.503 26.07 119.834 52.364 136.808 45.42 10.602-4.338 22.276-15.83 22.997-28.12 1.076-18.364-9.22-29.708-30.289-36.624-21.116-6.931-65.728-15.604-84.355-31.495z" fill="#8c0000"/><path d="M267.495 374.822c11.929 4.084 23.382 10.595 30.03 18.453 6.912 8.169 10.486 21.105 10.263 32.873-1.173 9.087-5.908 19.541-11.376 25.787-5.446 6.223-13.889 11.996-20.652 14.969-12.528 3.901-44.566-.673-73.97-9.915-29.262-9.199-55.064-20.724-78.194-38.241-16.892-12.792-31.144-29.42-42.361-47.397-8.885-14.243-14.836-32.047-18.975-46.651-4.693-16.563-13.118-50.014-7.753-71.413 3.479-10.581 10.695-23.078 19.644-29.216 4.758-3.263 12.605-6.02 18.99-6.045 6.017-.024 14.187 2.571 20.654 6.197 14.457 11.062 22.184 31.142 25.559 44.778 8.611 36.9 20.455 53.293 48.7 77.086 15.288 14.281 57.443 21.574 79.441 28.735zm-98.359-6.558c-30.712-26.502-47.244-50.486-58.08-92.269-3.246-13.147-4.392-24.268-12.402-26.863-2.903-2.067-6.366-2.154-8.015-1.022-3.865 2.651-6.176 6.306-8.284 13.79-5.287 13.045 3.236 38.215 7.951 54.854 4.042 14.274 7.997 28.048 15.27 38.558 6.954 10.747 28.147 33.225 37.693 41.927 12.252 11.735 39.49 23.212 67.262 31.941 27.632 8.686 49.746 13.787 54.192 10.745 3.839-1.365 6.534-3.508 9.755-7.188 3.2-3.656 4.662-5.092 4.21-8.296.854-6.595-.182-8.515-3.416-12.338-3.498-4.133-7.728-6.754-16.868-9.585-20.235-6.702-67.303-16.755-89.268-34.254z"/><path d="M508.355 258.008c13.227-12.978 34.731-12.978 47.959 0L600 300.875v95.673L416.355 586.101s-8.243 6.422-13.227 8.053L385.251 600H256.915c-.422-3.441-.295-7.046.473-10.737.266-1.33.617-2.642 1.051-3.927l33.915-99.841a33.233 33.233 0 018.209-13.013z" fill="#fff"/><path d="M338.013 489.145c7.712-6.189 150.815-154.513 151.144-154.167 14.862 15.61 56.072 60.117 55.543 60.617-8.06 7.623-135.9 143.941-143.26 149.745-3.198 2.524-7.064 5.476-10.928 6.916-.049.018 1.726-17.893-3.605-25.984-1.187-1.802-5.931-.215-7.659-.792-4.936-1.649-9.493-1.252-14.219-3.18-.334-.136-.972-9.102-1.072-9.696-.896-5.303-3.648-18.624-4.246-18.996-5.47-3.409-10.015-.608-15.664-.608-1.274 0-6.034-2.346-6.034-3.855z" stroke="#000" fill="#ffb957"/><path d="M298.722 586.377c-.419-9.759 19.843-77.117 26.089-84.577 1.406-1.68 10.019-15.06 15.512-14.021 2.092.396 6.565 14.125 9.084 14.439 1.161.145 10.06-2.406 10.383-1.728 2.214 4.639.546 10.979 2.989 15.865.033.067 22.398 1.443 23.004 9.959.518 7.291.554 31.115-.583 34.497-1.202 3.575-86.478 32.32-86.478 25.566z" stroke="#000" fill="#ffebd6"/><path d="M484.991 332.94s41.375-43.662 46.433-46.229c.646-.329 60.69 61.056 60.69 61.056l-45.629 48.375-61.494-63.202z" stroke="#000" fill="#faa"/><path d="M311.108 548.562c10.576-.467 21.734 3.155 24.42 14.56.389 1.653 1.915 12.31.539 13.823-3.454 3.801-34.133 12.24-34.537 11.819-1.352-1.409 5.134-40.005 9.578-40.202z" fill="#4c4c4c"/><path fill-rule="evenodd" d="M516.599 285.492c8.65-8.933 22.978-8.933 31.629 0l44.739 45.817c8.725 8.934 8.725 23.458 0 32.392L391.643 569.872a22.082 22.082 0 01-8.723 5.543l-67.109 22.908c-16.329 5.589-32.458-9.003-29.013-26.276.179-.917.402-1.809.693-2.702l22.37-68.723a23.041 23.041 0 015.413-8.958l201.325-206.172zm15.815 16.196l44.738 45.816-201.324 206.171-67.108 22.909 22.369-68.725 201.325-206.171z"/><path fill-rule="evenodd" d="M535.68 401.43l-55.924-57.27 15.838-16.219 55.922 57.27-15.814 16.219zm-204.591 83.522v11.455c0 6.322 5.011 11.452 11.184 11.452h11.186v11.454c0 6.323 5.01 11.454 11.185 11.454h11.184v11.455c0 6.322 5.011 11.453 11.184 11.453h11.185v-34.362c0-6.321-5.011-11.454-11.185-11.454h-11.184v-11.452c0-6.324-5.01-11.455-11.184-11.455h-33.555z"/><circle cx="191.088" cy="214.703" r="66.383" transform="matrix(-.71882 0 0 .71409 456.794 69.545)" fill="#efef4f"/><path d="M257.096 222.861c0 16.059 7.781 33.382 18.259 43.792 10.478 10.408 27.916 18.139 44.082 18.139 16.164 0 33.603-7.731 44.081-18.139 10.478-10.41 18.259-27.733 18.259-43.792 0-16.058-7.781-33.381-18.259-43.791-10.478-10.408-27.917-18.139-44.081-18.139-16.166 0-33.604 7.731-44.082 18.139-10.478 10.41-18.259 27.733-18.259 43.791zm38.939-23.247c6.792-6.747 13.212-9.629 23.402-9.629 10.189 0 16.608 2.882 23.4 9.629 6.792 6.748 9.694 13.125 9.694 23.247 0 10.123-2.902 16.5-9.694 23.248-6.792 6.747-13.211 9.629-23.4 9.629-10.19 0-16.61-2.882-23.402-9.629-6.792-6.748-9.693-13.125-9.693-23.248 0-10.122 2.901-16.499 9.693-23.247z"/></svg>