<svg xmlns="http://www.w3.org/2000/svg" viewBox="0 0 512 512"><path d="M224.512 299.46zm-5.257-6.067c.35.358.657.742.998 1.109-.34-.367-.648-.751-.998-1.109zm10.147 13.261c.307.521.649 1.024.947 1.553-.299-.529-.64-1.007-.947-1.553zm4.411 8.764c.23.572.418 1.169.64 1.707-.222-.538-.409-1.136-.64-1.707zm-22.075-28.536c.538.41 1.101.802 1.63 1.22-.53-.426-1.093-.81-1.63-1.22zm-7.083-4.702c.691.393 1.365.853 2.048 1.237-.683-.418-1.357-.836-2.048-1.237zm4.54 115.473a94.855 94.855 0 0014.131-10.871 19.123 19.123 0 003.132-3.84 84.333 84.333 0 0010.24-24.397 68.262 68.262 0 01-27.503 39.108zm-30.072-124.006c.811.094 1.604.239 2.398.367-.794-.094-1.587-.273-2.398-.367zm18.33 4.881c.299.128.572.29.853.418-.281-.128-.555-.29-.853-.418zm38.98 44.706zM170.351 409.6c-1.937 0-3.823-.196-5.717-.367 1.894.154 3.78.367 5.717.367zm17.587-2.287l-1.024.265 1.024-.265zm50.347-74.914c.068.503.171.99.23 1.493-.06-.503-.162-.99-.23-1.493zm-76.467 76.621zm17.672-.051c-.393.051-.759.128-1.152.171.384-.043.768-.12 1.152-.171zm28.595-10.565a73.968 73.968 0 01-3.721 2.261c1.289-.682 2.484-1.493 3.721-2.261zm30.797-56.055c0 .742-.077 1.468-.111 2.202.034-.734.103-1.511.111-2.202zm-.717 8.704c-.145 1.007-.273 2.022-.461 3.012.18-1.007.325-2.005.461-3.012zm-50.534-75.776c.734.188 1.476.35 2.202.563-.726-.213-1.468-.375-2.202-.563z" fill="#78b9eb"/><path d="M25.6 375.467h9.387a16.976 16.976 0 0115.889 11.008c.973 2.56 2.022 5.077 3.149 7.552a17.001 17.001 0 01-3.413 19.081l-6.665 6.733c-6.647 6.665-6.647 17.451 0 24.115l24.115 24.115c6.665 6.647 17.451 6.647 24.115 0l6.699-6.673a17 17 0 0119.081-3.413 117.156 117.156 0 007.552 3.149 16.983 16.983 0 0111.025 15.881v9.387c0 9.429 7.637 17.067 17.067 17.067h34.133c9.429 0 17.067-7.637 17.067-17.067v-9.387a16.976 16.976 0 0111.008-15.889c2.56-.973 5.077-2.022 7.552-3.149a17.001 17.001 0 0119.081 3.413l6.699 6.673c6.665 6.647 17.451 6.647 24.115 0l24.115-24.115c6.647-6.665 6.647-17.451 0-24.115l-6.673-6.699a17 17 0 01-3.413-19.081 117.156 117.156 0 003.149-7.552 16.984 16.984 0 0115.915-11.034h9.387c9.429 0 17.067-7.637 17.067-17.067v-34.133c0-9.429-7.637-17.067-17.067-17.067h-9.387a16.976 16.976 0 01-15.889-11.008 127.663 127.663 0 00-3.149-7.552 16.988 16.988 0 013.413-19.081l6.673-6.699c6.647-6.665 6.647-17.451 0-24.115L273.28 214.63c-6.665-6.647-17.451-6.647-24.115 0l-6.699 6.673a17 17 0 01-19.081 3.413 117.156 117.156 0 00-7.552-3.149 16.983 16.983 0 01-11.034-15.915v-9.387c0-9.429-7.637-17.067-17.067-17.067H153.6c-9.429 0-17.067 7.637-17.067 17.067v9.387a16.976 16.976 0 01-11.008 15.889c-2.56.973-5.077 2.022-7.552 3.149a17.001 17.001 0 01-19.081-3.413l-6.733-6.665c-6.665-6.647-17.451-6.647-24.115 0l-24.081 24.132c-6.647 6.665-6.647 17.451 0 24.115l6.673 6.699a16.987 16.987 0 013.413 19.081 117.156 117.156 0 00-3.149 7.552 16.977 16.977 0 01-15.915 11.008H25.6c-9.429 0-17.067 7.637-17.067 17.067V358.4c0 9.429 7.638 17.067 17.067 17.067zm128-100.267a70.181 70.181 0 0117.067-2.133c2.825.017 5.649.213 8.457.58.811.094 1.604.239 2.398.367 2.074.324 4.105.751 6.11 1.263.734.188 1.476.35 2.202.563a66.538 66.538 0 017.62 2.688c.299.128.572.29.853.418a68.077 68.077 0 016.34 3.234c.691.401 1.365.853 2.048 1.237a77.353 77.353 0 015.035 3.465c.538.41 1.101.794 1.63 1.22a71.871 71.871 0 015.888 5.291c.35.358.657.742.998 1.109a65.656 65.656 0 015.718 6.895c1.22 1.707 2.372 3.413 3.413 5.257.307.521.649 1.024.947 1.553a68.4 68.4 0 013.465 7.211c.23.572.418 1.161.64 1.707a67.226 67.226 0 011.98 6.076c.222.802.427 1.604.623 2.415.521 2.227.93 4.48 1.229 6.75.068.503.171.99.23 1.493.282 2.483.435 4.975.444 7.475 0 .341 0 .674-.051 1.015 0 .725-.077 1.468-.111 2.202a68.069 68.069 0 01-.606 6.502 74.554 74.554 0 01-.461 3.012c-.29 1.527-.666 3.012-1.05 4.506a84.345 84.345 0 01-10.24 24.397 19.09 19.09 0 01-3.132 3.84 94.824 94.824 0 01-14.089 10.846l-1.109.725c-1.237.768-2.475 1.579-3.721 2.261a67.96 67.96 0 01-16.427 6.647l-1.024.265a68.526 68.526 0 01-7.424 1.391c-.384.051-.768.128-1.152.171a67.847 67.847 0 01-7.671.486h-.316c-1.937 0-3.823-.196-5.717-.367-.93-.085-1.894-.077-2.816-.196a74.653 74.653 0 01-8.218-1.57c-36.523-9.446-58.479-46.711-49.033-83.234A68.321 68.321 0 01153.6 275.2z" fill="#ffaf46"/><path d="M230.349 308.207zm4.104 8.951zm4.48 24.175a70.171 70.171 0 00-.418-7.441c.299 2.807.418 5.632.367 8.457.051-.342.051-.674.051-1.016zm-1.877-15.684zm-55.535-51.635c2.074.324 4.105.751 6.11 1.263a68.242 68.242 0 00-6.11-1.263zm-10.854-.947zm27.648 5.879a65.95 65.95 0 016.34 3.234 68.201 68.201 0 00-6.34-3.234zm-8.482-3.106zm36.13 25.557c1.22 1.707 2.372 3.413 3.413 5.257a60.965 60.965 0 00-3.413-5.257zm-5.709-6.895a70.047 70.047 0 014.267 4.958 65.853 65.853 0 00-4.267-4.958zm-13.551-11.084a77.353 77.353 0 015.035 3.465 72.639 72.639 0 00-5.035-3.465zm6.63 4.684a67.69 67.69 0 015.888 5.291 72.055 72.055 0 00-5.888-5.291zm-8.968 112.564a73.136 73.136 0 01-16.427 6.647 67.96 67.96 0 0016.427-6.647zm-17.485 6.912zm-16.213 2.022a67.964 67.964 0 007.68-.461 67.674 67.674 0 01-7.987.444l.307.017zm-6.033-.384c-.93-.085-1.894-.077-2.816-.196.921.119 1.885.111 2.816.196zm74.137-64.666a70.768 70.768 0 01-.606 6.502c.308-2.141.504-4.309.606-6.502zm-29.576 53.103c-.367.239-.734.495-1.109.725l1.109-.725zm28.51-43.588c-.273 1.493-.683 3.004-1.05 4.506.384-1.494.759-2.978 1.05-4.506z" fill="#78b9eb"/><g fill="#231f20"><path d="M315.733 298.667h-9.387a8.386 8.386 0 01-7.902-5.513 138.851 138.851 0 00-3.362-8.047 8.421 8.421 0 011.707-9.523l6.69-6.699c9.933-10.018 9.916-26.18-.043-36.173l-24.115-24.115c-10.01-9.95-26.172-9.95-36.181 0l-6.69 6.682a8.451 8.451 0 01-9.523 1.707 183.715 183.715 0 00-8.055-3.413 8.39 8.39 0 01-5.538-7.919v-9.387c0-14.14-11.46-25.6-25.6-25.6H153.6c-14.14 0-25.6 11.46-25.6 25.6v9.387a8.386 8.386 0 01-5.513 7.902 138.851 138.851 0 00-8.047 3.362 8.45 8.45 0 01-9.523-1.707l-6.699-6.69c-10.01-9.941-26.163-9.941-36.173 0L37.93 232.713c-9.95 10.01-9.95 26.172 0 36.181l6.682 6.69a8.423 8.423 0 011.707 9.523 143.277 143.277 0 00-3.371 8.055 8.39 8.39 0 01-7.962 5.504H25.6c-14.14 0-25.6 11.46-25.6 25.6V358.4C0 372.54 11.46 384 25.6 384h9.387a8.386 8.386 0 017.902 5.513 138.851 138.851 0 003.362 8.047 8.421 8.421 0 01-1.707 9.523l-6.69 6.699c-9.941 10.01-9.941 26.163 0 36.173l24.115 24.115c10.01 9.95 26.172 9.95 36.181 0l6.69-6.682a8.451 8.451 0 019.523-1.707 183.715 183.715 0 008.055 3.413 8.375 8.375 0 015.581 7.919v9.387c0 14.14 11.46 25.6 25.6 25.6h34.133c14.14 0 25.6-11.46 25.6-25.6v-9.387a8.386 8.386 0 015.513-7.902 138.851 138.851 0 008.047-3.362 8.45 8.45 0 019.523 1.707l6.699 6.69c10.018 9.924 26.172 9.907 36.173-.043l24.115-24.115c9.95-10.01 9.95-26.172 0-36.181l-6.682-6.69a8.423 8.423 0 01-1.707-9.523 183.715 183.715 0 003.413-8.055 8.39 8.39 0 017.919-5.538h9.387c14.14 0 25.6-11.46 25.6-25.6v-34.133c.001-14.141-11.459-25.601-25.599-25.601zm8.534 59.733a8.536 8.536 0 01-8.533 8.533h-9.387c-10.607.043-20.105 6.596-23.893 16.503a119.836 119.836 0 01-2.935 7.057 25.675 25.675 0 005.12 28.638l6.673 6.682c3.337 3.328 3.337 8.73.009 12.066l-.009.009-24.115 24.115c-3.328 3.328-8.73 3.328-12.066 0l-6.69-6.682a25.657 25.657 0 00-28.638-5.12 123.183 123.183 0 01-7.04 2.935 25.68 25.68 0 00-16.495 23.876v9.387a8.536 8.536 0 01-8.533 8.533H153.6a8.536 8.536 0 01-8.533-8.533v-9.387c-.043-10.607-6.596-20.105-16.503-23.893a119.836 119.836 0 01-7.057-2.935 25.688 25.688 0 00-28.638 5.12l-6.682 6.673c-3.328 3.337-8.73 3.337-12.066.009l-.009-.009-24.115-24.09c-3.328-3.328-3.328-8.738 0-12.066l6.682-6.69a25.675 25.675 0 005.12-28.638 123.183 123.183 0 01-2.935-7.04 25.674 25.674 0 00-23.876-16.521H25.6a8.536 8.536 0 01-8.533-8.533v-34.133a8.536 8.536 0 018.533-8.533h9.387c10.607-.043 20.105-6.596 23.893-16.503a119.836 119.836 0 012.935-7.057 25.675 25.675 0 00-5.12-28.638l-6.707-6.682c-3.337-3.328-3.337-8.73-.009-12.066l.009-.009 24.115-24.115a8.54 8.54 0 0112.066 0l6.69 6.682a25.657 25.657 0 0028.638 5.12 123.183 123.183 0 017.04-2.935 25.68 25.68 0 0016.529-23.876v-9.387a8.536 8.536 0 018.533-8.533h34.133a8.536 8.536 0 018.533 8.533v9.387c.043 10.607 6.596 20.105 16.503 23.893 2.389.905 4.745 1.886 7.057 2.935a25.657 25.657 0 0028.638-5.12l6.682-6.673a8.581 8.581 0 0112.075 0l24.115 24.115c3.328 3.328 3.328 8.738 0 12.066l-6.682 6.69a25.675 25.675 0 00-5.12 28.638 123.183 123.183 0 012.935 7.04 25.68 25.68 0 0023.876 16.495h9.387a8.536 8.536 0 018.533 8.533V358.4z"/><path d="M247.296 337.92a76.652 76.652 0 00-.478-6.118c-.273-2.185-.597-4.352-1.05-6.477-.299-1.391-.691-2.765-1.067-4.147a76.11 76.11 0 00-1.613-5.197 156.004 156.004 0 00-1.297-3.533 76.5 76.5 0 00-3.763-7.987c-.111-.196-.179-.41-.29-.606a75.317 75.317 0 00-7.68-11.187c-.247-.307-.529-.597-.785-.896a71.504 71.504 0 00-3.661-4.028c-.666-.691-1.365-1.34-2.065-2.005a125.602 125.602 0 00-2.56-2.33 84.98 84.98 0 00-3.166-2.611l-1.399-1.041a76.253 76.253 0 00-45.756-15.223c-.853 0-1.707.128-2.56.162a74.548 74.548 0 00-5.478.341c-.964.102-1.937.213-2.901.35a77.832 77.832 0 00-8.269 1.545c-41.088 10.615-65.792 52.531-55.177 93.628a76.832 76.832 0 0055.236 55.185c.137 0 .282.043.427.077a81.367 81.367 0 008.943 1.707c1.988.247 3.977.299 5.973.393 1.331.068 2.56.265 3.951.265 2.432 0 4.958-.162 7.535-.418.273 0 .546-.077.853-.111a74.157 74.157 0 006.315-.964c.853-.162 1.647-.375 2.466-.563a80.864 80.864 0 004.531-1.169c1.195-.358 2.355-.777 3.524-1.186 1.169-.41 2.381-.853 3.593-1.314s2.227-.99 3.328-1.502c1.434-.657 2.859-1.306 4.267-2.074h.051a101.184 101.184 0 0021.871-15.795 26.965 26.965 0 004.574-5.598 91.05 91.05 0 0012.851-35.072c.239-1.647.452-3.294.58-4.975a84.41 84.41 0 00.239-4.617c0-.486.068-.947.068-1.434.01-1.205-.11-2.314-.161-3.475zm-91.622-54.443a61.676 61.676 0 0114.993-1.877c2.441.017 4.873.179 7.296.495.649.077 1.289.196 1.929.29 1.843.29 3.669.657 5.47 1.118.589.154 1.178.29 1.758.452a59.963 59.963 0 0113.013 5.478c.657.384 1.297.785 1.946 1.186 1.348.853 2.654 1.707 3.942 2.679.691.503 1.391.998 2.057 1.536a63.147 63.147 0 014.804 4.267c.606.614 1.161 1.289 1.749 1.929a59.481 59.481 0 012.85 3.311 66.42 66.42 0 011.835 2.441c.853 1.229 1.707 2.509 2.475 3.806.427.708.853 1.399 1.289 2.125a57.815 57.815 0 012.935 6.255c.341.853.631 1.707.939 2.56a58.508 58.508 0 011.451 4.762c.213.853.452 1.613.631 2.441a60.384 60.384 0 011.084 6.989c.051.623.051 1.254.094 1.877.119 1.963.154 3.934.077 5.914 0 .708-.06 1.417-.102 2.116a67.387 67.387 0 01-.768 6.204 59.875 59.875 0 01-29.986 41.813 66.534 66.534 0 01-3.14 1.553l-.708.341a61.648 61.648 0 01-15.565 4.71c-.375.06-.759.128-1.143.179a58.593 58.593 0 01-3.157.375 60.622 60.622 0 01-4.164.213h-1.783a59.743 59.743 0 01-6.042-.375l-1.024-.119a62.225 62.225 0 01-6.972-1.314c-31.957-8.183-51.234-40.721-43.059-72.678a59.73 59.73 0 0142.999-43.042l-.003-.01zM486.4 179.2h-26.837a8.333 8.333 0 01-7.953-5.598 176.93 176.93 0 00-9.583-23.134 8.357 8.357 0 011.638-9.634l19.029-19.055c9.984-9.993 9.984-26.197 0-36.19L426.41 49.365c-9.993-9.984-26.197-9.984-36.19 0L371.2 68.378a8.358 8.358 0 01-9.626 1.647 176.795 176.795 0 00-23.142-9.634 8.326 8.326 0 01-5.632-7.953V25.6c0-14.14-11.46-25.6-25.6-25.6H256c-14.14 0-25.6 11.46-25.6 25.6v26.837a8.333 8.333 0 01-5.598 7.953 178.273 178.273 0 00-23.134 9.626 8.342 8.342 0 01-9.634-1.638l-19.055-19.029c-10.01-9.958-26.18-9.958-36.19 0l-36.215 36.215c-9.993 9.993-9.993 26.206 0 36.198l27.981 28.032c3.388 3.277 8.789 3.191 12.066-.188a8.535 8.535 0 00.017-11.861l-27.998-28.023a8.54 8.54 0 010-12.066l36.215-36.215c3.328-3.328 8.738-3.328 12.066 0l19.063 19.029c7.714 7.757 19.533 9.702 29.321 4.813a160.903 160.903 0 0120.915-8.695 25.388 25.388 0 0017.246-24.149V25.6a8.536 8.536 0 018.533-8.533h51.2a8.536 8.536 0 018.533 8.533v26.837a25.376 25.376 0 0017.246 24.141 161.128 161.128 0 0120.924 8.704c9.788 4.864 21.589 2.918 29.312-4.821l19.063-19.021c3.328-3.328 8.738-3.328 12.066 0l36.215 36.224a8.53 8.53 0 010 12.058l-19.029 19.063c-7.748 7.714-9.694 19.533-4.813 29.321a160.903 160.903 0 018.695 20.915c3.499 10.342 13.227 17.297 24.149 17.246h26.84a8.536 8.536 0 018.533 8.533V256a8.536 8.536 0 01-8.533 8.533h-26.837a25.376 25.376 0 00-24.141 17.246 161.128 161.128 0 01-8.704 20.924 25.396 25.396 0 004.821 29.312l19.029 19.063c3.328 3.328 3.328 8.738 0 12.066l-36.233 36.215a8.53 8.53 0 01-12.058 0l-28.041-27.981c-3.277-3.388-8.678-3.473-12.066-.196-3.388 3.277-3.473 8.678-.196 12.066.068.068.137.137.213.205l28.032 27.981c9.993 9.984 26.197 9.984 36.19 0l36.215-36.207c9.993-10.001 9.993-26.197 0-36.198L443.622 320a8.358 8.358 0 01-1.647-9.626 176.795 176.795 0 009.634-23.142 8.326 8.326 0 017.953-5.632H486.4c14.14 0 25.6-11.46 25.6-25.6v-51.2c0-14.14-11.46-25.6-25.6-25.6z"/><path d="M360.038 151.962c-43.349-43.255-113.527-43.255-156.877 0-3.277 3.388-3.183 8.789.213 12.066 3.311 3.191 8.55 3.191 11.853 0 36.412-36.898 95.846-37.299 132.745-.887s37.299 95.846.887 132.745c-.299.299-.589.597-.887.887-3.388 3.277-3.482 8.678-.205 12.066s8.678 3.482 12.066.205l.205-.205c43.256-43.35 43.256-113.528 0-156.877z"/></g></svg>