<svg height="512" width="512" xmlns="http://www.w3.org/2000/svg"><path d="M412.216 162.54H63.243c-27.801 0-50.339 22.537-50.339 50.339v164.932c0 27.801 22.538 50.339 50.339 50.339h348.974c27.801 0 50.339-22.537 50.339-50.339V212.879c-.001-27.801-22.538-50.339-50.34-50.339z" fill="#90d3f1"/><path d="M238.671 115.925c-40.39 0-66.901-5.121-82.996-10-15.277-4.632-31.84 1.006-40.933 14.126-17.853 25.759-41.037 75.616-41.037 160.839h329.932c0-90.962-74.003-164.965-164.966-164.965z" fill="#ff889e"/><path d="M130.1 274.187c0-66.766 33.907-125.419 85.044-158.887-27.48-1.507-46.738-5.516-59.469-9.375-15.277-4.632-31.84 1.006-40.933 14.126-17.853 25.759-41.037 75.616-41.037 160.839h56.523a196.247 196.247 0 01-.128-6.703z" fill="#ff748f"/><circle cx="371.853" cy="280.891" fill="#ffcabd" r="40.239"/><path d="M338.279 195.423c-6.539-7.613-17.041-10.592-26.625-7.615-70.487 21.894-81.806-12.778-136.217-8.766-16.374 1.207-31.413 9.458-41.346 22.532-17.148 22.57-27.158 50.858-26.659 81.505 1.156 70.971 59.319 128.568 130.297 129.065 72.923.511 132.197-58.449 132.197-131.253.001-32.647-11.922-62.505-31.647-85.468z" fill="#ffdcce"/><path d="M71.823 418.518h331.814V504.5H71.823z" fill="#ff889e"/><path d="M391.282 382.485H84.178c-14.157 0-25.634 11.477-25.634 25.634v20.799c0 14.157 11.477 25.634 25.634 25.634h307.104c14.157 0 25.634-11.477 25.634-25.634v-20.799c0-14.157-11.477-25.634-25.634-25.634z" fill="#ff748f"/><path d="M98.69 396.058c0 22.657 18.433 41.089 41.089 41.089h35.844c22.656 0 41.089-18.432 41.089-41.089 0-4.672-.562-9.212-1.593-13.573H100.283a58.911 58.911 0 00-1.593 13.573z" fill="#fd5f7e"/><path d="M157.701 362.047c-18.784 0-34.011 15.227-34.011 34.011 0 8.886 7.203 16.089 16.089 16.089h35.844c8.886 0 16.089-7.203 16.089-16.089-.001-18.783-15.228-34.011-34.011-34.011z" fill="#ffcabd"/><path d="M258.749 396.058c0 22.657 18.433 41.089 41.089 41.089h35.844c22.656 0 41.089-18.432 41.089-41.089 0-4.672-.562-9.212-1.593-13.573H260.342a58.911 58.911 0 00-1.593 13.573z" fill="#fd5f7e"/><path d="M317.759 362.047c18.784 0 34.011 15.227 34.011 34.011 0 8.886-7.203 16.089-16.089 16.089h-35.844c-8.886 0-16.089-7.203-16.089-16.089 0-18.783 15.227-34.011 34.011-34.011z" fill="#ffcabd"/><path d="M491.715 97.947h-.146c-36.825 0-66.678-29.853-66.678-66.678 0-5.086.573-10.037 1.655-14.795 1.359-5.977-4.703-10.895-10.224-8.232-22.676 10.939-38.214 34.328-37.728 61.303.643 35.7 29.838 64.85 65.539 65.44 21.63.358 40.944-9.591 53.371-25.255 3.812-4.805.344-11.797-5.789-11.783z" fill="#f9ed80"/><path d="M171.897 393.772C145.782 361.24 130.1 319.59 130.1 274.187c0-31.651 7.631-61.472 21.093-87.658a57.598 57.598 0 00-17.102 15.045 130.86 130.86 0 00-20.696 40.047c-2.283-.628-4.894-.97-7.907-.97-22.224 0-40.239 18.016-40.239 40.239 0 22.224 18.016 40.239 40.239 40.239 3.036 0 5.663-.347 7.959-.984 9.807 31.083 30.92 57.245 58.45 73.627z" fill="#ffcabd"/><path d="M168.294 286.372a29.83 29.83 0 0022.493-10.244 7.5 7.5 0 00-.727-10.581 7.499 7.499 0 00-10.582.727c-2.824 3.241-6.901 5.099-11.185 5.099s-8.361-1.858-11.185-5.099a7.5 7.5 0 00-11.309 9.854 29.84 29.84 0 0022.495 10.244zm138.861 0c8.621 0 16.82-3.734 22.493-10.244a7.5 7.5 0 00-11.308-9.854 14.839 14.839 0 01-11.185 5.098 14.836 14.836 0 01-11.185-5.098 7.5 7.5 0 00-11.308 9.854 29.832 29.832 0 0022.493 10.244zm-69.431 21.7c7.191 0 13.02-6.217 13.02-13.886s-5.829-13.885-13.02-13.885c-7.19 0-13.02 6.217-13.02 13.885 0 7.67 5.83 13.886 13.02 13.886zM491.72 90.458h-.163c-37.752 0-66.154-35.172-57.708-72.308 2.759-12.13-9.644-22.029-20.796-16.649-26.014 12.549-42.487 39.316-41.967 68.191.346 19.22 8.096 37.352 21.822 51.057 31.396 31.348 82.832 28.475 110.46-6.347 7.699-9.705.753-23.944-11.648-23.944zm-47.475 37.038c-31.504-.52-57.596-26.572-58.163-58.074-.412-22.868 12.535-44.079 33.049-54.196-10.247 46.268 25.049 90.082 72.182 90.232-11.543 14.315-28.667 22.335-47.068 22.038z"/><path d="M462.543 324.615a7.5 7.5 0 007.5-7.5V212.887c0-31.892-25.946-57.837-57.837-57.837H356.46c-32.088-30.072-74.293-46.614-117.795-46.614-40.417 0-66.257-5.263-80.817-9.677-18.521-5.615-38.32 1.229-49.273 17.031-6.735 9.718-14.134 22.632-20.838 39.261H63.242c-31.892 0-57.837 25.946-57.837 57.837v35.788a7.5 7.5 0 0015 0v-35.788c0-23.62 19.217-42.838 42.838-42.838h19.013c-8.743 26.535-13.354 54.497-15.143 82.49-5.879 7.935-9.363 17.746-9.363 28.357 0 27.268 23.009 49.326 50.667 47.638a139.042 139.042 0 0020.778 37.392 41.795 41.795 0 00-7.24 9.062H84.177c-18.27 0-33.133 14.863-33.133 33.133v10.78c-17.938-5.24-30.639-21.669-30.639-41.088v-99.14a7.5 7.5 0 00-15 0v99.14a57.664 57.664 0 0015.192 39.066 57.703 57.703 0 0030.914 17.555c1.438 8.545 6.152 15.993 12.81 20.993V504.5a7.5 7.5 0 007.5 7.5h331.805a7.5 7.5 0 007.5-7.5v-49.072c6.658-5 11.372-12.447 12.811-20.993a57.703 57.703 0 0030.914-17.555 57.664 57.664 0 0015.192-39.066v-30.7a7.5 7.5 0 00-15 0v30.7c0 19.418-12.701 35.847-30.639 41.088v-10.78c0-18.27-14.863-33.133-33.133-33.133h-37.779a41.756 41.756 0 00-6.085-7.93 138.543 138.543 0 0021.575-38.518c27.685 1.659 50.599-20.461 50.599-47.643 0-11.681-4.224-22.389-11.216-30.695-5.259-29.135-17.885-56.701-37.664-80.152h41.504c23.621 0 42.838 19.217 42.838 42.838v104.227a7.501 7.501 0 007.5 7.499zm-341.64-200.281c7.185-10.366 20.254-14.962 32.592-11.221 15.531 4.709 42.914 10.322 85.169 10.322 70.676 0 131.692 47.107 151.12 113.235-6.836-2.783-14.031-3.847-20.778-3.427a137.317 137.317 0 00-17.323-32.855c-6.06-8.479-10.465-13.786-16.983-17.3a32.761 32.761 0 00-25.28-2.434c-68.07 21.144-77.596-13.284-134.54-9.083-18.454 1.361-35.498 10.645-46.765 25.473-8.137 10.71-14.968 22.882-19.84 36.197-6.079-.374-12.795.494-19.101 2.779h-.002a48.919 48.919 0 00-5.863 2.586c4.057-39.355 15.133-81.863 37.594-114.272zm-17.081 189.26c-17.281-.87-31.074-15.203-31.074-32.696 0-18.145 14.659-31.994 31.005-32.69-5.068 21.076-5.184 43.812.069 65.386zM140.06 206.12c8.665-11.404 21.759-18.544 35.925-19.589 52.225-3.845 64.733 31.167 137.886 8.449 6.352-1.973 13.186-.243 17.784 4.343 1.413 1.382 4.901 5.847 6.21 7.594 33.633 45.07 32.667 107.45-2.708 151.46-5.269-2.44-11.295-3.821-17.397-3.825h-.008c-14.707 0-28.347 7.853-35.764 20.437h-88.525c-7.329-12.431-20.916-20.437-35.765-20.437-5.235 0-10.658.992-15.886 3.166-35.106-44.141-36.023-106.483-1.752-151.598zm195.613 198.53H299.83c-4.736 0-8.589-3.853-8.589-8.589 0-14.793 12.068-26.51 26.51-26.51h.001c22.892 0 33.177 27.988 22.011 34.061a8.533 8.533 0 01-4.09 1.038zm-160.054 0h-35.843c-4.743 0-8.589-3.86-8.589-8.589 0-14.666 11.964-26.51 26.51-26.51 14.545 0 26.51 11.821 26.51 26.51 0 4.736-3.853 8.589-8.588 8.589zm220.508 57.045V497H79.322v-35.306c.1.009 2.374.358 4.855.358h307.095c2.05.001 3.415-.203 4.855-.357zm-37.307-71.707h32.452c10.015 0 18.134 8.149 18.134 18.133v20.798c0 10.143-8.296 18.134-18.134 18.134H84.177c-2.373 0-4.847-.479-7.182-1.49-11.964-5.184-10.907-17.494-10.951-17.637v-19.805c0-9.999 8.135-18.133 18.133-18.133h32.452c-.476 3.233-.436 5.958-.441 6.073 0 13.006 10.581 23.588 23.588 23.588h35.843c13.006 0 23.588-10.582 23.588-23.588 0-1.946-.2-4.427-.441-6.073h77.917a46.708 46.708 0 00-.441 6.074c0 13.006 10.582 23.588 23.588 23.588 37.498-.091 36.296.208 39.43-.272 11.208-1.717 19.999-11.406 19.999-23.361a47.28 47.28 0 00-.439-6.029zm14.715-76.395c5.121-21.177 5.182-43.957-.002-65.39 17.232.88 31.049 15.175 31.049 32.695 0 17.484-13.778 31.811-31.047 32.695z"/></svg>