<?xml version="1.0" encoding="utf-8"?>
<svg height="512" viewBox="0 0 64 64" width="512" xmlns="http://www.w3.org/2000/svg">
  <g id="Sun">
    <path d="m31.97461 15.00244a17.00317 17.00317 0 1 0 17 17.00342 17.021 17.021 0 0 0 -17-17.00342z" style="fill: rgb(51, 51, 51);"/>
    <path d="m59.002 29.00537h-3.99663a3.00049 3.00049 0 0 0 0 6.001h3.99663a3.00049 3.00049 0 0 0 0-6.001z" style="fill: rgb(51, 51, 51);"/>
    <path d="m31.97461 51.99854a3.00307 3.00307 0 0 0 -2.99854 3.00046v4.00049a2.99829 2.99829 0 1 0 5.99658 0v-4.00049a3.00266 3.00266 0 0 0 -2.99804-3.00046z" style="fill: rgb(51, 51, 51);"/>
    <path d="m11.99316 32.00586a3.00307 3.00307 0 0 0 -2.99854-3.00049h-3.99608a3.00049 3.00049 0 0 0 0 6.001h3.99609a3.00307 3.00307 0 0 0 2.99853-3.00051z" style="fill: rgb(51, 51, 51);"/>
    <path d="m31.97461 12.00146a3.00307 3.00307 0 0 0 2.99853-3.00046v-4.00051a2.99829 2.99829 0 1 0 -5.99658 0v4.00051a3.00266 3.00266 0 0 0 2.99805 3.00046z" style="fill: rgb(51, 51, 51);"/>
    <path d="m50.36182 17.85919 2.82874-2.82874a2.99828 2.99828 0 1 0 -4.24017-4.24023l-2.8288 2.8288a2.99828 2.99828 0 1 0 4.24023 4.24017z" style="fill: rgb(51, 51, 51);"/>
    <path d="m50.36145 46.15283a2.9983 2.9983 0 1 0 -4.24023 4.24023l2.82878 2.82874a2.9983 2.9983 0 1 0 4.24023-4.24023z" style="fill: rgb(51, 51, 51);"/>
    <path d="m13.5874 46.15247-2.82874 2.8288a2.99826 2.99826 0 1 0 4.24017 4.24017l2.8288-2.82874a2.9983 2.9983 0 1 0 -4.24023-4.24023z" style="fill: rgb(51, 51, 51);"/>
    <path d="m13.58777 17.85889a2.9983 2.9983 0 1 0 4.24023-4.24024l-2.8288-2.8288a2.9983 2.9983 0 1 0 -4.2402 4.24024z" style="fill: rgb(51, 51, 51);"/>
  </g>
</svg>