<svg height="512" viewBox="0 0 512.024 512.024" width="512" xmlns="http://www.w3.org/2000/svg"><circle cx="236" cy="276.003" fill="#ff7b79" r="226"/><circle cx="236" cy="276.003" fill="#fff" r="162"/><circle cx="236" cy="276.003" fill="#ff7b79" r="98"/><circle cx="236" cy="276.003" fill="#fff" r="34"/><path d="M295.984 181.715l94.75-94.75 34.314 34.315-94.75 94.75z" fill="#66e0f7"/><path d="M294.48 251.885l-34.259-.06-.06-34.259 35.868-35.869 34.32 34.32z" fill="#c193dc"/><path d="M463.364 128.761l-66.136-13.942 56.484-56.484c11.057-11.056 28.983-11.056 40.039 0 11.056 11.057 11.056 28.983 0 40.039zm-80.079-80.079l13.942 66.136 56.484-56.484c11.057-11.056 11.057-28.983 0-40.039-11.056-11.057-28.983-11.057-40.039 0z" fill="#ccf5fc"/><path d="M461.301 138.546a10 10 0 009.133-2.714l30.387-30.387c14.938-14.938 14.938-39.244 0-54.181-7.235-7.236-16.856-11.222-27.091-11.222-.591 0-1.18.013-1.767.04.026-.586.039-1.176.039-1.767 0-10.234-3.984-19.854-11.221-27.091-14.938-14.938-39.244-14.938-54.182 0l-30.387 30.387a10.003 10.003 0 00-2.714 9.134l6.849 32.49-3.447 3.447C336.39 56.529 286.698 40.003 236 40.003c-63.038 0-122.303 24.548-166.877 69.123C24.548 153.7 0 212.965 0 276.003S24.548 398.306 69.123 442.88c44.574 44.574 103.839 69.123 166.877 69.123s122.303-24.548 166.877-69.123C447.452 398.306 472 339.041 472 276.003c0-50.686-16.509-100.348-46.641-140.854l3.453-3.452zm-130.952 63.328l-20.177-20.177 75.102-75.102 2.169 10.286a9.999 9.999 0 007.723 7.722l10.286 2.168zM324 276.003c0 48.523-39.477 88-88 88s-88-39.477-88-88 39.477-88 88-88a88.099 88.099 0 0133.118 6.463l-16.028 16.028a10.003 10.003 0 00-2.929 7.089l.029 16.781a43.784 43.784 0 00-14.19-2.361c-24.262 0-44 19.738-44 44s19.738 44 44 44 44-19.738 44-44c0-4.949-.833-9.704-2.347-14.147l16.81.029h.018a9.999 9.999 0 007.071-2.929l16.011-16.011A88.14 88.14 0 01324 276.003zm-33.654-34.125l-20.143-.035-.035-20.142 25.861-25.861 20.177 20.177zM260 276.003c0 13.233-10.767 24-24 24s-24-10.767-24-24 10.767-24 24-24c2.949 0 5.774.538 8.386 1.515l-11.519 11.519c-3.905 3.905-3.905 10.237 0 14.142a9.968 9.968 0 007.071 2.929 9.97 9.97 0 007.071-2.929l11.5-11.5a23.877 23.877 0 011.491 8.324zM473.73 60.042a18.19 18.19 0 0112.948 5.363c7.14 7.14 7.14 18.757 0 25.896l-26.555 26.555-42.776-9.017 43.429-43.43.005-.005a18.203 18.203 0 0112.949-5.362zm-52.987-34.675c7.139-7.141 18.758-7.14 25.897 0 3.459 3.458 5.363 8.057 5.363 12.948s-1.904 9.49-5.363 12.948l-.005.005-43.429 43.429-9.018-42.776zM452 276.003c0 119.103-96.897 216-216 216s-216-96.897-216-216 96.897-216 216-216c46.123 0 89.664 14.138 126.604 40.977l-31.616 31.616c-28.181-18.728-60.846-28.593-94.988-28.593-94.841 0-172 77.159-172 172 0 29.222 7.463 58.087 21.581 83.476a9.995 9.995 0 0013.6 3.88c4.826-2.684 6.563-8.773 3.879-13.6C90.591 327.336 84 301.831 84 276.003c0-83.813 68.186-152 152-152 28.806 0 56.418 7.942 80.524 23.057l-32.297 32.297A108 108 0 00236 168.003c-59.552 0-108 48.449-108 108s48.448 108 108 108 108-48.449 108-108c0-16.774-3.898-33.282-11.321-48.174l32.3-32.299C380.073 219.623 388 247.211 388 276.003c0 83.813-68.186 152-152 152-25.837 0-51.349-6.595-73.778-19.073a10 10 0 00-13.601 3.878c-2.685 4.826-.948 10.915 3.878 13.6 25.396 14.128 54.27 21.595 83.501 21.595 94.841 0 172-77.159 172-172 0-34.13-9.852-66.768-28.559-94.936l31.607-31.607C437.522 186.086 452 230.593 452 276.003z"/><path d="M121.451 380.553c-2.64 0-5.21 1.07-7.07 2.93a10.08 10.08 0 00-2.93 7.07c0 2.64 1.07 5.21 2.93 7.07s4.431 2.93 7.07 2.93c2.63 0 5.21-1.07 7.07-2.93 1.859-1.86 2.93-4.44 2.93-7.07s-1.07-5.21-2.93-7.07-4.44-2.93-7.07-2.93z"/></svg>