<svg height="512" viewBox="0 0 64 64" width="512" xmlns="http://www.w3.org/2000/svg"><path d="M14.296 25.248l4.475 34.013A2 2 0 0020.754 61h22.492a2 2 0 001.983-1.739L48.684 33 50 23H16.544z" fill="#57a5ff"/><path d="M30 31v22a2 2 0 104 0V31a2 2 0 10-4 0zm-8 0v22a2 2 0 104 0V31a2 2 0 10-4 0zm16 0v22a2 2 0 104 0V31a2 2 0 10-4 0z" fill="#f2f8ff"/><path d="M30 17l4 2h5l-2-5-4-1zm18-7l-5 1v2l1 4 8-1-3-4z" fill="#004fa8"/><path d="M30.172 3.716a2 2 0 00-2.828 0L4.716 26.343a2 2 0 000 2.828L7.544 32 33 6.544z" fill="#57a5ff"/><path d="M45.229 59.261l.391-2.973c-12.834-4.507-21.688-17.063-20.897-31.305l.11-1.983h-8.289l-2.248 2.248 4.475 34.013A2 2 0 0020.754 61h22.492a2 2 0 001.983-1.739z" fill="#303030" opacity=".12"/><path d="M29.5 6.5L5.772 30.228 7.544 32 33 6.544l-2.828-2.828a2 2 0 00-2.828 0l-.314.314z" fill="#303030" opacity=".12"/><path d="M49 12l-1-2-1.818.364L47 12l3 4-6.061.758L44 17l8-1zm-14 3l1.6 4H39l-2-5-4-1-.947 1.263z" fill="#f2f8ff"/><path d="M50 22H18.958L33.707 7.251a1 1 0 000-1.414l-2.828-2.828c-1.134-1.134-3.11-1.134-4.243 0l-2.284 2.284 1.414 1.414 2.285-2.284a1.023 1.023 0 011.414 0l2.122 2.121L7.544 30.586l-2.121-2.122a.99.99 0 01-.293-.707c0-.268.104-.518.293-.707L23.766 8.707l-1.414-1.414-1.373 1.373-1.414-1.414a3.002 3.002 0 00-4.243 0l-7.071 7.071a3.003 3.003 0 000 4.243l1.414 1.414-5.657 5.657c-.567.567-.879 1.32-.879 2.122s.312 1.555.879 2.121l2.828 2.829c.188.186.443.291.708.291s.52-.105.707-.293l5.318-5.318 4.211 32.003A3.009 3.009 0 0020.754 62h22.492a3.01 3.01 0 002.975-2.609l3.455-26.261-1.983-.261-3.455 26.26a1.004 1.004 0 01-.992.871H20.754c-.5 0-.926-.374-.991-.87l-4.411-33.524L16.958 24H48.86l-.641 4.87 1.983.261.79-6A.998.998 0 0050 22zM9.666 17.151a1.002 1.002 0 010-1.415l7.071-7.071a1.003 1.003 0 011.415 0l1.414 1.414-8.485 8.485z"/><path d="M29 31v22c0 1.654 1.346 3 3 3s3-1.346 3-3V31c0-1.654-1.346-3-3-3s-3 1.346-3 3zm4 0v22c0 .551-.449 1-1 1s-1-.449-1-1V31c0-.551.449-1 1-1s1 .449 1 1zm-12 0v22c0 1.654 1.346 3 3 3s3-1.346 3-3V31c0-1.654-1.346-3-3-3s-3 1.346-3 3zm4 0v22c0 .551-.449 1-1 1s-1-.449-1-1V31c0-.551.449-1 1-1s1 .449 1 1zm12 0v22c0 1.654 1.346 3 3 3s3-1.346 3-3V31c0-1.654-1.346-3-3-3s-3 1.346-3 3zm4 0v22c0 .551-.449 1-1 1s-1-.449-1-1V31c0-.551.449-1 1-1s1 .449 1 1zm-3.757-17.97l-4-1a1 1 0 00-1.042.37l-3 4a1 1 0 00.353 1.495l4 2A.995.995 0 0034 20h5a1.001 1.001 0 00.929-1.371l-2-5a1.004 1.004 0 00-.686-.599zM34.236 18l-2.717-1.358 1.883-2.51 2.859.715L37.523 18zm15.618-6.528l-.959-1.919a1 1 0 00-1.091-.533l-5 1A.998.998 0 0042 11v2c0 .082.01.163.03.243l1 4a1 1 0 001.094.749l8-1a1 1 0 00.675-1.593zm-5.099 4.426L44 12.877V11.82l3.447-.689.658 1.317c.027.054.059.105.095.153l1.966 2.622zM44 2h2v2h-2zm8.804 6.207l1.219 1.586a9.67 9.67 0 017.781-1.813l.393-1.961a11.66 11.66 0 00-9.393 2.188zM57 12h2v2h-2zm-9-5h2c0-1.654 1.346-3 3-3V2c-2.757 0-5 2.243-5 5z"/></svg>