<svg viewBox="0 0 512.003 512.003" xmlns="http://www.w3.org/2000/svg"><path d="M215.854 73.339c-51.57 7.055-126.344 63.78-160.491 129.384 54.843-24.102 183.324-50.965 187.492-50.104l41.692-22.694c-.001 0 5.3-66.71-68.693-56.586z" fill="#e8faff"/><path d="M466.083 395.135s-4.644-1.352-11.04-2.535c-109.965-20.337-270.389-110.731-235.28-195.63 12.845-31.062 49.007-35.521 49.007-35.521v-32.753h-90.893l-77.514 60.642c19.316-4.658 35.808-3.743 44.004 2.097 18.989 13.531 6.145 43.055-26.806 32.598-62.044-19.688-75.953 55.358-43.004 83.652l11.2 70.177 199.348 75.596 181.095-.039-.117-58.284z" fill="#b2edff"/><path d="M394.169 394.547c-89.031-31.579-196.251-97.831-203.727-165.593-3.63-32.907 0-68.274 54.172-93.185l-7.604-7.464c-40.791-13.477-85.012-2.175-116.242 29.712l-35.019 35.752c.476-.184.932-.403 1.413-.573 24.849-8.827 47.19-8.902 57.205-1.762 18.989 13.531 6.145 43.055-26.806 32.598-62.044-19.688-75.953 55.358-43.004 83.651l4.884 30.6 98.974-35.754c12.145 17.46 27.966 33.926 47.437 48.834a6.242 6.242 0 003.819 1.319c2.12 0 4.208-1.104 5.511-3.165 2.11-3.352 1.361-7.95-1.679-10.278-28.673-21.951-48.838-47.454-60.061-74.47-1.524-3.667-.065-8.016 3.156-9.931 3.311-1.969 7.327-.354 8.966 3.375 31.71 72.086 139.959 127.496 204.494 150.388a6.259 6.259 0 002.055.352c2.834 0 5.465-1.988 6.377-5.117 1.137-3.877-.8-8.036-4.321-9.289z" fill="#00c3ff"/><path d="M293.063 124.083c-7.944-6.383-30.856-17.474-52.888-17.474-19.649 0-37.498 3.975-53.546 10.324 32.803 3.68 68.465 24.923 83.954 50.513 18.782 31.026 58.083-14.762 22.48-43.363z" fill="#d1f4ff"/><path d="M156.096 321.216S236.577 443.62 459.338 446.04c3.693.041 6.714 3.311 6.714 7.379 0 4.097-3.016 7.419-6.738 7.419H187.93c-30.327 0-71.486-14.763-97.176-51.666C69.261 378.296 77.35 320.6 77.35 320.6l78.746.616z" fill="#00c3ff"/><path d="M459.645 446.076h-201.2c-54.453 0-93.402-20.414-118.48-47.346-9.263-9.948-2.509-27.33 10.427-27.256l.126.001c12.369 0 24.252-9.01 29.836-23.101-16.615-15.816-24.111-27.158-24.111-27.158l-78.745-.616s-8.09 57.695 13.403 88.572c25.691 36.904 66.849 51.666 97.175 51.666h271.387c3.721 0 6.737-3.322 6.737-7.419 0-4.006-2.938-7.206-6.555-7.343z" fill="#00aaf0"/><path d="M430.81 420.582c-.468 0-.943-.05-1.417-.165a310.226 310.226 0 01-11.712-3.028c-3.59-.995-5.762-5.01-4.86-8.96.904-3.964 4.566-6.35 8.14-5.354a306.956 306.956 0 0011.253 2.911c3.616.858 5.92 4.779 5.14 8.766-.674 3.466-3.456 5.83-6.544 5.83zm-171.121-48.005a6.153 6.153 0 01-3.089-.836 295.569 295.569 0 01-8.888-5.306c-3.222-2.004-4.359-6.508-2.54-10.055 1.82-3.554 5.917-4.808 9.13-2.804a279.526 279.526 0 008.489 5.075c3.283 1.881 4.559 6.342 2.847 9.954-1.194 2.53-3.531 3.972-5.95 3.972z" fill="#59d8ff"/><path d="M130.205 226.158c-3.81-.043-8.003-.653-12.644-2.125-62.044-19.69-75.952 55.357-43.003 83.65l4.884 30.6 66.755-24.115a486.874 486.874 0 01-8.53-23.091c-8.329-24.46-9.977-46.027-7.462-64.919zm67.443-104.843c-21.404 0-42.097 8.455-58.32 23.83l-49.974 47.359c21.69-7.298 41.138-7.88 51.85-2.782 22.878-46.894 70.181-68.407 70.181-68.407h-13.737z" fill="#00aaf0"/><path d="M64.505 327.366c-9.583 43.578 26.249 81.806 26.249 81.806s-19.165-36.711-4.608-63.199c9.634-17.53 29.321-21.221 51.519 4.151 16.919 19.336 40.131-8.038 29.395-28.746 9.712 1.972 19.678-1.87 20.869-11.849 4.374-36.618-106.111-60.893-123.424 17.837z" fill="#e8faff"/><path d="M86.146 345.972c9.634-17.529 29.321-21.221 51.519 4.151 16.919 19.336 40.131-8.037 29.395-28.745-19.899-29.689-70.023-33.071-87.197-.779-17.847 33.561-2.513 68.89 10.891 88.572 0 .001-19.165-36.71-4.608-63.199z" fill="#d1f4ff"/><path d="M386.912 432.39a643.969 643.969 0 01-12.704-2.224c-3.429-.638-6.671 1.894-7.251 5.65-.578 3.756 1.727 7.316 5.151 7.951 4.228.786 8.582 1.548 12.939 2.265.316.052.63.076.94.076 3.061 0 5.744-2.454 6.212-5.874.515-3.766-1.852-7.279-5.287-7.844zm73.808-44.252c-41.319-5.882-92.014-24.08-135.611-48.679-47.516-26.811-82.048-58.089-97.237-88.069-9.914-19.568-11.324-38.196-4.195-55.365 4.541-10.937 12.846-18.722 24.686-23.138 6.508-2.429 12.398-3.152 15.373-3.369.553.857 1.101 1.718 1.633 2.593 5.159 8.489 12.504 13.046 20.698 13.046 1.862 0 3.767-.236 5.701-.713 12.201-3.013 22.385-15.177 24.214-28.921 1.907-14.331-5.295-27.658-19.76-36.563a143.445 143.445 0 00-4.835-2.831c-1.082-5.819-5.718-24.451-22.246-37.301-16.048-12.476-38.079-15.656-65.481-9.447-37.062 8.393-73.636 32.225-111.81 72.855-2.493 2.653-2.552 7.02-.134 9.753 1.234 1.394 2.872 2.094 4.513 2.094 1.578 0 3.157-.647 4.379-1.947 36.405-38.748 70.946-61.399 105.594-69.246 23.748-5.381 42.42-3.002 55.5 7.066 7.29 5.611 11.624 12.798 14.158 18.709a120.766 120.766 0 00-7.098-2.584c-3.331-1.096-6.831.982-7.826 4.633-.996 3.65.896 7.492 4.224 8.584 8.398 2.754 16.777 6.687 24.907 11.691 9.958 6.131 14.616 13.926 13.469 22.542-1.07 8.04-7.454 15.707-14.532 17.456-5.31 1.311-9.741-.884-13.171-6.527-11.778-19.377-28.069-34.898-45.877-43.704-4.297-2.125-8.626-3.836-12.967-5.14 7.388-1.199 14.995-1.68 22.767-1.208 3.468.222 6.434-2.701 6.627-6.503.192-3.803-2.463-7.059-5.93-7.27-34.369-2.103-71.075 12.189-106.134 41.3-22.029 18.293-36.815 36.825-41.375 42.833-9.046 2.596-18.486 6.326-27.905 11.227a411.276 411.276 0 0118.355-24.212c2.321-2.834 2.106-7.196-.478-9.741-2.584-2.546-6.56-2.31-8.879.525-22.688 27.713-35.408 50.459-36.183 51.855-1.292 2.297-1.282 5.315.241 7.646 2.024 3.095 5.953 3.805 8.775 1.584 16.957-13.343 37.039-23.056 56.548-27.352 12.231-2.693 29.31-3.855 37.187 1.736 5.232 3.714 7.236 9.023 5.228 13.855-2.706 6.514-12.089 10.986-26.956 6.285-15.281-4.829-28.908-4.802-40.505.082-10.429 4.393-18.64 12.557-23.746 23.612-5.081 10.999-6.652 23.993-4.425 36.586 2.009 11.358 7.009 21.481 14.238 29.003-2.824 5.622-5.073 11.918-6.623 18.931-4.313 19.537-.784 41.05 10.206 62.213 8.133 15.662 17.461 25.656 17.855 26.073 1.222 1.298 2.799 1.943 4.374 1.943 1.642 0 3.284-.703 4.517-2.097 2.417-2.738 2.354-7.105-.141-9.754-.333-.355-33.25-35.892-24.587-75.129 4.209-19.068 14.569-32.643 30.792-40.352 13.583-6.454 30.862-8.215 47.406-4.836 19.822 4.051 34.421 14.966 33.236 24.849-.305 2.541-1.161 4.311-2.616 5.411-1.85 1.4-4.753 1.769-7.763.987a5.763 5.763 0 00-.553-.112c-2.212-3.297-5.065-6.28-8.54-8.822-2.889-2.113-6.795-1.257-8.72 1.912-1.927 3.17-1.147 7.453 1.744 9.565 7.823 5.721 8.76 12.562 8.168 17.294-.815 6.504-5.082 12.54-10.148 14.352-3.922 1.402-7.697.081-11.218-3.928-13.93-15.857-31.123-22.764-44.865-18.025-9.108 3.141-15.197 10.892-16.7 21.266-.546 3.762 1.793 7.297 5.222 7.896 3.424.598 6.654-1.966 7.198-5.729.946-6.523 4.901-9.188 8.052-10.273 10.965-3.779 24.112 5.414 32.038 14.436 5.01 5.702 11.071 8.689 17.298 8.689 2.283 0 4.591-.403 6.875-1.219 6.48-2.319 11.973-7.679 15.358-14.501 5.851 6.84 15.925 17.146 31.546 28.723 24.778 18.362 69.135 43.769 139.734 60.527a5.74 5.74 0 001.336.158c2.897 0 5.503-2.208 6.14-5.44.735-3.723-1.421-7.395-4.816-8.2-68.071-16.159-110.737-40.393-134.54-57.877-25.58-18.788-35.42-33.992-35.614-34.298-.07-.11-.147-.212-.22-.316a33.865 33.865 0 00-.145-1.948c3.799-.28 7.351-1.55 10.274-3.763 4.425-3.347 7.172-8.522 7.946-14.968 1.157-9.646-3.289-19.094-12.518-26.599-7.728-6.287-18.695-11.12-30.883-13.61-27.782-5.677-59.91.832-78.825 25.029-10.42-12.224-13.127-32.108-5.871-47.816 3.918-8.484 16.593-27.09 49.55-16.67 22.07 6.973 36.938-1.918 41.884-13.825 4.637-11.166.681-23.685-9.841-31.155-7.405-5.255-19.604-7.234-34.142-5.728 7.011-7.898 16.846-18.048 28.866-28.001 8.857-7.333 19.645-15.134 31.845-21.786.038-.015.075-.024.112-.04 16.121-6.829 33.643-5.988 50.669 2.433 10.745 5.315 20.892 13.453 29.589 23.599-12.705 2.582-32.563 10.297-42.148 33.376-8.874 21.373-7.309 44.179 4.648 67.783 35.151 69.386 155.867 131.436 242.223 143.727.276.039.547.059.818.059 3.112 0 5.817-2.536 6.228-6.012.445-3.773-1.985-7.233-5.429-7.723z"/><path d="M185.713 239.202c-3.301 1.182-5.103 5.077-4.025 8.697.882 2.96 1.886 5.98 2.989 8.976.989 2.688 3.344 4.319 5.834 4.319.784 0 1.581-.162 2.352-.504 3.221-1.427 4.777-5.445 3.478-8.977a134.953 134.953 0 01-2.698-8.097c-1.077-3.621-4.63-5.599-7.93-4.414zm29.052-83.64c2.866-2.133 3.619-6.412 1.68-9.563-1.942-3.158-5.852-3.99-8.73-1.86-1.386 1.026-33.91 25.693-31.104 75.55.206 3.658 2.973 6.473 6.271 6.473.13 0 .261-.006.393-.014 3.466-.234 6.102-3.507 5.889-7.309-2.351-41.749 24.428-62.395 25.601-63.277zm-33.224 265.415a171.596 171.596 0 01-11.291-6.307c-3.035-1.851-6.864-.65-8.551 2.678-1.687 3.33-.594 7.53 2.442 9.38a184.958 184.958 0 0012.092 6.757 5.8 5.8 0 002.65.645c2.369 0 4.638-1.476 5.704-3.988 1.467-3.454.103-7.557-3.046-9.165zm-33.137-22.204c-21.486-18.562-30.242-36.328-30.328-36.504-1.618-3.361-5.412-4.654-8.483-2.886-3.074 1.771-4.259 5.941-2.644 9.313.394.825 9.921 20.396 33.673 40.914 1.153.997 2.525 1.478 3.887 1.478 1.86 0 3.704-.901 4.944-2.629 2.149-2.992 1.679-7.33-1.049-9.686z"/></svg>