<svg xmlns="http://www.w3.org/2000/svg" viewBox="0 0 512.002 512.002"><path d="M503.468 256.001a247.314 247.314 0 01-247.466 247.466c-4.267 0-8.533-.085-12.8-.341C111.695 496.322 8.552 387.723 8.53 256.041 8.507 124.36 111.612 15.725 243.116 8.876h.171c4.181-.256 8.448-.341 12.715-.341a247.424 247.424 0 01247.466 247.466z" fill="#00838f"/><path d="M477.868 256.001c.021 29.3-5.18 58.37-15.36 85.845a201.159 201.159 0 01-4.693 11.861c-37.186 86.624-120.385 144.572-214.529 149.419h-.598l-7.679-.512c-2.56-.256-5.035-.512-7.595-.768-1.793-.256-3.584-.427-5.461-.768a60.25 60.25 0 01-5.461-.768c-2.816-.427-5.632-.939-8.448-1.451-3.841-.768-7.68-1.621-11.435-2.645-1.963-.427-3.925-.939-5.889-1.451-.853-.256-1.792-.512-2.645-.768-4.694-1.28-9.388-2.816-13.91-4.352a242.27 242.27 0 01-26.537-11.179c-2.133-.939-4.267-2.048-6.4-3.157-3.158-1.707-6.315-3.413-9.388-5.205-2.048-1.195-4.096-2.389-6.059-3.669-3.072-1.877-6.059-3.84-8.96-5.803a88.856 88.856 0 01-5.802-4.096c-1.621-1.195-3.243-2.304-4.779-3.584a80.282 80.282 0 01-4.267-3.243 170.957 170.957 0 01-4.523-3.67 251.977 251.977 0 01-28.074-27.562 197.545 197.545 0 01-5.461-6.485c-1.706-2.048-3.328-4.181-4.95-6.229a249.556 249.556 0 01-30.378-52.053c-31.909-74.38-25.446-159.66 17.307-228.381S162.292 13.121 243.116 8.876h.171c131.485 6.85 234.583 115.46 234.581 247.125z" fill="#00bcd4"/><path d="M384.001 298.668c.018 4.905-.267 9.807-.853 14.677H128.854c-.587-4.87-.872-9.772-.853-14.677.054-65.614 49.677-120.579 114.944-127.317.171-.085.341 0 .513 0 4.163-.487 8.352-.715 12.543-.683 70.682.025 127.974 57.318 128 128z" fill="#fdd834"/><path d="M358.401 298.668c.018 4.905-.267 9.807-.853 14.677H128.854c-.587-4.87-.872-9.772-.853-14.677.054-65.614 49.677-120.579 114.944-127.317.171-.085.341 0 .513 0 65.266 6.738 114.889 61.703 114.943 127.317z" fill="#ffeb3a"/><path d="M483.414 353.708c-39.072 90.875-128.495 149.763-227.413 149.76-4.267 0-8.533-.085-12.715-.341 94.143-4.847 177.342-62.795 214.528-149.419a200.74 200.74 0 004.693-11.861c7.425 3.754 14.337 7.765 20.907 11.861z" fill="#ffb301"/><path d="M462.508 341.846a201.159 201.159 0 01-4.693 11.861c-37.186 86.624-120.385 144.572-214.529 149.419h-.598l-7.679-.512c-2.56-.256-5.035-.512-7.595-.768-1.793-.256-3.584-.427-5.461-.768a60.25 60.25 0 01-5.461-.768c-2.816-.427-5.632-.939-8.448-1.451-3.841-.768-7.68-1.621-11.435-2.645-1.963-.427-3.925-.939-5.889-1.451-.853-.256-1.792-.512-2.645-.768-4.694-1.28-9.388-2.816-13.91-4.352a242.27 242.27 0 01-26.537-11.179c-2.133-.939-4.267-2.048-6.4-3.157-3.158-1.707-6.315-3.413-9.388-5.205-2.048-1.195-4.096-2.389-6.059-3.669-3.072-1.877-6.059-3.84-8.96-5.803a88.856 88.856 0 01-5.802-4.096c-1.621-1.195-3.243-2.304-4.779-3.584a80.282 80.282 0 01-4.267-3.243 170.957 170.957 0 01-4.523-3.67 251.977 251.977 0 01-28.074-27.562 197.545 197.545 0 01-5.461-6.485c-1.706-2.048-3.328-4.181-4.95-6.229a249.556 249.556 0 01-30.378-52.053C81.75 320.172 163.84 298.668 256 298.668c80.812 0 153.857 16.554 206.508 43.178z" fill="#fec108"/><path d="M256.001.001C169.689-.039 89.174 43.437 41.864 115.627s-55.038 163.367-20.553 242.49c.029.046.027.1.056.146l.02.021c40.658 93.35 132.79 153.715 234.61 153.717 101.82.002 193.954-60.36 234.614-153.709l.023-.028c.029-.046.027-.1.056-.146 34.484-79.123 26.757-170.3-20.553-242.49S342.312-.039 256.001.001zm0 494.933c-92.768-.094-177.116-53.816-216.426-137.843 54.025-31.744 132.284-49.89 216.426-49.89s162.401 18.146 216.426 49.89c-39.31 84.027-123.659 137.749-216.426 137.843zM136.534 298.668c0-65.98 53.487-119.467 119.467-119.467s119.467 53.487 119.467 119.467c0 1.408-.071 2.744-.115 4.107a554.977 554.977 0 00-119.352-12.641 554.913 554.913 0 00-119.352 12.641c-.044-1.363-.115-2.699-.115-4.107zm342.625 42.575a354.534 354.534 0 00-86.865-34.378c.157-2.659.237-5.391.24-8.198 0-75.405-61.128-136.533-136.533-136.533s-136.533 61.128-136.533 136.533c0 2.802.08 5.535.24 8.198a354.532 354.532 0 00-86.865 34.377c-34.2-89.518-11.601-190.809 57.405-257.302S261.314-1.38 349.502 36.115s145.44 124.057 145.432 219.886a237.636 237.636 0 01-15.775 85.242z"/><path d="M264.534 204.801a8.53 8.53 0 00-8.534-8.534 102.178 102.178 0 00-85.783 46.533 8.53 8.53 0 006.665 13.207 8.532 8.532 0 007.618-3.874 85.19 85.19 0 0171.5-38.8 8.53 8.53 0 008.534-8.532zm-8.533-110.933a8.53 8.53 0 00-8.534 8.534v34.133a8.533 8.533 0 0017.066 0v-34.133a8.53 8.53 0 00-8.532-8.534zm-59.108 17.454a8.53 8.53 0 10-16.033 5.833l11.675 32.075a8.534 8.534 0 008.017 5.621 8.42 8.42 0 002.917-.521 8.52 8.52 0 005.1-10.934l-11.676-32.074zm-60.517 31.512a8.529 8.529 0 10-13.067 10.967l21.942 26.15a8.529 8.529 0 1013.067-10.967l-21.942-26.15zm-16.517 67.375l-29.567-17.067a8.535 8.535 0 10-8.533 14.784l29.567 17.067a8.535 8.535 0 108.533-14.784zm-22.041 51.9l-33.617-5.929a8.534 8.534 0 00-9.887 6.921 8.534 8.534 0 006.921 9.887l33.617 5.929a8.534 8.534 0 002.966-16.808zm309.45 9.888a8.527 8.527 0 009.884 6.921l33.617-5.929a8.534 8.534 0 00-2.966-16.808l-33.617 5.929a8.533 8.533 0 00-6.918 9.887zm-15.125-61.788c-4.08 2.358-5.477 7.575-3.121 11.656s7.573 5.481 11.655 3.127l29.567-17.067a8.534 8.534 0 003.121-11.656 8.535 8.535 0 00-11.655-3.127l-29.567 17.067zm-4.5-68.429a8.524 8.524 0 00-12.017 1.054l-21.942 26.15a8.53 8.53 0 1013.067 10.967l21.942-26.15a8.531 8.531 0 00-1.05-12.021zm-61.601-35.558a8.534 8.534 0 00-10.933 5.1l-11.675 32.075a8.522 8.522 0 005.1 10.934 8.439 8.439 0 002.917.521 8.534 8.534 0 008.017-5.621l11.675-32.075a8.522 8.522 0 00-5.101-10.934z"/></svg>