<?xml version="1.0" encoding="utf-8"?>
<svg viewBox="0 0 512.002 512.002" xmlns="http://www.w3.org/2000/svg">
  <path d="M 258.88 497.465 C 252.777 497.465 246.677 497.357 240.575 497.03 C 145.361 492.636 60.544 454.955 0 397.02 L 0 0 L 515 0 L 515 399.745 C 450.547 459.997 359.625 497.52 258.88 497.465 Z" style="fill: rgb(0, 188, 212);"/>
  <path d="M477.868 256.001c.021 29.3-5.18 58.37-15.36 85.845a201.159 201.159 0 01-4.693 11.861c-37.186 86.624-120.385 144.572-214.529 149.419h-.598l-7.679-.512c-2.56-.256-5.035-.512-7.595-.768-1.793-.256-3.584-.427-5.461-.768a60.25 60.25 0 01-5.461-.768c-2.816-.427-5.632-.939-8.448-1.451-3.841-.768-7.68-1.621-11.435-2.645-1.963-.427-3.925-.939-5.889-1.451-.853-.256-1.792-.512-2.645-.768-4.694-1.28-9.388-2.816-13.91-4.352a242.27 242.27 0 01-26.537-11.179c-2.133-.939-4.267-2.048-6.4-3.157-3.158-1.707-6.315-3.413-9.388-5.205-2.048-1.195-4.096-2.389-6.059-3.669-3.072-1.877-6.059-3.84-8.96-5.803a88.856 88.856 0 01-5.802-4.096c-1.621-1.195-3.243-2.304-4.779-3.584a80.282 80.282 0 01-4.267-3.243 170.957 170.957 0 01-4.523-3.67 251.977 251.977 0 01-28.074-27.562 197.545 197.545 0 01-5.461-6.485c-1.706-2.048-3.328-4.181-4.95-6.229a249.556 249.556 0 01-30.378-52.053c-31.909-74.38-25.446-159.66 17.307-228.381S162.292 13.121 243.116 8.876h.171c131.485 6.85 234.583 115.46 234.581 247.125z" fill="#00bcd4"/>
  <path d="M384.001 298.668c.018 4.905-.267 9.807-.853 14.677H128.854c-.587-4.87-.872-9.772-.853-14.677.054-65.614 49.677-120.579 114.944-127.317.171-.085.341 0 .513 0 4.163-.487 8.352-.715 12.543-.683 70.682.025 127.974 57.318 128 128z" fill="#fdd834"/>
  <path d="M358.401 298.668c.018 4.905-.267 9.807-.853 14.677H128.854c-.587-4.87-.872-9.772-.853-14.677.054-65.614 49.677-120.579 114.944-127.317.171-.085.341 0 .513 0 65.266 6.738 114.889 61.703 114.943 127.317z" fill="#ffeb3a"/>
  <path d="M 34.322 353.698 C 86.804 320.164 167.841 298.664 258.819 298.668 C 337.969 298.672 487.451 349.925 515 366.012 L 515 515 L 0 515 L 0 374.658 C 11.363 367.136 22.935 360.04 34.322 353.698 Z" style="fill: rgb(254, 193, 8);"/>
  <path d="M264.534 204.801a8.53 8.53 0 00-8.534-8.534 102.178 102.178 0 00-85.783 46.533 8.53 8.53 0 006.665 13.207 8.532 8.532 0 007.618-3.874 85.19 85.19 0 0171.5-38.8 8.53 8.53 0 008.534-8.532zm-8.533-110.933a8.53 8.53 0 00-8.534 8.534v34.133a8.533 8.533 0 0017.066 0v-34.133a8.53 8.53 0 00-8.532-8.534zm-59.108 17.454a8.53 8.53 0 10-16.033 5.833l11.675 32.075a8.534 8.534 0 008.017 5.621 8.42 8.42 0 002.917-.521 8.52 8.52 0 005.1-10.934l-11.676-32.074zm-60.517 31.512a8.529 8.529 0 10-13.067 10.967l21.942 26.15a8.529 8.529 0 1013.067-10.967l-21.942-26.15zm-16.517 67.375l-29.567-17.067a8.535 8.535 0 10-8.533 14.784l29.567 17.067a8.535 8.535 0 108.533-14.784zm-22.041 51.9l-33.617-5.929a8.534 8.534 0 00-9.887 6.921 8.534 8.534 0 006.921 9.887l33.617 5.929a8.534 8.534 0 002.966-16.808zm309.45 9.888a8.527 8.527 0 009.884 6.921l33.617-5.929a8.534 8.534 0 00-2.966-16.808l-33.617 5.929a8.533 8.533 0 00-6.918 9.887zm-15.125-61.788c-4.08 2.358-5.477 7.575-3.121 11.656s7.573 5.481 11.655 3.127l29.567-17.067a8.534 8.534 0 003.121-11.656 8.535 8.535 0 00-11.655-3.127l-29.567 17.067zm-4.5-68.429a8.524 8.524 0 00-12.017 1.054l-21.942 26.15a8.53 8.53 0 1013.067 10.967l21.942-26.15a8.531 8.531 0 00-1.05-12.021zm-61.601-35.558a8.534 8.534 0 00-10.933 5.1l-11.675 32.075a8.522 8.522 0 005.1 10.934 8.439 8.439 0 002.917.521 8.534 8.534 0 008.017-5.621l11.675-32.075a8.522 8.522 0 00-5.101-10.934z"/>
  <path d="M 31.318 342.976 C 57.904 326.762 87.839 316.176 118.183 308.599 C 118.023 305.936 117.943 303.203 117.943 300.401 C 117.943 224.996 179.071 163.868 254.476 163.868 C 329.881 163.868 391.009 224.996 391.009 300.401 C 391.006 303.208 390.926 305.94 390.769 308.599 C 421.114 316.176 450.322 327.736 477.634 342.977 C 477.652 342.924 462.963 334.758 477.688 342.817 C 488.854 348.929 505.107 359.349 515 365.939 L 515 386.897 L 467.72 356.987 C 413.828 326.382 336.98 308.935 254.476 308.935 C 171.972 308.935 95.124 326.382 41.232 356.987 L 0 385.076 L 0 363.682 C 9.758 356.807 28.387 344.763 31.318 342.976 Z M 135.124 304.509 C 174.334 295.993 214.352 291.754 254.476 291.868 C 294.6 291.755 334.618 295.993 373.828 304.509 C 373.872 303.146 373.943 301.81 373.943 300.402 C 373.943 234.422 320.456 180.935 254.476 180.935 C 188.496 180.935 135.009 234.422 135.009 300.402 C 135.009 301.81 135.08 303.146 135.124 304.509 Z"/>
  <path d="M 1237.716 -16.546 L 1237.693 -16.518 C 1197.033 76.831 1104.899 137.193 1003.079 137.191 C 901.259 137.189 809.127 76.824 768.469 -16.526 L 768.449 -16.547 C 768.42 -16.593 768.422 -16.647 768.393 -16.693 C 768.857 -19.381 769.323 -22.053 769.791 -24.708 C 772.397 -27.645 776.094 -31.232 779.925 -33.568 C 806.511 -49.782 836.446 -60.368 866.79 -67.945 C 866.63 -70.608 866.55 -73.341 866.55 -76.143 C 866.55 -151.548 927.678 -212.676 1003.083 -212.676 C 1078.488 -212.676 1139.616 -151.548 1139.616 -76.143 C 1139.613 -73.336 1139.533 -70.604 1139.376 -67.945 C 1169.721 -60.368 1198.929 -48.808 1226.241 -33.567 C 1226.259 -33.62 1226.277 -33.673 1226.295 -33.727 C 1231.27 -29.98 1235.699 -26.641 1239.629 -23.676 C 1239.228 -21.001 1238.611 -18.664 1237.772 -16.692 C 1237.743 -16.646 1237.745 -16.592 1237.716 -16.546 Z M 1219.509 -17.719 C 1165.484 -49.463 1087.225 -67.609 1003.083 -67.609 C 918.941 -67.609 840.682 -49.463 786.657 -17.719 C 825.967 66.308 910.315 120.03 1003.083 120.124 C 1095.85 120.03 1180.199 66.308 1219.509 -17.719 Z M 883.731 -72.035 C 922.941 -80.551 962.959 -84.79 1003.083 -84.676 C 1043.207 -84.789 1083.225 -80.551 1122.435 -72.035 C 1122.479 -73.398 1122.55 -74.734 1122.55 -76.142 C 1122.55 -142.122 1069.063 -195.609 1003.083 -195.609 C 937.103 -195.609 883.616 -142.122 883.616 -76.142 C 883.616 -74.734 883.687 -73.398 883.731 -72.035 Z"/>
</svg>